<svg width="169" height="88" viewBox="0 0 169 88" fill="none" xmlns="http://www.w3.org/2000/svg">
<path d="M43.0247 43.0955C43.0247 33.2188 38.0497 22.7546 32.198 14.9514C28.2595 9.69933 22.331 6.01968 15.7342 5.28661C10.3755 4.69111 7.16389 4.69911 3.92328 8.86614C0.658505 13.0643 1.96132 16.6504 4.77331 20.5444C11.2469 29.509 17.0603 40.1378 24.6819 48.1068C31.9199 55.6748 39.0116 62.9439 45.7985 71.0159C47.6481 73.2157 60.4432 92.0925 63.336 83.9917C64.7133 80.1347 65.2606 76.2846 66.0203 72.2687C67.8826 62.424 70.5306 52.5614 73.5364 43.006C76.7172 32.8942 80.8735 22.773 80.8735 12.0877C80.8735 9.9557 81.7649 3.7132 78.8155 2.87042C75.04 1.79156 70.9737 2.02028 66.7809 2.02028C57.3163 2.02028 53.6555 10.6072 50.0934 18.1282C48.0032 22.5415 46.7587 27.3409 45.2616 31.9989C44.0302 35.8306 44.7032 40.5435 43.0247 43.9009" stroke="#F97C60" stroke-width="3" stroke-linecap="round"/>
<path d="M149.81 84.9581C149.81 85.1972 146.083 79.6416 145.011 78.5032C143.261 76.6452 141.109 75.474 139.412 73.662C136.238 70.2712 134.198 65.8094 132.392 61.5592C128.901 53.3409 129.015 44.1069 129.015 35.3362C129.015 31.9474 128.562 29.2848 132.614 29.2848C134.836 29.2848 138.228 33.8207 139.235 35.7397C140.748 38.6228 143.359 42.5002 145.633 44.7944C147.527 46.7048 147.063 51.7009 149.41 47.4391C152.253 42.2762 153.547 31.3772 160.651 29.3296C169.541 26.7673 167.078 39.8363 165.183 44.6151C162.121 52.3394 159.614 60.6861 156.208 68.4175C155.072 70.9956 154.678 74.1803 153.409 76.486C152.56 78.028 152.741 85.6299 151.409 84.9581" stroke="#F97C60" stroke-width="3" stroke-linecap="round"/>
</svg>
