<svg width="116" height="122" viewBox="0 0 116 122" fill="none" xmlns="http://www.w3.org/2000/svg">
<path d="M10 29.6066C10.4628 27.2926 14.7569 24.9983 16.6188 23.9585C20.5352 21.7714 24.2887 19.814 27.6281 16.722C29.4869 15.0009 31.127 12.9593 32.8129 11.0739C32.8829 10.9956 34.1808 9 34.4234 9C35.3479 9 31.5142 18.4831 31.3567 18.84C28.199 25.9975 25.2633 33.3306 21.605 40.2408C18.1979 46.6764 13.6658 53.0659 11.7871 60.1634C11.5341 61.1191 11.1642 62.4876 10.8264 63.7306C10.7568 63.9869 10.7132 63.9806 10.8604 63.7597V63.7597C13.1191 60.3717 16.781 57.42 19.6414 54.5595C26.6521 47.5488 33.8345 40.4937 41.1526 33.7985C45.6511 29.6828 50.2746 24.9954 53.7724 19.9872C55.1779 17.9748 56.7232 15.8313 57.9644 13.7214C58.4338 12.9233 58.4497 13.8908 58.4497 14.3612C58.4497 16.3092 57.9582 17.9228 57.2583 19.7225C53.9404 28.2544 50.5447 36.7897 47.1757 45.3152C43.7502 53.9838 39.7145 62.5881 36.9165 71.4816C35.6823 75.4046 34.7649 78.7494 34.2249 82.7998C33.9311 85.0031 33.9042 89.6059 32.5481 91.4704C30.589 94.1642 36.5038 86.0977 38.7257 83.6161C44.2887 77.4029 49.632 71.0246 55.0962 64.7304C60.7058 58.2687 65.6688 51.3525 71.555 45.1167C77.3021 39.0282 83.065 32.7549 88.1682 26.1207C89.0425 24.9841 90.0475 23.1307 90.22 21.664C90.423 19.9389 89.9553 23.8448 89.7347 24.5322C86.8335 33.5704 83.482 42.5183 80.8875 51.6472C76.4364 67.3085 68.836 81.5514 63.5683 96.8758C61.9907 101.465 60.7812 106.115 58.8689 110.577C58.6256 111.144 58.0922 111.973 58.0526 112.607C58.0481 112.679 59.5267 110.373 59.9059 109.871C68.3301 98.7016 77.7515 88.2807 87.043 77.8357C93.3573 70.7375 99.5695 63.7573 103.281 54.8905C104.438 52.1276 105.312 49.3596 106.127 46.5066C107.69 41.0383 101.821 57.0347 99.5746 62.2594C94.9678 72.9753 90.3695 83.6532 85.6531 94.3165C83.4871 99.2135 82.6746 104.121 82.6746 109.429" stroke="#F5F6F8" stroke-width="18" stroke-linecap="round"/>
</svg>
