<svg width="147" height="139" viewBox="0 0 147 139" fill="none" xmlns="http://www.w3.org/2000/svg">
<path d="M19.4056 12.5773C20.0027 10.7087 18.2114 16.3143 17.6143 18.1829C15.6616 24.2935 13.2387 30.007 10.8042 35.9138C10.1408 37.5235 8.55021 40.5061 11.1656 38.3632C17.5944 33.0958 22.3939 25.606 28.0674 19.5554C30.0228 17.4701 32.1015 15.5236 34.1548 13.5378C35.3605 12.3718 36.6989 10.5613 38.2162 9.77882C39.1182 9.31374 38.5567 10.6469 38.4584 10.9545C37.5008 13.9511 36.5432 16.9477 35.5856 19.9443C31.9441 31.3398 28.7092 42.981 24.4245 54.1554C22.7389 58.5513 20.6524 62.8089 19.2185 67.2962C18.7826 68.6602 20.6704 65.7922 21.0827 65.3292C26.5747 59.1617 31.8419 52.6625 36.9879 46.203C41.7352 40.2438 46.5201 34.0286 51.9339 28.6465C53.0172 27.5696 54.6086 25.4141 56.1473 24.9131C57.1054 24.6012 55.8582 27.3931 55.788 27.6128C52.0838 39.2047 48.3795 50.7966 44.6753 62.3885C41.6842 71.7485 37.8755 81.2033 35.9863 90.8683C35.7179 92.2416 34.8133 96.0634 35.7904 95.0617C36.9079 93.9159 37.9153 92.2055 38.8544 90.9153C42.5948 85.7763 45.9328 80.3591 49.3403 74.9998C55.5136 65.2905 61.8774 55.5716 69.1005 46.6027C72.2149 42.7355 75.6745 39.1686 78.8311 35.3424C80.0808 33.8276 79.5014 35.6391 79.2742 36.6052C78.1316 41.4627 77.138 46.4028 76.6595 51.375C76.0981 57.2092 76.1351 63.1251 76.0447 68.9805C75.9214 76.9707 75.421 84.9618 75.5919 92.9531C75.6177 94.1588 75.8172 103.147 76.2651 102.733C77.9672 101.16 78.7795 98.0375 79.6552 95.9906C81.9791 90.5586 84.195 85.0816 86.524 79.6513C92.1374 66.5629 97.503 53.1635 104.499 40.7302C105.124 39.6184 107.286 34.0851 109.124 34.0622C111.327 34.0348 107.364 93.1262 107.09 98.2821C106.864 102.557 106.191 107.302 106.987 111.566C107.159 112.488 107.482 111.808 107.747 111.191C109.487 107.152 111.404 103.394 113.53 99.5391C117.615 92.1323 121.52 84.6281 125.605 77.2209C127.758 73.317 129.655 69.1426 132.311 65.5433C132.542 65.2306 137.416 58.2303 137.718 60.7956C138.258 65.3818 137.408 70.4527 136.819 74.9926C135.715 83.5167 134.353 92.0642 132.546 100.467C129.059 116.679 128.43 113.494 125.381 129.793" stroke="#F5F6F8" stroke-width="18" stroke-linecap="round"/>
</svg>
