<svg width="116" height="118" viewBox="0 0 116 118" fill="none" xmlns="http://www.w3.org/2000/svg">
<path d="M9.70759 45.4297C9.12805 39.0084 14.5712 34.7371 16.1062 28.9378C16.3522 28.0086 16.4575 29.3339 16.4819 29.605C16.6483 31.4478 16.8146 33.2907 16.9809 35.1335C17.3808 39.5644 17.9369 44.0095 18.148 48.4538C18.385 53.4411 17.5232 58.7078 16.4093 63.5611C16.0587 65.0887 15.678 66.631 15.477 68.1847C15.3905 68.8532 15.2778 69.4685 15.2667 68.3789C15.247 66.4488 16.0572 64.4945 16.7006 62.711C18.0655 58.9275 19.5935 55.131 21.4427 51.5566C27.629 39.599 35.1284 28.1428 43.7418 17.8204C44.2417 17.2213 44.4926 17.1301 44.2884 18.0515C43.8847 19.8736 42.7611 21.399 42.3349 23.2055C40.6611 30.2984 38.7975 37.285 37.8801 44.5346C36.7907 53.1438 35.7637 61.825 34.9269 70.4605C34.6545 73.2707 33.651 76.5199 33.9033 79.3163C33.9161 79.4573 33.9047 79.031 33.9352 78.8928C34.2085 77.6534 34.83 76.4394 35.2904 75.2651C37.0692 70.7279 38.7622 66.1439 40.7247 61.682C46.3627 48.8636 53.6788 36.8395 60.7769 24.801C62.6243 21.6678 64.6623 18.6556 66.6051 15.5817C67.1691 14.6892 70.0208 9.48348 70.9787 9.66599C72.2892 9.91571 68.3809 22.0456 68.0288 23.2001C66.8486 27.0693 66.1868 31.0599 65.1827 34.9721C63.8017 40.3528 62.1974 45.6375 61.0095 51.0703C58.3453 63.2551 55.7021 75.4389 53.4141 87.7034C52.4941 92.6349 51.7856 97.6895 50.5834 102.559C50.5266 102.789 50.1127 103.867 50.2939 103.041C50.8345 100.575 52.4319 98.2307 53.5683 96.0148C57.1335 89.0627 60.3668 81.93 64.1404 75.08C68.1961 67.7181 72.3856 59.6166 77.5138 52.9459C79.0429 50.957 79.9263 47.6944 81.8344 46.0535C82.0415 45.8754 82.251 48.7278 82.2671 48.9064C82.6809 53.4916 82.8444 58.0582 82.8777 62.6624C82.9517 72.9044 83.2718 83.0977 82.5606 93.328C82.2368 97.9857 81.77 102.822 82.1911 107.488C82.2372 107.999 82.1281 108.796 82.7027 108.108C85.0406 105.306 86.4667 101.583 88.3162 98.4522C92.5647 91.2607 96.783 83.6432 102.155 77.205C103.051 76.1316 104.028 74.9513 105.113 74.0462C105.263 73.9208 106.1 73.0727 106.238 73.5064C107.419 77.2085 105.316 82.1946 104.852 85.9179C104.531 88.4933 103.432 91.1602 103.668 93.7716C103.799 95.2204 103.929 96.6692 104.06 98.1179" stroke="#F5F6F8" stroke-width="18" stroke-linecap="round"/>
</svg>
