<svg width="176" height="89" viewBox="0 0 176 89" fill="none" xmlns="http://www.w3.org/2000/svg">
<path d="M48.0247 44.0955C48.0247 34.2188 43.0497 23.7546 37.198 15.9514C33.2595 10.6993 27.331 7.01968 20.7342 6.28661C15.3755 5.69111 12.1639 5.69911 8.92328 9.86614C5.65851 14.0643 6.96132 17.6504 9.77331 21.5444C16.2469 30.509 22.0603 41.1378 29.6819 49.1068C36.9199 56.6748 44.0116 63.9439 50.7985 72.0159C52.6481 74.2157 65.4432 93.0925 68.336 84.9917C69.7133 81.1347 70.2606 77.2846 71.0203 73.2687C72.8826 63.424 75.5306 53.5614 78.5364 44.006C81.7172 33.8942 85.8735 23.773 85.8735 13.0877C85.8735 10.9557 86.7649 4.7132 83.8155 3.87042C80.04 2.79156 75.9737 3.02028 71.7809 3.02028C62.3163 3.02028 58.6555 11.6072 55.0934 19.1282C53.0032 23.5415 51.7587 28.3409 50.2617 32.9989C49.0302 36.8306 49.7032 41.5435 48.0247 44.9009" stroke="#F97C60" stroke-width="3" stroke-linecap="round"/>
<path d="M154.81 85.9581C154.81 86.1972 151.083 80.6416 150.011 79.5032C148.261 77.6452 146.109 76.474 144.412 74.662C141.238 71.2712 139.198 66.8094 137.392 62.5592C133.901 54.3409 134.015 45.1069 134.015 36.3362C134.015 32.9474 133.562 30.2848 137.614 30.2848C139.836 30.2848 143.228 34.8207 144.235 36.7397C145.748 39.6228 148.359 43.5002 150.633 45.7944C152.527 47.7048 152.063 52.7009 154.41 48.4391C157.253 43.2762 158.547 32.3772 165.651 30.3296C174.541 27.7673 172.078 40.8363 170.183 45.6151C167.121 53.3394 164.614 61.6861 161.208 69.4175C160.072 71.9956 159.678 75.1803 158.409 77.486C157.56 79.028 157.741 86.6299 156.409 85.9581" stroke="#F97C60" stroke-width="3" stroke-linecap="round"/>
<path d="M43.7724 44.3469C43.4557 34.4753 38.1478 24.176 32.0489 16.5644C27.944 11.4413 21.9006 7.95364 15.2837 7.43246C9.90866 7.00908 6.69895 7.12005 3.59361 11.3888C0.465112 15.6895 1.88223 19.232 4.81764 23.0338C11.5753 31.7862 17.7266 42.2232 25.5997 49.9438C33.0766 57.2757 40.3978 64.3138 47.44 72.164C49.3592 74.3034 62.7529 92.7602 65.3845 84.5709C66.6374 80.6717 67.061 76.806 67.6915 72.7678C69.2372 62.8684 71.5676 52.926 74.2655 43.2792C77.1205 33.0706 80.9501 22.8214 80.6075 12.1416C80.5392 10.0106 81.23 3.74276 78.2551 2.99498C74.4469 2.03773 70.3901 2.3967 66.1994 2.53113C56.7397 2.83459 53.3561 11.5344 50.037 19.1658C48.0893 23.6438 46.9993 28.4807 45.6524 33.1843C44.5444 37.0535 45.3682 41.7424 43.7982 45.1519" stroke="#F97C60" stroke-width="3" stroke-linecap="round"/>
<path d="M158.129 84.3372C158.166 84.5735 153.622 79.6639 152.386 78.7058C150.369 77.1419 148.061 76.3192 146.104 74.7926C142.441 71.9358 139.733 67.8449 137.289 63.9266C132.564 56.3501 131.243 47.2104 129.882 38.5461C129.355 35.1984 128.494 32.6384 132.497 32.0092C134.692 31.6642 138.747 35.6185 140.04 37.3578C141.982 39.971 145.164 43.396 147.766 45.3092C149.934 46.9024 150.251 51.9099 151.908 47.3354C153.915 41.7936 153.502 30.8259 160.201 27.7C168.585 23.7884 168.182 37.0813 167.052 42.0964C165.226 50.2025 164.045 58.8372 161.881 67.0037C161.16 69.727 161.265 72.9342 160.369 75.4091C159.769 77.0642 161.129 84.5457 159.709 84.0888" stroke="#F97C60" stroke-width="3" stroke-linecap="round"/>
</svg>
