<svg width="523" height="222" viewBox="0 0 523 222" fill="none" xmlns="http://www.w3.org/2000/svg">
<path d="M132.408 62.314C132.408 58.7524 132.408 55.1908 132.408 51.6291C132.408 48.5736 127.932 45.7827 125.15 45.7827C124.248 45.7827 121.912 45.3703 121.432 46.1859C120.574 47.6443 119.253 48.0962 118.117 49.2323C115.725 51.6238 114.228 54.4274 113.054 57.6548C109.873 66.4035 108.234 75.6385 105.08 84.4006C104.636 85.632 103.861 86.7574 103.781 88.1191C103.701 89.4692 102.238 90.5304 104.408 89.1495C106.817 87.6164 111.168 87.0905 113.95 86.5959C116.952 86.0623 120.241 86.0063 123.157 85.095C128.034 83.5711 133.535 82.3405 137.963 79.6518C141.2 77.6868 145.443 77.0002 148.357 74.4101C150.449 72.5503 152.971 71.6652 152.971 68.5637C152.971 65.7796 150.088 63.1204 147.125 63.1204C144.34 63.1204 141.778 61.9108 138.859 61.9108C137.1 61.9108 136.197 62.3457 134.626 62.6948C134.1 62.8116 132.658 63.6641 132.251 63.5012C132.146 63.4592 134.102 62.5466 134.424 62.4036C136.249 61.5925 138.618 61.9108 140.562 61.9108C142.24 61.9108 144.282 61.5703 145.915 61.9332C149.316 62.6889 149.343 65.0781 149.343 68.1381C149.343 69.2864 147.571 71.5429 146.341 71.5429C145.745 71.5429 146.36 67.0953 146.027 66.3461C145.851 65.95 145.039 62.6845 144.415 64.4196C143.506 66.9441 143.489 69.8138 142.69 72.3717C142.546 72.8326 141.877 76.3814 141.48 76.3814C140.991 76.3814 140.875 70.9892 140.875 70.3781C140.875 67.732 139.409 61.7606 136.843 66.7493C135.901 68.581 135.437 70.5927 134.514 72.4389C133.96 73.5457 133.308 74.6659 133.214 75.9334C133.096 77.5366 132.005 80.2219 132.005 76.9862C132.005 74.7517 131.573 71.6527 132.498 69.5717C132.696 69.1262 133.296 65.3615 132.587 65.1589C130.647 64.6045 129.704 70.8393 129.406 71.9461C128.721 74.4927 127.469 77.4809 127.166 80.055C127.04 81.1321 126.763 80.3576 126.763 79.6518C126.763 78.0949 126.586 76.3964 126.965 74.8805C127.46 72.8994 128.376 70.8347 128.376 68.7653C128.376 67.1525 128.376 65.5397 128.376 63.9268C128.376 61.378 126.996 66.9063 126.763 67.7797C125.714 71.7124 124.599 75.8357 123.56 79.4726C123.271 80.483 122.625 81.334 122.35 82.295C121.617 84.8606 122.532 76.9391 123.045 74.3205C123.998 69.4506 124.532 63.6431 126.45 59.0884C127.695 56.1309 127.973 52.8544 127.973 49.6131C127.973 47.7808 127.99 46.2692 127.077 48.9187C125.9 52.3316 125.312 55.7652 124.546 59.29C123.826 62.5995 124.145 66.6211 122.933 69.7733C122.215 71.6386 122.641 73.8056 121.835 75.6198C120.843 77.853 121.059 81.137 119.595 82.967C119.131 83.5467 119.008 86.809 118.386 84.087C117.78 81.4375 118.296 78.1378 118.296 75.4182C118.296 70.0115 118.699 64.5058 118.699 59.178C118.699 55.9231 119.717 50.8852 121.32 48.0003C121.609 47.4799 122.392 43.6387 121.611 46.2755C120.833 48.903 119.909 52.3344 119.909 55.0788C119.909 60.5765 118.086 66.2753 116.593 71.4981C115.579 75.0485 114.993 79.2217 113.547 82.4742C113.326 82.9723 112.248 86.6141 112.248 83.6838C112.248 80.8614 112.248 78.039 112.248 75.2166C112.248 72.0955 112.248 68.9744 112.248 65.8533C112.248 64.4115 112.145 62.5795 112.853 61.306C113.297 60.5064 114.264 58.19 114.264 57.3188C114.264 53.9921 112.992 63.8538 112.561 67.1525C112.094 70.733 111.303 74.2755 111.016 77.8598C110.885 79.4993 110.472 81.8142 109.739 83.2806C108.849 85.0608 107.813 85.1823 107.813 82.967C107.813 77.6935 111.492 72.3152 114.264 67.9589C115.751 65.6212 117.085 63.2241 118.206 60.7012C118.785 59.3983 118.587 57.7589 119.304 56.4676C120.58 54.1712 122.543 52.1685 123.851 49.8147C124.134 49.3058 124.51 48.7111 124.837 48.2915C124.842 48.2849 123.781 49.9032 123.538 50.4195C121.425 54.9092 120.715 59.8135 120.715 64.778C120.715 71.8059 118.699 78.4785 118.699 85.4535C118.699 85.9814 118.599 84.3022 118.923 83.8854C119.453 83.2037 119.726 82.2885 120.312 81.6678C121.403 80.5126 121.864 78.8675 123.314 78.039C124.411 77.4118 125.458 75.2517 126.136 74.1861C127.585 71.9098 128.044 68.527 128.69 65.9429C129.491 62.7374 130.392 59.7816 130.392 56.4676C130.392 55.2859 130.795 54.1632 130.795 52.8387C130.795 51.5033 130.87 52.6561 130.594 53.2643C129.656 55.3263 130.121 57.9752 129.899 60.1636C129.494 64.1607 129.586 68.1536 129.586 72.1701C129.586 74.1637 129.921 74.5214 131.109 75.7094C133.556 78.1565 136.426 75.6702 137.246 72.7973C137.705 71.1939 138.456 70.0791 138.456 68.3621C138.456 67.0636 138.456 71.5935 138.456 72.4165C138.456 74.4773 138.456 76.5382 138.456 78.599C138.456 79.0124 138.792 77.8377 138.882 77.4342C139.058 76.6407 139.947 75.9661 140.472 75.4406C142.099 73.8138 146.345 70.2337 143.519 67.5557C141.088 65.2528 136.749 65.7175 133.819 66.3685C128.871 67.4681 124.746 72.7554 122.082 76.6502C119.341 80.6551 116.221 84.5427 112.651 87.7159C111.739 88.5267 111.641 87.4107 112.337 86.9095C113.585 86.0109 114.954 85.3549 116.325 84.6694C119.938 82.8628 123.701 82.2704 127.57 81.3542C132.025 80.299 136.454 80.2978 140.629 78.4422C142.947 77.4121 140.559 76.4007 139.263 76.1126C134.344 75.0196 129.001 76.566 123.986 75.3958C121.673 74.8561 118.408 74.119 117.915 71.4085C117.439 68.7919 117.489 65.3955 117.489 62.7172C117.489 61.0577 118.566 49.0065 115.07 54.2499" stroke="#294674" stroke-width="2" stroke-linecap="round"/>
<path d="M320.502 62.314C320.502 58.7524 320.502 55.1908 320.502 51.6291C320.502 48.5736 316.026 45.7827 313.244 45.7827C312.342 45.7827 310.005 45.3703 309.526 46.1859C308.668 47.6443 307.347 48.0962 306.21 49.2323C303.819 51.6238 302.322 54.4274 301.148 57.6548C297.967 66.4035 296.328 75.6385 293.174 84.4006C292.73 85.632 291.954 86.7574 291.874 88.1191C291.795 89.4692 290.331 90.5304 292.502 89.1495C294.911 87.6164 299.262 87.0905 302.044 86.5959C305.046 86.0623 308.334 86.0063 311.251 85.095C316.127 83.5711 321.629 82.3405 326.057 79.6518C329.294 77.6868 333.537 77.0002 336.451 74.4101C338.543 72.5503 341.065 71.6652 341.065 68.5637C341.065 65.7796 338.182 63.1204 335.219 63.1204C332.434 63.1204 329.871 61.9108 326.953 61.9108C325.193 61.9108 324.291 62.3457 322.719 62.6948C322.194 62.8116 320.752 63.6641 320.345 63.5012C320.24 63.4592 322.196 62.5466 322.518 62.4036C324.343 61.5925 326.711 61.9108 328.655 61.9108C330.334 61.9108 332.376 61.5703 334.009 61.9332C337.41 62.6889 337.436 65.0781 337.436 68.1381C337.436 69.2864 335.665 71.5429 334.435 71.5429C333.839 71.5429 334.454 67.0953 334.121 66.3461C333.945 65.95 333.133 62.6845 332.508 64.4196C331.6 66.9441 331.583 69.8138 330.783 72.3717C330.639 72.8326 329.971 76.3814 329.574 76.3814C329.085 76.3814 328.969 70.9892 328.969 70.3781C328.969 67.732 327.503 61.7606 324.937 66.7493C323.995 68.581 323.531 70.5927 322.607 72.4389C322.054 73.5457 321.402 74.6659 321.308 75.9334C321.189 77.5366 320.099 80.2219 320.099 76.9862C320.099 74.7517 319.667 71.6527 320.591 69.5717C320.789 69.1262 321.39 65.3615 320.681 65.1589C318.741 64.6045 317.798 70.8393 317.5 71.9461C316.815 74.4927 315.563 77.4809 315.26 80.055C315.133 81.1321 314.857 80.3576 314.857 79.6518C314.857 78.0949 314.68 76.3964 315.059 74.8805C315.554 72.8994 316.47 70.8347 316.47 68.7653C316.47 67.1525 316.47 65.5397 316.47 63.9268C316.47 61.378 315.09 66.9063 314.857 67.7797C313.808 71.7124 312.693 75.8357 311.654 79.4726C311.365 80.483 310.719 81.334 310.444 82.295C309.711 84.8606 310.626 76.9391 311.139 74.3205C312.091 69.4506 312.626 63.6431 314.543 59.0884C315.789 56.1309 316.067 52.8544 316.067 49.6131C316.067 47.7808 316.084 46.2692 315.171 48.9187C313.994 52.3316 313.406 55.7652 312.639 59.29C311.92 62.5995 312.239 66.6211 311.027 69.7733C310.309 71.6386 310.735 73.8056 309.929 75.6198C308.936 77.853 309.153 81.137 307.689 82.967C307.225 83.5467 307.101 86.809 306.479 84.087C305.874 81.4375 306.39 78.1378 306.39 75.4182C306.39 70.0115 306.793 64.5058 306.793 59.178C306.793 55.9231 307.811 50.8852 309.414 48.0003C309.703 47.4799 310.486 43.6387 309.705 46.2755C308.926 48.903 308.002 52.3344 308.002 55.0788C308.002 60.5765 306.179 66.2753 304.687 71.4981C303.673 75.0485 303.086 79.2217 301.641 82.4742C301.419 82.9723 300.342 86.6141 300.342 83.6838C300.342 80.8614 300.342 78.039 300.342 75.2166C300.342 72.0955 300.342 68.9744 300.342 65.8533C300.342 64.4115 300.239 62.5795 300.946 61.306C301.391 60.5064 302.358 58.19 302.358 57.3188C302.358 53.9921 301.085 63.8538 300.655 67.1525C300.188 70.733 299.396 74.2755 299.11 77.8598C298.978 79.4993 298.566 81.8142 297.833 83.2806C296.943 85.0608 295.906 85.1823 295.906 82.967C295.906 77.6935 299.585 72.3152 302.358 67.9589C303.845 65.6212 305.179 63.2241 306.3 60.7012C306.879 59.3983 306.68 57.7589 307.398 56.4676C308.673 54.1712 310.637 52.1685 311.945 49.8147C312.228 49.3058 312.604 48.7111 312.931 48.2915C312.936 48.2849 311.874 49.9032 311.631 50.4195C309.519 54.9092 308.809 59.8135 308.809 64.778C308.809 71.8059 306.793 78.4785 306.793 85.4535C306.793 85.9814 306.693 84.3022 307.017 83.8854C307.547 83.2037 307.819 82.2885 308.406 81.6678C309.497 80.5126 309.957 78.8675 311.407 78.039C312.505 77.4118 313.552 75.2517 314.23 74.1861C315.678 71.9098 316.137 68.527 316.783 65.9429C317.585 62.7374 318.486 59.7816 318.486 56.4676C318.486 55.2859 318.889 54.1632 318.889 52.8387C318.889 51.5033 318.964 52.6561 318.687 53.2643C317.75 55.3263 318.215 57.9752 317.993 60.1636C317.588 64.1607 317.679 68.1536 317.679 72.1701C317.679 74.1637 318.015 74.5214 319.203 75.7094C321.65 78.1565 324.519 75.6702 325.34 72.7973C325.798 71.1939 326.55 70.0791 326.55 68.3621C326.55 67.0636 326.55 71.5935 326.55 72.4165C326.55 74.4773 326.55 76.5382 326.55 78.599C326.55 79.0124 326.886 77.8377 326.975 77.4342C327.152 76.6407 328.04 75.9661 328.566 75.4406C330.193 73.8138 334.439 70.2337 331.612 67.5557C329.181 65.2528 324.842 65.7175 321.913 66.3685C316.965 67.4681 312.84 72.7554 310.175 76.6502C307.435 80.6551 304.315 84.5427 300.745 87.7159C299.833 88.5267 299.735 87.4107 300.431 86.9095C301.679 86.0109 303.047 85.3549 304.418 84.6694C308.032 82.8628 311.795 82.2704 315.663 81.3542C320.119 80.299 324.548 80.2978 328.723 78.4422C331.04 77.4121 328.653 76.4007 327.356 76.1126C322.438 75.0196 317.095 76.566 312.079 75.3958C309.766 74.8561 306.502 74.119 306.009 71.4085C305.533 68.7919 305.583 65.3955 305.583 62.7172C305.583 61.0577 306.66 49.0065 303.164 54.2499" stroke="#294674" stroke-width="2" stroke-linecap="round"/>
<path d="M500.444 62.314C500.444 58.7524 500.444 55.1908 500.444 51.6291C500.444 48.5736 495.968 45.7827 493.187 45.7827C492.284 45.7827 489.948 45.3703 489.468 46.1859C488.61 47.6443 487.289 48.0962 486.153 49.2323C483.761 51.6238 482.264 54.4274 481.09 57.6548C477.909 66.4035 476.27 75.6385 473.116 84.4006C472.673 85.632 471.897 86.7574 471.817 88.1191C471.737 89.4692 470.274 90.5304 472.444 89.1495C474.853 87.6164 479.204 87.0905 481.986 86.5959C484.988 86.0623 488.277 86.0063 491.193 85.095C496.07 83.5711 501.571 82.3405 505.999 79.6518C509.236 77.6868 513.479 77.0002 516.393 74.4101C518.485 72.5503 521.008 71.6652 521.008 68.5637C521.008 65.7796 518.125 63.1204 515.161 63.1204C512.376 63.1204 509.814 61.9108 506.895 61.9108C505.136 61.9108 504.233 62.3457 502.662 62.6948C502.137 62.8116 500.694 63.6641 500.287 63.5012C500.182 63.4592 502.139 62.5466 502.46 62.4036C504.285 61.5925 506.654 61.9108 508.598 61.9108C510.276 61.9108 512.318 61.5703 513.952 61.9332C517.352 62.6889 517.379 65.0781 517.379 68.1381C517.379 69.2864 515.607 71.5429 514.377 71.5429C513.781 71.5429 514.397 67.0953 514.064 66.3461C513.887 65.95 513.075 62.6845 512.451 64.4196C511.542 66.9441 511.525 69.8138 510.726 72.3717C510.582 72.8326 509.913 76.3814 509.516 76.3814C509.028 76.3814 508.911 70.9892 508.911 70.3781C508.911 67.732 507.445 61.7606 504.879 66.7493C503.937 68.581 503.473 70.5927 502.55 72.4389C501.996 73.5457 501.344 74.6659 501.251 75.9334C501.132 77.5366 500.041 80.2219 500.041 76.9862C500.041 74.7517 499.609 71.6527 500.534 69.5717C500.732 69.1262 501.333 65.3615 500.623 65.1589C498.683 64.6045 497.741 70.8393 497.443 71.9461C496.757 74.4927 495.505 77.4809 495.203 80.055C495.076 81.1321 494.799 80.3576 494.799 79.6518C494.799 78.0949 494.622 76.3964 495.001 74.8805C495.496 72.8994 496.412 70.8347 496.412 68.7653C496.412 67.1525 496.412 65.5397 496.412 63.9268C496.412 61.378 495.032 66.9063 494.799 67.7797C493.751 71.7124 492.635 75.8357 491.596 79.4726C491.307 80.483 490.661 81.334 490.386 82.295C489.653 84.8606 490.569 76.9391 491.081 74.3205C492.034 69.4506 492.568 63.6431 494.486 59.0884C495.731 56.1309 496.009 52.8544 496.009 49.6131C496.009 47.7808 496.027 46.2692 495.113 48.9187C493.936 52.3316 493.348 55.7652 492.582 59.29C491.862 62.5995 492.181 66.6211 490.969 69.7733C490.251 71.6386 490.678 73.8056 489.871 75.6198C488.879 77.853 489.095 81.137 487.631 82.967C487.167 83.5467 487.044 86.809 486.422 84.087C485.816 81.4375 486.332 78.1378 486.332 75.4182C486.332 70.0115 486.735 64.5058 486.735 59.178C486.735 55.9231 487.753 50.8852 489.356 48.0003C489.645 47.4799 490.429 43.6387 489.647 46.2755C488.869 48.903 487.945 52.3344 487.945 55.0788C487.945 60.5765 486.122 66.2753 484.63 71.4981C483.615 75.0485 483.029 79.2217 481.583 82.4742C481.362 82.9723 480.284 86.6141 480.284 83.6838C480.284 80.8614 480.284 78.039 480.284 75.2166C480.284 72.0955 480.284 68.9744 480.284 65.8533C480.284 64.4115 480.181 62.5795 480.889 61.306C481.333 60.5064 482.3 58.19 482.3 57.3188C482.3 53.9921 481.028 63.8538 480.598 67.1525C480.131 70.733 479.339 74.2755 479.052 77.8598C478.921 79.4993 478.508 81.8142 477.775 83.2806C476.885 85.0608 475.849 85.1823 475.849 82.967C475.849 77.6935 479.528 72.3152 482.3 67.9589C483.788 65.6212 485.121 63.2241 486.242 60.7012C486.821 59.3983 486.623 57.7589 487.34 56.4676C488.616 54.1712 490.58 52.1685 491.887 49.8147C492.17 49.3058 492.547 48.7111 492.873 48.2915C492.878 48.2849 491.817 49.9032 491.574 50.4195C489.461 54.9092 488.751 59.8135 488.751 64.778C488.751 71.8059 486.735 78.4785 486.735 85.4535C486.735 85.9814 486.635 84.3022 486.959 83.8854C487.489 83.2037 487.762 82.2885 488.348 81.6678C489.439 80.5126 489.9 78.8675 491.35 78.039C492.447 77.4118 493.494 75.2517 494.172 74.1861C495.621 71.9098 496.08 68.527 496.726 65.9429C497.527 62.7374 498.428 59.7816 498.428 56.4676C498.428 55.2859 498.831 54.1632 498.831 52.8387C498.831 51.5033 498.906 52.6561 498.63 53.2643C497.693 55.3263 498.157 57.9752 497.935 60.1636C497.531 64.1607 497.622 68.1536 497.622 72.1701C497.622 74.1637 497.957 74.5214 499.145 75.7094C501.592 78.1565 504.462 75.6702 505.283 72.7973C505.741 71.1939 506.492 70.0791 506.492 68.3621C506.492 67.0636 506.492 71.5935 506.492 72.4165C506.492 74.4773 506.492 76.5382 506.492 78.599C506.492 79.0124 506.828 77.8377 506.918 77.4342C507.094 76.6407 507.983 75.9661 508.508 75.4406C510.135 73.8138 514.381 70.2337 511.555 67.5557C509.124 65.2528 504.785 65.7175 501.855 66.3685C496.907 67.4681 492.782 72.7554 490.118 76.6502C487.377 80.6551 484.257 84.5427 480.687 87.7159C479.775 88.5267 479.677 87.4107 480.374 86.9095C481.622 86.0109 482.99 85.3549 484.361 84.6694C487.974 82.8628 491.737 82.2704 495.606 81.3542C500.061 80.299 504.49 80.2978 508.665 78.4422C510.983 77.4121 508.595 76.4007 507.299 76.1126C502.38 75.0196 497.037 76.566 492.022 75.3958C489.709 74.8561 486.444 74.119 485.951 71.4085C485.475 68.7919 485.526 65.3955 485.526 62.7172C485.526 61.0577 486.602 49.0065 483.106 54.2499" stroke="#294674" stroke-width="2" stroke-linecap="round"/>
<path d="M217.278 17.9546C217.278 14.393 217.278 10.8314 217.278 7.26974C217.278 4.21427 212.802 1.42329 210.02 1.42329C209.118 1.42329 206.782 1.01088 206.302 1.82649C205.444 3.2849 204.123 3.73682 202.987 4.87292C200.595 7.26442 199.098 10.068 197.924 13.2954C194.743 22.0442 193.104 31.2792 189.95 40.0413C189.507 41.2726 188.731 42.398 188.651 43.7597C188.571 45.1099 187.108 46.171 189.278 44.7901C191.687 43.257 196.038 42.7311 198.82 42.2365C201.822 41.7029 205.111 41.6469 208.027 40.7357C212.904 39.2117 218.405 37.9811 222.833 35.2924C226.07 33.3274 230.313 32.6408 233.227 30.0508C235.319 28.191 237.842 27.3058 237.842 24.2043C237.842 21.4202 234.959 18.7611 231.995 18.7611C229.21 18.7611 226.648 17.5514 223.729 17.5514C221.97 17.5514 221.067 17.9863 219.496 18.3355C218.971 18.4522 217.528 19.3047 217.121 19.1419C217.016 19.0998 218.973 18.1872 219.294 18.0442C221.119 17.2331 223.488 17.5514 225.432 17.5514C227.11 17.5514 229.152 17.2109 230.785 17.5738C234.186 18.3296 234.213 20.7187 234.213 23.7787C234.213 24.927 232.441 27.1835 231.211 27.1835C230.615 27.1835 231.23 22.7359 230.897 21.9867C230.721 21.5906 229.909 18.3251 229.285 20.0603C228.376 22.5848 228.359 25.4544 227.56 28.0123C227.416 28.4732 226.747 32.022 226.35 32.022C225.862 32.022 225.745 26.6298 225.745 26.0187C225.745 23.3726 224.279 17.4012 221.713 22.3899C220.771 24.2216 220.307 26.2333 219.384 28.0795C218.83 29.1863 218.178 30.3065 218.085 31.574C217.966 33.1772 216.875 35.8625 216.875 32.6268C216.875 30.3924 216.443 27.2933 217.368 25.2123C217.566 24.7668 218.167 21.0021 217.457 20.7995C215.517 20.2451 214.575 26.48 214.277 27.5867C213.591 30.1333 212.339 33.1216 212.037 35.6956C211.91 36.7728 211.633 35.9982 211.633 35.2924C211.633 33.7356 211.456 32.0371 211.835 30.5212C212.33 28.54 213.246 26.4753 213.246 24.4059C213.246 22.7931 213.246 21.1803 213.246 19.5675C213.246 17.0186 211.866 22.5469 211.633 23.4203C210.585 27.353 209.469 31.4763 208.43 35.1132C208.141 36.1236 207.495 36.9746 207.22 37.9356C206.487 40.5012 207.403 32.5797 207.915 29.9612C208.868 25.0913 209.402 19.2837 211.32 14.729C212.565 11.7715 212.843 8.49505 212.843 5.25372C212.843 3.42141 212.861 1.9098 211.947 4.55932C210.77 7.97226 210.182 11.4058 209.416 14.9306C208.696 18.2401 209.015 22.2617 207.803 25.4139C207.085 27.2793 207.512 29.4462 206.705 31.2604C205.713 33.4936 205.929 36.7776 204.465 38.6077C204.001 39.1873 203.878 42.4496 203.256 39.7277C202.65 37.0781 203.166 33.7784 203.166 31.0588C203.166 25.6521 203.569 20.1464 203.569 14.8186C203.569 11.5637 204.587 6.52578 206.19 3.64091C206.479 3.12057 207.263 -0.720714 206.481 1.91609C205.703 4.54367 204.779 7.97501 204.779 10.7194C204.779 16.2171 202.956 21.9159 201.464 27.1387C200.449 30.6891 199.863 34.8623 198.417 38.1148C198.196 38.613 197.118 42.2547 197.118 39.3245C197.118 36.502 197.118 33.6796 197.118 30.8572C197.118 27.7361 197.118 24.615 197.118 21.4939C197.118 20.0521 197.015 18.2201 197.723 16.9466C198.167 16.147 199.134 13.8306 199.134 12.9594C199.134 9.63274 197.862 19.4944 197.432 22.7931C196.965 26.3737 196.173 29.9161 195.886 33.5004C195.755 35.1399 195.342 37.4548 194.609 38.9213C193.719 40.7014 192.683 40.8229 192.683 38.6077C192.683 33.3341 196.362 27.9559 199.134 23.5995C200.622 21.2618 201.955 18.8647 203.076 16.3418C203.655 15.039 203.457 13.3995 204.174 12.1082C205.45 9.81184 207.414 7.80916 208.721 5.45533C209.004 4.94646 209.381 4.35174 209.707 3.93211C209.712 3.92553 208.651 5.54386 208.408 6.06013C206.295 10.5498 205.585 15.4542 205.585 20.4187C205.585 27.4465 203.569 34.1192 203.569 41.0941C203.569 41.6221 203.469 39.9428 203.793 39.5261C204.323 38.8444 204.596 37.9292 205.182 37.3084C206.273 36.1532 206.734 34.5081 208.184 33.6796C209.281 33.0524 210.328 30.8923 211.006 29.8268C212.455 27.5504 212.914 24.1676 213.56 21.5835C214.361 18.378 215.262 15.4222 215.262 12.1082C215.262 10.9265 215.665 9.80384 215.665 8.47936C215.665 7.14396 215.74 8.29677 215.464 8.90496C214.526 10.9669 214.991 13.6159 214.769 15.8042C214.365 19.8013 214.456 23.7942 214.456 27.8107C214.456 29.8044 214.791 30.162 215.979 31.35C218.426 33.7971 221.296 31.3109 222.117 28.438C222.575 26.8345 223.326 25.7197 223.326 24.0027C223.326 22.7042 223.326 27.2342 223.326 28.0571C223.326 30.118 223.326 32.1788 223.326 34.2396C223.326 34.653 223.662 33.4783 223.752 33.0748C223.928 32.2814 224.817 31.6068 225.342 31.0812C226.969 29.4544 231.215 25.8743 228.389 23.1963C225.958 20.8934 221.619 21.3581 218.689 22.0091C213.741 23.1088 209.616 28.3961 206.952 32.2908C204.211 36.2958 201.091 40.1834 197.521 43.3565C196.609 44.1673 196.511 43.0514 197.208 42.5501C198.456 41.6516 199.824 40.9955 201.195 40.3101C204.808 38.5034 208.571 37.911 212.44 36.9948C216.895 35.9396 221.324 35.9384 225.499 34.0828C227.817 33.0527 225.429 32.0413 224.133 31.7532C219.214 30.6602 213.871 32.2067 208.856 31.0364C206.543 30.4967 203.278 29.7596 202.785 27.0491C202.309 24.4325 202.36 21.0361 202.36 18.3579C202.36 16.6983 203.436 4.64716 199.94 9.89057" stroke="#294674" stroke-width="2" stroke-linecap="round"/>
<path d="M217.278 192.882C217.278 189.321 217.278 185.759 217.278 182.197C217.278 179.142 212.802 176.351 210.02 176.351C209.118 176.351 206.782 175.939 206.302 176.754C205.444 178.213 204.123 178.665 202.987 179.801C200.595 182.192 199.098 184.996 197.924 188.223C194.743 196.972 193.104 206.207 189.95 214.969C189.507 216.2 188.731 217.326 188.651 218.687C188.571 220.038 187.108 221.099 189.278 219.718C191.687 218.185 196.038 217.659 198.82 217.164C201.822 216.631 205.111 216.575 208.027 215.663C212.904 214.139 218.405 212.909 222.833 210.22C226.07 208.255 230.313 207.569 233.227 204.979C235.319 203.119 237.842 202.234 237.842 199.132C237.842 196.348 234.959 193.689 231.995 193.689C229.21 193.689 226.648 192.479 223.729 192.479C221.97 192.479 221.067 192.914 219.496 193.263C218.971 193.38 217.528 194.232 217.121 194.07C217.016 194.028 218.973 193.115 219.294 192.972C221.119 192.161 223.488 192.479 225.432 192.479C227.11 192.479 229.152 192.139 230.785 192.502C234.186 193.257 234.213 195.646 234.213 198.706C234.213 199.855 232.441 202.111 231.211 202.111C230.615 202.111 231.23 197.664 230.897 196.914C230.721 196.518 229.909 193.253 229.285 194.988C228.376 197.512 228.359 200.382 227.56 202.94C227.416 203.401 226.747 206.95 226.35 206.95C225.862 206.95 225.745 201.558 225.745 200.946C225.745 198.3 224.279 192.329 221.713 197.318C220.771 199.149 220.307 201.161 219.384 203.007C218.83 204.114 218.178 205.234 218.085 206.502C217.966 208.105 216.875 210.79 216.875 207.555C216.875 205.32 216.443 202.221 217.368 200.14C217.566 199.695 218.167 195.93 217.457 195.727C215.517 195.173 214.575 201.408 214.277 202.514C213.591 205.061 212.339 208.049 212.037 210.623C211.91 211.7 211.633 210.926 211.633 210.22C211.633 208.663 211.456 206.965 211.835 205.449C212.33 203.468 213.246 201.403 213.246 199.334C213.246 197.721 213.246 196.108 213.246 194.495C213.246 191.946 211.866 197.475 211.633 198.348C210.585 202.281 209.469 206.404 208.43 210.041C208.141 211.051 207.495 211.902 207.22 212.863C206.487 215.429 207.403 207.507 207.915 204.889C208.868 200.019 209.402 194.211 211.32 189.657C212.565 186.699 212.843 183.423 212.843 180.181C212.843 178.349 212.861 176.838 211.947 179.487C210.77 182.9 210.182 186.334 209.416 189.858C208.696 193.168 209.015 197.189 207.803 200.342C207.085 202.207 207.512 204.374 206.705 206.188C205.713 208.421 205.929 211.705 204.465 213.535C204.001 214.115 203.878 217.377 203.256 214.655C202.65 212.006 203.166 208.706 203.166 205.987C203.166 200.58 203.569 195.074 203.569 189.746C203.569 186.491 204.587 181.454 206.19 178.569C206.479 178.048 207.263 174.207 206.481 176.844C205.703 179.471 204.779 182.903 204.779 185.647C204.779 191.145 202.956 196.844 201.464 202.066C200.449 205.617 199.863 209.79 198.417 213.043C198.196 213.541 197.118 217.182 197.118 214.252C197.118 211.43 197.118 208.607 197.118 205.785C197.118 202.664 197.118 199.543 197.118 196.422C197.118 194.98 197.015 193.148 197.723 191.874C198.167 191.075 199.134 188.758 199.134 187.887C199.134 184.56 197.862 194.422 197.432 197.721C196.965 201.301 196.173 204.844 195.886 208.428C195.755 210.068 195.342 212.383 194.609 213.849C193.719 215.629 192.683 215.751 192.683 213.535C192.683 208.262 196.362 202.884 199.134 198.527C200.622 196.19 201.955 193.792 203.076 191.27C203.655 189.967 203.457 188.327 204.174 187.036C205.45 184.74 207.414 182.737 208.721 180.383C209.004 179.874 209.381 179.279 209.707 178.86C209.712 178.853 208.651 180.472 208.408 180.988C206.295 185.478 205.585 190.382 205.585 195.346C205.585 202.374 203.569 209.047 203.569 216.022C203.569 216.55 203.469 214.871 203.793 214.454C204.323 213.772 204.596 212.857 205.182 212.236C206.273 211.081 206.734 209.436 208.184 208.607C209.281 207.98 210.328 205.82 211.006 204.754C212.455 202.478 212.914 199.095 213.56 196.511C214.361 193.306 215.262 190.35 215.262 187.036C215.262 185.854 215.665 184.732 215.665 183.407C215.665 182.072 215.74 183.225 215.464 183.833C214.526 185.895 214.991 188.544 214.769 190.732C214.365 194.729 214.456 198.722 214.456 202.738C214.456 204.732 214.791 205.09 215.979 206.278C218.426 208.725 221.296 206.239 222.117 203.366C222.575 201.762 223.326 200.647 223.326 198.93C223.326 197.632 223.326 202.162 223.326 202.985C223.326 205.046 223.326 207.107 223.326 209.167C223.326 209.581 223.662 208.406 223.752 208.003C223.928 207.209 224.817 206.535 225.342 206.009C226.969 204.382 231.215 200.802 228.389 198.124C225.958 195.821 221.619 196.286 218.689 196.937C213.741 198.036 209.616 203.324 206.952 207.219C204.211 211.224 201.091 215.111 197.521 218.284C196.609 219.095 196.511 217.979 197.208 217.478C198.456 216.579 199.824 215.923 201.195 215.238C204.808 213.431 208.571 212.839 212.44 211.923C216.895 210.867 221.324 210.866 225.499 209.011C227.817 207.98 225.429 206.969 224.133 206.681C219.214 205.588 213.871 207.134 208.856 205.964C206.543 205.424 203.278 204.687 202.785 201.977C202.309 199.36 202.36 195.964 202.36 193.286C202.36 191.626 203.436 179.575 199.94 184.818" stroke="#294674" stroke-width="2" stroke-linecap="round"/>
<path d="M382.801 192.882C382.801 189.321 382.801 185.759 382.801 182.197C382.801 179.142 378.325 176.351 375.543 176.351C374.641 176.351 372.304 175.939 371.825 176.754C370.967 178.213 369.645 178.665 368.509 179.801C366.118 182.192 364.62 184.996 363.447 188.223C360.265 196.972 358.627 206.207 355.472 214.969C355.029 216.2 354.253 217.326 354.173 218.687C354.094 220.038 352.63 221.099 354.8 219.718C357.209 218.185 361.56 217.659 364.343 217.164C367.344 216.631 370.633 216.575 373.549 215.663C378.426 214.139 383.927 212.909 388.356 210.22C391.592 208.255 395.836 207.569 398.75 204.979C400.842 203.119 403.364 202.234 403.364 199.132C403.364 196.348 400.481 193.689 397.518 193.689C394.733 193.689 392.17 192.479 389.252 192.479C387.492 192.479 386.589 192.914 385.018 193.263C384.493 193.38 383.051 194.232 382.644 194.07C382.539 194.028 384.495 193.115 384.817 192.972C386.642 192.161 389.01 192.479 390.954 192.479C392.633 192.479 394.675 192.139 396.308 192.502C399.709 193.257 399.735 195.646 399.735 198.706C399.735 199.855 397.963 202.111 396.734 202.111C396.138 202.111 396.753 197.664 396.42 196.914C396.244 196.518 395.432 193.253 394.807 194.988C393.898 197.512 393.882 200.382 393.082 202.94C392.938 203.401 392.27 206.95 391.873 206.95C391.384 206.95 391.268 201.558 391.268 200.946C391.268 198.3 389.801 192.329 387.236 197.318C386.294 199.149 385.829 201.161 384.906 203.007C384.353 204.114 383.701 205.234 383.607 206.502C383.488 208.105 382.397 210.79 382.397 207.555C382.397 205.32 381.965 202.221 382.89 200.14C383.088 199.695 383.689 195.93 382.98 195.727C381.039 195.173 380.097 201.408 379.799 202.514C379.113 205.061 377.862 208.049 377.559 210.623C377.432 211.7 377.156 210.926 377.156 210.22C377.156 208.663 376.978 206.965 377.357 205.449C377.853 203.468 378.769 201.403 378.769 199.334C378.769 197.721 378.769 196.108 378.769 194.495C378.769 191.946 377.389 197.475 377.156 198.348C376.107 202.281 374.992 206.404 373.953 210.041C373.664 211.051 373.018 211.902 372.743 212.863C372.01 215.429 372.925 207.507 373.437 204.889C374.39 200.019 374.924 194.211 376.842 189.657C378.087 186.699 378.365 183.423 378.365 180.181C378.365 178.349 378.383 176.838 377.469 179.487C376.292 182.9 375.704 186.334 374.938 189.858C374.219 193.168 374.538 197.189 373.325 200.342C372.608 202.207 373.034 204.374 372.228 206.188C371.235 208.421 371.452 211.705 369.988 213.535C369.524 214.115 369.4 217.377 368.778 214.655C368.172 212.006 368.688 208.706 368.688 205.987C368.688 200.58 369.092 195.074 369.092 189.746C369.092 186.491 370.11 181.454 371.713 178.569C372.002 178.048 372.785 174.207 372.004 176.844C371.225 179.471 370.301 182.903 370.301 185.647C370.301 191.145 368.478 196.844 366.986 202.066C365.972 205.617 365.385 209.79 363.94 213.043C363.718 213.541 362.64 217.182 362.64 214.252C362.64 211.43 362.64 208.607 362.64 205.785C362.64 202.664 362.64 199.543 362.64 196.422C362.64 194.98 362.538 193.148 363.245 191.874C363.689 191.075 364.656 188.758 364.656 187.887C364.656 184.56 363.384 194.422 362.954 197.721C362.487 201.301 361.695 204.844 361.408 208.428C361.277 210.068 360.865 212.383 360.132 213.849C359.242 215.629 358.205 215.751 358.205 213.535C358.205 208.262 361.884 202.884 364.656 198.527C366.144 196.19 367.478 193.792 368.599 191.27C369.178 189.967 368.979 188.327 369.696 187.036C370.972 184.74 372.936 182.737 374.244 180.383C374.526 179.874 374.903 179.279 375.229 178.86C375.234 178.853 374.173 180.472 373.93 180.988C371.817 185.478 371.108 190.382 371.108 195.346C371.108 202.374 369.092 209.047 369.092 216.022C369.092 216.55 368.992 214.871 369.316 214.454C369.846 213.772 370.118 212.857 370.705 212.236C371.796 211.081 372.256 209.436 373.706 208.607C374.804 207.98 375.85 205.82 376.529 204.754C377.977 202.478 378.436 199.095 379.082 196.511C379.884 193.306 380.785 190.35 380.785 187.036C380.785 185.854 381.188 184.732 381.188 183.407C381.188 182.072 381.263 183.225 380.986 183.833C380.049 185.895 380.513 188.544 380.292 190.732C379.887 194.729 379.978 198.722 379.978 202.738C379.978 204.732 380.313 205.09 381.501 206.278C383.949 208.725 386.818 206.239 387.639 203.366C388.097 201.762 388.849 200.647 388.849 198.93C388.849 197.632 388.849 202.162 388.849 202.985C388.849 205.046 388.849 207.107 388.849 209.167C388.849 209.581 389.185 208.406 389.274 208.003C389.451 207.209 390.339 206.535 390.865 206.009C392.491 204.382 396.738 200.802 393.911 198.124C391.48 195.821 387.141 196.286 384.212 196.937C379.263 198.036 375.139 203.324 372.474 207.219C369.734 211.224 366.613 215.111 363.044 218.284C362.131 219.095 362.034 217.979 362.73 217.478C363.978 216.579 365.346 215.923 366.717 215.238C370.331 213.431 374.094 212.839 377.962 211.923C382.418 210.867 386.846 210.866 391.022 209.011C393.339 207.98 390.952 206.969 389.655 206.681C384.737 205.588 379.394 207.134 374.378 205.964C372.065 205.424 368.8 204.687 368.308 201.977C367.832 199.36 367.882 195.964 367.882 193.286C367.882 191.626 368.958 179.575 365.463 184.818" stroke="#294674" stroke-width="2" stroke-linecap="round"/>
<path d="M407.254 100.716C407.254 97.1547 407.254 93.5931 407.254 90.0315C407.254 86.976 402.778 84.185 399.996 84.185C399.094 84.185 396.757 83.7726 396.278 84.5882C395.42 86.0466 394.099 86.4985 392.962 87.6346C390.571 90.0261 389.074 92.8298 387.9 96.0571C384.719 104.806 383.08 114.041 379.925 122.803C379.482 124.034 378.706 125.16 378.626 126.521C378.547 127.872 377.083 128.933 379.253 127.552C381.663 126.019 386.014 125.493 388.796 124.998C391.797 124.465 395.086 124.409 398.002 123.497C402.879 121.973 408.381 120.743 412.809 118.054C416.046 116.089 420.289 115.403 423.203 112.812C425.295 110.953 427.817 110.068 427.817 106.966C427.817 104.182 424.934 101.523 421.971 101.523C419.186 101.523 416.623 100.313 413.705 100.313C411.945 100.313 411.043 100.748 409.471 101.097C408.946 101.214 407.504 102.066 407.097 101.904C406.992 101.862 408.948 100.949 409.27 100.806C411.095 99.9948 413.463 100.313 415.407 100.313C417.086 100.313 419.128 99.9727 420.761 100.336C424.162 101.091 424.188 103.48 424.188 106.54C424.188 107.689 422.417 109.945 421.187 109.945C420.591 109.945 421.206 105.498 420.873 104.748C420.697 104.352 419.885 101.087 419.26 102.822C418.351 105.346 418.335 108.216 417.535 110.774C417.391 111.235 416.723 114.784 416.326 114.784C415.837 114.784 415.721 109.392 415.721 108.78C415.721 106.134 414.255 100.163 411.689 105.152C410.747 106.983 410.282 108.995 409.359 110.841C408.806 111.948 408.154 113.068 408.06 114.336C407.941 115.939 406.851 118.624 406.851 115.389C406.851 113.154 406.418 110.055 407.343 107.974C407.541 107.529 408.142 103.764 407.433 103.561C405.493 103.007 404.55 109.242 404.252 110.348C403.567 112.895 402.315 115.883 402.012 118.457C401.885 119.534 401.609 118.76 401.609 118.054C401.609 116.497 401.432 114.799 401.81 113.283C402.306 111.302 403.222 109.237 403.222 107.168C403.222 105.555 403.222 103.942 403.222 102.329C403.222 99.7803 401.842 105.309 401.609 106.182C400.56 110.115 399.445 114.238 398.406 117.875C398.117 118.885 397.471 119.736 397.196 120.697C396.463 123.263 397.378 115.341 397.89 112.723C398.843 107.853 399.378 102.045 401.295 97.4907C402.541 94.5332 402.819 91.2568 402.819 88.0154C402.819 86.1831 402.836 84.6715 401.922 87.321C400.746 90.734 400.158 94.1675 399.391 97.6923C398.672 101.002 398.991 105.023 397.778 108.176C397.061 110.041 397.487 112.208 396.681 114.022C395.688 116.255 395.905 119.539 394.441 121.369C393.977 121.949 393.853 125.211 393.231 122.489C392.626 119.84 393.142 116.54 393.142 113.82C393.142 108.414 393.545 102.908 393.545 97.5803C393.545 94.3254 394.563 89.2875 396.166 86.4026C396.455 85.8823 397.238 82.041 396.457 84.6778C395.678 87.3054 394.754 90.7367 394.754 93.4811C394.754 98.9788 392.931 104.678 391.439 109.9C390.425 113.451 389.838 117.624 388.393 120.877C388.171 121.375 387.094 125.016 387.094 122.086C387.094 119.264 387.094 116.441 387.094 113.619C387.094 110.498 387.094 107.377 387.094 104.256C387.094 102.814 386.991 100.982 387.698 99.7084C388.143 98.9087 389.11 96.5923 389.11 95.7211C389.11 92.3945 387.837 102.256 387.407 105.555C386.94 109.135 386.148 112.678 385.862 116.262C385.73 117.902 385.318 120.217 384.585 121.683C383.695 123.463 382.658 123.585 382.658 121.369C382.658 116.096 386.337 110.718 389.11 106.361C390.597 104.024 391.931 101.626 393.052 99.1036C393.631 97.8007 393.432 96.1612 394.15 94.8699C395.425 92.5736 397.389 90.5709 398.697 88.217C398.98 87.7082 399.356 87.1135 399.682 86.6938C399.688 86.6873 398.626 88.3056 398.383 88.8219C396.27 93.3115 395.561 98.2159 395.561 103.18C395.561 110.208 393.545 116.881 393.545 123.856C393.545 124.384 393.445 122.705 393.769 122.288C394.299 121.606 394.571 120.691 395.158 120.07C396.249 118.915 396.709 117.27 398.159 116.441C399.257 115.814 400.304 113.654 400.982 112.588C402.43 110.312 402.889 106.929 403.535 104.345C404.337 101.14 405.238 98.1839 405.238 94.8699C405.238 93.6882 405.641 92.5656 405.641 91.2411C405.641 89.9057 405.716 91.0585 405.439 91.6667C404.502 93.7286 404.967 96.3776 404.745 98.5659C404.34 102.563 404.431 106.556 404.431 110.572C404.431 112.566 404.767 112.924 405.955 114.112C408.402 116.559 411.271 114.073 412.092 111.2C412.55 109.596 413.302 108.481 413.302 106.764C413.302 105.466 413.302 109.996 413.302 110.819C413.302 112.88 413.302 114.941 413.302 117.001C413.302 117.415 413.638 116.24 413.727 115.837C413.904 115.043 414.792 114.368 415.318 113.843C416.945 112.216 421.191 108.636 418.364 105.958C415.933 103.655 411.594 104.12 408.665 104.771C403.716 105.87 399.592 111.158 396.927 115.053C394.187 119.057 391.067 122.945 387.497 126.118C386.585 126.929 386.487 125.813 387.183 125.312C388.431 124.413 389.799 123.757 391.17 123.072C394.784 121.265 398.547 120.673 402.415 119.757C406.871 118.701 411.299 118.7 415.475 116.845C417.792 115.814 415.405 114.803 414.108 114.515C409.19 113.422 403.847 114.968 398.831 113.798C396.518 113.258 393.254 112.521 392.761 109.811C392.285 107.194 392.335 103.798 392.335 101.12C392.335 99.46 393.412 87.4089 389.916 92.6523" stroke="#294674" stroke-width="2" stroke-linecap="round"/>
<path d="M405.373 17.9546C405.373 14.393 405.373 10.8314 405.373 7.26974C405.373 4.21427 400.897 1.42329 398.115 1.42329C397.213 1.42329 394.877 1.01088 394.397 1.82649C393.539 3.2849 392.218 3.73682 391.082 4.87292C388.69 7.26442 387.193 10.068 386.019 13.2954C382.838 22.0442 381.199 31.2792 378.045 40.0413C377.601 41.2726 376.826 42.398 376.745 43.7597C376.666 45.1099 375.203 46.171 377.373 44.7901C379.782 43.257 384.133 42.7311 386.915 42.2365C389.917 41.7029 393.206 41.6469 396.122 40.7357C400.998 39.2117 406.5 37.9811 410.928 35.2924C414.165 33.3274 418.408 32.6408 421.322 30.0508C423.414 28.191 425.936 27.3058 425.936 24.2043C425.936 21.4202 423.053 18.7611 420.09 18.7611C417.305 18.7611 414.742 17.5514 411.824 17.5514C410.064 17.5514 409.162 17.9863 407.591 18.3355C407.065 18.4522 405.623 19.3047 405.216 19.1419C405.111 19.0998 407.067 18.1872 407.389 18.0442C409.214 17.2331 411.582 17.5514 413.527 17.5514C415.205 17.5514 417.247 17.2109 418.88 17.5738C422.281 18.3296 422.307 20.7187 422.307 23.7787C422.307 24.927 420.536 27.1835 419.306 27.1835C418.71 27.1835 419.325 22.7359 418.992 21.9867C418.816 21.5906 418.004 18.3251 417.379 20.0603C416.471 22.5848 416.454 25.4544 415.655 28.0123C415.511 28.4732 414.842 32.022 414.445 32.022C413.956 32.022 413.84 26.6298 413.84 26.0187C413.84 23.3726 412.374 17.4012 409.808 22.3899C408.866 24.2216 408.402 26.2333 407.479 28.0795C406.925 29.1863 406.273 30.3065 406.179 31.574C406.061 33.1772 404.97 35.8625 404.97 32.6268C404.97 30.3924 404.538 27.2933 405.462 25.2123C405.66 24.7668 406.261 21.0021 405.552 20.7995C403.612 20.2451 402.669 26.48 402.371 27.5867C401.686 30.1333 400.434 33.1216 400.131 35.6956C400.005 36.7728 399.728 35.9982 399.728 35.2924C399.728 33.7356 399.551 32.0371 399.93 30.5212C400.425 28.54 401.341 26.4753 401.341 24.4059C401.341 22.7931 401.341 21.1803 401.341 19.5675C401.341 17.0186 399.961 22.5469 399.728 23.4203C398.679 27.353 397.564 31.4763 396.525 35.1132C396.236 36.1236 395.59 36.9746 395.315 37.9356C394.582 40.5012 395.497 32.5797 396.01 29.9612C396.962 25.0913 397.497 19.2837 399.414 14.729C400.66 11.7715 400.938 8.49505 400.938 5.25372C400.938 3.42141 400.955 1.9098 400.042 4.55932C398.865 7.97226 398.277 11.4058 397.51 14.9306C396.791 18.2401 397.11 22.2617 395.898 25.4139C395.18 27.2793 395.606 29.4462 394.8 31.2604C393.807 33.4936 394.024 36.7776 392.56 38.6077C392.096 39.1873 391.973 42.4496 391.35 39.7277C390.745 37.0781 391.261 33.7784 391.261 31.0588C391.261 25.6521 391.664 20.1464 391.664 14.8186C391.664 11.5637 392.682 6.52578 394.285 3.64091C394.574 3.12057 395.357 -0.720714 394.576 1.91609C393.797 4.54367 392.874 7.97501 392.874 10.7194C392.874 16.2171 391.051 21.9159 389.558 27.1387C388.544 30.6891 387.957 34.8623 386.512 38.1148C386.291 38.613 385.213 42.2547 385.213 39.3245C385.213 36.502 385.213 33.6796 385.213 30.8572C385.213 27.7361 385.213 24.615 385.213 21.4939C385.213 20.0521 385.11 18.2201 385.817 16.9466C386.262 16.147 387.229 13.8306 387.229 12.9594C387.229 9.63274 385.957 19.4944 385.526 22.7931C385.059 26.3737 384.267 29.9161 383.981 33.5004C383.85 35.1399 383.437 37.4548 382.704 38.9213C381.814 40.7014 380.777 40.8229 380.777 38.6077C380.777 33.3341 384.456 27.9559 387.229 23.5995C388.716 21.2618 390.05 18.8647 391.171 16.3418C391.75 15.039 391.551 13.3995 392.269 12.1082C393.545 9.81184 395.508 7.80916 396.816 5.45533C397.099 4.94646 397.475 4.35174 397.802 3.93211C397.807 3.92553 396.745 5.54386 396.502 6.06013C394.39 10.5498 393.68 15.4542 393.68 20.4187C393.68 27.4465 391.664 34.1192 391.664 41.0941C391.664 41.6221 391.564 39.9428 391.888 39.5261C392.418 38.8444 392.691 37.9292 393.277 37.3084C394.368 36.1532 394.828 34.5081 396.278 33.6796C397.376 33.0524 398.423 30.8923 399.101 29.8268C400.549 27.5504 401.008 24.1676 401.654 21.5835C402.456 18.378 403.357 15.4222 403.357 12.1082C403.357 10.9265 403.76 9.80384 403.76 8.47936C403.76 7.14396 403.835 8.29677 403.558 8.90496C402.621 10.9669 403.086 13.6159 402.864 15.8042C402.459 19.8013 402.55 23.7942 402.55 27.8107C402.55 29.8044 402.886 30.162 404.074 31.35C406.521 33.7971 409.391 31.3109 410.211 28.438C410.669 26.8345 411.421 25.7197 411.421 24.0027C411.421 22.7042 411.421 27.2342 411.421 28.0571C411.421 30.118 411.421 32.1788 411.421 34.2396C411.421 34.653 411.757 33.4783 411.847 33.0748C412.023 32.2814 412.911 31.6068 413.437 31.0812C415.064 29.4544 419.31 25.8743 416.483 23.1963C414.053 20.8934 409.713 21.3581 406.784 22.0091C401.836 23.1088 397.711 28.3961 395.046 32.2908C392.306 36.2958 389.186 40.1834 385.616 43.3565C384.704 44.1673 384.606 43.0514 385.302 42.5501C386.55 41.6516 387.919 40.9955 389.29 40.3101C392.903 38.5034 396.666 37.911 400.534 36.9948C404.99 35.9396 409.419 35.9384 413.594 34.0828C415.911 33.0527 413.524 32.0413 412.227 31.7532C407.309 30.6602 401.966 32.2067 396.95 31.0364C394.637 30.4967 391.373 29.7596 390.88 27.0491C390.404 24.4325 390.454 21.0361 390.454 18.3579C390.454 16.6983 391.531 4.64716 388.035 9.89057" stroke="#294674" stroke-width="2" stroke-linecap="round"/>
<path d="M92.9971 171.769C92.9971 167.724 93.7948 164.107 95.5905 160.515C97.3472 157.002 97.1811 152.463 98.3229 148.752C98.9052 146.859 98.5022 144.104 99.4576 142.384C100.122 141.188 100.837 138.517 100.916 137.174C101.067 134.606 104.265 128.486 106.566 127.171C109.419 125.541 113.25 125.504 116.546 125.504C118.267 125.504 119.763 125.408 121.016 126.661C121.858 127.504 122.288 129.347 123.215 130.088C124.96 131.485 121.357 138.258 120.9 139.86C120.272 142.057 121.207 140.459 122.59 139.768C124.225 138.95 126.203 139.258 128.009 139.258C130.443 139.258 136.028 138.255 137.919 139.768C140.575 141.892 140.929 144.172 140.929 147.594C140.929 150.452 138.134 154.581 136.252 156.671C134.038 159.131 130.854 161.242 127.8 162.599C119.944 166.091 112.588 170.551 104.251 172.695C102.182 173.227 99.6821 173.316 97.744 174.061C96.4662 174.553 93.8975 175.103 92.5803 175.103C92.0567 175.103 90.9131 175.605 90.9131 175.103C90.9131 174.286 91.8428 173.532 92.1635 172.811C93.2319 170.407 94.5484 167.97 95.9147 165.725C97.5092 163.106 99.5433 160.652 101.009 158.014C101.949 156.322 102.841 153.644 104.042 152.202C105.378 150.599 105.444 147.93 106.011 146.02C106.884 143.073 106.945 139.725 108.21 136.943C108.953 135.309 108.836 133.588 108.836 131.756C108.836 128.664 106.629 129.684 105.918 132.172C104.961 135.52 103.568 138.788 102.676 142.176C101.233 147.658 100.371 153.248 98.6008 158.663C97.7893 161.145 96.909 163.647 96.3547 166.142C96.2524 166.602 95.1314 171.651 95.9147 171.259C96.6493 170.892 97.0221 169.828 97.5819 169.268C98.2641 168.586 99.4054 167.994 100.291 167.601C103.161 166.325 106.247 164.708 109.252 163.85C114.71 162.29 119.661 160.455 124.443 157.412C127.967 155.169 133.208 152.185 135.418 148.428C135.812 147.759 138.815 144.673 137.363 143.843C135.625 142.85 134.037 143.009 132.084 143.009C129.061 143.009 118.46 147.295 116.848 143.102C115.144 138.673 117.203 135.227 118.932 131.339C120.798 127.139 112.629 126.973 111.336 129.88C110.784 131.124 111.185 132.398 110.711 133.631C109.923 135.682 109.647 137.927 108.836 139.999C107.144 144.322 105.737 149.476 103.417 153.453C101.441 156.84 100.71 160.77 99.1565 164.266C98.859 164.936 97.5647 169.124 98.0914 169.592C98.5675 170.015 106.104 161.317 106.775 160.723C109.959 157.907 113.294 155.341 116.245 152.272C117.459 151.01 118.586 149.578 119.673 148.219C120.591 147.071 124.181 147.177 125.508 147.177C127.592 147.177 129.676 147.177 131.76 147.177C132.854 147.177 133.068 146.517 133.751 145.834C133.784 145.802 133.881 148.305 133.821 148.845C133.625 150.602 132.884 152.314 132.617 154.055C132.469 155.011 132.879 156.094 132.269 156.856C131.594 157.7 132.965 155.613 133.01 155.004C133.141 153.239 133.832 151.418 134.261 149.701C134.812 147.494 135.69 145.076 136.669 143.009C136.999 142.311 138.134 141.108 137.178 142.176C135.982 143.513 135.365 145.34 134.261 146.761C131.649 150.119 129.91 154.145 127.592 157.69C126.812 158.882 126.182 160.035 125.323 161.14C124.343 162.4 124.674 160.397 124.674 159.589C124.674 154.879 125.847 150.171 126.365 145.51C126.486 144.417 126.758 143.505 126.758 142.384C126.758 141.687 125.963 143.67 125.508 144.352C122.882 148.291 121.395 152.912 119.464 157.204C118.576 159.178 117.175 160.703 116.361 162.738C116.25 163.016 115.294 164.704 115.18 164.59C114.219 163.629 117.681 156.37 118.005 155.073C118.734 152.16 118.995 149.331 119.997 146.436C120.158 145.971 120.531 144.183 120.506 144.769C120.43 146.59 118.27 149.146 117.38 150.72C115.532 153.99 114.351 157.607 112.494 160.839C111.079 163.303 110.303 166.57 108.627 168.805C108.42 169.081 105.175 174.637 105.084 172.278C104.915 167.876 106.089 163.942 106.752 159.635C107.309 156.012 107.76 151.357 109.345 148.011C110.207 146.19 110.366 144.204 111.105 142.315C111.925 140.219 113.072 138.215 113.837 136.109C114.503 134.278 115.281 132.407 115.504 130.505C115.999 126.299 115.693 139.018 116.523 143.171C117.085 145.981 115.627 154.355 116.848 151.762C118.284 148.709 118.839 143.337 118.839 139.999C118.839 138.175 119.256 136.412 119.256 134.581C119.256 134.014 119.282 133.225 119.256 134.349C119.22 135.831 118.686 136.767 118.005 138.031C114.69 144.187 113.304 151.65 111.105 158.246C110.927 158.778 110.086 161.596 110.086 161.349C110.086 159.316 110.538 157.435 111.105 155.49C112.563 150.491 113.149 145.247 114.671 140.3C114.941 139.422 115.732 137.415 115.481 139.675C115.157 142.595 112.118 146.081 110.688 148.474C107.659 153.542 105.046 158.835 101.982 163.85C101.691 164.325 100.571 167.138 99.8744 167.138C99.2275 167.138 99.889 163.448 100.083 163.109C100.576 162.246 102.691 155.916 102.584 159.681C102.493 162.839 100.503 165.746 100.06 168.851C99.9582 169.561 98.5347 174.13 100.592 172.278C101.412 171.541 102.954 171.144 103.927 170.518C106.648 168.769 109.877 167.699 112.726 166.165C117.594 163.544 121.996 160.287 126.99 157.922C128.231 157.334 125.41 158.684 125.091 158.848C122.977 159.935 121.463 161.709 119.673 163.201C119.01 163.753 118.384 164.305 117.774 164.915C117.348 165.34 115.869 165.826 116.408 166.096C116.994 166.389 120.142 162.823 120.599 162.414C123.216 160.068 125.413 157.242 127.916 154.772C129.708 153.004 131.874 150.203 134.006 148.891C135.155 148.184 136.129 147.177 134.168 147.177C131.31 147.177 128.691 147.6 125.878 148.196C123.995 148.596 122.152 149.243 120.298 149.655C118.715 150.007 120.743 146.928 121.016 146.575C121.864 145.475 123.015 144.742 124.026 143.843C124.704 143.24 126.211 143.484 126.758 142.801C128.003 141.246 126.841 140.925 129.352 140.925C132.855 140.925 133.577 142.332 135.604 144.584C136.895 146.019 137.178 147.124 137.178 149.053C137.178 150.526 135.266 151.1 134.052 151.762C131.216 153.309 128.37 154.84 125.508 156.347C125.167 156.526 122.173 158.519 122.173 157.597C122.173 156.212 124.998 154.767 125.948 154.055C127.262 153.069 128.92 152.043 130.093 150.929C130.675 150.375 132.73 149.261 131.32 149.261C129.168 149.261 126.469 151.508 124.674 152.619C122.734 153.82 117.044 157.63 118.932 156.347C122.289 154.064 125.158 149.23 129.444 148.451C134.257 147.576 120.08 151.473 115.227 152.086C111.559 152.55 103.417 156.005 103.417 150.118C103.417 146.879 103.92 144.072 104.251 140.925C104.344 140.039 104.724 139.391 104.668 138.425C104.631 137.798 102.795 137.786 102.584 138.262C100.961 141.912 100.85 146.19 99.2491 149.863C98.5477 151.473 98.8061 153.42 98.2071 155.097C97.906 155.94 97.2615 157.147 97.1651 158.014C96.9759 159.717 96.0752 162.556 95.2664 164.058C94.4171 165.635 94.0171 167.785 92.9045 169.175C91.3252 171.149 99.943 167.962 100.407 167.786C106.303 165.55 111.441 162.887 116.963 159.913C118.94 158.848 121.651 157.719 123.841 157.597C125.951 157.48 128.158 156.347 130.301 156.347C133.445 156.347 129.327 158.775 128.009 158.848C125.318 158.997 125.055 157.906 124.257 155.513" stroke="#294674" stroke-width="2" stroke-linecap="round"/>
<path d="M281.092 171.769C281.092 167.724 281.89 164.107 283.685 160.515C285.442 157.002 285.276 152.463 286.418 148.752C287 146.859 286.597 144.104 287.552 142.384C288.217 141.188 288.932 138.517 289.011 137.174C289.162 134.606 292.36 128.486 294.661 127.171C297.514 125.541 301.344 125.504 304.641 125.504C306.362 125.504 307.857 125.408 309.11 126.661C309.953 127.504 310.383 129.347 311.31 130.088C313.055 131.485 309.452 138.258 308.994 139.86C308.367 142.057 309.302 140.459 310.685 139.768C312.319 138.95 314.298 139.258 316.103 139.258C318.538 139.258 324.123 138.255 326.014 139.768C328.67 141.892 329.024 144.172 329.024 147.594C329.024 150.452 326.228 154.581 324.347 156.671C322.133 159.131 318.948 161.242 315.895 162.599C308.038 166.091 300.683 170.551 292.346 172.695C290.276 173.227 287.777 173.316 285.839 174.061C284.561 174.553 281.992 175.103 280.675 175.103C280.151 175.103 279.008 175.605 279.008 175.103C279.008 174.286 279.938 173.532 280.258 172.811C281.327 170.407 282.643 167.97 284.009 165.725C285.604 163.106 287.638 160.652 289.104 158.014C290.044 156.322 290.935 153.644 292.137 152.202C293.473 150.599 293.539 147.93 294.105 146.02C294.979 143.073 295.04 139.725 296.305 136.943C297.048 135.309 296.93 133.588 296.93 131.756C296.93 128.664 294.724 129.684 294.013 132.172C293.056 135.52 291.663 138.788 290.771 142.176C289.328 147.658 288.466 153.248 286.696 158.663C285.884 161.145 285.004 163.647 284.449 166.142C284.347 166.602 283.226 171.651 284.009 171.259C284.744 170.892 285.117 169.828 285.677 169.268C286.359 168.586 287.5 167.994 288.386 167.601C291.256 166.325 294.341 164.708 297.347 163.85C302.805 162.29 307.756 160.455 312.537 157.412C316.062 155.169 321.303 152.185 323.513 148.428C323.906 147.759 326.91 144.673 325.458 143.843C323.72 142.85 322.131 143.009 320.179 143.009C317.155 143.009 306.555 147.295 304.942 143.102C303.239 138.673 305.298 135.227 307.026 131.339C308.893 127.139 300.723 126.973 299.431 129.88C298.878 131.124 299.28 132.398 298.806 133.631C298.017 135.682 297.741 137.927 296.93 139.999C295.239 144.322 293.832 149.476 291.512 153.453C289.536 156.84 288.805 160.77 287.251 164.266C286.954 164.936 285.659 169.124 286.186 169.592C286.662 170.015 294.199 161.317 294.869 160.723C298.054 157.907 301.389 155.341 304.34 152.272C305.553 151.01 306.68 149.578 307.767 148.219C308.686 147.071 312.276 147.177 313.602 147.177C315.686 147.177 317.771 147.177 319.855 147.177C320.949 147.177 321.163 146.517 321.846 145.834C321.879 145.802 321.975 148.305 321.915 148.845C321.72 150.602 320.979 152.314 320.711 154.055C320.564 155.011 320.974 156.094 320.364 156.856C319.689 157.7 321.06 155.613 321.105 155.004C321.236 153.239 321.926 151.418 322.355 149.701C322.907 147.494 323.785 145.076 324.764 143.009C325.094 142.311 326.228 141.108 325.273 142.176C324.076 143.513 323.46 145.34 322.355 146.761C319.743 150.119 318.004 154.145 315.686 157.69C314.907 158.882 314.277 160.035 313.417 161.14C312.438 162.4 312.769 160.397 312.769 159.589C312.769 154.879 313.941 150.171 314.459 145.51C314.581 144.417 314.853 143.505 314.853 142.384C314.853 141.687 314.057 143.67 313.602 144.352C310.977 148.291 309.49 152.912 307.559 157.204C306.67 159.178 305.27 160.703 304.456 162.738C304.345 163.016 303.389 164.704 303.275 164.59C302.313 163.629 305.776 156.37 306.1 155.073C306.829 152.16 307.089 149.331 308.091 146.436C308.252 145.971 308.625 144.183 308.601 144.769C308.525 146.59 306.365 149.146 305.475 150.72C303.626 153.99 302.446 157.607 300.589 160.839C299.173 163.303 298.398 166.57 296.722 168.805C296.515 169.081 293.27 174.637 293.179 172.278C293.01 167.876 294.184 163.942 294.846 159.635C295.404 156.012 295.855 151.357 297.44 148.011C298.302 146.19 298.46 144.204 299.2 142.315C300.02 140.219 301.166 138.215 301.932 136.109C302.598 134.278 303.375 132.407 303.599 130.505C304.094 126.299 303.787 139.018 304.618 143.171C305.18 145.981 303.722 154.355 304.942 151.762C306.379 148.709 306.934 143.337 306.934 139.999C306.934 138.175 307.35 136.412 307.35 134.581C307.35 134.014 307.377 133.225 307.35 134.349C307.315 135.831 306.781 136.767 306.1 138.031C302.785 144.187 301.398 151.65 299.2 158.246C299.022 158.778 298.181 161.596 298.181 161.349C298.181 159.316 298.632 157.435 299.2 155.49C300.658 150.491 301.243 145.247 302.766 140.3C303.036 139.422 303.827 137.415 303.576 139.675C303.252 142.595 300.213 146.081 298.783 148.474C295.754 153.542 293.141 158.835 290.076 163.85C289.786 164.325 288.666 167.138 287.969 167.138C287.322 167.138 287.984 163.448 288.177 163.109C288.67 162.246 290.786 155.916 290.678 159.681C290.588 162.839 288.598 165.746 288.154 168.851C288.053 169.561 286.629 174.13 288.687 172.278C289.506 171.541 291.048 171.144 292.021 170.518C294.742 168.769 297.972 167.699 300.821 166.165C305.689 163.544 310.091 160.287 315.084 157.922C316.326 157.334 313.504 158.684 313.186 158.848C311.072 159.935 309.558 161.709 307.767 163.201C307.105 163.753 306.479 164.305 305.868 164.915C305.443 165.34 303.964 165.826 304.502 166.096C305.088 166.389 308.237 162.823 308.693 162.414C311.31 160.068 313.508 157.242 316.011 154.772C317.803 153.004 319.969 150.203 322.101 148.891C323.25 148.184 324.224 147.177 322.263 147.177C319.405 147.177 316.785 147.6 313.973 148.196C312.09 148.596 310.247 149.243 308.392 149.655C306.81 150.007 308.838 146.928 309.11 146.575C309.959 145.475 311.109 144.742 312.121 143.843C312.799 143.24 314.306 143.484 314.853 142.801C316.097 141.246 314.936 140.925 317.446 140.925C320.949 140.925 321.671 142.332 323.698 144.584C324.99 146.019 325.273 147.124 325.273 149.053C325.273 150.526 323.36 151.1 322.147 151.762C319.311 153.309 316.465 154.84 313.602 156.347C313.262 156.526 310.268 158.519 310.268 157.597C310.268 156.212 313.092 154.767 314.042 154.055C315.357 153.069 317.015 152.043 318.187 150.929C318.77 150.375 320.825 149.261 319.415 149.261C317.263 149.261 314.564 151.508 312.769 152.619C310.828 153.82 305.139 157.63 307.026 156.347C310.383 154.064 313.253 149.23 317.539 148.451C322.352 147.576 308.174 151.473 303.321 152.086C299.653 152.55 291.512 156.005 291.512 150.118C291.512 146.879 292.014 144.072 292.346 140.925C292.439 140.039 292.819 139.391 292.762 138.425C292.725 137.798 290.89 137.786 290.678 138.262C289.056 141.912 288.945 146.19 287.344 149.863C286.642 151.473 286.901 153.42 286.302 155.097C286.001 155.94 285.356 157.147 285.26 158.014C285.071 159.717 284.17 162.556 283.361 164.058C282.512 165.635 282.112 167.785 280.999 169.175C279.42 171.149 288.038 167.962 288.502 167.786C294.397 165.55 299.535 162.887 305.058 159.913C307.035 158.848 309.746 157.719 311.935 157.597C314.046 157.48 316.252 156.347 318.396 156.347C321.539 156.347 317.422 158.775 316.103 158.848C313.413 158.997 313.15 157.906 312.352 155.513" stroke="#294674" stroke-width="2" stroke-linecap="round"/>
<path d="M461.034 171.769C461.034 167.724 461.832 164.107 463.628 160.515C465.384 157.002 465.218 152.463 466.36 148.752C466.942 146.859 466.539 144.104 467.495 142.384C468.159 141.188 468.874 138.517 468.953 137.174C469.105 134.606 472.302 128.486 474.603 127.171C477.456 125.541 481.287 125.504 484.584 125.504C486.304 125.504 487.8 125.408 489.053 126.661C489.896 127.504 490.325 129.347 491.252 130.088C492.998 131.485 489.395 138.258 488.937 139.86C488.309 142.057 489.244 140.459 490.627 139.768C492.262 138.95 494.24 139.258 496.046 139.258C498.48 139.258 504.065 138.255 505.956 139.768C508.612 141.892 508.967 144.172 508.967 147.594C508.967 150.452 506.171 154.581 504.289 156.671C502.075 159.131 498.891 161.242 495.837 162.599C487.981 166.091 480.625 170.551 472.288 172.695C470.219 173.227 467.719 173.316 465.781 174.061C464.503 174.553 461.935 175.103 460.617 175.103C460.094 175.103 458.95 175.605 458.95 175.103C458.95 174.286 459.88 173.532 460.201 172.811C461.269 170.407 462.586 167.97 463.952 165.725C465.546 163.106 467.58 160.652 469.046 158.014C469.986 156.322 470.878 153.644 472.079 152.202C473.416 150.599 473.482 147.93 474.048 146.02C474.921 143.073 474.983 139.725 476.248 136.943C476.99 135.309 476.873 133.588 476.873 131.756C476.873 128.664 474.666 129.684 473.955 132.172C472.999 135.52 471.605 138.788 470.713 142.176C469.271 147.658 468.408 153.248 466.638 158.663C465.826 161.145 464.946 163.647 464.392 166.142C464.29 166.602 463.169 171.651 463.952 171.259C464.686 170.892 465.059 169.828 465.619 169.268C466.301 168.586 467.443 167.994 468.328 167.601C471.198 166.325 474.284 164.708 477.29 163.85C482.747 162.29 487.698 160.455 492.48 157.412C496.004 155.169 501.245 152.185 503.456 148.428C503.849 147.759 506.852 144.673 505.401 143.843C503.662 142.85 502.074 143.009 500.121 143.009C497.098 143.009 486.497 147.295 484.885 143.102C483.181 138.673 485.24 135.227 486.969 131.339C488.835 127.139 480.666 126.973 479.374 129.88C478.821 131.124 479.223 132.398 478.748 133.631C477.96 135.682 477.684 137.927 476.873 139.999C475.181 144.322 473.774 149.476 471.454 153.453C469.479 156.84 468.747 160.77 467.194 164.266C466.896 164.936 465.602 169.124 466.128 169.592C466.605 170.015 474.141 161.317 474.812 160.723C477.996 157.907 481.331 155.341 484.283 152.272C485.496 151.01 486.623 149.578 487.71 148.219C488.628 147.071 492.219 147.177 493.545 147.177C495.629 147.177 497.713 147.177 499.797 147.177C500.891 147.177 501.106 146.517 501.788 145.834C501.821 145.802 501.918 148.305 501.858 148.845C501.663 150.602 500.922 152.314 500.654 154.055C500.506 155.011 500.916 156.094 500.306 156.856C499.631 157.7 501.002 155.613 501.047 155.004C501.178 153.239 501.869 151.418 502.298 149.701C502.85 147.494 503.727 145.076 504.706 143.009C505.036 142.311 506.171 141.108 505.215 142.176C504.019 143.513 503.402 145.34 502.298 146.761C499.686 150.119 497.947 154.145 495.629 157.69C494.849 158.882 494.219 160.035 493.36 161.14C492.38 162.4 492.711 160.397 492.711 159.589C492.711 154.879 493.884 150.171 494.402 145.51C494.523 144.417 494.795 143.505 494.795 142.384C494.795 141.687 494 143.67 493.545 144.352C490.919 148.291 489.432 152.912 487.501 157.204C486.613 159.178 485.212 160.703 484.398 162.738C484.287 163.016 483.331 164.704 483.217 164.59C482.256 163.629 485.718 156.37 486.042 155.073C486.771 152.16 487.032 149.331 488.034 146.436C488.195 145.971 488.568 144.183 488.543 144.769C488.467 146.59 486.307 149.146 485.417 150.72C483.569 153.99 482.388 157.607 480.531 160.839C479.116 163.303 478.34 166.57 476.664 168.805C476.457 169.081 473.212 174.637 473.122 172.278C472.952 167.876 474.126 163.942 474.789 159.635C475.346 156.012 475.797 151.357 477.382 148.011C478.244 146.19 478.403 144.204 479.142 142.315C479.962 140.219 481.109 138.215 481.874 136.109C482.54 134.278 483.318 132.407 483.542 130.505C484.036 126.299 483.73 139.018 484.56 143.171C485.122 145.981 483.664 154.355 484.885 151.762C486.321 148.709 486.876 143.337 486.876 139.999C486.876 138.175 487.293 136.412 487.293 134.581C487.293 134.014 487.32 133.225 487.293 134.349C487.258 135.831 486.723 136.767 486.042 138.031C482.727 144.187 481.341 151.65 479.142 158.246C478.965 158.778 478.123 161.596 478.123 161.349C478.123 159.316 478.575 157.435 479.142 155.49C480.6 150.491 481.186 145.247 482.708 140.3C482.978 139.422 483.77 137.415 483.518 139.675C483.194 142.595 480.155 146.081 478.725 148.474C475.696 153.542 473.083 158.835 470.019 163.85C469.728 164.325 468.608 167.138 467.911 167.138C467.265 167.138 467.926 163.448 468.12 163.109C468.613 162.246 470.728 155.916 470.621 159.681C470.53 162.839 468.54 165.746 468.097 168.851C467.995 169.561 466.572 174.13 468.629 172.278C469.449 171.541 470.991 171.144 471.964 170.518C474.685 168.769 477.914 167.699 480.763 166.165C485.631 163.544 490.033 160.287 495.027 157.922C496.268 157.334 493.447 158.684 493.128 158.848C491.014 159.935 489.5 161.709 487.71 163.201C487.047 163.753 486.421 164.305 485.811 164.915C485.385 165.34 483.906 165.826 484.445 166.096C485.031 166.389 488.179 162.823 488.636 162.414C491.253 160.068 493.45 157.242 495.953 154.772C497.746 153.004 499.911 150.203 502.043 148.891C503.192 148.184 504.167 147.177 502.205 147.177C499.347 147.177 496.728 147.6 493.915 148.196C492.032 148.596 490.189 149.243 488.335 149.655C486.752 150.007 488.78 146.928 489.053 146.575C489.901 145.475 491.052 144.742 492.063 143.843C492.741 143.24 494.248 143.484 494.795 142.801C496.04 141.246 494.879 140.925 497.389 140.925C500.892 140.925 501.614 142.332 503.641 144.584C504.932 146.019 505.215 147.124 505.215 149.053C505.215 150.526 503.303 151.1 502.089 151.762C499.253 153.309 496.407 154.84 493.545 156.347C493.204 156.526 490.21 158.519 490.21 157.597C490.21 156.212 493.035 154.767 493.985 154.055C495.299 153.069 496.957 152.043 498.13 150.929C498.712 150.375 500.767 149.261 499.357 149.261C497.205 149.261 494.507 151.508 492.711 152.619C490.771 153.82 485.081 157.63 486.969 156.347C490.326 154.064 493.195 149.23 497.481 148.451C502.294 147.576 488.117 151.473 483.264 152.086C479.596 152.55 471.454 156.005 471.454 150.118C471.454 146.879 471.957 144.072 472.288 140.925C472.381 140.039 472.762 139.391 472.705 138.425C472.668 137.798 470.832 137.786 470.621 138.262C468.998 141.912 468.887 146.19 467.286 149.863C466.585 151.473 466.843 153.42 466.244 155.097C465.943 155.94 465.299 157.147 465.202 158.014C465.013 159.717 464.112 162.556 463.303 164.058C462.454 165.635 462.054 167.785 460.942 169.175C459.362 171.149 467.98 167.962 468.444 167.786C474.34 165.55 479.478 162.887 485 159.913C486.978 158.848 489.688 157.719 491.878 157.597C493.989 157.48 496.195 156.347 498.338 156.347C501.482 156.347 497.364 158.775 496.046 158.848C493.355 158.997 493.092 157.906 492.294 155.513" stroke="#294674" stroke-width="2" stroke-linecap="round"/>
<path d="M13.0554 131.612C13.2934 131.506 13.7749 128.091 14.0213 127.454C14.6861 125.734 15.1737 123.507 15.5689 121.697C16.488 117.487 17.3631 113.159 17.6075 108.848C17.8092 105.291 20.1509 101.155 21.6949 98.0754C22.536 96.3975 23.9276 94.2012 24.3711 92.3856C24.6486 91.2493 26.3592 88.6733 27.2846 87.9361C29.6542 86.0485 30.9944 83.8804 34.0436 82.9633C35.4999 82.5253 36.8693 81.7064 38.4111 81.2427C39.7939 80.8268 40.7236 82.3046 41.6979 82.6966C42.2939 82.9365 43.2856 85.9452 43.4929 86.6347C43.9484 88.1493 44.5846 89.6686 44.3839 91.2516C44.1578 93.036 43.4801 94.9344 42.7198 96.5466C42.439 97.1419 42.3226 97.7964 42.0489 98.3767C41.6611 99.1991 42.0571 98.1087 42.4179 97.9491C43.3292 97.546 43.7487 95.791 44.6294 95.226C46.0575 94.3097 46.6077 93.4324 48.426 92.8855C51.1555 92.0646 54.8516 90.1106 57.4966 91.9894C60.0564 93.8076 61.3909 96.8385 62.0968 99.7651C62.7513 102.479 59.8589 106.32 58.1198 108.198C56.1188 110.359 55.0196 113.489 52.1854 114.936C49.0399 116.541 45.758 118.107 42.6881 119.827C39.7655 121.465 36.9124 123.666 33.8486 124.951C32.087 125.69 30.2414 126.6 28.6437 127.647C27.29 128.534 25.0893 128.622 23.8699 129.671C22.9926 130.426 20.8048 131.316 19.7764 131.626C18.2609 132.082 17.2388 132.796 15.7822 133.234C15.236 133.398 12.5853 134.909 12.6199 134.751C12.9902 133.054 14.0397 131.411 14.5497 129.738C15.5006 126.618 16.72 122.832 18.5487 120.099C19.7748 118.267 20.2223 115.794 21.2286 113.82C22.2514 111.814 23.5298 109.225 24.2235 107.085C24.9073 104.975 26.1664 103.051 26.721 100.951C27.1872 99.1861 27.8515 97.2007 28.6755 95.5689C29.7126 93.5152 30.5348 91.3876 31.6957 89.3685C32.722 87.5837 32.7444 86.8913 31.127 88.9063C29.2457 91.2502 28.3544 94.4057 26.5833 96.8087C23.5282 100.954 21.5363 106.278 20.1357 111.164C19.0885 114.817 18.5771 118.687 17.9321 122.411C17.7027 123.735 16.9526 125.358 17.2713 126.68C17.3795 127.129 17.4838 130.913 17.0461 131.045C16.5643 131.19 18.5986 124.326 18.8437 123.787C20.468 120.215 22.9956 117.102 24.5267 113.507C27.2463 107.121 30.6086 100.705 33.8836 94.6132C34.9203 92.6848 36.0687 90.8719 37.093 88.9665C37.7565 87.7322 39.0432 86.0261 39.3179 84.6337C39.3999 84.2179 39.9594 82.9167 39.4336 83.9657C38.7498 85.3296 38.1643 86.9963 37.6029 88.4061C35.9939 92.4463 34.3559 96.526 32.3422 100.391C29.3138 106.205 27.5144 112.115 25.3078 118.134C24.6157 120.022 24.1903 121.928 23.0442 123.542C22.2053 124.723 21.269 126.561 21.3816 128.09C21.5439 130.295 22.4512 125.83 22.871 124.996C24.2335 122.288 25.5311 119.559 26.9353 116.853C28.8619 113.141 30.3742 109.193 32.2462 105.486C33.4103 103.181 34.4946 100.447 36.0208 98.3352C37.4671 96.334 38.4787 94.2157 39.6466 92.0432C39.9896 91.4051 41.4189 87.3037 42.1781 87.0753C43.1599 86.7801 41.6967 89.0687 41.4728 90.0692C41.1803 91.3755 40.3073 92.9557 39.6335 94.1051C38.6936 95.7082 38.4654 97.7334 37.5648 99.4087C36.6043 101.195 35.7581 103.169 34.9861 105.047C33.0497 109.755 30.9903 114.311 29.783 119.253C29.4358 120.675 28.668 122.104 27.9894 123.366C27.3877 124.485 27.6168 125.741 27.1246 126.657C24.8646 130.861 31.0436 117.943 33.3036 113.739C34.5414 111.437 35.4967 109.078 36.7298 106.784C37.4343 105.473 38.5544 103.885 38.8862 102.449C39.2185 101.011 40.5873 99.6079 41.298 98.2859C41.4696 97.9667 42.4904 95.6235 42.9184 95.8536C43.4981 96.1652 41.2785 99.7315 41.1083 100.062C39.2958 103.58 38.683 108.012 38.0588 111.88C37.7643 113.705 36.3286 116.22 36.6442 118.004C36.8853 119.367 36.1422 120.774 35.838 122.091C35.2161 124.784 36.848 120.8 36.9982 119.933C37.4776 117.165 39.254 114.773 40.372 112.202C41.4103 109.813 42.583 106.307 44.09 104.186C44.984 102.927 46.4321 100.821 46.8041 99.2986C47.0218 98.4071 48.0721 95.4344 49.1203 95.1192C49.9621 94.866 48.3537 96.7011 47.9811 97.4972C47.5167 98.4894 47.3753 100.02 47.0377 101.128C46.3222 103.475 45.4601 105.876 45.1259 108.307C44.7002 111.403 45.257 114.377 44.1301 117.177C43.1254 119.674 44.6072 115.471 44.8192 114.731C45.5566 112.159 46.5434 109.486 47.8197 107.112C49.9473 103.154 50.8775 98.9117 53.2483 95.0084C53.7766 94.1387 54.5338 91.8325 54.9982 93.7585C55.3102 95.0519 53.9395 97.9785 53.359 99.1364C52.263 101.323 51.8121 104.092 51.2918 106.475C51.0521 107.573 51.1987 110.094 50.6041 110.956C50.3373 111.343 50.7825 112.948 51.3641 112.13C51.8879 111.392 51.8646 110.448 52.2254 109.654C52.9773 108 53.6964 105.401 54.0902 103.598C54.337 102.468 58.303 96.793 58.5854 97.5646C59.5691 100.252 58.1917 102.638 56.7566 104.718C55.1569 107.037 52.6939 109.231 50.6956 111.336C48.5337 113.613 46.3602 114.996 43.4698 116.336C39.5929 118.133 35.1344 119.687 31.9178 122.592C31.3614 123.094 30.5843 123.373 30.1928 123.925C30.0756 124.09 30.3447 122.732 30.9135 122.261C32.4628 120.976 34.1086 117.37 34.5431 115.379C35.7041 110.062 39.9897 105.176 43.0795 100.826C43.4002 100.374 44.1569 98.3172 44.5349 99.574C44.8386 100.584 45.1386 101.633 44.8399 102.694C44.1628 105.097 42.687 107.473 42.3702 109.972C42.3054 110.484 40.3788 113.975 40.0012 112.924C38.4768 108.678 37.2885 104.199 36.0716 99.8578C34.6112 94.6475 36.8398 89.747 37.7123 84.7095C37.7825 84.3042 37.8701 82.7668 37.0206 83.3118C36.3528 83.7403 36.0392 85.784 35.8778 86.5051C35.3542 88.8438 34.0618 91.4147 33.1383 93.6387C32.182 95.9415 31.9774 99.3858 30.1875 101.198C28.5757 102.829 27.1173 106.168 26.2365 108.289C24.7037 111.98 24.4392 115.456 23.9416 119.382C23.7333 121.026 24.1662 122.646 23.9616 124.261C23.8993 124.753 24.1459 128.128 23.059 126.975" stroke="#294674" stroke-width="2" stroke-linecap="round"/>
<path d="M201.15 131.612C201.388 131.506 201.87 128.091 202.116 127.454C202.781 125.734 203.268 123.507 203.664 121.697C204.583 117.487 205.458 113.159 205.702 108.848C205.904 105.291 208.246 101.155 209.79 98.0754C210.631 96.3975 212.022 94.2012 212.466 92.3856C212.743 91.2493 214.454 88.6733 215.379 87.9361C217.749 86.0485 219.089 83.8804 222.138 82.9633C223.595 82.5253 224.964 81.7064 226.506 81.2427C227.889 80.8268 228.818 82.3046 229.793 82.6966C230.389 82.9365 231.38 85.9452 231.588 86.6347C232.043 88.1493 232.679 89.6686 232.479 91.2516C232.252 93.036 231.575 94.9344 230.815 96.5466C230.534 97.1419 230.417 97.7964 230.144 98.3767C229.756 99.1991 230.152 98.1087 230.513 97.9491C231.424 97.546 231.843 95.791 232.724 95.226C234.152 94.3097 234.702 93.4324 236.521 92.8855C239.25 92.0646 242.946 90.1106 245.591 91.9894C248.151 93.8076 249.486 96.8385 250.191 99.7651C250.846 102.479 247.954 106.32 246.214 108.198C244.213 110.359 243.114 113.489 240.28 114.936C237.135 116.541 233.853 118.107 230.783 119.827C227.86 121.465 225.007 123.666 221.943 124.951C220.182 125.69 218.336 126.6 216.738 127.647C215.385 128.534 213.184 128.622 211.965 129.671C211.087 130.426 208.9 131.316 207.871 131.626C206.356 132.082 205.334 132.796 203.877 133.234C203.331 133.398 200.68 134.909 200.715 134.751C201.085 133.054 202.134 131.411 202.644 129.738C203.595 126.618 204.815 122.832 206.643 120.099C207.869 118.267 208.317 115.794 209.323 113.82C210.346 111.814 211.625 109.225 212.318 107.085C213.002 104.975 214.261 103.051 214.816 100.951C215.282 99.1861 215.946 97.2007 216.77 95.5689C217.807 93.5152 218.63 91.3876 219.79 89.3685C220.817 87.5837 220.839 86.8913 219.222 88.9063C217.34 91.2502 216.449 94.4057 214.678 96.8087C211.623 100.954 209.631 106.278 208.23 111.164C207.183 114.817 206.672 118.687 206.027 122.411C205.797 123.735 205.047 125.358 205.366 126.68C205.474 127.129 205.578 130.913 205.141 131.045C204.659 131.19 206.693 124.326 206.938 123.787C208.563 120.215 211.09 117.102 212.621 113.507C215.341 107.121 218.703 100.705 221.978 94.6132C223.015 92.6848 224.163 90.8719 225.188 88.9665C225.851 87.7322 227.138 86.0261 227.413 84.6337C227.495 84.2179 228.054 82.9167 227.528 83.9657C226.845 85.3296 226.259 86.9963 225.698 88.4061C224.089 92.4463 222.451 96.526 220.437 100.391C217.408 106.205 215.609 112.115 213.403 118.134C212.71 120.022 212.285 121.928 211.139 123.542C210.3 124.723 209.364 126.561 209.476 128.09C209.639 130.295 210.546 125.83 210.966 124.996C212.328 122.288 213.626 119.559 215.03 116.853C216.957 113.141 218.469 109.193 220.341 105.486C221.505 103.181 222.589 100.447 224.115 98.3352C225.562 96.334 226.573 94.2157 227.741 92.0432C228.084 91.4051 229.514 87.3037 230.273 87.0753C231.255 86.7801 229.791 89.0687 229.567 90.0692C229.275 91.3755 228.402 92.9557 227.728 94.1051C226.788 95.7082 226.56 97.7334 225.66 99.4087C224.699 101.195 223.853 103.169 223.081 105.047C221.144 109.755 219.085 114.311 217.878 119.253C217.531 120.675 216.763 122.104 216.084 123.366C215.482 124.485 215.712 125.741 215.219 126.657C212.959 130.861 219.138 117.943 221.398 113.739C222.636 111.437 223.591 109.078 224.825 106.784C225.529 105.473 226.649 103.885 226.981 102.449C227.313 101.011 228.682 99.6079 229.393 98.2859C229.564 97.9667 230.585 95.6235 231.013 95.8536C231.593 96.1652 229.373 99.7315 229.203 100.062C227.391 103.58 226.778 108.012 226.154 111.88C225.859 113.705 224.423 116.22 224.739 118.004C224.98 119.367 224.237 120.774 223.933 122.091C223.311 124.784 224.943 120.8 225.093 119.933C225.572 117.165 227.349 114.773 228.467 112.202C229.505 109.813 230.678 106.307 232.185 104.186C233.079 102.927 234.527 100.821 234.899 99.2986C235.117 98.4071 236.167 95.4344 237.215 95.1192C238.057 94.866 236.448 96.7011 236.076 97.4972C235.611 98.4894 235.47 100.02 235.132 101.128C234.417 103.475 233.555 105.876 233.221 108.307C232.795 111.403 233.352 114.377 232.225 117.177C231.22 119.674 232.702 115.471 232.914 114.731C233.651 112.159 234.638 109.486 235.914 107.112C238.042 103.154 238.972 98.9117 241.343 95.0084C241.871 94.1387 242.628 91.8325 243.093 93.7585C243.405 95.0519 242.034 97.9785 241.454 99.1364C240.358 101.323 239.907 104.092 239.386 106.475C239.147 107.573 239.293 110.094 238.699 110.956C238.432 111.343 238.877 112.948 239.459 112.13C239.983 111.392 239.959 110.448 240.32 109.654C241.072 108 241.791 105.401 242.185 103.598C242.432 102.468 246.398 96.793 246.68 97.5646C247.664 100.252 246.286 102.638 244.851 104.718C243.252 107.037 240.789 109.231 238.79 111.336C236.628 113.613 234.455 114.996 231.565 116.336C227.688 118.133 223.229 119.687 220.012 122.592C219.456 123.094 218.679 123.373 218.288 123.925C218.17 124.09 218.439 122.732 219.008 122.261C220.558 120.976 222.203 117.37 222.638 115.379C223.799 110.062 228.084 105.176 231.174 100.826C231.495 100.374 232.252 98.3172 232.63 99.574C232.933 100.584 233.233 101.633 232.935 102.694C232.258 105.097 230.782 107.473 230.465 109.972C230.4 110.484 228.474 113.975 228.096 112.924C226.572 108.678 225.383 104.199 224.166 99.8578C222.706 94.6475 224.935 89.747 225.807 84.7095C225.877 84.3042 225.965 82.7668 225.115 83.3118C224.447 83.7403 224.134 85.784 223.972 86.5051C223.449 88.8438 222.157 91.4147 221.233 93.6387C220.277 95.9415 220.072 99.3858 218.282 101.198C216.67 102.829 215.212 106.168 214.331 108.289C212.798 111.98 212.534 115.456 212.036 119.382C211.828 121.026 212.261 122.646 212.056 124.261C211.994 124.753 212.241 128.128 211.154 126.975" stroke="#294674" stroke-width="2" stroke-linecap="round"/>
</svg>
