<svg width="16" height="18" viewBox="0 0 16 18" fill="none" xmlns="http://www.w3.org/2000/svg">
<path d="M2.28571 1.125C1.025 1.125 0 2.13398 0 3.375V14.625C0 15.866 1.025 16.875 2.28571 16.875H13.7143C14.975 16.875 16 15.866 16 14.625V3.375C16 2.13398 14.975 1.125 13.7143 1.125H2.28571ZM12.0357 7.34766L7.46429 11.8477C7.12857 12.1781 6.58571 12.1781 6.25357 11.8477L3.96786 9.59766C3.63214 9.26719 3.63214 8.73281 3.96786 8.40586C4.30357 8.07891 4.84643 8.07539 5.17857 8.40586L6.85714 10.0582L10.8214 6.15234C11.1571 5.82188 11.7 5.82188 12.0321 6.15234C12.3643 6.48281 12.3679 7.01719 12.0321 7.34414L12.0357 7.34766Z" fill="#383838"/>
</svg>
