<svg width="75" height="24" viewBox="0 0 75 24" fill="none" xmlns="http://www.w3.org/2000/svg">
<path fill-rule="evenodd" clip-rule="evenodd" d="M30.7031 4.96293C30.7102 4.9784 30.7137 4.98613 30.7137 4.98613C31.1199 5.92149 30.6785 7.00892 29.7297 7.42167C23.6881 10.0756 17.5611 13.8229 11.6417 17.4387C10.6569 18.0451 9.65269 18.6511 8.65205 19.2648C13.3202 19.4289 18.1202 19.337 22.8078 19.2497C26.0145 19.1823 29.3409 19.1258 32.5283 19.1419C33.558 19.159 34.3722 19.9835 34.3484 21.0024C34.3247 22.0213 33.4621 22.8335 32.4394 22.8318C29.303 22.8019 25.9995 22.8666 22.8121 22.9346C16.031 23.0592 9.01689 23.1964 2.37562 22.5574C1.56931 22.4854 0.914243 21.9059 0.748949 21.1223C0.595087 20.3429 0.957367 19.5434 1.67312 19.1433C4.29606 17.6239 6.92693 16.017 9.71695 14.3189C15.7366 10.6297 21.9674 6.81641 28.2578 4.05872C29.1987 3.64957 30.2916 4.05798 30.7031 4.96293Z" fill="#F97C60"/>
<path fill-rule="evenodd" clip-rule="evenodd" d="M74.3057 1.80246C74.7157 2.70412 74.3555 3.78418 73.4757 4.2415C64.5597 8.88752 53.6048 12.1699 43.9367 15.058C42.5643 15.4721 41.2076 15.879 39.8702 16.2867C27.5416 20.0219 17.3494 21.8408 6.83289 22.1558C5.80528 22.1841 4.93312 21.3685 4.89021 20.3381C4.85514 19.3041 5.66355 18.4402 6.69116 18.4119C16.8794 18.103 26.7763 16.3421 38.7776 12.6984C40.1151 12.2907 41.4718 11.8838 42.852 11.4661C52.3682 8.61841 63.1399 5.39071 71.7418 0.906635C72.6565 0.442972 73.7833 0.799191 74.2583 1.71902C74.2727 1.75066 74.2949 1.77873 74.3057 1.80246Z" fill="#F97C60"/>
</svg>
