<svg width="287" height="122" viewBox="0 0 287 122" fill="none" xmlns="http://www.w3.org/2000/svg">
<path d="M50.8465 1C46.1799 40.1667 31.6465 118.8 10.8465 120C-15.1535 121.5 15.3465 93 44.3465 95C73.3465 97 107.346 93 122.846 81" stroke="#F97C60" stroke-width="2" stroke-linecap="round"/>
<path d="M55.8463 63.9996C52.1796 71.1662 46.3463 86.0996 52.3463 88.4996C59.8463 91.4996 68.3463 72.9996 78.3463 63.9996C88.3463 54.9996 102.846 24.4996 96.3463 14.9996C89.8463 5.49956 67.3463 89.4996 68.8463 112C70.3463 134.5 85.3463 83.4995 78.3463 70.9995C80.6796 71.9995 85.8463 72.9995 87.8463 68.9995" stroke="#F97C60" stroke-width="2" stroke-linecap="round"/>
<path d="M57.8467 59L59.8467 56" stroke="#F97C60" stroke-width="2" stroke-linecap="round"/>
<path d="M95.8462 69.4992C100.346 69.9992 109.646 69.6992 110.846 64.4992C112.346 57.9992 88.8462 59.9992 92.3462 72.9992C95.1462 83.3992 110.513 77.9992 114.846 74.9993" stroke="#F97C60" stroke-width="2" stroke-linecap="round"/>
<path d="M203.203 55.5988C207.703 56.0988 217.003 55.7988 218.203 50.5988C219.703 44.0988 196.203 46.0988 199.703 59.0988C202.503 69.4988 216.847 66 221.847 59.0988" stroke="#F97C60" stroke-width="2" stroke-linecap="round"/>
<path d="M268.347 44.2534C271.934 44.1497 279.202 42.8998 279.582 38.7295C280.056 33.5165 262.39 36.4263 265.978 47.3547C268.615 55.3857 282.39 50.1588 285.467 47.3547" stroke="#F97C60" stroke-width="2" stroke-linecap="round"/>
<path d="M132.347 54.9998C138.302 55.5997 151.347 50.5 146.383 49.0454C142.561 47.925 128.008 49.4664 146.383 59.7508C164.759 70.0353 132.346 73.5455 132.347 67.5455C132.347 62.9682 143.066 64.1217 158.889 63.0933" stroke="#F97C60" stroke-width="2" stroke-linecap="round"/>
<path d="M188.847 5.5C183.514 24.5 172.947 69.5 173.347 97.5" stroke="#F97C60" stroke-width="2" stroke-linecap="round"/>
<path d="M155.347 22.3887C162.18 15.3887 186.774 -4.91522 207.347 11.8887C225.847 26.9998 192.347 54.3888 169.847 54.3888" stroke="#F97C60" stroke-width="2" stroke-linecap="round"/>
<path d="M235.568 43.814C233.068 41.814 226.753 40.6554 225.068 47.8138C223.068 56.314 227.855 67.0455 233.068 60.3138C238.347 53.499 242.347 40.3138 236.847 43.814C231.347 47.3141 240.847 66.293 249.847 56.793" stroke="#F97C60" stroke-width="2" stroke-linecap="round"/>
<path d="M258.967 40.9255C257.179 38.7167 252.287 39.6221 250.504 41.6002C245.967 46.6316 249.428 56.461 256.543 56.4612C261.967 56.4613 263.967 51.6315 263.967 51.6315" stroke="#F97C60" stroke-width="2" stroke-linecap="round"/>
</svg>
