<svg width="38" height="41" viewBox="0 0 38 41" fill="none" xmlns="http://www.w3.org/2000/svg">
<path d="M37.1684 34.8439C36.9793 35.6792 36.5029 36.4375 35.8048 37.0147C35.5187 37.2563 35.001 37.3209 34.7533 36.9978C33.9441 35.9424 32.7228 36.0734 31.5983 36.0579C24.4444 35.9561 17.443 36.8958 10.5196 38.3031C7.993 38.8169 5.4904 39.4174 2.97303 39.9653C2.63137 40.0397 2.2939 40.2292 1.93689 39.8344C1.57988 39.4396 2.00699 39.2239 2.00636 38.9513C2.00202 36.8845 3.83345 36.5528 5.4264 35.9841C13.482 33.108 21.9052 32.0222 30.6004 32.2779C32.1915 32.3248 33.7701 32.5105 35.2774 33.009C36.2373 33.3265 37.0599 33.8108 37.1684 34.8439Z" fill="#F97C60"/>
<path d="M23.5848 16.7199C24.266 17.0186 24.52 17.3895 24.2456 17.9686C23.9761 18.5373 23.6247 18.8102 22.8403 18.7853C21.1612 18.7319 19.7083 19.4478 18.2624 20.0697C13.1711 22.2602 8.28431 24.7828 3.35757 27.2402C2.96983 27.4337 2.5848 27.6534 2.07866 27.395C1.46281 27.0799 2.07085 26.7314 1.97354 26.4069C1.65359 25.3402 2.50042 24.856 3.28352 24.3689C7.34978 21.8396 11.3551 19.2223 15.9502 17.4446C17.4574 16.8617 18.9792 16.3168 20.5663 15.9112C21.2687 15.7318 22.0109 16.1959 22.7236 15.6898C23.0138 15.4836 23.6798 15.6307 24.0885 15.9655C24.3007 16.1391 24.5791 16.3194 24.4675 16.5865C24.3364 16.9004 23.9795 16.6835 23.5848 16.7199Z" fill="#F97C60"/>
<path d="M13.4567 1.9065C13.3231 3.10176 12.7573 3.77363 11.7752 4.3783C9.88242 5.54348 8.62955 7.27135 7.36367 8.95142C5.68484 11.1672 4.19493 13.4932 2.90617 15.9105C2.58052 16.5251 2.12721 17.0886 1.69114 17.6497C1.52527 17.8631 1.29194 18.1086 0.901236 17.876C0.58266 17.6864 0.626855 17.4637 0.628122 17.1552C0.635593 14.7497 2.17018 12.8566 3.25265 10.8416C4.7281 8.09472 6.5125 5.49157 8.82601 3.21709C9.66569 2.38272 10.6314 1.65611 11.6965 1.05737C12.156 0.801396 12.6283 0.631187 13.1771 0.921579C13.7782 1.23978 13.5699 1.65214 13.4567 1.9065Z" fill="#F97C60"/>
</svg>
