<svg width="114" height="122" viewBox="0 0 114 122" fill="none" xmlns="http://www.w3.org/2000/svg">
<path d="M9.58057 29.6066C10.0364 27.2926 14.2662 24.9983 16.1002 23.9585C19.9579 21.7714 23.6552 19.814 26.9445 16.722C28.7754 15.0009 30.391 12.9593 32.0516 11.0739C32.1206 10.9956 33.3991 9 33.638 9C34.5487 9 30.7724 18.4831 30.6173 18.84C27.5069 25.9975 24.6152 33.3306 21.0117 40.2408C17.6556 46.6764 13.1915 53.0659 11.3409 60.1634C11.0916 61.1193 10.7271 62.4881 10.3944 63.7314C10.3267 63.9843 10.2844 63.9785 10.4281 63.7597V63.7597C12.6529 60.3717 16.2599 57.42 19.0775 54.5595C25.9832 47.5488 33.0579 40.4937 40.2663 33.7985C44.6975 29.6828 49.2517 24.9954 52.6971 19.9872C54.0815 17.9748 55.6037 15.8313 56.8262 13.7214C57.2887 12.9233 57.3043 13.8908 57.3043 14.3612C57.3043 16.3092 56.8202 17.9228 56.1308 19.7225C52.8625 28.2544 49.5177 36.7897 46.1992 45.3152C42.825 53.9838 38.8498 62.5881 36.0938 71.4816C34.8781 75.4046 33.9744 78.7494 33.4424 82.7998C33.1531 85.0031 33.1265 89.6059 31.7908 91.4704C29.861 94.1642 35.6872 86.0977 37.8758 83.6161C43.3554 77.4029 48.6187 71.0246 54.001 64.7304C59.5266 58.2687 64.4152 51.3525 70.2132 45.1167C75.8742 39.0282 81.5507 32.7549 86.5775 26.1207C87.4387 24.9841 88.4286 23.1307 88.5986 21.664C88.7985 19.9389 88.3378 23.8448 88.1205 24.5322C85.2628 33.5704 81.9615 42.5183 79.4059 51.6472C75.0215 67.3085 67.535 81.5514 62.3462 96.8758C60.7923 101.465 59.6009 106.115 57.7172 110.577C57.4776 111.144 56.9522 111.973 56.9131 112.607C56.9087 112.679 58.3652 110.373 58.7386 109.871C67.0366 98.7016 76.3168 88.2807 85.4692 77.8357C91.6888 70.7375 97.8079 63.7573 101.464 54.8905C102.603 52.1276 103.465 49.3596 104.267 46.5066C105.806 41.0383 100.025 57.0347 97.813 62.2594C93.2752 72.9753 88.7458 83.6532 84.1 94.3165C81.9665 99.2135 81.1662 104.121 81.1662 109.429" stroke="#F5F6F8" stroke-width="18" stroke-linecap="round"/>
<path d="M77.2077 99.7071C77.1466 99.6571 77.0777 99.6131 77.0048 99.5791C74.9678 92.4411 73.8153 84.9671 72.7003 77.7371L70.1116 60.9551C70.1018 60.8911 70.0703 60.8391 70.0486 60.7811C70.0782 60.7411 70.1176 60.7131 70.1471 60.6711C70.9174 59.5591 70.9371 58.0031 70.3362 56.7991C70.6081 56.5851 70.7578 56.2371 70.7086 55.8751C69.9363 50.2211 68.7878 46.0431 67.6787 42.0031C66.7074 38.4691 65.7047 34.8131 64.9344 30.1251C64.8615 29.6751 64.7965 29.2151 64.7295 28.7491C64.6862 28.4491 64.6369 28.1351 64.5896 27.8271C65.4959 27.9151 66.5222 28.0091 67.456 28.0091C67.986 28.0091 68.4824 27.9771 68.906 27.8971C70.5175 27.5931 71.7172 27.1191 72.716 25.7131C73.571 24.5091 73.8449 23.0591 74.0635 21.8931C74.3177 20.5331 74.6368 18.8411 74.4674 17.1631C74.233 14.8451 73.0135 12.5491 71.3606 11.3171C69.5029 9.93309 67.0128 9.61709 65.0152 10.5091C63.9533 10.9831 62.986 11.7831 61.9734 13.0251C60.8111 14.4491 59.639 16.6031 59.3848 18.7771C56.5499 17.4611 53.1379 18.9131 51.7411 19.6471C49.3515 20.8991 47.4129 22.8191 45.829 24.5331C39.2334 31.6711 30.1614 42.6911 27.5334 55.9011C27.488 56.1311 27.5235 56.3691 27.6338 56.5771C28.3549 57.9211 30.2658 57.9471 31.9974 57.6191C33.274 65.0171 32.819 72.6651 32.3737 80.0671C32.0822 84.9191 31.7807 89.9371 31.9561 94.9051C31.9679 95.3011 31.9915 95.9631 32.4525 96.5091C32.5254 96.5951 32.6101 96.6551 32.6909 96.7211C32.9214 97.6151 32.9982 99.2371 32.8859 100.115C32.8485 100.409 32.7914 100.855 33.01 101.317C33.3646 102.069 34.1546 102.257 34.4521 102.329C35.313 102.533 36.5522 102.633 38.1636 102.633C40.4292 102.633 43.4295 102.431 47.1391 102.029C47.1903 102.023 47.2317 101.997 47.279 101.985C47.4464 102.039 47.5981 102.063 47.6927 102.077C48.8471 102.247 50.0232 102.309 51.2033 102.309C52.6769 102.309 54.1564 102.213 55.6083 102.119C57.0405 102.027 58.3998 101.941 59.7237 101.941C59.9345 101.943 60.1512 101.949 60.3797 101.979C60.9352 102.049 62.2394 102.199 62.6787 100.973C62.8501 100.487 62.7969 99.9531 62.5152 99.3871C62.1665 98.6831 61.5932 98.1011 60.8978 97.7511C60.3935 97.4931 59.8557 97.5471 59.4262 97.5931C59.2883 97.6091 59.0795 97.6291 59.0145 97.6191C57.4306 97.2671 55.8801 96.7391 54.4066 96.0451C53.9751 95.8411 53.7367 95.6511 53.6087 95.5051C53.8116 95.4611 54.0047 95.3791 54.1465 95.2171C54.3534 94.9791 54.4381 94.6551 54.375 94.3431C54.0539 92.8091 53.721 88.9131 53.8451 87.4451C53.9928 85.7091 54.0007 84.4751 54.0086 83.2791C54.0165 82.0711 54.0244 80.9271 54.1642 79.2691C54.3888 76.6291 54.6449 73.6371 53.8865 70.8071C53.7013 70.1131 53.6126 69.6891 53.5358 69.3171C53.4137 68.7311 53.3152 68.2591 52.9625 67.1911C52.0327 64.3771 51.4357 62.6531 50.8408 60.9311C50.3069 59.3911 49.7612 57.8091 48.9909 55.4871C49.0067 55.4391 49.0284 55.3951 49.0382 55.3451C49.1485 54.7671 49.2589 54.0491 49.3771 53.2691C49.6568 51.4391 50.0035 49.1611 50.502 47.9231C50.9866 46.7171 52.2789 45.5311 53.1359 44.7451C53.4688 44.4391 53.7466 44.1831 53.916 43.9891L57.5606 39.8891C57.8265 40.7271 58.0866 41.5531 58.3427 42.3731C59.8005 47.0051 61.1776 51.3831 63.1279 56.6111C63.2638 56.9771 63.5278 57.6411 64.0932 58.0671C64.0794 58.1951 64.0636 58.3211 64.0617 58.4511C63.1988 58.7291 62.4344 59.3331 61.938 60.1871C61.3667 61.1691 61.2229 62.3091 61.544 63.3131C61.6779 63.7331 62.0621 64.0051 62.4797 64.0051C62.5546 64.0051 62.6314 63.9971 62.7063 63.9771C63.2047 63.8571 63.5298 63.3691 63.4529 62.8531C63.3525 62.1731 63.7228 61.4091 64.3158 61.0731C64.5365 60.9471 64.7236 60.9371 64.7788 60.9591C64.8517 60.9951 64.9285 61.0011 65.0034 61.0191C65.2082 61.2551 65.4348 61.4711 65.6988 61.6351C66.213 61.9591 66.7941 62.1131 67.3772 62.1131C67.6767 62.1131 67.9742 62.0611 68.2638 61.9811L70.7421 78.0451C71.8945 85.5151 73.0864 93.2411 75.2534 100.659C75.5292 101.623 76.2424 101.725 76.4551 101.733C76.467 101.733 76.4808 101.733 76.4926 101.733C76.9437 101.733 77.3495 101.447 77.5131 101.013C77.6726 100.613 77.5328 99.9811 77.2077 99.7071ZM63.4845 14.3011C64.2961 13.3071 65.0329 12.6831 65.8052 12.3411C67.1507 11.7391 68.9139 11.9771 70.1924 12.9311C71.3981 13.8291 72.326 15.6131 72.5033 17.3671C72.6431 18.7551 72.3693 20.2251 72.125 21.5191C71.8926 22.7551 71.6719 23.7631 71.1144 24.5451C70.4879 25.4291 69.7846 25.6971 68.5415 25.9331C67.6117 26.1071 65.8977 25.9451 64.6468 25.8251C64.4833 25.8091 64.3572 25.8011 64.2035 25.7851C63.908 24.5011 63.4845 23.2411 62.7358 22.1611L62.6157 21.9871C62.2512 21.4591 61.8395 20.8691 61.3706 20.3211C61.0357 18.3871 62.202 15.8731 63.4845 14.3011ZM46.0556 95.0551L46.0989 96.9331C44.9543 96.9851 42.2633 95.9231 40.9591 95.0491C41.1896 94.3651 41.1601 93.6251 41.1088 93.0191L41.0872 92.7451C40.7739 88.5351 41.8909 83.1551 43.2719 79.0411C44.5032 83.6931 45.2695 88.5391 45.4685 93.2851C45.4862 93.7191 45.5158 94.3751 45.9295 94.9331C45.9669 94.9851 46.0162 95.0111 46.0556 95.0551ZM42.3401 75.8611C40.4469 80.4131 38.7172 87.4491 39.1211 92.9011L39.1447 93.1931C39.2058 93.9151 39.2294 94.4031 39.0088 94.5791C38.8413 94.7111 38.7074 94.7611 38.3153 94.8231C38.0238 94.8691 37.2456 94.9151 36.4714 94.9611C35.6282 95.0111 34.791 95.0671 34.4698 95.1191C34.1251 95.1751 33.9734 95.1651 33.9557 95.1971C33.934 95.1031 33.9261 94.9111 33.9241 94.8311C33.7527 89.9551 34.0522 84.9871 34.3398 80.1831C34.7653 73.1331 35.183 65.8611 34.1507 58.6891C36.2488 62.1971 38.1282 65.4711 39.8658 69.3271C40.8035 71.4091 41.623 73.6031 42.3421 75.8551C42.3421 75.8571 42.3421 75.8591 42.3401 75.8611ZM34.9032 100.375C34.8816 100.371 34.8619 100.365 34.8441 100.361C34.8441 100.345 34.8461 100.335 34.8461 100.335C34.9525 99.5111 34.9229 98.1991 34.7693 97.0971C34.7732 97.0971 34.7791 97.0951 34.7831 97.0951C35.0707 97.0491 35.8292 97.0051 36.5916 96.9591C37.4485 96.9071 38.3094 96.8491 38.6266 96.7991C38.9398 96.7491 39.2669 96.6751 39.6057 96.5231C41.1207 97.6291 44.2156 98.9471 46.0911 98.9471C46.1108 98.9471 46.1245 98.9431 46.1442 98.9431L46.1699 100.115C38.7212 100.883 35.9139 100.613 34.9032 100.375ZM58.6007 99.5651C58.9613 99.6431 59.3159 99.6071 59.6271 99.5771C59.7769 99.5611 60.0014 99.5391 60.0251 99.5351C60.2359 99.6431 60.425 99.7971 60.5944 99.9871C60.3856 99.9611 60.1748 99.9411 59.9798 99.9391C58.5121 99.9531 56.9755 100.025 55.4881 100.121C53.0177 100.281 50.4665 100.445 48.1438 100.175L48.0473 95.8751C48.2226 95.8891 48.4039 95.8991 48.591 95.8991C49.3061 95.8991 50.102 95.8011 50.8782 95.7051C51.1028 95.6771 51.3215 95.6571 51.5461 95.6311C51.6505 96.2871 52.1036 97.1551 53.5831 97.8531C55.1847 98.6071 56.873 99.1851 58.6007 99.5651ZM51.1008 67.8231C51.416 68.7791 51.5047 69.2011 51.615 69.7271C51.6997 70.1271 51.7943 70.5811 51.9933 71.3251C52.6572 73.8131 52.4306 76.4971 52.208 79.0931C52.0602 80.8291 52.0524 82.0651 52.0445 83.2611C52.0366 84.4691 52.0287 85.6131 51.8889 87.2691C51.7726 88.6351 51.9795 91.5711 52.2533 93.5491C51.7273 93.5851 51.1796 93.6531 50.6399 93.7191C49.7474 93.8291 48.8235 93.9471 48.1852 93.8791C47.673 93.8311 47.5371 93.7631 47.5055 93.7351C47.4583 93.6591 47.4445 93.3511 47.4386 93.2011C47.0839 84.7531 45.0331 75.9811 41.6605 68.4971C39.7062 64.1591 37.6002 60.5791 35.2145 56.6091C38.0356 55.4951 41.1167 55.7051 44.3712 55.9491C45.2892 56.0171 46.2073 56.0611 47.1233 56.0991C47.9035 58.4451 48.4531 60.0371 48.989 61.5871C49.5819 63.3051 50.1749 65.0211 51.1008 67.8231ZM60.226 41.7611C59.1405 38.3091 58.0157 34.7411 56.6189 30.7271C56.4771 30.3171 56.0968 30.0611 55.691 30.0611C55.5827 30.0611 55.4723 30.0791 55.362 30.1171C54.8478 30.3031 54.5799 30.8731 54.7612 31.3951C55.5689 33.7151 56.286 35.8911 56.9577 37.9831C56.7174 38.0051 56.4849 38.1131 56.3116 38.3091L52.4582 42.6451C52.3203 42.8011 52.0898 43.0071 51.8179 43.2571C50.829 44.1651 49.3357 45.5371 48.6816 47.1631C48.0965 48.6191 47.7439 50.9231 47.4326 52.9571C47.3696 53.3671 47.3085 53.7611 47.2514 54.1271C46.3393 54.0891 45.4232 54.0211 44.5091 53.9551C41.0103 53.6931 37.3855 53.4251 34.0049 54.9311C32.4072 55.6431 30.3052 55.9431 29.5763 55.7331C32.2476 43.2691 40.9256 32.7571 47.2613 25.8971C48.7289 24.3091 50.5138 22.5351 52.6375 21.4211C53.5654 20.9311 56.7588 19.4351 58.8903 20.7291C59.6685 21.2031 60.4073 22.2731 61.0002 23.1331L61.1224 23.3111C62.1803 24.8371 62.4817 26.9671 62.7733 29.0291C62.8422 29.5111 62.9092 29.9871 62.9841 30.4511C63.7701 35.2471 64.7886 38.9551 65.7736 42.5391C66.8591 46.4911 67.8875 50.2311 68.6341 55.3271L65.6633 56.3411C65.5648 56.3751 65.3067 56.4631 65.2595 56.4671C65.2201 56.4351 65.1334 56.3231 64.9718 55.8971C63.0471 50.7211 61.6779 46.3691 60.226 41.7611ZM66.7468 59.9331C66.2661 59.6311 66.0041 58.9371 66.0613 58.3071C66.1401 58.2831 66.2307 58.2591 66.2937 58.2371L68.4667 57.4971C68.8725 58.0471 68.9237 58.9591 68.5336 59.5231C68.1396 60.0891 67.3063 60.2871 66.7468 59.9331Z" fill="#043565"/>
</svg>
