<svg width="134" height="125" viewBox="0 0 134 125" fill="none" xmlns="http://www.w3.org/2000/svg">
<path d="M27.3359 10.0032C27.968 8.50091 26.0718 13.0079 25.4398 14.5102C23.3728 19.4232 20.9525 23.9701 18.5079 28.6763C17.8416 29.9588 16.3122 32.3068 18.6137 30.7354C24.271 26.8727 28.7693 21.0396 33.8703 16.4683C35.6284 14.8929 37.4764 13.4422 39.3067 11.9569C40.3815 11.0848 41.6145 9.6887 42.9141 9.15905C43.6866 8.84423 43.125 9.90547 43.0209 10.1528C42.0073 12.5621 40.9937 14.9714 39.9801 17.3807C36.1255 26.5428 32.5839 35.9405 28.2211 44.8688C26.5049 48.3811 24.4718 51.7473 22.954 55.3551C22.4926 56.4517 24.2559 54.2221 24.6284 53.8706C29.5902 49.1881 34.394 44.2131 39.0958 39.2613C43.4333 34.6932 47.8213 29.9157 52.6585 25.8782C53.6264 25.0704 55.0926 23.4082 56.3879 23.1136C57.1945 22.9302 55.9602 25.147 55.8859 25.3236C51.9649 34.6436 48.0438 43.9636 44.1228 53.2836C40.9567 60.8092 37.1156 68.3491 34.8257 76.214C34.5003 77.3315 33.4663 80.4291 34.3416 79.6753C35.3428 78.813 36.2977 77.474 37.1643 76.478C40.6162 72.5108 43.7609 68.2814 46.9579 64.1054C52.7498 56.5401 58.6979 48.9816 65.29 42.1124C68.1322 39.1506 71.2332 36.4647 74.1068 33.5402C75.2445 32.3824 74.6313 33.8388 74.3711 34.6219C73.0625 38.5595 71.8693 42.5773 71.0943 46.6621C70.1849 51.4551 69.7578 56.3628 69.2315 61.2103C68.5132 67.8252 67.487 74.4112 67.0089 81.0501C66.9367 82.0517 66.4051 89.519 66.8028 89.211C68.3144 88.0406 69.2191 85.5156 70.0925 83.8872C72.4101 79.566 74.6431 75.199 76.9647 70.8796C82.5606 60.4686 87.9781 49.7804 94.6522 40.0211C95.249 39.1484 97.4423 34.7305 98.9445 34.8557C100.746 35.0058 92.9421 83.6865 92.3205 87.9397C91.8051 91.4665 90.8885 95.3474 91.2094 98.9452C91.2788 99.7231 91.5948 99.1848 91.8594 98.6941C93.5918 95.4816 95.4486 92.5167 97.4826 89.4872C101.391 83.6668 105.16 77.7516 109.068 71.9309C111.128 68.8632 113 65.5511 115.447 62.7755C115.66 62.5343 120.181 57.1129 120.23 59.2635C120.317 63.1082 119.23 67.2457 118.399 70.9635C116.838 77.9439 115.065 84.9237 112.94 91.7487C108.84 104.916 108.572 102.226 104.822 115.5" stroke="#F5F6F8" stroke-width="18" stroke-linecap="round"/>
<path d="M85.606 57.6792L86.241 56.0912C86.7436 54.8378 87.0012 53.4997 87 52.1492C86.9978 50.5875 86.653 49.0453 85.99 47.6312L80 34.9012C79.3559 33.5528 78.2954 32.4471 76.975 31.7472C76.9131 31.0001 76.5731 30.3034 76.0222 29.7949C75.4714 29.2864 74.7497 29.0032 74 29.0012H72C71.5124 29.0018 71.0322 29.1212 70.6011 29.3491C70.1701 29.577 69.801 29.9066 69.526 30.3092L68 30.1182V29.4612C69.0655 28.5074 69.7547 27.2039 69.943 25.7862C71.307 25.4196 72.4768 24.5404 73.2083 23.3321C73.9398 22.1239 74.1765 20.6798 73.869 19.3012L73.495 17.6152C73.0146 15.4552 71.812 13.5235 70.0858 12.139C68.3595 10.7545 66.2128 10 64 10C61.7872 10 59.6405 10.7545 57.9142 12.139C56.188 13.5235 54.9854 15.4552 54.505 17.6152L54.131 19.3012C53.8241 20.6795 54.0611 22.1231 54.7925 23.3309C55.524 24.5387 56.6934 25.4176 58.057 25.7842C58.2448 27.2026 58.9341 28.5069 60 29.4612V30.1182L58.474 30.3092C58.199 29.9066 57.8299 29.577 57.3989 29.3491C56.9678 29.1212 56.4876 29.0018 56 29.0012H54C53.2544 29.0037 52.5365 29.2843 51.9868 29.7881C51.4371 30.2919 51.0952 30.9827 51.028 31.7252C49.7168 32.39 48.6292 33.4247 47.9 34.7012L47.7 35.0492C47.6164 35.1232 47.5367 35.2012 47.461 35.2832L43.232 40.3602C43.072 40.552 42.9896 40.7966 43.0009 41.0461C43.0122 41.2955 43.1164 41.5317 43.293 41.7082L43.717 42.1322L41.663 45.7832C40.5739 47.7218 40.0012 49.9077 40 52.1312C40 53.1573 40.4075 54.1413 41.1328 54.867C41.8581 55.5928 42.842 56.0007 43.868 56.0012C43.9852 56.0197 44.1049 56.0142 44.22 55.9852L52 55.2782V72.0012H54V66.0012H63V72.0012H65V66.0012H74H76L76 63.4352C76.1565 63.5253 76.3189 63.6048 76.486 63.6732L79.33 64.8102C79.7362 64.9725 80.1759 65.0327 80.6107 64.9857C81.0455 64.9387 81.4622 64.7859 81.8243 64.5406C82.1864 64.2953 82.4829 63.965 82.6879 63.5787C82.8928 63.1923 83 62.7616 83 62.3242V62.2512L90.4 67.8012C90.5731 67.9311 90.7836 68.0012 91 68.0012C91.0567 68.0012 91.1132 67.9962 91.169 67.9862C91.3029 67.9634 91.4308 67.9134 91.5448 67.8395C91.6588 67.7656 91.7565 67.6692 91.832 67.5562L93.832 64.5562C93.9777 64.3379 94.0316 64.071 93.9822 63.8132C93.9328 63.5554 93.7841 63.3273 93.568 63.1782L85.606 57.6792ZM78.189 35.7512L84.18 48.4822C84.718 49.63 84.9979 50.8817 85 52.1492C85.001 53.2455 84.7919 54.3317 84.384 55.3492L83.918 56.5132L80.211 53.9532L80.911 52.4152C80.9897 52.2419 81.0173 52.0497 80.9906 51.8612C80.9638 51.6728 80.8838 51.4958 80.76 51.3512L76 45.8012V38.2212C76.3133 37.9423 76.5643 37.6004 76.7366 37.2178C76.909 36.8353 76.9987 36.4208 77 36.0012V34.1712C77.4976 34.6135 77.9018 35.1507 78.189 35.7512ZM74 60.0012H67.618L67.565 59.9012C67.1935 59.1575 67 58.3376 67 57.5062C67 56.6749 67.1935 55.855 67.565 55.1112L68.302 53.6382L69.761 54.6592L69.2 55.4012C69.1184 55.51 69.0598 55.6343 69.0279 55.7665C68.996 55.8986 68.9913 56.036 69.0142 56.17C69.0372 56.304 69.0872 56.432 69.1613 56.546C69.2353 56.6601 69.3319 56.7578 69.445 56.8332L74 59.8702V60.0012ZM63 64.0012V62.0012H65V64.0012H63ZM58.339 47.0372C57.7544 47.1126 57.211 47.3787 56.793 47.7942C56.7276 47.8602 56.6497 47.9125 56.5638 47.948C56.478 47.9836 56.3859 48.0017 56.293 48.0012H52.723L54.533 44.8332L58.339 47.0372ZM59 36.0012V32.2592L60.176 32.1122C60.4122 32.9444 60.9133 33.6768 61.6034 34.1983C62.2936 34.7199 63.135 35.0021 64 35.0021C64.865 35.0021 65.7064 34.7199 66.3966 34.1983C67.0867 33.6768 67.5878 32.9444 67.824 32.1122L69 32.2592V36.0012C68.9998 36.3419 69.0576 36.68 69.171 37.0012H58.816C58.9344 36.681 58.9967 36.3427 59 36.0012ZM62 30.6512C63.2925 31.1179 64.7075 31.1179 66 30.6512V31.0012C66 31.5317 65.7893 32.0404 65.4142 32.4155C65.0391 32.7905 64.5304 33.0012 64 33.0012C63.4696 33.0012 62.9609 32.7905 62.5858 32.4155C62.2107 32.0404 62 31.5317 62 31.0012V30.6512ZM74 49.6642L71 47.5922V39.0012H74V49.6642ZM69 46.2112L65 43.4492V39.0012H69V46.2112ZM63 39.0012V42.0682L58.56 39.0012H63ZM63.182 44.6252L61.714 46.6802L58.146 44.6142L59.746 42.2502L63.182 44.6252ZM56 50.0012H56.293C56.6486 50.0024 57.001 49.9328 57.3295 49.7967C57.6581 49.6606 57.9564 49.4606 58.207 49.2082C58.2724 49.1423 58.3503 49.09 58.4362 49.0545C58.522 49.0189 58.6141 49.0008 58.707 49.0012H60C60.2652 49.0012 60.5196 49.1066 60.7071 49.2941C60.8946 49.4817 61 49.736 61 50.0012V52.0012C61 52.2665 60.8946 52.5208 60.7071 52.7084C60.5196 52.8959 60.2652 53.0012 60 53.0012H58.707C58.6141 53.0017 58.522 52.9836 58.4362 52.948C58.3503 52.9125 58.2724 52.8602 58.207 52.7942C57.9564 52.5419 57.6581 52.3419 57.3295 52.2058C57.001 52.0697 56.6486 52.0001 56.293 52.0012H56V50.0012ZM63 52.0012V50.0012C63 49.9722 62.992 49.9452 62.991 49.9152L66.646 52.4732L65.776 54.2122C65.3301 55.1039 65.0703 56.0769 65.0124 57.0721C64.9544 58.0673 65.0996 59.0639 65.439 60.0012H62V54.2212C62.3133 53.9423 62.5643 53.6004 62.7366 53.2178C62.9089 52.8353 62.9987 52.4208 63 52.0012ZM70.961 53.0532L63.4 47.7612L64.828 45.7612L72.471 51.0402L70.961 53.0532ZM76 48.8712L78.826 52.1712L78.539 52.8022L76 51.0452V48.8712ZM71 32.0012C71 31.736 71.1054 31.4817 71.2929 31.2941C71.4804 31.1066 71.7348 31.0012 72 31.0012H74C74.2652 31.0012 74.5196 31.1066 74.7071 31.2941C74.8946 31.4817 75 31.736 75 32.0012V36.0012C75 36.2665 74.8946 36.5208 74.7071 36.7084C74.5196 36.8959 74.2652 37.0012 74 37.0012H72C71.7348 37.0012 71.4804 36.8959 71.2929 36.7084C71.1054 36.5208 71 36.2665 71 36.0012V32.0012ZM68 25.0012C68 26.0621 67.5786 27.0795 66.8284 27.8297C66.0783 28.5798 65.0609 29.0012 64 29.0012C62.9391 29.0012 61.9217 28.5798 61.1716 27.8297C60.4214 27.0795 60 26.0621 60 25.0012V22.0012C60 21.736 60.1054 21.4817 60.2929 21.2941C60.4804 21.1066 60.7348 21.0012 61 21.0012H67C67.2652 21.0012 67.5196 21.1066 67.7071 21.2941C67.8946 21.4817 68 21.736 68 22.0012V25.0012ZM66 19.0012H62V18.0012C62 17.736 62.1054 17.4817 62.2929 17.2941C62.4804 17.1066 62.7348 17.0012 63 17.0012H65C65.2652 17.0012 65.5196 17.1066 65.7071 17.2941C65.8946 17.4817 66 17.736 66 18.0012V19.0012ZM58 22.0012V23.6452C57.2842 23.3081 56.7044 22.7374 56.356 22.0269C56.0076 21.3165 55.9113 20.5087 56.083 19.7362L56.458 18.0512C56.8394 16.3353 57.7945 14.8006 59.1657 13.7007C60.5369 12.6008 62.2422 12.0013 64 12.0013C65.7578 12.0013 67.4631 12.6008 68.8343 13.7007C70.2055 14.8006 71.1607 16.3353 71.542 18.0512L71.917 19.7362C72.0887 20.5087 71.9924 21.3165 71.644 22.0269C71.2956 22.7374 70.7158 23.3081 70 23.6452V22.0012C69.9974 21.383 69.8039 20.7806 69.4459 20.2765C69.0879 19.7725 68.5829 19.3913 68 19.1852V18.0012C68 17.2056 67.6839 16.4425 67.1213 15.8799C66.5587 15.3173 65.7957 15.0012 65 15.0012H63C62.2044 15.0012 61.4413 15.3173 60.8787 15.8799C60.3161 16.4425 60 17.2056 60 18.0012V19.1852C59.4171 19.3913 58.9121 19.7725 58.5541 20.2765C58.1961 20.7806 58.0026 21.383 58 22.0012ZM54 31.0012H56C56.2652 31.0012 56.5196 31.1066 56.7071 31.2941C56.8946 31.4817 57 31.736 57 32.0012V36.0012C57 36.2665 56.8946 36.5208 56.7071 36.7084C56.5196 36.8959 56.2652 37.0012 56 37.0012H55.664L53 35.1622V32.0012C53 31.736 53.1054 31.4817 53.2929 31.2941C53.4804 31.1066 53.7348 31.0012 54 31.0012ZM49 36.5662C49.2552 36.2744 49.6069 36.0842 49.9908 36.0302C50.3747 35.9762 50.7652 36.0621 51.091 36.2722L58.101 41.1142L56.413 43.6142L53 41.6362C52.8094 41.5258 52.5876 41.4815 52.3692 41.5101C52.1507 41.5386 51.9478 41.6385 51.792 41.7942L49 44.5872L45.353 40.9392L49 36.5662ZM44.04 53.9923C43.9825 53.9918 43.9251 53.9948 43.868 54.0012C43.6226 54.0011 43.3795 53.9526 43.1528 53.8586C42.9261 53.7645 42.7202 53.6268 42.5467 53.4531C42.3733 53.2795 42.2357 53.0734 42.1419 52.8466C42.0481 52.6197 41.9999 52.3767 42 52.1312C42.0008 50.2513 42.485 48.4031 43.406 46.7642L45.185 43.6012L48.293 46.7092C48.4805 46.8967 48.7348 47.002 49 47.002C49.2652 47.002 49.5195 46.8967 49.707 46.7092L52.664 43.7522L52.803 43.8322L50.42 48.0012H45V50.0012H54V53.0882L44.04 53.9923ZM55.09 55.0012C55.3393 54.9787 55.5711 54.8635 55.7396 54.6783C55.9081 54.4932 56.001 54.2516 56 54.0012H56.293C56.3859 54.0008 56.478 54.0189 56.5638 54.0545C56.6497 54.09 56.7276 54.1423 56.793 54.2082C57.0436 54.4606 57.3419 54.6606 57.6705 54.7967C57.999 54.9328 58.3514 55.0024 58.707 55.0012H60V60.0012H54V55.1012L55.09 55.0012ZM54 62.0012H61V64.0012H54V62.0012ZM67 64.0012V62.0012H74V64.0012H67ZM81 62.3242C80.9967 62.4337 80.9675 62.5408 80.9147 62.6368C80.8619 62.7327 80.787 62.8148 80.6963 62.8761C80.6056 62.9374 80.5015 62.9763 80.3928 62.9896C80.2841 63.0028 80.1738 62.99 80.071 62.9522L77.229 61.8153C76.8654 61.6716 76.5537 61.4216 76.3344 61.098C76.1151 60.7744 75.9986 60.3922 76 60.0012V59.6782C75.9998 59.5675 76.0268 59.4584 76.0787 59.3606C76.1306 59.2627 76.2057 59.1791 76.2974 59.1171C76.3892 59.0551 76.4947 59.0165 76.6049 59.0049C76.715 58.9932 76.8263 59.0088 76.929 59.0502L79.771 60.1872C80.1346 60.3309 80.4463 60.5809 80.6656 60.9045C80.8849 61.2281 81.0014 61.6103 81 62.0012V62.3242ZM90.754 65.5662L83.6 60.2012C83.4651 60.1008 83.3074 60.0355 83.141 60.0112L82.393 59.9042C81.9502 59.1927 81.2919 58.641 80.514 58.3292L77.67 57.1922C77.1577 56.9866 76.594 56.9458 76.0575 57.0758C75.521 57.2058 75.0384 57.4999 74.677 57.9172L71.434 55.7552L74.118 52.1772L91.618 64.2652L90.754 65.5662Z" fill="#043565"/>
<path d="M53 71.002V86.002C53 87.1065 53.8954 88.002 55 88.002H60.5C61.6046 88.002 62.5 87.1065 62.5 86.002V80.002L64 66.502" stroke="#043565" stroke-width="2"/>
<path d="M75 65.002L77.9488 77.78C77.9828 77.9275 78 78.0784 78 78.2297V86.002C78 87.1065 77.1046 88.002 76 88.002H69.5C68.3954 88.002 67.5 87.1065 67.5 86.002V80.3772C67.5 80.1292 67.4539 79.8834 67.364 79.6523L64 71.002" stroke="#043565" stroke-width="2"/>
<path d="M61.9999 88.002H54.9999C53.8953 88.002 52.9999 88.8974 52.9999 90.002V95.2022C52.9999 95.9926 52.5288 96.7005 51.8484 97.1026C50.2876 98.0249 48.3136 99.6199 47.9999 101.502C47.4999 104.502 53.9999 105.002 57.4999 104.502C60.02 104.142 62.4591 101.595 63.6506 99.9955C63.8865 99.6789 63.9999 99.2913 63.9999 98.8964V90.002C63.9999 88.8974 63.1045 88.002 61.9999 88.002Z" stroke="#043565" stroke-width="2"/>
<path d="M69.0001 88.002H76.0001C77.1047 88.002 78.0001 88.8974 78.0001 90.002V95.2022C78.0001 95.9926 78.4712 96.7005 79.1516 97.1026C80.7124 98.0249 82.6864 99.6199 83.0001 101.502C83.5001 104.502 77.0001 105.002 73.5001 104.502C70.98 104.142 68.5409 101.595 67.3494 99.9955C67.1135 99.6789 67.0001 99.2913 67.0001 98.8964V90.002C67.0001 88.8974 67.8955 88.002 69.0001 88.002Z" stroke="#043565" stroke-width="2"/>
<path d="M49.5 100.002C50.1667 100.669 52.3 101.802 55.5 101.002C59.5 100.002 62 97.002 64 93.502" stroke="#043565" stroke-width="2"/>
<path d="M81.5 100.002C80.8333 100.669 78.7 101.802 75.5 101.002C71.5 100.002 69 97.002 67 93.502" stroke="#043565" stroke-width="2"/>
</svg>
