<svg width="112" height="119" viewBox="0 0 112 119" fill="none" xmlns="http://www.w3.org/2000/svg">
<path d="M9.80078 40.122C9.80078 33.6746 15.5188 29.9098 17.5382 24.272C17.8618 23.3687 17.8477 24.6981 17.8477 24.9702C17.8477 26.8206 17.8477 28.6709 17.8477 30.5212C17.8477 34.9701 17.9997 39.4472 17.8133 43.8925C17.6043 48.8809 16.2924 54.0488 14.7699 58.7823C14.2907 60.2723 13.7808 61.774 13.446 63.3034C13.3019 63.9614 13.1369 64.5641 13.2225 63.478C13.3741 61.5538 14.342 59.6803 15.131 57.9619C16.805 54.3164 18.6402 50.6726 20.7708 47.2789C27.8984 35.9258 36.2699 25.19 45.6338 15.6837C46.1773 15.1319 46.4315 15.0636 46.1496 15.963C45.5923 17.7414 44.355 19.1597 43.7768 20.9205C41.5068 27.8342 39.0599 34.625 37.5181 41.7628C35.6871 50.2393 33.9109 58.793 32.3254 67.3183C31.8094 70.0927 30.5372 73.2385 30.5372 76.0462C30.5372 76.1878 30.5638 75.7623 30.6059 75.6273C30.9838 74.4175 31.7009 73.2643 32.2566 72.1361C34.4034 67.7772 36.4702 63.3639 38.7905 59.0966C45.4564 46.8368 53.6984 35.5189 61.7277 24.1673C63.8175 21.2128 66.0835 18.396 68.2616 15.5091C68.894 14.6709 72.1525 9.74265 73.076 10.0105C74.3396 10.377 69.4314 22.1065 68.9837 23.2246C67.4834 26.9722 66.4808 30.8871 65.1494 34.6932C63.3182 39.928 61.2764 45.0471 59.63 50.3511C55.9374 62.2471 52.2657 74.144 48.9351 86.1532C47.5959 90.982 46.4534 95.9525 44.8429 100.694C44.7667 100.918 44.2653 101.954 44.5162 101.148C45.2649 98.7409 47.0395 96.5496 48.3505 94.4448C52.4637 87.8413 56.2671 81.0281 60.5757 74.545C65.2063 67.5775 70.0336 59.8854 75.6551 53.7027C77.3313 51.8593 78.4869 48.6892 80.504 47.2265C80.7229 47.0678 80.6759 49.9275 80.6759 50.1068C80.6759 54.7106 80.4319 59.2734 80.0569 63.862C79.2227 74.0692 78.6342 84.25 77.0307 94.375C76.3006 98.9847 75.4144 103.76 75.4144 108.444C75.4144 108.958 75.2368 109.742 75.8615 109.108C78.4031 106.527 80.1318 102.947 82.2234 99.9958C87.0281 93.2153 91.8407 86.0078 97.6811 80.0786C98.6549 79.09 99.7182 78.0023 100.862 77.1983C101.021 77.087 101.917 76.3175 102.014 76.7619C102.844 80.5551 100.34 85.3321 99.5553 88.9985C99.0122 91.5346 97.6983 94.092 97.6983 96.7141C97.6983 98.1687 97.6983 99.6234 97.6983 101.078" stroke="#F5F6F8" stroke-width="18" stroke-linecap="round"/>
<path d="M94.4998 86.1188C94.2597 85.275 93.7426 84.7313 93.0961 84.45C93.4101 83.9063 93.6687 83.3438 93.8534 82.7063C94.2043 81.45 93.8349 80.25 93.2624 79.125C92.5236 77.6625 91.0645 77.4938 89.624 77.7C90.0487 75.9188 89.6794 73.8563 88.5528 72.5438C87.6293 71.475 86.3549 71.1375 85.0252 71.5313C84.4157 71.7188 83.7877 72.0375 83.2891 72.4875C83.3445 71.3063 83.3814 70.125 83.4368 68.9438C83.6585 63.225 83.4368 57.4875 83.3999 51.7688C83.5107 51.7125 83.6215 51.6375 83.7323 51.5438C84.7297 50.5125 85.5423 49.2375 86.318 48.0188C86.8721 47.1375 87.9987 45.3938 87.0752 44.4C87.4077 43.9688 87.4261 43.2938 86.7797 43.05C83.5846 41.8125 81.1467 38.9813 78.6903 36.675C75.7722 33.9375 72.2631 31.8375 68.9756 29.5875C65.6142 27.2813 62.456 24.7313 59.4271 21.9938C56.7491 19.575 53.9233 16.9688 50.5065 15.7688C50.1187 15.6375 49.7493 15.75 49.5092 15.975C48.7704 15.7688 48.2164 16.575 48.401 17.1938V17.2125C48.3826 17.2313 48.3826 17.25 48.3641 17.2688C48.1979 17.475 48.0132 17.6813 47.81 17.8688C47.4591 18.225 47.0713 18.5438 46.665 18.8438C45.2798 19.875 44.1901 21.5063 43.0081 22.7625C40.2747 25.6875 37.6705 28.725 35.0295 31.725C33.7736 33.15 32.4623 34.5375 31.1694 35.925C29.8212 37.3688 28.5468 38.8875 27.1432 40.275C24.8161 42.5625 22.2119 44.55 20.4758 47.4C20.3096 47.6813 20.3096 47.9625 20.4204 48.1688C20.4204 48.3938 20.5128 48.6 20.6975 48.7875C21.8426 49.95 23.0246 51.0938 24.4652 51.8625C24.8161 52.05 25.0562 52.35 25.4625 52.4438C25.4994 52.4625 25.5548 52.4625 25.5918 52.4625C25.4071 53.7188 25.7765 55.2938 25.9242 56.3063C26.2936 58.9875 26.2382 61.6875 26.4229 64.4063C26.5706 66.375 26.7184 68.3625 26.8477 70.3313C23.9296 70.4625 21.1407 73.9688 21.9534 76.7625C20.1249 77.1 18.592 78.2438 17.9456 80.2125C17.3176 82.1625 17.8348 84.2625 19.1091 85.7813C15.1937 88.6125 21.7502 97.3125 26.4229 94.9313C26.5152 95.8125 26.7369 96.6938 27.254 97.4063C28.1036 98.55 29.5072 98.2313 30.7631 98.2313C33.7736 98.2125 36.784 98.1188 39.8129 98.025C51.1345 97.6875 62.4745 97.65 73.796 97.3688C76.8618 97.2938 80.1863 97.0875 82.9566 95.625C83.5292 95.325 84.2864 94.875 84.2864 94.1438C84.2864 94.05 84.2864 93.9563 84.2864 93.8625C84.4342 93.9563 84.6188 94.0313 84.822 94.0313C88.1834 94.0313 92.2281 93.6563 94.2782 90.525C95.0169 89.325 94.8692 87.4313 94.4998 86.1188ZM50.211 17.6625C53.4246 18.975 56.0472 21.4688 58.6144 23.7938C61.6433 26.5313 64.857 29.0438 68.2368 31.3313C71.5428 33.5625 74.9595 35.7188 77.8776 38.475C80.2232 40.6875 82.6057 43.2938 85.5977 44.5875C85.4315 44.85 85.3945 45.1875 85.5608 45.4875C85.5238 45.6938 85.413 45.8813 85.3207 46.05C85.0436 46.6125 84.7112 47.1563 84.3603 47.6813C83.8986 48.375 83.3999 49.0875 82.8643 49.7438C80.371 48.2625 78.3763 46.05 76.1416 44.2125C73.2419 41.85 70.4716 39.3188 67.6089 36.9C62.4745 32.5875 56.5459 29.3625 51.5223 24.9C51.3192 24.7125 51.0975 24.6563 50.8759 24.675C50.4142 22.3875 50.1925 20.0813 50.1741 17.7563C50.1741 17.7188 50.1925 17.6813 50.211 17.6625ZM51.0606 26.9813C56.0103 31.1813 61.6803 34.3688 66.6485 38.55C69.4927 40.95 72.2446 43.4438 75.1258 45.8063C77.2866 47.5688 79.2074 49.65 81.553 51.1313C81.553 51.1688 81.553 51.2063 81.553 51.2625C81.553 56.8313 81.7746 62.4 81.6269 67.9688C81.553 70.7813 81.4606 73.575 81.2205 76.3875C81.1282 77.55 80.9989 78.675 81.0359 79.8375C81.0728 80.8313 81.1282 81.8625 80.6111 82.7438C80.2971 82.8 79.9831 82.8563 79.6876 82.95C79.6322 82.9688 79.5953 82.9875 79.5583 83.0063C79.2259 82.7813 78.7826 82.7813 78.4687 83.2125C78.0808 83.775 76.5848 83.6813 75.9199 83.7C74.5532 83.7375 73.205 83.625 71.8383 83.5313C70.2684 83.4188 68.7909 83.4938 67.2395 83.7375C65.1155 84.0938 62.9547 84.75 60.7753 84.5813C60.7199 84.5813 60.6645 84.5813 60.6091 84.5813C60.4244 82.3313 60.2028 80.0813 59.9627 77.8313C59.8519 76.7813 59.741 75.75 59.6118 74.7188C59.464 73.4625 59.6118 72.1313 59.5933 70.8563C59.5379 68.4 59.6856 63.4125 56.195 63.6C55.013 63.6563 53.8864 64.1063 52.7228 64.2938C51.8732 64.425 50.9313 64.3125 50.0633 64.3313C49.029 64.35 47.9947 64.4438 46.9605 64.5938C46.5541 64.65 46.2032 64.9313 46.1294 65.3438C45.6676 68.0625 45.5568 70.8188 45.5568 73.575C45.5568 76.2375 45.5568 79.0125 45.9077 81.6563C46.0555 82.7625 46.2217 83.85 46.351 84.9563C46.2402 84.9938 46.1478 85.0688 46.0555 85.1625C46.0001 85.2188 44.6334 85.0875 44.4302 85.0875C43.7468 85.1063 43.0635 85.2188 42.3986 85.3125C41.0319 85.5 39.6837 85.5938 38.3169 85.725C35.5835 85.9875 32.8132 85.7063 30.0613 85.6875C29.9689 85.6875 29.8766 85.7063 29.8027 85.725C29.7104 85.7063 29.618 85.6875 29.5072 85.6875C29.4703 85.6875 29.4333 85.6875 29.3964 85.6875C29.3964 85.6688 29.3964 85.65 29.3964 85.6125C29.3595 81 29.1378 76.35 28.8054 71.7188C28.8977 71.475 28.8608 71.2313 28.75 71.025C28.6207 69.2063 28.4729 67.3875 28.3252 65.5875C28.1959 63.9938 28.0851 62.4188 28.0297 60.825C27.9928 59.6625 28.0112 58.5188 27.8635 57.3563C27.7342 56.3813 27.5864 55.4063 27.4941 54.4313C27.4387 53.9813 27.4202 53.5125 27.4017 53.0625C27.4017 52.8938 27.4017 52.7063 27.4202 52.5375C27.4571 52.2375 27.5495 52.2938 27.2909 52.5188C27.6418 52.2188 27.6972 51.825 27.6049 51.4688C30.5415 49.7063 32.8316 46.6688 35.0479 44.1375C36.3592 42.6375 37.8552 41.2875 39.185 39.8063C40.6071 38.2125 42.0292 36.6188 43.5622 35.1563C44.9843 33.8063 46.314 32.3063 47.6808 30.9C48.9182 29.6625 50.0633 28.3875 51.0606 26.9813ZM48.5119 88.1063C48.4195 86.1375 48.1055 84.1688 47.8285 82.2188C47.4776 79.7813 47.4591 77.2875 47.4037 74.8313C47.3483 72.0188 47.4037 69.1875 47.8285 66.4125C49.9155 66.225 52.0395 66.4125 54.071 65.9438C54.8837 65.7563 55.6778 65.55 56.509 65.4938C56.9707 65.475 57.0446 65.7563 57.2108 66.2438C58.1712 69.0375 57.4509 72.0938 57.7833 74.9625C58.0973 77.6063 58.3559 80.25 58.596 82.8938C58.8361 85.6125 59.187 88.4063 59.0577 91.1438C59.0577 91.0688 59.0392 91.4063 59.0207 91.4625C59.0207 91.4813 59.0207 91.5 59.0023 91.5188C58.9099 91.7063 58.8545 91.9125 58.873 92.1C57.7649 92.175 56.6567 92.25 55.567 92.325C54.2373 92.4188 52.926 92.55 51.5777 92.55C50.3957 92.55 49.2137 92.5313 48.0317 92.6063C48.6966 91.275 48.5857 89.4938 48.5119 88.1063ZM59.6856 91.05C59.3717 91.1063 59.15 91.275 59.0207 91.4813C59.0946 91.275 59.2424 91.1063 59.6856 91.05ZM25.758 50.3813C25.7211 50.4 25.6841 50.4188 25.6472 50.4375C25.6287 50.4375 25.6287 50.4188 25.6102 50.4188C24.9454 49.9875 24.2805 49.6313 23.6525 49.1063C23.1908 48.7125 22.766 48.3 22.3412 47.8688C24.2251 45.0188 27.1247 43.1063 29.3779 40.5938C32.2406 37.3875 35.2141 34.2938 38.0584 31.0688C40.8657 27.9188 43.673 24.7688 46.4987 21.6375C47.0897 20.9813 47.7546 20.4 48.4195 19.8188C48.5488 21.7688 48.8074 23.7 49.2137 25.6313C49.2506 25.8188 49.343 25.9688 49.4538 26.0813C47.5515 28.5938 45.2428 30.7313 43.082 33.0375C41.8076 34.4063 40.4409 35.7 39.185 37.0875C37.8183 38.5875 36.507 40.1063 35.0849 41.55C32.61 44.0625 30.4491 46.9688 27.6788 49.1813C27.0693 49.65 26.4229 50.025 25.758 50.3813ZM27.4017 86.1938C27.3833 86.1938 27.3833 86.1938 27.3648 86.1938C26.663 86.3625 26.2936 87.0938 26.0904 87.7125C25.5364 89.4188 25.8134 91.2375 26.1089 93C25.9796 93.0188 25.8688 93.075 25.7395 93.15C24.0958 94.2375 21.8426 92.2125 20.8822 91.0125C20.2912 90.2813 19.774 89.4 19.6817 88.4438C19.5893 87.5438 20.2358 87.15 21.0299 86.925C21.6763 86.7563 21.8795 85.7438 21.3254 85.3313C19.9218 84.2625 19.2015 82.6688 19.6263 80.9063C20.0326 79.2188 21.6948 78.375 23.3016 78.525C24.2066 78.6 24.7791 77.5875 24.0958 76.8938C23.1539 75.975 23.7633 74.5688 24.4467 73.7063C25.0008 72.975 25.8134 72.375 26.6999 72.2438C26.6814 72.5063 26.8107 72.75 27.0139 72.9188C27.3094 77.3063 27.5495 81.6938 27.568 86.0813C27.4941 86.1375 27.4387 86.1563 27.4017 86.1938ZM43.082 96.075C38.3169 96.225 33.5704 96.375 28.8054 96.3938C28.2883 95.85 28.2328 95.0438 28.1774 94.2938C28.0666 93.075 27.8081 91.875 27.6603 90.6563C27.5864 89.9438 27.6049 89.2313 27.7896 88.5375C27.8081 88.4813 27.9373 88.2375 27.9558 88.1063C28.1774 88.0875 28.3806 87.9938 28.5284 87.8625C28.9716 87.7688 29.4887 87.7125 29.8951 87.5625C29.9874 87.6 30.0982 87.6188 30.209 87.6188C33.3118 87.6375 36.3777 87.7313 39.4805 87.6C40.958 87.5438 42.4355 87.225 43.8946 87.075C44.7996 86.9813 45.76 87.2063 46.5911 86.9625C46.6095 87.0938 46.6095 87.225 46.628 87.3563C46.7573 88.8 47.0528 90.8813 46.2217 92.175C46.037 92.4563 46.037 92.7188 46.1294 92.925C45.5199 93.075 44.9289 93.3 44.3563 93.6375C43.3959 94.1063 43.1374 95.0813 43.082 96.075ZM66.353 95.6625C64.1921 95.7 62.0497 95.7375 59.8888 95.775C54.9022 95.8875 49.9155 95.8875 44.9289 96.0188C45.0212 95.4188 45.2982 95.0813 46.0739 94.8188C47.0343 94.4813 48.1055 94.4813 49.1213 94.4438C51.3376 94.3688 53.517 94.35 55.7148 94.2C58.3743 94.0125 61.0523 93.9 63.7119 93.7313C64.5245 93.675 65.3556 93.5813 66.1683 93.6563C66.5561 93.6938 66.7039 94.2188 66.7777 94.7813C66.4453 94.9313 66.316 95.3063 66.353 95.6625ZM78.7088 95.0625C76.9542 95.3813 75.1627 95.475 73.3897 95.5125C71.8198 95.55 70.2499 95.5875 68.6985 95.6063C68.5508 94.5375 68.6062 93.3188 67.8305 92.5125C67.0363 91.6688 65.9836 91.725 64.9124 91.7625C63.5457 91.8188 62.179 91.875 60.8122 91.9688C60.9046 91.6313 60.9231 91.2563 60.9231 90.9188C60.9785 89.7375 60.8861 88.5375 60.8122 87.3563C60.7938 87.0563 60.7753 86.7375 60.7568 86.4375C62.8992 86.5313 64.9678 86.0438 67.0733 85.6688C68.7539 85.3688 70.3607 85.2938 72.0599 85.4063C73.5928 85.5188 75.1442 85.6125 76.6956 85.5375C77.6191 85.5 78.9673 85.3875 79.6876 84.675C79.8723 84.75 80.0939 84.7875 80.334 84.7125C80.925 84.5438 81.553 84.4875 82.1625 84.4875C82.1994 87.5813 82.4026 90.675 82.421 93.7688C81.3129 94.5188 79.9646 94.8375 78.7088 95.0625ZM92.1173 90.1875C89.9564 92.0438 87.3338 92.175 84.6373 92.175C84.4711 92.175 84.3233 92.2125 84.2125 92.2688C84.1941 91.7438 84.1941 91.2188 84.1756 90.6938C84.1017 88.275 83.9724 85.875 83.9724 83.4563C83.9724 82.9125 83.4553 82.5938 82.9751 82.5938C82.8828 82.5938 82.7904 82.5938 82.6981 82.5938C83.1598 81 82.8273 79.05 82.9751 77.4563C83.012 76.9688 83.049 76.4813 83.0859 75.9938C83.5661 75.9938 84.0278 75.6563 83.954 75.0188C83.8247 73.9875 85.0621 73.4625 85.8747 73.2188C86.5396 73.0313 87.1122 73.65 87.4261 74.1375C88.1464 75.3 88.1834 77.325 87.3153 78.4125C86.7243 79.1625 87.4261 80.175 88.3127 79.9125C89.4208 79.5938 90.9722 78.9563 91.7294 80.175C92.6898 81.7313 91.7479 83.4375 90.6398 84.6C89.9379 85.3313 90.806 86.3063 91.6371 86.1C92.7452 85.8375 92.856 87 92.893 87.8625C92.9669 88.7813 92.8191 89.5875 92.1173 90.1875Z" fill="#043565"/>
<path d="M58.1525 46.7252C57.8939 43.7439 55.5853 41.5689 52.6672 41.4002C49.7675 41.2127 46.9602 42.7502 45.6305 45.3752C45.4088 45.8252 45.2241 46.3314 45.1133 46.8189C44.8732 46.9877 44.707 47.2502 44.707 47.6252C44.7255 49.4064 45.0395 51.1502 46.2584 52.5002C47.5143 53.9064 49.7121 54.1689 51.4667 54.1314C55.4929 54.0377 58.5219 50.8502 58.1525 46.7252ZM55.8623 49.6689C55.2159 51.0939 53.7938 51.9002 52.3163 52.1439C50.8387 52.4064 48.9549 52.3127 47.7359 51.3189C46.8494 50.5877 46.6278 49.3314 46.5724 48.1877C46.6832 48.0752 46.7755 47.9064 46.8125 47.7002C47.2188 45.4314 48.918 43.7252 51.1527 43.3127C53.1289 42.9377 55.2528 43.6689 56.0285 45.6564C56.5457 46.9502 56.4164 48.4502 55.8623 49.6689ZM76.4738 74.4752C76.2152 70.6314 76.1598 66.7689 75.6427 62.9439C75.5873 62.5502 75.3287 62.1377 74.9039 62.1002C72.9277 61.8564 70.9146 61.8939 68.9384 61.9877C67.1654 62.0627 64.9676 62.1189 63.4162 63.0939C63.0283 63.3377 62.936 63.7314 63.0468 64.0689C62.8621 64.2377 62.7328 64.4814 62.7328 64.7814V68.2127C62.4004 68.5314 62.4004 69.1689 62.7328 69.5439V75.4689C62.7328 76.5377 64.1549 76.5377 64.5058 75.7127C64.5982 75.7502 64.709 75.7689 64.8383 75.7689C68.4397 75.7689 72.0412 75.4877 75.6427 75.4877C76.1413 75.4689 76.5107 74.9439 76.4738 74.4752ZM68.5506 63.8627C68.5875 65.2127 68.7168 66.5814 68.7907 67.9314C67.387 67.9689 65.9649 67.9689 64.5612 67.9689V64.6127C64.5612 64.5939 64.5612 64.5752 64.5612 64.5564C65.6509 63.9377 67.2393 63.9002 68.5506 63.8627ZM68.3474 72.9939C68.1812 73.2939 68.1996 73.5752 68.3289 73.8002C67.11 73.8377 65.891 73.8752 64.6721 73.8752C64.6351 73.8752 64.5982 73.8752 64.5612 73.8752V69.8252C66.0018 69.8252 67.4424 69.8064 68.883 69.7877C68.9015 70.9314 68.8276 72.0939 68.3474 72.9939ZM73.9066 63.8627C74.0728 65.2314 74.1836 66.6002 74.2575 67.9689C74.0913 67.7814 73.8512 67.6689 73.5372 67.7064C72.5768 67.7814 71.5979 67.8377 70.6376 67.8752C70.5822 66.5064 70.4529 65.1564 70.3975 63.7877C71.561 63.7502 72.743 63.7689 73.9066 63.8627ZM70.0466 73.7439C70.6376 72.5627 70.693 71.1002 70.693 69.7502C71.6903 69.7127 72.6876 69.6564 73.685 69.5627C73.9805 69.5439 74.2021 69.3939 74.3314 69.2064C74.4052 70.6689 74.4791 72.1314 74.5715 73.6127C73.057 73.6314 71.561 73.6877 70.0466 73.7439ZM43.8574 71.3814C43.8205 69.4127 43.525 67.4439 43.5065 65.4752C43.5065 64.7814 42.8786 64.5377 42.3614 64.6877C42.3245 64.2189 41.9921 63.7689 41.4011 63.7689C40.7546 63.7689 40.1082 63.7689 39.4618 63.8252C38.9262 63.8627 38.4275 64.0502 37.8919 64.0502C36.95 64.0502 36.0266 64.0689 35.0846 64.1252C33.6071 64.2002 31.7233 64.2002 31.0215 65.7752C30.3381 67.2939 30.5782 69.2439 30.7075 70.8564C30.8552 72.5814 31.1692 74.3064 31.3908 76.0314C31.4462 76.4252 31.7233 76.8377 32.1296 76.8752C34.0319 77.1002 35.8973 77.5314 37.7996 77.7189C39.3141 77.8502 41.8813 78.0752 42.8786 76.6127C43.9128 75.1127 43.8944 73.0877 43.8574 71.3814ZM38.2244 65.9064C38.7046 65.9064 39.1478 65.7377 39.628 65.6814C40.2744 65.6064 40.9209 65.6252 41.5673 65.6252C41.6042 65.6252 41.6412 65.6252 41.6781 65.6252C41.6966 67.1627 41.8813 68.7002 41.9736 70.2189C41.8258 70.2377 41.6781 70.2752 41.5303 70.3877C40.5699 71.0252 39.2402 71.0814 38.0397 71.0627C38.0397 69.3939 37.9843 67.7064 37.9658 66.0377C37.9658 66.0002 37.9658 65.9627 37.9658 65.9252L38.2244 65.9064ZM36.1558 73.7439C36.1374 74.0814 36.1189 74.4377 36.082 74.7752C36.082 74.8502 36.0635 74.9252 36.045 75.0002C35.8973 75.1502 35.8234 75.3564 35.8419 75.5627C34.9369 75.4127 34.0504 75.2439 33.1454 75.1127C33.0346 74.3064 32.9053 73.4814 32.7945 72.6752C33.9211 72.7127 35.0477 72.8064 36.1743 72.8627C36.1743 73.1439 36.1743 73.4439 36.1558 73.7439ZM36.1928 71.0064C34.9923 70.9502 33.7733 70.8377 32.5729 70.8002C32.4251 69.4689 32.3328 68.0627 32.6283 66.7689C32.7391 66.3189 32.8314 66.3002 33.2193 66.1877C34.0134 65.9814 34.9 65.9814 35.6941 65.9439C35.8419 65.9439 35.9896 65.9252 36.1189 65.9252C36.1004 66.0002 36.1004 66.0752 36.1004 66.1502C36.1004 67.7252 36.1558 69.2814 36.1743 70.8564V71.0064H36.1928ZM41.5488 75.2627C41.0871 76.2564 38.8523 75.9564 37.7442 75.8252C37.8365 75.5439 37.8735 75.2627 37.9104 75.0189C37.9843 74.3252 38.0028 73.6314 38.0212 72.9189C39.3695 72.9189 40.8285 72.8439 42.0475 72.2252C42.0659 73.2752 41.9736 74.3439 41.5488 75.2627ZM50.2847 80.1939C50.2662 80.1752 50.2477 80.1564 50.2477 80.1377C50.2477 80.1189 50.2477 80.1189 50.2293 80.1002C50.2293 80.0814 50.2108 80.0627 50.2108 80.0439C50.1923 79.9689 50.1923 79.8752 50.1739 79.8002C50.1554 79.5189 50.1554 79.2377 50.1554 78.9377C50.1554 78.4314 49.6383 78.0377 49.1581 78.0752C48.6225 78.1127 48.3085 78.5627 48.3085 79.0877C48.3085 79.7627 48.2715 80.6814 48.7333 81.2252C49.0657 81.6189 49.5644 81.7877 50.0076 81.4689C50.414 81.2439 50.6171 80.5877 50.2847 80.1939Z" fill="#043565"/>
</svg>
