<svg width="121" height="125" viewBox="0 0 121 125" fill="none" xmlns="http://www.w3.org/2000/svg">
<mask id="mask0_1228_7846" style="mask-type:alpha" maskUnits="userSpaceOnUse" x="0" y="0" width="121" height="125">
<rect width="121" height="125" fill="#D9D9D9"/>
</mask>
<g mask="url(#mask0_1228_7846)">
<path d="M19.3359 10.0032C19.968 8.50091 18.0718 13.0079 17.4398 14.5102C15.3728 19.4232 12.9525 23.9701 10.5079 28.6763C9.84165 29.9588 8.31217 32.3068 10.6137 30.7354C16.271 26.8727 20.7693 21.0396 25.8703 16.4683C27.6284 14.8929 29.4764 13.4422 31.3067 11.9569C32.3815 11.0848 33.6145 9.6887 34.9141 9.15905C35.6866 8.84423 35.125 9.90547 35.0209 10.1528C34.0073 12.5621 32.9937 14.9714 31.9801 17.3807C28.1255 26.5428 24.5839 35.9405 20.2211 44.8688C18.5049 48.3811 16.4718 51.7473 14.954 55.3551C14.4926 56.4517 16.2559 54.2221 16.6284 53.8706C21.5902 49.1881 26.394 44.2131 31.0958 39.2613C35.4333 34.6932 39.8213 29.9157 44.6585 25.8782C45.6264 25.0704 47.0926 23.4082 48.3879 23.1136C49.1945 22.9302 47.9602 25.147 47.8859 25.3236C43.9649 34.6436 40.0438 43.9636 36.1228 53.2836C32.9567 60.8092 29.1156 68.3491 26.8257 76.214C26.5003 77.3315 25.4663 80.4291 26.3416 79.6753C27.3428 78.813 28.2977 77.474 29.1643 76.478C32.6162 72.5108 35.7609 68.2814 38.9579 64.1054C44.7498 56.5401 50.6979 48.9816 57.29 42.1124C60.1322 39.1506 63.2332 36.4647 66.1068 33.5402C67.2445 32.3824 66.6313 33.8388 66.3711 34.6219C65.0625 38.5595 63.8693 42.5773 63.0943 46.6621C62.1849 51.4551 61.7578 56.3628 61.2315 61.2103C60.5132 67.8252 59.487 74.4112 59.0089 81.0501C58.9367 82.0517 58.4051 89.519 58.8028 89.211C60.3144 88.0406 61.2191 85.5156 62.0925 83.8872C64.4101 79.566 66.6431 75.199 68.9647 70.8796C74.5606 60.4686 79.9781 49.7804 86.6522 40.0211C87.249 39.1484 89.4423 34.7305 90.9445 34.8557C92.7464 35.0058 84.9421 83.6865 84.3205 87.9397C83.8051 91.4665 82.8885 95.3474 83.2094 98.9452C83.2787 99.7231 83.5948 99.1848 83.8594 98.6941C85.5918 95.4816 87.4485 92.5167 89.4826 89.4872C93.3905 83.6668 97.1596 77.7516 101.068 71.9309C103.128 68.8632 105 65.5511 107.447 62.7755C107.66 62.5343 112.181 57.1129 112.23 59.2635C112.317 63.1082 111.23 67.2457 110.399 70.9635C108.838 77.9439 107.065 84.9237 104.94 91.7487C100.84 104.916 100.572 102.226 96.8221 115.5" stroke="#F5F6F8" stroke-width="18" stroke-linecap="round"/>
<path d="M21.017 43.5058C16.8603 43.5058 12.8473 40.6978 11.6889 36.6638C11.1807 34.8898 11.2102 33.0878 11.3186 31.4038C11.4506 29.3578 12.0632 26.9518 15.6034 24.6278C18.458 22.7518 21.6869 23.2658 24.1809 23.9238C25.9008 24.3778 27.8196 25.7538 28.8696 26.8418C30.2545 28.2758 31.0366 30.3518 31.0662 32.6878C31.1332 37.5838 27.5989 42.2358 23.0206 43.2818C22.3547 43.4338 21.6829 43.5058 21.017 43.5058ZM20.1542 25.3258C18.7889 25.3258 17.6719 25.6498 16.6692 26.3078C13.8698 28.1458 13.3871 29.9058 13.2807 31.5338C13.1842 33.0338 13.1546 34.6278 13.5782 36.1038C14.6203 39.7418 18.8264 42.1918 22.5852 41.3278C26.2888 40.4838 29.1454 36.7018 29.0922 32.7138C29.0705 30.9238 28.4756 29.2938 27.463 28.2458C26.5903 27.3418 24.967 26.2018 23.6845 25.8638C22.3311 25.5058 21.1746 25.3258 20.1542 25.3258Z" fill="#043565"/>
<path d="M93.497 43.2075C92.8863 43.2075 92.2677 43.1355 91.6432 42.9655C89.1038 42.2715 86.4955 40.1775 85.0357 38.4115H85.0337C83.436 36.4735 83.1563 33.6795 83.4262 31.7095C83.9738 27.6915 87.7366 24.9435 91.0009 24.0875C94.6041 23.1435 98.554 24.0835 101.312 26.5315C104.866 29.6855 104.098 35.5775 102.208 38.4455C101.048 40.2075 99.6888 41.4255 98.162 42.0695C96.7613 42.6575 95.1695 43.2075 93.497 43.2075ZM86.5408 37.1255C88.0341 38.9315 90.341 40.5395 92.1534 41.0335C93.9245 41.5115 95.7251 40.9295 97.4055 40.2215C98.5639 39.7335 99.6277 38.7635 100.565 37.3355C102.094 35.0155 102.624 30.3575 100.012 28.0395C97.77 26.0535 94.4327 25.2595 91.4895 26.0275C88.8418 26.7215 85.7981 28.8815 85.3745 31.9855C85.1736 33.4575 85.3588 35.6895 86.5408 37.1255Z" fill="#043565"/>
<path d="M33.107 60.8072C32.5928 60.8072 32.1614 60.4032 32.1259 59.8732C32.0885 59.3232 32.4982 58.8452 33.0439 58.8092L37.6972 58.4912C38.1897 58.4492 38.7098 58.8692 38.7452 59.4232C38.7826 59.9732 38.3729 60.4512 37.8272 60.4872L33.174 60.8052C33.1543 60.8072 33.1306 60.8072 33.107 60.8072Z" fill="#043565"/>
<path d="M80.6424 60.9043H77.1535C76.6097 60.9043 76.1685 60.4563 76.1685 59.9043C76.1685 59.3523 76.6097 58.9043 77.1535 58.9043H80.6424C81.1861 58.9043 81.6274 59.3523 81.6274 59.9043C81.6274 60.4563 81.1861 60.9043 80.6424 60.9043Z" fill="#043565"/>
<path d="M98.7528 48.1738C94.265 46.1678 89.0326 48.7878 86.5622 52.4698C86.5346 52.5098 86.5169 52.5498 86.4913 52.5918C85.8175 50.7538 84.1923 48.9938 80.2345 48.9818C80.2266 48.9818 80.2187 48.9818 80.2108 48.9818C79.8346 48.9818 79.474 49.0298 79.1135 49.0778C79.0623 42.7998 73.8693 37.0658 68.5502 34.9918C66.527 34.1998 64.3974 33.8918 62.3919 33.6458C56.9605 32.9778 50.6544 32.6138 45.0596 35.0058C39.5297 37.3698 35.627 43.4238 35.7472 49.1218C35.0616 49.1038 34.3406 49.1658 33.4896 49.3998C32.4927 49.6718 30.9876 50.0818 30.0026 51.1978C29.2934 52.0018 28.8324 52.8838 28.5211 53.7478C28.399 53.4278 28.3103 53.0958 28.1803 52.7818C27.6425 51.4778 26.9806 50.1438 25.8084 49.2058C23.4759 47.3378 20.2687 47.9478 18.2356 49.0398C17.8613 49.2418 17.4988 49.4218 17.1481 49.5978C14.4374 50.9598 12.0911 52.1358 11.441 58.5678C11.3543 59.4118 11.502 60.8078 11.6892 62.5778C11.8704 64.2738 12.0714 66.1978 12.1108 68.0218C12.1699 70.8418 12.1147 74.5758 12.0556 78.5298C11.9689 84.1758 11.8803 90.0118 12.1127 94.0598C12.1443 94.5898 12.5757 94.9998 13.0958 94.9998C13.1155 94.9998 13.1352 94.9998 13.1529 94.9978C13.6947 94.9658 14.1104 94.4938 14.0788 93.9418C13.8523 89.9698 13.939 84.1698 14.0237 78.5618C14.0355 77.8278 14.0453 77.1119 14.0552 76.3979C15.7218 80.0038 17.3392 83.6338 18.9803 87.2478C19.1142 87.5438 19.5161 87.7639 19.8313 87.7439C22.5066 87.5599 25.1898 87.6118 27.871 87.6718V93.9998C27.871 94.5518 28.3123 94.9998 28.856 94.9998C29.3998 94.9998 29.8411 94.5518 29.8411 93.9998V87.7078C32.8651 87.7658 35.8851 87.7638 38.8953 87.3758C41.4111 87.0498 45.3669 86.6698 45.9106 83.5698C45.9441 83.3778 45.9441 83.1898 45.9559 82.9998C52.8786 82.9938 56.2986 82.9498 58.639 82.9158C61.3931 82.8758 62.646 82.8599 66.393 82.9519C66.0345 83.6059 65.8434 84.3558 65.9439 85.2318C66.3083 88.3638 69.7322 89.8518 72.4213 90.2218C74.0171 90.4418 75.6404 90.4278 77.2597 90.3878C77.506 90.4778 77.7857 90.4698 78.032 90.3718C78.5659 90.3578 79.0978 90.3438 79.6277 90.3358C81.4185 90.3158 83.2112 90.2978 85.0019 90.2798V93.9998C85.0019 94.5518 85.4432 94.9998 85.987 94.9998C86.5307 94.9998 86.972 94.5518 86.972 93.9998V90.2598C89.2257 90.2358 91.8971 90.5398 93.9951 89.6258C96.0006 88.7538 96.8576 86.4159 97.6023 84.4659C99.066 80.6299 99.9643 76.5998 100.947 72.5978C100.865 79.7458 100.762 88.3278 100.762 93.9998C100.762 94.5518 101.203 94.9998 101.747 94.9998C102.291 94.9998 102.732 94.5518 102.732 93.9998C102.732 88.2238 102.839 79.4158 102.925 72.1978C102.986 66.9158 103.042 62.4858 103.036 60.7058L103.04 59.4398C103.063 55.0658 103.095 50.1118 98.7528 48.1738ZM45.8259 36.8498C50.9913 34.6418 56.9782 34.9938 62.1535 35.6318C64.0369 35.8638 66.0286 36.1518 67.843 36.8598C72.5671 38.7018 77.374 44.0498 77.1336 49.5858C76.3417 49.9058 75.6147 50.3318 75.006 50.8758C74.2456 49.5838 73.43 48.2998 72.5651 47.0538C71.7456 45.8738 70.7409 44.5738 69.1905 44.0718C68.0833 43.7118 66.9742 43.8558 65.9301 44.0298C61.8836 44.6938 57.8884 45.7738 54.0547 47.2398C53.7572 47.3538 53.2017 47.5638 52.8845 48.1238C52.4984 48.7938 52.6993 49.5078 52.7978 49.8538C53.6331 52.7778 55.4948 56.5838 56.7576 58.9978H43.056C42.798 57.6398 42.4631 56.2478 42.0553 55.0118C41.6002 53.6318 40.3315 50.6278 37.7133 49.5098C37.3745 44.4738 40.8575 38.9718 45.8259 36.8498ZM73.6546 52.5498C73.231 53.3238 72.9769 54.1598 72.7858 54.8758C72.6164 55.5058 72.5435 57.0178 72.5356 59.0018H58.9916C57.8273 56.8318 55.5953 52.4718 54.6891 49.3018C54.6713 49.2398 54.6575 49.1898 54.6477 49.1518C54.6891 49.1338 54.7245 49.1198 54.7462 49.1118C58.4577 47.6918 62.3269 46.6478 66.2433 46.0018C67.0885 45.8618 67.9021 45.7518 68.5916 45.9758C69.5589 46.2878 70.3173 47.2898 70.9517 48.2038C71.8658 49.5198 72.7306 50.8818 73.5245 52.2498C73.5482 52.2878 73.5994 52.4138 73.6546 52.5498ZM29.8411 58.0418L29.8489 57.7678C29.8903 56.5378 29.9612 54.2478 31.4722 52.5338C32.0199 51.9098 32.9833 51.6098 34.0018 51.3298C34.8607 51.0958 35.5345 51.0258 36.1274 51.1178C38.6274 51.4898 39.8626 54.6798 40.1857 55.6518C41.0978 58.4138 41.6613 62.1358 41.6613 63.9778C41.6593 64.0478 41.5135 70.5159 40.8102 76.1459C37.7429 74.9679 34.1988 75.1178 30.8537 75.2738V67.3038C30.9423 64.1998 30.5641 61.0798 29.8391 58.0518C29.8391 58.0458 29.8411 58.0438 29.8411 58.0418ZM20.448 85.7138C18.3499 81.0798 16.3207 76.3998 14.1005 71.8258C14.1064 70.4378 14.1044 69.1218 14.0808 67.9778C14.0394 66.0698 13.8326 64.1018 13.6494 62.3618C13.4878 60.8418 13.3361 59.4038 13.3992 58.7698C13.939 53.4398 15.4776 52.6678 18.0248 51.3918C18.3912 51.2078 18.7675 51.0178 19.1576 50.8098C20.7927 49.9318 23.1016 49.5838 24.5909 50.7758C25.4124 51.4318 25.9305 52.4998 26.3659 53.5578C28.1449 57.8478 29.0156 62.5818 28.8817 67.2718V75.0698C28.7339 74.7158 28.5783 74.3658 28.4128 74.0258C27.7765 72.7078 27.0771 71.4218 26.3856 70.1318C24.9751 67.4978 23.401 64.8658 22.3234 62.0678C21.8664 60.8818 19.9614 61.3978 20.4243 62.5998C21.4566 65.2818 22.8987 67.8058 24.2501 70.3318C24.9416 71.6238 25.641 72.9118 26.3049 74.2198C26.559 74.7198 26.819 75.2238 27.0416 75.7398C27.1067 75.8898 27.1697 76.0378 27.2229 76.1918C27.2446 76.2518 27.3312 76.6698 27.2997 76.3718C27.3569 76.9018 27.7036 77.3818 28.2847 77.3718C30.4242 77.3358 32.5656 77.2718 34.7051 77.2698C34.8548 77.2698 35.0065 77.2758 35.1562 77.2778C34.9494 79.0618 35.0833 80.8158 35.43 82.5818C35.6014 83.4538 35.8162 84.3159 36.0427 85.1739C36.0841 85.3279 36.1215 85.4918 36.1629 85.6538C30.9482 86.0138 25.6626 85.4298 20.448 85.7138ZM42.2464 84.6538C41.4977 84.8918 40.7314 85.0658 39.9591 85.2078C39.4095 85.3078 38.8579 85.3718 38.3083 85.4418V85.4398C38.2492 85.3378 38.1723 85.2638 38.0916 85.1958C38.0778 85.1458 38.064 85.0938 38.0502 85.0438C38.0009 84.8558 37.9497 84.6698 37.9005 84.4818C37.8157 84.1598 37.733 83.8378 37.6542 83.5138C37.4907 82.8418 37.341 82.1639 37.2247 81.4799C37.008 80.2079 36.9056 78.8718 37.075 77.5858C37.0849 77.5118 37.077 77.4398 37.075 77.3658C38.4127 77.4778 39.7385 77.7258 40.9284 78.3538C42.4631 79.1638 43.9268 80.7058 44.0076 82.5538C44.0667 83.8618 43.3496 84.3038 42.2464 84.6538ZM58.6114 80.9158C56.2493 80.9478 52.79 80.9938 45.7057 80.9998C45.1994 79.4258 44.045 78.0479 42.6719 77.1059C43.4658 71.2159 43.6293 64.0938 43.6313 63.9998C43.6313 63.2178 43.5446 62.1658 43.387 60.9998H72.5454C72.6242 67.2258 73.1187 76.1778 73.3532 79.4758C72.6873 79.5758 72.0273 79.6918 71.3733 79.8378C70.3843 80.0558 69.2949 80.4458 68.3493 81.0158C68.3256 81.0138 68.3059 80.9998 68.2843 80.9998C62.9947 80.8558 61.7142 80.8758 58.6114 80.9158ZM76.653 88.3839C74.4071 88.4419 71.9859 88.5278 69.9745 87.4478C68.7354 86.7838 67.3682 85.4338 68.1129 83.9198C68.7315 82.6598 70.3075 82.1498 71.5486 81.8458C72.9572 81.5018 74.4071 81.3118 75.8649 81.1838C75.8846 81.2458 75.8866 81.3059 75.9181 81.3699C76.5111 82.5139 76.6313 83.8158 76.6608 85.0858C76.6864 86.1838 76.6648 87.2839 76.653 88.3839ZM75.3074 79.2378C74.8405 72.9178 74.1589 57.3678 74.6869 55.3998C74.8583 54.7638 75.0592 54.0918 75.3862 53.4998C76.2294 51.9678 78.1226 50.9818 80.2128 50.9818C80.2167 50.9818 80.2246 50.9818 80.2286 50.9818C84.6355 50.9958 85.0019 53.3638 85.0019 55.9998H85.0729C84.6986 57.7718 84.7931 59.5358 84.8995 61.3638C84.9507 62.2158 85.0019 63.0938 85.0019 63.9998V77.9998C85.0019 78.0158 85.0098 78.0278 85.0118 78.0438C84.9074 78.2238 84.8187 78.4118 84.7104 78.5898C84.6493 78.6898 84.6276 78.7859 84.604 78.8819C82.9216 78.8599 81.2412 78.8818 79.5647 78.9578C78.1522 79.0218 76.7258 79.0998 75.3074 79.2378ZM101.068 59.4278L101.064 60.7138C101.068 61.6298 101.054 63.2598 101.032 65.3398C100.934 65.4438 100.851 65.5698 100.798 65.7338C99.2492 70.5038 98.2583 75.4398 96.8852 80.2598C96.3375 82.1838 95.7347 84.0378 94.8147 85.8098C94.2926 86.8138 94.0247 87.5558 92.8643 87.9298C91.7808 88.2778 90.5771 88.2098 89.4503 88.2278C85.8451 88.2858 82.24 88.3038 78.6348 88.3518C78.6486 87.1638 78.6663 85.9738 78.625 84.7878C78.5796 83.4978 78.3866 82.2298 77.9118 81.0398C78.4654 81.0098 79.017 80.9818 79.5666 80.9578C82.3582 80.8318 85.1714 80.7878 87.9609 80.9998C89.2257 81.0958 89.2198 79.0958 87.9609 78.9998C87.565 78.9698 87.165 78.9778 86.7691 78.9578C88.7135 75.6138 90.1437 71.9618 91.2824 68.2638C91.8931 66.2838 92.2911 64.2538 92.8506 62.2638C93.1993 61.0238 91.3001 60.4938 90.9514 61.7318C90.4117 63.6498 90.0295 65.6078 89.4483 67.5198C88.7568 69.7878 87.9412 72.0258 86.9779 74.1918V63.9998C86.9779 63.0518 86.9247 62.1358 86.8715 61.2438C86.708 58.4478 86.5681 56.0338 88.1973 53.5958C90.2127 50.5878 94.4167 48.4138 97.9667 50.0058C101.117 51.4138 101.093 55.3058 101.068 59.4278Z" fill="#043565"/>
</g>
</svg>
