<svg width="106" height="115" viewBox="0 0 106 115" fill="none" xmlns="http://www.w3.org/2000/svg">
<path d="M9.67255 24.7204C8.33523 24.524 12.3822 21.3329 12.6284 21.14C16.5915 18.0352 20.7138 15.0248 25.1565 12.964C27.5904 11.835 29.897 10.3844 32.3641 9.33017C33.8099 8.71237 33.7383 8.8851 32.8189 10.5058C26.2035 22.1668 19.4049 34.0413 11.5597 44.6261C10.5828 45.9442 7.62754 49.9746 10.7185 46.5499C16.4083 40.2456 22.2321 34.2874 28.5898 28.8886C35.4901 23.0289 42.8676 17.3663 50.4173 12.6968C52.6368 11.3241 52.209 12.1727 50.7584 14.1931C40.8539 27.9876 30.1644 41.0329 21.4049 55.9283C19.7171 58.7984 16.7471 62.7442 16.6301 66.4557C16.5424 69.2369 20.0765 64.8651 20.5636 64.3181C27.5688 56.4519 35.2035 49.4249 42.6413 42.1413C47.6193 37.2664 52.3331 32.1262 57.625 27.7129C59.6073 26.0597 60.2755 26.2561 59.1029 29.2626C53.6246 43.3086 46.8971 56.6438 40.7768 70.3032C37.1713 78.3501 33.0551 86.0706 30.4542 94.6711C30.2541 95.3328 28.8349 98.6721 29.3856 99.4271C30.1508 100.476 34.8833 94.7803 35.138 94.4841C42.6767 85.7183 49.201 75.9561 56.8974 67.3374C61.1478 62.5776 65.3341 57.6419 69.8348 53.203C70.1086 52.9329 72.5683 50.1156 73.018 51.1723C73.3989 52.0678 72.9519 53.86 72.8133 54.6993C71.8309 60.6494 70.3675 66.4041 68.607 72.0934C66.6395 78.4516 64.9071 84.9122 62.9 91.251C61.9616 94.2146 61.2605 96.3092 63.9686 92.9611C74.718 79.6712 81.2594 61.734 93.7314 50.2639C95.8308 48.3332 96.12 49.0704 96.0051 51.9739C95.6585 60.7301 91.7706 69.683 89.7524 77.9983C87.559 87.0359 84.5684 96.4803 84.5684 106" stroke="#F5F6F8" stroke-width="18" stroke-linecap="round"/>
<path d="M72.5093 66.8825C72.0845 66.6388 71.6413 66.4888 71.1796 66.3763C70.8656 63.5825 70.5331 60.77 70.33 57.9575C71.4012 58.0888 72.417 58.37 73.3035 58.8387C74.467 59.4575 75.372 57.6012 74.2085 56.9825C73.1188 56.4012 71.7152 56.0263 70.2007 55.895C70.1638 55.1075 70.1453 54.3012 70.1453 53.5137C70.1453 52.1825 68.1137 52.3512 68.1137 53.6637C68.1137 54.395 68.1322 55.1262 68.1691 55.8575C67.338 55.895 66.5069 56.0075 65.7127 56.195C65.6943 55.5575 65.6943 54.9012 65.7127 54.2637C65.7497 52.9325 63.7181 53.1013 63.6811 54.4138C63.6627 55.22 63.6627 56.045 63.6996 56.8513C61.354 57.8825 59.6179 59.7013 59.5441 62.4575C59.5071 64.1638 60.1166 66.0012 61.4464 67.1075C62.4252 67.9137 63.6627 68.195 64.9001 68.27C65.0109 69.1138 65.1032 69.9575 65.1771 70.8013C65.3803 72.9388 65.2325 74.9638 65.1402 77.0825C65.1402 77.1763 65.1402 77.27 65.1217 77.3825C64.6785 77.2888 64.2352 77.1575 63.7919 76.9888C63.6073 76.745 63.3302 76.5762 62.9608 76.5762H62.5915C61.5387 76.5762 61.391 78.0762 62.2221 78.5262C63.1455 79.0325 64.1429 79.3513 65.1402 79.5013C65.2141 80.5325 65.4172 81.545 65.8974 82.4825C66.4884 83.6637 68.1691 82.5013 67.5781 81.32C67.3195 80.795 67.1902 80.2137 67.1348 79.5762C67.7443 79.5387 68.3538 79.4638 68.9633 79.3138C69.3511 79.22 69.739 79.1075 70.1453 78.9763C70.3115 80.4013 70.5516 81.7888 70.9579 83.1763C71.2904 84.3575 72.9341 83.87 72.9341 82.7637V82.0137C72.9341 81.6575 72.7864 81.4137 72.5647 81.2637C72.3431 80.2325 72.1769 79.2012 72.0661 78.1512C73.0819 77.5887 74.0238 76.8762 74.7071 75.995C77.0342 73.0325 75.5937 68.6075 72.5093 66.8825ZM62.8685 65.645C61.6311 64.9138 61.391 62.8888 61.7234 61.6138C61.982 60.545 62.9054 59.72 63.8474 59.195C64.032 61.5575 64.346 63.92 64.66 66.2825C64.032 66.17 63.441 65.9825 62.8685 65.645ZM65.8235 58.3513C66.6177 58.1263 67.4488 57.9762 68.2799 57.9012C68.4646 60.6762 68.7786 63.4325 69.0926 66.1888C68.2984 66.2075 67.5042 66.2825 66.7101 66.32C66.3776 63.6763 66.0082 61.0325 65.8235 58.3513ZM67.1348 77.5513C67.1533 77.1575 67.1902 76.7825 67.2087 76.4263C67.3195 74.345 67.3934 72.395 67.1903 70.3138C67.1164 69.6388 67.0425 68.9825 66.9686 68.3075C67.7443 68.2512 68.557 68.1763 69.3511 68.195C69.3881 68.4575 69.4065 68.7388 69.4435 69.0013C69.7205 71.6075 69.7759 74.27 69.9606 76.895C69.0372 77.27 68.0768 77.495 67.1348 77.5513ZM71.8814 75.845C71.7336 73.5013 71.6967 71.1388 71.4566 68.8325C71.4566 68.7575 71.4381 68.7013 71.4381 68.6263C72.7864 69.2825 73.6544 70.6512 73.8206 72.17C73.9869 73.82 73.0819 74.9825 71.8814 75.845Z" fill="#043565"/>
<path d="M91.3102 52.0696C89.2786 48.6759 86.5267 45.6946 83.1653 43.6134C78.9729 41.0071 73.8385 40.1259 68.9996 40.7259C68.5194 40.7821 68.0392 40.8571 67.5775 40.9509V40.4071C67.5775 39.9571 67.2081 39.6009 66.8018 39.4884C67.0419 39.1884 67.282 38.8696 67.4667 38.5134C68.4086 36.7509 68.5009 34.3696 67.4297 32.6634C68.4455 32.1196 69.1473 31.2009 69.4613 29.9634C69.8676 28.3696 69.8307 26.4009 68.9811 24.9384C69.055 24.8071 69.1104 24.6759 69.1473 24.5259C69.7199 22.7446 67.7437 21.4696 66.377 20.9634C63.7913 20.0259 60.7624 20.0821 58.0474 20.0446C55.7203 20.0071 53.3932 20.0259 51.0846 19.8571C48.5728 19.6696 46.0795 19.4259 43.5677 19.2009C39.7631 18.8821 35.9585 18.9009 32.1354 18.7884C28.7186 18.6946 21.3494 18.2821 20.2413 22.6509C18.8377 23.5134 18.339 25.2009 18.1728 26.8134C17.9881 28.4821 18.0989 30.2634 19.1516 31.6134C17.4709 33.5259 18.1174 37.1821 19.1701 39.2446C19.3363 39.5634 19.5395 39.8446 19.7796 40.1071C18.5052 41.5134 18.6899 44.8321 18.93 46.3321C19.0593 47.1384 19.3178 47.8134 19.6872 48.3759C19.0962 49.0321 18.7453 49.8571 18.4867 50.7009C18.062 52.0696 18.1174 53.6634 18.3944 55.0884C16.8984 55.2946 15.4578 55.9509 14.1465 56.6634C12.8352 57.3946 11.3946 58.6134 11.1361 60.1884C11.0252 60.8634 11.173 61.4446 11.487 61.9134C10.896 64.9509 10.6005 68.9821 12.8721 71.2696C13.3339 71.7384 13.9249 72.0759 14.5344 72.3196C14.0726 75.3946 13.7956 78.4696 16.566 80.5321C17.9142 81.5259 19.5395 82.1634 21.2202 82.5571C20.5183 83.1571 20.4445 84.1696 20.5553 85.1259C20.6846 86.2884 20.9801 87.6571 21.5341 88.6884C23.1409 91.7259 26.9271 92.4759 29.993 92.8696C34.167 93.3946 38.4148 93.4134 42.6073 92.9821C46.8921 92.5509 50.9553 91.3884 55.037 90.0196C55.3694 89.9071 55.5541 89.7009 55.6465 89.4571C56.6623 90.0196 57.6965 90.5446 58.7493 90.9946C63.8467 93.1884 69.5537 93.8071 74.8543 92.5696C75.0944 92.8696 75.4637 93.0196 75.9255 92.8509C84.1442 89.6446 92.4368 84.7134 95.1517 75.6384C97.4973 67.8384 95.3918 58.8759 91.3102 52.0696ZM22.1251 23.5321C22.1436 22.4071 23.2333 21.8634 24.1383 21.5259C25.5789 21.0009 27.1672 20.9071 28.6817 20.8321C30.1407 20.7759 31.5813 20.8134 33.0403 20.8509C35.312 20.9259 37.6022 20.8509 39.8739 20.9634C42.8843 21.1321 45.8948 21.4509 48.8868 21.7134C51.768 21.9571 54.6122 22.0509 57.5118 22.0696C58.9339 22.0696 60.3561 22.1071 61.7597 22.2196C63.1264 22.3321 64.6409 22.4446 65.9152 22.9696C66.2108 23.1009 67.2635 23.5509 67.1896 23.9634C67.1527 24.1696 66.5432 24.3946 66.4139 24.4696C65.7121 24.7884 64.9179 24.9571 64.1792 25.1071C60.7809 25.7821 57.2533 25.4071 53.818 25.2196C50.0873 25.0134 46.3565 25.3321 42.6258 25.3696C38.8581 25.4071 35.1458 25.4821 31.3781 25.1634C28.2384 24.9009 25.1356 24.4696 22.0328 23.8884C22.1067 23.8134 22.1251 23.6821 22.1251 23.5321ZM20.4445 25.7259C26.0406 26.8134 31.7106 27.4509 37.399 27.5446C43.2722 27.6384 49.1269 27.0196 55 27.3571C57.7889 27.5071 60.5962 27.6946 63.385 27.3384C64.5301 27.1884 66.1738 26.9821 67.4297 26.3446C67.9838 27.7696 67.836 30.1696 66.4878 30.8446C65.6751 31.2384 64.7332 31.3321 63.8467 31.4446C62.7386 31.5946 61.6489 31.8384 60.5408 32.0259C57.6965 32.5134 54.8154 32.6446 51.9526 32.6821C48.9607 32.7384 45.9871 32.7759 42.9952 32.8884C40.0032 32.9821 37.0112 33.0196 34.0377 32.7946C31.1565 32.5696 28.4416 31.8196 25.5973 31.2946C24.4707 31.0884 23.3441 31.0509 22.2175 30.8821C21.294 30.7509 20.6476 30.4696 20.3336 29.5321C19.9273 28.4446 20.0381 26.9259 20.4445 25.7259ZM46.652 50.4196C44.8421 50.5134 43.0321 50.5696 41.2037 50.6259C37.1405 50.7384 33.0588 50.7759 29.0326 50.1946C27.2595 49.9321 25.4311 49.5759 23.7504 48.9571C23.3626 48.8071 22.9932 48.6571 22.6423 48.4509C22.5499 47.9821 22.199 47.5509 21.608 47.5509C21.5895 47.5509 21.5711 47.5509 21.5526 47.5509C21.4603 47.4384 21.3679 47.3071 21.294 47.1759C20.7769 46.2946 20.8323 45.0759 20.8692 44.0821C20.8877 43.5196 20.9247 42.9759 21.017 42.4321C21.0539 42.2259 21.0909 42.0009 21.1832 41.7946C21.294 41.5134 21.4418 41.5509 21.2202 41.5696C21.3679 41.5509 21.4972 41.5134 21.6265 41.4571C22.2544 41.7759 22.9008 42.0384 23.5103 42.2446C25.7081 43.0134 27.9983 43.3134 30.3069 43.5009C35.7368 43.9696 41.1298 44.1946 46.5782 43.7634C49.4963 43.5384 52.3959 43.1634 55.2955 42.7696C57.9181 42.4134 60.5777 42.1134 63.1634 41.5509C64.0314 41.3634 64.844 41.0634 65.5643 40.6321V41.4759C61.9444 42.4696 58.4907 44.2884 55.6649 46.7071C54.5937 47.6259 53.5964 48.6571 52.6914 49.7446C52.4698 49.4446 52.1004 49.3134 51.6387 49.5196C50.0688 50.2134 48.3512 50.3259 46.652 50.4196ZM51.0107 51.9009C49.7364 53.7384 48.6467 55.7071 47.6678 57.7134C47.4277 58.2196 47.1876 58.7071 46.966 59.2134C46.9106 59.2509 46.8552 59.2696 46.7998 59.3259C45.7101 60.1321 44.288 60.2821 42.9767 60.3946C41.4807 60.5071 39.9847 60.5071 38.4887 60.6196C35.1458 60.9009 31.766 60.9009 28.4785 60.1321C26.8902 59.7571 25.3942 59.1384 23.9905 58.3134C23.0117 57.7321 21.9405 57.3196 21.1278 56.5134C20.4075 55.7821 20.3152 54.4884 20.2598 53.5509C20.1674 52.1821 20.3891 50.9259 21.1648 49.8759C22.4206 50.7571 24.0459 51.2446 25.5973 51.6196C30.1776 52.7446 34.9611 52.8196 39.6338 52.7259C41.8316 52.6884 44.011 52.5946 46.2088 52.5009C47.8156 52.4259 49.4593 52.3509 51.0107 51.9009ZM63.8837 39.1509C62.9787 39.5259 61.9629 39.6384 61.0025 39.8071C59.5065 40.0509 58.0105 40.2571 56.533 40.4634C50.7337 41.3071 44.879 41.9821 39.0058 41.9259C36.4017 41.9071 33.7976 41.6634 31.2119 41.4759C28.9033 41.2884 26.5947 41.0259 24.3784 40.3509C22.79 39.8634 21.2202 39.1321 20.6107 37.5196C20.112 36.2071 19.9089 34.4446 20.5553 33.1696C20.6291 33.0196 20.74 32.8884 20.8877 32.7946C22.2544 33.2259 23.972 33.1509 25.191 33.3571C28.0352 33.8446 30.7317 34.6321 33.6314 34.8571C39.5415 35.3446 45.47 34.8384 51.3801 34.7821C54.2613 34.7634 57.1609 34.6321 60.0052 34.2196C61.1133 34.0509 62.1845 33.7696 63.2926 33.6196C64.0499 33.5071 64.7886 33.4321 65.5459 33.2821C65.5643 33.4509 65.6013 33.6196 65.7121 33.7884C66.9126 35.6071 65.8044 38.3634 63.8837 39.1509ZM14.8483 58.6321C16.0673 57.8446 17.6002 57.2071 19.0593 57.0946C19.4656 57.8071 20.0751 58.3884 20.7769 58.8571C22.236 59.8321 23.8982 60.7134 25.5234 61.3509C29.2911 62.8509 33.4467 62.9821 37.436 62.7571C39.2459 62.6446 41.0374 62.5509 42.8474 62.4571C44.1033 62.3821 45.4331 62.2321 46.6151 61.7446C46.5412 61.9696 46.4673 62.2134 46.3935 62.4571C46.1718 63.1696 46.0426 63.8821 45.9133 64.6134C45.7286 64.3509 45.4515 64.1821 45.0452 64.2196C40.5388 64.5196 36.1062 65.1009 31.5813 64.9884C27.2041 64.8759 22.7346 64.2384 18.5976 62.7571C17.6372 62.4196 16.6398 62.2134 15.661 61.9509C15.033 61.7821 14.165 61.5571 13.574 61.1259C13.5001 60.9196 13.3339 60.7509 13.1307 60.6384C12.983 60.0384 14.3312 58.9884 14.8483 58.6321ZM15.0515 70.2759C13.7771 69.6759 13.4447 68.4571 13.26 67.1446C13.0753 65.8696 13.1492 64.5759 13.3339 63.3009C14.4974 63.8259 15.8826 64.1259 16.7691 64.3509C18.4313 64.7821 20.0751 65.4009 21.8481 65.8321C24.3414 66.4321 26.9086 66.7696 29.4574 66.9384C32.043 67.1071 34.6472 67.1634 37.2328 66.9946C39.8924 66.8071 42.5519 66.4696 45.2114 66.3009C45.2853 66.3009 45.3592 66.2821 45.4146 66.2634V66.2821C45.3407 68.1946 45.2669 70.1446 45.3407 72.0946C43.8263 72.0946 42.3303 72.3384 40.8343 72.5634C38.9874 72.8446 37.2144 72.8259 35.349 72.7509C31.3781 72.5634 27.3888 72.5259 23.4364 72.0384C21.7558 71.8321 20.112 71.4759 18.4498 71.1759C17.2863 70.9321 16.1042 70.7821 15.0515 70.2759ZM18.8561 79.5009C17.6741 78.9384 16.7322 78.1134 16.3443 76.8196C15.9749 75.5821 16.3074 74.1384 16.529 72.8821C18.0804 73.2196 19.6688 73.5196 21.2386 73.7821C25.468 74.4946 29.7898 74.5696 34.0561 74.7196C36.1616 74.7946 38.2117 74.9634 40.3172 74.6821C42.0348 74.4571 43.7339 74.1196 45.47 74.1196C45.6732 76.1821 46.0795 78.2259 46.8552 80.1384C46.7813 80.1571 46.7259 80.1571 46.652 80.1946C45.3777 80.6446 43.9925 80.6821 42.6627 80.7946C41.019 80.9259 39.3752 81.1321 37.7315 81.1884C36.1062 81.2446 34.4994 81.0759 32.8741 81.0759C31.0642 81.0759 29.2542 81.1321 27.4442 81.1134C24.5076 81.1134 21.5341 80.7946 18.8561 79.5009ZM44.1772 90.7321C40.6496 91.2384 37.0481 91.3509 33.5021 91.1446C30.5655 90.9571 27.278 90.7884 24.7293 89.1759C23.7319 88.5571 23.3072 87.6571 22.9932 86.5696C22.8454 86.0446 22.7162 85.5196 22.6423 84.9571C22.6053 84.6946 22.5869 84.4509 22.6053 84.1884C22.6053 84.1321 22.6053 84.0946 22.6238 84.0759C23.0117 83.7759 23.104 83.2696 22.9747 82.8571C23.8058 82.9884 24.6369 83.0634 25.4311 83.1009C27.3704 83.2134 29.2911 83.1759 31.2304 83.1384C33.225 83.1009 35.2197 83.2509 37.2143 83.2509C39.0058 83.2321 40.7604 83.0259 42.5519 82.8571C44.1587 82.7259 45.8025 82.6696 47.3354 82.1259C47.4831 82.0696 47.6124 81.9946 47.7048 81.9009C47.7786 82.0321 47.8525 82.1446 47.9264 82.2759C49.367 84.7134 51.454 86.6821 53.7996 88.2571C50.6229 89.3446 47.4831 90.2634 44.1772 90.7321ZM73.9862 90.7134C69.646 91.6321 65.0841 91.1634 60.9286 89.6446C56.7546 88.1259 52.636 85.5946 50.0319 81.8821C47.2615 77.9259 47.1692 72.8259 47.3354 68.0821C47.3539 68.0259 47.3908 67.9509 47.3908 67.8759C47.6494 66.7321 47.7232 65.5509 47.9633 64.3884C48.2034 63.2634 48.5359 62.1759 48.9607 61.1259C49.7548 59.1196 50.863 57.2446 52.2112 55.5759C54.9446 52.1821 58.7123 49.8009 62.8679 48.6571C72.1763 46.0884 82.1126 51.0009 87.5979 58.7259C93.0647 66.4321 91.1809 76.9134 85.3447 83.7946C82.4081 87.2821 78.4557 89.7571 73.9862 90.7134ZM92.9724 75.8446C92.0859 78.5071 90.6084 80.7571 88.7615 82.6884C92.4183 77.1759 93.9328 70.2571 92.1967 63.7321C90.9962 59.1946 88.0227 55.3884 84.532 52.3884C80.9306 49.2946 76.535 47.0634 71.8808 46.2009C65.9707 45.0946 59.6912 46.7446 54.8523 50.2884C55.2771 49.8196 55.7019 49.3696 56.1636 48.9196C59.7096 45.4884 64.6224 43.3509 69.4613 42.7509C74.2263 42.1696 79.2314 43.2759 83.1838 46.0696C86.4344 48.3571 88.8907 51.6384 90.7007 55.1821C93.8589 61.2946 95.2256 69.1884 92.9724 75.8446Z" fill="#043565"/>
<path d="M87.2848 62.832C87.0447 62.007 86.6015 61.2945 86.1213 60.6008C85.7519 60.0758 85.2347 59.532 85.0685 58.8945C84.7361 57.6008 82.8153 58.2945 83.1477 59.5695C83.5356 61.0508 84.9392 62.0258 85.364 63.507C85.7149 64.8008 87.6357 64.107 87.2848 62.832ZM88.4299 69.4695C88.4114 68.1383 86.3798 68.307 86.3983 69.6195C86.4168 70.332 86.7861 71.6445 86.2875 72.2258C85.4194 73.2195 86.9524 74.5883 87.8204 73.5945C88.8362 72.4508 88.4668 70.8758 88.4299 69.4695ZM50.4575 62.682C49.3863 64.182 49.2016 66.4695 49.7003 68.2133C50.0697 69.4883 51.9905 68.8133 51.6211 67.5383C51.344 66.5633 51.381 64.9133 51.972 64.0508C52.7477 62.982 51.2332 61.6133 50.4575 62.682ZM53.3572 77.982C52.6369 76.6883 51.9166 75.3008 51.8612 73.8008C51.8058 72.4695 49.7926 72.6383 49.8296 73.9508C49.9035 75.807 50.7715 77.5508 51.658 79.1445C52.3229 80.2883 54.0036 79.1258 53.3572 77.982ZM60.9479 85.8383C59.8029 84.732 58.3623 84.1133 57.0694 83.2133C55.9982 82.4633 54.65 84.0008 55.7212 84.7695C56.9956 85.6695 58.4731 86.2883 59.5997 87.3945C60.5601 88.3133 61.8899 86.757 60.9479 85.8383ZM71.0875 86.907H66.4702C65.1589 86.907 65.3251 88.9695 66.6179 88.9695H71.2352C72.565 88.9508 72.3988 86.907 71.0875 86.907ZM83.0739 78.5633C82.6306 78.3383 81.8918 78.4883 81.7072 79.032C81.3193 80.1383 80.6175 81.732 79.5093 82.2758C78.3458 82.8383 78.9922 84.7883 80.1742 84.2258C81.818 83.4383 82.9261 81.6758 83.5171 79.9695C83.7203 79.4258 83.6095 78.8445 83.0739 78.5633ZM59.1934 52.4633C57.1249 53.0258 55.5919 54.8445 54.1513 56.3258C53.2279 57.2633 54.7608 58.632 55.6843 57.6945C56.9032 56.457 58.1407 54.882 59.8767 54.432C61.1326 54.057 60.4678 52.1258 59.1934 52.4633ZM72.9528 51.1508C71.6415 50.1383 70.1271 50.2695 68.668 49.6883C67.4491 49.2008 66.5441 51.057 67.763 51.5445C68.9635 52.0133 70.5703 51.9008 71.6046 52.707C72.6573 53.5133 73.9871 51.957 72.9528 51.1508ZM81.5594 56.082C81.0423 54.657 79.8048 53.7383 78.6782 52.8383C77.6624 52.0133 76.3142 53.5508 77.33 54.3945C78.1426 55.0508 79.2508 55.7445 79.6202 56.7758C80.0819 58.0133 82.0027 57.3383 81.5594 56.082Z" fill="#043565"/>
</svg>
