<svg width="123" height="124" viewBox="0 0 123 124" fill="none" xmlns="http://www.w3.org/2000/svg">
<path d="M94.6207 49.9547C94.4019 48.5602 94.0874 47.0289 93.2124 45.8805C92.5835 45.0465 91.7085 44.8688 90.8472 45.1149C90.6968 43.5973 90.2183 41.984 88.7964 41.3414C87.7164 40.8629 86.9234 41.3551 86.3902 42.1344C86.3218 41.7926 86.2261 41.4508 86.1167 41.109C85.5835 39.5778 83.9156 37.9781 82.2886 39.1539C81.3453 39.8239 81.0035 40.9723 80.5523 41.984C80.525 42.066 80.4839 42.1344 80.4566 42.2164C80.2105 41.5602 79.814 40.8903 79.1167 40.7262C77.9957 40.4664 77.0523 41.4508 76.5601 42.3395C75.8355 43.652 75.7945 45.2242 75.6851 46.6871C75.5621 48.2457 75.1519 49.7633 74.9468 51.3082C74.7144 53.0856 74.564 54.8629 74.3179 56.6403C73.9898 59.1012 73.4566 61.5758 72.2125 63.7223C71.8707 63.5582 71.5152 63.4078 71.2007 63.1754C70.6949 62.8063 70.4488 62.3004 70.3667 61.6989C70.2027 60.4957 70.7085 59.1969 70.8589 58.0211C71.023 56.6676 70.7769 55.3688 70.025 54.234C69.5328 53.4957 68.7261 52.9352 67.8238 53.3043C67.0171 53.6324 66.5386 54.4938 66.1558 55.2321C65.6773 56.1481 65.3355 57.1461 65.0484 58.1442C64.2964 60.6598 63.9683 63.2711 64.5562 65.8688C64.9527 67.6188 65.7183 69.2867 66.4292 70.9274C66.8667 71.9528 67.2906 72.9508 67.4957 74.0582C67.7007 75.111 67.7007 76.1774 67.605 77.2438C67.4273 79.1031 66.8667 80.9215 66.3199 82.6989C65.8003 84.3258 65.2671 86.0758 65.5542 87.7985C65.6636 91.9137 76.232 96.1383 78.939 94.0602C79.2808 94.1559 79.65 94.0328 79.7867 93.609C80.3335 91.859 80.771 90.0817 81.3726 88.359C81.6871 87.4567 82.0562 86.568 82.521 85.7203C82.7398 85.3239 82.9722 84.9547 83.232 84.5856C83.355 84.4078 83.4781 84.2438 83.6011 84.066C83.8062 84.1207 84.0386 84.0934 84.2574 83.9293C86.9781 81.7692 88.7691 78.4742 90.0953 75.3297C91.6812 71.5426 93.0074 67.6188 93.9234 63.6129C94.9214 59.0739 95.3316 54.5485 94.6207 49.9547ZM89.5484 72.5406C88.2359 75.9723 86.6636 79.691 83.9019 82.2203C83.6968 82.0836 83.4507 82.0426 83.2183 82.1793C82.9039 82.3707 82.6714 82.6305 82.521 82.9586C82.316 83.4098 81.8785 83.8336 81.6187 84.2574C81.0718 85.1188 80.6343 86.0485 80.2652 86.9918C79.6089 88.6188 79.1714 90.3278 78.6792 92.0094C78.3648 92.0367 78.064 92.2555 78.0503 92.6656C78.0367 92.9117 78.0503 92.8024 78.0093 92.8571C78.0093 92.8707 77.9957 92.8707 77.9957 92.8707C77.982 92.8707 77.9683 92.8844 77.9273 92.9117C77.9 92.9391 77.9136 92.9254 77.7496 92.9938C77.5035 93.1031 76.9566 93.1168 76.5464 93.0895C75.1792 93.0074 73.8394 92.5699 72.5679 92.0914C71.1871 91.5582 69.8472 90.8746 68.6714 89.9723C68.2066 89.6168 67.7691 89.2203 67.4136 88.7418C67.1675 88.4137 67.0308 88.0035 67.0308 87.7574C67.0308 87.6891 67.0308 87.6207 67.0171 87.5524C66.73 85.8844 67.4136 84.1617 67.9058 82.5895C68.4664 80.8121 68.9449 78.9528 69.1089 77.0934C69.3003 75.0699 68.9449 73.0465 68.1656 71.1735C67.441 69.4508 66.607 67.7555 66.1148 65.9508C65.4039 63.3531 65.773 60.8375 66.5113 58.4039C66.7984 57.4469 67.1402 56.4762 67.6187 55.6012C67.7964 55.2867 68.0152 54.9723 68.2476 54.7672C68.398 54.6305 68.3296 54.6852 68.398 54.6715C68.4117 54.6715 68.4253 54.6578 68.4253 54.6578C68.4253 54.6578 68.439 54.6852 68.48 54.7125C69.1226 55.15 69.396 56.3531 69.4097 57.1051C69.4234 58.1989 69.0953 59.2653 68.9312 60.3317C68.7808 61.3434 68.8082 62.4098 69.3414 63.3121C69.6285 63.7906 70.025 64.1735 70.4761 64.5016C70.9546 64.8434 71.5699 64.9801 72.021 65.3492C72.3355 65.5953 72.855 65.486 73.0738 65.1715C75.0289 62.2321 75.6031 58.7047 75.9996 55.2594C76.2046 53.4957 76.3687 51.7184 76.6558 49.9547C76.7789 49.2438 76.9703 48.5602 77.0796 47.8492C77.189 47.0836 77.2164 46.2906 77.2847 45.525C77.3804 44.4176 77.5582 42.7906 78.6656 42.1891C78.6792 42.1754 78.6929 42.1754 78.7066 42.1617C78.7203 42.1754 78.7886 42.2301 78.8707 42.3258C79.0621 42.5856 79.1851 43.0778 79.2671 43.4332C79.4859 44.3629 79.5679 45.3336 79.5269 46.277C79.4859 47.6852 79.4449 49.1071 79.2398 50.5016C79.0621 51.7321 78.7476 52.9215 78.2417 54.0563C77.8453 54.9449 79.2535 55.4508 79.65 54.5758C80.7847 52.0328 81.0445 49.0934 81.0171 46.318C81.3042 46.1949 81.5093 45.9215 81.4273 45.525C81.1949 44.4586 81.5367 43.4469 81.9468 42.4625C82.2339 41.7653 82.4937 40.7125 83.191 40.2887C84.3257 39.6051 84.941 42.3942 85.0093 42.9821C85.2691 45.1422 84.8589 47.4391 84.4214 49.5582C83.9976 51.5817 83.396 53.5778 82.8082 55.5602C82.6167 55.7106 82.48 55.943 82.521 56.2574L82.5621 56.6676C82.6441 57.4059 83.7925 57.4879 84.0113 56.7906C84.8042 54.1246 85.5972 51.4723 86.1167 48.7379C86.3765 47.3844 86.5953 45.9352 86.6089 44.4996C86.896 44.4313 87.1421 44.2262 87.2242 43.8844C87.3062 43.5153 87.4703 42.7496 87.9214 42.6403C88.2632 42.5582 88.5914 43.0094 88.7691 43.2281C89.2749 43.8844 89.3296 44.8824 89.398 45.6754C89.48 46.6871 89.3843 47.7125 89.3707 48.7242C89.357 49.5992 89.1792 50.5153 89.0699 51.3903C88.9605 52.3746 88.8238 53.3453 88.6734 54.3297C88.4273 55.8746 88.1128 57.4059 87.6617 58.9098C87.4019 59.0465 87.2105 59.3199 87.2515 59.6754L87.3199 60.2907C87.4019 61.0426 88.5367 61.0973 88.7691 60.4137C89.5347 58.1578 89.9859 55.8199 90.3277 53.4821C90.6558 51.2125 90.9292 48.943 90.9292 46.6598C90.9292 46.6598 90.9292 46.6598 90.9429 46.6598C91.066 46.5778 91.2027 46.5231 91.3394 46.4821C91.3257 46.4821 91.5445 46.4547 91.5171 46.4547C91.6675 46.4547 91.8042 46.5231 91.941 46.6598C92.4058 47.1246 92.6519 47.8903 92.8296 48.5875C93.3492 50.5153 93.4722 52.566 93.5132 54.5485C93.5953 60.7145 91.7222 66.8531 89.5484 72.5406ZM63.9957 86.6774C62.5328 83.2594 60.4546 80.0465 59.8121 76.3278C59.4976 74.5231 59.8394 72.7184 60.0855 70.9137C60.3316 69.0953 60.441 67.2906 60.2769 65.4586C60.1949 64.5016 60.0582 63.5582 60.0308 62.6012C60.0035 61.5621 59.9898 60.5231 59.8941 59.484C59.7437 57.8434 59.3062 56.0797 58.2125 54.8082C56.9 53.2906 53.9332 52.4977 52.8531 54.6852C52.2515 55.902 52.6617 57.3922 53.2359 58.5406C53.605 59.2789 54.0699 59.9762 54.2339 60.7965C54.3707 61.4801 54.0562 62.5192 53.2222 62.4508C52.0464 62.3551 51.4312 60.5504 51.1031 59.6617C50.6109 58.3082 50.3238 56.859 50.064 55.4371C49.7632 53.8512 49.3531 52.2789 49.1753 50.6793C48.9703 48.8336 49.271 47.111 49.8179 45.361C50.1871 44.1852 50.6109 42.8453 50.1187 41.6422C49.7359 40.6852 48.7925 40.4664 47.9175 40.6715C47.9722 39.8785 47.7945 39.0446 47.316 38.566C46.4546 37.7184 45.1968 38.2926 44.3218 38.7985C44.021 38.9762 43.7476 39.1676 43.4878 39.3727C43.4195 39.3453 43.3375 39.3317 43.2417 39.3453C39.4 39.4 37.1988 43.9528 36.1187 47.0563C35.8179 47.9313 35.5855 48.8063 35.4351 49.6949C33.398 50.2282 32.8511 53.4821 32.5367 55.2047C32.0035 58.1305 32.0035 61.2203 32.3042 64.1598C32.482 65.9235 32.8375 67.6598 33.4664 69.3141C34.1773 71.2145 35.3257 73.0328 36.3375 74.7965C37.3902 76.6285 38.4976 78.4196 39.646 80.1832C40.6167 81.6735 41.7378 83.0953 42.5582 84.6813C44.6636 88.6871 46.2906 95.4547 52.0601 95.1266C54.5484 94.9899 56.9683 93.7594 59.0191 92.4196C60.6597 91.3395 62.5601 89.7262 63.107 87.7301C63.6128 87.8531 64.2691 87.3336 63.9957 86.6774ZM61.7261 86.8141C61.6441 87.8395 60.9742 88.7281 60.2906 89.4391C59.3472 90.4098 58.2125 91.2028 57.0503 91.8727C55.0816 92.9801 52.5113 94.1422 50.2417 93.3766C47.7125 92.5153 46.482 89.6989 45.4703 87.4567C44.9234 86.2262 44.4039 84.9684 43.7613 83.7789C42.9136 82.193 41.7652 80.7438 40.7808 79.2399C38.9488 76.4235 37.2535 73.525 35.6949 70.5582C34.3414 67.9742 33.8082 65.2535 33.6441 62.3551C33.521 60.1266 33.6167 57.8297 33.9722 55.6285C34.1226 54.6442 34.3687 53.6598 34.7105 52.7301C34.7925 52.525 34.9566 52.1012 35.148 51.7594C34.8746 55.0953 35.3257 58.4723 35.6949 61.8219C35.8042 62.7789 37.2808 62.5055 37.1714 61.5485C36.6792 57.1051 36.0093 52.5934 37.3082 48.2321C37.8003 46.5778 38.525 44.9781 39.4957 43.5426C40.0562 42.6949 40.8492 41.7242 41.8062 41.2184C41.1089 42.2438 40.6167 43.4059 40.2203 44.5817C39.4 47.0426 39.0445 49.6676 38.8531 52.2379C38.7574 53.4 38.7027 54.5758 38.6753 55.7516C38.6343 57.0914 38.6617 58.5953 39.5093 59.7028C40.0972 60.4684 41.2457 59.4977 40.6578 58.7321C40.0835 57.9801 40.1519 56.7633 40.1656 55.8746C40.1792 54.9039 40.2476 53.9469 40.3023 52.9762C40.4253 50.9117 40.6714 48.8473 41.1363 46.8375C41.6011 44.8824 42.271 42.8864 43.5699 41.3141C44.1578 40.6031 44.9781 40.0836 45.8257 39.7418C45.9351 39.7008 46.0718 39.6598 46.1812 39.6598C46.2906 39.6598 46.2085 39.5641 46.2632 39.7418C46.4 40.1656 46.4683 40.9586 46.2222 41.3551C46.1128 41.5328 46.0718 41.7242 46.1128 41.8883C45.1832 42.9957 44.6089 44.6227 44.2671 45.8942C43.898 47.2614 43.939 48.7106 43.8433 50.1188C43.7613 51.5407 43.146 52.9762 43.775 54.3434C44.1714 55.2321 45.5386 54.5758 45.1285 53.7008C44.7457 52.8532 45.1695 51.8551 45.2789 50.9801C45.4019 49.941 45.3882 48.8883 45.4703 47.8492C45.566 46.4547 46.0035 45.0875 46.6734 43.8707C46.8648 43.5289 48.2183 41.3278 48.7378 42.3395C48.9566 42.7633 48.7652 43.4606 48.6695 43.8981C48.5191 44.4996 48.3277 45.0875 48.1363 45.6754C47.0015 49.1617 47.9585 52.6071 48.6285 56.0797C48.9019 57.5289 49.2437 58.9645 49.7359 60.3453C50.1324 61.4801 50.7066 62.6832 51.7046 63.4215C53.0035 64.3785 54.7671 64.0778 55.4371 62.5602C56.2164 60.8102 55.273 59.2926 54.4937 57.7477C54.1382 57.0504 53.6324 55.4782 54.5757 54.9723C55.314 54.5895 56.3257 55.0953 56.8589 55.6012C58.0757 56.7496 58.3218 58.691 58.4449 60.2633C58.5132 61.2477 58.5132 62.2321 58.5543 63.2028C58.5953 64.2281 58.7593 65.2262 58.8414 66.2379C59.1148 69.8746 57.7066 73.4293 58.4039 77.0524C59.0328 80.3199 60.7417 83.2321 62.1363 86.2262C61.9312 86.3082 61.7535 86.5133 61.7261 86.8141ZM68.9585 38.484C68.521 34.109 65.3082 31.2242 61.9996 28.736C61.6851 28.5035 61.2066 28.4625 60.9332 28.8043C58.3628 32.1813 55.9703 36.1324 57.0093 40.5211C57.3921 42.1344 58.1031 43.816 58.8277 45.3063C59.4429 46.5641 60.2632 47.9313 61.521 48.6285C61.2886 49.777 61.0562 50.9254 61.1519 52.1285C61.2203 53.0992 62.6558 52.9762 62.6558 52.0192V51.4039C62.6558 51.3492 62.6558 51.2946 62.6421 51.2399C62.6558 50.5016 62.7789 49.7633 62.9156 49.025C62.9293 49.0114 62.9429 49.0114 62.9429 49.0114C63.066 48.9293 63.148 48.8336 63.2027 48.7379C63.2984 48.6696 63.3804 48.5875 63.4351 48.5328C63.8453 48.15 64.3511 47.8356 64.775 47.4664C65.7046 46.6871 66.6617 45.8531 67.4273 44.8961C68.9175 43.0504 69.191 40.7672 68.9585 38.484ZM66.0464 44.1989C65.3218 45.0465 64.4332 45.8121 63.5718 46.5094C63.5035 46.5641 63.4214 46.6324 63.3531 46.6871C63.4214 46.277 63.4625 45.8531 63.4761 45.443C63.5855 43.0504 63.6812 40.6715 63.6812 38.2653C63.6812 37.2946 62.1773 37.4176 62.1773 38.3746C62.1773 39.5094 62.1773 40.6442 62.15 41.7789C62.1226 43.0367 61.9859 44.2946 61.9722 45.5524C61.9585 46.0446 61.9175 46.5231 61.8355 47.0016C61.0835 46.4 60.5777 45.484 60.1675 44.6364C59.525 43.3102 59.0191 41.8883 58.5543 40.4801C57.3511 36.8571 59.5113 33.2203 61.6441 30.3492C64.3648 32.441 66.9488 34.8199 67.4273 38.402C67.7281 40.5211 67.4546 42.5446 66.0464 44.1989Z" fill="#8CE5B5"/>
<path fill-rule="evenodd" clip-rule="evenodd" d="M58.2582 0.0683994C58.2208 0.105978 58.2114 1.62642 58.2374 3.44716L58.2848 6.75752H60.4849H62.685V6.23818V5.719L60.9688 5.8169L59.2525 5.91497L59.2517 4.81168C59.2513 4.20482 59.2033 2.87409 59.1451 1.8542C59.0442 0.0913089 59.0215 0 58.6827 0C58.4867 0 58.2956 0.030821 58.2582 0.0683994ZM64.5684 0.206022C64.5072 0.391277 63.9899 6.07286 63.9919 6.53666C63.9932 6.8363 66.6568 7.00853 67.4831 6.7623C68.9593 6.32273 69.8664 5.12088 69.8735 3.59549C69.8828 1.6017 68.6655 0.49676 66.1029 0.172729C65.3515 0.0777939 64.7142 0 64.6866 0C64.6589 0 64.6056 0.0927922 64.5684 0.206022ZM51.4277 0.926768C50.8671 1.20844 50.4146 1.59181 50.1289 2.02725C49.7481 2.60758 49.6904 2.86321 49.6904 3.97062C49.6904 5.12516 49.7374 5.31322 50.1876 5.95898C50.9625 7.07083 51.7332 7.43986 53.1535 7.37921C54.1488 7.33668 54.4337 7.25395 55.0187 6.83729C56.6553 5.67153 56.937 3.2263 55.6101 1.70256C54.5296 0.461654 52.94 0.166795 51.4277 0.926768ZM67.8 1.426C68.5872 1.8364 68.9223 2.57214 68.8568 3.7468C68.8086 4.60994 68.7245 4.85272 68.3306 5.26757C67.6984 5.93293 66.9496 6.15873 65.8394 6.0188L64.9343 5.90475L65.0321 4.97139C65.0859 4.45798 65.1741 3.44468 65.2282 2.71949C65.3675 0.85293 65.3113 0.931713 66.4054 1.0695C66.9212 1.1346 67.5488 1.29497 67.8 1.426ZM54.2501 1.69202C55.0644 2.1629 55.4932 2.97149 55.4924 4.03539C55.4914 5.51446 54.4731 6.59089 53.0739 6.59204C51.8151 6.59319 50.9014 5.86058 50.5879 4.59907C50.024 2.32838 52.2685 0.5467 54.2501 1.69202ZM73.9138 1.65724C73.8155 2.03615 73.9891 2.13092 75.3937 2.4655C75.8657 2.57791 76.251 2.71817 76.2499 2.77717C76.2489 2.83601 75.9547 4.0316 75.596 5.4337C75.2376 6.8358 74.9442 8.07325 74.9442 8.18335C74.9442 8.37718 75.5565 8.66726 75.6873 8.5354C75.7229 8.49947 76.0614 7.25048 76.4395 5.75971C76.8177 4.26894 77.14 3.02902 77.1561 3.00429C77.1721 2.97974 77.7152 3.08786 78.3632 3.24476C79.3889 3.49298 79.5608 3.49875 79.6921 3.28943C79.7749 3.15724 79.8438 2.97496 79.8449 2.88431C79.8469 2.74141 74.6882 1.31244 74.1869 1.31689C74.0849 1.31772 73.962 1.471 73.9138 1.65724ZM46.1131 1.94715C46.0615 2.03138 46.1926 2.70152 46.4044 3.43628L46.7897 4.77212L45.3917 5.20213C43.1817 5.88184 43.2517 5.90327 42.7962 4.40887C42.488 3.39821 42.3416 3.13153 42.0944 3.13153C41.4539 3.13153 41.4599 3.16598 43.0135 8.37174C43.3879 9.626 43.4508 9.72967 43.7772 9.62864C43.9729 9.56798 44.1559 9.49827 44.1842 9.47354C44.2123 9.44882 44.0719 8.82696 43.8722 8.09171C43.6723 7.35646 43.5392 6.72439 43.5763 6.68697C43.7424 6.51952 46.9226 5.64648 47.0149 5.74306C47.0718 5.8024 47.2858 6.4292 47.4904 7.13594C47.7665 8.08858 47.9228 8.39761 48.0952 8.33086C48.223 8.28142 48.3953 8.24087 48.4779 8.24087C48.7343 8.24087 48.6323 7.75516 47.751 4.77971C47.0174 2.30299 46.8479 1.88831 46.5519 1.8448C46.3621 1.81695 46.1646 1.8631 46.1131 1.94715ZM81.7751 4.11846C80.0971 4.62857 79.0718 6.67115 79.5906 8.47063C80.3037 10.9442 83.5042 11.7683 85.2786 9.9352C86.7041 8.46255 86.7309 6.37201 85.3416 5.02248C84.3724 4.08105 83.0233 3.73921 81.7751 4.11846ZM84.0315 5.09352C85.319 5.68307 85.7937 7.32169 85.0835 8.72527C84.6078 9.66539 83.7972 10.1106 82.7243 10.0209C80.7653 9.85707 79.7659 8.04013 80.6614 6.27032C81.3379 4.93348 82.6678 4.46903 84.0315 5.09352ZM91.0262 8.4024C90.5077 8.61369 89.9821 9.37745 89.9821 9.91954C89.9821 10.621 90.3248 11.171 91.4404 12.2593C92.5269 13.3194 92.7011 13.8794 92.1114 14.4174C91.1718 15.2748 88.9503 13.5561 89.2457 12.2003C89.3284 11.8204 89.2787 11.6869 88.9979 11.5354C88.5636 11.301 88.5487 11.3162 88.4274 12.1203C88.2877 13.0478 88.8545 14.1028 89.8554 14.7772C91.3039 15.7533 92.5391 15.6466 93.1541 14.4922C93.6067 13.6426 93.4167 13.175 92.0176 11.6938C90.73 10.3311 90.5805 9.94492 91.1262 9.3946C91.5396 8.97777 91.9515 8.97827 92.7649 9.39674C93.6196 9.83631 93.9555 10.3772 93.8787 11.1896C93.8324 11.679 93.8893 11.8805 94.1131 12.0216C94.4959 12.2626 94.658 12.1494 94.7749 11.56C94.9346 10.7548 94.6056 9.9586 93.8278 9.26835C92.8585 8.40783 91.809 8.08347 91.0262 8.4024ZM95.532 14.1331C94.5171 15.4701 93.6255 16.6457 93.5508 16.7456C93.4632 16.8626 93.9805 17.364 95.0085 18.1581C97.0049 19.7005 96.9094 19.6497 97.1327 19.2891C97.2973 19.0236 97.168 18.8681 96.0788 18.0225C95.3959 17.4924 94.763 17.01 94.6722 16.9503C94.5349 16.8603 95.0037 16.1079 95.7246 15.2614C95.7955 15.178 96.2614 15.4243 96.7802 15.8192C97.723 16.537 97.7434 16.5386 98.0384 15.9217C98.0576 15.8818 97.7053 15.5711 97.2558 15.2311C96.8063 14.8913 96.4114 14.5919 96.3781 14.5662C96.2883 14.4967 97.5088 12.8558 97.6504 12.8558C97.7172 12.8558 98.3093 13.2767 98.966 13.7913C100.095 14.676 100.172 14.7101 100.384 14.4182C100.507 14.2485 100.552 14.0619 100.485 14.0036C100.003 13.5894 97.5201 11.702 97.4565 11.702C97.4129 11.702 96.5469 12.7961 95.532 14.1331ZM100.047 18.1711L97.821 20.5198L99.4126 22.044C100.829 23.4009 101.031 23.541 101.25 23.3204C101.469 23.0997 101.357 22.9317 100.232 21.7908L98.9688 20.5092L99.7014 19.7842L100.434 19.0593L100.806 19.3725C101.011 19.5445 101.401 19.89 101.673 20.14C102.14 20.5697 102.178 20.578 102.355 20.2908C102.516 20.0316 102.438 19.8826 101.82 19.2714C101.422 18.8779 101.097 18.475 101.097 18.3763C101.097 18.1543 102.276 16.9762 102.498 16.9762C102.587 16.9762 103.097 17.4212 103.631 17.9651C104.651 19.0053 104.917 19.1337 105.092 18.6727C105.171 18.4642 104.848 18.0607 103.843 17.1148C103.097 16.4127 102.438 15.8348 102.38 15.8304C102.321 15.8261 101.272 16.8793 100.047 18.1711ZM16.8583 19.8528C15.6937 20.275 14.6292 21.6608 14.6292 22.7547C14.6292 23.1236 14.7889 23.4333 15.185 23.8326C16.0501 24.705 16.4625 24.6254 18.6058 23.172C19.8428 22.3331 19.9553 22.3031 20.4772 22.6718C20.9623 23.0143 20.9437 23.6689 20.4272 24.4353C19.7804 25.3951 18.6878 25.8079 17.9081 25.3872C17.6865 25.2675 17.5425 25.3057 17.3321 25.5401C17.0642 25.8388 17.0737 25.864 17.5487 26.1117C18.5701 26.6444 19.8353 26.2638 20.8261 25.1261C22.0017 23.7759 21.9316 22.2799 20.6681 21.7521C19.9508 21.4526 19.3542 21.6471 17.8905 22.658C17.1649 23.159 16.4653 23.5689 16.3359 23.5689C15.9889 23.5689 15.4465 22.9609 15.4465 22.5718C15.4465 22.0471 15.8816 21.3236 16.4367 20.9251C16.8426 20.6337 17.0987 20.5778 17.7435 20.6403C18.3709 20.7011 18.6025 20.6544 18.8076 20.426C19.0489 20.157 19.046 20.1214 18.77 19.9755C18.1945 19.6713 17.485 19.6256 16.8583 19.8528ZM106.129 24.2031C104.716 25.2593 103.557 26.1649 103.554 26.2157C103.551 26.2663 103.643 26.4375 103.758 26.5961C103.949 26.8591 104.161 26.7397 106.169 25.2425C107.38 24.3393 108.397 23.6263 108.43 23.6579C108.462 23.6895 107.832 24.7764 107.029 26.0731C106.226 27.3699 105.52 28.5161 105.459 28.6199C105.398 28.7237 105.486 28.98 105.654 29.1892L105.96 29.5697L108.814 28.7944C110.384 28.3679 111.731 28.019 111.809 28.019C111.886 28.019 110.942 28.7661 109.71 29.6792C108.479 30.5923 107.472 31.4361 107.472 31.5543C107.472 31.6726 107.564 31.8432 107.676 31.9335C107.824 32.0524 108.59 31.5685 110.45 30.1819C111.863 29.1284 113.019 28.192 113.019 28.1014C113.018 28.0107 112.854 27.735 112.654 27.4886L112.29 27.0406L109.525 27.7811C108.005 28.1884 106.711 28.5012 106.65 28.4763C106.59 28.4515 107.226 27.3185 108.065 25.9588C108.903 24.599 109.591 23.4466 109.593 23.3978C109.595 23.349 109.394 23.0782 109.147 22.7959L108.698 22.2825L106.129 24.2031ZM12.3499 24.7058C12.255 24.8845 12.1774 25.0669 12.1774 25.1114C12.1774 25.1559 12.9687 25.744 13.9359 26.4183C15.5946 27.5748 15.9459 27.9451 16.176 28.7801C16.3955 29.5773 15.4519 30.9079 14.5452 31.0795C13.8509 31.2108 13.1983 30.9125 11.3353 29.6118C10.1519 28.7855 9.73359 28.5713 9.58893 28.7171C9.22721 29.0819 9.40537 29.2968 10.9924 30.41C12.7743 31.66 13.4071 31.9746 14.1389 31.9746C15.8761 31.9746 17.4119 29.9468 16.9223 28.2997C16.6706 27.4523 16.0148 26.7945 14.107 25.4762C12.6179 24.4472 12.5118 24.4006 12.3499 24.7058ZM112.457 31.466C110.799 31.8849 109.597 33.3297 109.597 34.9037C109.597 35.7979 110.328 37.184 111.096 37.7448C113.092 39.2027 116.012 37.982 116.54 35.4697C116.799 34.2384 115.859 32.3464 114.688 31.7425C114.109 31.4435 113.06 31.3135 112.457 31.466ZM114.461 32.633C116.117 33.6509 116.048 36.1931 114.339 37.1083C113.611 37.4984 112.337 37.5065 111.695 37.1251C110.546 36.4436 110.157 34.7592 110.877 33.5852C111.581 32.4364 113.369 31.9616 114.461 32.633ZM5.7649 35.8066C4.54961 38.4443 4.53621 38.4878 4.88077 38.6794C5.2067 38.8607 5.26816 38.7989 5.78108 37.7729C6.0838 37.1673 6.35105 36.6496 6.37475 36.6226C6.39861 36.5956 7.5361 37.0961 8.90258 37.7351C10.2691 38.3741 11.452 38.8969 11.5313 38.8969C11.6107 38.8969 11.7555 38.7461 11.8534 38.5617C12.0184 38.251 11.8907 38.1595 10.102 37.3073C9.04087 36.8016 7.86023 36.2504 7.47807 36.0825C7.09591 35.9146 6.78339 35.7389 6.78339 35.6919C6.78339 35.6451 7.02154 35.12 7.31249 34.525C7.76281 33.604 7.80531 33.4202 7.59854 33.2883C7.46483 33.2031 7.27522 33.1323 7.17715 33.1308C7.07908 33.1295 6.44356 34.3336 5.7649 35.8066ZM116.38 39.3245C111.818 41.0452 112.194 40.8622 112.399 41.2594C112.5 41.4557 112.599 41.6359 112.618 41.6598C112.637 41.6837 113.151 41.5137 113.761 41.2825C114.37 41.0511 114.915 40.907 114.971 40.9624C115.027 41.018 115.152 41.298 115.25 41.5851C115.408 42.0497 115.371 42.1976 114.912 42.933C113.683 44.9034 113.695 44.8734 113.91 45.3983L114.109 45.884L114.979 44.4534L115.849 43.0228L116.331 43.432C117.119 44.1 118.604 43.9313 119.135 43.1131C119.623 42.3629 119.607 41.7893 119.057 40.1477C118.765 39.2785 118.485 38.5712 118.434 38.576C118.383 38.5808 117.459 38.9175 116.38 39.3245ZM118.419 40.6534C118.814 41.7171 118.747 42.3909 118.21 42.77C117.384 43.3539 116.513 42.8234 115.998 41.4216L115.684 40.5677L116.768 40.1535C117.364 39.9257 117.901 39.7352 117.962 39.7301C118.023 39.7251 118.229 40.1406 118.419 40.6534ZM3.77696 40.4762C3.59095 40.9651 3.67905 41.0234 5.50239 41.6179C7.64398 42.3159 8.14481 42.5565 8.4897 43.0531C9.03776 43.8421 8.63975 45.4451 7.78504 45.8908C7.05276 46.2725 6.53788 46.2153 4.34954 45.5086L2.36683 44.8684L2.26712 45.2691C2.2122 45.4895 2.19455 45.6933 2.22789 45.722C2.36503 45.8405 5.92917 46.9651 6.47086 47.0608C7.10196 47.1724 8.08547 46.8484 8.6337 46.3487C9.51031 45.5493 9.81826 43.8588 9.29144 42.7391C8.91877 41.9474 8.15592 41.4981 6.00992 40.8068C3.90233 40.1279 3.90919 40.1289 3.77696 40.4762ZM117.524 46.1509C115.282 46.707 114.423 46.9857 114.436 47.1531C114.445 47.2807 114.658 48.2566 114.908 49.3216C115.281 50.9068 115.417 51.2582 115.658 51.2582C115.82 51.2582 115.996 51.1872 116.049 51.1005C116.128 50.9719 115.756 49.202 115.383 47.9292C115.302 47.6515 115.442 47.5882 116.968 47.2177C117.376 47.1188 117.402 47.1559 117.607 48.1302C117.817 49.1318 118.036 49.4022 118.493 49.2255C118.694 49.1476 118.694 49.0165 118.495 48.2602C118.138 46.9092 118.148 46.8858 119.18 46.6531C120.275 46.4058 120.23 46.3594 120.633 48.1382C120.899 49.3129 120.967 49.4452 121.311 49.4452C121.548 49.4452 121.692 49.3478 121.692 49.1866C121.692 48.798 120.869 45.5864 120.741 45.4763C120.68 45.4237 119.232 45.7273 117.524 46.1509ZM3.43256 48.4483C2.21433 48.741 1.58682 49.2827 1.05053 50.5055C0.564247 51.6137 0.66755 52.8278 1.32889 53.7775C2.901 56.0353 6.34288 55.7383 7.38883 53.2543C7.67046 52.5855 7.69547 51.202 7.43835 50.5166C6.90745 49.1009 4.94125 48.0857 3.43256 48.4483ZM5.41805 49.6218C7.73878 50.7546 6.95028 54.3868 4.38305 54.3891C2.58995 54.3908 1.36044 53.0592 1.63602 51.414C1.92616 49.6822 3.76078 48.8128 5.41805 49.6218ZM115.885 54.3482C115.947 54.5973 116.01 54.8054 116.026 54.8109C116.041 54.8161 116.42 54.931 116.869 55.0662C117.635 55.2966 117.691 55.3516 117.793 55.9633C117.852 56.3216 117.927 57.0598 117.958 57.6037L118.015 58.5926L117.156 59.0562C116.303 59.5174 116.176 59.7089 116.443 60.1332C116.551 60.3059 117.277 59.9944 119.706 58.7322C122.497 57.282 122.829 57.0654 122.83 56.6972C122.831 56.4706 122.777 56.1988 122.711 56.0933C122.604 55.9247 116.347 53.8953 115.933 53.8953C115.84 53.8953 115.82 54.0845 115.885 54.3482ZM121.019 56.3048L121.898 56.568L120.38 57.3763C119.546 57.8208 118.845 58.1649 118.823 58.1413C118.801 58.1176 118.73 57.5243 118.666 56.823L118.549 55.5478L119.344 55.7947C119.782 55.9305 120.535 56.1601 121.019 56.3048ZM4.2245 56.7715C3.9409 56.896 3.6596 57.1544 3.59928 57.3461C3.49336 57.6825 3.47391 57.6774 3.02768 57.1958C2.13979 56.2374 0.592851 56.6778 0.262181 57.9834C0.177348 58.3185 0.0836893 59.2601 0.0539405 60.076L0 61.5593L3.23265 61.706C5.01055 61.7866 6.49424 61.8234 6.52987 61.7876C6.56534 61.7518 6.6469 60.9999 6.7113 60.1168C6.85711 58.1123 6.58937 57.2062 5.72927 56.7946C5.07169 56.48 4.89532 56.4773 4.2245 56.7715ZM2.757 58.0713C3.01754 58.3755 3.04697 58.5954 2.95739 59.5718C2.89953 60.2011 2.82075 60.7478 2.78217 60.7867C2.7436 60.8257 2.30406 60.8061 1.80553 60.7433L0.899003 60.6291V59.4798C0.899003 58.4715 0.949511 58.2795 1.31042 57.9155C1.78199 57.44 2.26075 57.4915 2.757 58.0713ZM5.74022 57.9399C5.95827 58.2755 5.99374 58.6058 5.91887 59.6041C5.86755 60.2891 5.802 60.864 5.77324 60.8814C5.74447 60.8989 5.26734 60.8854 4.71307 60.8514L3.70504 60.7898L3.792 59.5263C3.90037 57.9538 4.14016 57.5213 4.90365 57.5213C5.32782 57.5213 5.5359 57.6255 5.74022 57.9399ZM116.407 61.5868C116.347 61.6472 116.298 62.4704 116.298 63.4162C116.298 65.4726 116.547 66.1714 117.406 66.5335C118.144 66.8444 118.804 66.6833 119.318 66.0667C119.659 65.6583 119.749 65.6183 119.833 65.8378C119.956 66.1619 120.733 66.5863 121.202 66.5863C121.391 66.5863 121.753 66.4778 122.007 66.3453C122.702 65.9829 123 65.0483 123 63.2294V61.6922L121.161 61.5852C118.779 61.4468 116.545 61.4476 116.407 61.5868ZM119.241 63.7476C119.241 65.3079 119.001 65.7622 118.178 65.7622C117.355 65.7622 117.116 65.3079 117.116 63.7476V62.4658H118.178H119.241V63.7476ZM122.183 63.6652C122.183 65.1377 121.93 65.5974 121.12 65.5974C120.311 65.5974 120.058 65.1377 120.058 63.6652V62.4658H121.12H122.183V63.6652ZM3.22432 64.5766L0.0737183 66.1742L0.176695 66.6687C0.233251 66.9406 0.327074 67.2119 0.384937 67.2716C0.58566 67.4781 6.9421 69.4478 7.05162 69.3374C7.32524 69.0615 6.79843 68.4876 6.03575 68.231C5.24413 67.9645 5.22877 67.9463 5.12236 67.1494C5.0627 66.7038 5.00761 65.9623 4.99977 65.5019L4.98538 64.6648L5.80266 64.2788C6.50061 63.9492 6.61993 63.8247 6.61993 63.4265C6.61993 63.1701 6.56469 62.9646 6.49734 62.9697C6.43 62.9748 4.95694 63.698 3.22432 64.5766ZM4.29871 66.8946L4.24983 67.6708L2.61528 67.1494L0.980731 66.628L2.53355 65.8889L4.08638 65.1499L4.21698 65.6341C4.2889 65.9005 4.32568 66.4676 4.29871 66.8946ZM117.656 68.1756C115.724 68.8657 114.871 71.5715 116.028 73.3357C116.561 74.1466 117.062 74.4891 118.125 74.7671C120.324 75.3422 122.333 73.7469 122.343 71.4179C122.345 70.9478 122.268 70.3545 122.173 70.0993C121.879 69.3107 120.873 68.4114 119.99 68.1471C119.005 67.8519 118.547 67.8575 117.656 68.1756ZM120.211 69.2182C121.144 69.6978 121.585 70.5152 121.496 71.597C121.365 73.1882 120.277 74.1138 118.715 73.9623C116.809 73.7777 115.781 71.9113 116.655 70.2244C117.313 68.9563 118.854 68.5202 120.211 69.2182ZM6.96384 72.176C6.77146 72.2988 6.7932 72.5734 7.10213 73.9213C7.30367 74.8009 7.40632 75.577 7.33031 75.6459C7.09477 75.8594 5.59719 76.1702 5.47738 76.0306C5.41511 75.9579 5.27355 75.4721 5.16306 74.9507C4.98522 74.1128 4.91591 74.003 4.56498 74.003C4.10142 74.003 4.10632 73.965 4.40512 75.2392C4.53277 75.7831 4.58671 76.2736 4.52526 76.3293C4.41165 76.432 3.00382 76.8049 2.73003 76.8049C2.64797 76.8049 2.45134 76.1931 2.29295 75.4452C1.93743 73.7659 1.89118 73.6782 1.45034 73.8455L1.10251 73.9775L1.41961 75.3499C1.59385 76.105 1.80536 76.9894 1.88954 77.3157L2.04254 77.9087L5.18937 77.1725C6.9202 76.7675 8.36645 76.4084 8.40323 76.3744C8.53628 76.252 7.51975 72.0252 7.35793 72.0277C7.26673 72.0292 7.08938 72.0959 6.96384 72.176ZM114.974 76.6826C113.766 77.4922 113.285 79.6217 114.051 80.7685C114.254 81.0716 114.64 81.4497 114.91 81.6084C115.581 82.0033 119.088 83.099 119.353 82.9963C119.471 82.9508 119.567 82.7661 119.567 82.5857C119.567 82.3102 119.232 82.1516 117.454 81.5884C115.733 81.0429 115.263 80.8252 114.921 80.4149C113.906 79.1992 114.848 77.1293 116.413 77.1367C116.664 77.1379 117.772 77.4268 118.874 77.7788L120.877 78.4188L120.978 78.0162C121.033 77.7948 121.046 77.5812 121.006 77.5417C120.967 77.5021 120.094 77.2091 119.066 76.8906C116.829 76.1974 115.778 76.1439 114.974 76.6826ZM8.54576 77.6496C8.4946 77.7841 8.10885 78.43 7.6886 79.0852L6.92445 80.2763L6.43278 79.8592C5.7497 79.2797 4.70865 79.282 4.02198 79.8646C3.48797 80.3179 3.16433 81.1777 3.29869 81.7867C3.4069 82.2777 4.18412 84.7162 4.23218 84.7162C4.34545 84.7162 10.2789 82.5651 10.3425 82.5009C10.3843 82.4587 10.3738 82.2441 10.3191 82.0242L10.2195 81.6242L9.12832 82.0237C8.52811 82.2434 7.94278 82.3867 7.82787 82.3421C7.71279 82.2976 7.57092 82.0046 7.51256 81.6908C7.42005 81.1934 7.516 80.948 8.26282 79.7741C9.10086 78.4569 9.11409 78.417 8.87905 77.9165C8.70726 77.5507 8.61229 77.4748 8.54576 77.6496ZM6.01041 80.5954C6.37573 80.8853 6.94684 82.1393 6.94684 82.6517C6.94684 82.8458 4.85266 83.601 4.65537 83.4781C4.59227 83.4387 4.41852 82.9681 4.26945 82.4323C3.9579 81.3125 4.09308 80.6816 4.69688 80.437C5.27176 80.2041 5.56091 80.2389 6.01041 80.5954ZM111.546 84.7391C111.446 84.9273 111.426 85.1391 111.502 85.2098C111.578 85.2803 112.758 85.8397 114.125 86.4527L116.609 87.567L116.393 88.0781C116.274 88.3593 116.042 88.8719 115.876 89.2172C115.615 89.7603 115.607 89.8656 115.814 89.9976C115.945 90.0815 116.133 90.1512 116.231 90.1527C116.456 90.1558 118.794 84.9205 118.663 84.7078C118.611 84.6217 118.433 84.5514 118.268 84.5514C118.056 84.5514 117.834 84.8639 117.506 85.6227C117.251 86.2119 116.997 86.694 116.94 86.694C116.884 86.694 115.852 86.2427 114.647 85.6912C111.562 84.2788 111.758 84.3391 111.546 84.7391ZM8.71559 85.1112C5.49765 85.9835 5.21209 90.4157 8.29012 91.7122C9.59694 92.2627 10.9615 91.935 12.0426 90.8113C12.5939 90.2384 12.8468 89.8181 12.9502 89.3032C13.4767 86.6841 11.206 84.4361 8.71559 85.1112ZM10.8368 86.1826C11.7042 86.6287 12.2384 87.6443 12.1413 88.6626C12.0087 90.0551 10.9317 90.9792 9.4415 90.9792C7.94719 90.9792 6.86446 89.8044 6.99245 88.3221C7.15492 86.4405 9.16428 85.3222 10.8368 86.1826ZM108.616 91.5078C107.924 91.6965 107.025 92.5167 106.717 93.2402C106.426 93.9237 106.428 94.9947 106.722 95.5612C107.048 96.1901 107.656 96.7182 109.419 97.9021C110.861 98.8705 110.972 98.9165 111.176 98.6342C111.296 98.4686 111.393 98.2915 111.392 98.2409C111.39 98.1902 110.613 97.6349 109.664 97.0068C108.716 96.3787 107.798 95.6826 107.624 95.46C106.95 94.5953 107.422 92.8928 108.457 92.4608C109.331 92.0956 110.084 92.3428 111.959 93.6109C112.923 94.2629 113.726 94.772 113.743 94.742C113.761 94.7122 113.869 94.5642 113.983 94.4132C114.165 94.1721 114.006 94.0096 112.67 93.0749C110.364 91.4612 109.712 91.209 108.616 91.5078ZM12.0991 93.2836C10.7526 94.2708 9.62604 95.1537 9.59563 95.2457C9.56523 95.3377 9.69877 95.6289 9.8923 95.8931L10.2444 96.3732L13.1111 95.6472C14.6878 95.2479 15.9956 94.9428 16.0173 94.9691C16.039 94.9957 15.3699 96.0927 14.5302 97.4071C13.6905 98.7215 13.0042 99.9082 13.005 100.044C13.0058 100.18 13.1693 100.491 13.3683 100.735L13.7302 101.178L16.3771 99.2643C18.6712 97.6052 19.0025 97.3101 18.864 97.049C18.7761 96.8833 18.6357 96.7479 18.5522 96.7479C18.4685 96.7479 17.6069 97.3282 16.6373 98.0376C14.3061 99.7429 13.8669 100.028 14.0535 99.7146C14.1345 99.5786 14.8349 98.4661 15.61 97.2423C16.3851 96.0185 17.0642 94.941 17.1191 94.8478C17.1741 94.7547 17.0923 94.5091 16.9375 94.3021L16.6561 93.9258L13.7261 94.668C12.1148 95.0763 10.7759 95.3898 10.7513 95.3647C10.7264 95.3398 11.7291 94.5845 12.9792 93.6864C14.9048 92.3029 15.2288 92.009 15.0985 91.7634C15.0138 91.6041 14.8553 91.4772 14.7461 91.4813C14.6369 91.4854 13.4458 92.2965 12.0991 93.2836ZM103.957 97.3361C102.802 97.9406 101.914 99.2279 101.914 100.298C101.914 100.742 102.041 101.021 102.412 101.396C103.154 102.144 103.923 102.005 105.654 100.809C106.395 100.298 107.107 99.8794 107.236 99.8794C107.588 99.8794 108.126 100.49 108.126 100.89C108.126 101.368 107.56 102.255 107.036 102.602C106.715 102.813 106.407 102.862 105.829 102.794C105.209 102.719 104.999 102.761 104.784 103C104.487 103.331 104.525 103.365 105.548 103.675C106.531 103.973 107.984 103.106 108.626 101.838C109.186 100.731 108.906 99.6145 107.973 99.2244C107.23 98.9142 106.527 99.1316 105.347 100.037C104.09 101 103.501 101.19 103.048 100.776C102.14 99.948 103.515 97.8961 104.971 97.9041C105.223 97.9055 105.536 97.9754 105.668 98.0595C105.82 98.1564 105.985 98.1481 106.118 98.0367C106.942 97.3471 105.086 96.7454 103.957 97.3361ZM21.1498 100.313C20.9551 100.549 21.0851 100.726 22.233 101.788L23.5375 102.995L22.7631 103.782L21.9888 104.568L21.1692 103.754C20.3958 102.986 20.3341 102.956 20.07 103.223C19.8057 103.489 19.8353 103.551 20.5971 104.331L21.4043 105.158L20.673 105.894L19.9415 106.629L18.7743 105.564C17.7537 104.633 17.5807 104.532 17.3969 104.755C17.2169 104.974 17.3887 105.214 18.5896 106.425L19.9925 107.84L22.285 105.467L24.5773 103.093L23.0799 101.569C22.2564 100.73 21.5349 100.044 21.4767 100.044C21.4185 100.044 21.2714 100.165 21.1498 100.313ZM25.3628 104.11C25.101 104.374 25.3264 104.68 26.4389 105.573C27.0907 106.096 27.6895 106.582 27.7697 106.653C27.8501 106.725 27.6048 107.157 27.2223 107.617L26.5293 108.452L25.7068 107.792C24.7917 107.057 24.6368 107.008 24.4857 107.405C24.381 107.68 24.6454 107.977 25.6562 108.718L26.1345 109.069L25.4323 109.915L24.7299 110.761L23.6435 109.91C23.0457 109.442 22.4802 109 22.3867 108.928C22.2889 108.852 22.1351 108.928 22.0254 109.105C21.8556 109.379 22.0086 109.555 23.3927 110.677C24.25 111.373 24.9688 111.916 24.99 111.885C25.0114 111.854 25.8625 110.753 26.8813 109.439C27.9003 108.124 28.8 106.963 28.8809 106.858C28.9816 106.728 28.4981 106.249 27.3451 105.336C25.6123 103.964 25.5469 103.924 25.3628 104.11ZM30.0574 108.277C29.535 108.497 29.0133 109.259 29.0133 109.802C29.0133 110.483 29.2408 110.854 30.4242 112.101C31.5341 113.27 31.7083 113.781 31.1662 114.275C30.7489 114.656 30.2191 114.616 29.4178 114.142C28.6411 113.683 28.2701 112.98 28.4162 112.243C28.4933 111.854 28.4425 111.714 28.1705 111.568C27.7269 111.328 27.5479 111.592 27.5453 112.488C27.5419 113.697 28.577 114.838 30.0329 115.231C30.7008 115.411 30.8783 115.401 31.3875 115.156C32.0655 114.83 32.5116 113.963 32.345 113.294C32.2865 113.059 31.6969 112.283 31.0346 111.569C29.766 110.201 29.6192 109.817 30.1575 109.274C30.5725 108.856 30.8612 108.859 31.7564 109.297C32.6533 109.734 33.1235 110.455 33.0688 111.308C33.0385 111.778 33.1049 111.983 33.3285 112.109C33.55 112.234 33.6662 112.22 33.7705 112.054C33.9895 111.705 33.9423 110.625 33.6863 110.131C33.031 108.866 31.053 107.855 30.0574 108.277ZM38.2709 112.968C36.9276 113.469 35.9819 114.866 35.9717 116.363C35.9596 118.154 37.307 119.582 39.1807 119.764C40.4154 119.884 41.65 119.235 42.3341 118.105C43.3599 116.411 42.7841 114.146 41.1075 113.281C40.1501 112.787 39.0746 112.668 38.2709 112.968ZM40.7427 114.053C41.6047 114.583 41.9544 115.297 41.8851 116.386C41.8097 117.574 41.2571 118.357 40.2074 118.761C39.5694 119.006 39.3657 119.018 38.7743 118.842C37.0873 118.341 36.4111 116.739 37.1959 115.105C37.381 114.719 37.7673 114.252 38.054 114.066C38.7505 113.617 40.0226 113.61 40.7427 114.053ZM78.4176 114.664C78.2154 114.704 78.0498 114.753 78.0498 114.774C78.0498 114.795 78.2298 115.437 78.4498 116.2C78.6698 116.963 78.8354 117.6 78.8176 117.615C78.7826 117.646 75.606 118.517 75.3744 118.56C75.2963 118.574 75.0712 117.993 74.8739 117.268C74.5203 115.968 74.2997 115.702 73.8291 116.008C73.5213 116.208 75.2361 122.459 75.598 122.456C76.2083 122.451 76.242 122.236 75.8504 120.837C75.5815 119.876 75.5236 119.45 75.6554 119.405C76.7332 119.037 78.8946 118.501 79.0103 118.573C79.0914 118.624 79.2074 118.87 79.2681 119.12C79.3287 119.37 79.4879 119.961 79.6221 120.432C79.8433 121.208 79.8995 121.276 80.2248 121.155C80.4221 121.081 80.5834 120.918 80.5834 120.792C80.5834 120.435 78.9588 114.547 78.8671 114.571C78.8222 114.583 78.6198 114.625 78.4176 114.664ZM45.8503 118.051C45.4606 119.524 45.1205 120.756 45.0945 120.79C45.0687 120.823 44.5211 120.721 43.8777 120.562C42.8908 120.318 42.6858 120.308 42.5649 120.501C42.4861 120.626 42.4205 120.804 42.4191 120.897C42.4171 121.031 44.6944 121.721 47.9116 122.561C48.1864 122.633 48.2744 122.564 48.3384 122.226C48.4108 121.844 48.351 121.783 47.747 121.626C46.587 121.325 46.0126 121.119 46.0146 121.004C46.0156 120.944 46.3408 119.709 46.7372 118.261C47.1336 116.813 47.4227 115.571 47.3794 115.5C47.3363 115.43 47.1339 115.372 46.9299 115.372C46.5883 115.372 46.5023 115.586 45.8503 118.051ZM67.5943 117.135C66.8667 117.521 66.6165 117.772 66.2458 118.487C65.404 120.112 65.8535 122.116 67.2723 123.063C68.2616 123.723 69.8204 123.801 70.8578 123.242C72.5332 122.34 73.121 120.372 72.2506 118.579C71.6548 117.351 70.8478 116.808 69.4902 116.724C68.6322 116.671 68.3589 116.73 67.5943 117.135ZM54.6035 117.259C53.6736 117.604 53.1878 118.02 52.7488 118.846C52.4335 119.44 52.373 119.762 52.422 120.586C52.5378 122.532 53.6528 123.496 56.1609 123.819C56.8783 123.911 57.512 123.94 57.5691 123.882C57.6903 123.76 58.3558 117.378 58.2567 117.285C58.2201 117.25 57.528 117.176 56.7189 117.121C55.6313 117.046 55.0798 117.082 54.6035 117.259ZM59.5794 117.762V118.174H61.2957H63.012L63.0128 119.534C63.0133 120.282 63.0603 121.604 63.1174 122.473C63.2191 124.022 63.2287 124.052 63.6069 123.979L63.9927 123.904V120.627V117.35H61.786H59.5794V117.762ZM70.6656 117.962C71.7223 118.756 72.1082 120.638 71.4095 121.589C70.8393 122.365 70.0726 122.789 69.2399 122.788C67.7474 122.787 66.7731 121.74 66.7721 120.135C66.7713 119.035 67.2106 118.25 68.0823 117.794C68.8007 117.418 70.0502 117.5 70.6656 117.962ZM57.2719 118.107C57.3342 118.163 57.0337 121.392 56.8709 122.418C56.7954 122.894 56.7268 122.954 56.2621 122.953C55.3457 122.951 54.4629 122.607 53.8887 122.028C53.3441 121.479 53.333 121.44 53.3957 120.32C53.4515 119.323 53.5222 119.108 53.9391 118.67C54.2027 118.392 54.6417 118.098 54.9147 118.017C55.3493 117.886 57.1011 117.953 57.2719 118.107Z" fill="white"/>
</svg>
