<svg width="136" height="124" viewBox="0 0 136 124" fill="none" xmlns="http://www.w3.org/2000/svg">
<path d="M130.39 74.1862C131.67 75.1476 133.006 74.693 134.222 74.9332C134.929 75.0732 136.102 75.5378 135.854 75.9344C134.097 78.7417 136.696 82.6646 133.467 85.0125C120.36 94.545 110.583 107.609 98.3611 118.08C97.5024 118.816 96.6915 119.607 95.8411 120.353C90.926 124.661 90.9241 124.659 87.9755 119.137C84.9431 113.456 84.937 112.909 89.3389 107.717C98.484 96.9316 107.69 86.1953 117.437 75.943C120.476 72.7458 123.821 69.8598 128.461 69.26C129.712 69.0786 130.983 69.0762 132.235 69.2528C133.313 69.4257 134.674 69.8267 134.742 71.156C134.812 72.5355 133.395 72.2714 132.513 72.5336C131.705 72.7694 130.865 72.9519 130.39 74.1862Z" fill="#F97C60"/>
<path d="M80.6801 29.9389C80.1724 35.4583 77.4981 40.0988 74.5818 44.6385C68.2476 54.4976 60.3793 63.2742 54.3335 73.3398C53.1643 75.2859 52.1403 75.2387 50.4975 73.3787C45.7248 67.9763 48.0948 62.9218 51.0384 58.0463C56.9451 48.2613 63.1283 38.6427 69.1461 28.9242C70.7055 26.4056 72.1036 23.7857 73.5233 21.1838C74.3436 19.6786 75.6701 19.4836 77.141 19.6395C78.6635 19.7987 79.024 20.7718 79.3469 22.2109C79.9215 24.7711 80.8529 27.2467 80.6801 29.9389Z" fill="#F97C60"/>
<path d="M0.858702 21.8297C1.02029 16.0361 1.15493 10.2457 1.35883 4.45597C1.42345 2.61289 1.49134 0.66716 3.89364 0.15863C6.08576 -0.305952 6.20618 1.66877 7.10986 2.80923C8.85103 5.00698 9.61149 7.54316 9.95021 10.2299C11.424 21.9174 11.8702 33.5859 9.24729 45.1989C8.9632 46.4557 8.95539 47.796 7.52351 48.3215C5.9041 48.9153 5.5134 47.3397 4.55053 46.6474C0.0543408 43.4148 0.180835 38.8514 0.460322 34.1044C0.70112 30.0193 0.715013 25.921 0.829142 21.8289L0.858702 21.8297Z" fill="#F97C60"/>
</svg>
