<svg width="178" height="47" viewBox="0 0 178 47" fill="none" xmlns="http://www.w3.org/2000/svg">
<path d="M66.082 10.452H68.2292V20.9372H74.6706V22.977H66.082V10.452Z" fill="white"/>
<path d="M77.2651 10.452H79.4123V22.977H77.2651V10.452Z" fill="white"/>
<path d="M83.3459 10.452H91.6661V12.456H85.4931V15.7125H90.0021V17.7165H85.4931V22.977H83.3459V10.452Z" fill="white"/>
<path d="M93.9524 10.452H102.022V12.3486H96.0637V15.7662H100.251V17.6628H96.0637V21.0804H102.648V22.977H93.9524V10.452Z" fill="white"/>
<path d="M123.256 10.452C124.759 10.452 125.939 10.8039 126.798 11.5077C127.657 12.1995 128.087 13.1598 128.087 14.3884C128.087 15.6052 127.657 16.5654 126.798 17.2692C125.939 17.973 124.759 18.3249 123.256 18.3249H120.929V22.977H118.782V10.452H123.256ZM123.273 16.5714C124.097 16.5714 124.747 16.3805 125.224 15.9988C125.701 15.6052 125.939 15.0803 125.939 14.4242C125.939 13.7562 125.701 13.2314 125.224 12.8496C124.759 12.4679 124.108 12.2771 123.273 12.2771H120.929V16.5714H123.273Z" fill="white"/>
<path d="M130.857 10.452H138.926V12.3486H132.968V15.7662H137.155V17.6628H132.968V21.0804H139.553V22.977H130.857V10.452Z" fill="white"/>
<path d="M145.208 10.452H148.071L153.01 22.977H150.684L149.521 19.9173H143.687L142.524 22.977H140.27L145.208 10.452ZM148.859 18.1817L146.604 12.3129H146.568L144.349 18.1817H148.859Z" fill="white"/>
<path d="M160.34 23.2454C159.111 23.2454 158.008 22.9651 157.029 22.4045C156.063 21.8438 155.3 21.0685 154.739 20.0784C154.19 19.0764 153.916 17.9491 153.916 16.6966C153.916 15.456 154.19 14.3407 154.739 13.3506C155.288 12.3606 156.051 11.5852 157.029 11.0246C158.008 10.4639 159.111 10.1836 160.34 10.1836C161.437 10.1836 162.427 10.4102 163.31 10.8635C164.204 11.3049 164.926 11.9252 165.475 12.7244C166.024 13.5236 166.352 14.4361 166.459 15.462H164.294C164.103 14.46 163.65 13.6668 162.934 13.0822C162.23 12.4858 161.371 12.1876 160.358 12.1876C159.534 12.1876 158.801 12.3785 158.157 12.7602C157.513 13.1419 157.012 13.6787 156.654 14.3705C156.296 15.0505 156.117 15.8318 156.117 16.7145C156.117 17.5972 156.296 18.3845 156.654 19.0764C157.012 19.7563 157.513 20.2871 158.157 20.6689C158.801 21.0506 159.534 21.2414 160.358 21.2414C161.395 21.2414 162.266 20.9492 162.97 20.3647C163.674 19.7682 164.115 18.969 164.294 17.967H166.459C166.34 18.9929 166 19.9054 165.439 20.7046C164.89 21.5039 164.175 22.1301 163.292 22.5834C162.409 23.0248 161.425 23.2454 160.34 23.2454Z" fill="white"/>
<path d="M169.263 10.452H177.333V12.3486H171.375V15.7662H175.562V17.6628H171.375V21.0804H177.959V22.977H169.263V10.452Z" fill="white"/>
<path d="M113.683 22.9937L112.18 21.3833L111.626 20.8465L108.691 17.6258C108.333 17.2441 108.011 16.8683 107.725 16.4985C107.439 16.1168 107.194 15.753 106.992 15.4071C106.789 15.0492 106.634 14.7092 106.526 14.3872C106.419 14.0651 106.365 13.7669 106.365 13.4925C106.365 12.8722 106.526 12.3176 106.848 11.8285C107.17 11.3394 107.618 10.9577 108.19 10.6833C108.763 10.397 109.419 10.2539 110.159 10.2539C110.719 10.2539 111.238 10.3553 111.715 10.5581C112.204 10.7489 112.628 11.0233 112.986 11.3812C113.344 11.7271 113.6 12.1386 113.755 12.6158L112.055 13.6536C111.841 13.1287 111.584 12.753 111.286 12.5263C110.988 12.2997 110.624 12.1863 110.194 12.1863C109.86 12.1863 109.58 12.24 109.353 12.3474C109.127 12.4428 108.954 12.5919 108.834 12.7947C108.715 12.9856 108.656 13.2241 108.656 13.5104C108.656 13.7728 108.739 14.0651 108.906 14.3872C109.073 14.6973 109.276 15.0194 109.514 15.3534C109.765 15.6874 110.015 15.9975 110.266 16.2838C110.528 16.5701 110.755 16.8206 110.946 17.0353L113.057 19.3614L113.809 20.1129L116.475 22.9937H113.683ZM108.96 23.1726C108.077 23.1726 107.278 22.9937 106.562 22.6358C105.858 22.266 105.298 21.777 104.88 21.1686C104.463 20.5602 104.254 19.8922 104.254 19.1646C104.254 18.2461 104.51 17.4409 105.023 16.749C105.536 16.0572 106.3 15.5264 107.314 15.1566L108.673 16.6596C107.934 16.8146 107.385 17.0771 107.027 17.4469C106.669 17.8167 106.491 18.3057 106.491 18.9141C106.491 19.3793 106.598 19.7908 106.813 20.1487C107.039 20.4946 107.361 20.769 107.779 20.9718C108.208 21.1626 108.715 21.2581 109.3 21.2581C109.813 21.2581 110.284 21.1567 110.713 20.9539C111.155 20.7511 111.548 20.4648 111.894 20.095C112.24 19.7252 112.52 19.2779 112.735 18.753C112.962 18.2282 113.123 17.6437 113.218 16.9995H115.204C115.109 17.7391 114.936 18.425 114.685 19.0572C114.435 19.6894 114.119 20.262 113.737 20.7749C113.367 21.276 112.938 21.7054 112.449 22.0632C111.96 22.4211 111.423 22.6955 110.839 22.8863C110.254 23.0772 109.628 23.1726 108.96 23.1726Z" fill="#F97C60"/>
<path d="M66.082 34.5173H66.8647V32.1033H68.0214C68.0562 32.1033 68.0823 32.1033 68.1084 32.0945L69.9782 34.5173H70.9261L68.978 31.9884C69.8912 31.7585 70.4304 31.1218 70.4304 30.211C70.4304 29.0438 69.552 28.3276 68.1258 28.3276H66.082V34.5173ZM66.8647 31.4313V29.0173H68.1432C69.0824 29.0173 69.6477 29.4771 69.6477 30.2199C69.6477 30.9627 69.0824 31.4313 68.1432 31.4313H66.8647Z" fill="white"/>
<path d="M73.6803 34.6057C74.75 34.6057 75.5675 33.9956 75.7675 33.2175H75.0804C74.8804 33.695 74.3325 34.0045 73.715 34.0045C72.7932 34.0045 72.1322 33.359 72.0453 32.5455H75.9153C75.924 32.457 75.9327 32.3863 75.9327 32.2802C75.9327 30.9803 74.95 30.0077 73.6803 30.0077C72.3844 30.0077 71.3669 30.998 71.3669 32.3155C71.3669 33.6242 72.3236 34.6057 73.6803 34.6057ZM75.237 31.9619H72.0714C72.1931 31.1749 72.8541 30.6266 73.6716 30.6266C74.4891 30.6266 75.1152 31.1749 75.237 31.9619Z" fill="white"/>
<path d="M78.9991 34.6057C79.2948 34.6057 79.7122 34.535 79.9992 34.4554V33.8188C79.6948 33.9072 79.3556 33.9602 79.0165 33.9602C78.399 33.9602 78.1294 33.7038 78.1294 33.0848V30.7416H79.9992V30.0961H78.1294L78.1381 29.035H77.4597V29.7689C77.4597 29.9811 77.3467 30.0961 77.1554 30.0961H76.3813V30.7416H77.4423V33.1556C77.4423 34.084 77.912 34.6057 78.9991 34.6057Z" fill="white"/>
<path d="M82.8849 34.6057C83.5807 34.6057 84.1634 34.2609 84.4938 33.7127V34.5173H85.1374V30.0961H84.4504V32.404C84.4504 33.2882 83.8242 33.9514 82.9893 33.9514C82.1718 33.9514 81.6761 33.3766 81.6761 32.404V30.0961H80.9804V32.5012C80.9804 33.7922 81.737 34.6057 82.8849 34.6057Z" fill="white"/>
<path d="M86.8085 34.5173H87.5043V32.1564C87.5043 31.3252 88.087 30.6709 88.7914 30.6709C89.3828 30.6709 89.7567 31.0157 89.7567 31.67V31.8823H90.4438V31.6435C90.4438 30.6266 89.8089 30.0077 88.8957 30.0077C88.287 30.0077 87.7565 30.3614 87.4521 30.9096V30.0961H86.8085V34.5173Z" fill="white"/>
<path d="M91.3522 34.5173H92.048V32.2094C92.048 31.3252 92.6654 30.662 93.5003 30.662C94.3178 30.662 94.8135 31.2368 94.8135 32.2094V34.5173H95.5093V32.1122C95.5093 30.8212 94.7614 30.0077 93.6047 30.0077C92.909 30.0077 92.3263 30.3525 91.9958 30.9008V30.0961H91.3522V34.5173Z" fill="white"/>
<path d="M97.3978 29.4683H97.4848L97.9544 27.9297H96.9282L97.3978 29.4683ZM97.0934 34.5173H97.7892V30.0961H97.0934V34.5173Z" fill="white"/>
<path d="M99.463 34.5173H100.159V32.2094C100.159 31.3252 100.776 30.662 101.611 30.662C102.429 30.662 102.924 31.2368 102.924 32.2094V34.5173H103.62V32.1122C103.62 30.8212 102.872 30.0077 101.715 30.0077C101.02 30.0077 100.437 30.3525 100.107 30.9008V30.0961H99.463V34.5173Z" fill="white"/>
<path d="M107.404 36.3742C108.944 36.3742 109.918 35.8172 109.918 34.9241C109.918 33.8895 108.883 33.5181 107.457 33.4828C106.187 33.4474 105.135 33.3413 105.135 32.6958C105.135 32.5366 105.256 32.3951 105.465 32.3951C106.013 32.3951 106.178 32.8815 107.5 32.8815C108.9 32.8815 109.796 32.3332 109.796 31.4578C109.796 30.6178 109.039 30.0872 107.796 30.0165V28.9466H107.109V30.0254C105.917 30.1138 105.213 30.6443 105.213 31.4578C105.213 31.67 105.265 31.8646 105.369 32.0326C105.317 32.0149 105.248 32.0149 105.178 32.0149C104.752 32.0149 104.482 32.3863 104.482 32.6958C104.482 33.412 105.117 33.7215 105.917 33.8807C105.282 34.0752 104.917 34.4643 104.917 34.986C104.917 35.8525 105.856 36.3742 107.404 36.3742ZM107.5 32.3155C106.509 32.3155 105.917 31.9795 105.917 31.4401C105.917 30.8919 106.517 30.5471 107.5 30.5471C108.483 30.5471 109.092 30.8919 109.092 31.4401C109.092 31.9795 108.483 32.3155 107.5 32.3155ZM107.413 35.7818C106.265 35.7818 105.613 35.4723 105.613 34.9418C105.613 34.4024 106.265 34.084 107.413 34.084C108.587 34.084 109.213 34.3847 109.213 34.9418C109.213 35.4723 108.561 35.7818 107.413 35.7818Z" fill="white"/>
<path d="M113.128 34.5173H113.824V32.2094C113.824 31.3252 114.441 30.662 115.276 30.662C116.094 30.662 116.589 31.2368 116.589 32.2094V34.5173H117.285V32.1122C117.285 30.8212 116.537 30.0077 115.381 30.0077C114.702 30.0077 114.146 30.326 113.824 30.8477V28.2392H113.128V34.5173Z" fill="white"/>
<path d="M120.765 34.6057C122.07 34.6057 123.087 33.6065 123.087 32.3067C123.087 30.998 122.087 30.0077 120.765 30.0077C119.443 30.0077 118.443 30.998 118.443 32.3067C118.443 33.6154 119.443 34.6057 120.765 34.6057ZM120.765 33.9602C119.826 33.9602 119.148 33.2617 119.148 32.3067C119.148 31.3429 119.826 30.6532 120.765 30.6532C121.696 30.6532 122.383 31.3517 122.383 32.3067C122.383 33.2617 121.696 33.9602 120.765 33.9602Z" fill="white"/>
<path d="M124.322 36.2858H125.017V33.7215C125.357 34.2609 125.939 34.6057 126.652 34.6057C127.887 34.6057 128.827 33.6154 128.827 32.3067C128.827 30.998 127.887 30.0077 126.652 30.0077C125.913 30.0077 125.313 30.3702 124.965 30.945V30.0961H124.322V36.2858ZM126.557 33.9602C125.678 33.9602 125 33.244 125 32.3067C125 31.3694 125.678 30.6532 126.557 30.6532C127.435 30.6532 128.122 31.3694 128.122 32.3067C128.122 33.244 127.435 33.9602 126.557 33.9602Z" fill="white"/>
<path d="M131.976 34.6057C133.045 34.6057 133.863 33.9956 134.063 33.2175H133.376C133.176 33.695 132.628 34.0045 132.01 34.0045C131.089 34.0045 130.428 33.359 130.341 32.5455H134.211C134.219 32.457 134.228 32.3863 134.228 32.2802C134.228 30.9803 133.245 30.0077 131.976 30.0077C130.68 30.0077 129.662 30.998 129.662 32.3155C129.662 33.6242 130.619 34.6057 131.976 34.6057ZM133.532 31.9619H130.367C130.488 31.1749 131.149 30.6266 131.967 30.6266C132.784 30.6266 133.411 31.1749 133.532 31.9619Z" fill="white"/>
<path d="M139.579 34.6057C139.875 34.6057 140.292 34.535 140.579 34.4554V33.8188C140.275 33.9072 139.936 33.9602 139.596 33.9602C138.979 33.9602 138.709 33.7038 138.709 33.0848V30.7416H140.579V30.0961H138.709L138.718 29.035H138.04V29.7689C138.04 29.9811 137.927 30.0961 137.735 30.0961H136.961V30.7416H138.022V33.1556C138.022 34.084 138.492 34.6057 139.579 34.6057Z" fill="white"/>
<path d="M143.484 34.6057C144.788 34.6057 145.806 33.6065 145.806 32.3067C145.806 30.998 144.806 30.0077 143.484 30.0077C142.162 30.0077 141.162 30.998 141.162 32.3067C141.162 33.6154 142.162 34.6057 143.484 34.6057ZM143.484 33.9602C142.544 33.9602 141.866 33.2617 141.866 32.3067C141.866 31.3429 142.544 30.6532 143.484 30.6532C144.414 30.6532 145.101 31.3517 145.101 32.3067C145.101 33.2617 144.414 33.9602 143.484 33.9602Z" fill="white"/>
<path d="M149.414 34.5173H150.197V31.7938H152.476V31.0511H150.197V29.0704H153.267V28.3276H149.414V34.5173Z" fill="white"/>
<path d="M155.567 34.6057C156.263 34.6057 156.846 34.2609 157.176 33.7127V34.5173H157.82V30.0961H157.133V32.404C157.133 33.2882 156.506 33.9514 155.672 33.9514C154.854 33.9514 154.358 33.3766 154.358 32.404V30.0961H153.663V32.5012C153.663 33.7922 154.419 34.6057 155.567 34.6057Z" fill="white"/>
<path d="M161.474 34.6057C161.769 34.6057 162.187 34.535 162.474 34.4554V33.8188C162.169 33.9072 161.83 33.9602 161.491 33.9602C160.874 33.9602 160.604 33.7038 160.604 33.0848V30.7416H162.474V30.0961H160.604L160.613 29.035H159.934V29.7689C159.934 29.9811 159.821 30.0961 159.63 30.0961H158.856V30.7416H159.917V33.1556C159.917 34.084 160.387 34.6057 161.474 34.6057Z" fill="white"/>
<path d="M165.36 34.6057C166.055 34.6057 166.638 34.2609 166.968 33.7127V34.5173H167.612V30.0961H166.925V32.404C166.925 33.2882 166.299 33.9514 165.464 33.9514C164.646 33.9514 164.151 33.3766 164.151 32.404V30.0961H163.455V32.5012C163.455 33.7922 164.212 34.6057 165.36 34.6057Z" fill="white"/>
<path d="M169.283 34.5173H169.979V32.1564C169.979 31.3252 170.562 30.6709 171.266 30.6709C171.857 30.6709 172.231 31.0157 172.231 31.67V31.8823H172.918V31.6435C172.918 30.6266 172.284 30.0077 171.37 30.0077C170.762 30.0077 170.231 30.3614 169.927 30.9096V30.0961H169.283V34.5173Z" fill="white"/>
<path d="M175.748 34.6057C176.818 34.6057 177.635 33.9956 177.835 33.2175H177.148C176.948 33.695 176.4 34.0045 175.783 34.0045C174.861 34.0045 174.2 33.359 174.113 32.5455H177.983C177.992 32.457 178 32.3863 178 32.2802C178 30.9803 177.018 30.0077 175.748 30.0077C174.452 30.0077 173.435 30.998 173.435 32.3155C173.435 33.6242 174.391 34.6057 175.748 34.6057ZM177.305 31.9619H174.139C174.261 31.1749 174.922 30.6266 175.739 30.6266C176.557 30.6266 177.183 31.1749 177.305 31.9619Z" fill="white"/>
<path fill-rule="evenodd" clip-rule="evenodd" d="M27.8854 12.784L26.8116 16.6552C26.5163 17.5636 26.1986 18.929 26.0267 20.2702C25.9394 20.9509 25.8861 21.6529 25.8985 22.3041C25.9104 22.9337 25.9846 23.6159 26.2162 24.2009C26.7268 25.4908 27.3379 26.1093 28.1066 26.7902L28.1341 26.8146L31.0375 29.1061L31.0724 29.1301C31.2717 29.2674 31.6222 29.5997 31.8172 29.9966C31.9803 30.3287 32.0128 30.6335 31.815 30.9887C31.4112 31.566 31.0051 31.6463 30.6178 31.5962C30.1138 31.5309 29.5361 31.204 29.1217 30.7813L27.5295 29.1016C27.3637 28.9059 27.1652 28.6688 26.9466 28.4078L26.9463 28.4074C26.5116 27.8883 25.9973 27.2741 25.501 26.7C24.7652 25.8489 23.9411 24.9335 23.3673 24.4781C23.3108 24.4332 23.2482 24.3824 23.1798 24.3268C22.6366 23.8853 21.7253 23.1445 20.553 22.7329C19.1416 22.2372 17.4311 22.2267 15.4624 23.265C15.0282 23.4939 14.4048 23.8948 13.802 24.4164C13.2097 24.9289 12.5486 25.6338 12.1523 26.4889C11.7308 27.3986 12.2754 28.2979 13.004 28.5854C14.1708 29.0457 16.4328 30.3015 17.7635 32.2145C18.3498 33.067 19.5856 34.9421 20.07 35.9187C20.4526 36.6899 21.2027 37.8729 22.1326 39.0081C23.0298 40.1036 24.1971 41.2822 25.4728 41.9633C25.8319 42.2085 26.3381 42.4831 26.9646 42.7318C24.3529 44.5867 21.7708 45.9435 19.7141 46.6275C12.8142 44.3325 0 34.4666 0 23.6142C0 17.6206 4.85448 12.7617 10.8428 12.7617C14.5099 12.7617 17.7519 14.5838 19.7141 17.3728C21.5505 14.7627 24.5078 12.9994 27.8854 12.784ZM7.20625 22.0572C7.26683 23.1986 8.16054 25.8237 11.2507 27.1931C11.1395 25.9604 10.175 23.2075 7.20625 22.0572ZM4.15569 28.7683C5.17164 29.2919 7.88896 29.8452 10.6307 27.8684C9.5104 27.3423 6.647 26.7858 4.15569 28.7683ZM9.59941 34.2826C10.4926 33.6197 12.1096 31.5056 11.4315 28.352C10.4933 29.1036 8.81352 31.342 9.59941 34.2826Z" fill="#F97C60"/>
<path fill-rule="evenodd" clip-rule="evenodd" d="M32.7342 0.154395L28.0536 17.0295C27.5123 18.6786 26.8307 22.2293 27.4221 23.7236C27.828 24.7491 28.2756 25.2074 28.9669 25.8197L31.8082 28.0623C32.4848 28.5281 33.8916 30.0242 32.9132 31.6798C31.5264 33.7309 29.3124 32.8323 28.1889 31.6798L26.5652 29.9669C26.3842 29.7536 26.1719 29.5001 25.94 29.223C24.8486 27.9194 23.3213 26.0952 22.5625 25.4929C22.4965 25.4405 22.4276 25.3849 22.3558 25.3268C21.1747 24.3726 19.1865 22.7663 16.0679 24.411C15.3668 24.7807 13.9034 25.7941 13.3292 27.0335C13.2662 27.1694 13.3411 27.3245 13.4805 27.3795C14.7716 27.8888 17.2968 29.2705 18.8303 31.477C19.4091 32.3184 20.6998 34.2696 21.232 35.3424C21.8972 36.6835 24.0057 39.7488 26.148 40.8532C27.0952 41.5294 29.8351 42.7014 33.2177 41.9802C34.6045 41.6845 37.4165 40.0531 39.3289 37.4498C39.9415 36.6159 41.3494 34.8578 42.0801 34.4972C42.9934 34.0464 43.3316 33.8887 45.9926 33.8887H48.2815C49.1497 33.8549 50.3268 33.6047 51.2018 31.9729C51.3869 31.6744 51.7347 31.0693 51.9197 30.6116C51.9843 30.4517 51.8619 30.2925 51.6893 30.2913L42.6664 30.2261H41.8658C41.6366 30.2524 41.284 30.1224 41.708 29.3921C42.1319 28.6619 42.8618 28.1262 43.1738 27.9496L45.9362 26.5184C47.3381 25.9023 50.2096 24.6139 50.4802 24.3885C51.3446 23.855 53.0981 22.6868 53.5245 20.9287C53.9297 19.2582 53.9709 18.3244 53.6971 17.5064C53.6469 17.3565 53.4725 17.2958 53.3328 17.37L38.472 25.2562C38.3141 25.3464 37.6827 25.4929 38.2577 23.6898C38.472 23.018 39.4304 21.5463 41.2795 19.6891C43.1287 17.8319 45.0718 15.617 45.8122 14.7418C45.8821 14.6518 45.9581 14.5555 46.0386 14.4536C46.9057 13.3559 48.2916 11.6012 48.1575 9.94097C48.1575 8.75767 47.5824 7.12359 46.9059 6.08679C46.8214 5.95559 46.6804 5.74038 46.5645 5.57165C46.474 5.43985 46.2993 5.4389 46.1978 5.56252L35.1683 19.0016L33.6912 20.7372C33.5446 20.9438 33.2312 21.1136 33.15 20.1399C33.0688 19.1662 33.2289 17.8071 33.4883 16.8604L35.0555 11.823L36.3297 8.00261C36.3455 7.9498 36.3614 7.89749 36.3772 7.84546C36.6312 7.00934 36.863 6.24631 36.5552 4.6443C36.4114 3.89613 35.7095 2.23262 34.4354 1.11694C34.0768 0.795966 33.3727 0.208718 32.9835 0.01787C32.8743 -0.0356636 32.7667 0.0372655 32.7342 0.154395ZM18.4262 27.5183C18.8675 27.5183 19.2254 27.1605 19.2254 26.7191C19.2254 26.2777 18.8675 25.9199 18.4262 25.9199C17.9848 25.9199 17.627 26.2777 17.627 26.7191C17.627 27.1605 17.9848 27.5183 18.4262 27.5183Z" fill="white"/>
</svg>
