<svg width="327" height="308" viewBox="0 0 327 308" fill="none" xmlns="http://www.w3.org/2000/svg">
<path d="M127.956 155.928L127.567 157.38L128.602 158.529L127.92 158.97L128.403 160.858L129.566 161.369L128.851 162.095L130.609 163.609L130.983 163.048L131.925 163.3C132.589 162.312 133.752 161.739 133.76 160.421C134.615 160.573 135.094 159.882 135.331 159.426C135.895 158.345 137.059 157.623 137.369 156.546C137.732 155.29 138.682 154.518 139.29 153.503C140.019 152.285 140.786 151.035 141.64 149.862C142.473 148.717 143.475 147.548 143.82 146.072C145.782 144.116 146.655 141.468 148.086 139.179C149.201 137.395 150.466 135.635 151.179 133.582C151.427 132.868 152.368 132.375 151.458 131.318C152.617 131.037 153.349 130.537 153.602 129.442C153.811 128.66 154.153 127.92 154.614 127.254C155.759 125.507 156.495 123.564 157.423 121.712C158.274 120.013 158.896 118.197 159.758 116.54C160.919 114.304 161.177 111.871 161.953 109.566C162.09 109.16 161.868 108.646 161.921 108.195C161.978 107.706 162.376 107.156 162.238 106.771C162.058 106.273 162.405 106.032 162.429 105.671C162.464 105.137 162.452 104.601 162.462 103.957C162.131 103.63 162.175 102.84 161.403 102.636C161.21 102.584 160.937 102.115 160.997 101.936C161.445 100.578 160.395 99.9539 159.597 99.101C157.795 98.3711 156.246 98.9283 154.972 100.46C154.797 100.657 154.649 100.877 154.533 101.114C154.12 102.043 153.875 103.087 153.295 103.891C152.657 104.776 152.43 105.744 152.14 106.726C151.862 107.669 151.832 108.86 151.223 109.484C150.545 110.177 151.001 111.391 149.929 111.732C150.435 112.557 149.25 112.92 149.405 113.649C148.632 114.177 148.72 115.115 148.348 115.823C148.003 116.479 147.72 117.175 147.363 117.799C146.218 119.855 145.22 121.99 144.377 124.187C143.258 124.936 143.71 126.506 142.672 127.355C141.78 128.084 141.575 129.325 141.063 130.312C140.482 131.431 139.947 132.626 139.419 133.796C138.927 134.889 138.311 135.929 137.79 137.02C137.022 138.629 135.857 140.045 135.258 141.763C134.191 142.268 134.631 143.63 133.732 144.333C132.978 144.923 132.591 145.99 132.207 146.847C131.272 148.938 129.691 150.584 128.66 152.586C128.416 153.061 128.165 153.531 127.877 154.079C128.36 154.291 128.724 154.45 129.296 154.701L127.956 155.928Z" fill="#94FCC3"/>
<path d="M113.743 115.22C113.886 115.137 114.009 115.066 114.132 114.996L113.031 113.774C113.436 113.742 113.697 113.722 114.113 113.688C114.201 113.065 114.557 112.283 114.326 111.764C113.95 110.921 114.875 110.683 114.823 110.025C114.775 109.428 115.243 108.703 115.039 108.224C114.707 107.442 115.164 106.866 115.172 106.201C115.144 105.529 115.077 104.858 114.972 104.193L115.713 103.027L114.525 101.917C115.262 101.887 115.505 101.878 115.9 101.862C115.319 99.6824 116.541 97.5821 116.095 95.4366C115.892 95.3307 115.717 95.2389 115.253 94.9966C115.787 94.96 116.013 94.9446 116.277 94.9266L116.283 93.2937C115.971 93.1724 115.656 93.0497 115.195 92.8704L115.689 92.4692L115.491 91.5081L116.444 91.358C116.243 90.8116 116.04 90.2646 115.802 89.6169C115.616 89.5436 115.301 89.4216 114.893 89.2624L116.007 88.0093C115.154 87.0068 115.064 85.4024 113.78 84.5626L113.154 84.8858C112.866 84.3863 113.024 84.2345 114.023 84.0531C114.074 83.9246 114.117 83.7926 114.149 83.6581C114.16 83.6021 114.104 83.5336 114.018 83.3221C113.689 83.3719 113.322 83.4271 112.918 83.4878L111.79 82.6624L111.908 84.0219C111.451 83.7657 111.11 83.5754 110.535 83.2532L110.845 85.1397L111.394 84.8929L111.672 86.2002L110.286 85.8291L109.283 86.9451L109.726 90.2654C109.427 90.6717 109.185 92.4725 109.332 93.3573L108.747 93.7338L109.03 95.2628L109.568 94.9985C109.611 95.1078 109.733 95.2733 109.692 95.3367C109.238 96.0563 108.44 96.635 109.011 97.7042C109.116 97.9021 108.695 98.3844 108.512 98.7325C107.671 100.324 107.497 101.945 108.231 103.608C108.058 103.904 107.789 104.208 107.703 104.557C107.601 104.968 107.798 105.719 107.624 105.8C106.721 106.218 107.534 106.78 107.417 107.241C107.276 107.694 107.239 108.173 107.307 108.643C107.457 109.542 107.281 110.511 107.154 111.439C106.725 114.549 106.575 117.692 106.705 120.83C106.807 123.266 106.774 125.712 107.134 128.124C107.377 129.749 107.54 131.488 108.264 132.907C108.919 134.19 109.415 135.634 110.527 136.795C110.735 136.73 110.988 136.651 111.278 136.558L111.591 137.021L113.45 135.877C113.428 135.196 113.338 134.469 112.53 133.857C113.071 133.919 113.464 133.963 113.888 134.012L114.045 133.425C113.804 133.249 113.591 133.096 113.375 132.939L114.011 132.356L113.716 131.622L114.901 130.877C114.419 130.212 113.96 129.716 113.667 129.136C113.382 128.573 114.029 127.73 113.041 127.235C112.89 127.283 112.639 127.364 112.249 127.49L112.545 126.099L113.126 126.98C113.239 126.451 113.452 126.045 113.372 125.71C113.211 124.93 113.143 124.135 113.17 123.339C113.182 122.599 113.254 121.861 113.385 121.133C113.488 120.478 113.41 119.795 113.508 119.139C113.611 118.446 113.917 117.775 113.967 117.083C114.011 116.47 113.826 115.837 113.743 115.22Z" fill="#94FCC3"/>
<path d="M65.8621 88.6117L64.1308 88.1484C63.2018 88.6524 62.625 89.368 62.418 90.625C62.5777 90.79 62.873 91.0945 63.2212 91.4537C62.0192 92.5901 63.6983 93.5948 63.1236 94.5873C63.7306 96.3945 64.8411 97.9187 65.3072 99.7302C65.4124 99.9944 65.5523 100.243 65.7234 100.47C66.7073 102.2 67.5329 104.015 68.1902 105.893C68.6967 107.179 69.2959 108.426 69.9833 109.625C70.7283 110.926 71.2984 112.32 71.6788 113.77C71.7837 114.034 71.923 114.283 72.0932 114.511C72.6485 115.496 73.3327 116.433 73.7149 117.481C74.0233 118.325 74.5446 119.027 74.9333 119.806C75.604 121.151 76.5326 122.368 77.3658 123.631C78.2044 124.903 79.0136 126.198 79.9274 127.414C80.3079 127.921 80.9263 128.25 81.457 128.677L83.6396 127.217C84.1252 126.723 83.1092 126.137 83.0412 125.382L83.6275 124.932L83.7909 122.1C82.5393 119.325 81.2688 116.146 79.7142 113.077C78.9536 111.58 78.3473 110.009 77.9046 108.388C77.5882 107.217 76.8292 106.165 76.3031 105.04C74.9098 102.059 73.4658 99.052 71.6109 96.3512C69.87 93.8154 68.5816 90.9376 65.8621 88.6117Z" fill="#94FCC3"/>
<path d="M155.224 210.212L153.721 210.204L152.871 211.495L152.271 210.948L150.568 211.892L150.367 213.146L149.484 212.638L148.464 214.722L149.101 214.942L149.096 215.918C150.22 216.309 151.068 217.29 152.345 216.964C152.415 217.829 153.204 218.118 153.705 218.233C154.894 218.504 155.887 219.448 157.007 219.476C158.314 219.509 159.301 220.232 160.437 220.564C161.8 220.961 163.204 221.387 164.554 221.916C165.872 222.433 167.257 223.107 168.773 223.067C171.161 224.47 173.944 224.645 176.521 225.45C178.528 226.078 180.552 226.856 182.718 227.027C183.471 227.086 184.186 227.872 184.979 226.724C185.544 227.774 186.213 228.355 187.337 228.324C188.146 228.328 188.948 228.472 189.709 228.749C191.689 229.415 193.755 229.636 195.781 230.065C197.64 230.458 199.555 230.601 201.376 231.015C203.832 231.573 206.252 231.207 208.678 231.375C209.106 231.405 209.547 231.06 209.997 230.997C210.484 230.929 211.117 231.174 211.454 230.943C211.891 230.644 212.212 230.918 212.567 230.85C213.092 230.749 213.608 230.602 214.234 230.448C214.466 230.045 215.242 229.888 215.244 229.09C215.245 228.889 215.63 228.507 215.819 228.519C217.246 228.61 217.584 227.436 218.207 226.448C218.457 224.52 217.526 223.162 215.722 222.317C215.487 222.198 215.237 222.11 214.978 222.058C213.975 221.894 212.903 221.92 211.978 221.563C210.96 221.17 209.966 221.194 208.943 221.162C207.961 221.132 206.801 221.404 206.044 220.973C205.202 220.492 204.142 221.241 203.541 220.289C202.871 220.988 202.22 219.933 201.554 220.268C200.848 219.654 199.963 219.976 199.183 219.795C198.461 219.628 197.716 219.529 197.022 219.342C194.743 218.755 192.426 218.329 190.087 218.07C189.078 217.176 187.675 218.011 186.59 217.221C185.66 216.543 184.406 216.659 183.323 216.412C182.093 216.133 180.802 215.918 179.536 215.704C178.354 215.504 177.192 215.171 176.004 214.943C174.254 214.607 172.589 213.838 170.775 213.693C170.017 212.789 168.81 213.559 167.903 212.867C167.142 212.287 166.011 212.182 165.085 212.028C162.825 211.653 160.832 210.539 158.635 210.048C158.114 209.932 157.596 209.808 156.993 209.668C156.91 210.189 156.848 210.581 156.749 211.198L155.224 210.212Z" fill="#94FCC3"/>
<path d="M191.012 186.164C191.128 186.281 191.228 186.382 191.327 186.483L192.231 185.108C192.365 185.493 192.45 185.74 192.588 186.134C193.213 186.061 194.059 186.208 194.503 185.853C195.224 185.276 195.688 186.111 196.312 185.894C196.877 185.696 197.696 185.966 198.109 185.647C198.781 185.129 199.454 185.425 200.099 185.264C200.743 185.067 201.374 184.833 201.991 184.562L203.307 184.984L204.081 183.554C204.295 184.26 204.366 184.492 204.481 184.871C206.443 183.758 208.784 184.409 210.747 183.434C210.798 183.211 210.842 183.018 210.96 182.508C211.13 183.015 211.202 183.231 211.287 183.481L212.868 183.074C212.906 182.741 212.945 182.405 213.002 181.914L213.515 182.29L214.395 181.856L214.781 182.74C215.259 182.407 215.737 182.073 216.303 181.678C216.327 181.48 216.365 181.144 216.416 180.709L217.91 181.47C218.664 180.391 220.194 179.898 220.682 178.444L220.211 177.92C220.621 177.514 220.808 177.629 221.236 178.549C221.373 178.567 221.512 178.574 221.65 178.572C221.707 178.568 221.759 178.497 221.942 178.36C221.81 178.054 221.664 177.713 221.503 177.337L222.017 176.038L220.731 176.496C220.863 175.988 220.961 175.611 221.127 174.972L219.381 175.75L219.758 176.218L218.564 176.818L218.572 175.383L217.239 174.696L214.139 175.964C213.67 175.777 211.867 175.999 211.048 176.365L210.535 175.894L209.128 176.555L209.52 177.009C209.425 177.078 209.295 177.237 209.224 177.214C208.413 176.957 207.651 176.332 206.761 177.154C206.596 177.306 206.023 177.021 205.64 176.931C203.887 176.521 202.275 176.762 200.852 177.893C200.522 177.801 200.16 177.617 199.8 177.622C199.377 177.628 198.7 178.009 198.578 177.86C197.944 177.092 197.606 178.022 197.131 178.025C196.657 178.003 196.184 178.088 195.747 178.273C194.915 178.646 193.933 178.72 193.004 178.832C189.885 179.204 186.807 179.854 183.804 180.774C181.473 181.488 179.099 182.075 176.856 183.034C175.346 183.68 173.704 184.277 172.514 185.337C171.439 186.295 170.167 187.141 169.325 188.51C169.441 188.695 169.582 188.919 169.744 189.177L169.376 189.596L170.953 191.106C171.606 190.912 172.287 190.641 172.674 189.705C172.752 190.243 172.808 190.635 172.868 191.058L173.476 191.061C173.584 190.783 173.679 190.539 173.776 190.289L174.502 190.757L175.137 190.287L176.158 191.245C176.679 190.61 177.043 190.041 177.529 189.61C178.002 189.192 178.981 189.604 179.211 188.524C179.125 188.39 178.984 188.168 178.763 187.822L180.184 187.757L179.479 188.541C180.018 188.517 180.465 188.62 180.77 188.458C181.483 188.105 182.236 187.838 183.012 187.663C183.731 187.487 184.463 187.37 185.201 187.313C185.861 187.247 186.501 186.999 187.161 186.927C187.858 186.851 188.584 186.978 189.266 186.851C189.871 186.739 190.436 186.4 191.012 186.164Z" fill="#94FCC3"/>
<path d="M204.642 133.109L204.652 131.316C203.929 130.545 203.091 130.168 201.823 130.286C201.704 130.482 201.484 130.845 201.224 131.273C199.821 130.397 199.274 132.276 198.168 131.971C196.573 133.015 195.379 134.475 193.745 135.385C193.516 135.553 193.31 135.751 193.134 135.974C191.71 137.364 190.162 138.622 188.512 139.733C187.396 140.548 186.34 141.443 185.354 142.412C184.284 143.462 183.08 144.366 181.773 145.101C181.544 145.269 181.339 145.467 181.162 145.689C180.349 146.475 179.615 147.374 178.698 148.009C177.96 148.521 177.413 149.203 176.758 149.776C175.626 150.765 174.683 151.972 173.672 153.097C172.654 154.23 171.606 155.341 170.66 156.532C170.266 157.029 170.104 157.711 169.825 158.332L171.789 160.074C172.391 160.419 172.7 159.288 173.414 159.031L173.997 159.484L176.779 158.926C179.147 157.013 181.9 154.98 184.476 152.699C185.733 151.585 187.1 150.601 188.555 149.762C189.608 149.16 190.434 148.16 191.389 147.366C193.921 145.264 196.465 143.106 198.608 140.628C200.621 138.303 203.08 136.328 204.642 133.109Z" fill="#94FCC3"/>
<path d="M64.9861 29.7395L63.2548 29.2762C62.3258 29.7802 61.7491 30.4958 61.542 31.7528C61.7017 31.9177 61.997 32.2222 62.3452 32.5814C61.1433 33.7179 62.8224 34.7225 62.2476 35.715C62.8547 37.5223 63.9652 39.0464 64.4313 40.858C64.5364 41.1221 64.6764 41.371 64.8474 41.5981C65.8313 43.3277 66.6569 45.1426 67.3143 47.0207C67.8207 48.3067 68.42 49.5541 69.1073 50.7531C69.8524 52.0542 70.4225 53.4479 70.8028 54.8982C70.9077 55.1622 71.0471 55.4111 71.2173 55.6385C71.7725 56.6232 72.4568 57.5609 72.8389 58.6086C73.1473 59.4524 73.6686 60.1547 74.0574 60.9332C74.728 62.2785 75.6566 63.4961 76.4898 64.7591C77.3285 66.0306 78.1376 67.3254 79.0514 68.5414C79.4319 69.0484 80.0503 69.3781 80.581 69.8049L82.7636 68.3451C83.2492 67.8507 82.2332 67.2647 82.1653 66.5096L82.7516 66.0598L82.9149 63.2277C81.6633 60.4529 80.3928 57.2742 78.8382 54.2052C78.0777 52.7075 77.4713 51.1363 77.0286 49.5159C76.7122 48.3452 75.9533 47.2931 75.4272 46.1679C74.0339 43.1869 72.5899 40.1797 70.735 37.479C68.994 34.9432 67.7057 32.0654 64.9861 29.7395Z" fill="#94FCC3"/>
<path d="M261.378 117.367L261.389 115.575C260.666 114.804 259.828 114.427 258.559 114.545C258.44 114.741 258.22 115.104 257.961 115.531C256.557 114.656 256.01 116.535 254.904 116.23C253.31 117.274 252.116 118.734 250.481 119.643C250.252 119.812 250.047 120.01 249.87 120.233C248.446 121.623 246.899 122.881 245.248 123.992C244.132 124.807 243.077 125.702 242.091 126.671C241.021 127.721 239.816 128.625 238.51 129.36C238.281 129.528 238.075 129.726 237.898 129.948C237.086 130.734 236.352 131.633 235.435 132.268C234.697 132.78 234.149 133.462 233.494 134.035C232.362 135.024 231.419 136.231 230.408 137.356C229.39 138.489 228.342 139.6 227.397 140.791C227.003 141.288 226.84 141.969 226.561 142.591L228.526 144.333C229.127 144.678 229.437 143.547 230.15 143.29L230.734 143.743L233.515 143.185C235.883 141.272 238.637 139.239 241.213 136.958C242.469 135.844 243.836 134.859 245.292 134.021C246.344 133.419 247.17 132.419 248.126 131.625C250.657 129.523 253.201 127.365 255.345 124.887C257.358 122.561 259.816 120.587 261.378 117.367Z" fill="#94FCC3"/>
<path d="M157.989 30.0486L156.603 27.8065C155.1 27.4092 153.761 27.5938 152.271 28.7307C152.276 29.0685 152.285 29.6923 152.296 30.4281C149.863 30.4326 150.647 33.2017 149.031 33.6846C147.858 36.2318 147.51 38.9836 146.182 41.3933C146.028 41.7821 145.927 42.1897 145.881 42.6054C145.191 45.4494 144.244 48.2253 143.054 50.899C142.299 52.7866 141.683 54.7265 141.209 56.7035C140.695 58.8479 139.9 60.9151 138.845 62.8514C138.691 63.2398 138.589 63.6469 138.542 64.062C138.143 65.6763 137.93 67.3703 137.283 68.8774C136.762 70.0919 136.612 71.3696 136.243 72.5952C135.604 74.7118 135.37 76.952 134.989 79.1445C134.604 81.3516 134.165 83.554 133.917 85.7775C133.813 86.704 134.143 87.6807 134.28 88.6729L138.089 89.311C139.108 89.2715 138.611 87.6194 139.3 86.7424L140.381 86.8521L143.412 83.9846C144.871 79.7514 146.716 75.0668 148.147 70.2132C148.843 67.8425 149.778 65.5488 150.938 63.3675C151.78 61.795 152.029 59.9031 152.6 58.1678C154.115 53.571 155.601 48.895 156.339 44.1327C157.033 39.662 158.555 35.2815 157.989 30.0486Z" fill="#94FCC3"/>
<path d="M284.607 207.426L286.425 205.518C286.429 203.963 285.912 202.714 284.435 201.561C284.11 201.651 283.509 201.817 282.799 202.014C282.179 199.661 279.699 201.121 278.823 199.679C276.062 199.189 273.311 199.548 270.644 198.873C270.229 198.823 269.809 198.828 269.395 198.889C266.469 198.94 263.544 198.726 260.656 198.251C258.639 197.999 256.606 197.893 254.574 197.935C252.369 197.98 250.168 197.734 248.028 197.203C247.613 197.152 247.193 197.156 246.78 197.216C245.117 197.239 243.425 197.461 241.803 197.216C240.496 197.019 239.222 197.197 237.943 197.15C235.733 197.068 233.507 197.409 231.289 197.594C229.057 197.78 226.815 197.912 224.601 198.235C223.678 198.369 222.817 198.935 221.892 199.319L222.238 203.166C222.534 204.141 224.006 203.243 225.029 203.687L225.197 204.761L228.738 206.968C233.202 207.308 238.201 207.908 243.259 208.064C245.728 208.138 248.184 208.463 250.588 209.034C252.322 209.45 254.216 209.212 256.039 209.326C260.869 209.628 265.769 209.884 270.563 209.393C275.064 208.932 279.687 209.298 284.607 207.426Z" fill="#94FCC3"/>
<path d="M219.954 79.3793L219.61 76.7658C218.402 75.7869 217.105 75.4058 215.28 75.8315C215.146 76.1414 214.898 76.7141 214.606 77.3894C212.385 76.3954 211.965 79.2425 210.293 79.0198C208.178 80.8616 206.732 83.2284 204.532 84.881C204.232 85.1725 203.973 85.5028 203.76 85.863C201.964 88.1732 199.962 90.3164 197.779 92.2664C196.317 93.6782 194.958 95.1944 193.716 96.8031C192.367 98.5477 190.794 100.107 189.037 101.44C188.737 101.731 188.477 102.06 188.264 102.419C187.238 103.728 186.349 105.185 185.14 106.294C184.167 107.188 183.506 108.292 182.666 109.258C181.215 110.926 180.083 112.873 178.836 114.716C177.58 116.571 176.275 118.399 175.137 120.326C174.662 121.128 174.562 122.154 174.28 123.115L177.492 125.26C178.437 125.642 178.662 123.931 179.65 123.414L180.591 123.958L184.532 122.586C187.598 119.324 191.203 115.809 194.499 111.97C196.107 110.093 197.901 108.385 199.854 106.872C201.267 105.783 202.27 104.16 203.503 102.812C206.77 99.2412 210.044 95.5868 212.671 91.5465C215.137 87.7538 218.324 84.3838 219.954 79.3793Z" fill="#94FCC3"/>
<path d="M252.557 279.854L254.998 278.859C255.64 277.443 255.68 276.092 254.807 274.434C254.473 274.383 253.856 274.288 253.129 274.176C253.529 271.776 250.668 272.09 250.46 270.416C248.143 268.836 245.488 268.035 243.332 266.325C242.975 266.109 242.589 265.941 242.187 265.827C239.498 264.673 236.918 263.278 234.479 261.66C232.743 260.602 230.933 259.672 229.062 258.877C227.033 258.013 225.126 256.885 223.393 255.523C223.035 255.306 222.651 255.138 222.249 255.023C220.723 254.361 219.089 253.87 217.71 252.981C216.599 252.265 215.364 251.905 214.217 251.337C212.236 250.356 210.066 249.753 207.967 249.012C205.854 248.266 203.756 247.467 201.604 246.853C200.708 246.596 199.69 246.759 198.689 246.73L197.427 250.38C197.296 251.391 199.008 251.175 199.758 252L199.47 253.048L201.794 256.514C205.726 258.656 210.039 261.254 214.587 263.472C216.809 264.552 218.915 265.856 220.873 267.362C222.284 268.454 224.108 269.013 225.724 269.865C230.006 272.123 234.369 274.366 238.943 275.885C243.236 277.312 247.302 279.542 252.557 279.854Z" fill="#94FCC3"/>
</svg>
