<svg width="278" height="119" viewBox="0 0 278 119" fill="none" xmlns="http://www.w3.org/2000/svg">
<path d="M70.3942 33.5979C70.3942 31.7043 70.3942 29.8108 70.3942 27.9173C70.3942 26.2928 68.0145 24.809 66.5357 24.809C66.0561 24.809 64.8139 24.5898 64.5588 25.0234C64.1027 25.7987 63.4003 26.039 62.7963 26.643C61.5248 27.9144 60.7287 29.405 60.1048 31.1208C58.4134 35.7721 57.5422 40.6818 55.8652 45.3402C55.6295 45.9948 55.2171 46.5931 55.1745 47.3171C55.1323 48.0349 54.3542 48.5991 55.5079 47.8649C56.7887 47.0498 59.1019 46.7702 60.5812 46.5073C62.1769 46.2236 63.9255 46.1938 65.4758 45.7094C68.0685 44.8991 70.9933 44.2449 73.3477 42.8155C75.0683 41.7708 77.3243 41.4057 78.8734 40.0288C79.9858 39.04 81.3267 38.5694 81.3267 36.9205C81.3267 35.4404 79.794 34.0266 78.2184 34.0266C76.7378 34.0266 75.3755 33.3835 73.824 33.3835C72.8884 33.3835 72.4085 33.6147 71.5732 33.8003C71.294 33.8624 70.5273 34.3156 70.3108 34.2291C70.2549 34.2067 71.295 33.7215 71.466 33.6455C72.4363 33.2143 73.6955 33.3835 74.7291 33.3835C75.6213 33.3835 76.7071 33.2025 77.5754 33.3954C79.3834 33.7972 79.3974 35.0674 79.3974 36.6942C79.3974 37.3047 78.4555 38.5044 77.8016 38.5044C77.4848 38.5044 77.8119 36.1398 77.6349 35.7415C77.5413 35.531 77.1095 33.7949 76.7775 34.7173C76.2943 36.0595 76.2854 37.5851 75.8605 38.945C75.7839 39.1901 75.4285 41.0768 75.2174 41.0768C74.9575 41.0768 74.8958 38.21 74.8958 37.8851C74.8958 36.4783 74.1162 33.3036 72.7522 35.9559C72.2514 36.9297 72.0044 37.9992 71.5137 38.9808C71.2195 39.5692 70.8729 40.1647 70.8229 40.8386C70.7598 41.6909 70.1798 43.1185 70.1798 41.3983C70.1798 40.2104 69.9501 38.5628 70.4418 37.4564C70.5471 37.2196 70.8665 35.2181 70.4895 35.1103C69.4579 34.8156 68.9568 38.1304 68.7984 38.7188C68.4339 40.0726 67.7685 41.6613 67.6075 43.0298C67.5401 43.6025 67.3931 43.1907 67.3931 42.8155C67.3931 41.9878 67.2988 41.0848 67.5003 40.2788C67.7636 39.2256 68.2506 38.1279 68.2506 37.0277C68.2506 36.1702 68.2506 35.3128 68.2506 34.4553C68.2506 33.1002 67.517 36.0393 67.3931 36.5037C66.8356 38.5945 66.2426 40.7866 65.6901 42.7202C65.5367 43.2574 65.193 43.7098 65.0471 44.2207C64.6574 45.5847 65.1439 41.3733 65.4162 39.9811C65.9228 37.3921 66.2068 34.3045 67.2264 31.883C67.8885 30.3106 68.0362 28.5687 68.0362 26.8455C68.0362 25.8713 68.0456 25.0677 67.5599 26.4763C66.9342 28.2908 66.6215 30.1162 66.2141 31.9902C65.8316 33.7496 66.0013 35.8877 65.3567 37.5636C64.9753 38.5553 65.2018 39.7074 64.7732 40.6718C64.2455 41.8591 64.3606 43.6051 63.5822 44.578C63.3357 44.8862 63.2699 46.6206 62.9392 45.1735C62.6172 43.7648 62.8915 42.0106 62.8915 40.5647C62.8915 37.6902 63.1059 34.7631 63.1059 31.9306C63.1059 30.2001 63.6472 27.5218 64.4992 25.988C64.6529 25.7114 65.0694 23.6692 64.6541 25.071C64.2402 26.468 63.749 28.2922 63.749 29.7513C63.749 32.6741 62.7798 35.7039 61.9864 38.4806C61.4471 40.3681 61.1353 42.5868 60.3668 44.316C60.2491 44.5808 59.6761 46.517 59.6761 44.9591C59.6761 43.4586 59.6761 41.958 59.6761 40.4575C59.6761 38.7982 59.6761 37.1388 59.6761 35.4795C59.6761 34.713 59.6215 33.739 59.9976 33.062C60.2338 32.6369 60.7479 31.4053 60.7479 30.9422C60.7479 29.1736 60.0716 34.4165 59.8428 36.1702C59.5945 38.0738 59.1735 39.9572 59.0211 41.8627C58.9514 42.7344 58.7321 43.9651 58.3423 44.7447C57.8691 45.6912 57.3181 45.7557 57.3181 44.578C57.3181 41.7744 59.2741 38.915 60.7479 36.599C61.5388 35.3561 62.2478 34.0817 62.8439 32.7404C63.1517 32.0478 63.046 31.1761 63.4274 30.4896C64.1057 29.2688 65.1497 28.2041 65.845 26.9526C65.9953 26.6821 66.1954 26.3659 66.369 26.1428C66.3717 26.1393 65.8074 26.9997 65.6782 27.2742C64.555 29.6611 64.1777 32.2685 64.1777 34.9079C64.1777 38.6442 63.1059 42.1917 63.1059 45.8999C63.1059 46.1806 63.0526 45.2878 63.225 45.0663C63.5069 44.7039 63.6517 44.2173 63.9633 43.8873C64.5434 43.2731 64.7883 42.3985 65.5591 41.958C66.1427 41.6246 66.6992 40.4762 67.0597 39.9097C67.8298 38.6995 68.0739 36.901 68.4173 35.5271C68.8434 33.823 69.3224 32.2515 69.3224 30.4896C69.3224 29.8614 69.5368 29.2645 69.5368 28.5604C69.5368 27.8504 69.5766 28.4633 69.4296 28.7866C68.9313 29.8829 69.1782 31.2912 69.0604 32.4546C68.8452 34.5797 68.8937 36.7025 68.8937 38.8379C68.8937 39.8978 69.0719 40.0879 69.7035 40.7195C71.0045 42.0205 72.5302 40.6987 72.9666 39.1713C73.2101 38.3189 73.6096 37.7262 73.6096 36.8133C73.6096 36.123 73.6096 38.5313 73.6096 38.9689C73.6096 40.0645 73.6096 41.1601 73.6096 42.2557C73.6096 42.4755 73.7882 41.851 73.8359 41.6365C73.9297 41.2147 74.402 40.856 74.6815 40.5766C75.5463 39.7117 77.8039 37.8084 76.3011 36.3846C75.0087 35.1603 72.7019 35.4073 71.1445 35.7534C68.5136 36.3381 66.3209 39.149 64.9042 41.2197C63.4473 43.3489 61.7883 45.4157 59.8905 47.1027C59.4055 47.5338 59.3536 46.9405 59.7237 46.674C60.3872 46.1963 61.1147 45.8475 61.8435 45.4831C63.7645 44.5226 65.7653 44.2076 67.8219 43.7206C70.1905 43.1596 72.5451 43.1589 74.7648 42.1724C75.997 41.6247 74.7277 41.087 74.0384 40.9338C71.4235 40.3528 68.5829 41.1749 65.9164 40.5528C64.6867 40.2658 62.9511 39.874 62.6891 38.433C62.4361 37.0418 62.4628 35.2361 62.4628 33.8122C62.4628 32.93 63.0351 26.523 61.1766 29.3106" stroke="#8CE5B5" stroke-width="2" stroke-linecap="round"/>
<path d="M170.394 33.5979C170.394 31.7043 170.394 29.8108 170.394 27.9173C170.394 26.2928 168.015 24.809 166.536 24.809C166.056 24.809 164.814 24.5898 164.559 25.0234C164.103 25.7987 163.4 26.039 162.796 26.643C161.525 27.9144 160.729 29.405 160.105 31.1208C158.413 35.7721 157.542 40.6818 155.865 45.3402C155.63 45.9948 155.217 46.5931 155.174 47.3171C155.132 48.0349 154.354 48.5991 155.508 47.8649C156.789 47.0498 159.102 46.7702 160.581 46.5073C162.177 46.2236 163.925 46.1938 165.476 45.7094C168.069 44.8991 170.993 44.2449 173.348 42.8155C175.068 41.7708 177.324 41.4057 178.873 40.0288C179.986 39.04 181.327 38.5694 181.327 36.9205C181.327 35.4404 179.794 34.0266 178.218 34.0266C176.738 34.0266 175.376 33.3835 173.824 33.3835C172.888 33.3835 172.409 33.6147 171.573 33.8003C171.294 33.8624 170.527 34.3156 170.311 34.2291C170.255 34.2067 171.295 33.7215 171.466 33.6455C172.436 33.2143 173.695 33.3835 174.729 33.3835C175.621 33.3835 176.707 33.2025 177.575 33.3954C179.383 33.7972 179.397 35.0674 179.397 36.6942C179.397 37.3047 178.455 38.5044 177.802 38.5044C177.485 38.5044 177.812 36.1398 177.635 35.7415C177.541 35.531 177.11 33.7949 176.777 34.7173C176.294 36.0595 176.285 37.5851 175.86 38.945C175.784 39.1901 175.428 41.0768 175.217 41.0768C174.958 41.0768 174.896 38.21 174.896 37.8851C174.896 36.4783 174.116 33.3036 172.752 35.9559C172.251 36.9297 172.004 37.9992 171.514 38.9808C171.219 39.5692 170.873 40.1647 170.823 40.8386C170.76 41.6909 170.18 43.1185 170.18 41.3983C170.18 40.2104 169.95 38.5628 170.442 37.4564C170.547 37.2196 170.867 35.2181 170.489 35.1103C169.458 34.8156 168.957 38.1304 168.798 38.7188C168.434 40.0726 167.768 41.6613 167.608 43.0298C167.54 43.6025 167.393 43.1907 167.393 42.8155C167.393 41.9878 167.299 41.0848 167.5 40.2788C167.764 39.2256 168.251 38.1279 168.251 37.0277C168.251 36.1702 168.251 35.3128 168.251 34.4553C168.251 33.1002 167.517 36.0393 167.393 36.5037C166.836 38.5945 166.243 40.7866 165.69 42.7202C165.537 43.2574 165.193 43.7098 165.047 44.2207C164.657 45.5847 165.144 41.3733 165.416 39.9811C165.923 37.3921 166.207 34.3045 167.226 31.883C167.888 30.3106 168.036 28.5687 168.036 26.8455C168.036 25.8713 168.046 25.0677 167.56 26.4763C166.934 28.2908 166.622 30.1162 166.214 31.9902C165.832 33.7496 166.001 35.8877 165.357 37.5636C164.975 38.5553 165.202 39.7074 164.773 40.6718C164.245 41.8591 164.361 43.6051 163.582 44.578C163.336 44.8862 163.27 46.6206 162.939 45.1735C162.617 43.7648 162.892 42.0106 162.892 40.5647C162.892 37.6902 163.106 34.7631 163.106 31.9306C163.106 30.2001 163.647 27.5218 164.499 25.988C164.653 25.7114 165.069 23.6692 164.654 25.071C164.24 26.468 163.749 28.2922 163.749 29.7513C163.749 32.6741 162.78 35.7039 161.986 38.4806C161.447 40.3681 161.135 42.5868 160.367 44.316C160.249 44.5808 159.676 46.517 159.676 44.9591C159.676 43.4586 159.676 41.958 159.676 40.4575C159.676 38.7982 159.676 37.1388 159.676 35.4795C159.676 34.713 159.622 33.739 159.998 33.062C160.234 32.6369 160.748 31.4053 160.748 30.9422C160.748 29.1736 160.072 34.4165 159.843 36.1702C159.595 38.0738 159.174 39.9572 159.021 41.8627C158.951 42.7344 158.732 43.9651 158.342 44.7447C157.869 45.6912 157.318 45.7557 157.318 44.578C157.318 41.7744 159.274 38.915 160.748 36.599C161.539 35.3561 162.248 34.0817 162.844 32.7404C163.152 32.0478 163.046 31.1761 163.427 30.4896C164.106 29.2688 165.15 28.2041 165.845 26.9526C165.995 26.6821 166.195 26.3659 166.369 26.1428C166.372 26.1393 165.807 26.9997 165.678 27.2742C164.555 29.6611 164.178 32.2685 164.178 34.9079C164.178 38.6442 163.106 42.1917 163.106 45.8999C163.106 46.1806 163.053 45.2878 163.225 45.0663C163.507 44.7039 163.652 44.2173 163.963 43.8873C164.543 43.2731 164.788 42.3985 165.559 41.958C166.143 41.6246 166.699 40.4762 167.06 39.9097C167.83 38.6995 168.074 36.901 168.417 35.5271C168.843 33.823 169.322 32.2515 169.322 30.4896C169.322 29.8614 169.537 29.2645 169.537 28.5604C169.537 27.8504 169.577 28.4633 169.43 28.7866C168.931 29.8829 169.178 31.2912 169.06 32.4546C168.845 34.5797 168.894 36.7025 168.894 38.8379C168.894 39.8978 169.072 40.0879 169.703 40.7195C171.005 42.0205 172.53 40.6987 172.967 39.1713C173.21 38.3189 173.61 37.7262 173.61 36.8133C173.61 36.123 173.61 38.5313 173.61 38.9689C173.61 40.0645 173.61 41.1601 173.61 42.2557C173.61 42.4755 173.788 41.851 173.836 41.6365C173.93 41.2147 174.402 40.856 174.681 40.5766C175.546 39.7117 177.804 37.8084 176.301 36.3846C175.009 35.1603 172.702 35.4073 171.144 35.7534C168.514 36.3381 166.321 39.149 164.904 41.2197C163.447 43.3489 161.788 45.4157 159.89 47.1027C159.406 47.5338 159.354 46.9405 159.724 46.674C160.387 46.1963 161.115 45.8475 161.844 45.4831C163.765 44.5226 165.765 44.2076 167.822 43.7206C170.191 43.1596 172.545 43.1589 174.765 42.1724C175.997 41.6247 174.728 41.087 174.038 40.9338C171.424 40.3528 168.583 41.1749 165.916 40.5528C164.687 40.2658 162.951 39.874 162.689 38.433C162.436 37.0418 162.463 35.2361 162.463 33.8122C162.463 32.93 163.035 26.523 161.177 29.3106" stroke="#8CE5B5" stroke-width="2" stroke-linecap="round"/>
<path d="M266.06 33.5979C266.06 31.7043 266.06 29.8108 266.06 27.9173C266.06 26.2928 263.681 24.809 262.202 24.809C261.722 24.809 260.48 24.5898 260.225 25.0234C259.769 25.7987 259.066 26.039 258.462 26.643C257.191 27.9144 256.395 29.405 255.771 31.1208C254.079 35.7721 253.208 40.6818 251.531 45.3402C251.296 45.9948 250.883 46.5931 250.84 47.3171C250.798 48.0349 250.02 48.5991 251.174 47.8649C252.455 47.0498 254.768 46.7702 256.247 46.5073C257.843 46.2236 259.591 46.1938 261.142 45.7094C263.735 44.8991 266.659 44.2449 269.014 42.8155C270.734 41.7708 272.99 41.4057 274.539 40.0288C275.652 39.04 276.993 38.5694 276.993 36.9205C276.993 35.4404 275.46 34.0266 273.884 34.0266C272.404 34.0266 271.042 33.3835 269.49 33.3835C268.554 33.3835 268.075 33.6147 267.239 33.8003C266.96 33.8624 266.193 34.3156 265.977 34.2291C265.921 34.2067 266.961 33.7215 267.132 33.6455C268.102 33.2143 269.361 33.3835 270.395 33.3835C271.287 33.3835 272.373 33.2025 273.241 33.3954C275.049 33.7972 275.063 35.0674 275.063 36.6942C275.063 37.3047 274.122 38.5044 273.468 38.5044C273.151 38.5044 273.478 36.1398 273.301 35.7415C273.207 35.531 272.776 33.7949 272.443 34.7173C271.96 36.0595 271.951 37.5851 271.526 38.945C271.45 39.1901 271.094 41.0768 270.883 41.0768C270.624 41.0768 270.562 38.21 270.562 37.8851C270.562 36.4783 269.782 33.3036 268.418 35.9559C267.917 36.9297 267.67 37.9992 267.18 38.9808C266.885 39.5692 266.539 40.1647 266.489 40.8386C266.426 41.6909 265.846 43.1185 265.846 41.3983C265.846 40.2104 265.616 38.5628 266.108 37.4564C266.213 37.2196 266.533 35.2181 266.156 35.1103C265.124 34.8156 264.623 38.1304 264.464 38.7188C264.1 40.0726 263.435 41.6613 263.274 43.0298C263.206 43.6025 263.059 43.1907 263.059 42.8155C263.059 41.9878 262.965 41.0848 263.166 40.2788C263.43 39.2256 263.917 38.1279 263.917 37.0277C263.917 36.1702 263.917 35.3128 263.917 34.4553C263.917 33.1002 263.183 36.0393 263.059 36.5037C262.502 38.5945 261.909 40.7866 261.356 42.7202C261.203 43.2574 260.859 43.7098 260.713 44.2207C260.323 45.5847 260.81 41.3733 261.082 39.9811C261.589 37.3921 261.873 34.3045 262.892 31.883C263.554 30.3106 263.702 28.5687 263.702 26.8455C263.702 25.8713 263.712 25.0677 263.226 26.4763C262.6 28.2908 262.288 30.1162 261.88 31.9902C261.498 33.7496 261.667 35.8877 261.023 37.5636C260.641 38.5553 260.868 39.7074 260.439 40.6718C259.911 41.8591 260.027 43.6051 259.248 44.578C259.002 44.8862 258.936 46.6206 258.605 45.1735C258.283 43.7648 258.558 42.0106 258.558 40.5647C258.558 37.6902 258.772 34.7631 258.772 31.9306C258.772 30.2001 259.313 27.5218 260.165 25.988C260.319 25.7114 260.735 23.6692 260.32 25.071C259.906 26.468 259.415 28.2922 259.415 29.7513C259.415 32.6741 258.446 35.7039 257.652 38.4806C257.113 40.3681 256.801 42.5868 256.033 44.316C255.915 44.5808 255.342 46.517 255.342 44.9591C255.342 43.4586 255.342 41.958 255.342 40.4575C255.342 38.7982 255.342 37.1388 255.342 35.4795C255.342 34.713 255.288 33.739 255.664 33.062C255.9 32.6369 256.414 31.4053 256.414 30.9422C256.414 29.1736 255.738 34.4165 255.509 36.1702C255.261 38.0738 254.84 39.9572 254.687 41.8627C254.617 42.7344 254.398 43.9651 254.008 44.7447C253.535 45.6912 252.984 45.7557 252.984 44.578C252.984 41.7744 254.94 38.915 256.414 36.599C257.205 35.3561 257.914 34.0817 258.51 32.7404C258.818 32.0478 258.712 31.1761 259.093 30.4896C259.772 29.2688 260.816 28.2041 261.511 26.9526C261.661 26.6821 261.861 26.3659 262.035 26.1428C262.038 26.1393 261.473 26.9997 261.344 27.2742C260.221 29.6611 259.844 32.2685 259.844 34.9079C259.844 38.6442 258.772 42.1917 258.772 45.8999C258.772 46.1806 258.719 45.2878 258.891 45.0663C259.173 44.7039 259.318 44.2173 259.629 43.8873C260.209 43.2731 260.454 42.3985 261.225 41.958C261.809 41.6246 262.365 40.4762 262.726 39.9097C263.496 38.6995 263.74 36.901 264.083 35.5271C264.509 33.823 264.988 32.2515 264.988 30.4896C264.988 29.8614 265.203 29.2645 265.203 28.5604C265.203 27.8504 265.243 28.4633 265.096 28.7866C264.597 29.8829 264.844 31.2912 264.726 32.4546C264.511 34.5797 264.56 36.7025 264.56 38.8379C264.56 39.8978 264.738 40.0879 265.37 40.7195C266.671 42.0205 268.196 40.6987 268.633 39.1713C268.876 38.3189 269.276 37.7262 269.276 36.8133C269.276 36.123 269.276 38.5313 269.276 38.9689C269.276 40.0645 269.276 41.1601 269.276 42.2557C269.276 42.4755 269.454 41.851 269.502 41.6365C269.596 41.2147 270.068 40.856 270.347 40.5766C271.212 39.7117 273.47 37.8084 271.967 36.3846C270.675 35.1603 268.368 35.4073 266.81 35.7534C264.18 36.3381 261.987 39.149 260.57 41.2197C259.113 43.3489 257.454 45.4157 255.556 47.1027C255.072 47.5338 255.02 46.9405 255.39 46.674C256.053 46.1963 256.781 45.8475 257.51 45.4831C259.431 44.5226 261.431 44.2076 263.488 43.7206C265.857 43.1596 268.211 43.1589 270.431 42.1724C271.663 41.6247 270.394 41.087 269.704 40.9338C267.09 40.3528 264.249 41.1749 261.582 40.5528C260.353 40.2658 258.617 39.874 258.355 38.433C258.102 37.0418 258.129 35.2361 258.129 33.8122C258.129 32.93 258.701 26.523 256.843 29.3106" stroke="#8CE5B5" stroke-width="2" stroke-linecap="round"/>
<path d="M115.515 10.0139C115.515 8.12037 115.515 6.22683 115.515 4.3333C115.515 2.70886 113.136 1.22504 111.657 1.22504C111.177 1.22504 109.935 1.00578 109.68 1.4394C109.224 2.21476 108.521 2.45503 107.917 3.05903C106.646 4.33046 105.85 5.821 105.226 7.53682C103.535 12.1881 102.663 17.0979 100.986 21.7562C100.751 22.4108 100.338 23.0091 100.296 23.7331C100.253 24.4509 99.4753 25.0151 100.629 24.2809C101.91 23.4658 104.223 23.1863 105.702 22.9233C107.298 22.6396 109.047 22.6099 110.597 22.1254C113.19 21.3152 116.114 20.6609 118.469 19.2315C120.189 18.1868 122.445 17.8218 123.995 16.4448C125.107 15.456 126.448 14.9854 126.448 13.3365C126.448 11.8564 124.915 10.4426 123.34 10.4426C121.859 10.4426 120.497 9.79954 118.945 9.79954C118.01 9.79954 117.53 10.0307 116.694 10.2164C116.415 10.2784 115.648 10.7316 115.432 10.6451C115.376 10.6227 116.416 10.1375 116.587 10.0615C117.557 9.6303 118.817 9.79954 119.85 9.79954C120.742 9.79954 121.828 9.61851 122.696 9.81145C124.504 10.2132 124.519 11.4834 124.519 13.1102C124.519 13.7207 123.577 14.9204 122.923 14.9204C122.606 14.9204 122.933 12.5558 122.756 12.1575C122.662 11.947 122.231 10.2109 121.899 11.1333C121.415 12.4755 121.407 14.0011 120.982 15.3611C120.905 15.6061 120.55 17.4928 120.338 17.4928C120.079 17.4928 120.017 14.626 120.017 14.3012C120.017 12.8943 119.237 9.71966 117.873 12.3719C117.372 13.3457 117.126 14.4152 116.635 15.3968C116.341 15.9852 115.994 16.5808 115.944 17.2546C115.881 18.107 115.301 19.5346 115.301 17.8143C115.301 16.6264 115.071 14.9788 115.563 13.8724C115.668 13.6356 115.988 11.6341 115.611 11.5263C114.579 11.2316 114.078 14.5464 113.919 15.1348C113.555 16.4887 112.89 18.0774 112.729 19.4459C112.661 20.0185 112.514 19.6067 112.514 19.2315C112.514 18.4038 112.42 17.5008 112.621 16.6949C112.885 15.6416 113.372 14.5439 113.372 13.4437C113.372 12.5863 113.372 11.7288 113.372 10.8714C113.372 9.51626 112.638 12.4554 112.514 12.9197C111.957 15.0105 111.364 17.2027 110.811 19.1362C110.658 19.6734 110.314 20.1258 110.168 20.6368C109.778 22.0007 110.265 17.7893 110.537 16.3971C111.044 13.8081 111.328 10.7205 112.348 8.299C113.01 6.72663 113.157 4.98473 113.157 3.26148C113.157 2.28734 113.167 1.4837 112.681 2.8923C112.055 4.70678 111.743 6.53223 111.335 8.40618C110.953 10.1657 111.122 12.3038 110.478 13.9796C110.096 14.9713 110.323 16.1234 109.894 17.0879C109.367 18.2751 109.482 20.0211 108.703 20.994C108.457 21.3022 108.391 23.0366 108.06 21.5895C107.738 20.1808 108.013 18.4266 108.013 16.9807C108.013 14.1063 108.227 11.1791 108.227 8.34664C108.227 6.61616 108.768 3.93777 109.62 2.40403C109.774 2.1274 110.191 0.0851862 109.775 1.48704C109.361 2.88399 108.87 4.70825 108.87 6.16729C108.87 9.09015 107.901 12.1199 107.108 14.8966C106.568 16.7842 106.256 19.0028 105.488 20.732C105.37 20.9968 104.797 22.933 104.797 21.3751C104.797 19.8746 104.797 18.374 104.797 16.8735C104.797 15.2142 104.797 13.5549 104.797 11.8955C104.797 11.129 104.743 10.155 105.119 9.47799C105.355 9.05288 105.869 7.82135 105.869 7.35819C105.869 5.58958 105.193 10.8325 104.964 12.5863C104.716 14.4899 104.295 16.3732 104.142 18.2788C104.072 19.1504 103.853 20.3811 103.463 21.1607C102.99 22.1072 102.439 22.1717 102.439 20.994C102.439 18.1904 104.395 15.331 105.869 13.015C106.66 11.7722 107.369 10.4977 107.965 9.15645C108.273 8.46378 108.167 7.59216 108.549 6.90564C109.227 5.6848 110.271 4.62007 110.966 3.36866C111.116 3.09813 111.317 2.78195 111.49 2.55885C111.493 2.55535 110.928 3.41573 110.799 3.69021C109.676 6.07714 109.299 8.68452 109.299 11.3239C109.299 15.0602 108.227 18.6077 108.227 22.3159C108.227 22.5966 108.174 21.7039 108.346 21.4823C108.628 21.1199 108.773 20.6333 109.084 20.3033C109.664 19.6891 109.909 18.8145 110.68 18.374C111.264 18.0406 111.82 16.8922 112.181 16.3257C112.951 15.1155 113.195 13.317 113.538 11.9432C113.964 10.239 114.443 8.66752 114.443 6.90564C114.443 6.27741 114.658 5.68054 114.658 4.97638C114.658 4.26642 114.698 4.87931 114.551 5.20265C114.052 6.2989 114.299 7.7072 114.181 8.87063C113.966 10.9957 114.015 13.1185 114.015 15.2539C114.015 16.3138 114.193 16.5039 114.825 17.1355C116.126 18.4365 117.651 17.1147 118.088 15.5873C118.331 14.7349 118.731 14.1422 118.731 13.2293C118.731 12.539 118.731 14.9473 118.731 15.3849C118.731 16.4805 118.731 17.5761 118.731 18.6718C118.731 18.8915 118.909 18.267 118.957 18.0525C119.051 17.6307 119.523 17.272 119.803 16.9926C120.667 16.1277 122.925 14.2244 121.422 12.8006C120.13 11.5763 117.823 11.8233 116.266 12.1694C113.635 12.7541 111.442 15.5651 110.025 17.6357C108.568 19.7649 106.909 21.8317 105.012 23.5187C104.527 23.9498 104.475 23.3565 104.845 23.09C105.508 22.6123 106.236 22.2635 106.965 21.8991C108.886 20.9386 110.886 20.6237 112.943 20.1366C115.312 19.5756 117.666 19.5749 119.886 18.5884C121.118 18.0408 119.849 17.503 119.159 17.3499C116.545 16.7688 113.704 17.591 111.038 16.9688C109.808 16.6818 108.072 16.29 107.81 14.849C107.557 13.4579 107.584 11.6521 107.584 10.2283C107.584 9.34597 108.156 2.939 106.298 5.72665" stroke="#8CE5B5" stroke-width="2" stroke-linecap="round"/>
<path d="M115.515 103.014C115.515 101.12 115.515 99.2268 115.515 97.3333C115.515 95.7089 113.136 94.225 111.657 94.225C111.177 94.225 109.935 94.0058 109.68 94.4394C109.224 95.2148 108.521 95.455 107.917 96.059C106.646 97.3305 105.85 98.821 105.226 100.537C103.535 105.188 102.663 110.098 100.986 114.756C100.751 115.411 100.338 116.009 100.296 116.733C100.253 117.451 99.4753 118.015 100.629 117.281C101.91 116.466 104.223 116.186 105.702 115.923C107.298 115.64 109.047 115.61 110.597 115.125C113.19 114.315 116.114 113.661 118.469 112.231C120.189 111.187 122.445 110.822 123.995 109.445C125.107 108.456 126.448 107.985 126.448 106.337C126.448 104.856 124.915 103.443 123.34 103.443C121.859 103.443 120.497 102.8 118.945 102.8C118.01 102.8 117.53 103.031 116.694 103.216C116.415 103.278 115.648 103.732 115.432 103.645C115.376 103.623 116.416 103.138 116.587 103.062C117.557 102.63 118.817 102.8 119.85 102.8C120.742 102.8 121.828 102.619 122.696 102.811C124.504 103.213 124.519 104.483 124.519 106.11C124.519 106.721 123.577 107.92 122.923 107.92C122.606 107.92 122.933 105.556 122.756 105.158C122.662 104.947 122.231 103.211 121.899 104.133C121.415 105.475 121.407 107.001 120.982 108.361C120.905 108.606 120.55 110.493 120.338 110.493C120.079 110.493 120.017 107.626 120.017 107.301C120.017 105.894 119.237 102.72 117.873 105.372C117.372 106.346 117.126 107.415 116.635 108.397C116.341 108.985 115.994 109.581 115.944 110.255C115.881 111.107 115.301 112.535 115.301 110.814C115.301 109.626 115.071 107.979 115.563 106.872C115.668 106.636 115.988 104.634 115.611 104.526C114.579 104.232 114.078 107.546 113.919 108.135C113.555 109.489 112.89 111.077 112.729 112.446C112.661 113.019 112.514 112.607 112.514 112.231C112.514 111.404 112.42 110.501 112.621 109.695C112.885 108.642 113.372 107.544 113.372 106.444C113.372 105.586 113.372 104.729 113.372 103.871C113.372 102.516 112.638 105.455 112.514 105.92C111.957 108.011 111.364 110.203 110.811 112.136C110.658 112.673 110.314 113.126 110.168 113.637C109.778 115.001 110.265 110.789 110.537 109.397C111.044 106.808 111.328 103.72 112.348 101.299C113.01 99.7266 113.157 97.9847 113.157 96.2615C113.157 95.2873 113.167 94.4837 112.681 95.8923C112.055 97.7068 111.743 99.5322 111.335 101.406C110.953 103.166 111.122 105.304 110.478 106.98C110.096 107.971 110.323 109.123 109.894 110.088C109.367 111.275 109.482 113.021 108.703 113.994C108.457 114.302 108.391 116.037 108.06 114.589C107.738 113.181 108.013 111.427 108.013 109.981C108.013 107.106 108.227 104.179 108.227 101.347C108.227 99.6162 108.768 96.9378 109.62 95.404C109.774 95.1274 110.191 93.0852 109.775 94.487C109.361 95.884 108.87 97.7082 108.87 99.1673C108.87 102.09 107.901 105.12 107.108 107.897C106.568 109.784 106.256 112.003 105.488 113.732C105.37 113.997 104.797 115.933 104.797 114.375C104.797 112.875 104.797 111.374 104.797 109.873C104.797 108.214 104.797 106.555 104.797 104.896C104.797 104.129 104.743 103.155 105.119 102.478C105.355 102.053 105.869 100.821 105.869 100.358C105.869 98.5896 105.193 103.832 104.964 105.586C104.716 107.49 104.295 109.373 104.142 111.279C104.072 112.15 103.853 113.381 103.463 114.161C102.99 115.107 102.439 115.172 102.439 113.994C102.439 111.19 104.395 108.331 105.869 106.015C106.66 104.772 107.369 103.498 107.965 102.156C108.273 101.464 108.167 100.592 108.549 99.9056C109.227 98.6848 110.271 97.6201 110.966 96.3687C111.116 96.0981 111.317 95.7819 111.49 95.5589C111.493 95.5554 110.928 96.4157 110.799 96.6902C109.676 99.0771 109.299 101.685 109.299 104.324C109.299 108.06 108.227 111.608 108.227 115.316C108.227 115.597 108.174 114.704 108.346 114.482C108.628 114.12 108.773 113.633 109.084 113.303C109.664 112.689 109.909 111.815 110.68 111.374C111.264 111.041 111.82 109.892 112.181 109.326C112.951 108.115 113.195 106.317 113.538 104.943C113.964 103.239 114.443 101.668 114.443 99.9056C114.443 99.2774 114.658 98.6805 114.658 97.9764C114.658 97.2664 114.698 97.8793 114.551 98.2027C114.052 99.2989 114.299 100.707 114.181 101.871C113.966 103.996 114.015 106.119 114.015 108.254C114.015 109.314 114.193 109.504 114.825 110.135C116.126 111.437 117.651 110.115 118.088 108.587C118.331 107.735 118.731 107.142 118.731 106.229C118.731 105.539 118.731 107.947 118.731 108.385C118.731 109.481 118.731 110.576 118.731 111.672C118.731 111.892 118.909 111.267 118.957 111.052C119.051 110.631 119.523 110.272 119.803 109.993C120.667 109.128 122.925 107.224 121.422 105.801C120.13 104.576 117.823 104.823 116.266 105.169C113.635 105.754 111.442 108.565 110.025 110.636C108.568 112.765 106.909 114.832 105.012 116.519C104.527 116.95 104.475 116.357 104.845 116.09C105.508 115.612 106.236 115.264 106.965 114.899C108.886 113.939 110.886 113.624 112.943 113.137C115.312 112.576 117.666 112.575 119.886 111.588C121.118 111.041 119.849 110.503 119.159 110.35C116.545 109.769 113.704 110.591 111.038 109.969C109.808 109.682 108.072 109.29 107.81 107.849C107.557 106.458 107.584 104.652 107.584 103.228C107.584 102.346 108.156 95.939 106.298 98.7267" stroke="#8CE5B5" stroke-width="2" stroke-linecap="round"/>
<path d="M203.515 103.014C203.515 101.12 203.515 99.2268 203.515 97.3333C203.515 95.7089 201.136 94.225 199.657 94.225C199.177 94.225 197.935 94.0058 197.68 94.4394C197.224 95.2148 196.521 95.455 195.917 96.059C194.646 97.3305 193.85 98.821 193.226 100.537C191.535 105.188 190.663 110.098 188.986 114.756C188.751 115.411 188.338 116.009 188.296 116.733C188.253 117.451 187.475 118.015 188.629 117.281C189.91 116.466 192.223 116.186 193.702 115.923C195.298 115.64 197.047 115.61 198.597 115.125C201.19 114.315 204.114 113.661 206.469 112.231C208.189 111.187 210.445 110.822 211.995 109.445C213.107 108.456 214.448 107.985 214.448 106.337C214.448 104.856 212.915 103.443 211.34 103.443C209.859 103.443 208.497 102.8 206.945 102.8C206.01 102.8 205.53 103.031 204.694 103.216C204.415 103.278 203.648 103.732 203.432 103.645C203.376 103.623 204.416 103.138 204.587 103.062C205.557 102.63 206.817 102.8 207.85 102.8C208.742 102.8 209.828 102.619 210.696 102.811C212.504 103.213 212.519 104.483 212.519 106.11C212.519 106.721 211.577 107.92 210.923 107.92C210.606 107.92 210.933 105.556 210.756 105.158C210.662 104.947 210.231 103.211 209.899 104.133C209.415 105.475 209.407 107.001 208.982 108.361C208.905 108.606 208.55 110.493 208.338 110.493C208.079 110.493 208.017 107.626 208.017 107.301C208.017 105.894 207.237 102.72 205.873 105.372C205.372 106.346 205.126 107.415 204.635 108.397C204.341 108.985 203.994 109.581 203.944 110.255C203.881 111.107 203.301 112.535 203.301 110.814C203.301 109.626 203.071 107.979 203.563 106.872C203.668 106.636 203.988 104.634 203.611 104.526C202.579 104.232 202.078 107.546 201.919 108.135C201.555 109.489 200.89 111.077 200.729 112.446C200.661 113.019 200.514 112.607 200.514 112.231C200.514 111.404 200.42 110.501 200.621 109.695C200.885 108.642 201.372 107.544 201.372 106.444C201.372 105.586 201.372 104.729 201.372 103.871C201.372 102.516 200.638 105.455 200.514 105.92C199.957 108.011 199.364 110.203 198.811 112.136C198.658 112.673 198.314 113.126 198.168 113.637C197.778 115.001 198.265 110.789 198.537 109.397C199.044 106.808 199.328 103.72 200.348 101.299C201.01 99.7266 201.157 97.9847 201.157 96.2615C201.157 95.2873 201.167 94.4837 200.681 95.8923C200.055 97.7068 199.743 99.5322 199.335 101.406C198.953 103.166 199.122 105.304 198.478 106.98C198.096 107.971 198.323 109.123 197.894 110.088C197.367 111.275 197.482 113.021 196.703 113.994C196.457 114.302 196.391 116.037 196.06 114.589C195.738 113.181 196.013 111.427 196.013 109.981C196.013 107.106 196.227 104.179 196.227 101.347C196.227 99.6162 196.768 96.9378 197.62 95.404C197.774 95.1274 198.191 93.0852 197.775 94.487C197.361 95.884 196.87 97.7082 196.87 99.1673C196.87 102.09 195.901 105.12 195.108 107.897C194.568 109.784 194.256 112.003 193.488 113.732C193.37 113.997 192.797 115.933 192.797 114.375C192.797 112.875 192.797 111.374 192.797 109.873C192.797 108.214 192.797 106.555 192.797 104.896C192.797 104.129 192.743 103.155 193.119 102.478C193.355 102.053 193.869 100.821 193.869 100.358C193.869 98.5896 193.193 103.832 192.964 105.586C192.716 107.49 192.295 109.373 192.142 111.279C192.072 112.15 191.853 113.381 191.463 114.161C190.99 115.107 190.439 115.172 190.439 113.994C190.439 111.19 192.395 108.331 193.869 106.015C194.66 104.772 195.369 103.498 195.965 102.156C196.273 101.464 196.167 100.592 196.549 99.9056C197.227 98.6848 198.271 97.6201 198.966 96.3687C199.116 96.0981 199.317 95.7819 199.49 95.5589C199.493 95.5554 198.928 96.4157 198.799 96.6902C197.676 99.0771 197.299 101.685 197.299 104.324C197.299 108.06 196.227 111.608 196.227 115.316C196.227 115.597 196.174 114.704 196.346 114.482C196.628 114.12 196.773 113.633 197.084 113.303C197.664 112.689 197.909 111.815 198.68 111.374C199.264 111.041 199.82 109.892 200.181 109.326C200.951 108.115 201.195 106.317 201.538 104.943C201.964 103.239 202.443 101.668 202.443 99.9056C202.443 99.2774 202.658 98.6805 202.658 97.9764C202.658 97.2664 202.698 97.8793 202.551 98.2027C202.052 99.2989 202.299 100.707 202.181 101.871C201.966 103.996 202.015 106.119 202.015 108.254C202.015 109.314 202.193 109.504 202.825 110.135C204.126 111.437 205.651 110.115 206.088 108.587C206.331 107.735 206.731 107.142 206.731 106.229C206.731 105.539 206.731 107.947 206.731 108.385C206.731 109.481 206.731 110.576 206.731 111.672C206.731 111.892 206.909 111.267 206.957 111.052C207.051 110.631 207.523 110.272 207.803 109.993C208.667 109.128 210.925 107.224 209.422 105.801C208.13 104.576 205.823 104.823 204.266 105.169C201.635 105.754 199.442 108.565 198.025 110.636C196.568 112.765 194.909 114.832 193.012 116.519C192.527 116.95 192.475 116.357 192.845 116.09C193.508 115.612 194.236 115.264 194.965 114.899C196.886 113.939 198.886 113.624 200.943 113.137C203.312 112.576 205.666 112.575 207.886 111.588C209.118 111.041 207.849 110.503 207.159 110.35C204.545 109.769 201.704 110.591 199.038 109.969C197.808 109.682 196.072 109.29 195.81 107.849C195.557 106.458 195.584 104.652 195.584 103.228C195.584 102.346 196.156 95.939 194.298 98.7267" stroke="#8CE5B5" stroke-width="2" stroke-linecap="round"/>
<path d="M216.515 54.0139C216.515 52.1204 216.515 50.2268 216.515 48.3333C216.515 46.7089 214.136 45.225 212.657 45.225C212.177 45.225 210.935 45.0058 210.68 45.4394C210.224 46.2148 209.521 46.455 208.917 47.059C207.646 48.3305 206.85 49.821 206.226 51.5368C204.535 56.1881 203.663 61.0979 201.986 65.7562C201.751 66.4108 201.338 67.0091 201.296 67.7331C201.253 68.4509 200.475 69.0151 201.629 68.2809C202.91 67.4658 205.223 67.1863 206.702 66.9233C208.298 66.6396 210.047 66.6099 211.597 66.1254C214.19 65.3152 217.114 64.6609 219.469 63.2315C221.189 62.1868 223.445 61.8218 224.995 60.4448C226.107 59.456 227.448 58.9854 227.448 57.3365C227.448 55.8564 225.915 54.4426 224.34 54.4426C222.859 54.4426 221.497 53.7995 219.945 53.7995C219.01 53.7995 218.53 54.0307 217.694 54.2164C217.415 54.2784 216.648 54.7316 216.432 54.6451C216.376 54.6227 217.416 54.1375 217.587 54.0615C218.557 53.6303 219.817 53.7995 220.85 53.7995C221.742 53.7995 222.828 53.6185 223.696 53.8114C225.504 54.2132 225.519 55.4834 225.519 57.1102C225.519 57.7207 224.577 58.9204 223.923 58.9204C223.606 58.9204 223.933 56.5558 223.756 56.1575C223.662 55.947 223.231 54.2109 222.899 55.1333C222.415 56.4755 222.407 58.0011 221.982 59.3611C221.905 59.6061 221.55 61.4928 221.338 61.4928C221.079 61.4928 221.017 58.626 221.017 58.3012C221.017 56.8943 220.237 53.7197 218.873 56.3719C218.372 57.3457 218.126 58.4152 217.635 59.3968C217.341 59.9852 216.994 60.5808 216.944 61.2546C216.881 62.107 216.301 63.5346 216.301 61.8143C216.301 60.6264 216.071 58.9788 216.563 57.8724C216.668 57.6356 216.988 55.6341 216.611 55.5263C215.579 55.2316 215.078 58.5464 214.919 59.1348C214.555 60.4887 213.89 62.0774 213.729 63.4459C213.661 64.0185 213.514 63.6067 213.514 63.2315C213.514 62.4038 213.42 61.5008 213.621 60.6949C213.885 59.6416 214.372 58.5439 214.372 57.4437C214.372 56.5863 214.372 55.7288 214.372 54.8714C214.372 53.5163 213.638 56.4554 213.514 56.9197C212.957 59.0105 212.364 61.2027 211.811 63.1362C211.658 63.6734 211.314 64.1258 211.168 64.6368C210.778 66.0007 211.265 61.7893 211.537 60.3971C212.044 57.8081 212.328 54.7205 213.348 52.299C214.01 50.7266 214.157 48.9847 214.157 47.2615C214.157 46.2873 214.167 45.4837 213.681 46.8923C213.055 48.7068 212.743 50.5322 212.335 52.4062C211.953 54.1657 212.122 56.3038 211.478 57.9796C211.096 58.9713 211.323 60.1234 210.894 61.0879C210.367 62.2751 210.482 64.0211 209.703 64.994C209.457 65.3022 209.391 67.0366 209.06 65.5895C208.738 64.1808 209.013 62.4266 209.013 60.9807C209.013 58.1063 209.227 55.1791 209.227 52.3466C209.227 50.6162 209.768 47.9378 210.62 46.404C210.774 46.1274 211.191 44.0852 210.775 45.487C210.361 46.884 209.87 48.7082 209.87 50.1673C209.87 53.0902 208.901 56.1199 208.108 58.8966C207.568 60.7842 207.256 63.0028 206.488 64.732C206.37 64.9968 205.797 66.933 205.797 65.3751C205.797 63.8746 205.797 62.374 205.797 60.8735C205.797 59.2142 205.797 57.5549 205.797 55.8955C205.797 55.129 205.743 54.155 206.119 53.478C206.355 53.0529 206.869 51.8213 206.869 51.3582C206.869 49.5896 206.193 54.8325 205.964 56.5863C205.716 58.4899 205.295 60.3732 205.142 62.2788C205.072 63.1504 204.853 64.3811 204.463 65.1607C203.99 66.1072 203.439 66.1717 203.439 64.994C203.439 62.1904 205.395 59.331 206.869 57.015C207.66 55.7722 208.369 54.4977 208.965 53.1565C209.273 52.4638 209.167 51.5922 209.549 50.9056C210.227 49.6848 211.271 48.6201 211.966 47.3687C212.116 47.0981 212.317 46.7819 212.49 46.5589C212.493 46.5554 211.928 47.4157 211.799 47.6902C210.676 50.0771 210.299 52.6845 210.299 55.3239C210.299 59.0602 209.227 62.6077 209.227 66.3159C209.227 66.5966 209.174 65.7039 209.346 65.4823C209.628 65.1199 209.773 64.6333 210.084 64.3033C210.664 63.6891 210.909 62.8145 211.68 62.374C212.264 62.0406 212.82 60.8922 213.181 60.3257C213.951 59.1155 214.195 57.317 214.538 55.9432C214.964 54.239 215.443 52.6675 215.443 50.9056C215.443 50.2774 215.658 49.6805 215.658 48.9764C215.658 48.2664 215.698 48.8793 215.551 49.2027C215.052 50.2989 215.299 51.7072 215.181 52.8706C214.966 54.9957 215.015 57.1185 215.015 59.2539C215.015 60.3138 215.193 60.5039 215.825 61.1355C217.126 62.4365 218.651 61.1147 219.088 59.5873C219.331 58.7349 219.731 58.1422 219.731 57.2293C219.731 56.539 219.731 58.9473 219.731 59.3849C219.731 60.4805 219.731 61.5761 219.731 62.6718C219.731 62.8915 219.909 62.267 219.957 62.0525C220.051 61.6307 220.523 61.272 220.803 60.9926C221.667 60.1277 223.925 58.2244 222.422 56.8006C221.13 55.5763 218.823 55.8233 217.266 56.1694C214.635 56.7541 212.442 59.5651 211.025 61.6357C209.568 63.7649 207.909 65.8317 206.012 67.5187C205.527 67.9498 205.475 67.3565 205.845 67.09C206.508 66.6123 207.236 66.2635 207.965 65.8991C209.886 64.9386 211.886 64.6237 213.943 64.1366C216.312 63.5756 218.666 63.5749 220.886 62.5884C222.118 62.0408 220.849 61.503 220.159 61.3499C217.545 60.7688 214.704 61.591 212.038 60.9688C210.808 60.6818 209.072 60.29 208.81 58.849C208.557 57.4579 208.584 55.6521 208.584 54.2283C208.584 53.346 209.156 46.939 207.298 49.7267" stroke="#8CE5B5" stroke-width="2" stroke-linecap="round"/>
<path d="M215.515 10.0139C215.515 8.12037 215.515 6.22683 215.515 4.3333C215.515 2.70886 213.136 1.22504 211.657 1.22504C211.177 1.22504 209.935 1.00578 209.68 1.4394C209.224 2.21476 208.521 2.45503 207.917 3.05903C206.646 4.33046 205.85 5.821 205.226 7.53682C203.535 12.1881 202.663 17.0979 200.986 21.7562C200.751 22.4108 200.338 23.0091 200.296 23.7331C200.253 24.4509 199.475 25.0151 200.629 24.2809C201.91 23.4658 204.223 23.1863 205.702 22.9233C207.298 22.6396 209.047 22.6099 210.597 22.1254C213.19 21.3152 216.114 20.6609 218.469 19.2315C220.189 18.1868 222.445 17.8218 223.995 16.4448C225.107 15.456 226.448 14.9854 226.448 13.3365C226.448 11.8564 224.915 10.4426 223.34 10.4426C221.859 10.4426 220.497 9.79954 218.945 9.79954C218.01 9.79954 217.53 10.0307 216.694 10.2164C216.415 10.2784 215.648 10.7316 215.432 10.6451C215.376 10.6227 216.416 10.1375 216.587 10.0615C217.557 9.6303 218.817 9.79954 219.85 9.79954C220.742 9.79954 221.828 9.61851 222.696 9.81145C224.504 10.2132 224.519 11.4834 224.519 13.1102C224.519 13.7207 223.577 14.9204 222.923 14.9204C222.606 14.9204 222.933 12.5558 222.756 12.1575C222.662 11.947 222.231 10.2109 221.899 11.1333C221.415 12.4755 221.407 14.0011 220.982 15.3611C220.905 15.6061 220.55 17.4928 220.338 17.4928C220.079 17.4928 220.017 14.626 220.017 14.3012C220.017 12.8943 219.237 9.71966 217.873 12.3719C217.372 13.3457 217.126 14.4152 216.635 15.3968C216.341 15.9852 215.994 16.5808 215.944 17.2546C215.881 18.107 215.301 19.5346 215.301 17.8143C215.301 16.6264 215.071 14.9788 215.563 13.8724C215.668 13.6356 215.988 11.6341 215.611 11.5263C214.579 11.2316 214.078 14.5464 213.919 15.1348C213.555 16.4887 212.89 18.0774 212.729 19.4459C212.661 20.0185 212.514 19.6067 212.514 19.2315C212.514 18.4038 212.42 17.5008 212.621 16.6949C212.885 15.6416 213.372 14.5439 213.372 13.4437C213.372 12.5863 213.372 11.7288 213.372 10.8714C213.372 9.51626 212.638 12.4554 212.514 12.9197C211.957 15.0105 211.364 17.2027 210.811 19.1362C210.658 19.6734 210.314 20.1258 210.168 20.6368C209.778 22.0007 210.265 17.7893 210.537 16.3971C211.044 13.8081 211.328 10.7205 212.348 8.299C213.01 6.72663 213.157 4.98473 213.157 3.26148C213.157 2.28734 213.167 1.4837 212.681 2.8923C212.055 4.70678 211.743 6.53223 211.335 8.40618C210.953 10.1657 211.122 12.3038 210.478 13.9796C210.096 14.9713 210.323 16.1234 209.894 17.0879C209.367 18.2751 209.482 20.0211 208.703 20.994C208.457 21.3022 208.391 23.0366 208.06 21.5895C207.738 20.1808 208.013 18.4266 208.013 16.9807C208.013 14.1063 208.227 11.1791 208.227 8.34664C208.227 6.61616 208.768 3.93777 209.62 2.40403C209.774 2.1274 210.191 0.0851862 209.775 1.48704C209.361 2.88399 208.87 4.70825 208.87 6.16729C208.87 9.09015 207.901 12.1199 207.108 14.8966C206.568 16.7842 206.256 19.0028 205.488 20.732C205.37 20.9968 204.797 22.933 204.797 21.3751C204.797 19.8746 204.797 18.374 204.797 16.8735C204.797 15.2142 204.797 13.5549 204.797 11.8955C204.797 11.129 204.743 10.155 205.119 9.47799C205.355 9.05288 205.869 7.82135 205.869 7.35819C205.869 5.58958 205.193 10.8325 204.964 12.5863C204.716 14.4899 204.295 16.3732 204.142 18.2788C204.072 19.1504 203.853 20.3811 203.463 21.1607C202.99 22.1072 202.439 22.1717 202.439 20.994C202.439 18.1904 204.395 15.331 205.869 13.015C206.66 11.7722 207.369 10.4977 207.965 9.15645C208.273 8.46378 208.167 7.59216 208.549 6.90564C209.227 5.6848 210.271 4.62007 210.966 3.36866C211.116 3.09813 211.317 2.78195 211.49 2.55885C211.493 2.55535 210.928 3.41573 210.799 3.69021C209.676 6.07714 209.299 8.68452 209.299 11.3239C209.299 15.0602 208.227 18.6077 208.227 22.3159C208.227 22.5966 208.174 21.7039 208.346 21.4823C208.628 21.1199 208.773 20.6333 209.084 20.3033C209.664 19.6891 209.909 18.8145 210.68 18.374C211.264 18.0406 211.82 16.8922 212.181 16.3257C212.951 15.1155 213.195 13.317 213.538 11.9432C213.964 10.239 214.443 8.66752 214.443 6.90564C214.443 6.27741 214.658 5.68054 214.658 4.97638C214.658 4.26642 214.698 4.87931 214.551 5.20265C214.052 6.2989 214.299 7.7072 214.181 8.87063C213.966 10.9957 214.015 13.1185 214.015 15.2539C214.015 16.3138 214.193 16.5039 214.825 17.1355C216.126 18.4365 217.651 17.1147 218.088 15.5873C218.331 14.7349 218.731 14.1422 218.731 13.2293C218.731 12.539 218.731 14.9473 218.731 15.3849C218.731 16.4805 218.731 17.5761 218.731 18.6718C218.731 18.8915 218.909 18.267 218.957 18.0525C219.051 17.6307 219.523 17.272 219.803 16.9926C220.667 16.1277 222.925 14.2244 221.422 12.8006C220.13 11.5763 217.823 11.8233 216.266 12.1694C213.635 12.7541 211.442 15.5651 210.025 17.6357C208.568 19.7649 206.909 21.8317 205.012 23.5187C204.527 23.9498 204.475 23.3565 204.845 23.09C205.508 22.6123 206.236 22.2635 206.965 21.8991C208.886 20.9386 210.886 20.6237 212.943 20.1366C215.312 19.5756 217.666 19.5749 219.886 18.5884C221.118 18.0408 219.849 17.503 219.159 17.3499C216.545 16.7688 213.704 17.591 211.038 16.9688C209.808 16.6818 208.072 16.29 207.81 14.849C207.557 13.4579 207.584 11.6521 207.584 10.2283C207.584 9.34597 208.156 2.939 206.298 5.72665" stroke="#8CE5B5" stroke-width="2" stroke-linecap="round"/>
<path d="M49.4419 91.789C49.4419 89.6388 49.866 87.7155 50.8207 85.8061C51.7547 83.9382 51.6664 81.5251 52.2734 79.5522C52.583 78.5461 52.3687 77.081 52.8766 76.1668C53.23 75.5308 53.6102 74.1107 53.6522 73.3969C53.7325 72.0313 55.4326 68.7778 56.656 68.0787C58.1726 67.212 60.2092 67.1923 61.9619 67.1923C62.8767 67.1923 63.6718 67.1417 64.3379 67.8078C64.786 68.2559 65.0146 69.2355 65.5074 69.6298C66.4352 70.372 64.5197 73.9732 64.2763 74.8249C63.9426 75.9929 64.4396 75.1434 65.175 74.7757C66.044 74.3412 67.0958 74.5048 68.0557 74.5048C69.35 74.5048 72.3192 73.9713 73.3247 74.7757C74.7366 75.9052 74.9251 77.1171 74.9251 78.9367C74.9251 80.456 73.4386 82.651 72.4383 83.7625C71.2613 85.0703 69.5682 86.1925 67.9449 86.914C63.768 88.7704 59.8573 91.1417 55.4249 92.2815C54.3249 92.5643 52.996 92.6115 51.9656 93.0078C51.2863 93.2691 49.9207 93.5618 49.2204 93.5618C48.942 93.5618 48.334 93.8284 48.334 93.5618C48.334 93.1271 48.8283 92.7266 48.9988 92.343C49.5668 91.0649 50.2667 89.7693 50.9931 88.576C51.8408 87.1833 52.9222 85.8791 53.7014 84.4765C54.2013 83.5768 54.6753 82.1532 55.3141 81.3865C56.0245 80.5341 56.0596 79.1154 56.3606 78.0996C56.8248 76.5328 56.8576 74.7532 57.5301 73.2738C57.9249 72.4051 57.8625 71.4905 57.8625 70.5162C57.8625 68.8723 56.6893 69.4149 56.3113 70.7378C55.8028 72.5176 55.0618 74.2548 54.5878 76.056C53.8208 78.9706 53.3623 81.9423 52.4211 84.8212C51.9897 86.1408 51.5217 87.4713 51.227 88.7976C51.1726 89.0422 50.5766 91.7264 50.9931 91.5182C51.3836 91.323 51.5818 90.7571 51.8795 90.4595C52.2421 90.0968 52.8489 89.7824 53.3198 89.5731C54.8456 88.895 56.4861 88.0354 58.0841 87.5788C60.9857 86.7498 63.6176 85.7742 66.1599 84.1564C68.0336 82.964 70.82 81.3776 71.9951 79.3799C72.2043 79.0244 73.8011 77.3834 73.0292 76.9424C72.1051 76.4143 71.2606 76.4992 70.2224 76.4992C68.615 76.4992 62.9794 78.7776 62.122 76.5484C61.2164 74.194 62.3111 72.3619 63.2299 70.2946C64.2224 68.0615 59.879 67.9734 59.192 69.519C58.8981 70.1803 59.1117 70.8578 58.8596 71.5133C58.4403 72.6036 58.2936 73.7969 57.8625 74.8988C56.9631 77.197 56.215 79.9371 54.9818 82.0513C53.9314 83.852 53.5427 85.9417 52.7166 87.8004C52.5584 88.1563 51.8703 90.383 52.1503 90.6318C52.4034 90.8569 56.4102 86.2323 56.7668 85.9168C58.4598 84.4192 60.2328 83.0553 61.8019 81.4234C62.4469 80.7527 63.046 79.9914 63.6239 79.2691C64.1123 78.6586 66.021 78.7151 66.7262 78.7151C67.8341 78.7151 68.9421 78.7151 70.05 78.7151C70.632 78.7151 70.7458 78.3641 71.1088 78.0011C71.1261 77.9837 71.1776 79.3143 71.1457 79.6015C71.0419 80.5358 70.6479 81.4457 70.5055 82.3714C70.4273 82.8801 70.6451 83.4556 70.3209 83.861C69.9619 84.3097 70.6908 83.1998 70.7148 82.8761C70.7843 81.9379 71.1515 80.9695 71.3796 80.057C71.673 78.8835 72.1395 77.5979 72.6599 76.4992C72.8357 76.1282 73.4387 75.4882 72.9307 76.056C72.2946 76.7669 71.9668 77.7385 71.3796 78.4935C69.9909 80.279 69.0663 82.4196 67.8341 84.3041C67.4197 84.938 67.0847 85.5508 66.6277 86.1384C66.1069 86.808 66.283 85.7432 66.283 85.3136C66.283 82.8095 66.9063 80.3069 67.1817 77.8287C67.2463 77.2473 67.3909 76.7626 67.3909 76.1668C67.3909 75.7962 66.968 76.8504 66.7262 77.2132C65.3304 79.3069 64.5397 81.7641 63.5131 84.0456C63.0408 85.0952 62.2962 85.9061 61.8634 86.9879C61.8044 87.1354 61.296 88.0331 61.2356 87.9727C60.7244 87.4615 62.5652 83.6024 62.7375 82.913C63.1248 81.3638 63.2635 79.8602 63.7962 78.3212C63.8818 78.0739 64.08 77.1232 64.067 77.4348C64.0267 78.4027 62.8781 79.7617 62.4051 80.5986C61.4224 82.3373 60.7946 84.2601 59.8075 85.9784C59.0549 87.2885 58.6427 89.0252 57.7517 90.2133C57.6415 90.3601 55.9164 93.3142 55.8681 92.0599C55.7781 89.7194 56.4022 87.6279 56.7545 85.3382C57.0508 83.4122 57.2907 80.9371 58.1333 79.1583C58.5918 78.1904 58.6759 77.1343 59.0689 76.1298C59.5049 75.0158 60.1145 73.95 60.5216 72.8306C60.8755 71.8573 61.289 70.8625 61.4079 69.8514C61.6711 67.6149 61.508 74.3772 61.9496 76.5853C62.2484 78.0793 61.4733 82.5311 62.122 81.1526C62.8857 79.5296 63.1807 76.6735 63.1807 74.8988C63.1807 73.929 63.4023 72.9916 63.4023 72.0181C63.4023 71.7167 63.4165 71.2975 63.4023 71.895C63.3835 72.6831 63.0993 73.1804 62.7375 73.8524C60.9751 77.1254 60.2378 81.0929 59.0689 84.5996C58.9746 84.8826 58.5272 86.3807 58.5272 86.2492C58.5272 85.1686 58.7673 84.1687 59.0689 83.1346C59.8441 80.4767 60.1555 77.6889 60.9648 75.0588C61.1084 74.5921 61.5291 73.5249 61.3956 74.7264C61.2232 76.2786 59.6076 78.1325 58.8473 79.4045C57.2369 82.0988 55.8476 84.9129 54.2185 87.5788C54.0641 87.8315 53.4686 89.3269 53.0982 89.3269C52.7543 89.3269 53.106 87.3651 53.209 87.1849C53.4711 86.7262 54.5958 83.3612 54.5386 85.3629C54.4906 87.0417 53.4326 88.5868 53.1967 90.2379C53.1428 90.6153 52.386 93.0444 53.4799 92.0599C53.9155 91.6678 54.7353 91.4568 55.2526 91.1243C56.6992 90.1943 58.4161 89.6254 59.9307 88.8099C62.519 87.4161 64.8593 85.6848 67.514 84.4273C68.1741 84.1146 66.674 84.8326 66.5046 84.9197C65.3807 85.4977 64.5757 86.4409 63.6239 87.2341C63.2717 87.5276 62.9388 87.8207 62.6144 88.1451C62.3881 88.3714 61.6018 88.6298 61.8881 88.7729C62.1997 88.9287 63.8736 87.0332 64.1163 86.8155C65.5075 85.5682 66.6758 84.0661 68.0065 82.753C68.9594 81.8126 70.1107 80.3236 71.2442 79.6261C71.8552 79.2501 72.3732 78.7151 71.3304 78.7151C69.8111 78.7151 68.4183 78.9396 66.9231 79.2568C65.9219 79.4691 64.9421 79.8133 63.9563 80.0323C63.1148 80.2193 64.1931 78.5827 64.3379 78.395C64.789 77.8102 65.4006 77.4203 65.9383 76.9424C66.2989 76.6218 67.1002 76.7518 67.3909 76.3884C68.0525 75.5614 67.4352 75.3912 68.7697 75.3912C70.6321 75.3912 71.016 76.139 72.0936 77.3363C72.7803 78.0992 72.9307 78.6869 72.9307 79.7123C72.9307 80.4955 71.9139 80.8008 71.2688 81.1526C69.7609 81.9751 68.248 82.7892 66.7262 83.5901C66.5449 83.6855 64.9534 84.7449 64.9534 84.2549C64.9534 83.5184 66.455 82.7502 66.9601 82.3714C67.6588 81.8473 68.5402 81.3017 69.1637 80.7094C69.4733 80.4152 70.5659 79.8231 69.8161 79.8231C68.6722 79.8231 67.2375 81.0172 66.283 81.6081C65.2513 82.2467 62.2266 84.2724 63.2299 83.5901C65.0147 82.3765 66.5402 79.8065 68.819 79.3922C71.3777 78.927 63.8403 80.9987 61.2602 81.325C59.3101 81.5715 54.9818 83.4081 54.9818 80.2786C54.9818 78.5562 55.2489 77.0639 55.4249 75.3912C55.4745 74.9202 55.6768 74.5756 55.6465 74.0617C55.6269 73.7284 54.6511 73.7222 54.5386 73.9755C53.6761 75.916 53.6171 78.1902 52.7658 80.1431C52.3929 80.9987 52.5303 82.0338 52.2119 82.9254C52.0518 83.3736 51.7091 84.0153 51.6579 84.4765C51.5573 85.3818 51.0784 86.891 50.6484 87.6896C50.1969 88.5282 49.9842 89.6709 49.3927 90.4103C48.5531 91.4598 53.1347 89.7652 53.3814 89.6716C56.5158 88.4827 59.2474 87.067 62.1835 85.486C63.2347 84.92 64.6756 84.3196 65.8398 84.2549C66.9621 84.1926 68.135 83.5901 69.2745 83.5901C70.9457 83.5901 68.7567 84.8807 68.0557 84.9197C66.6252 84.9992 66.4854 84.4189 66.0614 83.1469" stroke="#8CE5B5" stroke-width="2" stroke-linecap="round"/>
<path d="M149.442 91.789C149.442 89.6388 149.866 87.7155 150.821 85.8061C151.755 83.9382 151.666 81.5251 152.273 79.5522C152.583 78.5461 152.369 77.081 152.877 76.1668C153.23 75.5308 153.61 74.1107 153.652 73.3969C153.733 72.0313 155.433 68.7778 156.656 68.0787C158.173 67.212 160.209 67.1923 161.962 67.1923C162.877 67.1923 163.672 67.1417 164.338 67.8078C164.786 68.2559 165.015 69.2355 165.507 69.6298C166.435 70.372 164.52 73.9732 164.276 74.8249C163.943 75.9929 164.44 75.1434 165.175 74.7757C166.044 74.3412 167.096 74.5048 168.056 74.5048C169.35 74.5048 172.319 73.9713 173.325 74.7757C174.737 75.9052 174.925 77.1171 174.925 78.9367C174.925 80.456 173.439 82.651 172.438 83.7625C171.261 85.0703 169.568 86.1925 167.945 86.914C163.768 88.7704 159.857 91.1417 155.425 92.2815C154.325 92.5643 152.996 92.6115 151.966 93.0078C151.286 93.2691 149.921 93.5618 149.22 93.5618C148.942 93.5618 148.334 93.8284 148.334 93.5618C148.334 93.1271 148.828 92.7266 148.999 92.343C149.567 91.0649 150.267 89.7693 150.993 88.576C151.841 87.1833 152.922 85.8791 153.701 84.4765C154.201 83.5768 154.675 82.1532 155.314 81.3865C156.024 80.5341 156.06 79.1154 156.361 78.0996C156.825 76.5328 156.858 74.7532 157.53 73.2738C157.925 72.4051 157.862 71.4905 157.862 70.5162C157.862 68.8723 156.689 69.4149 156.311 70.7378C155.803 72.5176 155.062 74.2548 154.588 76.056C153.821 78.9706 153.362 81.9423 152.421 84.8212C151.99 86.1408 151.522 87.4713 151.227 88.7976C151.173 89.0422 150.577 91.7264 150.993 91.5182C151.384 91.323 151.582 90.7571 151.879 90.4595C152.242 90.0968 152.849 89.7824 153.32 89.5731C154.846 88.895 156.486 88.0354 158.084 87.5788C160.986 86.7498 163.618 85.7742 166.16 84.1564C168.034 82.964 170.82 81.3776 171.995 79.3799C172.204 79.0244 173.801 77.3834 173.029 76.9424C172.105 76.4143 171.261 76.4992 170.222 76.4992C168.615 76.4992 162.979 78.7776 162.122 76.5484C161.216 74.194 162.311 72.3619 163.23 70.2946C164.222 68.0615 159.879 67.9734 159.192 69.519C158.898 70.1803 159.112 70.8578 158.86 71.5133C158.44 72.6036 158.294 73.7969 157.862 74.8988C156.963 77.197 156.215 79.9371 154.982 82.0513C153.931 83.852 153.543 85.9417 152.717 87.8004C152.558 88.1563 151.87 90.383 152.15 90.6318C152.403 90.8569 156.41 86.2323 156.767 85.9168C158.46 84.4192 160.233 83.0553 161.802 81.4234C162.447 80.7527 163.046 79.9914 163.624 79.2691C164.112 78.6586 166.021 78.7151 166.726 78.7151C167.834 78.7151 168.942 78.7151 170.05 78.7151C170.632 78.7151 170.746 78.3641 171.109 78.0011C171.126 77.9837 171.178 79.3143 171.146 79.6015C171.042 80.5358 170.648 81.4457 170.506 82.3714C170.427 82.8801 170.645 83.4556 170.321 83.861C169.962 84.3097 170.691 83.1998 170.715 82.8761C170.784 81.9379 171.151 80.9695 171.38 80.057C171.673 78.8835 172.139 77.5979 172.66 76.4992C172.836 76.1282 173.439 75.4882 172.931 76.056C172.295 76.7669 171.967 77.7385 171.38 78.4935C169.991 80.279 169.066 82.4196 167.834 84.3041C167.42 84.938 167.085 85.5508 166.628 86.1384C166.107 86.808 166.283 85.7432 166.283 85.3136C166.283 82.8095 166.906 80.3069 167.182 77.8287C167.246 77.2473 167.391 76.7626 167.391 76.1668C167.391 75.7962 166.968 76.8504 166.726 77.2132C165.33 79.3069 164.54 81.7641 163.513 84.0456C163.041 85.0952 162.296 85.9061 161.863 86.9879C161.804 87.1354 161.296 88.0331 161.236 87.9727C160.724 87.4615 162.565 83.6024 162.737 82.913C163.125 81.3638 163.263 79.8602 163.796 78.3212C163.882 78.0739 164.08 77.1232 164.067 77.4348C164.027 78.4027 162.878 79.7617 162.405 80.5986C161.422 82.3373 160.795 84.2601 159.808 85.9784C159.055 87.2885 158.643 89.0252 157.752 90.2133C157.642 90.3601 155.916 93.3142 155.868 92.0599C155.778 89.7194 156.402 87.6279 156.754 85.3382C157.051 83.4122 157.291 80.9371 158.133 79.1583C158.592 78.1904 158.676 77.1343 159.069 76.1298C159.505 75.0158 160.115 73.95 160.522 72.8306C160.875 71.8573 161.289 70.8625 161.408 69.8514C161.671 67.6149 161.508 74.3772 161.95 76.5853C162.248 78.0793 161.473 82.5311 162.122 81.1526C162.886 79.5296 163.181 76.6735 163.181 74.8988C163.181 73.929 163.402 72.9916 163.402 72.0181C163.402 71.7167 163.416 71.2975 163.402 71.895C163.384 72.6831 163.099 73.1804 162.737 73.8524C160.975 77.1254 160.238 81.0929 159.069 84.5996C158.975 84.8826 158.527 86.3807 158.527 86.2492C158.527 85.1686 158.767 84.1687 159.069 83.1346C159.844 80.4767 160.155 77.6889 160.965 75.0588C161.108 74.5921 161.529 73.5249 161.396 74.7264C161.223 76.2786 159.608 78.1325 158.847 79.4045C157.237 82.0988 155.848 84.9129 154.218 87.5788C154.064 87.8315 153.469 89.3269 153.098 89.3269C152.754 89.3269 153.106 87.3651 153.209 87.1849C153.471 86.7262 154.596 83.3612 154.539 85.3629C154.491 87.0417 153.433 88.5868 153.197 90.2379C153.143 90.6153 152.386 93.0444 153.48 92.0599C153.916 91.6678 154.735 91.4568 155.253 91.1243C156.699 90.1943 158.416 89.6254 159.931 88.8099C162.519 87.4161 164.859 85.6848 167.514 84.4273C168.174 84.1146 166.674 84.8326 166.505 84.9197C165.381 85.4977 164.576 86.4409 163.624 87.2341C163.272 87.5276 162.939 87.8207 162.614 88.1451C162.388 88.3714 161.602 88.6298 161.888 88.7729C162.2 88.9287 163.874 87.0332 164.116 86.8155C165.508 85.5682 166.676 84.0661 168.006 82.753C168.959 81.8126 170.111 80.3236 171.244 79.6261C171.855 79.2501 172.373 78.7151 171.33 78.7151C169.811 78.7151 168.418 78.9396 166.923 79.2568C165.922 79.4691 164.942 79.8133 163.956 80.0323C163.115 80.2193 164.193 78.5827 164.338 78.395C164.789 77.8102 165.401 77.4203 165.938 76.9424C166.299 76.6218 167.1 76.7518 167.391 76.3884C168.052 75.5614 167.435 75.3912 168.77 75.3912C170.632 75.3912 171.016 76.139 172.094 77.3363C172.78 78.0992 172.931 78.6869 172.931 79.7123C172.931 80.4955 171.914 80.8008 171.269 81.1526C169.761 81.9751 168.248 82.7892 166.726 83.5901C166.545 83.6855 164.953 84.7449 164.953 84.2549C164.953 83.5184 166.455 82.7502 166.96 82.3714C167.659 81.8473 168.54 81.3017 169.164 80.7094C169.473 80.4152 170.566 79.8231 169.816 79.8231C168.672 79.8231 167.237 81.0172 166.283 81.6081C165.251 82.2467 162.227 84.2724 163.23 83.5901C165.015 82.3765 166.54 79.8065 168.819 79.3922C171.378 78.927 163.84 80.9987 161.26 81.325C159.31 81.5715 154.982 83.4081 154.982 80.2786C154.982 78.5562 155.249 77.0639 155.425 75.3912C155.475 74.9202 155.677 74.5756 155.647 74.0617C155.627 73.7284 154.651 73.7222 154.539 73.9755C153.676 75.916 153.617 78.1902 152.766 80.1431C152.393 80.9987 152.53 82.0338 152.212 82.9254C152.052 83.3736 151.709 84.0153 151.658 84.4765C151.557 85.3818 151.078 86.891 150.648 87.6896C150.197 88.5282 149.984 89.6709 149.393 90.4103C148.553 91.4598 153.135 89.7652 153.381 89.6716C156.516 88.4827 159.247 87.067 162.184 85.486C163.235 84.92 164.676 84.3196 165.84 84.2549C166.962 84.1926 168.135 83.5901 169.274 83.5901C170.946 83.5901 168.757 84.8807 168.056 84.9197C166.625 84.9992 166.485 84.4189 166.061 83.1469" stroke="#8CE5B5" stroke-width="2" stroke-linecap="round"/>
<path d="M245.108 91.789C245.108 89.6388 245.532 87.7155 246.487 85.8061C247.421 83.9382 247.332 81.5251 247.939 79.5522C248.249 78.5461 248.035 77.081 248.543 76.1668C248.896 75.5308 249.276 74.1107 249.318 73.3969C249.399 72.0313 251.099 68.7778 252.322 68.0787C253.839 67.212 255.875 67.1923 257.628 67.1923C258.543 67.1923 259.338 67.1417 260.004 67.8078C260.452 68.2559 260.681 69.2355 261.173 69.6298C262.101 70.372 260.186 73.9732 259.942 74.8249C259.609 75.9929 260.106 75.1434 260.841 74.7757C261.71 74.3412 262.762 74.5048 263.722 74.5048C265.016 74.5048 267.985 73.9713 268.991 74.7757C270.403 75.9052 270.591 77.1171 270.591 78.9367C270.591 80.456 269.105 82.651 268.104 83.7625C266.927 85.0703 265.234 86.1925 263.611 86.914C259.434 88.7704 255.523 91.1417 251.091 92.2815C249.991 92.5643 248.662 92.6115 247.632 93.0078C246.952 93.2691 245.587 93.5618 244.886 93.5618C244.608 93.5618 244 93.8284 244 93.5618C244 93.1271 244.494 92.7266 244.665 92.343C245.233 91.0649 245.933 89.7693 246.659 88.576C247.507 87.1833 248.588 85.8791 249.367 84.4765C249.867 83.5768 250.341 82.1532 250.98 81.3865C251.69 80.5341 251.726 79.1154 252.027 78.0996C252.491 76.5328 252.524 74.7532 253.196 73.2738C253.591 72.4051 253.528 71.4905 253.528 70.5162C253.528 68.8723 252.355 69.4149 251.977 70.7378C251.469 72.5176 250.728 74.2548 250.254 76.056C249.487 78.9706 249.028 81.9423 248.087 84.8212C247.656 86.1408 247.188 87.4713 246.893 88.7976C246.839 89.0422 246.243 91.7264 246.659 91.5182C247.05 91.323 247.248 90.7571 247.545 90.4595C247.908 90.0968 248.515 89.7824 248.986 89.5731C250.512 88.895 252.152 88.0354 253.75 87.5788C256.652 86.7498 259.284 85.7742 261.826 84.1564C263.7 82.964 266.486 81.3776 267.661 79.3799C267.87 79.0244 269.467 77.3834 268.695 76.9424C267.771 76.4143 266.927 76.4992 265.888 76.4992C264.281 76.4992 258.645 78.7776 257.788 76.5484C256.882 74.194 257.977 72.3619 258.896 70.2946C259.888 68.0615 255.545 67.9734 254.858 69.519C254.564 70.1803 254.778 70.8578 254.526 71.5133C254.106 72.6036 253.96 73.7969 253.528 74.8988C252.629 77.197 251.881 79.9371 250.648 82.0513C249.597 83.852 249.209 85.9417 248.383 87.8004C248.224 88.1563 247.536 90.383 247.816 90.6318C248.069 90.8569 252.076 86.2323 252.433 85.9168C254.126 84.4192 255.899 83.0553 257.468 81.4234C258.113 80.7527 258.712 79.9914 259.29 79.2691C259.778 78.6586 261.687 78.7151 262.392 78.7151C263.5 78.7151 264.608 78.7151 265.716 78.7151C266.298 78.7151 266.412 78.3641 266.775 78.0011C266.792 77.9837 266.844 79.3143 266.812 79.6015C266.708 80.5358 266.314 81.4457 266.172 82.3714C266.093 82.8801 266.311 83.4556 265.987 83.861C265.628 84.3097 266.357 83.1998 266.381 82.8761C266.45 81.9379 266.817 80.9695 267.046 80.057C267.339 78.8835 267.805 77.5979 268.326 76.4992C268.502 76.1282 269.105 75.4882 268.597 76.056C267.961 76.7669 267.633 77.7385 267.046 78.4935C265.657 80.279 264.732 82.4196 263.5 84.3041C263.086 84.938 262.751 85.5508 262.294 86.1384C261.773 86.808 261.949 85.7432 261.949 85.3136C261.949 82.8095 262.572 80.3069 262.848 77.8287C262.912 77.2473 263.057 76.7626 263.057 76.1668C263.057 75.7962 262.634 76.8504 262.392 77.2132C260.996 79.3069 260.206 81.7641 259.179 84.0456C258.707 85.0952 257.962 85.9061 257.529 86.9879C257.47 87.1354 256.962 88.0331 256.902 87.9727C256.39 87.4615 258.231 83.6024 258.404 82.913C258.791 81.3638 258.929 79.8602 259.462 78.3212C259.548 78.0739 259.746 77.1232 259.733 77.4348C259.693 78.4027 258.544 79.7617 258.071 80.5986C257.088 82.3373 256.461 84.2601 255.474 85.9784C254.721 87.2885 254.309 89.0252 253.418 90.2133C253.308 90.3601 251.582 93.3142 251.534 92.0599C251.444 89.7194 252.068 87.6279 252.421 85.3382C252.717 83.4122 252.957 80.9371 253.799 79.1583C254.258 78.1904 254.342 77.1343 254.735 76.1298C255.171 75.0158 255.781 73.95 256.188 72.8306C256.541 71.8573 256.955 70.8625 257.074 69.8514C257.337 67.6149 257.174 74.3772 257.616 76.5853C257.914 78.0793 257.139 82.5311 257.788 81.1526C258.552 79.5296 258.847 76.6735 258.847 74.8988C258.847 73.929 259.068 72.9916 259.068 72.0181C259.068 71.7167 259.083 71.2975 259.068 71.895C259.05 72.6831 258.765 73.1804 258.404 73.8524C256.641 77.1254 255.904 81.0929 254.735 84.5996C254.641 84.8826 254.193 86.3807 254.193 86.2492C254.193 85.1686 254.433 84.1687 254.735 83.1346C255.51 80.4767 255.822 77.6889 256.631 75.0588C256.774 74.5921 257.195 73.5249 257.062 74.7264C256.889 76.2786 255.274 78.1325 254.513 79.4045C252.903 82.0988 251.514 84.9129 249.885 87.5788C249.73 87.8315 249.135 89.3269 248.764 89.3269C248.42 89.3269 248.772 87.3651 248.875 87.1849C249.137 86.7262 250.262 83.3612 250.205 85.3629C250.157 87.0417 249.099 88.5868 248.863 90.2379C248.809 90.6153 248.052 93.0444 249.146 92.0599C249.582 91.6678 250.401 91.4568 250.919 91.1243C252.365 90.1943 254.082 89.6254 255.597 88.8099C258.185 87.4161 260.525 85.6848 263.18 84.4273C263.84 84.1146 262.34 84.8326 262.171 84.9197C261.047 85.4977 260.242 86.4409 259.29 87.2341C258.938 87.5276 258.605 87.8207 258.28 88.1451C258.054 88.3714 257.268 88.6298 257.554 88.7729C257.866 88.9287 259.54 87.0332 259.782 86.8155C261.174 85.5682 262.342 84.0661 263.672 82.753C264.625 81.8126 265.777 80.3236 266.91 79.6261C267.521 79.2501 268.039 78.7151 266.996 78.7151C265.477 78.7151 264.084 78.9396 262.589 79.2568C261.588 79.4691 260.608 79.8133 259.622 80.0323C258.781 80.2193 259.859 78.5827 260.004 78.395C260.455 77.8102 261.067 77.4203 261.604 76.9424C261.965 76.6218 262.766 76.7518 263.057 76.3884C263.719 75.5614 263.101 75.3912 264.436 75.3912C266.298 75.3912 266.682 76.139 267.76 77.3363C268.446 78.0992 268.597 78.6869 268.597 79.7123C268.597 80.4955 267.58 80.8008 266.935 81.1526C265.427 81.9751 263.914 82.7892 262.392 83.5901C262.211 83.6855 260.619 84.7449 260.619 84.2549C260.619 83.5184 262.121 82.7502 262.626 82.3714C263.325 81.8473 264.206 81.3017 264.83 80.7094C265.139 80.4152 266.232 79.8231 265.482 79.8231C264.338 79.8231 262.903 81.0172 261.949 81.6081C260.917 82.2467 257.893 84.2724 258.896 83.5901C260.681 82.3765 262.206 79.8065 264.485 79.3922C267.044 78.927 259.506 80.9987 256.926 81.325C254.976 81.5715 250.648 83.4081 250.648 80.2786C250.648 78.5562 250.915 77.0639 251.091 75.3912C251.141 74.9202 251.343 74.5756 251.313 74.0617C251.293 73.7284 250.317 73.7222 250.205 73.9755C249.342 75.916 249.283 78.1902 248.432 80.1431C248.059 80.9987 248.196 82.0338 247.878 82.9254C247.718 83.3736 247.375 84.0153 247.324 84.4765C247.223 85.3818 246.744 86.891 246.314 87.6896C245.863 88.5282 245.65 89.6709 245.059 90.4103C244.219 91.4598 248.801 89.7652 249.047 89.6716C252.182 88.4827 254.913 87.067 257.85 85.486C258.901 84.92 260.342 84.3196 261.506 84.2549C262.628 84.1926 263.801 83.5901 264.94 83.5901C266.612 83.5901 264.423 84.8807 263.722 84.9197C262.291 84.9992 262.151 84.4189 261.727 83.1469" stroke="#8CE5B5" stroke-width="2" stroke-linecap="round"/>
<path d="M6.94087 70.4396C7.06742 70.3836 7.32337 68.568 7.45437 68.2292C7.80785 67.3148 8.06707 66.1306 8.27718 65.1682C8.7658 62.9301 9.23106 60.6295 9.36097 58.3376C9.4682 56.446 10.7132 54.2476 11.534 52.6101C11.9812 51.7181 12.721 50.5504 12.9568 49.5851C13.1044 48.981 14.0138 47.6115 14.5058 47.2196C15.7656 46.216 16.4781 45.0633 18.0992 44.5758C18.8734 44.3429 19.6015 43.9075 20.4212 43.661C21.1563 43.4399 21.6506 44.2256 22.1686 44.434C22.4855 44.5615 23.0127 46.1611 23.1229 46.5276C23.3651 47.3329 23.7033 48.1406 23.5966 48.9822C23.4764 49.9309 23.1161 50.9402 22.7119 51.7973C22.5626 52.1138 22.5007 52.4617 22.3552 52.7703C22.149 53.2075 22.3596 52.6278 22.5514 52.5429C23.0358 52.3286 23.2589 51.3956 23.7271 51.0952C24.4864 50.6081 24.7789 50.1416 25.7456 49.8509C27.1967 49.4145 29.1617 48.3756 30.568 49.3745C31.9289 50.3411 32.6384 51.9525 33.0136 53.5084C33.3616 54.9513 31.8238 56.9932 30.8992 57.9918C29.8354 59.1408 29.251 60.8047 27.7443 61.5738C26.072 62.4275 24.3271 63.2598 22.6951 64.1745C21.1412 65.0453 19.6244 66.2155 17.9955 66.8985C17.059 67.2911 16.0778 67.7751 15.2284 68.3319C14.5087 68.8036 13.3387 68.8501 12.6904 69.4078C12.224 69.809 11.0608 70.2826 10.5141 70.4471C9.70839 70.6894 9.16498 71.0692 8.3906 71.3021C8.10016 71.3895 6.69097 72.1924 6.70932 72.1084C6.90619 71.2066 7.46416 70.3328 7.73533 69.4432C8.24087 67.7846 8.88912 65.772 9.86138 64.319C10.5132 63.3449 10.7512 62.0301 11.2862 60.9808C11.8299 59.9144 12.5096 58.5379 12.8784 57.3999C13.2419 56.2783 13.9113 55.2553 14.2062 54.139C14.454 53.2006 14.8072 52.145 15.2453 51.2775C15.7966 50.1857 16.2338 49.0545 16.8509 47.9811C17.3966 47.0322 17.4085 46.6641 16.5486 47.7354C15.5484 48.9815 15.0746 50.6591 14.133 51.9367C12.5087 54.1404 11.4497 56.971 10.7051 59.5685C10.1483 61.5105 9.87648 63.5681 9.53358 65.5478C9.4116 66.2521 9.01279 67.1151 9.18224 67.8177C9.23976 68.0562 9.2952 70.0682 9.06253 70.1382C8.80636 70.2152 9.88793 66.5664 10.0182 66.2798C10.8817 64.3803 12.2255 62.7257 13.0396 60.8142C14.4855 57.4189 16.273 54.0084 18.0142 50.7694C18.5653 49.7442 19.1758 48.7804 19.7204 47.7674C20.0732 47.1111 20.7572 46.2041 20.9033 45.4638C20.9469 45.2428 21.2443 44.551 20.9648 45.1087C20.6012 45.8338 20.29 46.7199 19.9915 47.4694C19.1361 49.6174 18.2652 51.7864 17.1947 53.8414C15.5846 56.932 14.628 60.074 13.4548 63.2744C13.0869 64.278 12.8607 65.2914 12.2514 66.1492C11.8054 66.7771 11.3076 67.7542 11.3675 68.5672C11.4538 69.7396 11.9361 67.3658 12.1593 66.9223C12.8837 65.4829 13.5736 64.0316 14.3201 62.5933C15.3444 60.6198 16.1484 58.5209 17.1436 56.55C17.7625 55.3243 18.339 53.8709 19.1504 52.7482C19.9193 51.6843 20.4571 50.5581 21.078 49.4031C21.2604 49.0638 22.0203 46.8833 22.4239 46.7619C22.9458 46.6049 22.168 47.8217 22.0489 48.3536C21.8934 49.0481 21.4293 49.8882 21.0711 50.4993C20.5714 51.3516 20.4501 52.4283 19.9713 53.3189C19.4606 54.2688 19.0107 55.3182 18.6003 56.3163C17.5708 58.8196 16.4759 61.2417 15.8341 63.8694C15.6495 64.625 15.2413 65.3847 14.8805 66.0558C14.5606 66.6509 14.6824 67.3185 14.4207 67.8053C13.2192 70.0404 16.5042 63.1729 17.7058 60.9378C18.3638 59.7136 18.8717 58.4594 19.5273 57.2398C19.9019 56.543 20.4974 55.699 20.6738 54.9352C20.8504 54.1706 21.5782 53.4248 21.956 52.722C22.0472 52.5523 22.5899 51.3065 22.8175 51.4289C23.1257 51.5946 21.9456 53.4905 21.8552 53.6661C20.8915 55.5366 20.5657 57.893 20.2339 59.949C20.0773 60.9194 19.314 62.2564 19.4818 63.2051C19.61 63.9298 19.2149 64.6778 19.0532 65.378C18.7226 66.8094 19.5902 64.6916 19.67 64.2306C19.9249 62.759 20.8693 61.4874 21.4637 60.1202C22.0157 58.8505 22.6391 56.9865 23.4403 55.8586C23.9156 55.1894 24.6855 54.0699 24.8833 53.2604C24.999 52.7865 25.5574 51.206 26.1147 51.0384C26.5622 50.9038 25.7071 51.8795 25.509 52.3027C25.2621 52.8302 25.187 53.644 25.0075 54.233C24.6271 55.481 24.1687 56.7573 23.9911 58.0495C23.7648 59.6956 24.0608 61.2769 23.4617 62.7657C22.9275 64.093 23.7153 61.8582 23.828 61.4652C24.2201 60.0975 24.7447 58.6767 25.4232 57.4144C26.5544 55.3102 27.0489 53.0547 28.3093 50.9795C28.5902 50.5171 28.9927 49.2911 29.2397 50.315C29.4055 51.0027 28.6768 52.5586 28.3682 53.1742C27.7855 54.3365 27.5458 55.8086 27.2692 57.0757C27.1417 57.6593 27.2197 58.9998 26.9035 59.4581C26.7617 59.6637 26.9984 60.5173 27.3076 60.082C27.5861 59.6899 27.5737 59.1879 27.7655 58.766C28.1653 57.8866 28.5476 56.505 28.7569 55.5461C28.8881 54.9452 30.9966 51.9283 31.1468 52.3385C31.6698 53.7672 30.9375 55.0358 30.1745 56.1418C29.3241 57.3745 28.0146 58.541 26.9522 59.6598C25.8028 60.8704 24.6473 61.6059 23.1106 62.3181C21.0495 63.2735 18.6791 64.0997 16.969 65.6441C16.6732 65.9113 16.2601 66.0597 16.0519 66.3528C15.9896 66.4405 16.1327 65.7189 16.4351 65.4681C17.2588 64.7849 18.1338 62.8678 18.3648 61.8097C18.982 58.9826 21.2604 56.385 22.9031 54.0723C23.0736 53.8323 23.4759 52.7386 23.6769 53.4068C23.8383 53.9436 23.9978 54.5016 23.839 55.0654C23.479 56.3433 22.6945 57.6061 22.526 58.935C22.4915 59.2069 21.4673 61.0632 21.2665 60.5041C20.4561 58.2471 19.8243 55.8658 19.1774 53.5577C18.401 50.7876 19.5858 48.1823 20.0497 45.5041C20.087 45.2887 20.1336 44.4713 19.6819 44.7611C19.3269 44.9889 19.1602 46.0754 19.0743 46.4588C18.796 47.7021 18.1089 49.069 17.6179 50.2513C17.1095 51.4756 17.0007 53.3068 16.0491 54.2701C15.1922 55.1375 14.4168 56.9123 13.9486 58.0399C13.1337 60.0024 12.9931 61.8504 12.7285 63.9377C12.6177 64.8115 12.8479 65.6732 12.7391 66.5315C12.706 66.7929 12.8371 68.5875 12.2593 67.9744" stroke="#8CE5B5" stroke-width="2" stroke-linecap="round"/>
<path d="M106.941 70.4396C107.067 70.3836 107.323 68.568 107.454 68.2292C107.808 67.3148 108.067 66.1306 108.277 65.1682C108.766 62.9301 109.231 60.6295 109.361 58.3376C109.468 56.446 110.713 54.2476 111.534 52.6101C111.981 51.7181 112.721 50.5504 112.957 49.5851C113.104 48.981 114.014 47.6115 114.506 47.2196C115.766 46.216 116.478 45.0633 118.099 44.5758C118.873 44.3429 119.601 43.9075 120.421 43.661C121.156 43.4399 121.651 44.2256 122.169 44.434C122.485 44.5615 123.013 46.1611 123.123 46.5276C123.365 47.3329 123.703 48.1406 123.597 48.9822C123.476 49.9309 123.116 50.9402 122.712 51.7973C122.563 52.1138 122.501 52.4617 122.355 52.7703C122.149 53.2075 122.36 52.6278 122.551 52.5429C123.036 52.3286 123.259 51.3956 123.727 51.0952C124.486 50.6081 124.779 50.1416 125.746 49.8509C127.197 49.4145 129.162 48.3756 130.568 49.3745C131.929 50.3411 132.638 51.9525 133.014 53.5084C133.362 54.9513 131.824 56.9932 130.899 57.9918C129.835 59.1408 129.251 60.8047 127.744 61.5738C126.072 62.4275 124.327 63.2598 122.695 64.1745C121.141 65.0453 119.624 66.2155 117.996 66.8985C117.059 67.2911 116.078 67.7751 115.228 68.3319C114.509 68.8036 113.339 68.8501 112.69 69.4078C112.224 69.809 111.061 70.2826 110.514 70.4471C109.708 70.6894 109.165 71.0692 108.391 71.3021C108.1 71.3895 106.691 72.1924 106.709 72.1084C106.906 71.2066 107.464 70.3328 107.735 69.4432C108.241 67.7846 108.889 65.772 109.861 64.319C110.513 63.3449 110.751 62.0301 111.286 60.9808C111.83 59.9144 112.51 58.5379 112.878 57.3999C113.242 56.2783 113.911 55.2553 114.206 54.139C114.454 53.2006 114.807 52.145 115.245 51.2775C115.797 50.1857 116.234 49.0545 116.851 47.9811C117.397 47.0322 117.408 46.6641 116.549 47.7354C115.548 48.9815 115.075 50.6591 114.133 51.9367C112.509 54.1404 111.45 56.971 110.705 59.5685C110.148 61.5105 109.876 63.5681 109.534 65.5478C109.412 66.2521 109.013 67.1151 109.182 67.8177C109.24 68.0562 109.295 70.0682 109.063 70.1382C108.806 70.2152 109.888 66.5664 110.018 66.2798C110.882 64.3803 112.226 62.7257 113.04 60.8142C114.485 57.4189 116.273 54.0084 118.014 50.7694C118.565 49.7442 119.176 48.7804 119.72 47.7674C120.073 47.1111 120.757 46.2041 120.903 45.4638C120.947 45.2428 121.244 44.551 120.965 45.1087C120.601 45.8338 120.29 46.7199 119.991 47.4694C119.136 49.6174 118.265 51.7864 117.195 53.8414C115.585 56.932 114.628 60.074 113.455 63.2744C113.087 64.278 112.861 65.2914 112.251 66.1492C111.805 66.7771 111.308 67.7542 111.367 68.5672C111.454 69.7396 111.936 67.3658 112.159 66.9223C112.884 65.4829 113.574 64.0316 114.32 62.5933C115.344 60.6198 116.148 58.5209 117.144 56.55C117.763 55.3243 118.339 53.8709 119.15 52.7482C119.919 51.6843 120.457 50.5581 121.078 49.4031C121.26 49.0638 122.02 46.8833 122.424 46.7619C122.946 46.6049 122.168 47.8217 122.049 48.3536C121.893 49.0481 121.429 49.8882 121.071 50.4993C120.571 51.3516 120.45 52.4283 119.971 53.3189C119.461 54.2688 119.011 55.3182 118.6 56.3163C117.571 58.8196 116.476 61.2417 115.834 63.8694C115.649 64.625 115.241 65.3847 114.881 66.0558C114.561 66.6509 114.682 67.3185 114.421 67.8053C113.219 70.0404 116.504 63.1729 117.706 60.9378C118.364 59.7136 118.872 58.4594 119.527 57.2398C119.902 56.543 120.497 55.699 120.674 54.9352C120.85 54.1706 121.578 53.4248 121.956 52.722C122.047 52.5523 122.59 51.3065 122.817 51.4289C123.126 51.5946 121.946 53.4905 121.855 53.6661C120.892 55.5366 120.566 57.893 120.234 59.949C120.077 60.9194 119.314 62.2564 119.482 63.2051C119.61 63.9298 119.215 64.6778 119.053 65.378C118.723 66.8094 119.59 64.6916 119.67 64.2306C119.925 62.759 120.869 61.4874 121.464 60.1202C122.016 58.8505 122.639 56.9865 123.44 55.8586C123.916 55.1894 124.686 54.0699 124.883 53.2604C124.999 52.7865 125.557 51.206 126.115 51.0384C126.562 50.9038 125.707 51.8795 125.509 52.3027C125.262 52.8302 125.187 53.644 125.007 54.233C124.627 55.481 124.169 56.7573 123.991 58.0495C123.765 59.6956 124.061 61.2769 123.462 62.7657C122.927 64.093 123.715 61.8582 123.828 61.4652C124.22 60.0975 124.745 58.6767 125.423 57.4144C126.554 55.3102 127.049 53.0547 128.309 50.9795C128.59 50.5171 128.993 49.2911 129.24 50.315C129.406 51.0027 128.677 52.5586 128.368 53.1742C127.786 54.3365 127.546 55.8086 127.269 57.0757C127.142 57.6593 127.22 58.9998 126.904 59.4581C126.762 59.6637 126.998 60.5173 127.308 60.082C127.586 59.6899 127.574 59.1879 127.765 58.766C128.165 57.8866 128.548 56.505 128.757 55.5461C128.888 54.9452 130.997 51.9283 131.147 52.3385C131.67 53.7672 130.938 55.0358 130.174 56.1418C129.324 57.3745 128.015 58.541 126.952 59.6598C125.803 60.8704 124.647 61.6059 123.111 62.3181C121.049 63.2735 118.679 64.0997 116.969 65.6441C116.673 65.9113 116.26 66.0597 116.052 66.3528C115.99 66.4405 116.133 65.7189 116.435 65.4681C117.259 64.7849 118.134 62.8678 118.365 61.8097C118.982 58.9826 121.26 56.385 122.903 54.0723C123.074 53.8323 123.476 52.7386 123.677 53.4068C123.838 53.9436 123.998 54.5016 123.839 55.0654C123.479 56.3433 122.694 57.6061 122.526 58.935C122.492 59.2069 121.467 61.0632 121.267 60.5041C120.456 58.2471 119.824 55.8658 119.177 53.5577C118.401 50.7876 119.586 48.1823 120.05 45.5041C120.087 45.2887 120.134 44.4713 119.682 44.7611C119.327 44.9889 119.16 46.0754 119.074 46.4588C118.796 47.7021 118.109 49.069 117.618 50.2513C117.109 51.4756 117.001 53.3068 116.049 54.2701C115.192 55.1375 114.417 56.9123 113.949 58.0399C113.134 60.0024 112.993 61.8504 112.729 63.9377C112.618 64.8115 112.848 65.6732 112.739 66.5315C112.706 66.7929 112.837 68.5875 112.259 67.9744" stroke="#8CE5B5" stroke-width="2" stroke-linecap="round"/>
</svg>
