<svg width="29" height="46" viewBox="0 0 29 46" fill="none" xmlns="http://www.w3.org/2000/svg">
<path d="M1.89881 5.36387C1.89881 7.74184 1.89881 10.1198 1.89881 12.4978C1.89881 14.3676 1.69902 16.4017 2.09677 18.2313C2.34224 19.3604 1.99062 20.566 2.19208 21.6993C2.39229 22.8254 2.29473 24.016 2.29473 25.1599C2.29473 26.4112 2.29473 27.6625 2.29473 28.9138C2.29473 30.302 2.29473 31.6901 2.29473 33.0783C2.29473 33.6062 2.29473 34.1341 2.29473 34.662C2.29473 35.3941 3.04525 34.9259 3.54114 34.9259C6.06586 34.9259 8.66875 35.3173 11.2029 35.0506C13.0694 34.8541 15.0097 34.9245 16.8705 34.6327C18.7784 34.3334 20.7149 34.398 22.648 34.398C23.6767 34.398 24.9772 34.2732 25.918 34.6913C26.7418 35.0574 26.7098 34.8462 26.7098 33.9435C26.7098 32.4958 26.7919 31.1075 27.0031 29.6763C27.3348 27.4277 27.0031 25.1304 27.0031 22.8577C27.0031 21.3019 27.3151 19.9691 27.0031 18.4439C26.8418 15.7898 26.9738 12.973 26.9738 10.3789C26.9738 9.26516 26.8418 8.16096 26.8418 7.02087C26.8418 6.51253 26.8418 6.00418 26.8418 5.49584C26.8418 4.13267 25.8536 6.14928 25.6614 6.48564C24.15 9.13058 23.3131 12.1172 21.8928 14.8C20.9396 16.6005 20.639 18.9263 20.639 20.9441C20.639 21.5234 20.5851 22.1918 21.0643 22.6231C21.3444 22.8752 23.2184 23.161 23.2184 23.161C23.4645 23.6287 23.8165 25.6344 23.931 26.1497C24.0417 26.6476 24.0704 27.1002 24.0704 27.6381C24.0704 28.3146 23.8009 28.4716 23.5425 29.0531C23.1987 29.8266 21.8249 29.9109 21.1083 29.9109C18.9895 29.9109 16.7107 30.6875 15.4921 32.4478C14.2972 34.1737 13.9084 35.416 13.9084 37.5654C13.9084 38.4766 13.5047 44.0985 14.7002 44.0321C15.3113 43.9981 15.6549 43.0774 16.02 42.7124C16.3993 42.333 16.6456 41.6321 17.0758 41.3633C17.2609 41.2476 17.6946 40.4884 17.743 40.2708C17.9108 39.5154 18.4463 38.7169 18.5275 37.932C18.6776 36.4804 19.1873 35.2266 19.1873 33.7382C19.1873 32.3101 19.148 31.1239 18.7254 29.7716C17.961 27.3253 16.6845 25.031 15.3014 22.8577C15.0469 22.4576 14.8258 21.768 14.6709 21.3033C14.3554 20.3569 14.0775 19.3689 13.7178 18.4439C12.9511 16.4725 13.125 14.171 12.9772 12.1018C12.7739 9.25481 12.9846 6.42695 12.9846 3.58956C12.9846 2.59603 13.4137 0.408668 14.3703 2.13052C15.3052 3.8134 15.0962 6.16492 15.0962 8.03267C15.0962 10.4107 15.3205 12.9229 14.6709 15.2326C13.7821 18.3928 13.7036 21.7038 12.5593 24.7933C12.0766 26.0966 11.4705 27.5084 10.741 28.6938C10.0635 29.7949 10.0551 30.9918 9.71457 32.1838C9.55164 32.7541 9.90906 33.5464 9.61926 34.0681C9.38395 34.4916 9.55327 35.9231 9.55327 35.9231C9.55327 35.9231 10.9119 43.1813 14.4899 44.2297C15.8562 44.5333 14.9642 38.6191 14.9642 37.6314C14.9642 36.5477 14.4111 35.5052 14.1797 34.464C14.0017 33.6631 13.7457 31.9631 12.9259 31.4946C12.0776 31.0099 11.3235 30.191 10.3964 29.779C9.77955 29.5048 9.09154 29.4719 8.49748 29.2217C8.04971 29.0332 7.14463 29.3493 6.78916 29.0531C5.50423 27.9823 4.94006 25.3701 6.2246 23.9428C6.52542 23.6086 8.4905 22.9365 8.49748 22.755C8.5446 21.5298 8.31518 20.2045 8.02824 19.0158C7.87164 18.367 7.64464 17.7191 7.581 17.0509C7.54699 16.6937 7.5481 16.1122 7.41237 15.7898C6.93627 14.659 6.91626 13.3538 6.41523 12.2265C6.0322 11.3647 5.76667 10.4256 5.30079 9.58702C5.01609 9.07457 4.66433 8.54862 4.20834 8.19397C3.85786 7.92137 3.82796 7.41238 3.58513 7.10885C3.38579 6.85967 2.09998 5.09349 1.89881 5.49584" stroke="#F97C60" stroke-width="2" stroke-linecap="round"/>
<path d="M2.42676 26.6113H4.93425" stroke="#F97C60" stroke-width="2" stroke-linecap="round"/>
<path d="M24.8623 26.6113H27.1059" stroke="#F97C60" stroke-width="2" stroke-linecap="round"/>
<path d="M1.20585 5.88606C1.30144 8.26211 1.39703 10.6382 1.49263 13.0142C1.56779 14.8826 1.44994 16.923 1.92091 18.7351C2.21157 19.8535 1.9087 21.0722 2.15556 22.1965C2.40088 23.3137 2.35125 24.5072 2.39723 25.6502C2.44754 26.9005 2.49784 28.1508 2.54814 29.401C2.60394 30.7881 2.65974 32.1751 2.71555 33.5622C2.73677 34.0896 2.75799 34.6171 2.77921 35.1446C2.80864 35.8761 3.53973 35.3781 4.03523 35.3582C6.5579 35.2567 9.17442 35.5432 11.6958 35.1747C13.5529 34.9034 15.4945 34.8958 17.342 34.5293C19.2364 34.1536 21.1739 34.1404 23.1054 34.0627C24.1333 34.0213 25.4278 33.8443 26.3845 34.2242C27.2224 34.557 27.182 34.3471 27.1457 33.4452C27.0875 31.9987 27.1137 30.6083 27.2672 29.1697C27.5083 26.9096 27.0844 24.6275 26.9931 22.3566C26.9305 20.8021 27.1887 19.4578 26.8157 17.9464C26.5478 15.3009 26.5664 12.4811 26.4621 9.88901C26.4174 8.77621 26.2411 7.6782 26.1953 6.53904C26.1749 6.03111 26.1544 5.52318 26.134 5.01525C26.0792 3.65318 25.1728 5.70788 24.9943 6.0517C23.5904 8.75525 22.8743 11.7731 21.563 14.5108C20.6829 16.3482 20.4761 18.6842 20.5572 20.7003C20.5805 21.2792 20.5535 21.9492 21.0496 22.3609C21.3397 22.6016 23.2236 22.8117 23.2236 22.8117C23.4884 23.2692 23.9207 25.2591 24.0559 25.7694C24.1864 26.2625 24.2333 26.7136 24.2549 27.251C24.2821 27.9269 24.0191 28.0947 23.7843 28.6861C23.4719 29.4728 22.1026 29.6123 21.3866 29.6411C19.2695 29.7263 17.0238 30.5938 15.8769 32.4016C14.7523 34.1742 14.4138 35.4312 14.5002 37.5788C14.5368 38.4892 14.3595 44.1228 15.5514 44.0084C16.1605 43.9499 16.4669 43.0161 16.817 42.6367C17.1808 42.2424 17.3987 41.5322 17.8177 41.2463C17.9981 41.1232 18.4009 40.3472 18.4404 40.1279C18.5778 39.3663 19.0807 38.5469 19.1303 37.7594C19.222 36.3029 19.6809 35.0296 19.621 33.5424C19.5636 32.1156 19.4766 30.9319 19 29.5977C18.1378 27.1841 16.7702 24.943 15.3009 22.827C15.0304 22.4374 14.7818 21.7573 14.6084 21.2992C14.2551 20.3662 13.9377 19.3902 13.5411 18.4804C12.6958 16.5415 12.7771 14.2348 12.5462 12.1733C12.2286 9.33669 12.3254 6.50265 12.2113 3.66755C12.1714 2.67482 12.5123 0.47198 13.5373 2.15399C14.5391 3.79792 14.4247 6.15595 14.4998 8.02218C14.5954 10.3983 14.9205 12.8995 14.3643 15.2333C13.6033 18.4267 13.6579 21.7382 12.6388 24.8712C12.2089 26.1929 11.66 27.6279 10.9788 28.8417C10.346 29.9691 10.3858 31.1654 10.0934 32.3701C9.95356 32.9465 10.3425 33.7239 10.0739 34.2567C9.85586 34.6894 10.0826 36.1128 10.0826 36.1128C10.0826 36.1128 11.7319 43.3106 15.3491 44.2143C16.7266 44.4628 15.5975 38.5892 15.5578 37.6023C15.5142 36.5195 14.9196 35.5001 14.6466 34.469C14.4366 33.6759 14.1125 31.9875 13.2745 31.5524C12.4074 31.1022 11.6209 30.3142 10.6781 29.9398C10.0507 29.6907 9.36189 29.6854 8.75826 29.4594C8.30326 29.289 7.41163 29.6413 7.04454 29.3596C5.7176 28.3413 5.04888 25.7538 6.27501 24.2761C6.56214 23.93 8.49862 23.1795 8.4983 22.9979C8.49613 21.7718 8.21362 20.4568 7.87913 19.2806C7.69657 18.6386 7.44371 18.0003 7.35326 17.3352C7.30492 16.9797 7.28265 16.3986 7.13406 16.0819C6.61289 14.9712 6.54043 13.6678 5.9945 12.5616C5.57713 11.7158 5.27407 10.7882 4.77485 9.96905C4.46978 9.46845 4.09716 8.95707 3.62729 8.62103C3.26613 8.36274 3.21579 7.85537 2.96096 7.56185C2.75176 7.32088 1.39599 5.60782 1.21116 6.01793" stroke="#F97C60" stroke-width="2" stroke-linecap="round"/>
<path d="M2.58691 27.0957L5.09238 26.9949" stroke="#F97C60" stroke-width="2" stroke-linecap="round"/>
<path d="M25.0049 26.1934L27.2466 26.1032" stroke="#F97C60" stroke-width="2" stroke-linecap="round"/>
</svg>
