<svg width="227" height="52" viewBox="0 0 227 52" fill="none" xmlns="http://www.w3.org/2000/svg">
<path fill-rule="evenodd" clip-rule="evenodd" d="M0 17.3205H10.8593V33.0128C10.8593 36.3632 12.5006 38.4757 16.0073 38.4757C19.199 38.4757 21.045 35.7527 21.045 32.779V17.3205H31.6378V35.2816C31.6378 39.0051 29.9468 42.6814 26.8496 44.8423C23.705 47.0166 19.6678 47.5483 15.9285 47.5483C7.74623 47.5483 0.00121121 44.6691 0.00121121 35.2816V17.3205H0ZM34.7036 46.6726V17.3205H45.3896V20.7472C48.1284 17.8995 51.1942 16.2885 55.2314 16.2885C61.6307 16.2885 66.2772 19.9805 66.2772 26.5832V46.6738H55.5754V31.3557C55.5754 27.9472 54.4949 25.1139 50.5837 25.1139C46.7027 25.1139 45.3884 28.4317 45.3884 31.8269V46.675H34.7036V46.6726ZM69.5792 46.6726V17.3205H80.4372V46.6726H69.5792ZM106.722 36.6116V45.5618C104.25 46.9693 101.356 47.4878 98.5243 47.4878C90.0598 47.4878 83.1287 40.759 83.1287 32.2473C83.1287 23.423 90.0137 16.2424 98.9313 16.2424C101.702 16.2424 104.346 16.8529 106.724 18.2447V27.132C105.05 26.146 103.218 25.269 101.232 25.269C97.4148 25.269 94.613 28.0538 94.613 31.873C94.613 35.502 97.2415 38.2698 100.934 38.2698C102.999 38.2698 104.908 37.52 106.722 36.6116ZM119.035 34.6093C119.035 37.7066 120.381 40.1946 123.855 40.1946C125.999 40.1946 127.422 39.2861 128.375 37.457H138.482C137.482 40.5374 136.152 43.2773 133.384 45.1536C130.519 47.1268 127.077 47.7991 123.651 47.7991C118.364 47.7991 113.2 45.4685 110.603 40.7106C109.195 38.1123 108.319 35.0466 108.319 32.0753C108.319 27.7558 109.9 22.8743 113.123 19.9175C116.11 17.1788 120.383 16.0062 124.388 16.0062C134.165 16.0062 139.172 22.202 139.172 31.5096C139.172 32.544 139.048 33.5748 138.906 34.6093H119.035ZM141.128 46.6726V18.3065C141.128 13.9567 141.362 9.05944 144.635 5.79016C147.341 3.08413 151.55 2.34766 155.226 2.34766H158.011V10.0612H156.336C152.347 10.0612 151.94 12.5177 151.94 15.9917V17.7117H157.634V25.7547H151.94V46.6738H141.128V46.6726ZM188.347 51.6013L187.393 50.6783C189.052 48.6748 191.446 47.2528 193.793 46.1711C192.477 45.6248 191.117 45.1706 189.679 45.1391L189.302 45.5764C187.831 47.3436 185.969 47.8754 183.7 47.8754C182.089 47.8754 180.227 47.7191 178.694 47.2031L177.053 46.6714L176.442 46.2644V46.1868C176.442 45.7023 178.616 45.3559 178.959 45.2953L181.496 44.7938C183.564 44.3642 185.671 44.1439 187.783 44.1361C190.367 44.1361 192.917 44.6546 195.342 45.5134C197.876 44.6848 200.52 44.1361 203.193 44.1361C206.073 44.1361 208.905 44.5128 211.675 45.2311C211.973 45.3087 214.022 45.6708 214.022 46.2171C214.022 47.1874 207.748 47.9069 206.904 47.9069C204.9 47.9069 202.193 47.2346 201.366 45.1863C201.224 45.1863 201.068 45.1693 200.911 45.1693C199.596 45.1693 198.111 45.6539 196.906 46.1553C199.097 47.1704 201.24 48.5162 202.929 50.2532L203.258 50.5984L202.335 51.4899L201.833 51.0659L200.91 50.2374C200.16 49.5494 196.358 46.8736 195.434 46.8094C194.605 46.7477 191.475 48.8602 190.757 49.4077C189.896 50.0824 189.116 50.8346 188.347 51.6013ZM177.833 35.0005L178.788 35.9562C179.915 37.0828 184.514 42.1193 184.514 43.6686C184.514 44.0138 183.904 43.9968 183.67 43.9968C181.543 43.9968 179.634 42.4306 178.616 40.6633C177.651 39.0005 177.143 37.1113 177.145 35.1883C177.145 35.032 177.145 34.6868 177.365 34.6868C177.552 34.688 177.725 34.8915 177.833 35.0005ZM168.961 39.4908C168.994 39.3043 169.212 39.2401 169.368 39.2401C170.887 39.2401 181.089 42.9975 181.089 44.107C181.089 44.921 178.349 44.7951 177.959 44.7951C175.72 44.7951 173.655 43.7945 171.905 42.4476C171.545 42.1666 168.899 40.0395 168.961 39.4908ZM173.454 34.063C173.454 33.5615 173.766 29.2747 174.377 29.2747C174.987 29.2747 176.127 34.1078 176.269 34.6711C176.738 36.6273 177.051 38.5363 177.051 40.5543C177.051 40.7275 177.019 41.0558 176.784 41.0558C176.001 41.0558 174.579 38.5666 174.281 37.9876C173.655 36.7836 173.454 35.4075 173.454 34.063ZM165.427 31.2152C165.427 31.1062 165.457 30.9645 165.583 30.9645C167.069 30.9645 174.814 38.4285 174.814 39.9923C174.814 40.1788 174.705 40.243 174.533 40.243C172.279 40.243 169.463 37.818 168.087 36.2373C167.32 35.3458 165.427 32.4665 165.427 31.2152ZM172.967 32.951L172.515 34.7183C172.468 34.8915 172.359 35.3591 172.123 35.3591C171.231 35.3591 170.793 31.3533 170.793 30.5878C170.793 29.2105 171.169 27.803 171.671 26.5348C171.81 26.192 172.654 23.876 173.187 23.876C173.703 23.876 173.642 24.971 173.642 25.2678C173.642 27.803 173.593 30.4957 172.967 32.951ZM166.397 24.5652L167.757 26.7383C168.588 28.084 170.589 31.8245 170.589 33.4501C170.589 33.5761 170.542 33.765 170.386 33.765C170.026 33.765 169.698 33.5312 169.432 33.2938L168.243 32.2315C166.116 30.3225 164.817 26.4427 164.817 23.6095C164.817 23.4375 164.879 23.108 165.098 23.108C165.645 23.1093 166.163 24.1885 166.397 24.5652ZM173.203 19.1665C173.312 19.1665 173.329 19.261 173.329 19.3542C173.329 20.746 170.793 29.0858 169.683 29.0858C169.151 29.0858 169.199 27.5862 169.199 27.2713C169.199 24.862 170.09 22.7967 171.512 20.9035C171.731 20.6225 172.749 19.1665 173.203 19.1665ZM165.818 18.9945C165.818 18.5403 166.004 15.38 166.492 15.38C166.977 15.38 167.68 18.3065 167.775 18.682C168.386 20.935 168.807 23.3757 168.807 25.722C168.807 25.9715 168.871 26.8631 168.433 26.8631C167.915 26.8631 166.944 24.7203 166.772 24.2503C166.129 22.609 165.818 20.763 165.818 18.9945ZM170.416 21.7332L169.791 22.4067C169.665 22.5315 169.463 22.7665 169.259 22.7665C169.056 22.7665 169.056 22.5157 169.056 22.3752C169.056 20.3875 169.947 18.6044 171.183 17.1024C171.684 16.4919 173.655 14.3019 174.469 14.3019C174.58 14.3019 174.642 14.3649 174.642 14.4582C174.642 16.0837 171.59 20.4492 170.416 21.7332ZM169.291 9.57546C169.931 9.60695 169.948 13.8622 169.948 14.2692C169.948 14.8167 169.589 20.2458 168.836 20.2458C167.978 20.2458 167.744 15.8802 167.744 15.3012C167.744 14.0185 167.947 12.7818 168.337 11.562C168.432 11.281 168.836 9.54517 169.291 9.57546ZM175.002 9.68568L175.518 9.34168C175.565 9.32593 175.612 9.27869 175.66 9.27869C175.769 9.29443 175.816 9.43494 175.816 9.52942C175.816 10.6244 173.892 13.4564 173.266 14.3007C172.906 14.7707 171.201 16.8977 170.529 16.8977C170.372 16.8977 170.261 16.7572 170.261 16.6155C170.261 14.1602 173.061 10.9684 175.002 9.68568ZM175.096 6.29043L174.625 7.60468C174 9.38892 172.858 11.2967 171.545 12.6582L171.121 13.0967C171.012 13.2227 170.87 13.3777 170.699 13.3777C170.432 13.3777 170.384 13.0337 170.384 12.8302C170.384 11.0157 171.432 9.2157 172.576 7.86995C172.935 7.43146 174.437 5.61694 175.048 5.61694C175.157 5.61694 175.174 5.78894 175.174 5.86768C175.174 6.0094 175.144 6.14992 175.096 6.29043ZM206.873 44.0441C206.637 44.0441 206.402 43.9496 206.402 43.6843C206.402 42.4633 212.88 34.625 213.757 34.625C213.944 34.625 213.961 34.8903 213.961 35.0151C213.962 38.9918 211.347 44.0441 206.873 44.0441ZM210.487 43.4178L211.897 42.6826C213.647 41.7765 219.765 39.274 221.753 39.274C221.862 39.274 222.065 39.3212 222.065 39.4605C222.065 40.1485 218.67 42.6995 218.138 43.0447C216.433 44.1712 214.479 44.8593 212.427 44.8593C212.023 44.8593 209.754 44.8738 209.754 44.124C209.753 43.7776 210.221 43.5426 210.487 43.4178ZM215.04 40.2903L214.413 40.8838C214.32 40.9783 214.194 41.1043 214.053 41.1176C213.802 41.1345 213.849 40.6016 213.849 40.4768V40.243C213.849 37.52 214.694 34.7522 215.539 32.1855C215.619 31.9178 216.4 29.3232 216.854 29.3232C217.152 29.3232 217.231 30.1045 217.261 30.3068L217.527 31.8875C217.621 32.4835 217.653 33.0915 217.653 33.702C217.653 36.1597 216.824 38.5508 215.04 40.2903ZM225.085 31.3097L225.523 31.1062C225.57 31.0893 225.632 31.042 225.709 31.042C225.804 31.042 225.882 31.151 225.882 31.2455C225.877 31.327 225.855 31.4065 225.818 31.4793L225.319 32.6058C224.302 34.8746 222.345 37.3323 220.201 38.6623C219.451 39.1165 217.322 40.3036 216.431 40.3036C216.26 40.3036 216.15 40.2091 216.15 40.0383C216.15 39.1153 219.154 36.1731 219.828 35.5008C221.141 34.172 223.38 32.137 225.085 31.3097ZM217.794 25.5343L217.856 24.4865C217.873 24.3617 217.92 23.8603 218.137 23.8772C218.31 23.893 218.435 24.1425 218.514 24.2685L219.172 25.4567C220.016 27.006 220.438 28.8678 220.438 30.635C220.438 31.1837 219.812 35.4851 219.063 35.4851C218.137 35.4851 217.717 28.4305 217.717 27.8975C217.716 27.115 217.747 26.318 217.794 25.5343ZM222.064 27.9593L221.938 28.6642C221.908 28.8035 221.877 29.0543 221.69 29.0543C220.829 29.0543 218.747 22.4988 218.513 21.5297C218.496 21.4825 217.825 19.2137 218.356 19.2137C219.17 19.2137 220.906 22.3425 221.219 23.0632C221.768 24.2685 222.158 25.5512 222.158 26.8982C222.159 27.2567 222.128 27.6165 222.064 27.9593ZM225.663 16.7257L225.758 18.1175C225.788 18.3682 225.788 18.6032 225.788 18.837C225.788 20.3705 225.475 22.122 224.991 23.578C224.818 24.0468 223.552 26.8958 222.864 26.8958C222.596 26.8958 222.566 26.4112 222.566 26.238C222.566 23.6241 223.191 21.1833 223.943 18.7123C224.037 18.4143 224.819 15.5677 225.226 15.5677C225.571 15.5689 225.648 16.5222 225.663 16.7257ZM221.627 33.3423L220.892 33.7662C220.813 33.8197 220.721 33.8515 220.626 33.8583C220.517 33.8583 220.5 33.6875 220.5 33.61C220.5 32.1552 225.428 23.079 226.507 23.079C226.619 23.079 226.619 23.2667 226.619 23.3455C226.619 25.0982 226.117 26.9285 225.476 28.5564C224.804 30.2753 223.238 32.4193 221.627 33.3423ZM222.379 21.8737V22.4055C222.379 22.546 222.379 22.7495 222.206 22.7495C221.955 22.7495 221.752 22.4212 221.612 22.2638L220.562 21.0125C219.686 19.9647 216.98 16.022 216.98 14.5987C216.98 14.5042 217.028 14.3794 217.137 14.3794C217.357 14.3794 217.574 14.5357 217.73 14.6605L218.78 15.4745C220.562 16.8517 222.424 19.5262 222.379 21.8737ZM216.244 10.6087L216.057 9.98245C216.027 9.87343 215.98 9.74746 215.98 9.63845C215.98 9.55971 216.042 9.51247 216.119 9.51247C217.154 9.51247 219.344 12.0622 219.937 12.9077C220.595 13.8622 221.362 15.1607 221.362 16.349C221.362 16.4895 221.392 16.991 221.158 16.991C219.812 16.9922 216.604 11.8442 216.244 10.6087ZM217.231 5.91492L218.326 6.91666C219.781 8.24667 221.407 10.4839 221.407 12.5649C221.407 12.7684 221.471 13.4879 221.173 13.4879C219.986 13.4879 217.716 8.92014 217.34 7.99593C217.323 7.96443 216.417 5.66418 216.871 5.71142C217.011 5.71142 217.137 5.82044 217.231 5.91492ZM223.191 19.5577L222.926 20.1367C222.878 20.2312 222.831 20.3402 222.705 20.3402C222.095 20.3402 221.752 15.724 221.752 15.1619C221.752 14.6605 222.128 9.63845 222.549 9.63845C222.752 9.63845 222.909 10.3107 222.956 10.4512L223.41 11.7182C223.847 12.9235 223.959 14.4243 223.959 15.7082C223.96 17.008 223.709 18.3695 223.191 19.5577Z" fill="#1A1A1A"/>
<path fill-rule="evenodd" clip-rule="evenodd" d="M174.784 21.7803C174.784 15.6463 177.271 9.52925 181.903 5.44598C185.688 2.08221 190.742 0 195.828 0C207.404 0 216.621 9.60677 216.621 21.0911C216.621 32.7304 207.077 42.5419 195.388 42.5419C184.013 42.5419 174.784 33.0768 174.784 21.7803ZM74.9929 1.98773C78.4039 1.98773 81.2202 4.85123 81.2202 8.2465C81.2202 11.6418 78.4196 14.5355 74.9929 14.5355C71.5831 14.5355 68.7656 11.6575 68.7656 8.2465C68.7656 4.85123 71.5819 1.98773 74.9929 1.98773Z" fill="#1A1A1A"/>
<path fill-rule="evenodd" clip-rule="evenodd" d="M119.191 28.319H129.033C128.877 25.4567 127.594 23.0631 124.401 23.0631C121.006 23.0631 119.63 25.2374 119.191 28.319ZM201.536 2.70734C201.865 2.39483 202.194 2.0811 202.539 1.76859L201.899 1.59659C200.647 1.25258 199.426 0.986092 198.128 0.861328L198.502 1.06482L199.271 1.40883C200.067 1.75284 200.802 2.25311 201.536 2.70734ZM196.453 9.1696C197.924 9.05937 199.332 8.88737 200.739 8.43434C200.271 7.33933 199.756 6.29035 199.067 5.30557C198.22 5.50907 197.391 5.64957 196.517 5.68107L196.453 9.1696ZM196.436 14.1444C198.019 14.1274 199.551 13.7846 201.132 13.7216C201.536 13.6901 202.35 13.6272 202.35 13.0651C202.35 12.9561 202.32 12.8616 202.306 12.7684L202.085 11.8768C201.882 10.9853 201.522 10.1556 201.162 9.32707C199.613 9.79584 198.032 9.98359 196.421 10.1096L196.436 14.1444ZM201.601 8.2151C202.728 7.84703 203.801 7.33138 204.792 6.6816C203.839 5.61687 202.822 4.60059 201.601 3.84959C201.08 4.27201 200.507 4.62466 199.895 4.89857L200.223 5.47757L200.864 6.57258C201.162 7.08859 201.38 7.65185 201.601 8.2151ZM205.622 6.25886C206.373 5.7761 207.07 5.21494 207.702 4.58485C206.481 3.47409 204.901 2.72309 203.353 2.14409C203.025 2.53534 202.648 2.86359 202.289 3.2076C203.54 4.02159 204.652 5.1481 205.622 6.25886ZM206.233 6.99411C207.295 8.23084 208.251 9.59234 209 11.0471C210.065 10.4366 211.113 9.76314 212.036 8.95036C211.066 7.55737 209.876 6.18012 208.484 5.19534C208.047 5.61808 207.576 5.99358 207.077 6.36908L206.233 6.99411Z" fill="white"/>
<path fill-rule="evenodd" clip-rule="evenodd" d="M188.597 2.04997C180.854 5.06972 175.36 13.1285 175.36 21.4198C175.36 32.5916 184.296 41.8228 195.528 41.8228C207.311 41.8228 216.056 32.0428 216.056 20.544C216.056 16.6485 214.679 12.9553 212.628 9.70051L211.8 10.2953C211.017 10.8428 210.219 11.3588 209.375 11.813C209.548 12.1728 209.734 12.5798 209.734 12.9868C209.734 13.143 209.687 13.487 209.467 13.487C209.045 13.487 208.655 12.5798 208.514 12.2672C207.933 12.455 207.309 12.7687 206.682 12.7687C206.543 12.7687 206.26 12.6585 206.26 12.4707C206.26 11.9693 207.73 11.532 208.105 11.36C207.386 9.92097 206.572 8.6382 205.462 7.46446C204.35 8.0907 203.224 8.6382 202.02 9.07548C202.268 9.68597 202.519 10.2807 202.722 10.907L203.112 12.0952C203.19 12.3617 203.286 12.6427 203.286 12.925C203.286 14.0672 202.302 14.49 201.345 14.599L199.076 14.88C198.201 14.989 197.309 15.0363 196.418 15.052L196.432 16.4438C196.432 16.7406 196.432 17.242 195.995 17.242C195.588 17.242 195.479 16.898 195.463 16.5383L195.433 15.2083C195.011 15.2083 193.743 15.2555 193.743 14.599C193.743 14.2707 194.103 14.1762 194.37 14.1762C194.619 14.1762 194.869 14.192 195.137 14.192H195.527L195.497 10.2335L194.181 10.1705C194.001 9.76564 193.776 9.38246 193.509 9.02824L195.574 9.16996V5.66447C194.713 5.61723 193.916 5.44644 193.085 5.21024C192.82 5.56999 192.023 7.19797 191.616 7.19797C191.412 7.19797 191.288 6.97873 191.288 6.79098C191.288 6.11871 191.834 5.33621 192.194 4.80324C191.551 4.52902 190.946 4.17145 190.396 3.73973C189.847 4.08373 187.829 5.78924 187.579 5.78924C187.375 5.78924 187.283 5.52276 187.283 5.35075C187.283 4.67848 189.128 3.58347 189.644 3.23946C189.272 2.86396 188.927 2.45696 188.597 2.04997ZM193.573 0.970703H193.447C192.134 0.970703 190.945 1.29897 189.709 1.7532C189.96 2.08147 190.225 2.3637 190.538 2.61322C191.508 1.9567 192.511 1.45643 193.573 0.970703Z" fill="white"/>
<path fill-rule="evenodd" clip-rule="evenodd" d="M194.732 1.4707C193.434 1.8462 192.322 2.42521 191.165 3.14472C191.681 3.47298 192.213 3.75521 192.759 4.00474L193.387 3.14472L194.184 2.17447L194.732 1.4707ZM193.651 4.34995C194.278 4.55224 194.902 4.70971 195.56 4.83447L195.624 2.04849C195.465 1.97218 193.807 4.13071 193.651 4.34995ZM196.577 2.11269L196.56 4.80297C197.209 4.72333 197.852 4.60318 198.486 4.44322C197.923 3.5832 197.344 2.80191 196.577 2.11269ZM199.487 4.05319C199.918 3.81591 200.336 3.55467 200.738 3.27069C199.768 2.58267 198.846 2.08241 197.719 1.68995C198.204 2.30044 198.673 2.91094 199.11 3.53596L199.487 4.05319Z" fill="white"/>
<path fill-rule="evenodd" clip-rule="evenodd" d="M177.833 18.4454C177.568 18.6016 177.301 18.7579 177.036 18.9299C177.257 16.1294 178.617 11.5131 180.916 9.77734C180.76 10.2619 180.651 10.7318 180.603 11.2321C179.149 13.3918 178.287 15.8956 177.833 18.4454ZM208.469 35.0934L208.251 34.4829C209.753 33.0754 211.004 31.3529 211.816 29.4464L212.958 28.4906C212.005 30.9932 210.706 33.5127 208.469 35.0934Z" fill="#1A1A1A"/>
<path fill-rule="evenodd" clip-rule="evenodd" d="M207.796 35.8912C204.29 38.676 200.223 40.5074 195.703 40.5074C184.657 40.5074 176.691 31.7776 176.691 20.9499C176.691 18.1021 181.606 18.0864 181.606 15.4421C181.606 14.0964 181.074 12.8136 181.074 11.4836C181.074 8.46383 183.827 6.07031 186.738 6.07031C189.742 6.07031 193.934 8.69883 193.934 12.0166C193.934 14.0031 192.387 14.9261 192.387 16.0998C192.387 16.4753 192.449 16.8508 192.449 17.2263C192.449 17.6333 191.856 17.7109 191.808 18.1493L191.778 18.3843L191.51 18.7913L191.277 19.2141C191.168 19.3861 190.527 19.8718 190.323 20.0911C189.964 20.4823 189.445 20.561 188.93 20.561C188.602 20.561 188.258 20.5453 187.944 20.4666L187.086 20.2328C186.942 20.2007 186.795 20.1849 186.648 20.1855C186.177 20.1855 185.631 20.5138 185.631 21.031C185.631 21.8753 186.1 22.705 186.068 23.565L186.021 25.835L186.051 25.9913L186.302 26.7411L186.488 27.3843C186.772 28.432 188.414 28.3545 189.492 28.7748L190.415 29.1201C190.541 29.1649 190.696 29.2593 190.839 29.2593C191.403 29.2593 192.06 28.1946 192.999 28.1946C193.359 28.1946 193.373 28.7433 193.687 28.713L194.579 28.6355C194.765 28.6028 194.906 29.355 194.906 29.5113C194.906 30.8243 194 32.5153 192.528 32.5153C191.917 32.5153 191.449 32.0308 190.887 32.0308C190.653 32.0308 188.913 32.5153 188.431 32.594C187.743 32.7031 187.054 32.8121 186.366 32.8121C185.834 32.8121 185.051 32.829 184.596 32.5468L184.237 32.313C184.175 32.2827 184.111 32.2355 184.033 32.2355C183.47 32.2355 183.189 33.66 183.189 34.0331C183.189 35.7555 185.38 36.3963 186.726 36.3963C187.585 36.3963 188.476 36.2703 189.276 35.9251L191.701 34.8628C193.451 34.096 196.425 33.7678 196.926 33.5001C197.363 33.2663 197.707 32.8593 197.707 32.3433C197.706 32.1275 197.68 31.9125 197.63 31.7025L197.412 30.8413L197.239 29.7935L197.097 28.6513C196.784 25.898 193.515 25.7575 193.515 23.7068C193.515 22.8625 194.407 22.3768 194.438 21.5785C194.455 21.2503 194.5 21.031 194.815 20.8748L195.127 20.7343C195.565 20.5308 195.127 19.5605 195.691 19.357L195.989 19.248C196.661 19.013 196.05 17.6212 197.006 17.4953L197.773 17.3862L198.696 17.1985C199.822 16.9635 199.761 15.837 201.091 15.258L202.481 14.6475L203 14.3192L203.608 13.6785C204.156 13.131 205.079 13.0207 205.815 13.0207C210.963 13.0207 214.733 17.0265 214.733 22.0643C214.733 25.9913 211.556 30.983 207.238 30.983C206.957 30.983 206.675 30.9503 206.394 30.9503C205.689 30.9503 205.641 31.7328 205.641 32.2827C205.641 34.0973 207.833 35.3485 207.833 35.38C207.833 35.5363 207.802 35.6925 207.802 35.8488V35.8912H207.796Z" fill="#1A1A1A"/>
</svg>
