<svg width="61" height="49" viewBox="0 0 61 49" fill="none" xmlns="http://www.w3.org/2000/svg">
<path d="M0.723451 47.3428C2.05688 41.2459 3.41525 35.0767 6.14951 29.435C9.4665 22.5221 14.7149 16.7226 21.2535 12.7451C27.7923 8.76754 35.3381 6.78406 42.9694 7.03697C48.9062 7.24025 54.7178 8.77978 59.9751 11.5418C60.8736 12.0129 60.3767 13.2991 59.5751 13.5221L46.8276 16.9309C45.5424 17.2709 45.1767 15.4858 46.1876 14.8895C50.0661 12.4476 54.4653 10.9657 59.0217 10.5662L58.6263 12.5344L46.9474 2.97005L48.5458 1.56428C50.4023 4.67568 53.2838 7.03672 56.6936 8.24061C56.9674 8.33488 57.1924 8.53458 57.3193 8.79565C57.4456 9.05695 57.4635 9.3582 57.369 9.63325C57.2744 9.90824 57.0751 10.1346 56.8144 10.2624C56.5538 10.3903 56.2533 10.4093 55.9796 10.315C52.0312 8.9066 48.7034 6.1525 46.5747 2.53152C46.469 2.31472 46.4377 2.0687 46.4856 1.83179C46.5336 1.59487 46.6581 1.38023 46.84 1.2213C47.0217 1.0624 47.2506 0.968023 47.4909 0.952901C47.7312 0.937802 47.9696 1.00283 48.1689 1.1378L59.8675 10.7225C60.5041 11.252 60.4771 12.6185 59.4515 12.7107C55.0552 13.0867 50.8113 14.5228 47.0811 16.8968L46.441 14.8554L59.1725 11.4544L58.7605 13.4307C54.3258 11.1379 49.4771 9.75785 44.4987 9.37132C39.5202 8.98485 34.5122 9.59962 29.7678 11.1798C20.8135 14.2899 13.3449 20.6674 8.84922 29.0423C5.63441 34.9098 4.18986 41.6024 2.78822 48.0535C2.69075 48.3266 2.4908 48.5508 2.23113 48.6782C1.97146 48.8056 1.67273 48.8262 1.39879 48.7353C1.12704 48.6383 0.90422 48.4382 0.778003 48.178C0.651786 47.9177 0.632201 47.6179 0.723451 47.3428Z" fill="#F97C60"/>
</svg>
