<svg width="72" height="72" viewBox="0 0 72 72" fill="none" xmlns="http://www.w3.org/2000/svg">
<path d="M71.177 2.43292C70.5963 10.6209 69.9968 18.9078 67.5067 26.7686C64.4988 36.3944 58.7662 44.9368 51.0092 51.3523C43.2522 57.7678 33.8066 61.7787 23.8261 62.895C16.0606 63.7549 8.20487 62.852 0.838992 60.2529C-0.419676 59.8098 -0.0166071 58.0417 0.98453 57.5996L16.9304 50.7483C18.5388 50.0623 19.3528 52.3165 18.15 53.2841C13.5645 57.197 8.11941 59.9591 2.26474 61.342L2.40656 58.7054L19.4189 68.9418L17.6047 71.0742C14.599 67.3762 10.4015 64.849 5.7353 63.928C5.36115 63.8571 5.0304 63.6398 4.81582 63.3241C4.602 63.0079 4.52156 62.6192 4.59254 62.2433C4.66356 61.8675 4.88009 61.5351 5.19512 61.3194C5.5101 61.1036 5.8976 61.0219 6.2718 61.0928C11.6776 62.178 16.5306 65.1323 19.987 69.442C20.1657 69.7041 20.253 70.0184 20.2355 70.3359C20.2179 70.6533 20.0965 70.9563 19.8899 71.1975C19.6834 71.4388 19.4035 71.605 19.0935 71.6702C18.7836 71.7354 18.461 71.6959 18.176 71.558L1.13418 61.2988C0.205345 60.7302 -0.0182783 58.9466 1.29913 58.6322C6.94987 57.3102 12.2016 54.6372 16.607 50.8408L17.8267 53.3765L1.90013 60.2145L2.06213 57.5642C8.26836 59.7085 14.8406 60.5863 21.3935 60.1464C27.9464 59.7064 34.3482 57.9577 40.2239 55.0024C51.2894 49.2583 59.8022 39.5431 64.0672 27.791C67.1401 19.5453 67.7526 10.5609 68.3549 1.89892C68.4301 1.52508 68.6479 1.19536 68.9617 0.980347C69.2755 0.765338 69.6605 0.682007 70.0342 0.748335C70.4063 0.823183 70.7342 1.04135 70.9478 1.35618C71.1613 1.67102 71.2436 2.05751 71.177 2.43292Z" fill="#F97C60"/>
</svg>
