<svg width="32" height="34" viewBox="0 0 32 34" fill="none" xmlns="http://www.w3.org/2000/svg">
<path fill-rule="evenodd" clip-rule="evenodd" d="M27.8854 0.0222626L26.8116 3.89352C26.5163 4.80187 26.1986 6.16729 26.0267 7.50844C25.9394 8.18915 25.8861 8.89115 25.8985 9.54237C25.9104 10.172 25.9846 10.8542 26.2162 11.4391C26.7268 12.7291 27.3379 13.3476 28.1066 14.0285L28.1341 14.0528L31.0375 16.3444L31.0724 16.3684C31.2717 16.5056 31.6222 16.838 31.8172 17.2349C31.9803 17.567 32.0128 17.8718 31.815 18.227C31.4112 18.8043 31.0051 18.8846 30.6178 18.8345C30.1138 18.7692 29.5361 18.4422 29.1217 18.0196L27.5295 16.3399C27.3637 16.1442 27.1652 15.9071 26.9466 15.646C26.5119 15.1269 25.9973 14.5123 25.501 13.9383C24.7652 13.0872 23.9411 12.1718 23.3673 11.7164C23.3108 11.6715 23.2482 11.6207 23.1798 11.5651C22.6366 11.1236 21.7253 10.3828 20.553 9.97115C19.1416 9.47551 17.4311 9.46503 15.4624 10.5032C15.0282 10.7322 14.4048 11.1331 13.802 11.6547C13.2097 12.1672 12.5486 12.8721 12.1523 13.7272C11.7308 14.6369 12.2754 15.5362 13.004 15.8237C14.1708 16.284 16.4328 17.5398 17.7635 19.4528C18.3498 20.3053 19.5856 22.1804 20.07 23.157C20.4526 23.9282 21.2027 25.1112 22.1326 26.2464C23.0298 27.3418 24.1971 28.5205 25.4728 29.2015C25.8319 29.4468 26.3381 29.7214 26.9646 29.97C24.3529 31.825 21.7708 33.1817 19.7141 33.8658C12.8142 31.5708 0 21.7049 0 10.8525C0 4.85885 4.85448 0 10.8428 0C14.5099 0 17.7519 1.82213 19.7141 4.61111C21.5505 2.00101 24.5078 0.23772 27.8854 0.0222626ZM7.20625 9.29547C7.26683 10.4368 8.16054 13.0619 11.2507 14.4314C11.1395 13.1987 10.175 10.4458 7.20625 9.29547ZM4.15569 16.0065C5.17164 16.5302 7.88896 17.0834 10.6307 15.1067C9.5104 14.5806 6.647 14.0241 4.15569 16.0065ZM9.59941 21.5208C10.4926 20.858 12.1096 18.7439 11.4315 15.5903C10.4933 16.3419 8.81352 18.5803 9.59941 21.5208Z" fill="#F97C60"/>
</svg>
