<svg viewBox="0 0 20 24"  xmlns="http://www.w3.org/2000/svg" style="display:none">

	<symbol viewBox="0 0 24 24" id="btn-arrow">
		<path d="M8 16L16.5 7.5" fill="none" stroke-width="2" stroke-linecap="round" stroke-linejoin="round"/>
		<path d="M16.5 16.5V7.5H7.5" fill="none" stroke-width="2" stroke-linecap="round" stroke-linejoin="round"/>
	</symbol>

	<symbol viewBox="0 0 129 41" id="link-line">
		<path d="M70.9207 1C67.827 1 64.7332 1 61.6395 1C56.4392 1 51.805 1.74499 46.6865 2.44444C40.7106 3.26107 34.1911 3.04652 28.4335 5.16C22.0577 7.5004 16.0791 10.7645 10.2321 14.4044C7.40619 16.1636 2.98044 17.7716 1.41493 21.28C-0.180947 24.8565 3.18118 30.7256 5.48834 32.72C9.02015 35.773 12.7621 36.6076 17.1414 37.2844C22.5208 38.1159 27.8299 39.4274 33.2803 39.48C41.9822 39.5641 50.6578 40 59.3708 40C68.9736 40 78.5427 39.4663 88.1167 38.7C96.0957 38.0614 103.712 38.104 111.294 34.8C117.876 31.9318 128 27.4805 128 18.16C128 9.60535 116.944 8.05238 111.01 6.98C106.076 6.08829 101.196 6.2 96.2119 6.2C86.2347 6.2 76.2574 6.2 66.2801 6.2" stroke-linecap="round"/>
	</symbol>

	<symbol viewBox="0 0 8 5" id="drop-down-arrow">
		<path d="M4 4.5L0.535899 0.75L7.4641 0.75L4 4.5Z"/>
	</symbol>

	<symbol viewBox="0 0 28 28" id="facebook">
		<path d="M28 14C28 6.26801 21.732 0 14 0C6.26801 0 0 6.26801 0 14C0 20.9877 5.11957 26.7796 11.8125 27.8299V18.0469H8.25781V14H11.8125V10.9156C11.8125 7.40688 13.9027 5.46875 17.1005 5.46875C18.6318 5.46875 20.2344 5.74219 20.2344 5.74219V9.1875H18.4691C16.73 9.1875 16.1875 10.2668 16.1875 11.375V14H20.0703L19.4496 18.0469H16.1875V27.8299C22.8804 26.7796 28 20.9877 28 14Z"/>
	</symbol>

	<symbol viewBox="0 0 24 24" id="facebook-2">
		<path d="M18 6.29985H15.6244H14.9936C14.4504 6.29985 14.0101 6.74015 14.0101 7.2833V10.7337H18L17.4156 14.5322H14.0101V21.5H9.62255V14.5322H6V10.7337H9.57575L9.62255 7.12815L9.6159 6.47355C9.59395 4.30109 11.3372 2.52217 13.5097 2.5002C13.5229 2.50007 13.5362 2.5 13.5494 2.5H18V6.29985Z"/>
	</symbol>
	
	<symbol viewBox="0 0 30 26" id="twitter">
		<path d="M9.4344 25.1891C20.7552 25.1891 26.9472 15.8099 26.9472 7.67626C26.9472 7.40986 26.9472 7.14466 26.9292 6.88066C28.1338 6.00935 29.1736 4.93052 30 3.69466C28.8767 4.19266 27.685 4.5191 26.4648 4.66306C27.7498 3.89392 28.7114 2.68404 29.1708 1.25866C27.9626 1.97567 26.6408 2.48094 25.2624 2.75266C24.3344 1.76588 23.107 1.11246 21.7702 0.893516C20.4335 0.67457 19.0618 0.902304 17.8675 1.54148C16.6731 2.18065 15.7228 3.19563 15.1634 4.42935C14.6041 5.66306 14.4669 7.04674 14.7732 8.36626C12.3261 8.24351 9.9322 7.60755 7.74682 6.49967C5.56144 5.39178 3.63345 3.83674 2.088 1.93546C1.30091 3.29045 1.05984 4.8945 1.41387 6.42099C1.76791 7.94748 2.69043 9.28165 3.9936 10.1519C3.01404 10.1232 2.05581 9.8589 1.2 9.38146V9.45946C1.20039 10.8805 1.69231 12.2577 2.59234 13.3574C3.49236 14.4571 4.74508 15.2117 6.138 15.4931C5.23185 15.7402 4.28109 15.7764 3.3588 15.5987C3.75227 16.8216 4.51804 17.891 5.54905 18.6573C6.58006 19.4237 7.82478 19.8488 9.1092 19.8731C7.83305 20.8762 6.37164 21.6178 4.80859 22.0556C3.24554 22.4933 1.61152 22.6186 0 22.4243C2.81479 24.2305 6.08991 25.1887 9.4344 25.1843"/>
	</symbol>
	
	<symbol viewBox="0 0 26 26" id="instagram">
		<path d="M13 2.34102C16.4734 2.34102 16.8848 2.35625 18.2508 2.41719C19.5203 2.47305 20.2059 2.68633 20.6629 2.86406C21.2672 3.09766 21.7039 3.38203 22.1559 3.83398C22.6129 4.29102 22.8922 4.72266 23.1258 5.32695C23.3035 5.78398 23.5168 6.47461 23.5727 7.73906C23.6336 9.11016 23.6488 9.52149 23.6488 12.9898C23.6488 16.4633 23.6336 16.8746 23.5727 18.2406C23.5168 19.5102 23.3035 20.1957 23.1258 20.6527C22.8922 21.257 22.6078 21.6938 22.1559 22.1457C21.6988 22.6027 21.2672 22.882 20.6629 23.1156C20.2059 23.2934 19.5152 23.5066 18.2508 23.5625C16.8797 23.6234 16.4684 23.6387 13 23.6387C9.52656 23.6387 9.11524 23.6234 7.74922 23.5625C6.47969 23.5066 5.79414 23.2934 5.33711 23.1156C4.73281 22.882 4.29609 22.5977 3.84414 22.1457C3.38711 21.6887 3.10781 21.257 2.87422 20.6527C2.69648 20.1957 2.4832 19.5051 2.42734 18.2406C2.36641 16.8695 2.35117 16.4582 2.35117 12.9898C2.35117 9.51641 2.36641 9.10508 2.42734 7.73906C2.4832 6.46953 2.69648 5.78398 2.87422 5.32695C3.10781 4.72266 3.39219 4.28594 3.84414 3.83398C4.30117 3.37695 4.73281 3.09766 5.33711 2.86406C5.79414 2.68633 6.48477 2.47305 7.74922 2.41719C9.11524 2.35625 9.52656 2.34102 13 2.34102ZM13 0C9.4707 0 9.02891 0.0152344 7.64258 0.0761719C6.26133 0.137109 5.31172 0.360547 4.48906 0.680469C3.63086 1.01562 2.90469 1.45742 2.18359 2.18359C1.45742 2.90469 1.01563 3.63086 0.680469 4.48398C0.360547 5.31172 0.137109 6.25625 0.0761719 7.6375C0.0152344 9.02891 0 9.4707 0 13C0 16.5293 0.0152344 16.9711 0.0761719 18.3574C0.137109 19.7387 0.360547 20.6883 0.680469 21.5109C1.01563 22.3691 1.45742 23.0953 2.18359 23.8164C2.90469 24.5375 3.63086 24.9844 4.48398 25.3145C5.31172 25.6344 6.25625 25.8578 7.6375 25.9188C9.02383 25.9797 9.46563 25.9949 12.9949 25.9949C16.5242 25.9949 16.966 25.9797 18.3523 25.9188C19.7336 25.8578 20.6832 25.6344 21.5059 25.3145C22.359 24.9844 23.0852 24.5375 23.8063 23.8164C24.5273 23.0953 24.9742 22.3691 25.3043 21.516C25.6242 20.6883 25.8477 19.7438 25.9086 18.3625C25.9695 16.9762 25.9848 16.5344 25.9848 13.0051C25.9848 9.47578 25.9695 9.03399 25.9086 7.64766C25.8477 6.26641 25.6242 5.3168 25.3043 4.49414C24.9844 3.63086 24.5426 2.90469 23.8164 2.18359C23.0953 1.4625 22.3691 1.01562 21.516 0.685547C20.6883 0.365625 19.7438 0.142188 18.3625 0.08125C16.9711 0.0152344 16.5293 0 13 0Z"/>
		<path d="M13 6.32227C9.31328 6.32227 6.32227 9.31328 6.32227 13C6.32227 16.6867 9.31328 19.6777 13 19.6777C16.6867 19.6777 19.6777 16.6867 19.6777 13C19.6777 9.31328 16.6867 6.32227 13 6.32227ZM13 17.3316C10.6082 17.3316 8.66836 15.3918 8.66836 13C8.66836 10.6082 10.6082 8.66836 13 8.66836C15.3918 8.66836 17.3316 10.6082 17.3316 13C17.3316 15.3918 15.3918 17.3316 13 17.3316Z"/>
		<path d="M21.5008 6.05899C21.5008 6.92227 20.8 7.61797 19.9418 7.61797C19.0785 7.61797 18.3828 6.91719 18.3828 6.05899C18.3828 5.1957 19.0836 4.5 19.9418 4.5C20.8 4.5 21.5008 5.20078 21.5008 6.05899Z"/>
	</symbol>
	
	<symbol viewBox="0 0 26 26" id="linkedin">
		<path d="M24.0807 0H1.91931C1.41027 0 0.922092 0.202212 0.562152 0.562152C0.202212 0.922092 0 1.41027 0 1.91931V24.0807C0 24.5897 0.202212 25.0779 0.562152 25.4379C0.922092 25.7978 1.41027 26 1.91931 26H24.0807C24.5897 26 25.0779 25.7978 25.4379 25.4379C25.7978 25.0779 26 24.5897 26 24.0807V1.91931C26 1.41027 25.7978 0.922092 25.4379 0.562152C25.0779 0.202212 24.5897 0 24.0807 0ZM7.74944 22.1488H3.84042V9.73195H7.74944V22.1488ZM5.79222 8.01125C5.34881 8.00875 4.91608 7.87496 4.54863 7.62676C4.18118 7.37856 3.89549 7.02708 3.72762 6.61666C3.55974 6.20625 3.5172 5.75531 3.60537 5.32074C3.69353 4.88618 3.90845 4.48747 4.223 4.17493C4.53755 3.86239 4.93763 3.65004 5.37276 3.56467C5.80788 3.47929 6.25854 3.52473 6.66786 3.69523C7.07719 3.86574 7.42683 4.15368 7.67267 4.52271C7.91851 4.89175 8.04952 5.32533 8.04917 5.76875C8.05335 6.06562 7.99772 6.36029 7.8856 6.63521C7.77347 6.91012 7.60715 7.15964 7.39654 7.36891C7.18592 7.57817 6.93534 7.74289 6.65971 7.85325C6.38408 7.9636 6.08906 8.01734 5.79222 8.01125ZM22.1578 22.1596H18.2506V15.3761C18.2506 13.3756 17.4001 12.7581 16.3024 12.7581C15.1432 12.7581 14.0057 13.6319 14.0057 15.4267V22.1596H10.0967V9.74097H13.8558V11.4617H13.9064C14.2838 10.6979 15.6054 9.3925 17.6222 9.3925C19.8033 9.3925 22.1596 10.6871 22.1596 14.4788L22.1578 22.1596Z"/>
	</symbol>

	<symbol viewBox="0 0 24 24" id="linkedin-2">
		<path fill-rule="evenodd" d="M5.162 3.644c-1.885.513-2.132 3.236-.37 4.081.727.349 1.148.349 1.874 0 1.426-.684 1.617-2.89.325-3.746-.45-.298-1.355-.464-1.829-.335zm11.304 5.631c-.953.216-1.498.48-2.071 1.003l-.634.579v-.599-.599h-1.887-1.887l.043 5.923.043 5.924h1.803 1.803l.082-3.811.286-4.171c.894-1.578 3.167-1.321 3.643.412.092.336.168 2.198.169 4.137v3.526l1.844-.047 1.844-.047.046-3.562-.126-4.693c-.458-3.01-2.412-4.564-5.001-3.976zM3.964 15.582l.043 5.924 1.762.047 1.762.047v-5.97-5.971H5.726 3.921l.043 5.923z"/>
	</symbol>
		
	<symbol viewBox="0 0 36 26" id="youtube">
		<path d="M35.2 4.3C35 3.5 34.6 2.8 34 2.3C33.4 1.7 32.7 1.3 32 1.1C29.2 0.299999 18 0.299999 18 0.299999C18 0.299999 6.8 0.299999 3.9 1.1C3.1 1.3 2.4 1.7 1.9 2.3C1.3 2.9 0.9 3.6 0.7 4.3C0 7.1 0 13 0 13C0 13 0 18.9 0.8 21.7C1 22.5 1.4 23.2 2 23.7C2.6 24.3 3.3 24.7 4 24.9C6.8 25.7 18 25.7 18 25.7C18 25.7 29.3 25.7 32.1 24.9C32.9 24.7 33.6 24.3 34.1 23.7C34.7 23.1 35.1 22.4 35.3 21.7C36 18.9 36 13 36 13C36 13 36 7.1 35.2 4.3ZM14.3 18.4V7.6L23.7 13L14.3 18.4Z"/>
	</symbol>

	<symbol viewBox="0 0 16 18" id="play">
		<path d="M0 0.00407605C0 7.92845 1.05269 10.9285 0 18C0.533923 17.6794 1.20427 17.3589 1.74409 17.0511C5.66766 14.8148 9.90199 13.2617 13.7169 10.8085C14.4386 10.3439 15.1452 9.84848 15.8198 9.30504C15.9057 9.23561 16 9.14818 16 9.03075C16.0008 8.88761 15.8661 8.79675 15.7482 8.73675C14.4387 8.07074 13.0441 7.63616 11.6983 7.06359C9.5205 6.13615 7.48502 4.85299 5.45881 3.57583C4.36065 2.88325 3.26164 2.18982 2.16348 1.49724C1.77441 1.25209 1.37607 0.998373 1.09227 0.616083C0.803411 0.226078 0.455603 -0.0362101 0 0.00407605Z" fill="white"/>
	</symbol>

	<symbol viewBox="0 0 24 24" id="arrow-prev">
		<path d="M17.6561 12H5.63525" stroke="white" fill="none" stroke-width="2" stroke-linecap="round" stroke-linejoin="round"/>
		<path d="M11.9992 18.364L5.63525 12L11.9992 5.63604"  fill="none" stroke="white" stroke-width="2" stroke-linecap="round" stroke-linejoin="round"/>
	</symbol>

	<symbol viewBox="0 0 24 24" id="arrow-next">
		<path d="M6.34393 12H18.3647" stroke="white" fill="none" stroke-width="2" stroke-linecap="round" stroke-linejoin="round"/>
		<path d="M12.0008 18.364L18.3647 12L12.0008 5.63604" fill="none" stroke="white" stroke-width="2" stroke-linecap="round" stroke-linejoin="round"/>
	</symbol>

	<symbol viewBox="0 0 20 20" id="arrow-pagination-prev">
		<path d="M12.916 15L7.91602 10L12.916 5" stroke-width="1.66667" stroke-linecap="square"/>
	</symbol>

	<symbol viewBox="0 0 20 20" id="arrow-pagination-next">
		<path d="M7.08398 15L12.084 10L7.08398 5" stroke-width="1.66667" stroke-linecap="square"/>
	</symbol>

	<symbol viewBox="0 0 16 16" id="email">
		<path d="M1.33203 13H14.6654V8V3H7.9987H1.33203V8V13Z" fill="none" stroke="#555555" stroke-width="1.33333" stroke-linejoin="round"/>
		<path d="M1.33203 3L7.9987 8L14.6654 3" fill="none" stroke="#555555" stroke-width="1.33333" stroke-linecap="round" stroke-linejoin="round"/>
		<path d="M7.9987 3H1.33203V8" fill="none" stroke="#555555" stroke-width="1.33333" stroke-linecap="round" stroke-linejoin="round"/>
		<path d="M14.6667 8V3H8" fill="none" stroke="#555555" stroke-width="1.33333" stroke-linecap="round" stroke-linejoin="round"/>
	</symbol>

	<symbol viewBox="0 0 33 30" id="current-pagination-line">
		<path d="M14.9876 1C12.8117 1 10.7283 1.94125 8.94548 3.11777C7.12274 4.32063 5.17521 5.55255 3.81475 7.29449C2.11881 9.46598 1.07005 12.4974 1.01311 15.2193C0.963051 17.6121 0.97887 19.7456 2.54051 21.7155C5.55723 25.5209 10.2052 28.8112 15.2661 28.9764C18.1192 29.0696 20.2651 28.9475 22.7343 27.4721C24.5765 26.3714 26.378 25.2468 28.0591 23.9173C29.2776 22.9537 30.6542 21.8117 31.1646 20.2868C31.3743 19.6604 31.7675 19.1083 31.8481 18.4464C31.9629 17.5032 32 16.5885 32 15.6395C32 14.0918 31.8711 12.6935 31.1646 11.2863C30.5824 10.1267 29.5103 9.25047 28.692 8.26093C27.3356 6.62059 26.1108 5.00904 24.0676 4.17666C23.0999 3.7824 22.0362 2.93357 20.9875 2.82364C19.7443 2.69332 18.5298 2.36142 17.266 2.36142" stroke="#F97C60" stroke-linecap="round"/>
	</symbol>

	<symbol viewBox="0 0 90 6" id="link-line-2">
		<path d="M88.0516 1.88652C77.3286 2.74027 66.6553 1.94455 56.0361 2.79003C47.8766 3.43968 39.9942 3.70819 31.882 3.11333C26.0447 2.68529 20.2126 3.17397 14.3264 3.64262C11.8593 3.83905 1.81853 2.83115 1.06355 4.69859" stroke-width="2" stroke-linecap="round"/>
	</symbol>

	<symbol viewBox="0 0 14 14" id="copy">
		<path d="M6.125 0C5.15977 0 4.375 0.784766 4.375 1.75V7.875C4.375 8.84023 5.15977 9.625 6.125 9.625H12.25C13.2152 9.625 14 8.84023 14 7.875V1.75C14 0.784766 13.2152 0 12.25 0H6.125ZM1.75 4.375C0.784766 4.375 0 5.15977 0 6.125V12.25C0 13.2152 0.784766 14 1.75 14H7.875C8.84023 14 9.625 13.2152 9.625 12.25V10.5H7.875V12.25H1.75V6.125H3.5V4.375H1.75Z"/>
	</symbol>

	<symbol viewBox="0 0 16 16" id="check">
		<path d="M2.28571 0.125C1.025 0.125 0 1.13398 0 2.375V13.625C0 14.866 1.025 15.875 2.28571 15.875H13.7143C14.975 15.875 16 14.866 16 13.625V2.375C16 1.13398 14.975 0.125 13.7143 0.125H2.28571ZM12.0357 6.34766L7.46429 10.8477C7.12857 11.1781 6.58571 11.1781 6.25357 10.8477L3.96786 8.59766C3.63214 8.26719 3.63214 7.73281 3.96786 7.40586C4.30357 7.07891 4.84643 7.07539 5.17857 7.40586L6.85714 9.0582L10.8214 5.15234C11.1571 4.82188 11.7 4.82188 12.0321 5.15234C12.3643 5.48281 12.3679 6.01719 12.0321 6.34414L12.0357 6.34766Z"/>
	</symbol>

	<symbol viewBox="0 0 64 42" id="quote">
		<path d="M12.2904 0C5.84543 5.72043 0 18.2151 0 27.0968C0 37.0323 7.19438 42 14.5386 42C23.5316 42 28.6276 34.7742 28.6276 27.5484C28.6276 21.828 25.4801 16.2581 17.9859 14.1505H17.8361C19.0351 9.03226 21.4333 3.91398 23.9813 0H12.2904ZM47.6628 0C41.2178 5.72043 35.3724 18.2151 35.3724 27.0968C35.3724 37.0323 42.5667 42 49.911 42C58.7541 42 64 34.7742 64 27.5484C64 21.828 60.8525 16.2581 53.3583 14.1505H53.2084C54.4075 9.03226 56.8056 3.91398 59.3536 0H47.6628Z" fill="#8CE5B5"/>
	</symbol>

	<symbol viewBox="0 0 16 16" id="clock">
		<path d="M8.00235 4L8.00195 8.00293L10.8284 10.8294M8.00065 14.6673C11.6826 14.6673 14.6673 11.6826 14.6673 8.00065C14.6673 4.31875 11.6826 1.33398 8.00065 1.33398C4.31875 1.33398 1.33398 4.31875 1.33398 8.00065C1.33398 11.6826 4.31875 14.6673 8.00065 14.6673Z" fill="none" stroke="#4A4A4A" stroke-width="1.33333" stroke-linecap="square"/>
	</symbol>

	<symbol viewBox="0 0 16 16" id="close">
		<path d="M15.5265 2.73247C16.1512 2.10776 16.1512 1.09324 15.5265 0.46853C14.9018 -0.156177 13.8872 -0.156177 13.2625 0.46853L8 5.73606L2.73247 0.473528C2.10776 -0.151179 1.09324 -0.151179 0.46853 0.473528C-0.156177 1.09824 -0.156177 2.11276 0.46853 2.73747L5.73606 8L0.473528 13.2675C-0.151179 13.8922 -0.151179 14.9068 0.473528 15.5315C1.09824 16.1562 2.11276 16.1562 2.73747 15.5315L8 10.2639L13.2675 15.5265C13.8922 16.1512 14.9068 16.1512 15.5315 15.5265C16.1562 14.9018 16.1562 13.8872 15.5315 13.2625L10.2639 8L15.5265 2.73247Z" fill="#C9C9C9"/>
	</symbol>
		
</svg>