<svg width="202" height="87" viewBox="0 0 202 87" fill="none" xmlns="http://www.w3.org/2000/svg">
<path d="M51.0834 24.6564C51.0834 23.2823 51.0834 21.9082 51.0834 20.5341C51.0834 19.3553 49.3565 18.2785 48.2833 18.2785C47.9353 18.2785 47.0338 18.1194 46.8487 18.4341C46.5177 18.9968 46.008 19.1711 45.5697 19.6094C44.647 20.5321 44.0693 21.6137 43.6166 22.8589C42.3892 26.2342 41.7569 29.7971 40.54 33.1776C40.3689 33.6527 40.0696 34.0868 40.0387 34.6122C40.0081 35.1331 39.4435 35.5425 40.2807 35.0097C41.2102 34.4183 42.8888 34.2154 43.9622 34.0245C45.1202 33.8187 46.3891 33.7971 47.5142 33.4455C49.3957 32.8575 51.5181 32.3828 53.2266 31.3455C54.4753 30.5874 56.1124 30.3225 57.2366 29.3232C58.0438 28.6057 59.0169 28.2642 59.0169 27.0676C59.0169 25.9935 57.9046 24.9676 56.7613 24.9676C55.6868 24.9676 54.6982 24.5009 53.5723 24.5009C52.8934 24.5009 52.5451 24.6687 51.9389 24.8034C51.7363 24.8484 51.1799 25.1773 51.0229 25.1145C50.9823 25.0982 51.7371 24.7462 51.8612 24.691C52.5653 24.3781 53.479 24.5009 54.2291 24.5009C54.8766 24.5009 55.6645 24.3695 56.2946 24.5095C57.6066 24.8011 57.6168 25.7228 57.6168 26.9034C57.6168 27.3464 56.9333 28.217 56.4588 28.217C56.2289 28.217 56.4663 26.5011 56.3378 26.212C56.2699 26.0592 55.9566 24.7994 55.7156 25.4688C55.3649 26.4428 55.3585 27.5499 55.0501 28.5368C54.9946 28.7146 54.7366 30.0837 54.5834 30.0837C54.3949 30.0837 54.3501 28.0034 54.3501 27.7676C54.3501 26.7467 53.7844 24.4429 52.7945 26.3676C52.4311 27.0743 52.2519 27.8504 51.8957 28.5627C51.6822 28.9897 51.4307 29.4219 51.3945 29.9109C51.3487 30.5294 50.9278 31.5654 50.9278 30.3171C50.9278 29.455 50.7611 28.2594 51.1179 27.4565C51.1943 27.2846 51.4261 25.8322 51.1525 25.754C50.4039 25.5401 50.0403 27.9456 49.9253 28.3726C49.6608 29.355 49.1779 30.5079 49.0611 31.501C49.0122 31.9166 48.9056 31.6178 48.9056 31.3455C48.9056 30.7448 48.8371 30.0895 48.9833 29.5047C49.1744 28.7403 49.5278 27.9438 49.5278 27.1454C49.5278 26.5231 49.5278 25.9009 49.5278 25.2787C49.5278 24.2953 48.9954 26.4282 48.9056 26.7651C48.501 28.2824 48.0706 29.8732 47.6697 31.2763C47.5583 31.6662 47.309 31.9945 47.203 32.3652C46.9202 33.355 47.2733 30.2989 47.471 29.2886C47.8386 27.4098 48.0447 25.1692 48.7846 23.412C49.265 22.2709 49.3722 21.0069 49.3722 19.7563C49.3722 19.0494 49.379 18.4662 49.0265 19.4884C48.5725 20.8052 48.3456 22.1299 48.05 23.4898C47.7724 24.7666 47.8955 26.3181 47.4277 27.5343C47.151 28.2539 47.3154 29.09 47.0043 29.7899C46.6214 30.6515 46.7049 31.9185 46.1401 32.6245C45.9611 32.8482 45.9134 34.1068 45.6734 33.0566C45.4397 32.0344 45.6388 30.7614 45.6388 29.7121C45.6388 27.6262 45.7944 25.502 45.7944 23.4465C45.7944 22.1908 46.1872 20.2471 46.8055 19.1341C46.917 18.9334 47.2193 17.4514 46.9179 18.4687C46.6175 19.4824 46.2611 20.8062 46.2611 21.865C46.2611 23.9861 45.5577 26.1847 44.982 28.1997C44.5907 29.5695 44.3644 31.1795 43.8067 32.4344C43.7213 32.6266 43.3054 34.0316 43.3054 32.9011C43.3054 31.8121 43.3054 30.7232 43.3054 29.6343C43.3054 28.4302 43.3054 27.226 43.3054 26.0219C43.3054 25.4657 43.2658 24.7589 43.5388 24.2675C43.7102 23.959 44.0832 23.0654 44.0832 22.7292C44.0832 21.4458 43.5924 25.2505 43.4264 26.5231C43.2462 27.9046 42.9407 29.2713 42.8301 30.6541C42.7795 31.2866 42.6204 32.1797 42.3375 32.7455C41.9941 33.4323 41.5943 33.4792 41.5943 32.6245C41.5943 30.59 43.0137 28.515 44.0832 26.8343C44.6572 25.9324 45.1717 25.0076 45.6043 24.0342C45.8277 23.5316 45.7509 22.899 46.0277 22.4008C46.5199 21.5149 47.2776 20.7423 47.7821 19.8341C47.8911 19.6378 48.0364 19.4084 48.1623 19.2465C48.1643 19.2439 47.7548 19.8683 47.6611 20.0675C46.846 21.7996 46.5722 23.6917 46.5722 25.6071C46.5722 28.3185 45.7944 30.8928 45.7944 33.5838C45.7944 33.7875 45.7557 33.1396 45.8808 32.9788C46.0854 32.7158 46.1904 32.3627 46.4166 32.1233C46.8375 31.6776 47.0153 31.0429 47.5747 30.7232C47.9981 30.4812 48.402 29.6479 48.6636 29.2368C49.2224 28.3586 49.3995 27.0534 49.6488 26.0565C49.9579 24.8198 50.3056 23.6794 50.3056 22.4008C50.3056 21.9449 50.4611 21.5118 50.4611 21.0008C50.4611 20.4856 50.49 20.9304 50.3834 21.165C50.0218 21.9605 50.2009 22.9825 50.1155 23.8268C49.9593 25.3689 49.9945 26.9094 49.9945 28.459C49.9945 29.2281 50.1238 29.3661 50.5821 29.8244C51.5263 30.7686 52.6334 29.8094 52.9501 28.701C53.1268 28.0824 53.4168 27.6522 53.4168 26.9898C53.4168 26.4889 53.4168 28.2365 53.4168 28.5541C53.4168 29.3491 53.4168 30.1442 53.4168 30.9393C53.4168 31.0988 53.5464 30.6456 53.581 30.4899C53.649 30.1838 53.9918 29.9235 54.1945 29.7207C54.8222 29.0931 56.4605 27.7119 55.3699 26.6787C54.4321 25.7902 52.758 25.9695 51.6278 26.2207C49.7187 26.6449 48.1274 28.6848 47.0993 30.1874C46.0421 31.7326 44.8382 33.2324 43.461 34.4566C43.1091 34.7694 43.0714 34.3389 43.34 34.1455C43.8215 33.7989 44.3494 33.5458 44.8783 33.2813C46.2723 32.5843 47.7243 32.3557 49.2167 32.0023C50.9356 31.5952 52.6442 31.5947 54.255 30.8788C55.1492 30.4814 54.2281 30.0912 53.7279 29.98C51.8303 29.5583 49.769 30.155 47.8339 29.7035C46.9416 29.4952 45.682 29.2109 45.4919 28.1652C45.3084 27.1557 45.3277 25.8453 45.3277 24.812C45.3277 24.1717 45.743 19.5223 44.3944 21.5453" stroke="#F97C60" stroke-width="1.45136" stroke-linecap="round"/>
<path d="M123.654 24.6564C123.654 23.2823 123.654 21.9082 123.654 20.5341C123.654 19.3553 121.927 18.2785 120.854 18.2785C120.506 18.2785 119.604 18.1194 119.419 18.4341C119.088 18.9968 118.578 19.1711 118.14 19.6094C117.217 20.5321 116.64 21.6137 116.187 22.8589C114.959 26.2342 114.327 29.7971 113.11 33.1776C112.939 33.6527 112.64 34.0868 112.609 34.6122C112.578 35.1331 112.014 35.5425 112.851 35.0097C113.78 34.4183 115.459 34.2154 116.533 34.0245C117.691 33.8187 118.959 33.7971 120.084 33.4455C121.966 32.8575 124.088 32.3828 125.797 31.3455C127.046 30.5874 128.683 30.3225 129.807 29.3232C130.614 28.6057 131.587 28.2642 131.587 27.0676C131.587 25.9935 130.475 24.9676 129.332 24.9676C128.257 24.9676 127.269 24.5009 126.143 24.5009C125.464 24.5009 125.115 24.6687 124.509 24.8034C124.307 24.8484 123.75 25.1773 123.593 25.1145C123.553 25.0982 124.307 24.7462 124.431 24.691C125.136 24.3781 126.049 24.5009 126.799 24.5009C127.447 24.5009 128.235 24.3695 128.865 24.5095C130.177 24.8011 130.187 25.7228 130.187 26.9034C130.187 27.3464 129.504 28.217 129.029 28.217C128.799 28.217 129.037 26.5011 128.908 26.212C128.84 26.0592 128.527 24.7994 128.286 25.4688C127.935 26.4428 127.929 27.5499 127.62 28.5368C127.565 28.7146 127.307 30.0837 127.154 30.0837C126.965 30.0837 126.92 28.0034 126.92 27.7676C126.92 26.7467 126.355 24.4429 125.365 26.3676C125.001 27.0743 124.822 27.8504 124.466 28.5627C124.253 28.9897 124.001 29.4219 123.965 29.9109C123.919 30.5294 123.498 31.5654 123.498 30.3171C123.498 29.455 123.331 28.2594 123.688 27.4565C123.765 27.2846 123.996 25.8322 123.723 25.754C122.974 25.5401 122.611 27.9456 122.496 28.3726C122.231 29.355 121.748 30.5079 121.631 31.501C121.583 31.9166 121.476 31.6178 121.476 31.3455C121.476 30.7448 121.407 30.0895 121.554 29.5047C121.745 28.7403 122.098 27.9438 122.098 27.1454C122.098 26.5231 122.098 25.9009 122.098 25.2787C122.098 24.2953 121.566 26.4282 121.476 26.7651C121.071 28.2824 120.641 29.8732 120.24 31.2763C120.129 31.6662 119.879 31.9945 119.773 32.3652C119.491 33.355 119.844 30.2989 120.041 29.2886C120.409 27.4098 120.615 25.1692 121.355 23.412C121.835 22.2709 121.943 21.0069 121.943 19.7563C121.943 19.0494 121.949 18.4662 121.597 19.4884C121.143 20.8052 120.916 22.1299 120.62 23.4898C120.343 24.7666 120.466 26.3181 119.998 27.5343C119.721 28.2539 119.886 29.09 119.575 29.7899C119.192 30.6515 119.275 31.9185 118.71 32.6245C118.531 32.8482 118.484 34.1068 118.244 33.0566C118.01 32.0344 118.209 30.7614 118.209 29.7121C118.209 27.6262 118.365 25.502 118.365 23.4465C118.365 22.1908 118.757 20.2471 119.376 19.1341C119.487 18.9334 119.79 17.4514 119.488 18.4687C119.188 19.4824 118.831 20.8062 118.831 21.865C118.831 23.9861 118.128 26.1847 117.552 28.1997C117.161 29.5695 116.935 31.1795 116.377 32.4344C116.292 32.6266 115.876 34.0316 115.876 32.9011C115.876 31.8121 115.876 30.7232 115.876 29.6343C115.876 28.4302 115.876 27.226 115.876 26.0219C115.876 25.4657 115.836 24.7589 116.109 24.2675C116.28 23.959 116.654 23.0654 116.654 22.7292C116.654 21.4458 116.163 25.2505 115.997 26.5231C115.817 27.9046 115.511 29.2713 115.4 30.6541C115.35 31.2866 115.191 32.1797 114.908 32.7455C114.564 33.4323 114.165 33.4792 114.165 32.6245C114.165 30.59 115.584 28.515 116.654 26.8343C117.227 25.9324 117.742 25.0076 118.175 24.0342C118.398 23.5316 118.321 22.899 118.598 22.4008C119.09 21.5149 119.848 20.7423 120.352 19.8341C120.461 19.6378 120.607 19.4084 120.733 19.2465C120.735 19.2439 120.325 19.8683 120.231 20.0675C119.416 21.7996 119.142 23.6917 119.142 25.6071C119.142 28.3185 118.365 30.8928 118.365 33.5838C118.365 33.7875 118.326 33.1396 118.451 32.9788C118.656 32.7158 118.761 32.3627 118.987 32.1233C119.408 31.6776 119.586 31.0429 120.145 30.7232C120.568 30.4812 120.972 29.6479 121.234 29.2368C121.793 28.3586 121.97 27.0534 122.219 26.0565C122.528 24.8198 122.876 23.6794 122.876 22.4008C122.876 21.9449 123.031 21.5118 123.031 21.0008C123.031 20.4856 123.06 20.9304 122.954 21.165C122.592 21.9605 122.771 22.9825 122.686 23.8268C122.53 25.3689 122.565 26.9094 122.565 28.459C122.565 29.2281 122.694 29.3661 123.152 29.8244C124.097 30.7686 125.204 29.8094 125.52 28.701C125.697 28.0824 125.987 27.6522 125.987 26.9898C125.987 26.4889 125.987 28.2365 125.987 28.5541C125.987 29.3491 125.987 30.1442 125.987 30.9393C125.987 31.0988 126.117 30.6456 126.151 30.4899C126.219 30.1838 126.562 29.9235 126.765 29.7207C127.392 29.0931 129.031 27.7119 127.94 26.6787C127.002 25.7902 125.328 25.9695 124.198 26.2207C122.289 26.6449 120.698 28.6848 119.67 30.1874C118.612 31.7326 117.409 33.2324 116.031 34.4566C115.679 34.7694 115.642 34.3389 115.91 34.1455C116.392 33.7989 116.92 33.5458 117.449 33.2813C118.843 32.5843 120.295 32.3557 121.787 32.0023C123.506 31.5952 125.215 31.5947 126.825 30.8788C127.72 30.4814 126.798 30.0912 126.298 29.98C124.401 29.5583 122.339 30.155 120.404 29.7035C119.512 29.4952 118.252 29.2109 118.062 28.1652C117.879 27.1557 117.898 25.8453 117.898 24.812C117.898 24.1717 118.313 19.5223 116.965 21.5453" stroke="#F97C60" stroke-width="1.45136" stroke-linecap="round"/>
<path d="M193.076 24.6564C193.076 23.2823 193.076 21.9082 193.076 20.5341C193.076 19.3553 191.349 18.2785 190.276 18.2785C189.927 18.2785 189.026 18.1194 188.841 18.4341C188.51 18.9968 188 19.1711 187.562 19.6094C186.639 20.5321 186.062 21.6137 185.609 22.8589C184.381 26.2342 183.749 29.7971 182.532 33.1776C182.361 33.6527 182.062 34.0868 182.031 34.6122C182 35.1331 181.436 35.5425 182.273 35.0097C183.202 34.4183 184.881 34.2154 185.954 34.0245C187.112 33.8187 188.381 33.7971 189.506 33.4455C191.388 32.8575 193.51 32.3828 195.219 31.3455C196.467 30.5874 198.105 30.3225 199.229 29.3232C200.036 28.6057 201.009 28.2642 201.009 27.0676C201.009 25.9935 199.897 24.9676 198.753 24.9676C197.679 24.9676 196.69 24.5009 195.565 24.5009C194.886 24.5009 194.537 24.6687 193.931 24.8034C193.728 24.8484 193.172 25.1773 193.015 25.1145C192.974 25.0982 193.729 24.7462 193.853 24.691C194.557 24.3781 195.471 24.5009 196.221 24.5009C196.869 24.5009 197.657 24.3695 198.287 24.5095C199.599 24.8011 199.609 25.7228 199.609 26.9034C199.609 27.3464 198.925 28.217 198.451 28.217C198.221 28.217 198.458 26.5011 198.33 26.212C198.262 26.0592 197.949 24.7994 197.708 25.4688C197.357 26.4428 197.351 27.5499 197.042 28.5368C196.987 28.7146 196.729 30.0837 196.576 30.0837C196.387 30.0837 196.342 28.0034 196.342 27.7676C196.342 26.7467 195.777 24.4429 194.787 26.3676C194.423 27.0743 194.244 27.8504 193.888 28.5627C193.674 28.9897 193.423 29.4219 193.387 29.9109C193.341 30.5294 192.92 31.5654 192.92 30.3171C192.92 29.455 192.753 28.2594 193.11 27.4565C193.187 27.2846 193.418 25.8322 193.145 25.754C192.396 25.5401 192.032 27.9456 191.918 28.3726C191.653 29.355 191.17 30.5079 191.053 31.501C191.004 31.9166 190.898 31.6178 190.898 31.3455C190.898 30.7448 190.829 30.0895 190.976 29.5047C191.167 28.7403 191.52 27.9438 191.52 27.1454C191.52 26.5231 191.52 25.9009 191.52 25.2787C191.52 24.2953 190.988 26.4282 190.898 26.7651C190.493 28.2824 190.063 29.8732 189.662 31.2763C189.551 31.6662 189.301 31.9945 189.195 32.3652C188.912 33.355 189.265 30.2989 189.463 29.2886C189.831 27.4098 190.037 25.1692 190.777 23.412C191.257 22.2709 191.364 21.0069 191.364 19.7563C191.364 19.0494 191.371 18.4662 191.019 19.4884C190.565 20.8052 190.338 22.1299 190.042 23.4898C189.765 24.7666 189.888 26.3181 189.42 27.5343C189.143 28.2539 189.308 29.09 188.996 29.7899C188.614 30.6515 188.697 31.9185 188.132 32.6245C187.953 32.8482 187.906 34.1068 187.666 33.0566C187.432 32.0344 187.631 30.7614 187.631 29.7121C187.631 27.6262 187.787 25.502 187.787 23.4465C187.787 22.1908 188.179 20.2471 188.798 19.1341C188.909 18.9334 189.211 17.4514 188.91 18.4687C188.61 19.4824 188.253 20.8062 188.253 21.865C188.253 23.9861 187.55 26.1847 186.974 28.1997C186.583 29.5695 186.357 31.1795 185.799 32.4344C185.713 32.6266 185.298 34.0316 185.298 32.9011C185.298 31.8121 185.298 30.7232 185.298 29.6343C185.298 28.4302 185.298 27.226 185.298 26.0219C185.298 25.4657 185.258 24.7589 185.531 24.2675C185.702 23.959 186.075 23.0654 186.075 22.7292C186.075 21.4458 185.585 25.2505 185.419 26.5231C185.238 27.9046 184.933 29.2713 184.822 30.6541C184.772 31.2866 184.613 32.1797 184.33 32.7455C183.986 33.4323 183.586 33.4792 183.586 32.6245C183.586 30.59 185.006 28.515 186.075 26.8343C186.649 25.9324 187.164 25.0076 187.596 24.0342C187.82 23.5316 187.743 22.899 188.02 22.4008C188.512 21.5149 189.27 20.7423 189.774 19.8341C189.883 19.6378 190.029 19.4084 190.155 19.2465C190.156 19.2439 189.747 19.8683 189.653 20.0675C188.838 21.7996 188.564 23.6917 188.564 25.6071C188.564 28.3185 187.787 30.8928 187.787 33.5838C187.787 33.7875 187.748 33.1396 187.873 32.9788C188.078 32.7158 188.183 32.3627 188.409 32.1233C188.83 31.6776 189.007 31.0429 189.567 30.7232C189.99 30.4812 190.394 29.6479 190.656 29.2368C191.215 28.3586 191.392 27.0534 191.641 26.0565C191.95 24.8198 192.298 23.6794 192.298 22.4008C192.298 21.9449 192.453 21.5118 192.453 21.0008C192.453 20.4856 192.482 20.9304 192.376 21.165C192.014 21.9605 192.193 22.9825 192.108 23.8268C191.951 25.3689 191.987 26.9094 191.987 28.459C191.987 29.2281 192.116 29.3661 192.574 29.8244C193.518 30.7686 194.626 29.8094 194.942 28.701C195.119 28.0824 195.409 27.6522 195.409 26.9898C195.409 26.4889 195.409 28.2365 195.409 28.5541C195.409 29.3491 195.409 30.1442 195.409 30.9393C195.409 31.0988 195.539 30.6456 195.573 30.4899C195.641 30.1838 195.984 29.9235 196.187 29.7207C196.814 29.0931 198.453 27.7119 197.362 26.6787C196.424 25.7902 194.75 25.9695 193.62 26.2207C191.711 26.6449 190.12 28.6848 189.092 30.1874C188.034 31.7326 186.83 33.2324 185.453 34.4566C185.101 34.7694 185.064 34.3389 185.332 34.1455C185.814 33.7989 186.342 33.5458 186.87 33.2813C188.265 32.5843 189.716 32.3557 191.209 32.0023C192.928 31.5952 194.636 31.5947 196.247 30.8788C197.141 30.4814 196.22 30.0912 195.72 29.98C193.823 29.5583 191.761 30.155 189.826 29.7035C188.934 29.4952 187.674 29.2109 187.484 28.1652C187.301 27.1557 187.32 25.8453 187.32 24.812C187.32 24.1717 187.735 19.5223 186.387 21.5453" stroke="#F97C60" stroke-width="1.45136" stroke-linecap="round"/>
<path d="M83.8256 7.54121C83.8256 6.16711 83.8256 4.79301 83.8256 3.41891C83.8256 2.24009 82.0987 1.16331 81.0255 1.16331C80.6775 1.16331 79.776 1.0042 79.5909 1.31887C79.2599 1.88153 78.7502 2.05588 78.3119 2.4942C77.3892 3.41685 76.8115 4.4985 76.3587 5.74364C75.1314 9.11897 74.4991 12.6819 73.2821 16.0624C73.1111 16.5374 72.8118 16.9716 72.7809 17.497C72.7503 18.0179 72.1857 18.4273 73.0229 17.8945C73.9523 17.303 75.631 17.1001 76.7044 16.9093C77.8624 16.7034 79.1313 16.6818 80.2564 16.3303C82.1378 15.7423 84.2603 15.2675 85.9688 14.2302C87.2175 13.4721 88.8546 13.2072 89.9788 12.208C90.786 11.4904 91.7591 11.1489 91.7591 9.95237C91.7591 8.87826 90.6468 7.85233 89.5035 7.85233C88.429 7.85233 87.4404 7.38565 86.3145 7.38565C85.6356 7.38565 85.2873 7.55342 84.6811 7.68813C84.4785 7.73316 83.9221 8.06206 83.7651 7.99925C83.7245 7.98302 84.4793 7.63093 84.6034 7.57578C85.3075 7.26284 86.2212 7.38565 86.9713 7.38565C87.6188 7.38565 88.4067 7.25428 89.0368 7.39429C90.3488 7.68586 90.359 8.6076 90.359 9.78817C90.359 10.2312 89.6755 11.1018 89.201 11.1018C88.9711 11.1018 89.2085 9.38585 89.08 9.0968C89.0121 8.944 88.6987 7.68415 88.4578 8.35357C88.1071 9.32753 88.1007 10.4347 87.7923 11.4215C87.7367 11.5993 87.4788 12.9685 87.3256 12.9685C87.1371 12.9685 87.0923 10.8881 87.0923 10.6524C87.0923 9.6315 86.5265 7.32768 85.5367 9.25236C85.1733 9.95905 84.9941 10.7352 84.6379 11.4475C84.4244 11.8745 84.1729 12.3066 84.1367 12.7956C84.0909 13.4142 83.67 14.4502 83.67 13.2018C83.67 12.3398 83.5033 11.1441 83.8601 10.3413C83.9365 10.1694 84.1683 8.71694 83.8947 8.63876C83.1461 8.42488 82.7825 10.8303 82.6675 11.2573C82.403 12.2398 81.9201 13.3927 81.8033 14.3858C81.7544 14.8014 81.6477 14.5025 81.6477 14.2302C81.6477 13.6296 81.5793 12.9743 81.7255 12.3895C81.9166 11.6251 82.27 10.8285 82.27 10.0301C82.27 9.40792 82.27 8.78568 82.27 8.16345C82.27 7.18009 81.7376 9.31293 81.6477 9.6499C81.2431 11.1671 80.8128 12.7579 80.4119 14.1611C80.3005 14.5509 80.0512 14.8792 79.9452 15.25C79.6624 16.2398 80.0155 13.1837 80.2131 12.1734C80.5807 10.2946 80.7869 8.05396 81.5267 6.29674C82.0072 5.1557 82.1144 3.89164 82.1144 2.64111C82.1144 1.93419 82.1212 1.35101 81.7687 2.37321C81.3147 3.68994 81.0878 5.01463 80.7922 6.37452C80.5146 7.65134 80.6377 9.20291 80.1699 10.419C79.8931 11.1387 80.0575 11.9747 79.7465 12.6746C79.3635 13.5362 79.4471 14.8032 78.8823 15.5093C78.7033 15.7329 78.6556 16.9915 78.4156 15.9414C78.1819 14.9192 78.381 13.6461 78.381 12.5969C78.381 10.511 78.5366 8.38681 78.5366 6.33131C78.5366 5.07554 78.9294 3.13188 79.5477 2.01888C79.6592 1.81813 79.9615 0.336138 79.66 1.35343C79.3597 2.36717 79.0032 3.691 79.0032 4.7498C79.0032 6.87086 78.2999 9.06949 77.7242 11.0845C77.3328 12.4543 77.1066 14.0643 76.5489 15.3191C76.4635 15.5113 76.0476 16.9163 76.0476 15.7858C76.0476 14.6969 76.0476 13.608 76.0476 12.5191C76.0476 11.3149 76.0476 10.1108 76.0476 8.90667C76.0476 8.35042 76.008 7.64363 76.281 7.15231C76.4524 6.84381 76.8254 5.95012 76.8254 5.61401C76.8254 4.33057 76.3346 8.13525 76.1686 9.40791C75.9884 10.7893 75.6829 12.156 75.5723 13.5389C75.5217 14.1714 75.3626 15.0645 75.0797 15.6303C74.7363 16.3171 74.3365 16.3639 74.3365 15.5093C74.3365 13.4747 75.7559 11.3997 76.8254 9.71903C77.3994 8.81714 77.9138 7.89232 78.3464 6.91898C78.5698 6.41632 78.4931 5.7838 78.7699 5.28561C79.2621 4.39966 80.0197 3.62702 80.5243 2.71889C80.6333 2.52257 80.7786 2.29312 80.9045 2.13123C80.9065 2.12869 80.497 2.75305 80.4033 2.95223C79.5881 4.68438 79.3144 6.57651 79.3144 8.49185C79.3144 11.2032 78.5366 13.7776 78.5366 16.4685C78.5366 16.6722 78.4979 16.0244 78.623 15.8636C78.8275 15.6006 78.9326 15.2475 79.1588 15.008C79.5797 14.5623 79.7574 13.9277 80.3168 13.608C80.7403 13.366 81.1441 12.5327 81.4058 12.1215C81.9646 11.2433 82.1417 9.9382 82.391 8.94124C82.7001 7.70456 83.0478 6.56417 83.0478 5.28561C83.0478 4.82971 83.2033 4.39658 83.2033 3.88558C83.2033 3.37038 83.2322 3.81514 83.1255 4.04978C82.7639 4.8453 82.9431 5.86728 82.8576 6.71156C82.7015 8.25367 82.7367 9.79416 82.7367 11.3438C82.7367 12.1129 82.866 12.2509 83.3243 12.7092C84.2684 13.6533 85.3756 12.6941 85.6923 11.5857C85.869 10.9671 86.1589 10.537 86.1589 9.87459C86.1589 9.37362 86.1589 11.1213 86.1589 11.4388C86.1589 12.2339 86.1589 13.029 86.1589 13.8241C86.1589 13.9835 86.2885 13.5303 86.3231 13.3747C86.3912 13.0685 86.734 12.8083 86.9367 12.6055C87.5644 11.9779 89.2027 10.5967 88.1121 9.56347C87.1742 8.67501 85.5002 8.85429 84.37 9.10544C82.4609 9.5297 80.8696 11.5696 79.8415 13.0722C78.7843 14.6173 77.5804 16.1172 76.2032 17.3414C75.8513 17.6542 75.8136 17.2237 76.0822 17.0303C76.5637 16.6836 77.0916 16.4305 77.6205 16.1661C79.0145 15.4691 80.4665 15.2405 81.9589 14.887C83.6778 14.4799 85.3864 14.4795 86.9972 13.7636C87.8914 13.3661 86.9703 12.9759 86.4701 12.8648C84.5725 12.4431 82.5111 13.0397 80.5761 12.5882C79.6837 12.38 78.4242 12.0957 78.2341 11.0499C78.0505 10.0404 78.0699 8.73005 78.0699 7.69677C78.0699 7.05651 78.4852 2.4071 77.1365 4.43004" stroke="#F97C60" stroke-width="1.45136" stroke-linecap="round"/>
<path d="M83.8256 75.0295C83.8256 73.6554 83.8256 72.2813 83.8256 70.9072C83.8256 69.7284 82.0987 68.6516 81.0255 68.6516C80.6775 68.6516 79.776 68.4925 79.5909 68.8071C79.2599 69.3698 78.7502 69.5442 78.3119 69.9825C77.3892 70.9051 76.8115 71.9868 76.3587 73.2319C75.1314 76.6072 74.4991 80.1702 73.2821 83.5506C73.1111 84.0257 72.8118 84.4599 72.7809 84.9852C72.7503 85.5061 72.1857 85.9156 73.0229 85.3828C73.9523 84.7913 75.631 84.5884 76.7044 84.3976C77.8624 84.1917 79.1313 84.1701 80.2564 83.8186C82.1378 83.2306 84.2603 82.7558 85.9688 81.7185C87.2175 80.9604 88.8546 80.6955 89.9788 79.6963C90.786 78.9787 91.7591 78.6372 91.7591 77.4407C91.7591 76.3665 90.6468 75.3406 89.5035 75.3406C88.429 75.3406 87.4404 74.8739 86.3145 74.8739C85.6356 74.8739 85.2873 75.0417 84.6811 75.1764C84.4785 75.2214 83.9221 75.5503 83.7651 75.4875C83.7245 75.4713 84.4793 75.1192 84.6034 75.0641C85.3075 74.7511 86.2212 74.8739 86.9713 74.8739C87.6188 74.8739 88.4067 74.7426 89.0368 74.8826C90.3488 75.1741 90.359 76.0959 90.359 77.2765C90.359 77.7195 89.6755 78.5901 89.201 78.5901C88.9711 78.5901 89.2085 76.8741 89.08 76.5851C89.0121 76.4323 88.6987 75.1724 88.4578 75.8419C88.1071 76.8158 88.1007 77.9229 87.7923 78.9098C87.7367 79.0876 87.4788 80.4568 87.3256 80.4568C87.1371 80.4568 87.0923 78.3764 87.0923 78.1407C87.0923 77.1198 86.5265 74.816 85.5367 76.7406C85.1733 77.4473 84.9941 78.2235 84.6379 78.9357C84.4244 79.3627 84.1729 79.7949 84.1367 80.2839C84.0909 80.9025 83.67 81.9384 83.67 80.6901C83.67 79.828 83.5033 78.6324 83.8601 77.8295C83.9365 77.6577 84.1683 76.2052 83.8947 76.127C83.1461 75.9132 82.7825 78.3186 82.6675 78.7456C82.403 79.7281 81.9201 80.881 81.8033 81.8741C81.7544 82.2896 81.6477 81.9908 81.6477 81.7185C81.6477 81.1179 81.5793 80.4626 81.7255 79.8777C81.9166 79.1134 82.27 78.3168 82.27 77.5184C82.27 76.8962 82.27 76.274 82.27 75.6517C82.27 74.6684 81.7376 76.8012 81.6477 77.1382C81.2431 78.6554 80.8128 80.2462 80.4119 81.6494C80.3005 82.0392 80.0512 82.3675 79.9452 82.7383C79.6624 83.7281 80.0155 80.6719 80.2131 79.6617C80.5807 77.7828 80.7869 75.5422 81.5267 73.785C82.0072 72.644 82.1144 71.3799 82.1144 70.1294C82.1144 69.4225 82.1212 68.8393 81.7687 69.8615C81.3147 71.1782 81.0878 72.5029 80.7922 73.8628C80.5146 75.1396 80.6377 76.6912 80.1699 77.9073C79.8931 78.627 80.0575 79.463 79.7465 80.1629C79.3635 81.0245 79.4471 82.2915 78.8823 82.9976C78.7033 83.2212 78.6556 84.4798 78.4156 83.4297C78.1819 82.4074 78.381 81.1344 78.381 80.0851C78.381 77.9992 78.5366 75.8751 78.5366 73.8196C78.5366 72.5638 78.9294 70.6202 79.5477 69.5072C79.6592 69.3064 79.9615 67.8244 79.66 68.8417C79.3597 69.8555 79.0032 71.1793 79.0032 72.2381C79.0032 74.3591 78.2999 76.5578 77.7242 78.5728C77.3328 79.9425 77.1066 81.5526 76.5489 82.8074C76.4635 82.9996 76.0476 84.4046 76.0476 83.2741C76.0476 82.1852 76.0476 81.0963 76.0476 80.0074C76.0476 78.8032 76.0476 77.5991 76.0476 76.395C76.0476 75.8387 76.008 75.1319 76.281 74.6406C76.4524 74.3321 76.8254 73.4384 76.8254 73.1023C76.8254 71.8188 76.3346 75.6235 76.1686 76.8962C75.9884 78.2776 75.6829 79.6443 75.5723 81.0271C75.5217 81.6597 75.3626 82.5528 75.0797 83.1185C74.7363 83.8053 74.3365 83.8522 74.3365 82.9976C74.3365 80.963 75.7559 78.888 76.8254 77.2073C77.3994 76.3054 77.9138 75.3806 78.3464 74.4073C78.5698 73.9046 78.4931 73.2721 78.7699 72.7739C79.2621 71.8879 80.0197 71.1153 80.5243 70.2072C80.6333 70.0109 80.7786 69.7814 80.9045 69.6195C80.9065 69.617 80.497 70.2413 80.4033 70.4405C79.5881 72.1727 79.3144 74.0648 79.3144 75.9801C79.3144 78.6915 78.5366 81.2659 78.5366 83.9568C78.5366 84.1605 78.4979 83.5127 78.623 83.3519C78.8275 83.0889 78.9326 82.7358 79.1588 82.4963C79.5797 82.0506 79.7574 81.4159 80.3168 81.0963C80.7403 80.8543 81.1441 80.0209 81.4058 79.6098C81.9646 78.7316 82.1417 77.4265 82.391 76.4295C82.7001 75.1928 83.0478 74.0525 83.0478 72.7739C83.0478 72.318 83.2033 71.8849 83.2033 71.3739C83.2033 70.8587 83.2322 71.3034 83.1255 71.5381C82.7639 72.3336 82.9431 73.3556 82.8576 74.1998C82.7015 75.742 82.7367 77.2824 82.7367 78.832C82.7367 79.6012 82.866 79.7392 83.3243 80.1975C84.2684 81.1416 85.3756 80.1824 85.6923 79.074C85.869 78.4554 86.1589 78.0253 86.1589 77.3629C86.1589 76.8619 86.1589 78.6096 86.1589 78.9271C86.1589 79.7222 86.1589 80.5173 86.1589 81.3123C86.1589 81.4718 86.2885 81.0186 86.3231 80.8629C86.3912 80.5568 86.734 80.2966 86.9367 80.0938C87.5644 79.4662 89.2027 78.0849 88.1121 77.0518C87.1742 76.1633 85.5002 76.3426 84.37 76.5937C82.4609 77.018 80.8696 79.0579 79.8415 80.5605C78.7843 82.1056 77.5804 83.6055 76.2032 84.8297C75.8513 85.1425 75.8136 84.712 76.0822 84.5186C76.5637 84.1719 77.0916 83.9188 77.6205 83.6544C79.0145 82.9573 80.4665 82.7288 81.9589 82.3753C83.6778 81.9682 85.3864 81.9677 86.9972 81.2518C87.8914 80.8544 86.9703 80.4642 86.4701 80.3531C84.5725 79.9314 82.5111 80.528 80.5761 80.0765C79.6837 79.8683 78.4242 79.5839 78.2341 78.5382C78.0505 77.5287 78.0699 76.2183 78.0699 75.1851C78.0699 74.5448 78.4852 69.8954 77.1365 71.9183" stroke="#F97C60" stroke-width="1.45136" stroke-linecap="round"/>
<path d="M147.689 75.0295C147.689 73.6554 147.689 72.2813 147.689 70.9072C147.689 69.7284 145.962 68.6516 144.889 68.6516C144.541 68.6516 143.639 68.4925 143.454 68.8071C143.123 69.3698 142.613 69.5442 142.175 69.9825C141.252 70.9051 140.675 71.9868 140.222 73.2319C138.995 76.6072 138.362 80.1702 137.145 83.5506C136.974 84.0257 136.675 84.4599 136.644 84.9852C136.614 85.5061 136.049 85.9156 136.886 85.3828C137.816 84.7913 139.494 84.5884 140.568 84.3976C141.726 84.1917 142.995 84.1701 144.12 83.8186C146.001 83.2306 148.124 82.7558 149.832 81.7185C151.081 80.9604 152.718 80.6955 153.842 79.6963C154.649 78.9787 155.622 78.6372 155.622 77.4407C155.622 76.3665 154.51 75.3406 153.367 75.3406C152.292 75.3406 151.304 74.8739 150.178 74.8739C149.499 74.8739 149.151 75.0417 148.544 75.1764C148.342 75.2214 147.785 75.5503 147.628 75.4875C147.588 75.4713 148.343 75.1192 148.467 75.0641C149.171 74.7511 150.084 74.8739 150.835 74.8739C151.482 74.8739 152.27 74.7426 152.9 74.8826C154.212 75.1741 154.222 76.0959 154.222 77.2765C154.222 77.7195 153.539 78.5901 153.064 78.5901C152.834 78.5901 153.072 76.8741 152.943 76.5851C152.875 76.4323 152.562 75.1724 152.321 75.8419C151.97 76.8158 151.964 77.9229 151.656 78.9098C151.6 79.0876 151.342 80.4568 151.189 80.4568C151 80.4568 150.956 78.3764 150.956 78.1407C150.956 77.1198 150.39 74.816 149.4 76.7406C149.037 77.4473 148.857 78.2235 148.501 78.9357C148.288 79.3627 148.036 79.7949 148 80.2839C147.954 80.9025 147.533 81.9384 147.533 80.6901C147.533 79.828 147.367 78.6324 147.723 77.8295C147.8 77.6577 148.032 76.2052 147.758 76.127C147.009 75.9132 146.646 78.3186 146.531 78.7456C146.266 79.7281 145.783 80.881 145.667 81.8741C145.618 82.2896 145.511 81.9908 145.511 81.7185C145.511 81.1179 145.443 80.4626 145.589 79.8777C145.78 79.1134 146.133 78.3168 146.133 77.5184C146.133 76.8962 146.133 76.274 146.133 75.6517C146.133 74.6684 145.601 76.8012 145.511 77.1382C145.106 78.6554 144.676 80.2462 144.275 81.6494C144.164 82.0392 143.914 82.3675 143.809 82.7383C143.526 83.7281 143.879 80.6719 144.076 79.6617C144.444 77.7828 144.65 75.5422 145.39 73.785C145.87 72.644 145.978 71.3799 145.978 70.1294C145.978 69.4225 145.984 68.8393 145.632 69.8615C145.178 71.1782 144.951 72.5029 144.655 73.8628C144.378 75.1396 144.501 76.6912 144.033 77.9073C143.756 78.627 143.921 79.463 143.61 80.1629C143.227 81.0245 143.31 82.2915 142.746 82.9976C142.567 83.2212 142.519 84.4798 142.279 83.4297C142.045 82.4074 142.244 81.1344 142.244 80.0851C142.244 77.9992 142.4 75.8751 142.4 73.8196C142.4 72.5638 142.793 70.6202 143.411 69.5072C143.523 69.3064 143.825 67.8244 143.523 68.8417C143.223 69.8555 142.867 71.1793 142.867 72.2381C142.867 74.3591 142.163 76.5578 141.587 78.5728C141.196 79.9425 140.97 81.5526 140.412 82.8074C140.327 82.9996 139.911 84.4046 139.911 83.2741C139.911 82.1852 139.911 81.0963 139.911 80.0074C139.911 78.8032 139.911 77.5991 139.911 76.395C139.911 75.8387 139.871 75.1319 140.144 74.6406C140.316 74.3321 140.689 73.4384 140.689 73.1023C140.689 71.8188 140.198 75.6235 140.032 76.8962C139.852 78.2776 139.546 79.6443 139.436 81.0271C139.385 81.6597 139.226 82.5528 138.943 83.1185C138.6 83.8053 138.2 83.8522 138.2 82.9976C138.2 80.963 139.619 78.888 140.689 77.2073C141.263 76.3054 141.777 75.3806 142.21 74.4073C142.433 73.9046 142.356 73.2721 142.633 72.7739C143.125 71.8879 143.883 71.1153 144.388 70.2072C144.497 70.0109 144.642 69.7814 144.768 69.6195C144.77 69.617 144.36 70.2413 144.267 70.4405C143.451 72.1727 143.178 74.0648 143.178 75.9801C143.178 78.6915 142.4 81.2659 142.4 83.9568C142.4 84.1605 142.361 83.5127 142.486 83.3519C142.691 83.0889 142.796 82.7358 143.022 82.4963C143.443 82.0506 143.621 81.4159 144.18 81.0963C144.604 80.8543 145.007 80.0209 145.269 79.6098C145.828 78.7316 146.005 77.4265 146.254 76.4295C146.563 75.1928 146.911 74.0525 146.911 72.7739C146.911 72.318 147.067 71.8849 147.067 71.3739C147.067 70.8587 147.095 71.3034 146.989 71.5381C146.627 72.3336 146.806 73.3556 146.721 74.1998C146.565 75.742 146.6 77.2824 146.6 78.832C146.6 79.6012 146.729 79.7392 147.188 80.1975C148.132 81.1416 149.239 80.1824 149.556 79.074C149.732 78.4554 150.022 78.0253 150.022 77.3629C150.022 76.8619 150.022 78.6096 150.022 78.9271C150.022 79.7222 150.022 80.5173 150.022 81.3123C150.022 81.4718 150.152 81.0186 150.186 80.8629C150.254 80.5568 150.597 80.2966 150.8 80.0938C151.428 79.4662 153.066 78.0849 151.975 77.0518C151.038 76.1633 149.363 76.3426 148.233 76.5937C146.324 77.018 144.733 79.0579 143.705 80.5605C142.648 82.1056 141.444 83.6055 140.066 84.8297C139.715 85.1425 139.677 84.712 139.945 84.5186C140.427 84.1719 140.955 83.9188 141.484 83.6544C142.878 82.9573 144.33 82.7288 145.822 82.3753C147.541 81.9682 149.25 81.9677 150.861 81.2518C151.755 80.8544 150.834 80.4642 150.333 80.3531C148.436 79.9314 146.374 80.528 144.439 80.0765C143.547 79.8683 142.288 79.5839 142.097 78.5382C141.914 77.5287 141.933 76.2183 141.933 75.1851C141.933 74.5448 142.348 69.8954 141 71.9183" stroke="#F97C60" stroke-width="1.45136" stroke-linecap="round"/>
<path d="M157.122 39.4709C157.122 38.0968 157.122 36.7227 157.122 35.3486C157.122 34.1698 155.396 33.093 154.322 33.093C153.974 33.093 153.073 32.9339 152.888 33.2486C152.557 33.8112 152.047 33.9856 151.609 34.4239C150.686 35.3465 150.108 36.4282 149.656 37.6733C148.428 41.0487 147.796 44.6116 146.579 47.9921C146.408 48.4671 146.109 48.9013 146.078 49.4267C146.047 49.9475 145.483 50.357 146.32 49.8242C147.249 49.2327 148.928 49.0298 150.001 48.839C151.159 48.6331 152.428 48.6115 153.553 48.26C155.435 47.672 157.557 47.1972 159.266 46.1599C160.514 45.4018 162.151 45.1369 163.276 44.1377C164.083 43.4201 165.056 43.0786 165.056 41.8821C165.056 40.8079 163.944 39.782 162.8 39.782C161.726 39.782 160.737 39.3153 159.611 39.3153C158.932 39.3153 158.584 39.4831 157.978 39.6178C157.775 39.6628 157.219 39.9918 157.062 39.9289C157.021 39.9127 157.776 39.5606 157.9 39.5055C158.604 39.1925 159.518 39.3153 160.268 39.3153C160.916 39.3153 161.704 39.184 162.334 39.324C163.646 39.6155 163.656 40.5373 163.656 41.7179C163.656 42.1609 162.972 43.0315 162.498 43.0315C162.268 43.0315 162.505 41.3155 162.377 41.0265C162.309 40.8737 161.996 39.6138 161.755 40.2833C161.404 41.2572 161.398 42.3643 161.089 43.3512C161.034 43.529 160.776 44.8982 160.623 44.8982C160.434 44.8982 160.389 42.8178 160.389 42.5821C160.389 41.5612 159.823 39.2574 158.834 41.182C158.47 41.8887 158.291 42.6649 157.935 43.3771C157.721 43.8041 157.47 44.2363 157.434 44.7253C157.388 45.3439 156.967 46.3799 156.967 45.1315C156.967 44.2694 156.8 43.0738 157.157 42.271C157.233 42.0991 157.465 40.6466 157.192 40.5685C156.443 40.3546 156.079 42.76 155.964 43.187C155.7 44.1695 155.217 45.3224 155.1 46.3155C155.051 46.731 154.945 46.4322 154.945 46.1599C154.945 45.5593 154.876 44.904 155.022 44.3191C155.213 43.5548 155.567 42.7582 155.567 41.9598C155.567 41.3376 155.567 40.7154 155.567 40.0931C155.567 39.1098 155.034 41.2426 154.945 41.5796C154.54 43.0968 154.11 44.6876 153.709 46.0908C153.597 46.4806 153.348 46.8089 153.242 47.1797C152.959 48.1695 153.312 45.1134 153.51 44.1031C153.878 42.2243 154.084 39.9836 154.824 38.2264C155.304 37.0854 155.411 35.8213 155.411 34.5708C155.411 33.8639 155.418 33.2807 155.066 34.3029C154.612 35.6196 154.385 36.9443 154.089 38.3042C153.811 39.581 153.935 41.1326 153.467 42.3487C153.19 43.0684 153.354 43.9044 153.043 44.6043C152.66 45.4659 152.744 46.7329 152.179 47.439C152 47.6626 151.952 48.9212 151.712 47.8711C151.479 46.8488 151.678 45.5758 151.678 44.5266C151.678 42.4406 151.833 40.3165 151.833 38.261C151.833 37.0052 152.226 35.0616 152.845 33.9486C152.956 33.7478 153.258 32.2658 152.957 33.2831C152.657 34.2969 152.3 35.6207 152.3 36.6795C152.3 38.8006 151.597 40.9992 151.021 43.0142C150.63 44.3839 150.403 45.994 149.846 47.2488C149.76 47.441 149.345 48.846 149.345 47.7155C149.345 46.6266 149.345 45.5377 149.345 44.4488C149.345 43.2446 149.345 42.0405 149.345 40.8364C149.345 40.2801 149.305 39.5733 149.578 39.082C149.749 38.7735 150.122 37.8798 150.122 37.5437C150.122 36.2603 149.631 40.0649 149.465 41.3376C149.285 42.719 148.98 44.0857 148.869 45.4685C148.819 46.1011 148.659 46.9942 148.377 47.5599C148.033 48.2467 147.633 48.2936 147.633 47.439C147.633 45.4044 149.053 43.3294 150.122 41.6487C150.696 40.7468 151.211 39.822 151.643 38.8487C151.867 38.346 151.79 37.7135 152.067 37.2153C152.559 36.3294 153.317 35.5567 153.821 34.6486C153.93 34.4523 154.075 34.2228 154.201 34.0609C154.203 34.0584 153.794 34.6827 153.7 34.8819C152.885 36.6141 152.611 38.5062 152.611 40.4215C152.611 43.1329 151.833 45.7073 151.833 48.3982C151.833 48.6019 151.795 47.9541 151.92 47.7933C152.124 47.5303 152.23 47.1772 152.456 46.9377C152.877 46.492 153.054 45.8573 153.614 45.5377C154.037 45.2957 154.441 44.4623 154.703 44.0512C155.262 43.173 155.439 41.8679 155.688 40.8709C155.997 39.6342 156.345 38.4939 156.345 37.2153C156.345 36.7594 156.5 36.3263 156.5 35.8153C156.5 35.3001 156.529 35.7448 156.422 35.9795C156.061 36.775 156.24 37.797 156.155 38.6413C155.998 40.1834 156.034 41.7238 156.034 43.2734C156.034 44.0426 156.163 44.1806 156.621 44.6389C157.565 45.583 158.672 44.6238 158.989 43.5154C159.166 42.8968 159.456 42.4667 159.456 41.8043C159.456 41.3033 159.456 43.051 159.456 43.3685C159.456 44.1636 159.456 44.9587 159.456 45.7537C159.456 45.9132 159.585 45.46 159.62 45.3043C159.688 44.9982 160.031 44.738 160.234 44.5352C160.861 43.9076 162.5 42.5264 161.409 41.4932C160.471 40.6047 158.797 40.784 157.667 41.0351C155.758 41.4594 154.167 43.4993 153.138 45.0019C152.081 46.547 150.877 48.0469 149.5 49.2711C149.148 49.5839 149.11 49.1534 149.379 48.96C149.861 48.6133 150.388 48.3602 150.917 48.0958C152.311 47.3988 153.763 47.1702 155.256 46.8167C156.975 46.4096 158.683 46.4092 160.294 45.6932C161.188 45.2958 160.267 44.9056 159.767 44.7945C157.869 44.3728 155.808 44.9694 153.873 44.5179C152.981 44.3097 151.721 44.0253 151.531 42.9796C151.347 41.9701 151.367 40.6597 151.367 39.6265C151.367 38.9862 151.782 34.3368 150.433 36.3597" stroke="#F97C60" stroke-width="1.45136" stroke-linecap="round"/>
<path d="M156.396 7.54121C156.396 6.16711 156.396 4.79301 156.396 3.41891C156.396 2.24009 154.669 1.16331 153.596 1.16331C153.248 1.16331 152.346 1.0042 152.161 1.31887C151.83 1.88153 151.32 2.05588 150.882 2.4942C149.96 3.41685 149.382 4.4985 148.929 5.74364C147.702 9.11897 147.069 12.6819 145.852 16.0624C145.681 16.5374 145.382 16.9716 145.351 17.497C145.321 18.0179 144.756 18.4273 145.593 17.8945C146.523 17.303 148.201 17.1001 149.275 16.9093C150.433 16.7034 151.702 16.6818 152.827 16.3303C154.708 15.7423 156.831 15.2675 158.539 14.2302C159.788 13.4721 161.425 13.2072 162.549 12.208C163.356 11.4904 164.329 11.1489 164.329 9.95237C164.329 8.87826 163.217 7.85233 162.074 7.85233C160.999 7.85233 160.011 7.38565 158.885 7.38565C158.206 7.38565 157.858 7.55342 157.251 7.68813C157.049 7.73316 156.492 8.06206 156.335 7.99925C156.295 7.98302 157.05 7.63093 157.174 7.57578C157.878 7.26284 158.792 7.38565 159.542 7.38565C160.189 7.38565 160.977 7.25428 161.607 7.39429C162.919 7.68586 162.929 8.6076 162.929 9.78817C162.929 10.2312 162.246 11.1018 161.771 11.1018C161.541 11.1018 161.779 9.38585 161.65 9.0968C161.582 8.944 161.269 7.68415 161.028 8.35357C160.677 9.32753 160.671 10.4347 160.363 11.4215C160.307 11.5993 160.049 12.9685 159.896 12.9685C159.707 12.9685 159.663 10.8881 159.663 10.6524C159.663 9.6315 159.097 7.32768 158.107 9.25236C157.744 9.95905 157.564 10.7352 157.208 11.4475C156.995 11.8745 156.743 12.3066 156.707 12.7956C156.661 13.4142 156.24 14.4502 156.24 13.2018C156.24 12.3398 156.074 11.1441 156.43 10.3413C156.507 10.1694 156.739 8.71694 156.465 8.63876C155.716 8.42488 155.353 10.8303 155.238 11.2573C154.973 12.2398 154.49 13.3927 154.374 14.3858C154.325 14.8014 154.218 14.5025 154.218 14.2302C154.218 13.6296 154.15 12.9743 154.296 12.3895C154.487 11.6251 154.84 10.8285 154.84 10.0301C154.84 9.40792 154.84 8.78568 154.84 8.16345C154.84 7.18009 154.308 9.31293 154.218 9.6499C153.813 11.1671 153.383 12.7579 152.982 14.1611C152.871 14.5509 152.621 14.8792 152.516 15.25C152.233 16.2398 152.586 13.1837 152.783 12.1734C153.151 10.2946 153.357 8.05396 154.097 6.29674C154.577 5.1557 154.685 3.89164 154.685 2.64111C154.685 1.93419 154.692 1.35101 154.339 2.37321C153.885 3.68994 153.658 5.01463 153.362 6.37452C153.085 7.65134 153.208 9.20291 152.74 10.419C152.463 11.1387 152.628 11.9747 152.317 12.6746C151.934 13.5362 152.017 14.8032 151.453 15.5093C151.274 15.7329 151.226 16.9915 150.986 15.9414C150.752 14.9192 150.951 13.6461 150.951 12.5969C150.951 10.511 151.107 8.38681 151.107 6.33131C151.107 5.07554 151.5 3.13188 152.118 2.01888C152.23 1.81813 152.532 0.336138 152.23 1.35343C151.93 2.36717 151.574 3.691 151.574 4.7498C151.574 6.87086 150.87 9.06949 150.295 11.0845C149.903 12.4543 149.677 14.0643 149.119 15.3191C149.034 15.5113 148.618 16.9163 148.618 15.7858C148.618 14.6969 148.618 13.608 148.618 12.5191C148.618 11.3149 148.618 10.1108 148.618 8.90667C148.618 8.35042 148.578 7.64363 148.851 7.15231C149.023 6.84381 149.396 5.95012 149.396 5.61401C149.396 4.33057 148.905 8.13525 148.739 9.40791C148.559 10.7893 148.253 12.156 148.143 13.5389C148.092 14.1714 147.933 15.0645 147.65 15.6303C147.307 16.3171 146.907 16.3639 146.907 15.5093C146.907 13.4747 148.326 11.3997 149.396 9.71903C149.97 8.81714 150.484 7.89232 150.917 6.91898C151.14 6.41632 151.063 5.7838 151.34 5.28561C151.832 4.39966 152.59 3.62702 153.095 2.71889C153.204 2.52257 153.349 2.29312 153.475 2.13123C153.477 2.12869 153.067 2.75305 152.974 2.95223C152.158 4.68438 151.885 6.57651 151.885 8.49185C151.885 11.2032 151.107 13.7776 151.107 16.4685C151.107 16.6722 151.068 16.0244 151.193 15.8636C151.398 15.6006 151.503 15.2475 151.729 15.008C152.15 14.5623 152.328 13.9277 152.887 13.608C153.311 13.366 153.714 12.5327 153.976 12.1215C154.535 11.2433 154.712 9.9382 154.961 8.94124C155.27 7.70456 155.618 6.56417 155.618 5.28561C155.618 4.82971 155.774 4.39658 155.774 3.88558C155.774 3.37038 155.803 3.81514 155.696 4.04978C155.334 4.8453 155.513 5.86728 155.428 6.71156C155.272 8.25367 155.307 9.79416 155.307 11.3438C155.307 12.1129 155.436 12.2509 155.895 12.7092C156.839 13.6533 157.946 12.6941 158.263 11.5857C158.439 10.9671 158.729 10.537 158.729 9.87459C158.729 9.37362 158.729 11.1213 158.729 11.4388C158.729 12.2339 158.729 13.029 158.729 13.8241C158.729 13.9835 158.859 13.5303 158.893 13.3747C158.961 13.0685 159.304 12.8083 159.507 12.6055C160.135 11.9779 161.773 10.5967 160.682 9.56347C159.745 8.67501 158.07 8.85429 156.94 9.10544C155.031 9.5297 153.44 11.5696 152.412 13.0722C151.355 14.6173 150.151 16.1172 148.773 17.3414C148.422 17.6542 148.384 17.2237 148.653 17.0303C149.134 16.6836 149.662 16.4305 150.191 16.1661C151.585 15.4691 153.037 15.2405 154.529 14.887C156.248 14.4799 157.957 14.4795 159.568 13.7636C160.462 13.3661 159.541 12.9759 159.04 12.8648C157.143 12.4431 155.081 13.0397 153.146 12.5882C152.254 12.38 150.995 12.0957 150.804 11.0499C150.621 10.0404 150.64 8.73005 150.64 7.69677C150.64 7.05651 151.055 2.4071 149.707 4.43004" stroke="#F97C60" stroke-width="1.45136" stroke-linecap="round"/>
<path d="M35.8782 66.8832C35.8782 65.3229 36.186 63.9271 36.8788 62.5415C37.5565 61.186 37.4925 59.4349 37.933 58.0032C38.1576 57.2731 38.0021 56.2099 38.3707 55.5465C38.6271 55.0849 38.9031 54.0544 38.9335 53.5364C38.9918 52.5454 40.2255 50.1844 41.1134 49.6771C42.2139 49.0482 43.6918 49.0338 44.9637 49.0338C45.6276 49.0338 46.2045 48.9971 46.6879 49.4805C47.0131 49.8057 47.179 50.5166 47.5366 50.8027C48.2099 51.3413 46.8199 53.9546 46.6433 54.5727C46.4011 55.4203 46.7618 54.8038 47.2954 54.537C47.9261 54.2216 48.6893 54.3404 49.3859 54.3404C50.3251 54.3404 52.4798 53.9532 53.2095 54.537C54.234 55.3566 54.3709 56.2361 54.3709 57.5565C54.3709 58.6591 53.2922 60.2519 52.5663 61.0585C51.7121 62.0076 50.4835 62.822 49.3055 63.3455C46.2744 64.6927 43.4365 66.4135 40.22 67.2406C39.4217 67.4459 38.4574 67.4801 37.7096 67.7677C37.2166 67.9573 36.2256 68.1697 35.7174 68.1697C35.5154 68.1697 35.0742 68.3632 35.0742 68.1697C35.0742 67.8542 35.4329 67.5636 35.5566 67.2852C35.9688 66.3578 36.4768 65.4176 37.0039 64.5516C37.6191 63.5409 38.4038 62.5945 38.9693 61.5767C39.332 60.9238 39.676 59.8907 40.1396 59.3343C40.6551 58.7158 40.6805 57.6862 40.8989 56.949C41.2358 55.812 41.2596 54.5207 41.7476 53.4471C42.0342 52.8166 41.9888 52.153 41.9888 51.4459C41.9888 50.253 41.1375 50.6467 40.8632 51.6067C40.4942 52.8983 39.9565 54.1589 39.6125 55.4661C39.0559 57.5812 38.7232 59.7376 38.0402 61.8268C37.7271 62.7844 37.3875 63.7499 37.1736 64.7124C37.1342 64.8899 36.7017 66.8378 37.0039 66.6867C37.2873 66.545 37.4311 66.1344 37.6471 65.9184C37.9103 65.6552 38.3506 65.4271 38.6923 65.2752C39.7996 64.7831 40.99 64.1592 42.1497 63.8279C44.2553 63.2263 46.1653 62.5184 48.0101 61.3444C49.3699 60.4791 51.3919 59.3279 52.2447 57.8781C52.3964 57.6202 53.5552 56.4293 52.9951 56.1093C52.3245 55.7261 51.7116 55.7877 50.9582 55.7877C49.7918 55.7877 45.7021 57.4411 45.0799 55.8234C44.4227 54.1148 45.2171 52.7853 45.8839 51.2851C46.6041 49.6646 43.4522 49.6006 42.9537 50.7223C42.7404 51.2022 42.8954 51.6939 42.7125 52.1695C42.4082 52.9607 42.3017 53.8267 41.9888 54.6263C41.3362 56.2941 40.7933 58.2825 39.8984 59.8167C39.1361 61.1234 38.8541 62.6399 38.2546 63.9887C38.1398 64.247 37.6405 65.8629 37.8436 66.0435C38.0273 66.2068 40.935 62.8508 41.1938 62.6219C42.4223 61.5351 43.709 60.5453 44.8476 59.3611C45.3157 58.8743 45.7504 58.3219 46.1698 57.7977C46.5242 57.3547 47.9094 57.3957 48.4211 57.3957C49.2251 57.3957 50.0291 57.3957 50.8331 57.3957C51.2554 57.3957 51.338 57.141 51.6014 56.8776C51.614 56.865 51.6514 57.8306 51.6282 58.0389C51.5529 58.7169 51.267 59.3773 51.1637 60.049C51.1069 60.4182 51.265 60.8358 51.0297 61.13C50.7692 61.4556 51.2982 60.6502 51.3156 60.4153C51.366 59.7344 51.6324 59.0317 51.798 58.3695C52.0109 57.5179 52.3494 56.585 52.7271 55.7877C52.8546 55.5184 53.2922 55.054 52.9236 55.4661C52.462 55.982 52.2241 56.687 51.798 57.2349C50.7902 58.5306 50.1193 60.084 49.2251 61.4516C48.9244 61.9115 48.6813 62.3562 48.3496 62.7827C47.9717 63.2686 48.0994 62.4959 48.0994 62.1841C48.0994 60.367 48.5518 58.5508 48.7516 56.7525C48.7985 56.3306 48.9035 55.9789 48.9035 55.5465C48.9035 55.2775 48.5966 56.0425 48.4211 56.3058C47.4082 57.8252 46.8344 59.6083 46.0894 61.264C45.7466 62.0256 45.2063 62.6141 44.8923 63.3991C44.8494 63.5062 44.4805 64.1576 44.4367 64.1138C44.0657 63.7428 45.4015 60.9423 45.5266 60.4421C45.8076 59.3179 45.9082 58.2267 46.2949 57.1098C46.357 56.9304 46.5008 56.2405 46.4914 56.4666C46.4621 57.169 45.6286 58.1552 45.2854 58.7626C44.5722 60.0243 44.1167 61.4197 43.4004 62.6666C42.8542 63.6173 42.5551 64.8776 41.9084 65.7397C41.8285 65.8463 40.5766 67.99 40.5416 67.0798C40.4763 65.3813 40.9292 63.8636 41.1848 62.202C41.3999 60.8043 41.5739 59.0082 42.1854 57.7173C42.5181 57.015 42.5791 56.2485 42.8643 55.5197C43.1807 54.7112 43.6231 53.9378 43.9185 53.1254C44.1753 52.4192 44.4754 51.6973 44.5617 50.9635C44.7527 49.3405 44.6343 54.2478 44.9548 55.8502C45.1716 56.9343 44.6091 60.1649 45.0799 59.1646C45.6341 57.9868 45.8482 55.9142 45.8482 54.6263C45.8482 53.9226 46.009 53.2423 46.009 52.5358C46.009 52.3171 46.0193 52.0129 46.009 52.4465C45.9954 53.0184 45.7891 53.3793 45.5266 53.8669C44.2476 56.2421 43.7126 59.1212 42.8643 61.666C42.7959 61.8714 42.4713 62.9585 42.4713 62.8631C42.4713 62.0789 42.6455 61.3533 42.8643 60.6029C43.4269 58.6741 43.6529 56.651 44.2401 54.7424C44.3443 54.4037 44.6497 53.6293 44.5528 54.5012C44.4276 55.6276 43.2553 56.9729 42.7035 57.896C41.5349 59.8512 40.5267 61.8934 39.3445 63.8279C39.2324 64.0113 38.8003 65.0965 38.5315 65.0965C38.282 65.0965 38.5372 63.6728 38.6119 63.5421C38.8021 63.2092 39.6183 60.7673 39.5768 62.2199C39.542 63.4382 38.7742 64.5595 38.603 65.7576C38.5639 66.0314 38.0147 67.7942 38.8085 67.0798C39.1246 66.7952 39.7196 66.6421 40.0949 66.4008C41.1447 65.7259 42.3906 65.3131 43.4897 64.7213C45.368 63.7099 47.0663 62.4535 48.9928 61.5409C49.4718 61.314 48.3832 61.835 48.2603 61.8983C47.4447 62.3177 46.8605 63.0022 46.1698 63.5778C45.9142 63.7908 45.6726 64.0035 45.4372 64.2389C45.273 64.4031 44.7024 64.5906 44.9101 64.6945C45.1363 64.8076 46.351 63.432 46.5271 63.274C47.5367 62.3689 48.3845 61.2789 49.3502 60.3259C50.0417 59.6435 50.8772 58.563 51.6997 58.0568C52.1431 57.7839 52.519 57.3957 51.7622 57.3957C50.6597 57.3957 49.649 57.5586 48.564 57.7888C47.8374 57.9429 47.1264 58.1926 46.411 58.3516C45.8004 58.4873 46.5829 57.2997 46.6879 57.1634C47.0153 56.7391 47.4591 56.4561 47.8493 56.1093C48.111 55.8767 48.6925 55.971 48.9035 55.7073C49.3836 55.1072 48.9356 54.9836 49.904 54.9836C51.2555 54.9836 51.5341 55.5263 52.3161 56.3952C52.8144 56.9488 52.9236 57.3752 52.9236 58.1193C52.9236 58.6877 52.1857 58.9092 51.7176 59.1646C50.6233 59.7614 49.5254 60.3522 48.4211 60.9334C48.2896 61.0026 47.1346 61.7714 47.1346 61.4159C47.1346 60.8814 48.2243 60.3239 48.5908 60.049C49.0978 59.6687 49.7375 59.2728 50.1899 58.843C50.4146 58.6295 51.2075 58.1997 50.6634 58.1997C49.8333 58.1997 48.7921 59.0663 48.0994 59.4951C47.3508 59.9586 45.1558 61.4285 45.8839 60.9334C47.1791 60.0527 48.2861 58.1877 49.9398 57.8871C51.7966 57.5495 46.3269 59.0529 44.4545 59.2896C43.0394 59.4686 39.8984 60.8013 39.8984 58.5303C39.8984 57.2804 40.0922 56.1975 40.22 54.9836C40.256 54.6418 40.4027 54.3918 40.3808 54.0188C40.3666 53.777 39.6584 53.7725 39.5768 53.9563C38.9509 55.3645 38.9081 57.0148 38.2903 58.432C38.0197 59.0529 38.1194 59.804 37.8883 60.451C37.7721 60.7763 37.5235 61.242 37.4863 61.5767C37.4133 62.2336 37.0658 63.3288 36.7537 63.9083C36.4261 64.5169 36.2718 65.3461 35.8425 65.8827C35.2332 66.6443 38.558 65.4145 38.737 65.3466C41.0116 64.4839 42.9939 63.4565 45.1246 62.3092C45.8874 61.8985 46.933 61.4628 47.7778 61.4159C48.5922 61.3706 49.4434 60.9334 50.2703 60.9334C51.4831 60.9334 49.8946 61.87 49.3859 61.8983C48.3478 61.9559 48.2463 61.5348 47.9386 60.6118" stroke="#F97C60" stroke-width="1.45136" stroke-linecap="round"/>
<path d="M108.449 66.8832C108.449 65.3229 108.756 63.9271 109.449 62.5415C110.127 61.186 110.063 59.4349 110.503 58.0032C110.728 57.2731 110.572 56.2099 110.941 55.5465C111.197 55.0849 111.473 54.0544 111.504 53.5364C111.562 52.5454 112.796 50.1844 113.684 49.6771C114.784 49.0482 116.262 49.0338 117.534 49.0338C118.198 49.0338 118.775 48.9971 119.258 49.4805C119.583 49.8057 119.749 50.5166 120.107 50.8027C120.78 51.3413 119.39 53.9546 119.214 54.5727C118.971 55.4203 119.332 54.8038 119.866 54.537C120.496 54.2216 121.26 54.3404 121.956 54.3404C122.895 54.3404 125.05 53.9532 125.78 54.537C126.804 55.3566 126.941 56.2361 126.941 57.5565C126.941 58.6591 125.862 60.2519 125.137 61.0585C124.282 62.0076 123.054 62.822 121.876 63.3455C118.845 64.6927 116.007 66.4135 112.79 67.2406C111.992 67.4459 111.028 67.4801 110.28 67.7677C109.787 67.9573 108.796 68.1697 108.288 68.1697C108.086 68.1697 107.645 68.3632 107.645 68.1697C107.645 67.8542 108.003 67.5636 108.127 67.2852C108.539 66.3578 109.047 65.4176 109.574 64.5516C110.189 63.5409 110.974 62.5945 111.54 61.5767C111.902 60.9238 112.246 59.8907 112.71 59.3343C113.225 58.7158 113.251 57.6862 113.469 56.949C113.806 55.812 113.83 54.5207 114.318 53.4471C114.605 52.8166 114.559 52.153 114.559 51.4459C114.559 50.253 113.708 50.6467 113.434 51.6067C113.064 52.8983 112.527 54.1589 112.183 55.4661C111.626 57.5812 111.293 59.7376 110.61 61.8268C110.297 62.7844 109.958 63.7499 109.744 64.7124C109.704 64.8899 109.272 66.8378 109.574 66.6867C109.858 66.545 110.001 66.1344 110.217 65.9184C110.481 65.6552 110.921 65.4271 111.263 65.2752C112.37 64.7831 113.56 64.1592 114.72 63.8279C116.826 63.2263 118.736 62.5184 120.58 61.3444C121.94 60.4791 123.962 59.3279 124.815 57.8781C124.967 57.6202 126.125 56.4293 125.565 56.1093C124.895 55.7261 124.282 55.7877 123.529 55.7877C122.362 55.7877 118.272 57.4411 117.65 55.8234C116.993 54.1148 117.787 52.7853 118.454 51.2851C119.174 49.6646 116.023 49.6006 115.524 50.7223C115.311 51.2022 115.466 51.6939 115.283 52.1695C114.978 52.9607 114.872 53.8267 114.559 54.6263C113.907 56.2941 113.364 58.2825 112.469 59.8167C111.706 61.1234 111.424 62.6399 110.825 63.9887C110.71 64.247 110.211 65.8629 110.414 66.0435C110.598 66.2068 113.505 62.8508 113.764 62.6219C114.993 61.5351 116.279 60.5453 117.418 59.3611C117.886 58.8743 118.321 58.3219 118.74 57.7977C119.095 57.3547 120.48 57.3957 120.991 57.3957C121.795 57.3957 122.599 57.3957 123.403 57.3957C123.826 57.3957 123.908 57.141 124.172 56.8776C124.184 56.865 124.222 57.8306 124.199 58.0389C124.123 58.7169 123.837 59.3773 123.734 60.049C123.677 60.4182 123.835 60.8358 123.6 61.13C123.34 61.4556 123.868 60.6502 123.886 60.4153C123.936 59.7344 124.203 59.0317 124.368 58.3695C124.581 57.5179 124.92 56.585 125.297 55.7877C125.425 55.5184 125.863 55.054 125.494 55.4661C125.032 55.982 124.794 56.687 124.368 57.2349C123.361 58.5306 122.69 60.084 121.795 61.4516C121.495 61.9115 121.252 62.3562 120.92 62.7827C120.542 63.2686 120.67 62.4959 120.67 62.1841C120.67 60.367 121.122 58.5508 121.322 56.7525C121.369 56.3306 121.474 55.9789 121.474 55.5465C121.474 55.2775 121.167 56.0425 120.991 56.3058C119.978 57.8252 119.405 59.6083 118.66 61.264C118.317 62.0256 117.777 62.6141 117.463 63.3991C117.42 63.5062 117.051 64.1576 117.007 64.1138C116.636 63.7428 117.972 60.9423 118.097 60.4421C118.378 59.3179 118.479 58.2267 118.865 57.1098C118.927 56.9304 119.071 56.2405 119.062 56.4666C119.032 57.169 118.199 58.1552 117.856 58.7626C117.143 60.0243 116.687 61.4197 115.971 62.6666C115.425 63.6173 115.125 64.8776 114.479 65.7397C114.399 65.8463 113.147 67.99 113.112 67.0798C113.047 65.3813 113.5 63.8636 113.755 62.202C113.97 60.8043 114.144 59.0082 114.756 57.7173C115.088 57.015 115.149 56.2485 115.435 55.5197C115.751 54.7112 116.193 53.9378 116.489 53.1254C116.746 52.4192 117.046 51.6973 117.132 50.9635C117.323 49.3405 117.205 54.2478 117.525 55.8502C117.742 56.9343 117.179 60.1649 117.65 59.1646C118.204 57.9868 118.418 55.9142 118.418 54.6263C118.418 53.9226 118.579 53.2423 118.579 52.5358C118.579 52.3171 118.59 52.0129 118.579 52.4465C118.566 53.0184 118.359 53.3793 118.097 53.8669C116.818 56.2421 116.283 59.1212 115.435 61.666C115.366 61.8714 115.042 62.9585 115.042 62.8631C115.042 62.0789 115.216 61.3533 115.435 60.6029C115.997 58.6741 116.223 56.651 116.81 54.7424C116.915 54.4037 117.22 53.6293 117.123 54.5012C116.998 55.6276 115.826 56.9729 115.274 57.896C114.105 59.8512 113.097 61.8934 111.915 63.8279C111.803 64.0113 111.371 65.0965 111.102 65.0965C110.852 65.0965 111.108 63.6728 111.182 63.5421C111.372 63.2092 112.189 60.7673 112.147 62.2199C112.112 63.4382 111.344 64.5595 111.173 65.7576C111.134 66.0314 110.585 67.7942 111.379 67.0798C111.695 66.7952 112.29 66.6421 112.665 66.4008C113.715 65.7259 114.961 65.3131 116.06 64.7213C117.938 63.7099 119.637 62.4535 121.563 61.5409C122.042 61.314 120.954 61.835 120.831 61.8983C120.015 62.3177 119.431 63.0022 118.74 63.5778C118.485 63.7908 118.243 64.0035 118.008 64.2389C117.843 64.4031 117.273 64.5906 117.48 64.6945C117.707 64.8076 118.921 63.432 119.097 63.274C120.107 62.3689 120.955 61.2789 121.92 60.3259C122.612 59.6435 123.447 58.563 124.27 58.0568C124.713 57.7839 125.089 57.3957 124.333 57.3957C123.23 57.3957 122.219 57.5586 121.134 57.7888C120.408 57.9429 119.697 58.1926 118.981 58.3516C118.371 58.4873 119.153 57.2997 119.258 57.1634C119.586 56.7391 120.029 56.4561 120.42 56.1093C120.681 55.8767 121.263 55.971 121.474 55.7073C121.954 55.1072 121.506 54.9836 122.474 54.9836C123.826 54.9836 124.104 55.5263 124.886 56.3952C125.385 56.9488 125.494 57.3752 125.494 58.1193C125.494 58.6877 124.756 58.9092 124.288 59.1646C123.194 59.7614 122.096 60.3522 120.991 60.9334C120.86 61.0026 119.705 61.7714 119.705 61.4159C119.705 60.8814 120.795 60.3239 121.161 60.049C121.668 59.6687 122.308 59.2728 122.76 58.843C122.985 58.6295 123.778 58.1997 123.234 58.1997C122.404 58.1997 121.362 59.0663 120.67 59.4951C119.921 59.9586 117.726 61.4285 118.454 60.9334C119.749 60.0527 120.856 58.1877 122.51 57.8871C124.367 57.5495 118.897 59.0529 117.025 59.2896C115.61 59.4686 112.469 60.8013 112.469 58.5303C112.469 57.2804 112.663 56.1975 112.79 54.9836C112.826 54.6418 112.973 54.3918 112.951 54.0188C112.937 53.777 112.229 53.7725 112.147 53.9563C111.521 55.3645 111.478 57.0148 110.861 58.432C110.59 59.0529 110.69 59.804 110.459 60.451C110.342 60.7763 110.094 61.242 110.057 61.5767C109.984 62.2336 109.636 63.3288 109.324 63.9083C108.996 64.5169 108.842 65.3461 108.413 65.8827C107.804 66.6443 111.128 65.4145 111.307 65.3466C113.582 64.4839 115.564 63.4565 117.695 62.3092C118.458 61.8985 119.503 61.4628 120.348 61.4159C121.163 61.3706 122.014 60.9334 122.841 60.9334C124.053 60.9334 122.465 61.87 121.956 61.8983C120.918 61.9559 120.817 61.5348 120.509 60.6118" stroke="#F97C60" stroke-width="1.45136" stroke-linecap="round"/>
<path d="M177.87 66.8832C177.87 65.3229 178.178 63.9271 178.871 62.5415C179.549 61.186 179.485 59.4349 179.925 58.0032C180.15 57.2731 179.994 56.2099 180.363 55.5465C180.619 55.0849 180.895 54.0544 180.926 53.5364C180.984 52.5454 182.218 50.1844 183.106 49.6771C184.206 49.0482 185.684 49.0338 186.956 49.0338C187.62 49.0338 188.197 48.9971 188.68 49.4805C189.005 49.8057 189.171 50.5166 189.529 50.8027C190.202 51.3413 188.812 53.9546 188.635 54.5727C188.393 55.4203 188.754 54.8038 189.288 54.537C189.918 54.2216 190.681 54.3404 191.378 54.3404C192.317 54.3404 194.472 53.9532 195.202 54.537C196.226 55.3566 196.363 56.2361 196.363 57.5565C196.363 58.6591 195.284 60.2519 194.558 61.0585C193.704 62.0076 192.476 62.822 191.298 63.3455C188.267 64.6927 185.429 66.4135 182.212 67.2406C181.414 67.4459 180.45 67.4801 179.702 67.7677C179.209 67.9573 178.218 68.1697 177.71 68.1697C177.508 68.1697 177.066 68.3632 177.066 68.1697C177.066 67.8542 177.425 67.5636 177.549 67.2852C177.961 66.3578 178.469 65.4176 178.996 64.5516C179.611 63.5409 180.396 62.5945 180.961 61.5767C181.324 60.9238 181.668 59.8907 182.132 59.3343C182.647 58.7158 182.673 57.6862 182.891 56.949C183.228 55.812 183.252 54.5207 183.74 53.4471C184.026 52.8166 183.981 52.153 183.981 51.4459C183.981 50.253 183.13 50.6467 182.855 51.6067C182.486 52.8983 181.949 54.1589 181.605 55.4661C181.048 57.5812 180.715 59.7376 180.032 61.8268C179.719 62.7844 179.38 63.7499 179.166 64.7124C179.126 64.8899 178.694 66.8378 178.996 66.6867C179.279 66.545 179.423 66.1344 179.639 65.9184C179.902 65.6552 180.343 65.4271 180.685 65.2752C181.792 64.7831 182.982 64.1592 184.142 63.8279C186.248 63.2263 188.157 62.5184 190.002 61.3444C191.362 60.4791 193.384 59.3279 194.237 57.8781C194.389 57.6202 195.547 56.4293 194.987 56.1093C194.317 55.7261 193.704 55.7877 192.95 55.7877C191.784 55.7877 187.694 57.4411 187.072 55.8234C186.415 54.1148 187.209 52.7853 187.876 51.2851C188.596 49.6646 185.444 49.6006 184.946 50.7223C184.733 51.2022 184.888 51.6939 184.705 52.1695C184.4 52.9607 184.294 53.8267 183.981 54.6263C183.328 56.2941 182.786 58.2825 181.891 59.8167C181.128 61.1234 180.846 62.6399 180.247 63.9887C180.132 64.247 179.633 65.8629 179.836 66.0435C180.02 66.2068 182.927 62.8508 183.186 62.6219C184.414 61.5351 185.701 60.5453 186.84 59.3611C187.308 58.8743 187.743 58.3219 188.162 57.7977C188.516 57.3547 189.902 57.3957 190.413 57.3957C191.217 57.3957 192.021 57.3957 192.825 57.3957C193.248 57.3957 193.33 57.141 193.594 56.8776C193.606 56.865 193.644 57.8306 193.62 58.0389C193.545 58.7169 193.259 59.3773 193.156 60.049C193.099 60.4182 193.257 60.8358 193.022 61.13C192.761 61.4556 193.29 60.6502 193.308 60.4153C193.358 59.7344 193.625 59.0317 193.79 58.3695C194.003 57.5179 194.342 56.585 194.719 55.7877C194.847 55.5184 195.284 55.054 194.916 55.4661C194.454 55.982 194.216 56.687 193.79 57.2349C192.782 58.5306 192.111 60.084 191.217 61.4516C190.917 61.9115 190.673 62.3562 190.342 62.7827C189.964 63.2686 190.092 62.4959 190.092 62.1841C190.092 60.367 190.544 58.5508 190.744 56.7525C190.791 56.3306 190.896 55.9789 190.896 55.5465C190.896 55.2775 190.589 56.0425 190.413 56.3058C189.4 57.8252 188.827 59.6083 188.082 61.264C187.739 62.0256 187.198 62.6141 186.884 63.3991C186.842 63.5062 186.473 64.1576 186.429 64.1138C186.058 63.7428 187.394 60.9423 187.519 60.4421C187.8 59.3179 187.9 58.2267 188.287 57.1098C188.349 56.9304 188.493 56.2405 188.484 56.4666C188.454 57.169 187.621 58.1552 187.278 58.7626C186.564 60.0243 186.109 61.4197 185.393 62.6666C184.846 63.6173 184.547 64.8776 183.901 65.7397C183.821 65.8463 182.569 67.99 182.534 67.0798C182.468 65.3813 182.921 63.8636 183.177 62.202C183.392 60.8043 183.566 59.0082 184.178 57.7173C184.51 57.015 184.571 56.2485 184.857 55.5197C185.173 54.7112 185.615 53.9378 185.911 53.1254C186.168 52.4192 186.468 51.6973 186.554 50.9635C186.745 49.3405 186.627 54.2478 186.947 55.8502C187.164 56.9343 186.601 60.1649 187.072 59.1646C187.626 57.9868 187.84 55.9142 187.84 54.6263C187.84 53.9226 188.001 53.2423 188.001 52.5358C188.001 52.3171 188.011 52.0129 188.001 52.4465C187.988 53.0184 187.781 53.3793 187.519 53.8669C186.24 56.2421 185.705 59.1212 184.857 61.666C184.788 61.8714 184.463 62.9585 184.463 62.8631C184.463 62.0789 184.638 61.3533 184.857 60.6029C185.419 58.6741 185.645 56.651 186.232 54.7424C186.337 54.4037 186.642 53.6293 186.545 54.5012C186.42 55.6276 185.247 56.9729 184.696 57.896C183.527 59.8512 182.519 61.8934 181.337 63.8279C181.225 64.0113 180.792 65.0965 180.524 65.0965C180.274 65.0965 180.529 63.6728 180.604 63.5421C180.794 63.2092 181.61 60.7673 181.569 62.2199C181.534 63.4382 180.766 64.5595 180.595 65.7576C180.556 66.0314 180.007 67.7942 180.801 67.0798C181.117 66.7952 181.712 66.6421 182.087 66.4008C183.137 65.7259 184.383 65.3131 185.482 64.7213C187.36 63.7099 189.059 62.4535 190.985 61.5409C191.464 61.314 190.375 61.835 190.252 61.8983C189.437 62.3177 188.853 63.0022 188.162 63.5778C187.906 63.7908 187.665 64.0035 187.429 64.2389C187.265 64.4031 186.695 64.5906 186.902 64.6945C187.128 64.8076 188.343 63.432 188.519 63.274C189.529 62.3689 190.377 61.2789 191.342 60.3259C192.034 59.6435 192.869 58.563 193.692 58.0568C194.135 57.7839 194.511 57.3957 193.754 57.3957C192.652 57.3957 191.641 57.5586 190.556 57.7888C189.83 57.9429 189.119 58.1926 188.403 58.3516C187.793 58.4873 188.575 57.2997 188.68 57.1634C189.007 56.7391 189.451 56.4561 189.841 56.1093C190.103 55.8767 190.685 55.971 190.896 55.7073C191.376 55.1072 190.928 54.9836 191.896 54.9836C193.248 54.9836 193.526 55.5263 194.308 56.3952C194.807 56.9488 194.916 57.3752 194.916 58.1193C194.916 58.6877 194.178 58.9092 193.71 59.1646C192.615 59.7614 191.518 60.3522 190.413 60.9334C190.282 61.0026 189.127 61.7714 189.127 61.4159C189.127 60.8814 190.216 60.3239 190.583 60.049C191.09 59.6687 191.73 59.2728 192.182 58.843C192.407 58.6295 193.2 58.1997 192.656 58.1997C191.825 58.1997 190.784 59.0663 190.092 59.4951C189.343 59.9586 187.148 61.4285 187.876 60.9334C189.171 60.0527 190.278 58.1877 191.932 57.8871C193.789 57.5495 188.319 59.0529 186.447 59.2896C185.032 59.4686 181.891 60.8013 181.891 58.5303C181.891 57.2804 182.084 56.1975 182.212 54.9836C182.248 54.6418 182.395 54.3918 182.373 54.0188C182.359 53.777 181.651 53.7725 181.569 53.9563C180.943 55.3645 180.9 57.0148 180.283 58.432C180.012 59.0529 180.112 59.804 179.88 60.451C179.764 60.7763 179.516 61.242 179.478 61.5767C179.405 62.2336 179.058 63.3288 178.746 63.9083C178.418 64.5169 178.264 65.3461 177.835 65.8827C177.225 66.6443 180.55 65.4145 180.729 65.3466C183.004 64.4839 184.986 63.4565 187.117 62.3092C187.88 61.8985 188.925 61.4628 189.77 61.4159C190.584 61.3706 191.436 60.9334 192.263 60.9334C193.475 60.9334 191.887 61.87 191.378 61.8983C190.34 61.9559 190.239 61.5348 189.931 60.6118" stroke="#F97C60" stroke-width="1.45136" stroke-linecap="round"/>
<path d="M5.03685 51.3918C5.12869 51.3512 5.31443 50.0336 5.40949 49.7877C5.66601 49.1242 5.85411 48.2648 6.00659 47.5664C6.36117 45.9423 6.6988 44.2728 6.79307 42.6096C6.87088 41.2369 7.77433 39.6415 8.37002 38.4533C8.69453 37.8059 9.23141 36.9586 9.40251 36.2581C9.50959 35.8197 10.1695 34.8258 10.5266 34.5415C11.4408 33.8132 11.9578 32.9767 13.1342 32.6229C13.6961 32.4539 14.2244 32.138 14.8192 31.9591C15.3527 31.7986 15.7114 32.3688 16.0873 32.52C16.3173 32.6126 16.6998 33.7734 16.7798 34.0393C16.9556 34.6237 17.201 35.2099 17.1236 35.8206C17.0363 36.509 16.7749 37.2414 16.4816 37.8634C16.3732 38.0931 16.3283 38.3456 16.2227 38.5695C16.0731 38.8868 16.2259 38.4661 16.3651 38.4045C16.7167 38.249 16.8785 37.5719 17.2183 37.3539C17.7693 37.0004 17.9815 36.662 18.683 36.451C19.7361 36.1343 21.1621 35.3804 22.1826 36.1052C23.1701 36.8067 23.685 37.976 23.9573 39.1052C24.2098 40.1523 23.0939 41.634 22.423 42.3587C21.651 43.1925 21.2269 44.3999 20.1335 44.9581C18.9199 45.5776 17.6537 46.1816 16.4694 46.8453C15.3418 47.4773 14.241 48.3264 13.059 48.8221C12.3794 49.107 11.6673 49.4582 11.0509 49.8622C10.5287 50.2046 9.67962 50.2383 9.20915 50.643C8.87071 50.9341 8.02662 51.2779 7.62986 51.3972C7.04519 51.573 6.65084 51.8487 6.08889 52.0177C5.87813 52.0811 4.8555 52.6638 4.86882 52.6028C5.01169 51.9484 5.4166 51.3143 5.61338 50.6687C5.98024 49.4651 6.45066 48.0046 7.15621 46.9502C7.62923 46.2433 7.8019 45.2892 8.19014 44.5277C8.58473 43.7539 9.07796 42.755 9.3456 41.9291C9.60938 41.1152 10.0952 40.3728 10.3091 39.5628C10.489 38.8818 10.7453 38.1158 11.0632 37.4862C11.4633 36.6939 11.7805 35.8731 12.2284 35.0941C12.6243 34.4055 12.633 34.1384 12.009 34.9158C11.2832 35.82 10.9393 37.0375 10.256 37.9646C9.07735 39.5638 8.30885 41.6179 7.76847 43.5028C7.36445 44.9121 7.16716 46.4053 6.91833 47.8419C6.82981 48.353 6.5404 48.9792 6.66337 49.4891C6.70511 49.6622 6.74535 51.1223 6.5765 51.173C6.39061 51.2289 7.17548 48.5811 7.27004 48.3731C7.89667 46.9947 8.87184 45.794 9.46255 44.4068C10.5118 41.9429 11.809 39.468 13.0725 37.1175C13.4725 36.3735 13.9155 35.6741 14.3107 34.939C14.5667 34.4628 15.0631 33.8046 15.1691 33.2674C15.2007 33.1069 15.4166 32.6049 15.2137 33.0096C14.9499 33.5359 14.724 34.1789 14.5074 34.7228C13.8867 36.2815 13.2547 37.8555 12.4778 39.3468C11.3094 41.5896 10.6152 43.8696 9.7639 46.1921C9.49691 46.9205 9.33277 47.6558 8.8906 48.2783C8.56696 48.734 8.20573 49.4431 8.24916 50.033C8.31179 50.8838 8.66183 49.1612 8.82376 48.8394C9.34942 47.7948 9.85008 46.7416 10.3918 45.6979C11.1351 44.2658 11.7185 42.7426 12.4408 41.3124C12.8899 40.4229 13.3082 39.3682 13.897 38.5535C14.455 37.7814 14.8453 36.9642 15.2959 36.126C15.4282 35.8798 15.9797 34.2975 16.2726 34.2094C16.6514 34.0954 16.0869 34.9784 16.0005 35.3644C15.8876 35.8684 15.5508 36.4781 15.2909 36.9215C14.9282 37.54 14.8402 38.3213 14.4928 38.9676C14.1222 39.657 13.7957 40.4185 13.4979 41.1428C12.7508 42.9594 11.9563 44.717 11.4905 46.6239C11.3565 47.1723 11.0603 47.7236 10.7985 48.2106C10.5664 48.6424 10.6547 49.1269 10.4648 49.4801C9.59292 51.1021 11.9768 46.1185 12.8487 44.4965C13.3263 43.6082 13.6948 42.698 14.1706 41.813C14.4424 41.3073 14.8745 40.6948 15.0026 40.1405C15.1307 39.5857 15.6588 39.0445 15.933 38.5345C15.9992 38.4113 16.393 37.5073 16.5582 37.5961C16.7819 37.7163 15.9255 39.0922 15.8599 39.2196C15.1606 40.577 14.9241 42.287 14.6833 43.779C14.5697 44.4832 14.0158 45.4534 14.1376 46.1419C14.2306 46.6678 13.9439 47.2106 13.8265 47.7187C13.5866 48.7574 14.2162 47.2206 14.2741 46.8861C14.4591 45.8181 15.1444 44.8953 15.5758 43.9032C15.9764 42.9818 16.4288 41.6292 17.0102 40.8106C17.3551 40.325 17.9138 39.5126 18.0573 38.9252C18.1413 38.5812 18.5465 37.4343 18.9509 37.3127C19.2757 37.2151 18.6552 37.9231 18.5114 38.2302C18.3322 38.613 18.2777 39.2036 18.1474 39.631C17.8714 40.5366 17.5388 41.4628 17.4099 42.4006C17.2456 43.5951 17.4604 44.7426 17.0257 45.823C16.638 46.7862 17.2097 45.1645 17.2915 44.8792C17.576 43.8867 17.9567 42.8557 18.4491 41.9397C19.27 40.4127 19.6289 38.7759 20.5435 37.27C20.7473 36.9344 21.0395 36.0447 21.2187 36.7878C21.339 37.2868 20.8102 38.4159 20.5862 38.8626C20.1634 39.7061 19.9894 40.7744 19.7887 41.6938C19.6962 42.1174 19.7528 43.0902 19.5234 43.4227C19.4204 43.5719 19.5922 44.1914 19.8166 43.8755C20.0187 43.591 20.0097 43.2267 20.1489 42.9205C20.439 42.2823 20.7164 41.2797 20.8683 40.5839C20.9635 40.1478 22.4937 37.9585 22.6026 38.2562C22.9821 39.2929 22.4507 40.2135 21.897 41.0161C21.2799 41.9107 20.3296 42.7572 19.5587 43.5691C18.7246 44.4476 17.886 44.9813 16.7709 45.4982C15.2752 46.1915 13.5551 46.7911 12.3141 47.9118C12.0994 48.1057 11.7996 48.2134 11.6486 48.4261C11.6034 48.4897 11.7072 47.966 11.9266 47.784C12.5244 47.2883 13.1593 45.8971 13.3269 45.1292C13.7749 43.0777 15.4283 41.1926 16.6204 39.5144C16.7441 39.3402 17.036 38.5465 17.1818 39.0314C17.299 39.421 17.4148 39.8259 17.2995 40.235C17.0383 41.1624 16.4689 42.0788 16.3467 43.0431C16.3217 43.2405 15.5784 44.5875 15.4327 44.1818C14.8446 42.5439 14.3861 40.8159 13.9166 39.1409C13.3532 37.1307 14.213 35.2401 14.5497 33.2966C14.5767 33.1402 14.6105 32.5471 14.2828 32.7574C14.0251 32.9227 13.9041 33.7111 13.8419 33.9894C13.6399 34.8917 13.1412 35.8835 12.785 36.7416C12.416 37.63 12.3371 38.9588 11.6465 39.6579C11.0247 40.2874 10.462 41.5753 10.1222 42.3936C9.53086 43.8177 9.42881 45.1588 9.23683 46.6735C9.15645 47.3076 9.32348 47.9329 9.24453 48.5558C9.22049 48.7455 9.31564 50.0477 8.89632 49.6028" stroke="#F97C60" stroke-width="1.45136" stroke-linecap="round"/>
<path d="M77.6033 51.3918C77.6951 51.3512 77.8808 50.0336 77.9759 49.7877C78.2324 49.1242 78.4205 48.2648 78.573 47.5664C78.9276 45.9423 79.2652 44.2728 79.3595 42.6096C79.4373 41.2369 80.3407 39.6415 80.9364 38.4533C81.2609 37.8059 81.7978 36.9586 81.9689 36.2581C82.076 35.8197 82.736 34.8258 83.093 34.5415C84.0072 33.8132 84.5242 32.9767 85.7007 32.6229C86.2625 32.4539 86.7908 32.138 87.3857 31.9591C87.9191 31.7986 88.2778 32.3688 88.6537 32.52C88.8837 32.6126 89.2663 33.7734 89.3462 34.0393C89.522 34.6237 89.7674 35.2099 89.69 35.8206C89.6028 36.509 89.3413 37.2414 89.048 37.8634C88.9397 38.0931 88.8947 38.3456 88.7892 38.5695C88.6395 38.8868 88.7923 38.4661 88.9315 38.4045C89.2831 38.249 89.4449 37.5719 89.7847 37.3539C90.3357 37.0004 90.548 36.662 91.2494 36.451C92.3025 36.1343 93.7285 35.3804 94.749 36.1052C95.7366 36.8067 96.2514 37.976 96.5237 39.1052C96.7763 40.1523 95.6604 41.634 94.9894 42.3587C94.2174 43.1925 93.7933 44.3999 92.6999 44.9581C91.4863 45.5776 90.2201 46.1816 89.0358 46.8453C87.9082 47.4773 86.8074 48.3264 85.6254 48.8221C84.9458 49.107 84.2337 49.4582 83.6173 49.8622C83.0951 50.2046 82.246 50.2383 81.7756 50.643C81.4371 50.9341 80.593 51.2779 80.1963 51.3972C79.6116 51.573 79.2172 51.8487 78.6553 52.0177C78.4445 52.0811 77.4219 52.6638 77.4352 52.6028C77.5781 51.9484 77.983 51.3143 78.1798 50.6687C78.5466 49.4651 79.0171 48.0046 79.7226 46.9502C80.1956 46.2433 80.3683 45.2892 80.7565 44.5277C81.1511 43.7539 81.6444 42.755 81.912 41.9291C82.1758 41.1152 82.6616 40.3728 82.8755 39.5628C83.0554 38.8818 83.3117 38.1158 83.6296 37.4862C84.0297 36.6939 84.3469 35.8731 84.7948 35.0941C85.1907 34.4055 85.1994 34.1384 84.5754 34.9158C83.8496 35.82 83.5057 37.0375 82.8224 37.9646C81.6438 39.5638 80.8753 41.6179 80.3349 43.5028C79.9309 44.9121 79.7336 46.4053 79.4847 47.8419C79.3962 48.353 79.1068 48.9792 79.2298 49.4891C79.2715 49.6622 79.3118 51.1223 79.1429 51.173C78.957 51.2289 79.7419 48.5811 79.8364 48.3731C80.4631 46.9947 81.4382 45.794 82.029 44.4068C83.0782 41.9429 84.3754 39.468 85.6389 37.1175C86.0389 36.3735 86.4819 35.6741 86.8771 34.939C87.1331 34.4628 87.6295 33.8046 87.7355 33.2674C87.7671 33.1069 87.983 32.6049 87.7801 33.0096C87.5163 33.5359 87.2904 34.1789 87.0738 34.7228C86.4531 36.2815 85.8211 37.8555 85.0442 39.3468C83.8758 41.5896 83.1816 43.8696 82.3303 46.1921C82.0633 46.9205 81.8992 47.6558 81.457 48.2783C81.1334 48.734 80.7721 49.4431 80.8156 50.033C80.8782 50.8838 81.2282 49.1612 81.3902 48.8394C81.9158 47.7948 82.4165 46.7416 82.9582 45.6979C83.7015 44.2658 84.285 42.7426 85.0072 41.3124C85.4563 40.4229 85.8746 39.3682 86.4634 38.5535C87.0214 37.7814 87.4117 36.9642 87.8623 36.126C87.9946 35.8798 88.5461 34.2975 88.839 34.2094C89.2178 34.0954 88.6533 34.9784 88.5669 35.3644C88.454 35.8684 88.1172 36.4781 87.8573 36.9215C87.4947 37.54 87.4066 38.3213 87.0592 38.9676C86.6886 39.657 86.3621 40.4185 86.0643 41.1428C85.3172 42.9594 84.5227 44.717 84.0569 46.6239C83.9229 47.1723 83.6267 47.7236 83.3649 48.2106C83.1328 48.6424 83.2211 49.1269 83.0312 49.4801C82.1593 51.1021 84.5432 46.1185 85.4151 44.4965C85.8927 43.6082 86.2613 42.698 86.737 41.813C87.0088 41.3073 87.4409 40.6948 87.569 40.1405C87.6971 39.5857 88.2253 39.0445 88.4994 38.5345C88.5656 38.4113 88.9595 37.5073 89.1246 37.5961C89.3483 37.7163 88.4919 39.0922 88.4263 39.2196C87.727 40.577 87.4905 42.287 87.2498 43.779C87.1361 44.4832 86.5822 45.4534 86.704 46.1419C86.797 46.6678 86.5103 47.2106 86.3929 47.7187C86.153 48.7574 86.7826 47.2206 86.8405 46.8861C87.0255 45.8181 87.7109 44.8953 88.1422 43.9032C88.5428 42.9818 88.9952 41.6292 89.5766 40.8106C89.9215 40.325 90.4802 39.5126 90.6237 38.9252C90.7077 38.5812 91.1129 37.4343 91.5173 37.3127C91.8421 37.2151 91.2216 37.9231 91.0778 38.2302C90.8986 38.613 90.8441 39.2036 90.7138 39.631C90.4378 40.5366 90.1052 41.4628 89.9763 42.4006C89.812 43.5951 90.0268 44.7426 89.5921 45.823C89.2044 46.7862 89.7761 45.1645 89.8579 44.8792C90.1424 43.8867 90.5231 42.8557 91.0155 41.9397C91.8364 40.4127 92.1953 38.7759 93.1099 37.27C93.3138 36.9344 93.6059 36.0447 93.7851 36.7878C93.9054 37.2868 93.3766 38.4159 93.1527 38.8626C92.7298 39.7061 92.5558 40.7744 92.3551 41.6938C92.2626 42.1174 92.3192 43.0902 92.0898 43.4227C91.9869 43.5719 92.1586 44.1914 92.383 43.8755C92.5851 43.591 92.5761 43.2267 92.7153 42.9205C93.0054 42.2823 93.2828 41.2797 93.4347 40.5839C93.5299 40.1478 95.0601 37.9585 95.169 38.2562C95.5485 39.2929 95.0172 40.2135 94.4634 41.0161C93.8463 41.9107 92.896 42.7572 92.1251 43.5691C91.291 44.4476 90.4525 44.9813 89.3373 45.4982C87.8416 46.1915 86.1215 46.7911 84.8805 47.9118C84.6658 48.1057 84.366 48.2134 84.215 48.4261C84.1698 48.4897 84.2736 47.966 84.493 47.784C85.0908 47.2883 85.7257 45.8971 85.8934 45.1292C86.3413 43.0777 87.9947 41.1926 89.1868 39.5144C89.3105 39.3402 89.6024 38.5465 89.7482 39.0314C89.8654 39.421 89.9812 39.8259 89.8659 40.235C89.6047 41.1624 89.0353 42.0788 88.9131 43.0431C88.8881 43.2405 88.1448 44.5875 87.9991 44.1818C87.411 42.5439 86.9525 40.8159 86.4831 39.1409C85.9196 37.1307 86.7794 35.2401 87.1161 33.2966C87.1432 33.1402 87.1769 32.5471 86.8492 32.7574C86.5915 32.9227 86.4706 33.7111 86.4083 33.9894C86.2063 34.8917 85.7077 35.8835 85.3514 36.7416C84.9824 37.63 84.9035 38.9588 84.2129 39.6579C83.5911 40.2874 83.0284 41.5753 82.6886 42.3936C82.0973 43.8177 81.9952 45.1588 81.8032 46.6735C81.7229 47.3076 81.8899 47.9329 81.8109 48.5558C81.7869 48.7455 81.882 50.0477 81.4627 49.6028" stroke="#F97C60" stroke-width="1.45136" stroke-linecap="round"/>
</svg>
