<svg width="327" height="308" viewBox="0 0 327 308" fill="none" xmlns="http://www.w3.org/2000/svg">
<path d="M127.953 155.928L127.564 157.38L128.599 158.529L127.918 158.97L128.4 160.858L129.563 161.369L128.848 162.095L130.606 163.609L130.98 163.048L131.923 163.3C132.586 162.312 133.749 161.739 133.757 160.421C134.612 160.573 135.091 159.882 135.328 159.426C135.892 158.345 137.056 157.623 137.366 156.546C137.729 155.29 138.679 154.518 139.287 153.503C140.016 152.285 140.783 151.035 141.637 149.862C142.47 148.717 143.472 147.548 143.817 146.072C145.779 144.116 146.652 141.468 148.083 139.179C149.198 137.395 150.463 135.635 151.176 133.582C151.424 132.868 152.365 132.375 151.455 131.318C152.614 131.037 153.346 130.537 153.599 129.442C153.808 128.66 154.15 127.92 154.611 127.254C155.756 125.507 156.492 123.564 157.42 121.712C158.271 120.013 158.893 118.197 159.755 116.54C160.916 114.304 161.174 111.871 161.95 109.566C162.087 109.16 161.865 108.646 161.918 108.195C161.975 107.706 162.373 107.156 162.235 106.771C162.055 106.273 162.402 106.032 162.426 105.671C162.462 105.137 162.449 104.601 162.459 103.957C162.128 103.63 162.172 102.84 161.4 102.636C161.207 102.584 160.934 102.115 160.994 101.936C161.442 100.578 160.392 99.9539 159.594 99.101C157.792 98.3711 156.243 98.9283 154.969 100.46C154.794 100.657 154.646 100.877 154.53 101.114C154.117 102.043 153.872 103.087 153.292 103.891C152.654 104.776 152.427 105.744 152.137 106.726C151.859 107.669 151.829 108.86 151.22 109.484C150.542 110.177 150.998 111.391 149.926 111.732C150.432 112.557 149.247 112.92 149.402 113.649C148.629 114.177 148.717 115.115 148.345 115.823C148 116.479 147.717 117.175 147.36 117.799C146.215 119.855 145.217 121.99 144.374 124.187C143.255 124.936 143.707 126.506 142.669 127.355C141.777 128.084 141.572 129.325 141.06 130.312C140.479 131.431 139.944 132.626 139.416 133.796C138.924 134.889 138.308 135.929 137.787 137.02C137.019 138.629 135.854 140.045 135.255 141.763C134.188 142.268 134.628 143.63 133.729 144.333C132.975 144.923 132.588 145.99 132.204 146.847C131.269 148.938 129.688 150.584 128.657 152.586C128.413 153.061 128.162 153.531 127.874 154.079C128.357 154.291 128.721 154.45 129.293 154.701L127.953 155.928Z" fill="#F97C60"/>
<path d="M113.74 115.22C113.883 115.137 114.006 115.066 114.129 114.996L113.028 113.774C113.433 113.742 113.694 113.722 114.111 113.688C114.198 113.065 114.554 112.283 114.323 111.764C113.947 110.921 114.872 110.683 114.82 110.025C114.772 109.428 115.24 108.703 115.036 108.224C114.704 107.442 115.161 106.866 115.169 106.201C115.141 105.529 115.074 104.858 114.969 104.193L115.71 103.027L114.522 101.917C115.259 101.887 115.502 101.878 115.897 101.862C115.317 99.6824 116.538 97.5821 116.092 95.4366C115.889 95.3307 115.714 95.2389 115.25 94.9966C115.784 94.96 116.011 94.9446 116.274 94.9266L116.28 93.2937C115.968 93.1724 115.653 93.0497 115.192 92.8704L115.686 92.4692L115.488 91.5081L116.441 91.358C116.24 90.8116 116.038 90.2646 115.799 89.6169C115.613 89.5436 115.298 89.4216 114.89 89.2624L116.004 88.0093C115.151 87.0068 115.061 85.4024 113.778 84.5626L113.151 84.8858C112.863 84.3863 113.021 84.2345 114.02 84.0531C114.071 83.9246 114.114 83.7926 114.146 83.6581C114.157 83.6021 114.101 83.5336 114.015 83.3221C113.686 83.3719 113.319 83.4271 112.915 83.4878L111.787 82.6624L111.905 84.0219C111.448 83.7657 111.107 83.5754 110.532 83.2532L110.842 85.1397L111.391 84.8929L111.669 86.2002L110.283 85.8291L109.28 86.9451L109.723 90.2654C109.424 90.6717 109.182 92.4725 109.329 93.3573L108.744 93.7338L109.027 95.2628L109.565 94.9985C109.608 95.1078 109.73 95.2733 109.689 95.3367C109.235 96.0563 108.437 96.635 109.008 97.7042C109.113 97.9021 108.693 98.3844 108.509 98.7325C107.669 100.324 107.494 101.945 108.228 103.608C108.055 103.904 107.786 104.208 107.7 104.557C107.598 104.968 107.796 105.719 107.621 105.8C106.718 106.218 107.531 106.78 107.414 107.241C107.273 107.694 107.236 108.173 107.304 108.643C107.454 109.542 107.278 110.511 107.151 111.439C106.722 114.549 106.572 117.692 106.702 120.83C106.804 123.266 106.771 125.712 107.131 128.124C107.374 129.749 107.537 131.488 108.262 132.907C108.916 134.19 109.412 135.634 110.524 136.795C110.732 136.73 110.985 136.651 111.275 136.558L111.588 137.021L113.447 135.877C113.425 135.196 113.335 134.469 112.527 133.857C113.068 133.919 113.461 133.963 113.885 134.012L114.042 133.425C113.801 133.249 113.588 133.096 113.372 132.939L114.008 132.356L113.713 131.622L114.898 130.877C114.416 130.212 113.958 129.716 113.664 129.136C113.379 128.573 114.026 127.73 113.039 127.235C112.887 127.283 112.636 127.364 112.246 127.49L112.543 126.099L113.123 126.98C113.236 126.451 113.449 126.045 113.369 125.71C113.208 124.93 113.14 124.135 113.167 123.339C113.179 122.599 113.251 121.861 113.382 121.133C113.485 120.478 113.407 119.795 113.505 119.139C113.608 118.446 113.914 117.775 113.964 117.083C114.008 116.47 113.823 115.837 113.74 115.22Z" fill="#F97C60"/>
<path d="M65.8591 88.6117L64.1278 88.1484C63.1988 88.6524 62.6221 89.368 62.415 90.625C62.5747 90.79 62.87 91.0945 63.2183 91.4537C62.0163 92.5901 63.6954 93.5948 63.1206 94.5873C63.7277 96.3945 64.8382 97.9187 65.3043 99.7302C65.4095 99.9944 65.5494 100.243 65.7204 100.47C66.7043 102.2 67.53 104.015 68.1873 105.893C68.6937 107.179 69.293 108.426 69.9803 109.625C70.7254 110.926 71.2955 112.32 71.6759 113.77C71.7808 114.034 71.9201 114.283 72.0903 114.511C72.6456 115.496 73.3298 116.433 73.712 117.481C74.0204 118.325 74.5417 119.027 74.9304 119.806C75.601 121.151 76.5296 122.368 77.3628 123.631C78.2015 124.903 79.0107 126.198 79.9245 127.414C80.3049 127.921 80.9233 128.25 81.4541 128.677L83.6366 127.217C84.1222 126.723 83.1063 126.137 83.0383 125.382L83.6246 124.932L83.788 122.1C82.5363 119.325 81.2659 116.146 79.7112 113.077C78.9507 111.58 78.3444 110.009 77.9017 108.388C77.5852 107.217 76.8263 106.165 76.3002 105.04C74.9069 102.059 73.4629 99.052 71.608 96.3512C69.8671 93.8154 68.5787 90.9376 65.8591 88.6117Z" fill="#F97C60"/>
<path d="M155.224 210.212L153.721 210.204L152.871 211.495L152.271 210.948L150.568 211.892L150.367 213.146L149.484 212.638L148.464 214.722L149.101 214.942L149.096 215.918C150.22 216.309 151.068 217.29 152.345 216.964C152.415 217.829 153.204 218.118 153.705 218.233C154.894 218.504 155.887 219.448 157.007 219.476C158.314 219.509 159.301 220.232 160.437 220.564C161.8 220.961 163.204 221.387 164.554 221.916C165.872 222.433 167.257 223.107 168.773 223.067C171.161 224.47 173.944 224.645 176.521 225.45C178.528 226.078 180.552 226.856 182.718 227.027C183.471 227.086 184.186 227.872 184.979 226.724C185.544 227.774 186.213 228.355 187.337 228.324C188.146 228.328 188.948 228.472 189.709 228.749C191.689 229.415 193.755 229.636 195.781 230.065C197.64 230.458 199.555 230.601 201.376 231.015C203.832 231.573 206.252 231.207 208.678 231.375C209.106 231.405 209.547 231.06 209.997 230.997C210.484 230.929 211.117 231.174 211.454 230.943C211.891 230.644 212.212 230.918 212.567 230.85C213.092 230.749 213.608 230.602 214.234 230.448C214.466 230.045 215.242 229.888 215.244 229.09C215.245 228.889 215.63 228.507 215.819 228.519C217.246 228.61 217.584 227.436 218.207 226.448C218.457 224.52 217.526 223.162 215.722 222.317C215.487 222.198 215.237 222.11 214.978 222.058C213.975 221.894 212.903 221.92 211.978 221.563C210.96 221.17 209.966 221.194 208.943 221.162C207.961 221.132 206.801 221.404 206.044 220.973C205.202 220.492 204.142 221.241 203.541 220.289C202.871 220.988 202.22 219.933 201.554 220.268C200.848 219.654 199.963 219.976 199.183 219.795C198.461 219.628 197.716 219.529 197.022 219.342C194.743 218.755 192.426 218.329 190.087 218.07C189.078 217.176 187.675 218.011 186.59 217.221C185.66 216.543 184.406 216.659 183.323 216.412C182.093 216.133 180.802 215.918 179.536 215.704C178.354 215.504 177.192 215.171 176.004 214.943C174.254 214.607 172.589 213.838 170.775 213.693C170.017 212.789 168.81 213.559 167.903 212.867C167.142 212.287 166.011 212.182 165.085 212.028C162.825 211.653 160.832 210.539 158.635 210.048C158.114 209.932 157.596 209.808 156.993 209.668C156.91 210.189 156.848 210.581 156.749 211.198L155.224 210.212Z" fill="#F97C60"/>
<path d="M191.012 186.164C191.128 186.281 191.228 186.382 191.327 186.483L192.231 185.108C192.365 185.493 192.45 185.74 192.588 186.134C193.213 186.061 194.059 186.208 194.503 185.853C195.224 185.276 195.688 186.111 196.312 185.894C196.877 185.696 197.696 185.966 198.109 185.647C198.781 185.129 199.454 185.425 200.099 185.264C200.743 185.067 201.374 184.833 201.991 184.562L203.307 184.984L204.081 183.554C204.295 184.26 204.366 184.492 204.481 184.871C206.443 183.758 208.784 184.409 210.747 183.434C210.798 183.211 210.842 183.018 210.96 182.508C211.13 183.015 211.202 183.231 211.287 183.481L212.868 183.074C212.906 182.741 212.945 182.405 213.002 181.914L213.515 182.29L214.395 181.856L214.781 182.74C215.259 182.407 215.737 182.073 216.303 181.678C216.327 181.48 216.365 181.144 216.416 180.709L217.91 181.47C218.664 180.391 220.194 179.898 220.682 178.444L220.211 177.92C220.621 177.514 220.808 177.629 221.236 178.549C221.373 178.567 221.512 178.574 221.65 178.572C221.707 178.568 221.759 178.497 221.942 178.36C221.81 178.054 221.664 177.713 221.503 177.337L222.017 176.038L220.731 176.496C220.863 175.988 220.961 175.611 221.127 174.972L219.381 175.75L219.758 176.218L218.564 176.818L218.572 175.383L217.239 174.696L214.139 175.964C213.67 175.777 211.867 175.999 211.048 176.365L210.535 175.894L209.128 176.555L209.52 177.009C209.425 177.078 209.295 177.237 209.224 177.214C208.413 176.957 207.651 176.332 206.761 177.154C206.596 177.306 206.023 177.021 205.64 176.931C203.887 176.521 202.275 176.762 200.852 177.893C200.522 177.801 200.16 177.617 199.8 177.622C199.377 177.628 198.7 178.009 198.578 177.86C197.944 177.092 197.606 178.022 197.131 178.025C196.657 178.003 196.184 178.088 195.747 178.273C194.915 178.646 193.933 178.72 193.004 178.832C189.885 179.204 186.807 179.854 183.804 180.774C181.473 181.488 179.099 182.075 176.856 183.034C175.346 183.68 173.704 184.277 172.514 185.337C171.439 186.295 170.167 187.141 169.325 188.51C169.441 188.695 169.582 188.919 169.744 189.177L169.376 189.596L170.953 191.106C171.606 190.912 172.287 190.641 172.674 189.705C172.752 190.243 172.808 190.635 172.868 191.058L173.476 191.061C173.584 190.783 173.679 190.539 173.776 190.289L174.502 190.757L175.137 190.287L176.158 191.245C176.679 190.61 177.043 190.041 177.529 189.61C178.002 189.192 178.981 189.604 179.211 188.524C179.125 188.39 178.984 188.168 178.763 187.822L180.184 187.757L179.479 188.541C180.018 188.517 180.465 188.62 180.77 188.458C181.483 188.105 182.236 187.838 183.012 187.663C183.731 187.487 184.463 187.37 185.201 187.313C185.861 187.247 186.501 186.999 187.161 186.927C187.858 186.851 188.584 186.978 189.266 186.851C189.871 186.739 190.436 186.4 191.012 186.164Z" fill="#F97C60"/>
<path d="M204.642 133.109L204.652 131.316C203.929 130.545 203.091 130.168 201.823 130.286C201.704 130.482 201.484 130.845 201.224 131.273C199.821 130.397 199.274 132.276 198.168 131.971C196.573 133.015 195.379 134.475 193.745 135.385C193.516 135.553 193.31 135.751 193.134 135.974C191.71 137.364 190.162 138.622 188.512 139.733C187.396 140.548 186.34 141.443 185.354 142.412C184.284 143.462 183.08 144.366 181.773 145.101C181.544 145.269 181.339 145.467 181.162 145.689C180.349 146.475 179.615 147.374 178.698 148.009C177.96 148.521 177.413 149.203 176.758 149.776C175.626 150.765 174.683 151.972 173.672 153.097C172.654 154.23 171.606 155.341 170.66 156.532C170.266 157.029 170.104 157.711 169.825 158.332L171.789 160.074C172.391 160.419 172.7 159.288 173.414 159.031L173.997 159.484L176.779 158.926C179.147 157.013 181.9 154.98 184.476 152.699C185.733 151.585 187.1 150.601 188.555 149.762C189.608 149.16 190.434 148.16 191.389 147.366C193.921 145.264 196.465 143.106 198.608 140.628C200.621 138.303 203.08 136.328 204.642 133.109Z" fill="#F97C60"/>
<path d="M64.9842 29.7395L63.2529 29.2762C62.3238 29.7802 61.7471 30.4958 61.54 31.7528C61.6998 31.9177 61.9951 32.2222 62.3433 32.5814C61.1413 33.7179 62.8204 34.7225 62.2456 35.715C62.8527 37.5223 63.9632 39.0464 64.4293 40.858C64.5345 41.1221 64.6744 41.371 64.8455 41.5981C65.8293 43.3277 66.655 45.1426 67.3123 47.0207C67.8187 48.3067 68.418 49.5541 69.1053 50.7531C69.8504 52.0542 70.4205 53.4479 70.8009 54.8982C70.9058 55.1622 71.0451 55.4111 71.2153 55.6385C71.7706 56.6232 72.4548 57.5609 72.837 58.6086C73.1454 59.4524 73.6667 60.1547 74.0554 60.9332C74.7261 62.2785 75.6547 63.4961 76.4878 64.7591C77.3265 66.0306 78.1357 67.3254 79.0495 68.5414C79.43 69.0484 80.0484 69.3781 80.5791 69.8049L82.7617 68.3451C83.2473 67.8507 82.2313 67.2647 82.1633 66.5096L82.7496 66.0598L82.913 63.2277C81.6613 60.4529 80.3909 57.2742 78.8363 54.2052C78.0757 52.7075 77.4694 51.1363 77.0267 49.5159C76.7103 48.3452 75.9513 47.2931 75.4252 46.1679C74.0319 43.1869 72.5879 40.1797 70.733 37.479C68.9921 34.9432 67.7037 32.0654 64.9842 29.7395Z" fill="#F97C60"/>
<path d="M261.374 117.367L261.385 115.575C260.662 114.804 259.824 114.427 258.555 114.545C258.436 114.741 258.216 115.104 257.957 115.531C256.553 114.656 256.006 116.535 254.901 116.23C253.306 117.274 252.112 118.734 250.477 119.643C250.248 119.812 250.043 120.01 249.866 120.233C248.442 121.623 246.895 122.881 245.244 123.992C244.128 124.807 243.073 125.702 242.087 126.671C241.017 127.721 239.812 128.625 238.506 129.36C238.277 129.528 238.071 129.726 237.894 129.948C237.082 130.734 236.348 131.633 235.431 132.268C234.693 132.78 234.145 133.462 233.49 134.035C232.358 135.024 231.415 136.231 230.404 137.356C229.386 138.489 228.338 139.6 227.393 140.791C226.999 141.288 226.836 141.969 226.557 142.591L228.522 144.333C229.123 144.678 229.433 143.547 230.146 143.29L230.73 143.743L233.511 143.185C235.879 141.272 238.633 139.239 241.209 136.958C242.465 135.844 243.832 134.859 245.288 134.021C246.34 133.419 247.166 132.419 248.122 131.625C250.653 129.523 253.197 127.365 255.341 124.887C257.354 122.561 259.812 120.587 261.374 117.367Z" fill="#F97C60"/>
<path d="M157.986 30.0486L156.6 27.8065C155.097 27.4092 153.758 27.5938 152.268 28.7307C152.273 29.0685 152.282 29.6923 152.293 30.4281C149.86 30.4326 150.644 33.2017 149.028 33.6846C147.855 36.2318 147.507 38.9836 146.179 41.3933C146.026 41.7821 145.924 42.1897 145.878 42.6054C145.188 45.4494 144.241 48.2253 143.051 50.899C142.296 52.7866 141.68 54.7265 141.207 56.7035C140.692 58.8479 139.897 60.9151 138.842 62.8514C138.688 63.2398 138.586 63.6469 138.539 64.062C138.14 65.6763 137.927 67.3703 137.28 68.8774C136.759 70.0919 136.609 71.3696 136.24 72.5952C135.601 74.7118 135.367 76.952 134.986 79.1445C134.601 81.3516 134.162 83.554 133.914 85.7775C133.81 86.704 134.14 87.6807 134.277 88.6729L138.086 89.311C139.105 89.2715 138.608 87.6194 139.297 86.7424L140.378 86.8521L143.409 83.9846C144.868 79.7514 146.713 75.0668 148.144 70.2132C148.84 67.8425 149.775 65.5488 150.935 63.3675C151.777 61.795 152.026 59.9031 152.597 58.1678C154.112 53.571 155.599 48.895 156.336 44.1327C157.03 39.662 158.552 35.2815 157.986 30.0486Z" fill="#F97C60"/>
<path d="M284.605 207.426L286.423 205.518C286.427 203.963 285.91 202.714 284.433 201.561C284.108 201.651 283.507 201.817 282.797 202.014C282.177 199.661 279.697 201.121 278.821 199.679C276.06 199.189 273.309 199.548 270.642 198.873C270.227 198.823 269.807 198.828 269.393 198.889C266.467 198.94 263.542 198.726 260.654 198.251C258.637 197.999 256.604 197.893 254.572 197.935C252.367 197.98 250.166 197.734 248.026 197.203C247.611 197.152 247.192 197.156 246.778 197.216C245.115 197.239 243.423 197.461 241.801 197.216C240.494 197.019 239.22 197.197 237.941 197.15C235.731 197.068 233.505 197.409 231.287 197.594C229.055 197.78 226.813 197.912 224.599 198.235C223.676 198.369 222.815 198.935 221.89 199.319L222.236 203.166C222.532 204.141 224.004 203.243 225.027 203.687L225.195 204.761L228.736 206.968C233.2 207.308 238.199 207.908 243.257 208.064C245.726 208.138 248.182 208.463 250.586 209.034C252.32 209.45 254.214 209.212 256.037 209.326C260.867 209.628 265.767 209.884 270.561 209.393C275.062 208.932 279.685 209.298 284.605 207.426Z" fill="#F97C60"/>
<path d="M219.954 79.3793L219.61 76.7658C218.402 75.7869 217.105 75.4058 215.28 75.8315C215.146 76.1414 214.898 76.7141 214.606 77.3894C212.385 76.3954 211.965 79.2425 210.293 79.0198C208.178 80.8616 206.732 83.2284 204.532 84.881C204.232 85.1725 203.973 85.5028 203.76 85.863C201.964 88.1732 199.962 90.3164 197.779 92.2664C196.317 93.6782 194.958 95.1944 193.716 96.8031C192.367 98.5477 190.794 100.107 189.037 101.44C188.737 101.731 188.477 102.06 188.264 102.419C187.238 103.728 186.349 105.185 185.14 106.294C184.167 107.188 183.506 108.292 182.666 109.258C181.215 110.926 180.083 112.873 178.836 114.716C177.58 116.571 176.275 118.399 175.137 120.326C174.662 121.128 174.562 122.154 174.28 123.115L177.492 125.26C178.437 125.642 178.662 123.931 179.65 123.414L180.591 123.958L184.532 122.586C187.598 119.324 191.203 115.809 194.499 111.97C196.107 110.093 197.901 108.385 199.854 106.872C201.267 105.783 202.27 104.16 203.503 102.812C206.77 99.2412 210.044 95.5868 212.671 91.5465C215.137 87.7538 218.324 84.3838 219.954 79.3793Z" fill="#F97C60"/>
<path d="M252.555 279.854L254.996 278.859C255.638 277.443 255.678 276.092 254.805 274.434C254.471 274.383 253.854 274.288 253.127 274.176C253.527 271.776 250.666 272.09 250.458 270.416C248.142 268.836 245.486 268.035 243.33 266.325C242.973 266.109 242.587 265.941 242.185 265.827C239.496 264.673 236.916 263.278 234.477 261.66C232.741 260.602 230.931 259.672 229.06 258.877C227.031 258.013 225.125 256.885 223.391 255.523C223.033 255.306 222.649 255.138 222.247 255.023C220.722 254.361 219.087 253.87 217.708 252.981C216.597 252.265 215.362 251.905 214.215 251.337C212.234 250.356 210.064 249.753 207.965 249.012C205.853 248.266 203.754 247.467 201.602 246.853C200.706 246.596 199.688 246.759 198.687 246.73L197.425 250.38C197.294 251.391 199.006 251.175 199.756 252L199.468 253.048L201.792 256.514C205.724 258.656 210.037 261.254 214.585 263.472C216.807 264.552 218.913 265.856 220.871 267.362C222.282 268.454 224.106 269.013 225.723 269.865C230.004 272.123 234.367 274.366 238.941 275.885C243.234 277.312 247.3 279.542 252.555 279.854Z" fill="#F97C60"/>
</svg>
