<svg width="31" height="35" viewBox="0 0 31 35" fill="none" xmlns="http://www.w3.org/2000/svg">
<path d="M16.0597 17.6554C16.0597 13.8929 14.2334 9.90651 12.0853 6.93385C10.6396 4.93308 8.46329 3.53131 6.04168 3.25204C4.07455 3.02519 2.89561 3.02823 1.70602 4.61567C0.507552 6.21495 0.985801 7.58109 2.01805 9.06453C4.39443 12.4796 6.52848 16.5287 9.32628 19.5645C11.9833 22.4475 14.5865 25.2167 17.0779 28.2918C17.7569 29.1298 22.4538 36.3209 23.5157 33.2349C24.0213 31.7656 24.2223 30.2989 24.5011 28.769C25.1847 25.0187 26.1568 21.2615 27.2602 17.6213C28.4278 13.7692 29.9536 9.91354 29.9536 5.84294C29.9536 5.03074 30.2808 2.65265 29.1981 2.33159C27.8122 1.92059 26.3195 2.00772 24.7803 2.00772C21.306 2.00772 19.9622 5.27892 18.6545 8.14408C17.8872 9.82532 17.4304 11.6537 16.8809 13.4282C16.4288 14.8878 16.6759 16.6832 16.0597 17.9622" stroke="white" stroke-width="2" stroke-linecap="round"/>
</svg>
