<svg width="20" height="18" viewBox="0 0 20 18" fill="none" xmlns="http://www.w3.org/2000/svg">
<g clip-path="url(#clip0_617_323)">
<path d="M10.9808 0.632812C10.7971 0.246094 10.409 0 9.98279 0C9.55656 0 9.17191 0.246094 8.98479 0.632812L6.75661 5.28398L1.78045 6.0293C1.36462 6.09258 1.01809 6.38789 0.889873 6.79219C0.761657 7.19648 0.865616 7.64297 1.16363 7.9418L4.77446 11.5664L3.922 16.6887C3.85269 17.1105 4.02596 17.5395 4.36902 17.7891C4.71209 18.0387 5.16604 18.0703 5.54029 17.8699L9.98626 15.4617L14.4322 17.8699C14.8065 18.0703 15.2604 18.0422 15.6035 17.7891C15.9466 17.5359 16.1198 17.1105 16.0505 16.6887L15.1946 11.5664L18.8054 7.9418C19.1034 7.64297 19.2109 7.19648 19.0792 6.79219C18.9475 6.38789 18.6044 6.09258 18.1886 6.0293L13.209 5.28398L10.9808 0.632812Z" fill="#383838"/>
</g>
<defs>
<clipPath id="clip0_617_323">
<rect width="19.9601" height="18" fill="white"/>
</clipPath>
</defs>
</svg>
