<svg width="14" height="18" viewBox="0 0 14 18" fill="none" xmlns="http://www.w3.org/2000/svg">
<g clip-path="url(#clip0_617_322)">
<path d="M1.16667 0C0.521354 0 0 0.502734 0 1.125C0 1.74727 0.521354 2.25 1.16667 2.25V2.63672C1.16667 4.12734 1.78281 5.5582 2.87656 6.61289L5.34844 9L2.87656 11.3871C1.78281 12.4418 1.16667 13.8727 1.16667 15.3633V15.75C0.521354 15.75 0 16.2527 0 16.875C0 17.4973 0.521354 18 1.16667 18H2.33333H11.6667H12.8333C13.4786 18 14 17.4973 14 16.875C14 16.2527 13.4786 15.75 12.8333 15.75V15.3633C12.8333 13.8727 12.2172 12.4418 11.1234 11.3871L8.65156 9L11.1271 6.61289C12.2208 5.5582 12.837 4.12734 12.837 2.63672V2.25C13.4823 2.25 14.0036 1.74727 14.0036 1.125C14.0036 0.502734 13.4823 0 12.837 0H11.6667H2.33333H1.16667ZM3.5 2.63672V2.25H10.5V2.63672C10.5 3.5332 10.1318 4.39102 9.47552 5.02383L7 7.40742L4.52448 5.02031C3.86823 4.39102 3.5 3.52969 3.5 2.63672Z" fill="#383838"/>
</g>
<defs>
<clipPath id="clip0_617_322">
<rect width="14" height="18" fill="white"/>
</clipPath>
</defs>
</svg>
