<svg width="239" height="159" viewBox="0 0 239 159" fill="none" xmlns="http://www.w3.org/2000/svg">
<g clip-path="url(#clip0_863_4868)">
<path d="M183.914 18.6842C188.171 17.7088 190.524 28.1706 191.875 28.0275C193.264 27.8792 195.564 25.0708 198.953 20.2353C202.947 14.5387 205.634 8.2897 208.964 10.2528C211.613 11.8119 209.211 16.6849 207.019 21.1735C205.441 24.4048 204.974 26.7404 205.2 27.6249C206.547 27.7103 208.779 26.1565 212.085 23.3816C216.591 19.6008 221.556 15.337 224.003 17.6453C227.233 20.6912 221.132 25.4247 216.111 29.3862C212.764 32.028 211.119 33.8371 211.527 34.5839C211.89 35.1497 214.273 35.066 217.951 34.0424C222.545 32.7658 227.552 31.2387 228.482 33.3699C229.916 36.6712 223.152 39.0337 217.816 40.9265C214.37 42.1476 212.491 43.2212 212.477 43.6266C212.638 44.167 214.289 44.7186 216.935 44.9389C220.267 45.2166 223.917 45.4374 224.046 47.415C224.233 50.2969 217.614 51.0889 209.753 52.1735C205.129 52.8113 193.733 55.1802 192.686 55.205C191.394 55.2346 189.747 53.5232 189.219 51.2279C188.248 47.0151 185.504 46.4659 184.404 44.8817C183.048 42.9237 182.769 41.4068 182.884 41.0194C183.955 31.2884 179.345 19.7326 183.914 18.6842Z" fill="#8CE5B5"/>
</g>
<g clip-path="url(#clip1_863_4868)">
<path d="M35.3051 117.873C37.3161 113.987 26.5623 108.918 27.0434 107.642C27.5391 106.329 32.1884 104.973 37.6619 102.887C44.1037 100.43 50.7429 99.3759 49.7203 95.6564C48.9068 92.6993 43.6582 93.8125 38.8252 94.8212C35.3463 95.5477 31.9644 96.087 31.1748 95.6445C31.4376 94.3147 34.5237 91.8718 38.014 89.3528C42.7643 85.9204 48.0891 82.1626 46.5155 79.2089C44.4378 75.3121 38.3732 80.0586 33.3231 83.9439C29.9539 86.5343 26.8964 88.5859 26.2911 88.0021C25.8468 87.5066 27.4465 84.3104 29.3587 80.9946C31.7455 76.8536 34.4779 72.3736 32.6824 70.9415C29.9047 68.7254 25.9305 74.7033 22.7685 79.4132C20.7236 82.4525 18.8393 84.7595 18.4497 84.6751C17.9753 84.3837 18.258 81.891 18.7234 79.2678C19.3093 75.9655 20.028 72.3739 18.1777 71.7526C15.4809 70.8506 13.0399 77.0812 10.0032 84.442C8.21646 88.7727 3.05328 99.2476 2.76765 100.254C2.41301 101.504 3.61335 103.527 5.67056 104.611C9.44386 106.602 9.25574 109.408 10.4857 110.87C12.0041 112.675 13.379 113.326 13.7702 113.308C23.3133 114.693 33.1409 122.051 35.3051 117.873Z" fill="#8CE5B5"/>
</g>
<g clip-path="url(#clip2_863_4868)">
<path d="M65.2775 53.4288C66.5277 51.0127 59.8425 47.8618 60.1416 47.0683C60.4497 46.2523 63.34 45.409 66.7426 44.1125C70.7472 42.585 74.8746 41.9297 74.2389 39.6174C73.7332 37.7791 70.4703 38.4711 67.4659 39.0982C65.3032 39.5499 63.2007 39.8851 62.7099 39.6101C62.8733 38.7833 64.7917 37.2647 66.9616 35.6987C69.9146 33.5649 73.2248 31.2289 72.2466 29.3927C70.955 26.9702 67.1848 29.9209 64.0454 32.3363C61.9509 33.9466 60.0502 35.222 59.6739 34.8591C59.3977 34.551 60.3921 32.564 61.5809 30.5028C63.0647 27.9285 64.7633 25.1435 63.6471 24.2531C61.9203 22.8755 59.4497 26.5917 57.484 29.5197C56.2128 31.4091 55.0414 32.8432 54.7992 32.7908C54.5043 32.6096 54.68 31.06 54.9694 29.4293C55.3335 27.3764 55.7804 25.1436 54.6301 24.7574C52.9536 24.1966 51.4361 28.07 49.5483 32.6459C48.4376 35.3381 45.2279 41.8499 45.0503 42.4755C44.8298 43.2526 45.576 44.5102 46.8549 45.1844C49.2006 46.4221 49.0837 48.1661 49.8483 49.0753C50.7922 50.1972 51.6469 50.6017 51.8902 50.5905C57.8227 51.4516 63.9321 56.0261 65.2775 53.4288Z" fill="#8CE5B5"/>
</g>
<g clip-path="url(#clip3_863_4868)">
<path d="M201.737 136.033C202.841 131.798 191.233 129.23 191.42 127.878C191.614 126.489 195.849 124.139 200.727 120.896C206.467 117.077 212.71 114.583 210.891 111.181C209.445 108.477 204.571 110.721 200.08 112.772C196.848 114.249 193.668 115.522 192.801 115.265C192.763 113.91 195.234 110.846 198.082 107.618C201.957 103.222 206.32 98.3808 204.133 95.8475C201.246 92.5057 196.38 98.4742 192.312 103.379C189.598 106.649 187.069 109.325 186.35 108.89C185.807 108.504 186.661 105.034 187.794 101.378C189.208 96.8118 190.884 91.8391 188.816 90.8387C185.618 89.2907 183.061 95.9986 181.018 101.29C179.694 104.706 178.366 107.372 177.967 107.376C177.44 107.197 177.166 104.703 177.04 102.042C176.882 98.6918 176.79 95.0301 174.849 94.8328C172.019 94.5485 171.014 101.164 169.678 109.014C168.892 113.632 166.169 124.989 166.113 126.033C166.043 127.331 167.66 129.039 169.906 129.642C174.026 130.751 174.462 133.529 175.984 134.683C177.864 136.108 179.348 136.439 179.726 136.335C189.339 135.579 200.549 140.586 201.737 136.033Z" fill="#8CE5B5"/>
</g>
<g clip-path="url(#clip4_863_4868)">
<path d="M75.7518 146.384C74.4902 144.419 74.181 139.775 75.5325 138.611C76.8841 137.446 77.6448 135.471 78.5646 133.217C79.4843 130.962 81.0881 131.6 83.0086 132.954C84.929 134.308 87.9938 132.834 89.5083 133.921C91.0229 135.009 90.3992 135.468 92.0773 137.626C93.7555 139.783 93.4136 141.455 91.4154 142.376C89.4172 143.297 89.5056 144.174 90.5766 146.002C91.6475 147.829 93.6457 145.577 95.0226 144.969C96.3995 144.361 99.2053 145.303 98.6916 147.047C98.1779 148.791 94.7005 149.028 93.3908 148.627C92.0811 148.225 91.1188 149.022 89.9998 149.598C88.8809 150.174 85.4366 150.325 84.3741 150.881C83.3115 151.436 80.7861 151.504 78.7826 148.219C77.9898 146.915 77.0125 148.348 75.7518 146.384Z" fill="#8CE5B5"/>
<path d="M94.2239 139.103C94.9646 139.818 98.8808 136.915 100.973 135.232C103.065 133.549 102.778 131.844 101.611 131.945C100.444 132.047 98.9917 134.23 97.7981 134.416C96.6044 134.602 91.5841 136.559 94.2239 139.103Z" fill="#8CE5B5"/>
<path d="M91.0721 134.443C91.7948 135.232 93.7139 133.622 94.9437 132.16C96.1736 130.698 96.78 129.339 97.9042 129.111C99.0285 128.883 100.555 126.74 99.7118 125.598C98.8688 124.456 97.1093 124.933 96 127.047C94.8907 129.161 94.289 130.18 92.85 130.631C91.4111 131.083 89.7475 132.994 91.0721 134.443Z" fill="#8CE5B5"/>
<path d="M88.1926 132.484C90.0162 131.183 89.6923 129.999 90.1868 128.542C90.6813 127.086 91.1438 126.555 92.3459 126.016C93.548 125.478 94.3619 123.132 93.1453 122.125C91.9287 121.119 90.3778 122.782 89.8811 125.083C89.3843 127.383 87.7842 128.441 86.5954 129.524C85.4067 130.606 85.5686 134.356 88.1926 132.484Z" fill="#8CE5B5"/>
<path d="M82.4254 131.569C84.608 130.483 84.2606 123.699 82.5844 122.386C80.9082 121.073 80.8492 123.443 80.6515 126.312C80.4539 129.182 81.1316 132.215 82.4254 131.569Z" fill="#8CE5B5"/>
</g>
<g clip-path="url(#clip5_863_4868)">
<path d="M99.8121 72.4875C97.7574 69.2872 97.2538 61.724 99.455 59.8268C101.656 57.9297 102.895 54.7137 104.393 51.0421C105.891 47.3706 108.503 48.4096 111.631 50.6144C114.758 52.8192 119.75 50.4188 122.216 52.1897C124.683 53.9607 123.667 54.7087 126.4 58.2227C129.133 61.7367 128.576 64.4595 125.322 65.959C122.068 67.4585 122.212 68.887 123.956 71.8639C125.7 74.8407 128.954 71.1721 131.197 70.182C133.439 69.1918 138.009 70.7254 137.172 73.5662C136.336 76.4071 130.672 76.7927 128.539 76.1391C126.406 75.4855 124.839 76.7824 123.017 77.7209C121.194 78.6595 115.585 78.905 113.854 79.8098C112.124 80.7146 108.011 80.8246 104.748 75.4749C103.457 73.3512 101.865 75.686 99.8121 72.4875Z" fill="#8CE5B5"/>
<path d="M129.896 60.6298C131.102 61.7944 137.48 57.0674 140.887 54.3261C144.294 51.5849 143.827 48.8075 141.927 48.9734C140.026 49.1393 137.661 52.6939 135.717 52.9971C133.773 53.3004 125.596 56.4877 129.896 60.6298Z" fill="#8CE5B5"/>
<path d="M124.763 53.0407C125.94 54.3264 129.065 51.7048 131.068 49.3231C133.071 46.9413 134.059 44.729 135.89 44.3576C137.721 43.9862 140.207 40.4967 138.834 38.6361C137.461 36.7755 134.595 37.5524 132.789 40.9956C130.982 44.4387 130.002 46.0984 127.659 46.8334C125.315 47.5683 122.606 50.6808 124.763 53.0407Z" fill="#8CE5B5"/>
<path d="M120.074 49.8498C123.044 47.7308 122.516 45.8014 123.322 43.4297C124.127 41.0581 124.88 40.1936 126.838 39.3161C128.796 38.4386 130.121 34.6184 128.14 32.979C126.158 31.3396 123.633 34.0483 122.824 37.7953C122.015 41.5423 119.409 43.265 117.473 45.0278C115.537 46.7907 115.8 52.8974 120.074 49.8498Z" fill="#8CE5B5"/>
<path d="M110.682 48.3608C114.237 46.5909 113.671 35.5425 110.941 33.4042C108.211 31.2659 108.115 35.1256 107.793 39.7995C107.471 44.4734 108.575 49.412 110.682 48.3608Z" fill="#8CE5B5"/>
</g>
<defs>
<clipPath id="clip0_863_4868">
<rect width="46.9397" height="48.1433" fill="white" transform="translate(212.818) rotate(57.3531)"/>
</clipPath>
<clipPath id="clip1_863_4868">
<rect width="46.9397" height="44.5325" fill="white" transform="translate(55.1641 76.7695) rotate(105)"/>
</clipPath>
<clipPath id="clip2_863_4868">
<rect width="29.1805" height="27.6841" fill="white" transform="translate(77.623 27.877) rotate(105)"/>
</clipPath>
<clipPath id="clip3_863_4868">
<rect width="46.9397" height="44.5325" fill="white" transform="translate(212.029 91.5586) rotate(92.2429)"/>
</clipPath>
<clipPath id="clip4_863_4868">
<rect width="30.2999" height="31.7779" fill="white" transform="translate(89.8125 114.592) rotate(47.9986)"/>
</clipPath>
<clipPath id="clip5_863_4868">
<rect width="49.3468" height="51.754" fill="white" transform="translate(122.711 20.7109) rotate(47.9986)"/>
</clipPath>
</defs>
</svg>
