<svg width="1440" height="101" viewBox="0 0 1440 101" fill="none" xmlns="http://www.w3.org/2000/svg">
<mask id="mask0_1228_7847" style="mask-type:alpha" maskUnits="userSpaceOnUse" x="0" y="0" width="1440" height="101">
<rect width="1440" height="101" fill="#D9D9D9"/>
</mask>
<g mask="url(#mask0_1228_7847)">
<path d="M1437.52 4.44739C1438.46 4.53918 1439.28 4.6095 1440 4.64563V847H-0.000488281V70.6666C2.42004 71.1022 4.37634 70.9811 5.96155 70.319C8.55835 69.236 13.001 69.2057 15.8333 70.2506C18.8684 71.3678 24.061 70.4312 28.4667 67.9723C48.9855 56.5136 79.1932 51.9192 81.0317 59.9746C81.8958 63.7499 98.3462 65.2851 115.595 63.2012C124.186 62.1631 135.759 62.7646 145.371 64.7509C159.238 67.618 160.889 68.5505 159.377 72.6696C157.183 78.6371 166.341 80.0901 171.267 74.5551C175.671 69.6118 198.527 68.2888 208.785 72.3844C217.385 75.8169 230.66 75.3628 231.023 71.6237C231.146 70.3522 233.54 69.5377 236.341 69.8102C243.005 70.4586 254.469 64.3612 254.899 59.9395C255.084 58.0294 256.925 56.6329 258.99 56.8341C261.056 57.0343 262.869 55.926 263.02 54.3694C263.212 52.3919 267.761 52.4905 278.095 54.6897C287.29 56.6476 294.922 56.9952 298.257 55.6046C301.867 54.0988 307.624 54.5099 315.879 56.8566L328.14 60.3418L328.925 52.5393C329.592 45.9252 331.3 44.1607 340.16 40.9215C345.908 38.821 350.702 36.158 350.815 34.9999C350.927 33.8447 356.088 33.3905 362.283 33.993C370.211 34.7645 374.888 36.7205 378.068 40.5895C381.383 44.6245 385.925 46.4144 395.104 47.308C401.988 47.9779 407.73 47.3978 407.864 46.0199C407.998 44.6411 410.698 43.7653 413.865 44.0739C420.851 44.7535 426.054 40.8522 426.674 34.4657C427.522 25.7277 445.593 17.5886 448.952 24.4331C449.589 25.7299 457.272 24.6763 466.026 22.0875L481.942 17.3835L488.342 24.8384C494.304 31.7845 496.621 32.5663 522.333 36.3054L549.924 40.319L552.148 17.407C554.327 -5.04846 559.118 26.652 564.951 27.2203C573.212 28.024 578.365 22.6249 573.767 17.9824C571.855 16.0508 570.603 11.2122 570.99 7.23474L571.692 0.000610352L583.274 51.9186C591.107 53.566 598.072 55.0103 598.756 55.1274C599.439 55.2446 603.195 54.77 607.104 54.0698C611.498 53.2856 615.403 54.0053 617.338 55.9623C620.998 59.6555 627.723 58.2631 634.936 52.3209C641.533 46.8855 645.454 49.9332 642.727 58.3724C640.713 64.5998 641.095 65.0089 649.42 65.5411C654.277 65.8517 660.677 64.301 663.643 62.095C666.676 59.8401 670.736 58.9398 672.929 60.0355C675.072 61.1068 681.31 61.7064 686.791 61.3676C696.116 60.7924 696.812 60.2015 697.585 52.2467C698.229 45.6043 697.099 42.9796 692.429 40.2755C689.14 38.3713 686.607 35.0179 686.8 32.8226C686.995 30.6303 686.739 26.3443 686.231 23.2965C685.546 19.1824 686.699 17.4628 690.719 16.6014C693.695 15.9647 699.778 12.9306 704.238 9.8584C711.823 4.63489 712.442 4.58411 713.838 9.07129C717.708 21.5123 725.715 34.0346 731.015 35.9261C737.477 38.2357 738.079 40.212 733.47 44.0088C730.301 46.6201 726.867 71.0136 729.26 73.9257C730.004 74.83 734.392 74.8876 739.014 74.0526C745.362 72.9072 748.195 70.6114 750.598 64.6799C752.346 60.3607 754.672 56.9135 755.763 57.0199C756.854 57.1263 757.967 54.9576 758.235 52.1998C758.784 46.5457 760.473 46.4745 775.995 51.4636C802.808 60.0825 807.48 62.5284 807.726 68.0605C807.878 71.4432 810.059 73.9929 813.52 74.8337C817.181 75.7234 819.396 78.5251 820.02 83.0563C821.25 91.9681 826.635 47.1044 835.068 52.5652L841.946 57.0199L839.613 83.7443C840.304 83.1163 841.372 83.0623 842.956 83.2164C848.653 83.7711 864.308 68.6183 867.61 59.3519C868.867 55.8286 871.502 53.1021 873.467 53.2935C877.847 53.7192 887.786 61.1583 895.803 70.0175C900.749 75.4783 903.415 76.4949 911.034 75.8162C916.114 75.365 920.368 73.992 920.487 72.7694C920.606 71.5439 925.705 71.0272 931.82 71.6229C944.559 72.8621 945.862 71.7549 948.593 57.3861C949.69 51.607 952.702 40.257 955.287 32.1586C960.114 17.032 961.796 15.9412 973.591 20.2946C976.097 21.2194 977.435 19.74 977.837 15.5995C978.16 12.2763 979.872 9.21875 981.64 8.80664C986.141 7.75977 989.332 21.2018 986.846 30.7494C985.701 35.1536 986.007 41.9716 987.534 45.9968C989.053 50.0006 991.148 56.436 992.188 60.2972C993.228 64.1584 997.391 69.4648 1001.44 72.0848C1005.49 74.7078 1010.78 79.2614 1013.2 82.2067C1018.44 88.5815 1028.13 90.0784 1032.99 85.2631C1038.58 79.7046 1046.99 82.1401 1052.19 90.8254C1054.8 95.1964 1059.52 50.6267 1059.43 51.5769C1059.34 52.53 1062.58 57.1643 1066.64 61.8781C1075.16 71.7645 1085.12 73.2487 1085.95 64.7509C1086.23 61.9033 1089.52 57.2359 1093.27 54.3746C1097.03 51.5163 1097.71 95.3068 1098.04 91.8899C1098.48 87.3578 1100.19 85.6117 1104.35 85.4271C1109.74 85.1879 1110.12 84.1843 1110.99 67.545C1111.87 50.9263 1112.41 49.4705 1120.42 42.0635C1128.86 34.2736 1135.1 22.0328 1136.18 11.1776C1136.94 3.60748 1140.28 4.39764 1152.35 14.993L1162.52 23.9176L1172.21 20.4176C1181.83 16.9451 1181.94 16.9695 1185.9 23.3024C1188.09 26.812 1189.7 31.9467 1189.48 34.7084C1188.54 46.6729 1190.87 51.7146 1196.93 50.8044C1204.97 49.5955 1210.49 52.8091 1209.95 58.389C1209.7 60.9505 1211.63 64.4709 1214.24 66.215C1216.85 67.959 1219.05 68.7344 1219.13 67.9375C1219.21 67.1406 1223.88 69.834 1229.51 73.9198C1235.14 78.0046 1240.41 81.4117 1241.22 81.4908C1242.03 81.569 1243.16 74.7616 1243.73 66.3615C1244.58 53.8315 1245.71 50.5309 1249.98 47.9939C1256.76 43.9579 1261.83 44.5575 1261.37 49.3425C1261.01 52.9967 1265.97 53.3913 1278.61 50.7166C1282.8 49.8289 1288.16 57.6147 1287.67 63.8723C1287.23 69.4689 1296.8 70.7012 1301.31 65.6281C1304.25 62.3381 1305.83 62.7668 1316.26 69.6963C1325.04 75.5272 1329.86 77.2 1335.71 76.4558C1349.31 74.7283 1360.08 76.2498 1361.79 80.1403C1363.65 84.3853 1371.31 81.322 1388.28 69.5439C1406.73 56.7357 1410.96 50.2597 1410.96 34.7552C1410.96 21.573 1411.47 20.3883 1420.54 12.2831C1427.46 6.09967 1432.17 3.9259 1437.52 4.44739Z" fill="white"/>
</g>
</svg>
