<svg width="61" height="54" viewBox="0 0 61 54" fill="none" xmlns="http://www.w3.org/2000/svg">
<path d="M12.8253 15.2298L30.0583 7.09378H25.1895L17.8222 0.815611C17.5019 0.495326 17.0535 0.367188 16.6049 0.367188H4.49703C3.40791 0.367188 2.5752 1.20003 2.5752 2.28902V15.2298H12.8253Z" fill="#F97C60"/>
<path d="M53.1855 15.2297H58.4386V9.01558C58.4386 7.92647 57.6058 7.09375 56.5168 7.09375H49.3418L53.1855 15.2297Z" fill="#F97C60"/>
<path d="M46.9709 1.26445C46.4584 0.175334 45.1131 -0.337097 43.96 0.239465L11.416 15.6146H53.6975L46.9709 1.26445Z" fill="white"/>
<path d="M60.4876 15.4867C60.1031 15.1023 59.5907 14.9102 59.0782 14.9102H58.4376H53.1844H12.8247H2.57465H1.93408C1.42152 14.9102 0.909092 15.1023 0.524677 15.4867C0.140262 15.8711 -0.0518846 16.3836 0.0121233 16.8961L1.93395 51.7463C1.99796 52.7713 2.8308 53.5401 3.85578 53.5401H57.1562C58.1812 53.5401 59.014 52.7714 59.078 51.7463L61 16.8961C61 16.3836 60.8078 15.871 60.4876 15.4867Z" fill="#F97C60"/>
</svg>
