<svg width="1440" height="400" viewBox="0 0 1440 400" fill="none" xmlns="http://www.w3.org/2000/svg">
<mask id="mask0_1292_7847" style="mask-type:alpha" maskUnits="userSpaceOnUse" x="0" y="0" width="1440" height="400">
<rect width="1440" height="400" fill="#D9D9D9"/>
</mask>
<g mask="url(#mask0_1292_7847)">
<path d="M1429.71 12.9937C1432.91 6.54324 1436 4.51547 1440 6.28641L1440 -1154.35C1439.29 -1154.39 1438.46 -1154.46 1437.52 -1154.55C1432.17 -1155.07 1427.46 -1152.9 1420.54 -1146.72C1411.47 -1138.61 1410.97 -1137.43 1410.96 -1124.25C1410.96 -1108.74 1406.74 -1102.26 1388.28 -1089.46C1371.31 -1077.68 1363.65 -1074.62 1361.79 -1078.86C1360.09 -1082.75 1349.31 -1084.27 1335.71 -1082.54C1329.86 -1081.8 1325.04 -1083.47 1316.27 -1089.3C1305.83 -1096.23 1304.25 -1096.66 1301.32 -1093.37C1296.8 -1088.3 1287.23 -1089.53 1287.67 -1095.13C1288.17 -1101.39 1282.8 -1109.17 1278.61 -1108.28C1265.98 -1105.61 1261.01 -1106 1261.37 -1109.66C1261.83 -1114.44 1256.76 -1115.04 1249.98 -1111.01C1245.71 -1108.47 1244.59 -1105.17 1243.73 -1092.64C1243.16 -1084.24 1242.03 -1077.43 1241.22 -1077.51C1240.41 -1077.59 1235.15 -1081 1229.51 -1085.08C1223.88 -1089.17 1219.21 -1091.86 1219.13 -1091.06C1219.06 -1090.27 1216.86 -1091.04 1214.25 -1092.79C1211.64 -1094.53 1209.7 -1098.05 1209.95 -1100.61C1210.49 -1106.19 1204.98 -1109.41 1196.93 -1108.2C1190.87 -1107.29 1188.54 -1112.33 1189.49 -1124.29C1189.71 -1127.05 1188.09 -1132.19 1185.9 -1135.7C1181.94 -1142.03 1181.83 -1142.06 1172.22 -1138.58L1162.52 -1135.08L1152.36 -1144.01C1140.28 -1154.6 1136.94 -1155.39 1136.18 -1147.82C1135.11 -1136.97 1128.86 -1124.73 1120.43 -1116.94C1112.41 -1109.53 1111.87 -1108.07 1110.99 -1091.46C1110.12 -1074.82 1109.75 -1073.81 1104.36 -1073.57C1100.19 -1073.39 1098.48 -1071.64 1098.04 -1067.11C1097.71 -1063.69 1097.03 -1107.48 1093.28 -1104.63C1089.52 -1101.76 1086.23 -1097.1 1085.95 -1094.25C1085.13 -1085.75 1075.16 -1087.24 1066.65 -1097.12C1062.59 -1101.84 1059.34 -1106.47 1059.43 -1107.42C1059.53 -1108.37 1054.8 -1063.8 1052.19 -1068.18C1046.99 -1076.86 1038.59 -1079.3 1032.99 -1073.74C1028.14 -1068.92 1018.44 -1070.42 1013.2 -1076.79C1010.78 -1079.74 1005.49 -1084.29 1001.44 -1086.92C997.393 -1089.54 993.23 -1094.84 992.19 -1098.7C991.15 -1102.56 989.055 -1109 987.536 -1113C986.009 -1117.03 985.703 -1123.85 986.848 -1128.25C989.334 -1137.8 986.143 -1151.24 981.642 -1150.19C979.874 -1149.78 978.162 -1146.72 977.839 -1143.4C977.437 -1139.26 976.099 -1137.78 973.593 -1138.71C961.798 -1143.06 960.115 -1141.97 955.289 -1126.84C952.704 -1118.74 949.692 -1107.39 948.595 -1101.61C945.864 -1087.25 944.561 -1086.14 931.822 -1087.38C925.707 -1087.97 920.608 -1087.46 920.489 -1086.23C920.37 -1085.01 916.116 -1083.64 911.036 -1083.18C903.417 -1082.51 900.751 -1083.52 895.805 -1088.98C887.788 -1097.84 877.849 -1105.28 873.469 -1105.71C871.503 -1105.9 868.869 -1103.17 867.612 -1099.65C864.31 -1090.38 848.655 -1075.23 842.958 -1075.78C838.592 -1076.21 838.149 -1075.05 838.689 -1064.66L841.948 -1101.98L835.07 -1106.44C826.637 -1111.9 821.251 -1067.03 820.022 -1075.94C819.398 -1080.48 817.183 -1083.28 813.522 -1084.17C810.061 -1085.01 807.88 -1087.56 807.728 -1090.94C807.482 -1096.47 802.81 -1098.92 775.997 -1107.54C760.475 -1112.53 758.786 -1112.45 758.237 -1106.8C757.969 -1104.04 756.856 -1101.87 755.765 -1101.98C754.674 -1102.09 752.348 -1098.64 750.6 -1094.32C748.197 -1088.39 745.364 -1086.09 739.016 -1084.95C734.394 -1084.11 730.006 -1084.17 729.262 -1085.07C726.869 -1087.99 730.303 -1112.38 733.472 -1114.99C738.081 -1118.79 737.479 -1120.77 731.017 -1123.07C725.717 -1124.97 717.709 -1137.49 713.84 -1149.93C712.444 -1154.42 711.825 -1154.37 704.24 -1149.14C699.78 -1146.07 693.696 -1143.04 690.721 -1142.4C686.701 -1141.54 685.548 -1139.82 686.233 -1135.7C686.741 -1132.66 686.997 -1128.37 686.802 -1126.18C686.609 -1123.98 689.141 -1120.63 692.431 -1118.73C697.101 -1116.02 698.231 -1113.4 697.587 -1106.75C696.814 -1098.8 696.118 -1098.21 686.793 -1097.63C681.312 -1097.29 675.074 -1097.89 672.931 -1098.97C670.738 -1100.06 666.678 -1099.16 663.644 -1096.91C660.679 -1094.7 654.279 -1093.15 649.422 -1093.46C641.097 -1093.99 640.715 -1094.4 642.729 -1100.63C645.456 -1109.07 641.535 -1112.12 634.938 -1106.68C627.725 -1100.74 621 -1099.35 617.34 -1103.04C615.405 -1105 611.5 -1105.71 607.106 -1104.93C603.197 -1104.23 599.441 -1103.76 598.758 -1103.87C598.074 -1103.99 591.109 -1105.43 583.276 -1107.08L571.693 -1159L570.991 -1151.77C570.605 -1147.79 571.857 -1142.95 573.769 -1141.02C578.367 -1136.38 573.214 -1130.98 564.953 -1131.78C559.12 -1132.35 554.329 -1164.05 552.149 -1141.59L549.926 -1118.68L522.335 -1122.7C496.623 -1126.43 494.306 -1127.22 488.344 -1134.16L481.944 -1141.62L466.028 -1136.91C457.274 -1134.32 449.591 -1133.27 448.954 -1134.57C445.595 -1141.41 427.523 -1133.27 426.676 -1124.53C426.056 -1118.15 420.853 -1114.25 413.866 -1114.93C410.7 -1115.24 408 -1114.36 407.866 -1112.98C407.732 -1111.6 401.99 -1111.02 395.106 -1111.69C385.927 -1112.59 381.385 -1114.38 378.07 -1118.41C374.89 -1122.28 370.213 -1124.24 362.285 -1125.01C356.09 -1125.61 350.929 -1125.16 350.817 -1124C350.704 -1122.84 345.91 -1120.18 340.162 -1118.08C331.302 -1114.84 329.594 -1113.08 328.927 -1106.46L328.142 -1098.66L315.881 -1102.14C307.626 -1104.49 301.869 -1104.9 298.259 -1103.4C294.924 -1102.01 287.292 -1102.35 278.097 -1104.31C267.763 -1106.51 263.214 -1106.61 263.022 -1104.63C262.871 -1103.07 261.058 -1101.97 258.992 -1102.17C256.927 -1102.37 255.086 -1100.97 254.901 -1099.06C254.471 -1094.64 243.006 -1088.54 236.343 -1089.19C233.542 -1089.46 231.148 -1088.65 231.025 -1087.38C230.661 -1083.64 217.386 -1083.18 208.787 -1086.62C198.529 -1090.71 175.673 -1089.39 171.269 -1084.45C166.343 -1078.91 157.185 -1080.36 159.379 -1086.33C160.891 -1090.45 159.24 -1091.38 145.373 -1094.25C135.761 -1096.24 124.188 -1096.84 115.597 -1095.8C98.3481 -1093.72 81.8977 -1095.25 81.0337 -1099.03C79.1952 -1107.08 48.9874 -1102.49 28.4686 -1091.03C24.063 -1088.57 18.8704 -1087.63 15.8352 -1088.75C13.0029 -1089.79 8.5603 -1089.76 5.9635 -1088.68C4.3783 -1088.02 2.422 -1087.9 0.00146484 -1088.33L1.97351 242.315L2.2561 242.468C11.4681 247.446 12.5511 247.582 19.7253 244.629C25.3816 242.304 30.0454 242.139 37.6273 243.999C47.4191 246.403 48.1161 246.247 53.1958 240.53C60.126 232.729 74.0621 219.784 77.3713 218.071C78.8013 217.332 81.5643 217.517 83.5121 218.484C85.4598 219.452 90.8091 220.605 95.4001 221.046C103.333 221.807 104.057 222.228 109.936 229.464C115.74 236.61 116.551 237.09 123.028 237.203C126.825 237.269 130.591 237.618 131.395 237.98C136.592 240.312 148.84 232.157 158.954 219.629C160.774 217.376 164.287 215.469 166.764 215.394C170.742 215.27 171.73 216.749 175.255 228.108C178.393 238.219 180.116 241.098 183.328 241.594C185.574 241.943 188.634 243.838 190.127 245.807C191.621 247.777 195.302 251.515 198.307 254.115C205.164 260.046 209.086 258.737 214.101 248.843L217.639 241.863L225.082 244.912C229.178 246.588 232.882 247.242 233.317 246.365C233.752 245.486 235.917 245.668 238.128 246.766C240.338 247.863 243.649 248.095 245.485 247.279C247.322 246.464 249.319 246.593 249.925 247.567C250.529 248.542 253.037 247.465 255.494 245.175C257.951 242.886 261.514 241.335 263.411 241.729C265.834 242.234 267.661 240.828 269.557 237.002C271.918 232.236 272.451 231.999 273.823 235.098C275.13 238.044 276.573 238.596 282.458 238.4C288.994 238.18 289.814 238.558 293.389 243.437C298.806 250.828 301.152 251.552 310.001 248.566C315.555 246.693 318.576 246.732 320.619 248.706C322.189 250.224 326.617 251.825 330.459 252.263C335.925 252.887 337.906 252.133 339.556 248.803C340.716 246.46 344.531 241.893 348.036 238.656C353.17 233.909 354.671 233.368 355.777 235.864C356.65 237.836 361.032 240.468 367.847 243.114L378.545 247.271L373.921 253.754C371.38 257.32 366.007 262.535 361.982 265.343C355.925 269.568 354.851 271.032 355.745 273.847C356.34 275.717 357.744 280.426 358.867 284.313C360.555 290.155 361.955 291.703 366.937 293.243C373.141 295.162 381.237 305.008 379.498 308.517C379.03 309.462 379.873 310.845 381.371 311.589C383.57 312.681 384.448 311.692 385.927 306.439C387.97 299.193 396.903 291.88 401.14 293.985C404.012 295.411 409.318 293.088 416.1 287.432C419.687 284.439 425.094 283.183 435.627 282.892C443.638 282.669 451.749 283.235 453.651 284.149C457.29 285.897 475.331 277.654 490.877 267.141C498.119 262.243 500.027 259.767 505.216 248.514C508.507 241.377 511.077 234.22 510.927 232.609C510.714 230.329 511.83 230.501 515.965 233.386C520.227 236.358 522.929 236.692 529.648 235.076C534.253 233.967 540.438 232.487 543.392 231.786C547.847 230.729 549.604 228.815 553.691 220.565C556.401 215.093 558.202 209.379 557.692 207.864C555.721 202.003 561.015 205.057 564.953 212.051C568.474 218.302 570.041 219.558 575.657 220.648C581.009 221.684 582.461 222.713 583.433 226.164C584.091 228.499 584.191 231.293 583.656 232.374C582.326 235.059 602.303 261.362 607.048 263.173C609.147 263.975 611.794 265.629 612.927 266.849C618.239 272.556 623.829 275.902 626.857 275.185C632.261 273.906 655.507 291.471 653.574 295.373C653.237 296.052 654.819 299.08 657.088 302.101C668.22 316.917 674.577 329.768 673.47 335.21C671.698 343.907 674.425 346.546 685.695 347.043C695.144 347.46 695.618 347.225 698.08 340.904C700.491 334.71 700.999 334.425 706.874 335.961C710.302 336.858 714.368 337.167 715.909 336.648C717.449 336.128 720.459 336.573 722.598 337.635C724.737 338.697 726.864 338.805 727.325 337.874C728.747 335.004 731.912 337.8 735.517 345.107C740.267 354.74 747.471 358.002 755.034 353.949C758.297 352.199 761.746 349.195 762.699 347.272C763.698 345.254 770.836 341.627 779.591 338.689C787.93 335.891 795.377 332.34 796.141 330.798C797.084 328.895 798.252 328.779 799.776 330.439C801.011 331.782 804.541 332.58 807.619 332.21C811.9 331.696 815.111 332.814 821.29 336.974C825.731 339.964 832.221 344.3 835.712 346.608C839.204 348.916 843.315 352.449 844.849 354.46C846.382 356.468 849.169 358.258 851.045 358.436C855.167 358.826 857.716 363.856 855.777 367.77C855.002 369.336 855.676 374.196 857.274 378.571C859.706 385.229 861.929 387.628 870.899 393.288C886.189 402.936 888.927 401.73 903.386 378.995C905.328 375.938 907.298 375.419 912.092 376.696C915.499 377.603 920.207 377.296 922.556 376.014C924.903 374.733 927.737 374.136 928.851 374.69C929.966 375.243 935.039 371.833 940.129 367.108C945.218 362.386 951.607 358.037 954.328 357.448C959.153 356.402 959.241 356.249 957.865 351.368C956.526 346.616 956.774 346.075 962.758 340.717C966.225 337.613 968.869 334.5 968.635 333.803C968.401 333.107 964.839 330.682 960.72 328.414C951.496 323.337 950.482 320.945 957.123 319.936C960.941 319.356 962.036 318.383 961.487 316.06C960.962 313.836 961.916 312.012 964.862 309.613C968.308 306.808 968.879 305.012 968.404 298.479C967.856 290.937 967.941 290.741 971.084 292.302C979.215 296.341 990.282 293.223 988.337 287.44C986.906 283.188 990.389 278.25 996.391 276.014C1001.25 274.203 1002.14 273.047 1003.08 267.305C1004.08 261.216 1004.74 260.53 1011.33 258.778C1016.46 257.411 1019.03 255.496 1020.43 251.993C1021.5 249.307 1024.31 245.4 1026.68 243.308L1026.97 243.052C1029.81 240.538 1031.14 239.362 1030.99 238.428C1030.85 237.607 1029.57 236.973 1027.17 235.781L1026.89 235.643C1020.59 232.509 1017.95 223.945 1022.45 221.18C1024.21 220.096 1027.59 219.892 1029.96 220.727C1032.32 221.564 1036.4 222.24 1039.01 222.229C1043.71 222.211 1045.11 223.393 1053.09 234.136C1056.77 239.082 1059.49 239.463 1066.27 235.98C1071.13 233.489 1073.25 231.107 1074.65 226.571C1076.02 222.104 1077.93 219.905 1081.86 218.264C1086.29 216.412 1088.05 214.093 1092.09 204.742C1096.96 193.487 1096.99 193.461 1102.02 195.279C1105.85 196.664 1106.88 198.03 1106.28 200.938C1105.07 206.756 1108.48 208.973 1114.2 206.092C1120.21 203.066 1126.48 205.501 1127.53 211.272C1128.36 215.791 1133.08 222.43 1137.84 225.788C1139.56 226.998 1140.86 230.113 1140.74 232.709C1140.56 236.204 1141.52 237.583 1144.42 238.021C1146.58 238.347 1153.1 240.824 1158.9 243.528C1164.71 246.232 1170.38 248.133 1171.51 247.753C1172.64 247.371 1175.89 243.357 1178.74 238.83C1183.46 231.328 1184.43 230.702 1189.67 231.749C1194.03 232.623 1195.58 233.8 1196.09 236.637C1196.59 239.39 1198.18 240.652 1202.14 241.437C1205.1 242.022 1210.22 244.039 1213.51 245.918C1216.81 247.797 1220.41 248.77 1221.52 248.08C1222.63 247.39 1225.01 247.558 1226.81 248.455C1228.62 249.352 1230.47 249.323 1230.93 248.392C1232.56 245.116 1237.97 249.838 1239.87 256.19C1241.47 261.535 1242.94 263.007 1248.62 264.947C1257.43 267.954 1266.02 266.877 1268.19 262.492C1270.63 257.576 1270.09 250.964 1267.13 249.495C1265.68 248.776 1265.25 245.865 1266.11 242.661C1267.1 239.006 1266.59 236.57 1264.65 235.606C1261.02 233.801 1259.33 227.622 1262.01 225.949C1263.09 225.276 1265.34 225.399 1267 226.223C1268.66 227.048 1272.15 226.884 1274.75 225.858C1277.36 224.831 1280.89 224.689 1282.61 225.541C1285.03 226.743 1286.37 225.801 1288.57 221.346C1290.33 217.802 1290.63 214.748 1289.37 213.368C1288.17 212.062 1288.37 209.001 1289.86 206.001C1291.25 203.179 1291.6 200.473 1290.62 199.987C1288.26 198.814 1289.24 184.834 1291.86 182.424C1292.99 181.38 1295.37 181.253 1297.16 182.139C1299.7 183.404 1301.46 182.236 1305.32 176.698C1308.52 172.099 1311.08 170.067 1312.66 170.855C1314 171.52 1315.47 171.301 1315.93 170.37C1316.4 169.439 1318.3 169.433 1320.16 170.357C1322.61 171.574 1324.1 170.907 1325.56 167.943C1328.51 161.998 1331.94 159.334 1334.82 160.763C1338.57 162.627 1349.88 161.391 1351.07 158.987C1352.25 156.605 1345.83 148.156 1338.95 143.048C1323.11 131.281 1319.77 128.415 1318.47 125.482C1317.67 123.681 1315 121.768 1312.53 121.229C1310.06 120.689 1305.5 117.748 1302.4 114.695C1297.92 110.287 1297.14 108.251 1298.64 104.812C1299.67 102.429 1302.78 99.4045 1305.54 98.0881C1309.61 96.1526 1310.6 94.7381 1310.74 90.7069C1310.88 86.3589 1311.93 85.3609 1318.92 82.9132C1323.33 81.3708 1327.21 79.5652 1327.54 78.9011C1327.87 78.2376 1330.81 78.0325 1334.09 78.4446C1337.36 78.8567 1340.42 78.4114 1340.9 77.4549C1341.41 76.4251 1343.62 77.1595 1346.33 79.2512C1350.28 82.3112 1351.14 82.2921 1352.72 79.1077C1353.72 77.0848 1357.32 74.6097 1360.71 73.6078C1364.1 72.6039 1367.43 70.7402 1368.1 69.4653C1370.12 65.6041 1376.07 63.5763 1380.79 65.1412C1384.29 66.3058 1385.91 65.5392 1388.4 61.5481C1390.52 58.1336 1392.77 56.7279 1395.27 57.2484C1398.02 57.8196 1399.71 56.5414 1401.81 52.312C1403.36 49.1734 1406.71 45.4694 1409.26 44.0822C1413.49 41.7703 1413.77 41.198 1412.65 37.224C1411.98 34.8393 1411.88 31.9849 1412.42 30.8829C1412.97 29.7789 1413.24 27.0275 1413.01 24.7654C1412.48 19.3085 1416.35 16.0244 1422.59 16.6338C1426.1 16.9775 1428.29 15.8584 1429.71 12.9937Z" fill="white"/>
</g>
</svg>
