<svg width="67" height="94" viewBox="0 0 67 94" fill="none" xmlns="http://www.w3.org/2000/svg">
<path d="M59.9971 76.3038L61.378 76.3628L62.101 77.5866L62.6762 77.1106L64.1989 78.0537L64.3274 79.2147L65.1608 78.7875L66.005 80.7467L65.4101 80.92L65.3718 81.8165C64.3219 82.1262 63.4993 82.9894 62.3411 82.6327C62.2384 83.4244 61.5009 83.6547 61.0353 83.7376C59.9313 83.934 58.9769 84.7568 57.9476 84.732C56.746 84.7042 55.8067 85.325 54.7488 85.5787C53.4791 85.8832 52.1713 86.2117 50.9075 86.6378C49.6737 87.0538 48.3722 87.611 46.9816 87.5069C44.7258 88.6893 42.1621 88.7261 39.7599 89.3508C37.8882 89.8375 35.9954 90.4622 33.9982 90.5229C33.3036 90.5441 32.6121 91.2335 31.9355 90.144C31.3694 91.0832 30.7292 91.5875 29.6986 91.5084C28.9552 91.4761 28.2118 91.5725 27.5012 91.7933C25.6528 92.3171 23.7454 92.4277 21.8657 92.7313C20.1407 93.0101 18.3763 93.0559 16.6849 93.3553C14.4042 93.7584 12.1987 93.3144 9.96264 93.3611C9.5687 93.3695 9.17908 93.0329 8.76857 92.9555C8.32417 92.8706 7.73153 93.0678 7.43213 92.8406C7.04424 92.5462 6.73768 92.7842 6.4144 92.7057C5.9365 92.5898 5.46898 92.4313 4.90155 92.2627C4.70591 91.8821 4.00086 91.7028 4.03406 90.9698C4.04193 90.7858 3.70578 90.4179 3.53193 90.4205C2.21707 90.44 1.95905 89.3469 1.43064 88.4118C1.28652 86.6302 2.20196 85.4245 3.89696 84.7288C4.11807 84.6293 4.35166 84.5603 4.59132 84.5236C5.52028 84.4173 6.50312 84.4898 7.36868 84.2024C8.32077 83.8866 9.23251 83.9536 10.1735 83.9698C11.0771 83.9852 12.1304 84.2874 12.8452 83.9248C13.6399 83.5208 14.5796 84.2553 15.1739 83.4084C15.758 84.08 16.4031 83.1401 16.9998 83.4773C17.6758 82.9444 18.4743 83.2802 19.1987 83.1486C19.8692 83.0269 20.5579 82.9698 21.203 82.8288C23.3221 82.3903 25.4697 82.1028 27.6295 81.9686C28.5952 81.1929 29.8473 82.0217 30.8782 81.3447C31.7632 80.7632 32.9089 80.9256 33.9152 80.7476C35.0574 80.5461 36.2527 80.4057 37.4248 80.2653C38.5192 80.1344 39.6007 79.8803 40.7018 79.724C42.3247 79.4934 43.8881 78.861 45.56 78.8088C46.2964 78.0116 47.3705 78.7727 48.2344 78.1779C48.9595 77.6789 50.0031 77.6329 50.8602 77.5327C52.9523 77.2884 54.8318 76.3544 56.872 76.0011C57.3553 75.9175 57.8372 75.8269 58.3968 75.7257C58.4498 76.2076 58.4896 76.5704 58.5523 77.1417L59.9971 76.3038Z" fill="#8CE5B5"/>
<path d="M28.1996 52.6246C28.0875 52.7274 27.9914 52.8157 27.8956 52.9036L27.127 51.6012C26.987 51.9481 26.8978 52.1716 26.7537 52.5276C26.1825 52.4323 25.3991 52.5298 25.0071 52.1839C24.371 51.6223 23.9074 52.368 23.3443 52.1408C22.8336 51.9346 22.0695 52.1453 21.7049 51.8346C21.1106 51.3282 20.4791 51.5705 19.8941 51.3941C19.3116 51.1843 18.7417 50.941 18.1874 50.6654L16.9604 50.9944L16.3132 49.6467C16.0849 50.285 16.0096 50.4954 15.8869 50.8382C14.1345 49.7284 11.9555 50.2218 10.1962 49.2393C10.1592 49.0323 10.127 48.853 10.0421 48.3796C9.86297 48.8379 9.78708 49.0324 9.69856 49.2589L8.26463 48.8141C8.24418 48.5068 8.22322 48.1968 8.19275 47.7433L7.70487 48.066L6.91622 47.6274L6.52202 48.4226C6.09798 48.0957 5.67401 47.7673 5.17142 47.3797C5.1584 47.1963 5.13807 46.8863 5.11082 46.4844L3.7047 47.1166C3.06017 46.0923 1.67747 45.5712 1.29411 44.2143L1.75012 43.7541C1.39138 43.3633 1.21475 43.46 0.780424 44.2866C0.653514 44.2964 0.526068 44.2972 0.39905 44.2889C0.346962 44.2827 0.302305 44.2149 0.140551 44.0807C0.274795 43.806 0.424231 43.4995 0.58886 43.1613L0.175296 41.9449L1.33541 42.4229C1.23669 41.9509 1.16347 41.5999 1.03929 41.0062L2.60877 41.7982L2.24111 42.2116L3.31136 42.8157L3.36771 41.4972L4.62275 40.9251L7.41373 42.2278C7.85254 42.0772 9.49879 42.3613 10.2346 42.734L10.726 42.3243L11.9893 42.994L11.6093 43.393C11.6934 43.4609 11.8051 43.6129 11.8718 43.5951C12.6283 43.3944 13.3556 42.8542 14.1365 43.6491C14.281 43.7963 14.8201 43.5598 15.176 43.4945C16.804 43.1958 18.2738 43.4891 19.5301 44.591C19.8378 44.5208 20.1785 44.3685 20.5084 44.3888C20.8968 44.4129 21.5019 44.7929 21.6207 44.662C22.2364 43.9848 22.5055 44.8534 22.9418 44.8774C23.3781 44.8788 23.8086 44.9777 24.2018 45.1668C24.9491 45.5464 25.8479 45.6586 26.6967 45.8025C29.5438 46.283 32.3424 47.0168 35.0589 47.9954C37.1681 48.7552 39.3226 49.4 41.3394 50.3804C42.6982 51.0406 44.1794 51.6625 45.2245 52.6891C46.1696 53.6163 47.3001 54.4497 48.0125 55.7448C47.8977 55.9095 47.7588 56.1094 47.598 56.3384L47.9172 56.7402L46.4022 58.0562C45.811 57.8495 45.1972 57.5703 44.8832 56.6931C44.7884 57.184 44.7193 57.5413 44.6449 57.9267L44.0867 57.9028C43.9996 57.6428 43.9232 57.4143 43.8451 57.1809L43.1584 57.5783L42.5958 57.1179L41.6157 57.952C41.1654 57.346 40.8564 56.8072 40.4287 56.3899C40.0136 55.9849 39.0953 56.32 38.9329 55.3178C39.0173 55.1985 39.1573 55.0005 39.3755 54.6926L38.073 54.5698L38.686 55.3216C38.1914 55.275 37.7762 55.3503 37.5039 55.1877C36.8645 54.8319 36.1852 54.5533 35.4801 54.3578C34.8276 54.1643 34.1604 54.0242 33.4852 53.9388C32.8823 53.8484 32.3049 53.5922 31.7024 53.4972C31.0658 53.3966 30.3933 53.4809 29.7724 53.3338C29.2221 53.2035 28.7179 52.867 28.1996 52.6246Z" fill="#8CE5B5"/>
<path d="M18.0428 3.2918L18.1132 1.64539C18.8112 0.969191 19.5978 0.660324 20.7576 0.82481C20.8583 1.01037 21.0441 1.35328 21.2633 1.75769C22.5913 1.01622 23.0102 2.76593 24.0392 2.535C25.4575 3.56528 26.4888 4.95925 27.9497 5.86704C28.1524 6.03203 28.3322 6.22336 28.4843 6.43594C29.7307 7.7754 31.0955 8.99954 32.5621 10.0934C33.5508 10.8919 34.4801 11.7611 35.3427 12.6943C36.2789 13.7062 37.3446 14.5902 38.5121 15.3233C38.7148 15.488 38.8948 15.6788 39.0474 15.8907C39.7584 16.6491 40.3925 17.5075 41.2064 18.1313C41.8617 18.6343 42.3343 19.285 42.9102 19.8404C43.9056 20.7992 44.7181 21.9492 45.5966 23.028C46.4811 24.1139 47.3942 25.1803 48.2093 26.3169C48.5493 26.7903 48.6682 27.4236 48.8965 28.0067L47.0148 29.5194C46.4474 29.8093 46.213 28.7566 45.5693 28.489L45.0133 28.8795L42.4838 28.2428C40.3942 26.3806 37.9554 24.3907 35.6912 22.1817C34.5868 21.102 33.3754 20.1374 32.0758 19.3028C31.1359 18.7028 30.4219 17.7472 29.5797 16.9758C27.3483 14.9325 25.1078 12.8376 23.2493 10.4666C21.5042 8.24093 19.3343 6.31816 18.0428 3.2918Z" fill="#8CE5B5"/>
</svg>
