<svg width="47" height="49" viewBox="0 0 47 49" fill="none" xmlns="http://www.w3.org/2000/svg">
<g clip-path="url(#clip0_959_7396)">
<path d="M36.0436 46.2165C37.1468 41.9818 25.5393 39.4131 25.7266 38.062C25.9202 36.6723 30.1552 34.3226 35.033 31.0799C40.7732 27.2609 47.0158 24.7667 45.1971 21.3648C43.7507 18.6604 38.8775 20.9051 34.3865 22.9561C31.1539 24.4329 27.9745 25.7057 27.1068 25.4485C27.0694 24.0934 29.5399 21.0294 32.3878 17.8018C36.2629 13.4052 40.6264 8.56438 38.4394 6.0311C35.5526 2.68929 30.6858 8.65779 26.6183 13.5623C23.9043 16.8328 21.3753 19.5088 20.6561 19.0731C20.1133 18.688 20.9676 15.2174 22.1005 11.5612C23.514 6.99541 25.1897 2.02265 23.1223 1.0223C19.9237 -0.525705 17.3676 6.1822 15.3238 11.4741C14.0005 14.8899 12.6721 17.556 12.2735 17.5598C11.7465 17.3803 11.4718 14.8867 11.3465 12.2256C11.1886 8.87542 11.0965 5.2137 9.15467 5.01636C6.3253 4.7321 5.32038 11.3479 3.98403 19.1976C3.19771 23.8159 0.47505 35.1724 0.418677 36.2169C0.348828 37.5144 1.96625 39.2224 4.21217 39.8259C8.33197 40.9345 8.76797 43.7122 10.2905 44.867C12.17 46.2918 13.6546 46.6229 14.0322 46.5188C23.6455 45.7625 34.8554 50.7693 36.0436 46.2165Z" fill="#A0E2B8"/>
</g>
<defs>
<clipPath id="clip0_959_7396">
<rect width="46.9397" height="44.5325" fill="white" transform="translate(46.3354 1.74219) rotate(92.2429)"/>
</clipPath>
</defs>
</svg>
