<svg width="35" height="60" viewBox="0 0 35 60" fill="none" xmlns="http://www.w3.org/2000/svg">
<path d="M31.8184 54.2504C31.9733 54.8575 32.4923 55.0463 32.8041 55.4174C32.9857 55.6336 33.2295 56.0627 33.0567 56.1229C31.8327 56.5486 31.6639 58.3822 30.1035 58.3069C23.7691 58.0021 17.5849 59.5909 11.2905 59.7891C10.8483 59.8031 10.407 59.8457 9.96484 59.8647C7.40963 59.9743 7.40954 59.9732 7.86345 57.5663C8.33088 55.0901 8.46315 54.9217 11.0783 54.417C16.5114 53.3684 21.951 52.35 27.4368 51.6116C29.1475 51.3812 30.875 51.3206 32.4373 52.2749C32.8636 52.5263 33.2519 52.8371 33.5905 53.1979C33.8768 53.5147 34.1937 53.9707 33.8886 54.3927C33.5719 54.8308 33.2042 54.4028 32.871 54.2667C32.5668 54.1406 32.266 53.9904 31.8184 54.2504Z" fill="#F97C60"/>
<path d="M27.5003 28.5701C25.9927 30.1292 24.0396 30.8892 22.0374 31.5592C17.6888 33.014 13.1377 33.7626 8.82648 35.3511C7.99286 35.6582 7.69208 35.3928 7.64685 34.4228C7.51515 31.6052 9.47689 30.6442 11.5697 29.8785C15.7698 28.3416 20.0133 26.9231 24.2308 25.4336C25.3238 25.0476 26.3924 24.5911 27.4632 24.1454C28.0823 23.8873 28.5347 24.153 28.9452 24.561C29.3706 24.9827 29.242 25.3679 28.9878 25.886C28.5355 26.8078 28.2129 27.7912 27.5003 28.5701Z" fill="#F97C60"/>
<path d="M5.14003 6.5326C6.60931 4.80499 8.0696 3.07173 9.55082 1.35568C10.0223 0.80933 10.5199 0.232464 11.3773 0.666143C12.1598 1.06171 11.7125 1.69357 11.7087 2.26293C11.7011 3.36007 11.3115 4.32006 10.7563 5.2226C8.34127 9.14884 5.61745 12.8175 1.9711 15.7169C1.57642 16.0306 1.24552 16.4375 0.679965 16.2469C0.0404613 16.0311 0.307458 15.4547 0.183429 15.0076C-0.395728 12.9195 0.761317 11.5586 2.01005 10.1791C3.08472 8.99205 4.09346 7.74533 5.13122 6.5251L5.14003 6.5326Z" fill="#F97C60"/>
</svg>
