<svg width="112" height="119" viewBox="0 0 112 119" fill="none" xmlns="http://www.w3.org/2000/svg">
<path d="M9.80078 40.122C9.80078 33.6746 15.5188 29.9098 17.5382 24.272C17.8618 23.3687 17.8477 24.6981 17.8477 24.9702C17.8477 26.8206 17.8477 28.6709 17.8477 30.5212C17.8477 34.9701 17.9997 39.4472 17.8133 43.8925C17.6043 48.8809 16.2924 54.0488 14.7699 58.7823C14.2907 60.2723 13.7808 61.774 13.446 63.3034C13.3019 63.9614 13.1369 64.5641 13.2225 63.478C13.3741 61.5538 14.342 59.6803 15.131 57.9619C16.805 54.3164 18.6402 50.6726 20.7708 47.2789C27.8984 35.9258 36.2699 25.19 45.6338 15.6837C46.1773 15.1319 46.4315 15.0636 46.1496 15.963C45.5923 17.7414 44.3549 19.1597 43.7768 20.9205C41.5068 27.8342 39.0599 34.625 37.5181 41.7628C35.6871 50.2393 33.9109 58.793 32.3254 67.3183C31.8094 70.0927 30.5372 73.2385 30.5372 76.0462C30.5372 76.1878 30.5638 75.7623 30.6059 75.6273C30.9838 74.4175 31.7009 73.2643 32.2566 72.1361C34.4034 67.7772 36.4702 63.3639 38.7905 59.0966C45.4564 46.8368 53.6984 35.5189 61.7277 24.1673C63.8175 21.2128 66.0835 18.396 68.2616 15.5091C68.894 14.6709 72.1525 9.74265 73.076 10.0105C74.3396 10.377 69.4314 22.1065 68.9837 23.2246C67.4834 26.9722 66.4808 30.8871 65.1494 34.6932C63.3182 39.928 61.2764 45.0471 59.63 50.3511C55.9374 62.2471 52.2657 74.144 48.9351 86.1532C47.5959 90.982 46.4534 95.9525 44.8429 100.694C44.7667 100.918 44.2653 101.954 44.5162 101.148C45.2649 98.7409 47.0395 96.5496 48.3505 94.4448C52.4637 87.8413 56.2671 81.0281 60.5757 74.545C65.2063 67.5775 70.0336 59.8854 75.6551 53.7027C77.3312 51.8593 78.4868 48.6892 80.5039 47.2265C80.7229 47.0678 80.6759 49.9275 80.6759 50.1068C80.6759 54.7106 80.4319 59.2734 80.0569 63.862C79.2227 74.0692 78.6342 84.25 77.0307 94.375C76.3006 98.9847 75.4144 103.76 75.4144 108.444C75.4144 108.958 75.2368 109.742 75.8615 109.108C78.4031 106.527 80.1318 102.947 82.2234 99.9958C87.0281 93.2153 91.8407 86.0078 97.6811 80.0786C98.6549 79.09 99.7182 78.0023 100.862 77.1983C101.021 77.087 101.917 76.3175 102.014 76.7619C102.844 80.5551 100.34 85.3321 99.5553 88.9985C99.0122 91.5346 97.6983 94.092 97.6983 96.7141C97.6983 98.1687 97.6983 99.6234 97.6983 101.078" stroke="#F5F6F8" stroke-width="18" stroke-linecap="round"/>
<path d="M40.8174 27C33.2941 28.9808 30.2847 41.2617 40.8174 42.8464C53.9833 44.8272 52.1023 27 40.8174 27Z" stroke="#043565" stroke-width="2"/>
<path d="M39.4999 43V43C39.4999 45.0197 38.0224 46.7106 36.1159 47.3774C34.4034 47.9763 32.6896 48.8505 31.9999 50C30.4999 52.5 28.9999 69 29.4999 73C29.9999 77 34 73.5 34.5 70C34.9 67.2 35.6667 60.8333 36 58" stroke="#043565" stroke-width="2"/>
<path d="M44.0001 43V43.1115C44.0001 45.0668 45.4294 46.7061 47.2788 47.3409C49.0259 47.9406 50.7962 48.8269 51.5001 50C53.0001 52.5 54.5001 69 54.0001 73C53.5001 77 49.5 73.5 49 70C48.6 67.2 47.8333 60.8333 47.5 58" stroke="#043565" stroke-width="2"/>
<path d="M36 58V71H48V58" stroke="#043565" stroke-width="2"/>
<path d="M43.5 71L44.5 79.5L44 87M49 88V79.5L48 71" stroke="#043565" stroke-width="2"/>
<path d="M40.5 71V87M35.5 88V79.5V71" stroke="#043565" stroke-width="2"/>
<path d="M52.3445 89.6162C50.6927 88.2514 47.6039 87.5189 45.0923 87.1924C43.958 87.045 43 87.9587 43 89.1025V89.5C43 90.6046 43.8954 91.5 45 91.5H51.2344C52.4374 91.5 53.2719 90.3824 52.3445 89.6162Z" stroke="#043565" stroke-width="2"/>
<path d="M32.1555 89.6162C33.8073 88.2514 36.8961 87.5189 39.4077 87.1924C40.542 87.045 41.5 87.9587 41.5 89.1025V89.5C41.5 90.6046 40.6046 91.5 39.5 91.5H33.2656C32.0626 91.5 31.2281 90.3824 32.1555 89.6162Z" stroke="#043565" stroke-width="2"/>
<path d="M38 47C38.3333 47.8333 39.5 49.6 41.5 50C43.5 50.4 45 48.1667 45.5 47" stroke="#043565" stroke-width="2"/>
<path d="M49.5 69C50.8333 69.1667 53.6 69.2 54 68" stroke="#043565" stroke-width="2"/>
<path d="M34.5 69C33.1667 69.1667 30.5 68.5 29 68" stroke="#043565" stroke-width="2"/>
<path d="M64.298 76.5325C58.0396 76.3527 59.3027 71.3184 60.7166 68.8238C63.7443 64.6605 67.0649 65.8744 69.0251 67.7203C70.9854 69.5662 72.121 76.7572 64.298 76.5325Z" stroke="#043565" stroke-width="2"/>
<path d="M63.8253 66.5158C63.4861 65.5604 62.333 63.8356 60.4339 64.5796C58.5348 65.3236 59.5699 68.2883 60.3248 69.6776" stroke="#043565" stroke-width="2"/>
<path d="M70.1132 69.2489C70.9023 68.6124 72.1478 66.9532 70.8169 65.4077C69.4859 63.8622 68.2377 64.883 67.1767 66.0554" stroke="#043565" stroke-width="2"/>
<path d="M61.4998 76.0015C59.9135 76.858 57.9612 78.2132 59.2885 82.5397C60.9476 87.9477 67.0294 87.1901 69.4998 84C72.7715 79.7751 69.1399 76.7828 68.4998 75.4999" stroke="#043565" stroke-width="2"/>
<path d="M69.9972 83.6908C71.6257 84.1773 75.3272 87.0623 74.1262 88.7108C72.0448 91.5676 68.123 87.2239 66.7979 86.5209" stroke="#043565" stroke-width="2"/>
<path d="M63.8869 86.6744C63.4146 88.3072 61.309 91.5345 58.6654 89.5819C56.6147 88.0671 59.4086 84.8972 60.0999 83.566" stroke="#043565" stroke-width="2"/>
<circle cx="63.3414" cy="70.9133" r="1" transform="rotate(-24.9196 63.3414 70.9133)" fill="#043565"/>
<circle cx="67.8112" cy="71.0402" r="1" transform="rotate(-24.9196 67.8112 71.0402)" fill="#043565"/>
<path d="M68.5 76C70.0594 76.2612 76.7676 78.0468 76.5764 79.8254C76.2889 82.5015 72.8931 81.0784 69.8434 80.7814" stroke="#043565" stroke-width="2"/>
<path d="M59.6313 77.624C58.0719 77.3628 54.0526 77.0436 54.0959 75.2553C54.1501 73.0192 56.5814 73.703 59.6312 74" stroke="#043565" stroke-width="2"/>
</svg>
