<svg width="106" height="115" viewBox="0 0 106 115" fill="none" xmlns="http://www.w3.org/2000/svg">
<path d="M9.67255 24.7204C8.33523 24.524 12.3822 21.3329 12.6284 21.14C16.5915 18.0352 20.7138 15.0248 25.1565 12.964C27.5904 11.835 29.897 10.3844 32.3641 9.33017C33.8099 8.71237 33.7383 8.8851 32.8189 10.5058C26.2035 22.1668 19.4049 34.0413 11.5597 44.6261C10.5828 45.9442 7.62754 49.9746 10.7185 46.5499C16.4083 40.2456 22.2321 34.2874 28.5898 28.8886C35.4901 23.0289 42.8676 17.3663 50.4173 12.6968C52.6368 11.3241 52.209 12.1727 50.7584 14.1931C40.8539 27.9876 30.1644 41.0329 21.4049 55.9283C19.7171 58.7984 16.7471 62.7442 16.6301 66.4557C16.5424 69.2369 20.0765 64.8651 20.5636 64.3181C27.5688 56.4519 35.2035 49.4249 42.6413 42.1413C47.6193 37.2664 52.3331 32.1262 57.625 27.7129C59.6073 26.0597 60.2755 26.2561 59.1029 29.2626C53.6246 43.3086 46.8971 56.6438 40.7768 70.3032C37.1713 78.3501 33.0551 86.0706 30.4542 94.6711C30.2541 95.3328 28.8349 98.6721 29.3856 99.4271C30.1508 100.476 34.8833 94.7803 35.138 94.4841C42.6767 85.7183 49.201 75.9561 56.8974 67.3374C61.1478 62.5776 65.3341 57.6419 69.8348 53.203C70.1086 52.9329 72.5683 50.1156 73.018 51.1723C73.3989 52.0678 72.9519 53.86 72.8133 54.6993C71.8309 60.6494 70.3675 66.4041 68.607 72.0934C66.6395 78.4516 64.9071 84.9122 62.9 91.251C61.9616 94.2146 61.2605 96.3092 63.9686 92.9611C74.718 79.6712 81.2594 61.734 93.7314 50.2639C95.8308 48.3332 96.12 49.0704 96.0051 51.9739C95.6585 60.7301 91.7706 69.683 89.7524 77.9983C87.559 87.0359 84.5684 96.4803 84.5684 106" stroke="#F5F6F8" stroke-width="18" stroke-linecap="round"/>
<path d="M41.1993 34.0801C41.0326 34.9134 40.3993 37.0801 39.1993 39.0801C37.6993 41.5801 36.1993 42.5801 38.1993 47.0801C39.5715 50.1675 38.3448 58.3791 37.2318 63.7036C36.9736 64.9386 37.8733 66.1252 39.1349 66.1286C43.2141 66.1399 49.0737 65.837 52.4663 64.6247C53.2349 64.35 53.6337 63.5507 53.523 62.7421C52.8797 58.0424 51.4221 48.8872 50.6992 47.0801" stroke="#043565" stroke-width="2"/>
<path d="M46.1992 33.5801L48.1992 37.0801M45.6992 65.5801C46.3659 69.9134 46.8695 79.8782 48.6992 83.0801C50.5815 86.374 56.8922 93.0631 60.9631 96.479C61.4243 96.866 62.0405 97.0042 62.6283 96.8736L63.0845 96.7722C64.5251 96.4521 65.1375 94.7359 64.2315 93.5711C60.8456 89.2181 56.1859 83.0534 55.1992 81.0801C53.9992 78.6801 52.6992 69.7467 52.1992 65.5801" stroke="#043565" stroke-width="2"/>
<path d="M48.9727 37.2553C45.7727 36.4553 43.9727 38.5886 43.4727 39.7553C41.9727 44.7547 46.9727 44.2559 50.4727 46.7559C53.9727 49.2559 57.4727 58.2559 57.9727 61.7559C58.4727 65.2559 61.9727 65.2559 62.9727 63.7559C63.9727 62.2559 61.4727 51.2559 60.4727 48.2559C59.4727 45.2559 52.9727 38.2553 48.9727 37.2553Z" stroke="#043565" stroke-width="2"/>
<path d="M40.5905 18.0801C33.5374 20.0609 30.7161 32.3418 40.5905 33.9264C52.9336 35.9072 51.1702 18.0801 40.5905 18.0801Z" stroke="#043565" stroke-width="2"/>
<path d="M43.1992 18.58C43.5326 16.58 45.2992 13.28 49.6992 16.08C54.0992 18.88 50.5326 21.58 48.1992 22.5801" stroke="#043565" stroke-width="2"/>
<path d="M38.6992 66.0801C37.6992 69.0801 35.2992 76.2801 33.6992 81.0801C32.2919 85.3019 30.5236 92.6698 29.551 96.9918C29.3429 97.9169 29.8207 98.8563 30.6872 99.2414L31.6862 99.6854C32.7651 100.165 34.0214 99.6133 34.3986 98.4945C36.3971 92.566 39.6354 83.2077 40.6992 81.0801C41.8992 78.6801 44.8659 73.0801 46.1992 70.5801" stroke="#043565" stroke-width="2"/>
<path d="M59.1989 101.08C59.5989 99.0801 61.6989 97.5801 62.6989 97.0801L64.4102 96.0533C64.9108 95.753 65.5275 95.6789 66.0073 96.0115C67.4558 97.0155 69.199 99.2451 69.199 100.08C69.199 100.743 64.6251 102.823 61.1601 104.276C60.0989 104.721 58.9513 104.129 58.9815 102.979C58.9962 102.422 59.0585 101.782 59.1989 101.08Z" stroke="#043565" stroke-width="2"/>
<path d="M24.4055 98.7837C26.1949 97.8049 28.6937 98.45 29.7194 98.8949L31.6058 99.5462C32.1576 99.7368 32.6107 100.162 32.6642 100.743C32.8258 102.498 32.2377 105.266 31.5979 105.803C31.0902 106.229 26.5569 104.061 23.2172 102.34C22.1944 101.813 21.9101 100.553 22.8109 99.8374C23.2471 99.4907 23.7776 99.1271 24.4055 98.7837Z" stroke="#043565" stroke-width="2"/>
<path d="M37.1989 44.0801C35.8656 46.5801 32.6989 51.8801 30.6989 53.0801C28.1989 54.5801 21.6989 59.0801 21.1989 60.5801C20.6989 62.0801 20.6989 64.0801 26.6989 61.5801C31.4989 59.5801 36.699 55.4134 38.699 53.5801" stroke="#043565" stroke-width="2"/>
<path d="M62.1992 65.0801L65.6992 69.5801" stroke="#043565" stroke-width="2"/>
<path d="M63.761 71.8307L70.6029 66.3571C71.4788 65.6564 72.7596 65.8129 73.441 66.704L90.5029 89.0157C91.1666 89.8836 91.011 91.1234 90.1535 91.8004L83.7589 96.8488C82.8959 97.5301 81.6447 97.387 80.9579 96.5284L63.4486 74.6418C62.7586 73.7793 62.8984 72.5207 63.761 71.8307Z" stroke="#043565" stroke-width="2"/>
<path d="M87.2305 102.08C83.1243 102.08 84.0173 99.4497 85.1484 97.8683C85.3054 97.6488 85.5173 97.4715 85.7663 97.3676C89.8475 95.6649 92.5743 102.08 87.2305 102.08Z" stroke="#043565" stroke-width="2"/>
<path d="M57.6992 58.5801C58.8659 58.5801 61.3992 58.1801 62.1992 56.5801" stroke="#043565" stroke-width="2"/>
<path d="M25.1992 56.5801C25.1992 58.0801 25.6992 61.0801 27.6992 61.0801" stroke="#043565" stroke-width="2"/>
<path d="M47.1992 35.0805C49.3659 33.4138 54.2992 30.3805 56.6992 31.5805C59.6992 33.0805 66.6992 51.5801 65.6992 54.5801C64.8992 56.9801 63.3659 57.5801 62.6992 57.5801" stroke="#043565" stroke-width="2"/>
<path d="M53.1992 58.5801H58.1992" stroke="#043565" stroke-width="2"/>
</svg>
