<svg width="50" height="62" viewBox="0 0 50 62" fill="none" xmlns="http://www.w3.org/2000/svg">
<g clip-path="url(#clip0_637_1482)">
<path d="M13.3311 39.3087C12.9402 39.2972 12.5494 39.3348 12.168 39.4206V43.0722C12.4793 43.1304 12.7962 43.1542 13.1128 43.1434C14.6099 43.1434 15.5313 42.3936 15.5313 41.1251C15.5313 39.9902 14.7373 39.3087 13.334 39.3087H13.3311ZM24.2281 39.3464C23.8015 39.3369 23.3751 39.3739 22.9567 39.4569V47.5478C23.2797 47.5983 23.6069 47.6173 23.9337 47.6045C26.487 47.6234 28.1496 46.2284 28.1496 43.2771C28.173 40.7037 26.6613 39.3464 24.2325 39.3464H24.2281Z" fill="#F97C60"/>
<path d="M44 22L28 6V22H44Z" fill="white"/>
<path d="M31.2498 0H6.25055C4.59292 0.000385227 3.00329 0.653767 1.83117 1.81649C0.659051 2.97921 0.00038834 4.5561 0 6.20044L0 55.7996C0.00038834 57.4439 0.659051 59.0208 1.83117 60.1835C3.00329 61.3462 4.59292 61.9996 6.25055 62H43.7509C44.5717 62 45.3844 61.8396 46.1427 61.528C46.9009 61.2164 47.5899 60.7596 48.1702 60.1838C48.7505 59.6081 49.2108 58.9245 49.5247 58.1723C49.8387 57.42 50.0002 56.6137 50 55.7996V18.5999L31.2498 0ZM17.1872 43.9887C16.2218 44.8881 14.7965 45.2965 13.1368 45.2965C12.8151 45.2998 12.4936 45.2814 12.1744 45.2412V49.6616H9.37509V37.4555C10.6356 37.2687 11.9093 37.1831 13.1837 37.1997C14.924 37.1997 16.1618 37.5281 16.9924 38.1893C17.4173 38.5358 17.7578 38.9732 17.9883 39.4686C18.2189 39.9641 18.3336 40.5048 18.3239 41.0505C18.3239 42.2653 17.9152 43.2912 17.1769 43.9887H17.1872ZM29.0848 48.1896C27.7664 49.2707 25.7742 49.788 23.3337 49.788C22.2643 49.7966 21.1955 49.7345 20.1345 49.602V37.4569C21.3954 37.2739 22.6688 37.188 23.9431 37.1997C26.3088 37.1997 27.847 37.6211 29.0467 38.5206C30.3431 39.4753 31.1561 40.9909 31.1561 43.1822C31.1502 45.5478 30.2786 47.1811 29.0789 48.1896H29.0848ZM40.6308 39.5872H35.8378V42.4106H40.3129V44.6861H35.8378V49.6587H33.0062V37.2927H40.6234L40.6308 39.5872ZM31.2557 21.6993H28.1253V6.20044L43.7509 21.6993H31.2557Z" fill="#F97C60"/>
</g>
<defs>
<clipPath id="clip0_637_1482">
<rect width="50" height="62" fill="white"/>
</clipPath>
</defs>
</svg>
