<svg width="61" height="49" viewBox="0 0 61 49" fill="none" xmlns="http://www.w3.org/2000/svg">
<path d="M60.6721 1.75683C59.3386 7.85375 57.9803 14.023 55.246 19.6646C51.929 26.5775 46.6806 32.377 40.142 36.3545C33.6033 40.3321 26.0574 42.3155 18.4261 42.0626C12.4893 41.8594 6.67774 40.3198 1.42039 37.5578C0.521907 37.0867 1.01877 35.8005 1.8204 35.5775L14.5679 32.1687C15.8531 31.8287 16.2188 33.6138 15.2079 34.2101C11.3294 36.652 6.93019 38.1339 2.37384 38.5334L2.76923 36.5652L14.4481 46.1296L12.8497 47.5353C10.9932 44.4239 8.11174 42.0629 4.70187 40.859C4.42813 40.7647 4.20307 40.565 4.0762 40.304C3.94994 40.0427 3.93198 39.7414 4.02654 39.4664C4.12113 39.1914 4.32042 38.9651 4.58107 38.8372C4.84169 38.7093 5.14219 38.6903 5.41595 38.7846C9.36433 40.193 12.6921 42.9471 14.8208 46.5681C14.9265 46.7849 14.9578 47.0309 14.9099 47.2678C14.8619 47.5047 14.7374 47.7194 14.5555 47.8783C14.3738 48.0372 14.1449 48.1316 13.9046 48.1467C13.6643 48.1618 13.4259 48.0968 13.2266 47.9618L1.52796 38.3771C0.891392 37.8476 0.918427 36.4812 1.94404 36.3889C6.34029 36.0129 10.5842 34.5768 14.3144 32.2028L14.9545 34.2442L2.22296 37.6452L2.63505 35.6689C7.0697 37.9617 11.9184 39.3418 16.8968 39.7283C21.8753 40.1148 26.8833 39.5 31.6277 37.9199C40.5821 34.8097 48.0507 28.4323 52.5463 20.0573C55.7611 14.1898 57.2056 7.49719 58.6073 1.04607C58.7048 0.773033 58.9047 0.548796 59.1644 0.421392C59.4241 0.293987 59.7228 0.273437 59.9967 0.364262C60.2685 0.461318 60.4913 0.661362 60.6175 0.921622C60.7437 1.18188 60.7633 1.48168 60.6721 1.75683Z" fill="#F97C60"/>
</svg>
