<svg width="168" height="77" viewBox="0 0 168 77" fill="none" xmlns="http://www.w3.org/2000/svg">
<mask id="mask0_1_18" style="mask-type:alpha" maskUnits="userSpaceOnUse" x="0" y="0" width="168" height="77">
<rect width="168" height="77" fill="#D9D9D9"/>
</mask>
<g mask="url(#mask0_1_18)">
<path d="M74.7171 61.1958L75.1568 61.7488L75.88 61.6795L75.8562 62.0604L76.704 62.406L77.2224 62.11L77.2965 62.5828L78.3601 62.3425L78.2528 62.0445L78.6118 61.7591C78.424 61.232 78.5334 60.6325 78.0376 60.2611C78.3339 59.9806 78.2073 59.6065 78.1015 59.3892C77.8507 58.8738 77.9037 58.232 77.5838 57.8141C77.211 57.3258 77.1851 56.7509 76.9717 56.2374C76.7157 55.6211 76.4582 54.9818 76.2542 54.3313C76.055 53.6964 75.8938 52.9909 75.4326 52.4475C75.2429 51.1597 74.4871 50.0891 74.0228 48.9084C73.661 47.9885 73.3499 47.0184 72.7743 46.1748C72.5742 45.8813 72.6511 45.3882 71.9974 45.4363C72.2153 44.9198 72.2311 44.5036 71.8885 44.1015C71.6516 43.804 71.4678 43.4677 71.3454 43.1077C71.0059 42.1862 70.478 41.3647 70.0382 40.4965C69.6346 39.6998 69.1229 38.9568 68.7379 38.1678C68.2186 37.104 67.3718 36.3261 66.7186 35.3879C66.6036 35.2226 66.3473 35.1628 66.1919 35.0164C66.0231 34.8583 65.9264 34.5541 65.7424 34.4987C65.5041 34.4269 65.5103 34.2286 65.3806 34.1186C65.189 33.956 64.9829 33.8104 64.7426 33.6266C64.5264 33.6603 64.2403 33.4228 63.9473 33.657C63.8736 33.7156 63.6205 33.6873 63.5693 33.6147C63.1819 33.0654 62.6526 33.2875 62.1072 33.3504C61.3276 33.8266 61.1046 34.5675 61.3269 35.4773C61.3522 35.5986 61.394 35.7159 61.4509 35.826C61.6863 36.2418 62.0119 36.6262 62.1534 37.0704C62.3093 37.5588 62.6111 37.9155 62.9008 38.2995C63.179 38.6682 63.6206 39.0127 63.6858 39.4172C63.7578 39.8671 64.344 40.0346 64.1727 40.5349C64.6259 40.5743 64.4315 41.1235 64.7503 41.2687C64.7334 41.7084 65.1123 41.9374 65.2758 42.2763C65.4272 42.59 65.6107 42.8918 65.7464 43.2008C66.2025 44.2085 66.7296 45.1825 67.3237 46.1154C67.2935 46.7478 68.0126 47.016 68.0429 47.6457C68.0687 48.1863 68.4804 48.6109 68.7095 49.0804C68.9697 49.613 69.2712 50.1492 69.5657 50.6758C69.8407 51.1675 70.0609 51.6909 70.3275 52.1929C70.7203 52.933 70.9292 53.7693 71.4104 54.476C71.3024 55.02 71.94 55.235 71.954 55.771C71.9658 56.2207 72.2607 56.6658 72.4771 57.0502C73.0053 57.9882 73.1845 59.0459 73.6521 59.9953C73.7629 60.2202 73.8704 60.4466 73.9968 60.7083C74.212 60.5853 74.3739 60.4926 74.6288 60.3467L74.7171 61.1958Z" fill="white"/>
<path d="M55.368 55.1762C55.3768 55.099 55.3844 55.0327 55.3919 54.9667L54.6225 55.0407C54.7238 54.8786 54.7893 54.7744 54.8931 54.6078C54.6819 54.4005 54.4866 54.0474 54.2258 53.9894C53.8024 53.8954 53.9711 53.4795 53.7079 53.3152C53.469 53.1661 53.3263 52.787 53.0883 52.7297C52.7003 52.6364 52.6105 52.3026 52.3616 52.1139C52.0997 51.9362 51.8278 51.7739 51.5472 51.6277L51.3142 51.0216L50.5625 51.1595C50.7576 50.8732 50.8219 50.7788 50.9267 50.625C49.941 50.2345 49.4896 49.1856 48.5545 48.754C48.4578 48.801 48.374 48.8416 48.1529 48.9489C48.2884 48.737 48.3459 48.6472 48.4129 48.5425L47.7978 48.0836C47.6647 48.1676 47.5303 48.2522 47.3337 48.376L47.3203 48.0773L46.9019 47.8833L47.1119 47.4812C46.8493 47.4043 46.5861 47.3278 46.2748 47.2367C46.195 47.2865 46.0608 47.3713 45.8865 47.4809L45.7249 46.7097C45.1077 46.7514 44.4765 46.3366 43.8005 46.5863L43.7474 46.9132C43.478 46.8824 43.4649 46.7803 43.6759 46.3522C43.6417 46.2969 43.6037 46.244 43.5621 46.194C43.5439 46.1743 43.5024 46.1762 43.3983 46.1497C43.3252 46.2878 43.2435 46.4418 43.1532 46.6115L42.5261 46.8064L43.0726 47.1421C42.8478 47.2433 42.6807 47.3186 42.398 47.4458L43.1974 47.8562L43.2576 47.58L43.8291 47.8406L43.3012 48.2604L43.4422 48.9512L44.82 49.7128C44.8897 49.9395 45.5022 50.5344 45.8775 50.7263L45.856 51.0526L46.5127 51.3733L46.5633 51.0963C46.6167 51.1106 46.7131 51.1111 46.7258 51.144C46.8704 51.517 46.8659 51.98 47.4292 52.0637C47.5335 52.0792 47.5979 52.373 47.678 52.5398C48.0441 53.3024 48.6074 53.8217 49.4406 54.0094C49.5041 54.1577 49.5436 54.3443 49.6513 54.4746C49.778 54.6278 50.1171 54.7636 50.0987 54.8521C50.004 55.3102 50.4439 55.1602 50.5851 55.3333C50.7169 55.5132 50.8872 55.6613 51.0836 55.767C51.4652 55.9617 51.7819 56.2993 52.0966 56.6069C53.1515 57.639 54.2964 58.5749 55.5178 59.4032C56.4662 60.0464 57.3806 60.7429 58.3923 61.2815C59.0738 61.6445 59.7763 62.0696 60.5149 62.1928C61.1823 62.3045 61.8668 62.5211 62.6162 62.426C62.6497 62.329 62.6906 62.2115 62.7369 62.0761L62.999 62.0872L63.0872 61.0653C62.824 60.8832 62.524 60.7135 62.067 60.8475C62.2414 60.6607 62.3683 60.5247 62.5051 60.378L62.3274 60.1545C62.1937 60.1967 62.0763 60.2339 61.9564 60.2718L61.9141 59.8685L61.5546 59.7744L61.6046 59.1185C61.2187 59.1147 60.9031 59.149 60.602 59.0978C60.3098 59.0481 60.1721 58.5677 59.7091 58.8021C59.6852 58.8728 59.6455 58.9902 59.5838 59.173L59.1413 58.6716L59.6364 58.6989C59.4684 58.5085 59.3747 58.3142 59.2255 58.2506C58.8862 58.0934 58.5668 57.8964 58.2739 57.6638C57.9977 57.4524 57.7391 57.2188 57.5008 56.9654C57.2821 56.7434 57.0026 56.5818 56.7821 56.3614C56.5491 56.1286 56.3817 55.8253 56.1341 55.6129C55.9148 55.4247 55.6241 55.3175 55.368 55.1762Z" fill="white"/>
<path d="M31.9254 65.816L31.2662 66.34C31.1967 66.832 31.3056 67.25 31.7223 67.679C31.8293 67.665 32.0269 67.639 32.26 67.608C32.353 68.38 33.2021 68.027 33.4161 68.521C34.2684 68.798 35.1547 68.805 35.9692 69.135C36.0984 69.169 36.2315 69.186 36.3651 69.185C37.2935 69.297 38.2099 69.493 39.103 69.77C39.7303 69.939 40.3691 70.061 41.0142 70.137C41.7139 70.22 42.3997 70.394 43.0538 70.656C43.1829 70.691 43.3159 70.708 43.4494 70.707C43.9766 70.773 44.5221 70.777 45.0246 70.925C45.4296 71.045 45.8406 71.045 46.2434 71.116C46.939 71.239 47.6586 71.228 48.3687 71.267C49.0834 71.306 49.7988 71.363 50.5136 71.358C50.8115 71.356 51.109 71.215 51.4187 71.134L51.4779 69.901C51.427 69.579 50.9215 69.799 50.6174 69.613L50.6115 69.266L49.5876 68.412C48.1896 68.109 46.6337 67.699 45.0399 67.428C44.2615 67.296 43.4985 67.086 42.7627 66.8C42.2321 66.592 41.6225 66.584 41.0504 66.468C39.5349 66.16 37.9952 65.864 36.4564 65.809C35.0118 65.758 33.5646 65.439 31.9254 65.816Z" fill="white"/>
<path d="M102.846 66.082L102.422 66.648L102.672 67.33L102.297 67.403L102.177 68.311L102.595 68.738L102.156 68.929L102.658 69.897L102.919 69.718L103.286 69.993C103.748 69.678 104.356 69.632 104.59 69.058C104.936 69.274 105.266 69.057 105.45 68.9C105.885 68.527 106.519 68.416 106.843 68C107.221 67.516 107.77 67.346 108.213 67.009C108.745 66.606 109.298 66.195 109.876 65.833C110.44 65.48 111.081 65.145 111.49 64.5615C112.688 64.0521 113.533 63.0501 114.558 62.3022C115.356 61.7195 116.216 61.1731 116.887 60.4028C117.12 60.1349 117.616 60.0846 117.405 59.4643C117.959 59.5444 118.366 59.4545 118.668 59.0213C118.896 58.7168 119.175 58.454 119.492 58.2444C120.298 57.6829 120.959 56.9643 121.688 56.3192C122.357 55.7272 122.946 55.0441 123.612 54.4721C124.51 53.7005 125.048 52.6845 125.791 51.8152C125.921 51.6621 125.914 51.399 126.017 51.2116C126.127 51.0084 126.397 50.8378 126.404 50.6458C126.413 50.3971 126.607 50.3529 126.68 50.1996C126.789 49.9731 126.878 49.7369 126.995 49.4579C126.908 49.2572 127.065 48.9204 126.764 48.6962C126.689 48.6397 126.652 48.3877 126.709 48.3197C127.143 47.806 126.794 47.3501 126.595 46.8383C125.937 46.2046 125.164 46.1763 124.34 46.6215C124.229 46.6767 124.126 46.7467 124.034 46.8297C123.691 47.1627 123.402 47.5748 123.008 47.8242C122.575 48.0985 122.306 48.4808 122.008 48.8582C121.722 49.2206 121.5 49.735 121.125 49.9003C120.708 50.0838 120.694 50.6933 120.167 50.6542C120.244 51.1026 119.663 51.0535 119.603 51.3986C119.174 51.4935 119.048 51.918 118.761 52.162C118.496 52.3878 118.251 52.6416 117.986 52.8512C117.126 53.5473 116.317 54.3037 115.565 55.1144C114.946 55.2452 114.868 56.0088 114.267 56.1974C113.75 56.3592 113.443 56.8649 113.047 57.2052C112.598 57.5918 112.155 58.0191 111.72 58.4372C111.314 58.8277 110.864 59.1731 110.445 59.558C109.829 60.1253 109.072 60.5389 108.51 61.1833C107.957 61.2164 107.91 61.8877 107.395 62.0368C106.963 62.162 106.607 62.5599 106.29 62.8665C105.516 63.6148 104.538 64.0558 103.738 64.7483C103.548 64.9124 103.356 65.074 103.135 65.262C103.309 65.439 103.439 65.572 103.645 65.782L102.846 66.082Z" fill="white"/>
<path d="M103.775 45.8399C103.851 45.8289 103.918 45.8194 103.983 45.81L103.717 45.0843C103.9 45.1413 104.017 45.1784 104.204 45.2366C104.351 44.9798 104.644 44.7015 104.634 44.4345C104.618 44.0011 105.063 44.0592 105.155 43.7629C105.239 43.4942 105.57 43.2602 105.565 43.0154C105.557 42.6164 105.857 42.4451 105.977 42.1566C106.082 41.8583 106.171 41.5541 106.241 41.2456L106.768 40.8669L106.445 40.1746C106.771 40.2909 106.879 40.3292 107.054 40.3917C107.183 39.3393 108.083 38.6372 108.264 37.6233C108.194 37.5416 108.134 37.4708 107.974 37.284C108.213 37.3615 108.315 37.3945 108.433 37.4328L108.721 36.7216C108.606 36.6141 108.491 36.5054 108.321 36.3466L108.607 36.2581L108.688 35.8042L109.131 35.9057C109.139 35.6321 109.146 35.3581 109.155 35.0339C109.087 34.9693 108.971 34.8609 108.821 34.7201L109.526 34.3686C109.33 33.782 109.571 33.0665 109.159 32.4755L108.829 32.5069C108.791 32.2385 108.886 32.2 109.354 32.2958C109.399 32.2487 109.44 32.1986 109.478 32.1457C109.492 32.1231 109.48 32.0834 109.479 31.976C109.327 31.9402 109.158 31.9001 108.971 31.8557L108.623 31.2983L108.437 31.9119C108.282 31.7201 108.167 31.5774 107.972 31.3361L107.777 32.2133L108.06 32.2017L107.952 32.8206L107.413 32.416L106.78 32.7272L106.392 34.2528C106.19 34.3776 105.77 35.1207 105.679 35.5324L105.358 35.5941L105.214 36.3106L105.494 36.2895C105.494 36.3447 105.518 36.4381 105.489 36.4587C105.165 36.693 104.716 36.8057 104.777 37.3719C104.789 37.4767 104.521 37.6134 104.38 37.733C103.735 38.2802 103.375 38.9565 103.404 39.8101C103.276 39.9091 103.106 39.9945 103.007 40.1316C102.891 40.293 102.845 40.6554 102.755 40.66C102.288 40.6843 102.544 41.0719 102.413 41.2522C102.272 41.4253 102.172 41.6275 102.119 41.8442C102.027 42.2627 101.781 42.6546 101.563 43.0369C100.831 44.3185 100.215 45.6629 99.7229 47.0541C99.3406 48.1344 98.8981 49.1953 98.6329 50.3103C98.4542 51.0615 98.2206 51.8487 98.2883 52.5944C98.3491 53.2684 98.3127 53.9853 98.5942 54.6864C98.6966 54.6943 98.8206 54.7041 98.9632 54.7146L99.0188 54.971L100.03 54.7978C100.139 54.497 100.228 54.1639 99.9824 53.7557C100.207 53.8771 100.371 53.9655 100.547 54.0608L100.719 53.8323C100.644 53.7137 100.578 53.6095 100.511 53.503L100.891 53.3601V52.9885L101.538 52.8709C101.444 52.4966 101.331 52.2 101.305 51.8957C101.279 51.6004 101.709 51.3457 101.365 50.957C101.29 50.9518 101.167 50.9431 100.974 50.9297L101.347 50.3747L101.446 50.8606C101.588 50.6499 101.752 50.51 101.776 50.3497C101.842 49.9816 101.952 49.6227 102.103 49.2806C102.238 48.9598 102.398 48.6506 102.583 48.3559C102.743 48.0882 102.828 47.7769 102.986 47.5078C103.152 47.2234 103.403 46.9848 103.546 46.6916C103.672 46.4317 103.703 46.1234 103.775 45.8399Z" fill="white"/>
<path d="M87.5508 25.8514L86.8769 25.3462C86.3834 25.4034 86.0066 25.6145 85.6962 26.1264C85.737 26.2263 85.8125 26.4108 85.9014 26.6285C85.1782 26.9137 85.7347 27.6458 85.3102 27.978C85.2585 28.8726 85.476 29.7317 85.3621 30.6034C85.3617 30.737 85.3792 30.8701 85.414 30.9991C85.5403 31.9257 85.5826 32.8618 85.5404 33.796C85.5361 34.4455 85.5791 35.0945 85.6689 35.7378C85.766 36.4357 85.7707 37.1434 85.6826 37.8425C85.6821 37.976 85.6993 38.1089 85.7337 38.2379C85.8035 38.7646 85.9378 39.2933 85.921 39.8172C85.9077 40.2392 86.0121 40.6368 86.0453 41.0444C86.1023 41.7485 86.2941 42.4422 86.4363 43.1389C86.5795 43.8403 86.7057 44.5467 86.8913 45.237C86.9685 45.5247 87.1805 45.7768 87.3372 46.0559L88.5447 45.8014C88.843 45.6708 88.5025 45.2373 88.6051 44.8961L88.9396 44.8026L89.5067 43.596C89.4467 42.1666 89.4491 40.5578 89.3085 38.9472C89.239 38.1608 89.2497 37.3694 89.3403 36.5851C89.4073 36.0192 89.2605 35.4274 89.2281 34.8445C89.1423 33.3005 89.0391 31.7361 88.703 30.2334C88.3877 28.8227 88.3297 27.342 87.5508 25.8514Z" fill="white"/>
<path d="M9.44739 49.678L8.78813 50.2022C8.7186 50.694 8.82752 51.112 9.24429 51.5418C9.35127 51.5276 9.54886 51.5013 9.78193 51.4703C9.8749 52.2421 10.724 51.889 10.938 52.3837C11.7904 52.66 12.6766 52.667 13.4911 52.9977C13.6203 53.0319 13.7534 53.0486 13.887 53.0476C14.8154 53.1598 15.7318 53.3557 16.625 53.6328C17.2523 53.8013 17.891 53.9239 18.5361 53.9997C19.2359 54.0823 19.9217 54.2569 20.5758 54.5189C20.7048 54.5531 20.8378 54.5701 20.9713 54.5695C21.4985 54.6352 22.044 54.6391 22.5466 54.7879C22.9515 54.9074 23.3626 54.907 23.7653 54.978C24.461 55.101 25.1806 55.091 25.8906 55.1296C26.6054 55.1685 27.3207 55.2251 28.0356 55.2202C28.3335 55.2183 28.631 55.077 28.9406 54.996L28.9998 53.7634C28.949 53.4417 28.4435 53.6615 28.1393 53.4759L28.1334 53.1287L27.1096 52.2747C25.7115 51.9712 24.1557 51.5618 22.5618 51.2905C21.7834 51.1587 21.0205 50.9482 20.2847 50.6621C19.7541 50.4541 19.1444 50.4464 18.5723 50.3304C17.0568 50.0227 15.5172 49.7268 13.9784 49.6719C12.5337 49.62 11.0865 49.3015 9.44739 49.678Z" fill="white"/>
<path d="M97.4784 0.0224113L96.8045 -0.482788C96.311 -0.425588 95.9342 -0.214488 95.6238 0.297512C95.6646 0.397412 95.7401 0.581911 95.829 0.799511C95.1058 1.08471 95.6622 1.81691 95.2378 2.14911C95.1861 3.04361 95.4036 3.90281 95.2897 4.77451C95.2893 4.90811 95.3067 5.04111 95.3416 5.17011C95.4679 6.09671 95.5102 7.03281 95.468 7.96711C95.4637 8.61661 95.5067 9.26551 95.5965 9.90881C95.6936 10.6067 95.6982 11.3144 95.6102 12.0135C95.6097 12.147 95.6269 12.28 95.6613 12.409C95.7311 12.9356 95.8653 13.4644 95.8486 13.9882C95.8353 14.4103 95.9397 14.8078 95.9729 15.2154C96.0299 15.9196 96.2217 16.6132 96.3639 17.3099C96.5071 18.0113 96.6333 18.7177 96.8189 19.408C96.8961 19.6958 97.108 19.9478 97.2648 20.2269L98.4723 19.9724C98.7706 19.8418 98.4301 19.4083 98.5327 19.0671L98.8672 18.9736L99.4343 17.767C99.3743 16.3377 99.3767 14.7289 99.2361 13.1182C99.1666 12.3318 99.1773 11.5404 99.2679 10.7562C99.3349 10.1902 99.1881 9.59841 99.1556 9.01561C99.0699 7.47151 98.9667 5.90721 98.6306 4.40451C98.3153 2.99371 98.2573 1.51301 97.4784 0.0224113Z" fill="white"/>
<path d="M35.5825 14.6421L34.3479 14.5385C33.7775 14.995 33.4726 15.5523 33.4853 16.4329C33.6141 16.5256 33.8523 16.6966 34.1331 16.8985C33.4542 17.8186 34.7194 18.2969 34.4497 19.0424C35.0836 20.1978 36.0255 21.099 36.564 22.2745C36.6679 22.4414 36.7935 22.5936 36.9376 22.7272C37.8184 23.7837 38.602 24.9176 39.2788 26.115C39.7806 26.928 40.3408 27.7035 40.955 28.4352C41.6209 29.2294 42.1791 30.1079 42.6152 31.0481C42.7188 31.2149 42.8441 31.3672 42.9877 31.5012C43.4858 32.1033 44.066 32.6575 44.454 33.3237C44.767 33.8601 45.2075 34.2742 45.5672 34.7563C46.1879 35.5896 46.9685 36.3045 47.6898 37.062C48.4158 37.8245 49.1246 38.6065 49.8949 39.3222C50.2157 39.6206 50.6768 39.7693 51.09 39.9949L52.3965 38.7349C52.6665 38.3392 51.9036 38.0646 51.7651 37.5592L52.109 37.1815L51.874 35.2347C50.6832 33.4998 49.4303 31.4924 47.9975 29.5945C47.2969 28.6684 46.6924 27.6735 46.1931 26.6252C45.8347 25.8674 45.1898 25.2443 44.6943 24.5431C43.382 22.6853 42.0319 20.8158 40.4398 19.2051C38.9454 17.6926 37.7171 15.8921 35.5825 14.6421Z" fill="white"/>
<path d="M137.987 16.4413L137.775 15.2207C137.189 14.7843 136.573 14.6303 135.724 14.8654C135.667 15.0135 135.562 15.2871 135.438 15.6099C134.376 15.1859 134.233 16.5309 133.444 16.4585C132.486 17.3641 131.853 18.5034 130.851 19.3218C130.716 19.4644 130.601 19.6245 130.508 19.7977C129.709 20.9172 128.81 21.9621 127.823 22.9198C127.163 23.6109 126.555 24.3491 126.002 25.1284C125.402 25.9736 124.693 26.7359 123.894 27.3957C123.759 27.5381 123.643 27.6978 123.55 27.8706C123.094 28.5049 122.704 29.2064 122.158 29.7503C121.718 30.1888 121.429 30.7198 121.053 31.1897C120.404 32.001 119.91 32.9371 119.36 33.8265C118.806 34.7218 118.228 35.6054 117.731 36.5317C117.523 36.9176 117.496 37.4013 117.382 37.8582L118.932 38.8034C119.383 38.9645 119.456 38.157 119.91 37.8951L120.362 38.1323L122.186 37.4124C123.563 35.8215 125.188 34.1015 126.662 32.2351C127.381 31.3231 128.19 30.4865 129.078 29.7383C129.721 29.1998 130.16 28.4182 130.713 27.7615C132.179 26.0218 133.646 24.2428 134.802 22.295C135.887 20.4665 137.318 18.8227 137.987 16.4413Z" fill="white"/>
<path d="M71.5429 5.03889L70.4596 4.43799C69.7521 4.62019 69.2453 5.00339 68.8957 5.81159C68.9751 5.94899 69.1221 6.20269 69.2954 6.50199C68.2988 7.06259 69.2564 8.01779 68.7046 8.58699C68.8086 9.90079 69.2978 11.1091 69.3067 12.4021C69.3329 12.5969 69.385 12.7873 69.4616 12.9682C69.8315 14.2931 70.0809 15.6486 70.2068 17.0183C70.3308 17.9656 70.5235 18.9026 70.7834 19.822C71.0649 20.8194 71.2136 21.8496 71.2255 22.8859C71.2516 23.0806 71.3033 23.2709 71.3793 23.4519C71.5866 24.2054 71.8882 24.9489 71.9688 25.7156C72.0342 26.3332 72.266 26.8915 72.3962 27.4788C72.6204 28.4934 73.0389 29.4656 73.3859 30.4523C73.7352 31.4456 74.0607 32.4496 74.4696 33.4183C74.6398 33.822 74.9992 34.1468 75.2836 34.5221L76.992 33.909C77.4005 33.6589 76.8174 33.0956 76.8985 32.5778L77.3671 32.3745L77.9514 30.5026C77.5773 28.4319 77.2583 26.0872 76.7303 23.7685C76.4714 22.6366 76.3282 21.4812 76.303 20.3203C76.2871 19.4822 75.9545 18.6494 75.7904 17.8066C75.3558 15.5739 74.8917 13.3152 74.1005 11.193C73.3582 9.20059 72.9767 7.05469 71.5429 5.03889Z" fill="white"/>
<path d="M156.374 48.8055L156.681 47.6053C156.326 46.9669 155.827 46.5736 154.957 46.4398C154.844 46.5515 154.636 46.7579 154.39 47.0012C153.595 46.1789 152.914 47.347 152.223 46.9571C150.979 47.3901 149.933 48.1691 148.685 48.5047C148.503 48.5794 148.332 48.678 148.176 48.7979C146.988 49.4908 145.74 50.075 144.446 50.5433C143.561 50.903 142.703 51.3265 141.88 51.8105C140.986 52.3352 140.027 52.7396 139.027 53.0133C138.846 53.0878 138.674 53.186 138.519 53.3053C137.842 53.6964 137.199 54.1764 136.478 54.4483C135.897 54.6678 135.415 55.0333 134.88 55.3078C133.955 55.7814 133.12 56.4323 132.254 57.0176C131.381 57.6068 130.492 58.1757 129.658 58.8164C129.311 59.0832 129.087 59.5131 128.796 59.8831L129.822 61.3809C130.167 61.7128 130.564 61.0062 131.086 60.9536L131.401 61.3555L133.36 61.4474C135.269 60.5616 137.456 59.6598 139.566 58.5623C140.596 58.0255 141.677 57.5947 142.794 57.2766C143.601 57.0492 144.322 56.5168 145.096 56.1448C147.146 55.1595 149.214 54.139 151.067 52.8368C152.807 51.6145 154.787 50.7026 156.374 48.8055Z" fill="white"/>
</g>
</svg>
