<svg width="73" height="55" viewBox="0 0 73 55" fill="none" xmlns="http://www.w3.org/2000/svg">
<path d="M1 53.9894C1 52.6575 1.94128 51.557 2.73627 50.5394C5.21301 47.3691 7.64466 44.2105 10.4367 41.2943C13.9317 37.6441 17.5242 34.1157 21.5308 31.012C24.8687 28.4263 28.4402 26.1998 31.9371 23.8415C36.7997 20.562 42.1686 18.554 47.541 16.2876C49.0301 15.6594 50.6537 15.5455 52.186 15.0699C52.7358 14.8993 53.7759 14.9905 53.9674 14.416" stroke="#8CE5B5" stroke-width="2" stroke-linecap="round"/>
<path d="M53.9668 14.4147C53.9668 13.719 55.0692 12.7211 55.5452 12.2274C56.4046 11.3362 57.1688 10.4677 58.1271 9.65685C59.7128 8.31504 62.0817 7.33744 64.1589 6.95098C65.8438 6.63751 67.553 6.70294 69.2775 6.70294C69.787 6.70294 72.738 7.28505 71.8255 7.87548C70.9106 8.46753 70.3117 10.0918 69.6383 10.9647C68.9072 11.9123 68.0291 12.9766 66.8648 13.4C65.3367 13.9556 64.34 14.2117 62.6932 14.2117C61.0359 14.2117 59.3785 14.2117 57.7212 14.2117C57.1124 14.2117 56.5035 14.2117 55.8947 14.2117C55.3548 14.2117 54.8087 14.6176 54.1697 14.6176" stroke="#8CE5B5" stroke-width="2" stroke-linecap="round"/>
<path d="M54.3438 13.785C54.4203 13.8615 57.1928 11.7015 57.4708 11.5022C57.9454 11.1621 58.4047 10.6325 58.8936 10.3609C59.296 10.1373 59.3554 9.52377 59.691 9.18824C60.2096 8.6696 58.7503 10.3165 58.2317 10.8351C57.6157 11.4511 56.7293 12.1512 56.3346 12.9407C56.2747 13.0605 56.1864 13.3158 56.2252 13.4514C56.2561 13.5595 56.7253 13.092 56.788 13.0293C57.2241 12.5932 57.5244 12.0279 57.9607 11.5752C58.4048 11.1143 58.7744 10.5826 59.2219 10.1263C59.8475 9.48845 60.45 8.86221 61.0981 8.25014C61.3692 7.99412 61.9006 7.92721 62.13 7.64037C62.253 7.48669 62.3595 7.51606 62.203 7.72897C61.9138 8.12227 61.5711 8.43666 61.1919 8.74004C60.5776 9.23149 59.9383 9.8817 59.4512 10.5016C58.9201 11.1775 57.9651 11.8749 57.7261 12.7114C57.6732 12.8966 57.4009 13.5398 57.4395 13.5035C58.2729 12.7191 59.0489 11.8635 59.8317 11.0228C60.6349 10.16 61.4434 9.31202 62.2707 8.48466C62.5117 8.24368 63.1191 7.63161 63.4434 7.59346C63.7226 7.56062 64.0653 7.08769 64.3294 6.93679C64.9588 6.5771 63.2875 7.94963 62.8284 8.51072C61.806 9.76034 60.3789 10.8884 59.618 12.3257C59.4599 12.6243 59.2437 12.9134 59.0343 13.1752C58.9277 13.3084 58.835 13.4108 58.8467 13.5973C58.8569 13.7611 59.308 13.2298 59.3574 13.1804C60.0892 12.4486 60.7558 11.6434 61.5463 10.9706C62.3793 10.2617 62.9793 9.27214 63.9124 8.67228C64.669 8.18593 65.3309 7.62118 66.0232 7.08272C67.2808 6.10452 63.84 9.40455 62.7815 10.5954C62.1227 11.3366 61.589 12.1776 60.9574 12.9355C60.7609 13.1713 60.5862 13.4899 60.4414 13.7433C60.213 14.1431 60.6036 13.8026 60.7437 13.6912C61.508 13.0832 62.2825 12.4934 63.0264 11.8566C64.5805 10.5264 65.8599 9.02313 67.2896 7.59346C67.5298 7.35332 67.7834 7.15183 68.0192 6.91594C68.5707 6.36447 67.9772 7.27095 67.7535 7.45275C67.1404 7.95084 66.4714 8.5976 65.9971 9.22994C65.6466 9.69733 65.2603 10.6322 64.7098 10.8768C64.3308 11.0453 64.1517 11.5757 63.8655 11.8618C63.5601 12.1672 63.46 12.6947 63.1411 13.0136C62.9245 13.2302 62.7936 13.498 62.5522 13.6912C62.5142 13.7216 62.3165 14.0235 62.3385 14.0455C62.5113 14.2183 62.9091 13.7528 62.9952 13.6495C63.8083 12.6737 64.9855 11.9614 65.8877 11.0592C66.6617 10.2852 67.4984 9.61864 68.3945 9.00062C68.8925 8.65716 69.3503 8.14901 69.7704 7.72897C69.8345 7.66489 70.3389 7.02217 70.3645 7.05145C70.4973 7.2032 66.3337 10.4239 66.018 10.8299C65.7388 11.1888 65.4608 11.5042 65.2466 11.9087C65.1406 12.1089 64.9717 12.6186 64.8036 12.753C64.68 12.8519 64.6804 13.0361 64.59 13.1491C64.3724 13.421 64.9692 13.0096 65.0382 12.9407C65.6515 12.3274 66.203 11.6366 66.7737 10.9759C67.4042 10.2457 68.4798 9.33727 69.4056 9.00062C69.8705 8.83155 70.2811 8.40259 70.672 8.10942C71.4769 7.50575 70.4796 8.80258 70.2186 9.00062C69.8259 9.29849 69.446 9.69492 69.072 10.0273C68.6423 10.4093 68.1264 10.6967 67.717 11.1061C67.4868 11.3363 67.197 11.7169 67.029 12.0026C66.9244 12.1805 66.5496 12.5136 66.5496 12.7114C66.5496 13.0799 67.2405 12.2422 67.2896 12.1902C67.6133 11.8475 67.843 11.4492 68.1808 11.1114C68.3866 10.9055 68.9782 10.7706 68.9782 10.5016" stroke="#8CE5B5" stroke-width="2" stroke-linecap="round"/>
<path d="M40.9378 18.7012C40.9378 18.1872 40.9378 17.6731 40.9378 17.159C40.9378 16.5556 40.6808 16.0276 40.6808 15.424C40.6808 14.9067 40.4238 14.2987 40.4238 13.7176C40.4238 12.9607 40.4238 12.2039 40.4238 11.4471C40.4238 10.5057 40.9634 9.30817 41.3234 8.44829C41.6719 7.61577 42.1183 6.85604 42.4801 6.04214C42.7016 5.54363 43.3749 4.88311 43.7652 4.49277C44.2314 4.02659 44.645 3.55585 45.1147 3.0862C45.2832 2.9177 47.2569 0.687899 47.3566 1.03704C47.4788 1.46474 47.8454 1.9529 48.0349 2.37935C48.2518 2.86727 48.2634 3.30684 48.2634 3.85731C48.2634 4.97454 48.3919 6.06426 48.3919 7.19881C48.3919 8.29026 48.0233 9.36106 47.4923 10.2904C47.2011 10.8 47.1153 11.5749 46.7212 12.0183C46.4163 12.3613 46.1337 12.9545 45.9501 13.3677C45.6959 13.9395 45.2999 14.4181 45.0219 14.9742C44.7984 15.4212 44.3379 15.7742 44.1508 16.1951C43.9099 16.7372 42.8914 17.5031 42.4158 17.873C42.2615 17.993 40.9757 18.9539 41.2948 18.3157C41.5375 17.8303 42.004 17.4762 42.2873 16.9662C42.5389 16.5133 42.7176 16.0933 43.0941 15.7167C43.4834 15.3275 43.937 14.9523 44.2793 14.5244C44.5865 14.1404 44.9503 13.7685 45.2789 13.4034C45.4755 13.185 45.6025 12.984 45.8215 12.7894C46.2077 12.4461 45.8213 12.4442 45.5574 12.6751C44.5529 13.5541 43.516 14.1953 42.5443 15.167C42.2081 15.5031 41.8527 16.1021 41.609 16.5164C41.1773 17.2503 41.0663 16.3167 41.0663 15.9381C41.0663 15.4334 41.0722 14.9624 40.945 14.5172C40.7338 13.7783 42.2583 13.5143 42.7371 13.2749C44.0275 12.6297 45.0845 11.7742 46.2714 10.983C46.6396 10.7375 47.2915 10.2718 47.5923 9.9334C48.2263 9.22014 45.8983 10.838 44.9862 11.1186C44.1422 11.3783 43.392 11.9122 42.6086 12.3039C42.0802 12.5681 41.5459 12.8047 41.0021 13.0464C40.0932 13.4503 40.2826 13.0329 40.9949 12.5038C42.1958 11.6117 43.4933 10.712 44.7934 9.9691C45.4672 9.58404 46.3742 9.29461 46.9497 8.77673C47.265 8.49295 47.7377 8.43423 48.0064 8.09844C48.2775 7.75951 47.8285 7.90566 47.4852 7.90566C46.857 7.90566 46.2666 8.09273 45.7216 8.41973C44.349 9.24326 42.8468 9.89464 41.4519 10.6331C40.5912 11.0888 41.8537 10.0372 42.1016 9.8977C43.2135 9.27229 44.2702 8.48769 45.336 7.77714C46.3186 7.12209 47.3164 6.72494 48.1634 5.87792C48.1979 5.84351 47.572 5.84936 47.4352 5.84936C46.8498 5.84936 46.4813 6.22884 45.9429 6.36343C44.8626 6.63352 43.9236 7.35264 42.8942 7.74858C42.408 7.93557 42.0988 8.48875 41.6447 8.74103C40.6707 9.28212 41.8802 8.05424 42.2801 7.84854C43.4416 7.25122 44.6442 6.49602 45.7501 5.79224C46.2422 5.47912 46.716 5.26904 47.1353 4.84977C47.4429 4.54221 48.0241 4.27706 48.142 3.86445C48.2324 3.54817 47.1977 3.57206 46.8211 3.6931C46.0227 3.94973 45.0712 4.54836 44.3507 5.00684C43.8013 5.35646 43.447 5.89718 42.9656 6.33487C42.6289 6.64095 43.1583 6.18738 43.2797 6.10639C43.7704 5.7793 44.2912 5.45654 44.7934 5.14964C45.5637 4.67892 46.6033 4.08625 47.0782 3.27898C47.1904 3.08825 47.3697 2.97642 47.4637 2.7649C47.6091 2.43775 47.228 2.46663 47.1067 2.31509C46.8328 1.97262 46.2354 2.91522 46.0786 3.15046" stroke="#8CE5B5" stroke-width="2" stroke-linecap="round"/>
<path d="M24.7959 28.0569C24.8988 27.5532 25.0018 27.0496 25.1047 26.5459C25.2256 25.9547 25.5832 25.4889 25.704 24.8975C25.8076 24.3907 26.1812 23.8465 26.2976 23.2771C26.4492 22.5356 26.6008 21.7941 26.7523 21.0526C26.9408 20.1303 26.6519 18.849 26.4715 17.9344C26.2968 17.049 26.0115 16.2152 25.8201 15.3454C25.7029 14.8126 25.1755 14.0306 24.8712 13.57C24.5079 13.0199 24.1969 12.4759 23.8308 11.9217C23.6995 11.7229 22.2123 9.14296 22.0447 9.46505C21.8393 9.85961 21.3824 10.2645 21.1113 10.6443C20.8011 11.0789 20.7017 11.5073 20.5915 12.0466C20.3677 13.1412 20.0236 14.1831 19.7964 15.2946C19.5778 16.364 19.7245 17.4869 20.0586 18.5038C20.2419 19.0614 20.1708 19.8378 20.4681 20.3511C20.6981 20.7482 20.8561 21.386 20.9533 21.8276C21.0878 22.4387 21.3799 22.9869 21.541 23.5874C21.6704 24.0702 22.0509 24.5083 22.1499 24.9581C22.2774 25.5374 23.1218 26.4918 23.5137 26.9494C23.6408 27.0979 24.7082 28.2968 24.5233 27.6076C24.3828 27.0835 23.9967 26.6432 23.8212 26.0868C23.6654 25.5926 23.5745 25.1453 23.281 24.701C22.9776 24.2417 22.6083 23.7832 22.3586 23.2954C22.1345 22.8577 21.8526 22.4205 21.6037 21.997C21.4549 21.7436 21.3706 21.5213 21.1951 21.2867C20.8855 20.8731 21.2644 20.9486 21.4768 21.2277C22.2849 22.29 23.1723 23.1259 23.9297 24.2725C24.1918 24.6692 24.4201 25.3271 24.5759 25.7819C24.8519 26.5874 25.1475 25.6949 25.2233 25.324C25.3244 24.8295 25.413 24.3669 25.6268 23.9562C25.9817 23.2745 24.5409 22.7105 24.1198 22.3801C22.9848 21.4896 22.1205 20.4397 21.1161 19.4268C20.8045 19.1125 20.2591 18.5257 20.0322 18.134C19.5539 17.3082 21.5107 19.3595 22.3481 19.8171C23.1229 20.2406 23.7511 20.9138 24.4402 21.4545C24.905 21.8192 25.381 22.158 25.8654 22.5037C26.6749 23.0815 26.573 22.6346 25.9811 21.9735C24.9832 20.859 23.8922 19.7178 22.7672 18.7295C22.1841 18.2173 21.3535 17.7521 20.8934 17.1294C20.6413 16.7883 20.1899 16.6361 19.9939 16.2533C19.7962 15.8669 20.2068 16.1 20.5432 16.1688C21.1586 16.2946 21.6996 16.5961 22.1681 17.0256C23.3479 18.1073 24.6893 19.0464 25.908 20.0492C26.66 20.668 25.6337 19.3849 25.4187 19.1986C24.4547 18.3632 23.5765 17.3829 22.6745 16.4733C21.843 15.6347 20.945 15.0458 20.2847 14.0463C20.2579 14.0057 20.8699 14.1367 21.004 14.1641C21.5775 14.2814 21.8625 14.727 22.3631 14.9667C23.3674 15.4476 24.1433 16.3402 25.0726 16.9343C25.5115 17.2149 25.7037 17.8188 26.0981 18.1569C26.9439 18.8821 26.0049 17.4368 25.6542 17.1552C24.6359 16.3374 23.6089 15.3567 22.6663 14.4456C22.2469 14.0403 21.8248 13.7396 21.498 13.2449C21.2582 12.8819 20.7418 12.5057 20.709 12.0779C20.6838 11.7499 21.6927 11.9805 22.0374 12.1745C22.7683 12.5859 23.5806 13.3629 24.1947 13.9564C24.6629 14.409 24.9018 15.0097 25.2858 15.5349C25.5544 15.9022 25.1266 15.3519 25.0238 15.2482C24.6086 14.8294 24.1629 14.4089 23.7324 14.0077C23.072 13.3922 22.1721 12.6033 21.8685 11.7173C21.7968 11.508 21.6435 11.3625 21.5937 11.1365C21.5168 10.7868 21.8844 10.8914 22.0336 10.7673C22.3706 10.4866 22.7671 11.5297 22.8736 11.7916" stroke="#8CE5B5" stroke-width="2" stroke-linecap="round"/>
<path d="M8.03803 41.8536C8.22038 41.3729 8.40272 40.8923 8.58506 40.4116C8.7991 39.8474 9.22668 39.445 9.44079 38.8806C9.62427 38.3969 10.0802 37.9197 10.2864 37.3763C10.5548 36.6687 10.8233 35.961 11.0917 35.2534C11.4256 34.3733 11.3458 33.0622 11.3142 32.1305C11.2837 31.2285 11.1358 30.3598 11.0862 29.4705C11.0559 28.9259 10.6607 28.0695 10.4342 27.5661C10.1637 26.9648 9.9439 26.378 9.67137 25.7723C9.57359 25.555 8.51914 22.7701 8.30203 23.0612C8.03607 23.4177 7.52019 23.7441 7.19172 24.0756C6.8159 24.4549 6.64912 24.8617 6.45387 25.3764C6.05759 26.421 5.55091 27.3943 5.14849 28.4551C4.76135 29.4756 4.72616 30.6075 4.89304 31.6648C4.98457 32.2446 4.78994 32.9995 5.00115 33.5538C5.16457 33.9827 5.21834 34.6375 5.24348 35.089C5.27827 35.7137 5.47878 36.3017 5.54151 36.9203C5.59193 37.4175 5.89727 37.9109 5.92288 38.3708C5.95587 38.963 6.63646 40.0404 6.94994 40.555C7.05161 40.7219 7.91299 42.0764 7.84101 41.3665C7.78626 40.8266 7.47574 40.3301 7.39173 39.7527C7.31711 39.24 7.29905 38.7839 7.08056 38.2983C6.85467 37.7963 6.56361 37.2846 6.39533 36.7631C6.2443 36.2951 6.03607 35.8184 5.85833 35.3604C5.75201 35.0865 5.70449 34.8536 5.56878 34.5939C5.32949 34.136 5.69143 34.2712 5.8563 34.5808C6.48373 35.7588 7.22573 36.7261 7.7896 37.9793C7.98467 38.4128 8.10455 39.0989 8.18547 39.5728C8.32879 40.4121 8.76366 39.5785 8.89796 39.2245C9.07698 38.7526 9.23858 38.3102 9.51541 37.9391C9.97493 37.3231 8.64319 36.5355 8.28047 36.1419C7.30283 35.0809 6.61797 33.9061 5.78894 32.7454C5.53169 32.3852 5.0874 31.7185 4.92621 31.2955C4.58642 30.4037 6.18918 32.7421 6.94244 33.3281C7.63941 33.8702 8.15152 34.6354 8.74506 35.2795C9.14539 35.714 9.56097 36.1248 9.98371 36.5436C10.6902 37.2437 10.6612 36.7862 10.1829 36.0388C9.37648 34.7788 8.48251 33.4774 7.53042 32.3216C7.03696 31.7226 6.29161 31.1303 5.93729 30.442C5.74314 30.0648 5.32194 29.8422 5.18988 29.433C5.05658 29.0199 5.42455 29.3158 5.74558 29.4376C6.33289 29.6604 6.81855 30.0447 7.21214 30.5438C8.20334 31.8006 9.37686 32.9425 10.4191 34.1277C11.0622 34.859 10.2549 33.428 10.0725 33.2096C9.25478 32.2305 8.54505 31.1221 7.80055 30.0797C7.11421 29.1188 6.32214 28.3935 5.83063 27.3011C5.81066 27.2567 6.39374 27.4842 6.52168 27.5327C7.06899 27.7404 7.27893 28.2259 7.73456 28.5427C8.64886 29.1784 9.27171 30.1838 10.0938 30.9191C10.482 31.2664 10.5749 31.8933 10.91 32.2903C11.6287 33.1416 10.9334 31.5646 10.6324 31.2304C9.75836 30.2599 8.90181 29.1273 8.1174 28.077C7.76841 27.6097 7.39991 27.2452 7.15661 26.7045C6.97814 26.3078 6.5287 25.8538 6.56482 25.4262C6.59252 25.0984 7.55148 25.4877 7.86061 25.7345C8.51608 26.2576 9.19341 27.1548 9.70442 27.839C10.0941 28.3608 10.2335 28.992 10.5285 29.572C10.7347 29.9776 10.4006 29.3658 10.3158 29.247C9.97304 28.7671 9.60056 28.2806 9.23988 27.8155C8.68665 27.1022 7.92482 26.1793 7.76717 25.2561C7.72992 25.038 7.60189 24.8698 7.58902 24.6387C7.56912 24.2812 7.91526 24.4434 8.08236 24.3447C8.45999 24.1217 8.68416 25.2149 8.74735 25.4905" stroke="#8CE5B5" stroke-width="2" stroke-linecap="round"/>
<path d="M41.2879 19.7872C42.2858 21.0875 43.6386 22.0757 44.8168 23.1967C46.0028 24.3253 47.5737 25.5644 49.1289 26.1525C50.2846 26.5896 51.4714 26.7875 52.6832 27.006C53.3387 27.1242 53.9401 27.0896 54.6024 27.0865C55.1907 27.0837 55.7037 26.8722 56.2771 26.8147C56.6242 26.78 56.964 26.6352 57.2868 26.5187C57.6006 26.4054 57.9422 26.3863 58.2244 26.2096C58.4627 26.0604 58.7526 26.0937 59.0023 26.0205C59.3595 25.9158 59.3967 25.9343 59.2879 25.6152C58.9742 24.6955 58.2362 23.5713 57.3772 23.0712C55.9262 22.2265 54.3091 21.8136 52.7343 21.2723C52.053 21.0381 51.3648 20.7438 50.6482 20.6145C49.9878 20.4954 49.4386 20.1095 48.7637 19.9878C47.5271 19.7648 46.2905 19.5418 45.054 19.3188C44.115 19.1495 43.3337 19.4699 42.4456 19.7303C42.3295 19.7644 41.8767 19.8933 41.9362 19.9041C42.2788 19.9659 42.636 19.9207 42.9846 19.9231C44.1853 19.9316 45.3937 20.1092 46.5949 20.0536C46.8903 20.0399 47.1667 20.0032 47.4582 20.0393C47.4944 20.0437 47.7914 19.9895 47.6363 20.0236C47.4194 20.0712 47.243 20.0947 47.03 20.1745C46.2925 20.4509 45.4842 20.506 44.7534 20.7203C44.3299 20.8444 43.9513 20.9936 43.5325 21.127C43.4229 21.1619 42.9748 21.3215 43.3232 21.2274C43.893 21.0734 44.4606 21.1827 45.0402 21.1332C46.2498 21.03 47.4796 21.0316 48.6856 20.9512C49.0993 20.9237 49.7334 21.0789 50.1151 20.9487C50.7913 20.7181 48.7167 21.2449 48.026 21.4273C47.4438 21.5811 46.804 21.5854 46.2359 21.7792C45.8527 21.9099 45.5121 21.9687 45.1378 22.0062C45.0606 22.0139 44.6404 21.9363 44.6179 22.0612C44.5816 22.2623 45.6768 22.0691 45.7163 22.068C47.2242 22.0259 48.7268 22.1063 50.225 21.9301C50.732 21.8705 51.4157 21.9055 51.8839 21.7458C51.9749 21.7148 52.619 21.5876 52.6007 21.6892C52.5715 21.8514 51.7504 22.0282 51.5814 22.0685C50.6255 22.2963 49.5859 22.6262 48.6021 22.7106C48.0238 22.7602 47.3871 22.8699 46.8274 23.0068C46.6223 23.057 46.4002 22.9522 46.2251 23.047C46.1414 23.0923 45.6685 23.1462 45.5603 23.1396C45.4127 23.1305 45.1151 23.2505 45.4343 23.3081C45.8092 23.3757 46.2345 23.2077 46.62 23.2138C47.2749 23.2242 48.0954 23.2353 48.7374 23.1388C49.3987 23.0393 50.0671 23.0791 50.7142 22.9002C51.8052 22.5986 52.8522 22.6846 53.913 22.4252C54.1966 22.3559 54.9877 22.0376 55.2446 22.2297C55.2836 22.2589 54.2877 22.6855 54.1651 22.7363C53.4575 23.0296 52.438 23.2111 51.6659 23.279C50.261 23.4028 48.8384 23.7599 47.5188 24.21C47.4601 24.23 46.9026 24.2208 46.9545 24.2463C47.1063 24.3209 47.3204 24.2259 47.4848 24.2516C47.7858 24.2987 48.0853 24.3599 48.3852 24.414C49.8987 24.687 51.244 24.4876 52.7038 24.0931C53.4276 23.8975 54.0048 23.5149 54.7907 23.6566C55.2979 23.7481 55.7589 23.5614 56.2458 23.5418C56.4113 23.5352 56.8943 23.405 56.732 23.4383C56.2984 23.5271 55.8627 23.7161 55.4203 23.818C54.6816 23.9882 53.9436 24.0147 53.2048 24.2313C52.8213 24.3437 52.4659 24.4627 52.0895 24.5827C51.6897 24.7101 51.2719 24.8905 50.8613 25.0305C50.4272 25.1786 49.8318 25.1386 49.4438 25.3487C49.2705 25.4426 49.0126 25.3241 48.8548 25.4337C48.8434 25.4416 49.3108 25.5602 49.431 25.5376C49.9233 25.4452 50.5318 25.6689 51.0185 25.7495C51.5835 25.8431 52.108 25.7697 52.6673 25.7388C53.4672 25.6945 54.2136 25.7142 54.9864 25.4876C55.4865 25.3409 55.9382 25.0832 56.4259 24.929C56.9331 24.7688 57.5008 24.5893 58.0115 24.5031C58.2138 24.469 58.5106 24.4108 58.7101 24.4591C59.0162 24.5331 58.5474 24.9771 58.4626 25.036C57.5652 25.6592 51.3609 26.7859 51.3597 25.9492C51.3592 25.6597 51.2532 25.3703 51.5447 25.2176C51.8397 25.063 52.0925 25.0009 52.4136 24.9067C53.2366 24.6654 54.1204 24.7164 54.9368 24.4958C55.5574 24.3281 57.4934 24.3122 57.623 23.5936" stroke="#8CE5B5" stroke-width="2" stroke-linecap="round"/>
<path d="M25.3341 29.261C26.4617 30.4506 27.9098 31.2929 29.1981 32.2855C30.4949 33.2847 32.186 34.354 33.7939 34.7774C34.9887 35.092 36.1897 35.1656 37.4176 35.2571C38.0818 35.3065 38.6764 35.2096 39.3349 35.1378C39.9196 35.0739 40.4079 34.8102 40.9722 34.6935C41.3139 34.6229 41.6367 34.4436 41.9457 34.2942C42.2461 34.1489 42.5838 34.0945 42.8461 33.8894C43.0677 33.7162 43.3595 33.7193 43.6002 33.6205C43.9446 33.4792 43.9835 33.4938 43.8421 33.1877C43.4346 32.3056 42.5839 31.2641 41.6775 30.8559C40.1466 30.1665 38.4954 29.9238 36.8729 29.5491C36.171 29.3869 35.4559 29.1656 34.7297 29.1115C34.0605 29.0617 33.4742 28.7349 32.7903 28.684C31.5373 28.5906 30.2842 28.4973 29.0312 28.4039C28.0797 28.333 27.3359 28.7329 26.4797 29.0842C26.3677 29.1301 25.9307 29.3054 25.991 29.3099C26.3382 29.3358 26.6888 29.2537 27.0358 29.22C28.2308 29.1036 29.4512 29.1548 30.6401 28.9747C30.9324 28.9304 31.2036 28.8652 31.4972 28.8707C31.5337 28.8714 31.8235 28.7866 31.6727 28.8366C31.4619 28.9066 31.289 28.9483 31.0854 29.0498C30.3806 29.4012 29.5824 29.54 28.8778 29.829C28.4695 29.9965 28.1084 30.1842 27.7058 30.3604C27.6003 30.4065 27.1713 30.6118 27.508 30.4819C28.0587 30.2696 28.6346 30.3194 29.2059 30.21C30.3983 29.9816 31.6215 29.8555 32.8127 29.6503C33.2213 29.5799 33.8681 29.6685 34.2343 29.4993C34.8828 29.1997 32.8742 29.9391 32.2061 30.1923C31.6431 30.4057 31.0072 30.4765 30.4623 30.7282C30.0947 30.898 29.7621 30.9918 29.3937 31.068C29.3177 31.0838 28.8917 31.0502 28.8823 31.1767C28.8671 31.3805 29.9363 31.0746 29.9755 31.0694C31.4709 30.871 32.9737 30.7948 34.4455 30.464C34.9435 30.352 35.6272 30.3158 36.0763 30.1084C36.1635 30.0681 36.791 29.8746 36.7833 29.9775C36.7711 30.1419 35.9728 30.4031 35.8089 30.4607C34.8819 30.7866 33.8822 31.2227 32.9124 31.4088C32.3424 31.5182 31.7206 31.6935 31.1781 31.8878C30.9793 31.9589 30.7475 31.8778 30.5832 31.9903C30.5047 32.044 30.0399 32.1468 29.9316 32.1514C29.7839 32.1577 29.5004 32.308 29.8238 32.3321C30.2037 32.3604 30.6093 32.1491 30.9933 32.1152C31.6457 32.0575 32.4629 31.9833 33.0914 31.8206C33.7389 31.6529 34.4078 31.6232 35.0328 31.378C36.0865 30.9647 37.1368 30.9415 38.165 30.5733C38.4398 30.4749 39.1936 30.0762 39.469 30.2405C39.5108 30.2655 38.5646 30.7932 38.4479 30.8565C37.7747 31.2217 36.7796 31.5081 36.0187 31.6559C34.6342 31.9249 33.2564 32.4279 31.9908 33.0126C31.9344 33.0386 31.379 33.0874 31.4332 33.1074C31.5919 33.1658 31.795 33.0491 31.9612 33.0576C32.2655 33.0731 32.5698 33.1029 32.8736 33.1255C34.4073 33.2398 35.7246 32.9018 37.1355 32.3578C37.8351 32.088 38.3695 31.6476 39.1658 31.7069C39.6797 31.7452 40.1189 31.5116 40.6011 31.4416C40.7651 31.4177 41.2319 31.2381 41.0739 31.288C40.6519 31.4214 40.2382 31.6546 39.8088 31.802C39.0917 32.048 38.3605 32.151 37.6482 32.4432C37.2785 32.5948 36.9374 32.7501 36.5755 32.9085C36.191 33.0768 35.7942 33.2996 35.4003 33.4815C34.984 33.6739 34.3877 33.6959 34.0236 33.9452C33.861 34.0566 33.5921 33.9656 33.4466 34.091C33.4361 34.1 33.9133 34.1694 34.0305 34.1345C34.5106 33.9914 35.139 34.1507 35.6314 34.1803C36.2031 34.2147 36.7172 34.0872 37.2702 33.9983C38.0612 33.8712 38.8056 33.8133 39.5507 33.5076C40.0328 33.3098 40.4552 33.0065 40.9244 32.8025C41.4121 32.5905 41.9581 32.353 42.4571 32.2142C42.6548 32.1593 42.9439 32.0706 43.1474 32.0979C43.4595 32.1396 43.0394 32.63 42.9611 32.6974C42.1334 33.4104 36.0796 35.1755 35.9915 34.3434C35.961 34.0555 35.8255 33.7787 36.0995 33.5965C36.3769 33.4122 36.6218 33.3242 36.9314 33.1971C37.7249 32.8716 38.6093 32.8306 39.3983 32.5263C39.9981 32.2951 41.922 32.0782 41.9763 31.35" stroke="#8CE5B5" stroke-width="2" stroke-linecap="round"/>
<path d="M8.57205 42.745C9.96631 43.6068 11.5817 44.0509 13.0809 44.6812C14.5901 45.3156 16.4983 45.9171 18.161 45.9153C19.3966 45.914 20.5765 45.6781 21.787 45.4526C22.4418 45.3306 22.9918 45.0849 23.61 44.8471C24.159 44.6358 24.5637 44.2561 25.0794 43.999C25.3916 43.8433 25.6579 43.5875 25.9184 43.364C26.1716 43.1468 26.4843 43.0078 26.6854 42.7425C26.8553 42.5185 27.1382 42.4468 27.3457 42.2898C27.6425 42.0652 27.6838 42.0692 27.4689 41.8095C26.8494 41.0609 25.7607 40.2715 24.7801 40.1086C23.1239 39.8335 21.4655 40.021 19.8011 40.0735C19.081 40.0962 18.3331 40.0651 17.6173 40.1985C16.9575 40.3214 16.3072 40.1553 15.633 40.2809C14.3977 40.511 13.1624 40.7411 11.9272 40.9712C10.9892 41.146 10.3723 41.7227 9.63438 42.2812C9.53785 42.3542 9.16025 42.6354 9.21967 42.6243C9.56195 42.5606 9.87993 42.3916 10.2067 42.2703C11.3323 41.8523 12.5252 41.5898 13.6286 41.1117C13.8998 40.9941 14.1453 40.8618 14.4306 40.7921C14.4661 40.7834 14.7245 40.6273 14.5916 40.7142C14.4057 40.8357 14.2491 40.9203 14.0782 41.0704C13.4867 41.5904 12.7505 41.9286 12.1432 42.3882C11.7913 42.6545 11.4902 42.9282 11.146 43.2015C11.0559 43.2731 10.6935 43.5812 10.9859 43.3696C11.464 43.0235 12.0335 42.9244 12.5579 42.6726C13.6522 42.147 14.8026 41.7124 15.9017 41.2094C16.2787 41.0369 16.9266 40.9571 17.2374 40.7C17.7878 40.2445 16.0349 41.4729 15.4538 41.8885C14.964 42.2387 14.3674 42.4698 13.905 42.8524C13.593 43.1106 13.2954 43.2863 12.9587 43.4541C12.8893 43.4888 12.4689 43.5652 12.4921 43.69C12.5295 43.8909 13.485 43.3218 13.5216 43.3067C14.9165 42.7326 16.3499 42.2747 17.6882 41.5786C18.1411 41.3431 18.7928 41.1333 19.1739 40.8179C19.2479 40.7566 19.8051 40.4092 19.824 40.5107C19.8542 40.6727 19.1492 41.1293 19.0055 41.2269C18.1926 41.7789 17.3376 42.4561 16.4476 42.884C15.9246 43.1355 15.3682 43.4639 14.8934 43.7904C14.7194 43.9101 14.4746 43.8909 14.3445 44.0416C14.2823 44.1137 13.8593 44.3318 13.7558 44.364C13.6146 44.4079 13.3789 44.6256 13.6977 44.5663C14.0723 44.4965 14.4103 44.1885 14.773 44.0575C15.3889 43.835 16.16 43.5543 16.726 43.2363C17.3091 42.9087 17.9481 42.7089 18.4897 42.3121C19.4028 41.6431 20.4122 41.3522 21.312 40.7334C21.5526 40.568 22.1794 39.9898 22.4877 40.0783C22.5345 40.0917 21.7547 40.8438 21.658 40.9348C21.1005 41.46 20.2117 41.9913 19.5139 42.3288C18.2442 42.9427 17.0408 43.7813 15.9667 44.6701C15.9188 44.7097 15.3943 44.8988 15.4519 44.9043C15.6203 44.9202 15.7868 44.7554 15.9496 44.7211C16.2477 44.6584 16.5495 44.6094 16.8491 44.5536C18.3609 44.272 19.5481 43.6084 20.773 42.7218C21.3804 42.2821 21.7844 41.7197 22.5694 41.5734C23.0761 41.479 23.441 41.141 23.8892 40.95C24.0416 40.885 24.447 40.592 24.307 40.6807C23.9331 40.9176 23.5928 41.2487 23.2154 41.501C22.585 41.9221 21.9044 42.2086 21.2905 42.6732C20.9718 42.9144 20.6817 43.1517 20.3724 43.3973C20.0437 43.6583 19.7171 43.9752 19.3828 44.2518C19.0295 44.5441 18.4587 44.7179 18.1704 45.052C18.0416 45.2013 17.7584 45.182 17.6498 45.3404C17.642 45.3518 18.121 45.2969 18.2254 45.2332C18.653 44.9722 19.3013 44.9655 19.7848 44.8683C20.3463 44.7553 20.8107 44.5007 21.3227 44.2733C22.0548 43.9482 22.7597 43.7019 23.4019 43.2159C23.8174 42.9014 24.1483 42.5002 24.5497 42.1831C24.967 41.8534 25.4341 41.4842 25.8811 41.2224C26.0581 41.1188 26.315 40.9592 26.5186 40.9335C26.8311 40.8941 26.5503 41.4756 26.4919 41.5607C25.8739 42.4616 20.4726 45.7158 20.1747 44.9339C20.0716 44.6634 19.8698 44.4304 20.0882 44.1842C20.3091 43.9351 20.5234 43.7874 20.7903 43.5854C21.4742 43.0678 22.3187 42.8021 23.0037 42.3062C23.5244 41.9293 25.329 41.2278 25.1953 40.5099" stroke="#8CE5B5" stroke-width="2" stroke-linecap="round"/>
<path d="M25.987 28.2462C26.2515 28.272 26.6616 28.3995 26.9147 28.321C27.2692 28.2109 27.8091 28.0931 28.1749 28.1007C29.0795 28.1195 29.9736 27.6294 30.8935 27.7194C31.8573 27.8138 32.8864 27.6914 33.8074 28.0766C34.29 28.2784 34.8205 28.3115 35.3147 28.4759C35.7954 28.6357 36.3425 28.7919 36.8418 28.8771C37.1862 28.9358 37.6724 29.0802 37.9712 29.2593C38.2725 29.4399 38.6457 29.4565 38.9407 29.6419C39.6747 30.1033 40.4368 30.4987 41.0652 31.1245C41.2704 31.3288 41.6039 31.67 41.8569 31.8134C42.0762 31.9377 42.302 32.3039 42.5631 32.3141C42.9042 32.3273 42.2573 30.9081 42.104 30.7587C41.7252 30.3897 41.2047 30.1723 40.7098 29.9389C40.2405 29.7177 39.7114 29.5075 39.2273 29.3263C38.7654 29.1534 38.3361 28.9745 37.8462 28.9035C34.9962 28.4901 32.2055 27.0919 29.2803 27.9931C28.246 28.3118 27.3399 28.8098 26.3554 29.2172C26.0809 29.3309 25.4831 29.4915 26.0396 29.546C26.5233 29.5933 26.9028 29.8177 27.2766 30.1345C27.7922 30.5716 28.4099 30.9047 28.9194 31.3542C29.3924 31.7716 29.955 32.0732 30.4318 32.4772C30.9281 32.898 31.6919 33.455 32.33 33.6181C32.8802 33.7587 33.3666 34.0032 33.9411 34.0594C34.4879 34.113 34.9961 34.4504 35.5162 34.5013" stroke="#8CE5B5" stroke-width="2" stroke-linecap="round"/>
</svg>
