<svg width="1440" height="717" viewBox="0 0 1440 717" fill="none" xmlns="http://www.w3.org/2000/svg">
<path d="M1429.71 330.994C1432.91 324.543 1436 322.515 1440 324.286L1440 -836.355C1439.28 -836.391 1438.46 -836.461 1437.52 -836.553C1432.17 -837.075 1427.46 -834.901 1420.54 -828.718C1411.47 -820.612 1410.96 -819.428 1410.96 -806.245C1410.96 -790.741 1406.73 -784.265 1388.28 -771.457C1371.31 -759.679 1363.65 -756.615 1361.79 -760.86C1360.08 -764.751 1349.31 -766.272 1335.71 -764.545C1329.86 -763.801 1325.04 -765.473 1316.26 -771.304C1305.83 -778.234 1304.25 -778.662 1301.31 -775.373C1296.8 -770.299 1287.23 -771.532 1287.67 -777.128C1288.16 -783.386 1282.8 -791.172 1278.61 -790.284C1265.97 -787.609 1261.01 -788.004 1261.37 -791.658C1261.83 -796.443 1256.76 -797.043 1249.98 -793.007C1245.71 -790.47 1244.58 -787.169 1243.73 -774.639C1243.16 -766.239 1242.03 -759.432 1241.22 -759.51C1240.41 -759.589 1235.14 -762.996 1229.51 -767.081C1223.88 -771.167 1219.21 -773.86 1219.13 -773.063C1219.05 -772.266 1216.85 -773.042 1214.24 -774.786C1211.63 -776.53 1209.7 -780.05 1209.95 -782.612C1210.49 -788.192 1204.97 -791.405 1196.93 -790.196C1190.87 -789.286 1188.54 -794.328 1189.48 -806.292C1189.7 -809.054 1188.09 -814.189 1185.9 -817.698C1181.94 -824.031 1181.83 -824.056 1172.21 -820.583L1162.52 -817.083L1152.35 -826.008C1140.28 -836.603 1136.94 -837.393 1136.18 -829.823C1135.1 -818.968 1128.86 -806.727 1120.42 -798.937C1112.41 -791.53 1111.87 -790.074 1110.99 -773.456C1110.12 -756.816 1109.74 -755.813 1104.35 -755.573C1100.19 -755.389 1098.48 -753.643 1098.04 -749.111C1097.71 -745.694 1097.03 -789.484 1093.27 -786.626C1089.52 -783.765 1086.23 -779.097 1085.95 -776.25C1085.12 -767.752 1075.16 -769.236 1066.64 -779.123C1062.58 -783.836 1059.34 -788.471 1059.43 -789.424C1059.52 -790.374 1054.8 -745.804 1052.19 -750.175C1046.99 -758.86 1038.58 -761.296 1032.99 -755.738C1028.13 -750.922 1018.44 -752.419 1013.2 -758.794C1010.78 -761.739 1005.49 -766.293 1001.44 -768.916C997.391 -771.536 993.228 -776.842 992.188 -780.703C991.148 -784.565 989.053 -791 987.534 -795.004C986.007 -799.029 985.701 -805.847 986.846 -810.251C989.332 -819.799 986.141 -833.241 981.64 -832.194C979.872 -831.782 978.16 -828.724 977.837 -825.401C977.435 -821.261 976.097 -819.781 973.591 -820.706C961.796 -825.059 960.113 -823.969 955.287 -808.842C952.702 -800.744 949.69 -789.394 948.593 -783.615C945.862 -769.246 944.559 -768.138 931.82 -769.378C925.705 -769.973 920.606 -769.457 920.487 -768.231C920.368 -767.009 916.114 -765.636 911.034 -765.184C903.415 -764.506 900.749 -765.522 895.803 -770.983C887.786 -779.842 877.847 -787.281 873.467 -787.707C871.502 -787.899 868.867 -785.172 867.61 -781.649C864.308 -772.382 848.653 -757.229 842.956 -757.784C838.59 -758.209 838.147 -757.053 838.687 -746.657L841.946 -783.981L835.068 -788.435C826.635 -793.896 821.25 -749.032 820.02 -757.944C819.396 -762.475 817.181 -765.277 813.52 -766.167C810.059 -767.008 807.878 -769.557 807.726 -772.94C807.48 -778.472 802.808 -780.918 775.995 -789.537C760.473 -794.526 758.784 -794.455 758.235 -788.801C757.967 -786.043 756.854 -783.874 755.763 -783.981C754.672 -784.087 752.346 -780.64 750.598 -776.321C748.195 -770.389 745.362 -768.094 739.014 -766.948C734.392 -766.113 730.004 -766.171 729.26 -767.075C726.867 -769.987 730.301 -794.381 733.47 -796.992C738.079 -800.789 737.477 -802.765 731.015 -805.074C725.715 -806.966 717.708 -819.488 713.838 -831.929C712.442 -836.417 711.823 -836.366 704.238 -831.142C699.778 -828.07 693.695 -825.036 690.719 -824.399C686.699 -823.538 685.546 -821.818 686.231 -817.704C686.739 -814.656 686.995 -810.37 686.8 -808.178C686.607 -805.983 689.14 -802.629 692.429 -800.725C697.099 -798.021 698.229 -795.396 697.585 -788.754C696.812 -780.799 696.116 -780.208 686.791 -779.633C681.31 -779.294 675.072 -779.894 672.929 -780.965C670.736 -782.061 666.676 -781.16 663.643 -778.906C660.677 -776.7 654.277 -775.149 649.42 -775.459C641.095 -775.992 640.713 -776.401 642.727 -782.628C645.454 -791.067 641.533 -794.115 634.936 -788.68C627.723 -782.737 620.998 -781.345 617.338 -785.038C615.403 -786.995 611.498 -787.715 607.104 -786.931C603.195 -786.231 599.439 -785.756 598.756 -785.873C598.072 -785.99 591.107 -787.435 583.274 -789.082L571.692 -841L570.99 -833.766C570.603 -829.788 571.855 -824.95 573.767 -823.018C578.365 -818.376 573.212 -812.977 564.951 -813.78C559.118 -814.349 554.327 -846.049 552.148 -823.594L549.924 -800.682L522.333 -804.695C496.621 -808.434 494.304 -809.216 488.342 -816.162L481.942 -823.617L466.026 -818.913C457.272 -816.324 449.589 -815.271 448.952 -816.568C445.593 -823.412 427.522 -815.273 426.674 -806.535C426.054 -800.148 420.851 -796.247 413.865 -796.927C410.698 -797.235 407.998 -796.36 407.864 -794.981C407.73 -793.603 401.988 -793.023 395.104 -793.693C385.925 -794.586 381.383 -796.376 378.068 -800.411C374.888 -804.28 370.211 -806.236 362.283 -807.008C356.088 -807.61 350.927 -807.156 350.815 -806.001C350.702 -804.843 345.908 -802.18 340.16 -800.079C331.3 -796.84 329.592 -795.075 328.925 -788.461L328.14 -780.659L315.879 -784.144C307.624 -786.491 301.867 -786.902 298.257 -785.396C294.922 -784.005 287.29 -784.353 278.095 -786.311C267.761 -788.51 263.212 -788.609 263.02 -786.631C262.869 -785.075 261.056 -783.966 258.99 -784.167C256.925 -784.368 255.084 -782.971 254.899 -781.061C254.469 -776.639 243.005 -770.542 236.341 -771.19C233.54 -771.463 231.146 -770.648 231.023 -769.377C230.66 -765.638 217.385 -765.184 208.785 -768.616C198.527 -772.712 175.671 -771.389 171.267 -766.446C166.341 -760.911 157.183 -762.363 159.377 -768.331C160.889 -772.45 159.238 -773.383 145.371 -776.25C135.759 -778.236 124.186 -778.838 115.595 -777.799C98.3462 -775.715 81.8958 -777.251 81.0317 -781.026C79.1932 -789.081 48.9855 -784.487 28.4667 -773.028C24.061 -770.569 18.8684 -769.633 15.8333 -770.75C13.001 -771.795 8.55835 -771.765 5.96155 -770.682C4.37634 -770.02 2.42004 -769.898 -0.000488281 -770.334L1.97156 560.315L2.25415 560.468C11.4662 565.446 12.5492 565.582 19.7234 562.629C25.3796 560.304 30.0435 560.139 37.6254 561.999C47.4171 564.403 48.1141 564.247 53.1938 558.53C60.124 550.729 74.0602 537.784 77.3694 536.071C78.7993 535.332 81.5624 535.517 83.5101 536.484C85.4579 537.452 90.8071 538.605 95.3982 539.046C103.331 539.807 104.055 540.228 109.934 547.464C115.738 554.61 116.549 555.09 123.026 555.203C126.823 555.269 130.589 555.618 131.393 555.98C136.59 558.312 148.838 550.157 158.952 537.629C160.772 535.376 164.285 533.469 166.762 533.394C170.74 533.27 171.728 534.749 175.253 546.108C178.391 556.219 180.115 559.098 183.326 559.594C185.572 559.943 188.632 561.838 190.125 563.807C191.619 565.777 195.3 569.515 198.305 572.115C205.162 578.046 209.084 576.737 214.099 566.843L217.637 559.863L225.08 562.912C229.176 564.588 232.88 565.242 233.315 564.365C233.75 563.486 235.915 563.668 238.126 564.766C240.336 565.863 243.647 566.095 245.483 565.279C247.32 564.464 249.317 564.593 249.923 565.567C250.527 566.542 253.035 565.465 255.492 563.175C257.949 560.886 261.512 559.335 263.409 559.729C265.832 560.234 267.66 558.828 269.555 555.002C271.916 550.236 272.449 549.999 273.821 553.098C275.128 556.044 276.571 556.596 282.456 556.4C288.992 556.18 289.812 556.558 293.387 561.437C298.804 568.828 301.15 569.552 309.999 566.566C315.553 564.693 318.574 564.732 320.617 566.706C322.187 568.224 326.615 569.825 330.458 570.263C335.923 570.887 337.904 570.133 339.554 566.803C340.714 564.46 344.529 559.893 348.034 556.656C353.168 551.909 354.669 551.368 355.775 553.864C356.648 555.836 361.03 558.468 367.845 561.114L378.543 565.271L373.919 571.754C371.378 575.32 366.005 580.535 361.98 583.343C355.923 587.568 354.849 589.032 355.743 591.847C356.338 593.717 357.742 598.426 358.865 602.313C360.553 608.155 361.953 609.703 366.935 611.243C373.139 613.162 381.235 623.008 379.496 626.517C379.028 627.462 379.871 628.845 381.369 629.589C383.568 630.681 384.447 629.692 385.925 624.439C387.969 617.193 396.901 609.88 401.138 611.985C404.01 613.411 409.316 611.088 416.098 605.432C419.685 602.439 425.092 601.183 435.625 600.892C443.636 600.669 451.747 601.235 453.649 602.149C457.288 603.897 475.329 595.654 490.875 585.141C498.117 580.243 500.025 577.767 505.214 566.514C508.505 559.377 511.075 552.22 510.925 550.609C510.712 548.329 511.828 548.501 515.963 551.386C520.225 554.358 522.927 554.692 529.646 553.076C534.251 551.967 540.436 550.487 543.39 549.786C547.845 548.729 549.602 546.815 553.689 538.565C556.399 533.093 558.2 527.379 557.69 525.864C555.719 520.003 561.013 523.057 564.951 530.051C568.472 536.302 570.039 537.558 575.655 538.648C581.007 539.684 582.459 540.713 583.431 544.164C584.089 546.499 584.189 549.293 583.654 550.374C582.324 553.059 602.301 579.362 607.046 581.173C609.145 581.975 611.792 583.629 612.926 584.849C618.237 590.556 623.827 593.902 626.855 593.185C632.259 591.906 655.505 609.471 653.572 613.373C653.235 614.052 654.817 617.08 657.086 620.101C668.219 634.917 674.575 647.768 673.468 653.21C671.697 661.907 674.423 664.546 685.693 665.043C695.142 665.46 695.616 665.225 698.078 658.904C700.489 652.71 700.997 652.425 706.872 653.961C710.3 654.858 714.367 655.167 715.907 654.648C717.447 654.128 720.457 654.573 722.596 655.635C724.735 656.697 726.862 656.805 727.323 655.874C728.745 653.004 731.91 655.8 735.515 663.107C740.265 672.74 747.469 676.002 755.032 671.949C758.295 670.199 761.744 667.195 762.697 665.272C763.696 663.254 770.834 659.627 779.589 656.689C787.928 653.891 795.375 650.34 796.139 648.798C797.082 646.895 798.25 646.779 799.774 648.439C801.009 649.782 804.539 650.58 807.617 650.21C811.898 649.696 815.109 650.814 821.288 654.974C825.729 657.964 832.219 662.3 835.71 664.608C839.202 666.916 843.313 670.449 844.847 672.46C846.38 674.468 849.168 676.258 851.043 676.436C855.165 676.826 857.714 681.856 855.776 685.77C855 687.336 855.674 692.196 857.272 696.571C859.704 703.229 861.927 705.628 870.897 711.288C886.188 720.936 888.925 719.73 903.384 696.995C905.326 693.938 907.296 693.419 912.091 694.696C915.497 695.603 920.206 695.296 922.554 694.014C924.901 692.733 927.735 692.136 928.849 692.69C929.964 693.243 935.037 689.833 940.127 685.108C945.216 680.386 951.605 676.037 954.326 675.448C959.151 674.402 959.239 674.249 957.863 669.368C956.524 664.616 956.773 664.075 962.756 658.717C966.223 655.613 968.867 652.5 968.633 651.803C968.399 651.107 964.837 648.682 960.718 646.414C951.494 641.337 950.48 638.945 957.121 637.936C960.939 637.356 962.034 636.383 961.485 634.06C960.96 631.836 961.914 630.012 964.86 627.613C968.306 624.808 968.878 623.012 968.402 616.479C967.854 608.937 967.939 608.741 971.082 610.302C979.213 614.341 990.28 611.223 988.335 605.44C986.904 601.188 990.387 596.25 996.389 594.014C1001.25 592.203 1002.14 591.047 1003.08 585.305C1004.08 579.216 1004.74 578.53 1011.32 576.778C1016.46 575.411 1019.03 573.496 1020.43 569.993C1021.5 567.307 1024.31 563.4 1026.67 561.308L1026.96 561.052C1029.81 558.538 1031.14 557.362 1030.98 556.428C1030.85 555.607 1029.57 554.973 1027.17 553.781L1026.89 553.643C1020.58 550.509 1017.95 541.945 1022.45 539.18C1024.21 538.096 1027.59 537.892 1029.96 538.727C1032.32 539.564 1036.39 540.24 1039.01 540.229C1043.71 540.211 1045.11 541.393 1053.09 552.136C1056.77 557.082 1059.49 557.463 1066.27 553.98C1071.12 551.489 1073.24 549.107 1074.64 544.571C1076.02 540.104 1077.93 537.905 1081.86 536.264C1086.29 534.412 1088.05 532.093 1092.09 522.742C1096.96 511.487 1096.99 511.461 1102.02 513.279C1105.85 514.664 1106.88 516.03 1106.27 518.938C1105.07 524.756 1108.48 526.973 1114.2 524.092C1120.21 521.066 1126.48 523.501 1127.53 529.272C1128.36 533.791 1133.07 540.43 1137.84 543.788C1139.56 544.998 1140.86 548.113 1140.73 550.709C1140.56 554.204 1141.52 555.583 1144.42 556.021C1146.58 556.347 1153.09 558.824 1158.9 561.528C1164.7 564.232 1170.38 566.133 1171.51 565.753C1172.64 565.371 1175.89 561.357 1178.74 556.83C1183.46 549.328 1184.42 548.702 1189.67 549.749C1194.03 550.623 1195.58 551.8 1196.09 554.637C1196.59 557.39 1198.18 558.652 1202.14 559.437C1205.1 560.022 1210.21 562.039 1213.51 563.918C1216.81 565.797 1220.41 566.77 1221.52 566.08C1222.62 565.39 1225.01 565.558 1226.81 566.455C1228.62 567.352 1230.47 567.323 1230.93 566.392C1232.55 563.116 1237.97 567.838 1239.87 574.19C1241.47 579.535 1242.94 581.007 1248.62 582.947C1257.43 585.954 1266.02 584.877 1268.19 580.492C1270.63 575.576 1270.09 568.964 1267.13 567.495C1265.68 566.776 1265.25 563.865 1266.11 560.661C1267.09 557.006 1266.59 554.57 1264.65 553.606C1261.01 551.801 1259.32 545.622 1262.01 543.949C1263.09 543.276 1265.33 543.399 1266.99 544.223C1268.65 545.048 1272.15 544.884 1274.75 543.858C1277.36 542.831 1280.89 542.689 1282.61 543.541C1285.03 544.743 1286.37 543.801 1288.57 539.346C1290.33 535.802 1290.63 532.748 1289.37 531.368C1288.16 530.062 1288.37 527.001 1289.85 524.001C1291.25 521.179 1291.6 518.473 1290.62 517.987C1288.26 516.814 1289.24 502.834 1291.86 500.424C1292.99 499.38 1295.37 499.253 1297.16 500.139C1299.7 501.404 1301.45 500.236 1305.31 494.698C1308.52 490.099 1311.08 488.067 1312.66 488.855C1314 489.52 1315.47 489.301 1315.93 488.37C1316.39 487.439 1318.29 487.433 1320.15 488.357C1322.6 489.574 1324.09 488.907 1325.56 485.943C1328.51 479.998 1331.94 477.334 1334.81 478.763C1338.57 480.627 1349.88 479.391 1351.07 476.987C1352.25 474.605 1345.83 466.156 1338.95 461.048C1323.11 449.281 1319.77 446.415 1318.47 443.482C1317.67 441.681 1315 439.768 1312.53 439.229C1310.06 438.689 1305.49 435.748 1302.39 432.695C1297.92 428.287 1297.14 426.251 1298.63 422.812C1299.67 420.429 1302.78 417.404 1305.54 416.088C1309.6 414.153 1310.6 412.738 1310.73 408.707C1310.88 404.359 1311.93 403.361 1318.92 400.913C1323.33 399.371 1327.21 397.565 1327.54 396.901C1327.87 396.238 1330.81 396.032 1334.08 396.445C1337.36 396.857 1340.42 396.411 1340.89 395.455C1341.4 394.425 1343.62 395.159 1346.32 397.251C1350.28 400.311 1351.14 400.292 1352.72 397.108C1353.72 395.085 1357.31 392.61 1360.71 391.608C1364.1 390.604 1367.42 388.74 1368.09 387.465C1370.12 383.604 1376.07 381.576 1380.78 383.141C1384.29 384.306 1385.91 383.539 1388.39 379.548C1390.52 376.134 1392.76 374.728 1395.26 375.248C1398.02 375.82 1399.71 374.541 1401.81 370.312C1403.36 367.173 1406.71 363.469 1409.25 362.082C1413.49 359.77 1413.77 359.198 1412.65 355.224C1411.98 352.839 1411.88 349.985 1412.42 348.883C1412.97 347.779 1413.23 345.028 1413.01 342.765C1412.48 337.309 1416.34 334.024 1422.59 334.634C1426.1 334.978 1428.29 333.858 1429.71 330.994Z" fill="white"/>
</svg>
