<svg width="105" height="46" viewBox="0 0 105 46" fill="none" xmlns="http://www.w3.org/2000/svg">
<path d="M26.4638 13.1483C26.4638 12.4426 26.4638 11.737 26.4638 11.0313C26.4638 10.4259 25.577 9.87293 25.0258 9.87293C24.8471 9.87293 24.3842 9.79122 24.2891 9.95282C24.1191 10.2418 23.8573 10.3313 23.6322 10.5564C23.1584 11.0302 22.8617 11.5857 22.6292 12.2252C21.9989 13.9586 21.6742 15.7883 21.0492 17.5244C20.9614 17.7684 20.8077 17.9913 20.7918 18.2611C20.7761 18.5286 20.4861 18.7389 20.9161 18.4653C21.3934 18.1615 22.2555 18.0573 22.8067 17.9593C23.4014 17.8536 24.0531 17.8425 24.6308 17.662C25.5971 17.36 26.6871 17.1162 27.5645 16.5835C28.2057 16.1942 29.0465 16.0581 29.6238 15.5449C30.0384 15.1765 30.5381 15.0011 30.5381 14.3866C30.5381 13.835 29.9669 13.3081 29.3797 13.3081C28.8279 13.3081 28.3202 13.0684 27.742 13.0684C27.3933 13.0684 27.2145 13.1546 26.9032 13.2238C26.7991 13.2469 26.5134 13.4158 26.4327 13.3835C26.4119 13.3752 26.7995 13.1944 26.8632 13.1661C27.2248 13.0054 27.6941 13.0684 28.0793 13.0684C28.4118 13.0684 28.8165 13.001 29.14 13.0729C29.8138 13.2226 29.8191 13.696 29.8191 14.3023C29.8191 14.5298 29.468 14.9769 29.2244 14.9769C29.1063 14.9769 29.2282 14.0956 29.1622 13.9472C29.1274 13.8687 28.9664 13.2217 28.8427 13.5655C28.6626 14.0657 28.6593 14.6343 28.5009 15.1411C28.4724 15.2324 28.3399 15.9355 28.2613 15.9355C28.1644 15.9355 28.1414 14.8671 28.1414 14.7461C28.1414 14.2218 27.8509 13.0387 27.3426 14.0271C27.1559 14.39 27.0639 14.7886 26.881 15.1544C26.7714 15.3737 26.6422 15.5956 26.6236 15.8467C26.6001 16.1644 26.3839 16.6964 26.3839 16.0553C26.3839 15.6126 26.2983 14.9986 26.4816 14.5863C26.5208 14.498 26.6398 13.7521 26.4993 13.712C26.1149 13.6021 25.9281 14.8375 25.8691 15.0567C25.7332 15.5613 25.4853 16.1534 25.4253 16.6634C25.4002 16.8768 25.3454 16.7233 25.3454 16.5835C25.3454 16.275 25.3102 15.9385 25.3853 15.6381C25.4835 15.2456 25.6649 14.8365 25.6649 14.4265C25.6649 14.107 25.6649 13.7874 25.6649 13.4679C25.6649 12.9629 25.3915 14.0582 25.3454 14.2312C25.1376 15.0104 24.9166 15.8274 24.7107 16.548C24.6535 16.7482 24.5255 16.9168 24.4711 17.1072C24.3258 17.6155 24.5071 16.046 24.6086 15.5272C24.7974 14.5623 24.9033 13.4116 25.2832 12.5092C25.53 11.9232 25.585 11.2741 25.585 10.6319C25.585 10.2688 25.5885 9.96932 25.4075 10.4943C25.1743 11.1705 25.0578 11.8508 24.906 12.5492C24.7635 13.2049 24.8267 14.0017 24.5865 14.6262C24.4443 14.9958 24.5287 15.4252 24.369 15.7846C24.1723 16.2271 24.2152 16.8778 23.9252 17.2403C23.8333 17.3552 23.8088 18.0016 23.6855 17.4622C23.5655 16.9373 23.6677 16.2835 23.6677 15.7447C23.6677 14.6734 23.7476 13.5826 23.7476 12.527C23.7476 11.8821 23.9494 10.8839 24.2669 10.3123C24.3242 10.2092 24.4794 9.44813 24.3246 9.97057C24.1703 10.4912 23.9873 11.171 23.9873 11.7148C23.9873 12.8041 23.6261 13.9332 23.3304 14.968C23.1295 15.6714 23.0133 16.4983 22.7268 17.1427C22.683 17.2414 22.4694 17.9629 22.4694 17.3824C22.4694 16.8231 22.4694 16.2639 22.4694 15.7047C22.4694 15.0863 22.4694 14.4679 22.4694 13.8496C22.4694 13.5639 22.4491 13.2009 22.5893 12.9486C22.6773 12.7902 22.8689 12.3312 22.8689 12.1586C22.8689 11.4995 22.6168 13.4534 22.5316 14.107C22.439 14.8164 22.2821 15.5183 22.2253 16.2284C22.1993 16.5533 22.1176 17.0119 21.9724 17.3025C21.796 17.6552 21.5907 17.6792 21.5907 17.2403C21.5907 16.1955 22.3196 15.1299 22.8689 14.2667C23.1636 13.8036 23.4278 13.3286 23.65 12.8288C23.7647 12.5706 23.7253 12.2458 23.8675 11.9899C24.1202 11.535 24.5093 11.1382 24.7684 10.6718C24.8244 10.571 24.899 10.4531 24.9637 10.37C24.9647 10.3687 24.7544 10.6893 24.7063 10.7916C24.2877 11.6812 24.1471 12.6529 24.1471 13.6365C24.1471 15.029 23.7476 16.351 23.7476 17.733C23.7476 17.8376 23.7278 17.5049 23.792 17.4223C23.8971 17.2872 23.951 17.1059 24.0672 16.9829C24.2833 16.754 24.3746 16.4281 24.6619 16.2639C24.8794 16.1397 25.0868 15.7117 25.2211 15.5006C25.5081 15.0495 25.5991 14.3793 25.7271 13.8673C25.8858 13.2322 26.0644 12.6466 26.0644 11.9899C26.0644 11.7558 26.1443 11.5334 26.1443 11.271C26.1443 11.0064 26.1591 11.2348 26.1043 11.3553C25.9186 11.7638 26.0106 12.2887 25.9667 12.7223C25.8865 13.5142 25.9046 14.3053 25.9046 15.1011C25.9046 15.4961 25.971 15.567 26.2064 15.8024C26.6913 16.2872 27.2598 15.7946 27.4225 15.2254C27.5132 14.9077 27.6621 14.6868 27.6621 14.3466C27.6621 14.0894 27.6621 14.9869 27.6621 15.1499C27.6621 15.5583 27.6621 15.9666 27.6621 16.3749C27.6621 16.4568 27.7287 16.2241 27.7464 16.1441C27.7814 15.9869 27.9574 15.8532 28.0616 15.7491C28.3839 15.4268 29.2252 14.7175 28.6652 14.1869C28.1835 13.7306 27.3238 13.8227 26.7434 13.9516C25.763 14.1695 24.9458 15.2171 24.4178 15.9888C23.8749 16.7823 23.2566 17.5525 22.5493 18.1812C22.3686 18.3419 22.3492 18.1208 22.4872 18.0215C22.7344 17.8434 23.0056 17.7135 23.2772 17.5776C23.9931 17.2197 24.7387 17.1023 25.5052 16.9208C26.3879 16.7117 27.2654 16.7115 28.0926 16.3438C28.5518 16.1397 28.0788 15.9393 27.8219 15.8822C26.8474 15.6657 25.7888 15.9721 24.795 15.7402C24.3368 15.6333 23.6899 15.4873 23.5923 14.9502C23.498 14.4318 23.508 13.7589 23.508 13.2282C23.508 12.8994 23.7212 10.5117 23.0286 11.5506" stroke="#F97C60" stroke-width="2" stroke-linecap="round"/>
<path d="M63.7294 13.1483C63.7294 12.4426 63.7294 11.737 63.7294 11.0313C63.7294 10.4259 62.8426 9.87293 62.2915 9.87293C62.1127 9.87293 61.6498 9.79122 61.5547 9.95282C61.3847 10.2418 61.123 10.3313 60.8979 10.5564C60.424 11.0302 60.1274 11.5857 59.8948 12.2252C59.2645 13.9586 58.9398 15.7883 58.3148 17.5244C58.227 17.7684 58.0733 17.9913 58.0574 18.2611C58.0417 18.5286 57.7517 18.7389 58.1817 18.4653C58.659 18.1615 59.5211 18.0573 60.0724 17.9593C60.6671 17.8536 61.3187 17.8425 61.8965 17.662C62.8627 17.36 63.9527 17.1162 64.8301 16.5835C65.4714 16.1942 66.3121 16.0581 66.8894 15.5449C67.304 15.1765 67.8037 15.0011 67.8037 14.3866C67.8037 13.835 67.2325 13.3081 66.6453 13.3081C66.0935 13.3081 65.5859 13.0684 65.0076 13.0684C64.659 13.0684 64.4801 13.1546 64.1688 13.2238C64.0647 13.2469 63.779 13.4158 63.6984 13.3835C63.6775 13.3752 64.0651 13.1944 64.1289 13.1661C64.4905 13.0054 64.9597 13.0684 65.3449 13.0684C65.6775 13.0684 66.0821 13.001 66.4057 13.0729C67.0795 13.2226 67.0847 13.696 67.0847 14.3023C67.0847 14.5298 66.7337 14.9769 66.49 14.9769C66.3719 14.9769 66.4938 14.0956 66.4279 13.9472C66.393 13.8687 66.2321 13.2217 66.1083 13.5655C65.9282 14.0657 65.9249 14.6343 65.7666 15.1411C65.738 15.2324 65.6056 15.9355 65.5269 15.9355C65.4301 15.9355 65.4071 14.8671 65.4071 14.7461C65.4071 14.2218 65.1165 13.0387 64.6082 14.0271C64.4215 14.39 64.3295 14.7886 64.1466 15.1544C64.037 15.3737 63.9078 15.5956 63.8892 15.8467C63.8657 16.1644 63.6495 16.6964 63.6495 16.0553C63.6495 15.6126 63.5639 14.9986 63.7472 14.5863C63.7864 14.498 63.9055 13.7521 63.7649 13.712C63.3805 13.6021 63.1938 14.8375 63.1347 15.0567C62.9989 15.5613 62.7509 16.1534 62.6909 16.6634C62.6658 16.8768 62.611 16.7233 62.611 16.5835C62.611 16.275 62.5759 15.9385 62.651 15.6381C62.7491 15.2456 62.9306 14.8365 62.9306 14.4265C62.9306 14.107 62.9306 13.7874 62.9306 13.4679C62.9306 12.9629 62.6572 14.0582 62.611 14.2312C62.4032 15.0104 62.1822 15.8274 61.9763 16.548C61.9191 16.7482 61.7911 16.9168 61.7367 17.1072C61.5914 17.6155 61.7728 16.046 61.8743 15.5272C62.063 14.5623 62.1689 13.4116 62.5489 12.5092C62.7956 11.9232 62.8507 11.2741 62.8507 10.6319C62.8507 10.2688 62.8542 9.96932 62.6731 10.4943C62.44 11.1705 62.3234 11.8508 62.1716 12.5492C62.0291 13.2049 62.0923 14.0017 61.8521 14.6262C61.7099 14.9958 61.7944 15.4252 61.6346 15.7846C61.438 16.2271 61.4809 16.8778 61.1908 17.2403C61.0989 17.3552 61.0744 18.0016 60.9511 17.4622C60.8311 16.9373 60.9334 16.2835 60.9334 15.7447C60.9334 14.6734 61.0133 13.5826 61.0133 12.527C61.0133 11.8821 61.215 10.8839 61.5325 10.3123C61.5898 10.2092 61.745 9.44813 61.5902 9.97057C61.436 10.4912 61.2529 11.171 61.2529 11.7148C61.2529 12.8041 60.8917 13.9332 60.5961 14.968C60.3951 15.6714 60.2789 16.4983 59.9925 17.1427C59.9486 17.2414 59.7351 17.9629 59.7351 17.3824C59.7351 16.8231 59.7351 16.2639 59.7351 15.7047C59.7351 15.0863 59.7351 14.4679 59.7351 13.8496C59.7351 13.5639 59.7147 13.2009 59.8549 12.9486C59.9429 12.7902 60.1345 12.3312 60.1345 12.1586C60.1345 11.4995 59.8824 13.4534 59.7972 14.107C59.7047 14.8164 59.5478 15.5183 59.491 16.2284C59.465 16.5533 59.3832 17.0119 59.238 17.3025C59.0616 17.6552 58.8563 17.6792 58.8563 17.2403C58.8563 16.1955 59.5852 15.1299 60.1345 14.2667C60.4292 13.8036 60.6935 13.3286 60.9156 12.8288C61.0303 12.5706 60.991 12.2458 61.1331 11.9899C61.3859 11.535 61.7749 11.1382 62.034 10.6718C62.0901 10.571 62.1647 10.4531 62.2293 10.37C62.2303 10.3687 62.02 10.6893 61.9719 10.7916C61.5533 11.6812 61.4127 12.6529 61.4127 13.6365C61.4127 15.029 61.0133 16.351 61.0133 17.733C61.0133 17.8376 60.9934 17.5049 61.0576 17.4223C61.1627 17.2872 61.2167 17.1059 61.3328 16.9829C61.549 16.754 61.6402 16.4281 61.9275 16.2639C62.145 16.1397 62.3524 15.7117 62.4867 15.5006C62.7737 15.0495 62.8647 14.3793 62.9927 13.8673C63.1515 13.2322 63.33 12.6466 63.33 11.9899C63.33 11.7558 63.4099 11.5334 63.4099 11.271C63.4099 11.0064 63.4247 11.2348 63.3699 11.3553C63.1842 11.7638 63.2763 12.2887 63.2324 12.7223C63.1522 13.5142 63.1702 14.3053 63.1702 15.1011C63.1702 15.4961 63.2366 15.567 63.472 15.8024C63.9569 16.2872 64.5255 15.7946 64.6881 15.2254C64.7789 14.9077 64.9277 14.6868 64.9277 14.3466C64.9277 14.0894 64.9277 14.9869 64.9277 15.1499C64.9277 15.5583 64.9277 15.9666 64.9277 16.3749C64.9277 16.4568 64.9943 16.2241 65.0121 16.1441C65.047 15.9869 65.223 15.8532 65.3272 15.7491C65.6495 15.4268 66.4909 14.7175 65.9308 14.1869C65.4492 13.7306 64.5894 13.8227 64.009 13.9516C63.0286 14.1695 62.2114 15.2171 61.6834 15.9888C61.1405 16.7823 60.5222 17.5525 59.8149 18.1812C59.6342 18.3419 59.6149 18.1208 59.7528 18.0215C60.0001 17.8434 60.2712 17.7135 60.5428 17.5776C61.2587 17.2197 62.0044 17.1023 62.7708 16.9208C63.6535 16.7117 64.531 16.7115 65.3583 16.3438C65.8175 16.1397 65.3444 15.9393 65.0875 15.8822C64.113 15.6657 63.0544 15.9721 62.0607 15.7402C61.6024 15.6333 60.9556 15.4873 60.8579 14.9502C60.7637 14.4318 60.7736 13.7589 60.7736 13.2282C60.7736 12.8994 60.9869 10.5117 60.2943 11.5506" stroke="#F97C60" stroke-width="2" stroke-linecap="round"/>
<path d="M99.3818 13.1483C99.3818 12.4426 99.3818 11.737 99.3818 11.0313C99.3818 10.4259 98.4949 9.87293 97.9438 9.87293C97.7651 9.87293 97.3021 9.79122 97.2071 9.95282C97.0371 10.2418 96.7753 10.3313 96.5502 10.5564C96.0764 11.0302 95.7797 11.5857 95.5472 12.2252C94.9168 13.9586 94.5922 15.7883 93.9672 17.5244C93.8793 17.7684 93.7256 17.9913 93.7098 18.2611C93.694 18.5286 93.4041 18.7389 93.834 18.4653C94.3114 18.1615 95.1734 18.0573 95.7247 17.9593C96.3194 17.8536 96.971 17.8425 97.5488 17.662C98.515 17.36 99.605 17.1162 100.482 16.5835C101.124 16.1942 101.964 16.0581 102.542 15.5449C102.956 15.1765 103.456 15.0011 103.456 14.3866C103.456 13.835 102.885 13.3081 102.298 13.3081C101.746 13.3081 101.238 13.0684 100.66 13.0684C100.311 13.0684 100.132 13.1546 99.8212 13.2238C99.7171 13.2469 99.4314 13.4158 99.3507 13.3835C99.3299 13.3752 99.7175 13.1944 99.7812 13.1661C100.143 13.0054 100.612 13.0684 100.997 13.0684C101.33 13.0684 101.734 13.001 102.058 13.0729C102.732 13.2226 102.737 13.696 102.737 14.3023C102.737 14.5298 102.386 14.9769 102.142 14.9769C102.024 14.9769 102.146 14.0956 102.08 13.9472C102.045 13.8687 101.884 13.2217 101.761 13.5655C101.581 14.0657 101.577 14.6343 101.419 15.1411C101.39 15.2324 101.258 15.9355 101.179 15.9355C101.082 15.9355 101.059 14.8671 101.059 14.7461C101.059 14.2218 100.769 13.0387 100.261 14.0271C100.074 14.39 99.9819 14.7886 99.799 15.1544C99.6893 15.3737 99.5602 15.5956 99.5416 15.8467C99.518 16.1644 99.3019 16.6964 99.3019 16.0553C99.3019 15.6126 99.2163 14.9986 99.3995 14.5863C99.4388 14.498 99.5578 13.7521 99.4173 13.712C99.0328 13.6021 98.8461 14.8375 98.7871 15.0567C98.6512 15.5613 98.4032 16.1534 98.3432 16.6634C98.3181 16.8768 98.2634 16.7233 98.2634 16.5835C98.2634 16.275 98.2282 15.9385 98.3033 15.6381C98.4014 15.2456 98.5829 14.8365 98.5829 14.4265C98.5829 14.107 98.5829 13.7874 98.5829 13.4679C98.5829 12.9629 98.3095 14.0582 98.2634 14.2312C98.0556 15.0104 97.8346 15.8274 97.6287 16.548C97.5715 16.7482 97.4434 16.9168 97.389 17.1072C97.2438 17.6155 97.4251 16.046 97.5266 15.5272C97.7154 14.5623 97.8212 13.4116 98.2012 12.5092C98.4479 11.9232 98.503 11.2741 98.503 10.6319C98.503 10.2688 98.5065 9.96932 98.3255 10.4943C98.0923 11.1705 97.9758 11.8508 97.824 12.5492C97.6814 13.2049 97.7446 14.0017 97.5044 14.6262C97.3623 14.9958 97.4467 15.4252 97.2869 15.7846C97.0903 16.2271 97.1332 16.8778 96.8431 17.2403C96.7512 17.3552 96.7267 18.0016 96.6035 17.4622C96.4835 16.9373 96.5857 16.2835 96.5857 15.7447C96.5857 14.6734 96.6656 13.5826 96.6656 12.527C96.6656 11.8821 96.8673 10.8839 97.1849 10.3123C97.2421 10.2092 97.3974 9.44813 97.2426 9.97057C97.0883 10.4912 96.9053 11.171 96.9053 11.7148C96.9053 12.8041 96.5441 13.9332 96.2484 14.968C96.0474 15.6714 95.9312 16.4983 95.6448 17.1427C95.601 17.2414 95.3874 17.9629 95.3874 17.3824C95.3874 16.8231 95.3874 16.2639 95.3874 15.7047C95.3874 15.0863 95.3874 14.4679 95.3874 13.8496C95.3874 13.5639 95.3671 13.2009 95.5072 12.9486C95.5952 12.7902 95.7868 12.3312 95.7868 12.1586C95.7868 11.4995 95.5348 13.4534 95.4495 14.107C95.357 14.8164 95.2001 15.5183 95.1433 16.2284C95.1173 16.5533 95.0356 17.0119 94.8903 17.3025C94.714 17.6552 94.5086 17.6792 94.5086 17.2403C94.5086 16.1955 95.2376 15.1299 95.7868 14.2667C96.0816 13.8036 96.3458 13.3286 96.568 12.8288C96.6827 12.5706 96.6433 12.2458 96.7854 11.9899C97.0382 11.535 97.4273 11.1382 97.6864 10.6718C97.7424 10.571 97.817 10.4531 97.8817 10.37C97.8827 10.3687 97.6724 10.6893 97.6243 10.7916C97.2056 11.6812 97.065 12.6529 97.065 13.6365C97.065 15.029 96.6656 16.351 96.6656 17.733C96.6656 17.8376 96.6458 17.5049 96.71 17.4223C96.815 17.2872 96.869 17.1059 96.9852 16.9829C97.2013 16.754 97.2926 16.4281 97.5799 16.2639C97.7973 16.1397 98.0047 15.7117 98.1391 15.5006C98.4261 15.0495 98.517 14.3793 98.645 13.8673C98.8038 13.2322 98.9823 12.6466 98.9823 11.9899C98.9823 11.7558 99.0622 11.5334 99.0622 11.271C99.0622 11.0064 99.0771 11.2348 99.0223 11.3553C98.8366 11.7638 98.9286 12.2887 98.8847 12.7223C98.8045 13.5142 98.8226 14.3053 98.8226 15.1011C98.8226 15.4961 98.889 15.567 99.1244 15.8024C99.6092 16.2872 100.178 15.7946 100.34 15.2254C100.431 14.9077 100.58 14.6868 100.58 14.3466C100.58 14.0894 100.58 14.9869 100.58 15.1499C100.58 15.5583 100.58 15.9666 100.58 16.3749C100.58 16.4568 100.647 16.2241 100.664 16.1441C100.699 15.9869 100.875 15.8532 100.98 15.7491C101.302 15.4268 102.143 14.7175 101.583 14.1869C101.102 13.7306 100.242 13.8227 99.6614 13.9516C98.6809 14.1695 97.8638 15.2171 97.3358 15.9888C96.7928 16.7823 96.1746 17.5525 95.4673 18.1812C95.2866 18.3419 95.2672 18.1208 95.4052 18.0215C95.6524 17.8434 95.9235 17.7135 96.1952 17.5776C96.9111 17.2197 97.6567 17.1023 98.4231 16.9208C99.3059 16.7117 100.183 16.7115 101.011 16.3438C101.47 16.1397 100.997 15.9393 100.74 15.8822C99.7654 15.6657 98.7068 15.9721 97.713 15.7402C97.2547 15.6333 96.6079 15.4873 96.5103 14.9502C96.416 14.4318 96.4259 13.7589 96.4259 13.2282C96.4259 12.8994 96.6392 10.5117 95.9466 11.5506" stroke="#F97C60" stroke-width="2" stroke-linecap="round"/>
<path d="M43.2783 4.35926C43.2783 3.65358 43.2783 2.94791 43.2783 2.24224C43.2783 1.63685 42.3914 1.08387 41.8403 1.08387C41.6616 1.08387 41.1986 1.00216 41.1035 1.16375C40.9336 1.45271 40.6718 1.54225 40.4467 1.76735C39.9729 2.24118 39.6762 2.79667 39.4437 3.43611C38.8133 5.16952 38.4886 6.99927 37.8637 8.73532C37.7758 8.97929 37.6221 9.20226 37.6062 9.47206C37.5905 9.73957 37.3006 9.94982 37.7305 9.67622C38.2078 9.37246 39.0699 9.26827 39.6212 9.17026C40.2159 9.06454 40.8675 9.05346 41.4453 8.8729C42.4115 8.57095 43.5015 8.32713 44.3789 7.79442C45.0202 7.40509 45.8609 7.26905 46.4383 6.75588C46.8528 6.3874 47.3525 6.21202 47.3525 5.59751C47.3525 5.0459 46.7813 4.51903 46.1942 4.51903C45.6423 4.51903 45.1347 4.27937 44.5565 4.27937C44.2078 4.27937 44.0289 4.36553 43.7176 4.43471C43.6136 4.45783 43.3278 4.62674 43.2472 4.59448C43.2264 4.58615 43.614 4.40533 43.6777 4.37701C44.0393 4.2163 44.5086 4.27937 44.8938 4.27937C45.2263 4.27937 45.6309 4.2119 45.9545 4.28381C46.6283 4.43354 46.6335 4.9069 46.6335 5.51319C46.6335 5.74071 46.2825 6.18779 46.0388 6.18779C45.9208 6.18779 46.0427 5.30658 45.9767 5.15813C45.9418 5.07966 45.7809 4.43266 45.6571 4.77645C45.4771 5.27663 45.4738 5.84519 45.3154 6.35201C45.2869 6.44332 45.1544 7.14645 45.0757 7.14645C44.9789 7.14645 44.9559 6.07808 44.9559 5.95701C44.9559 5.43273 44.6654 4.2496 44.157 5.23802C43.9704 5.60095 43.8783 5.99953 43.6955 6.36532C43.5858 6.5846 43.4566 6.80656 43.438 7.05768C43.4145 7.37534 43.1984 7.90737 43.1984 7.26628C43.1984 6.82356 43.1128 6.20955 43.296 5.79723C43.3352 5.70896 43.4543 4.96306 43.3138 4.92291C42.9293 4.81307 42.7426 6.04839 42.6835 6.26768C42.5477 6.77224 42.2997 7.36431 42.2397 7.87431C42.2146 8.08772 42.1598 7.93427 42.1598 7.79442C42.1598 7.48596 42.1247 7.14943 42.1998 6.84909C42.2979 6.45656 42.4794 6.04748 42.4794 5.63746C42.4794 5.31791 42.4794 4.99836 42.4794 4.67881C42.4794 4.1738 42.206 5.26913 42.1598 5.44218C41.9521 6.22137 41.7311 7.03833 41.5252 7.75892C41.468 7.95911 41.3399 8.12771 41.2855 8.31813C41.1403 8.82645 41.3216 7.25695 41.4231 6.73813C41.6119 5.77325 41.7177 4.62258 42.0977 3.72016C42.3444 3.13417 42.3995 2.48501 42.3995 1.8428C42.3995 1.47976 42.403 1.18026 42.222 1.70521C41.9888 2.38143 41.8723 3.06172 41.7205 3.7601C41.5779 4.41582 41.6411 5.21263 41.4009 5.83718C41.2588 6.20676 41.3432 6.6361 41.1834 6.99555C40.9868 7.43802 41.0297 8.08869 40.7396 8.45128C40.6477 8.56613 40.6232 9.21249 40.5 8.67319C40.38 8.14822 40.4822 7.49445 40.4822 6.9556C40.4822 5.88438 40.5621 4.79351 40.5621 3.73791C40.5621 3.09301 40.7638 2.09483 41.0814 1.52325C41.1386 1.42015 41.2938 0.659072 41.1391 1.18151C40.9848 1.70211 40.8017 2.38197 40.8017 2.92572C40.8017 4.015 40.4406 5.14411 40.1449 6.17892C39.9439 6.88236 39.8277 7.7092 39.5413 8.35364C39.4974 8.45233 39.2839 9.17388 39.2839 8.5933C39.2839 8.03409 39.2839 7.47487 39.2839 6.91566C39.2839 6.29727 39.2839 5.67888 39.2839 5.06049C39.2839 4.77483 39.2635 4.41185 39.4037 4.15954C39.4917 4.00111 39.6833 3.54215 39.6833 3.36954C39.6833 2.71042 39.4313 4.66433 39.346 5.31791C39.2535 6.02733 39.0966 6.72921 39.0398 7.43937C39.0138 7.7642 38.9321 8.22287 38.7868 8.51341C38.6105 8.86612 38.4051 8.89018 38.4051 8.45128C38.4051 7.40643 39.1341 6.34082 39.6833 5.47768C39.9781 5.01451 40.2423 4.53957 40.4644 4.03971C40.5792 3.78157 40.5398 3.45673 40.6819 3.20089C40.9347 2.74591 41.3238 2.34911 41.5829 1.88274C41.6389 1.78192 41.7135 1.66409 41.7782 1.58094C41.7792 1.57964 41.5689 1.90028 41.5207 2.00257C41.1021 2.89212 40.9615 3.86383 40.9615 4.84746C40.9615 6.23989 40.5621 7.56196 40.5621 8.94392C40.5621 9.04853 40.5422 8.71581 40.6065 8.63324C40.7115 8.49818 40.7655 8.31684 40.8816 8.19386C41.0978 7.96498 41.1891 7.63903 41.4764 7.47487C41.6938 7.3506 41.9012 6.92263 42.0356 6.7115C42.3226 6.26049 42.4135 5.59024 42.5415 5.07824C42.7003 4.44315 42.8788 3.8575 42.8788 3.20089C42.8788 2.96676 42.9587 2.74432 42.9587 2.4819C42.9587 2.21731 42.9735 2.44572 42.9188 2.56622C42.7331 2.97477 42.8251 3.49961 42.7812 3.93319C42.701 4.72514 42.719 5.51627 42.719 6.31206C42.719 6.70707 42.7855 6.77793 43.0208 7.0133C43.5057 7.49816 44.0743 7.00555 44.2369 6.43633C44.3277 6.11865 44.4766 5.89776 44.4766 5.55757C44.4766 5.3003 44.4766 6.19783 44.4766 6.36088C44.4766 6.7692 44.4766 7.17751 44.4766 7.58583C44.4766 7.66773 44.5431 7.43499 44.5609 7.35504C44.5958 7.19784 44.7719 7.06418 44.876 6.96004C45.1983 6.63772 46.0397 5.92839 45.4796 5.3978C44.998 4.94152 44.1383 5.03359 43.5579 5.16257C42.5774 5.38045 41.7602 6.42803 41.2323 7.1997C40.6893 7.99322 40.0711 8.76347 39.3638 9.39217C39.1831 9.55281 39.1637 9.33172 39.3016 9.2324C39.5489 9.05437 39.82 8.92439 40.0916 8.78858C40.8075 8.43063 41.5532 8.31325 42.3196 8.13173C43.2024 7.92265 44.0799 7.92242 44.9071 7.55476C45.3663 7.35067 44.8932 7.15027 44.6364 7.09319C43.6619 6.87664 42.6032 7.18304 41.6095 6.95116C41.1512 6.84423 40.5044 6.6982 40.4067 6.16117C40.3125 5.64274 40.3224 4.96979 40.3224 4.43914C40.3224 4.11034 40.5357 1.72262 39.8431 2.76151" stroke="#F97C60" stroke-width="2" stroke-linecap="round"/>
<path d="M43.2783 39.0175C43.2783 38.3118 43.2783 37.6061 43.2783 36.9004C43.2783 36.2951 42.3914 35.7421 41.8403 35.7421C41.6616 35.7421 41.1986 35.6604 41.1035 35.822C40.9336 36.1109 40.6718 36.2005 40.4467 36.4256C39.9729 36.8994 39.6762 37.4549 39.4437 38.0943C38.8133 39.8277 38.4886 41.6575 37.8637 43.3935C37.7758 43.6375 37.6221 43.8605 37.6062 44.1303C37.5905 44.3978 37.3006 44.608 37.7305 44.3344C38.2078 44.0307 39.0699 43.9265 39.6212 43.8285C40.2159 43.7227 40.8675 43.7117 41.4453 43.5311C42.4115 43.2292 43.5015 42.9853 44.3789 42.4526C45.0202 42.0633 45.8609 41.9273 46.4383 41.4141C46.8528 41.0456 47.3525 40.8702 47.3525 40.2557C47.3525 39.7041 46.7813 39.1772 46.1942 39.1772C45.6423 39.1772 45.1347 38.9376 44.5565 38.9376C44.2078 38.9376 44.0289 39.0237 43.7176 39.0929C43.6136 39.116 43.3278 39.2849 43.2472 39.2527C43.2264 39.2443 43.614 39.0635 43.6777 39.0352C44.0393 38.8745 44.5086 38.9376 44.8938 38.9376C45.2263 38.9376 45.6309 38.8701 45.9545 38.942C46.6283 39.0917 46.6335 39.5651 46.6335 40.1714C46.6335 40.3989 46.2825 40.846 46.0388 40.846C45.9208 40.846 46.0427 39.9648 45.9767 39.8163C45.9418 39.7379 45.7809 39.0909 45.6571 39.4347C45.4771 39.9348 45.4738 40.5034 45.3154 41.0102C45.2869 41.1015 45.1544 41.8046 45.0757 41.8046C44.9789 41.8046 44.9559 40.7363 44.9559 40.6152C44.9559 40.0909 44.6654 38.9078 44.157 39.8962C43.9704 40.2592 43.8783 40.6577 43.6955 41.0235C43.5858 41.2428 43.4566 41.4648 43.438 41.7159C43.4145 42.0335 43.1984 42.5656 43.1984 41.9245C43.1984 41.4818 43.1128 40.8677 43.296 40.4554C43.3352 40.3672 43.4543 39.6213 43.3138 39.5811C42.9293 39.4713 42.7426 40.7066 42.6835 40.9259C42.5477 41.4304 42.2997 42.0225 42.2397 42.5325C42.2146 42.7459 42.1598 42.5925 42.1598 42.4526C42.1598 42.1442 42.1247 41.8076 42.1998 41.5073C42.2979 41.1148 42.4794 40.7057 42.4794 40.2957C42.4794 39.9761 42.4794 39.6566 42.4794 39.337C42.4794 38.832 42.206 39.9273 42.1598 40.1004C41.9521 40.8796 41.7311 41.6965 41.5252 42.4171C41.468 42.6173 41.3399 42.7859 41.2855 42.9763C41.1403 43.4847 41.3216 41.9152 41.4231 41.3963C41.6119 40.4315 41.7177 39.2808 42.0977 38.3784C42.3444 37.7924 42.3995 37.1432 42.3995 36.501C42.3995 36.138 42.403 35.8385 42.222 36.3634C41.9888 37.0396 41.8723 37.7199 41.7205 38.4183C41.5779 39.074 41.6411 39.8708 41.4009 40.4954C41.2588 40.865 41.3432 41.2943 41.1834 41.6537C40.9868 42.0962 41.0297 42.7469 40.7396 43.1095C40.6477 43.2243 40.6232 43.8707 40.5 43.3314C40.38 42.8064 40.4822 42.1527 40.4822 41.6138C40.4822 40.5426 40.5621 39.4517 40.5621 38.3961C40.5621 37.7512 40.7638 36.753 41.0814 36.1815C41.1386 36.0784 41.2938 35.3173 41.1391 35.8397C40.9848 36.3603 40.8017 37.0402 40.8017 37.5839C40.8017 38.6732 40.4406 39.8023 40.1449 40.8371C39.9439 41.5406 39.8277 42.3674 39.5413 43.0118C39.4974 43.1105 39.2839 43.8321 39.2839 43.2515C39.2839 42.6923 39.2839 42.1331 39.2839 41.5739C39.2839 40.9555 39.2839 40.3371 39.2839 39.7187C39.2839 39.433 39.2635 39.0701 39.4037 38.8177C39.4917 38.6593 39.6833 38.2003 39.6833 38.0277C39.6833 37.3686 39.4313 39.3225 39.346 39.9761C39.2535 40.6855 39.0966 41.3874 39.0398 42.0976C39.0138 42.4224 38.9321 42.8811 38.7868 43.1716C38.6105 43.5243 38.4051 43.5484 38.4051 43.1095C38.4051 42.0646 39.1341 40.999 39.6833 40.1359C39.9781 39.6727 40.2423 39.1978 40.4644 38.6979C40.5792 38.4398 40.5398 38.1149 40.6819 37.8591C40.9347 37.4041 41.3238 37.0073 41.5829 36.5409C41.6389 36.4401 41.7135 36.3223 41.7782 36.2391C41.7792 36.2378 41.5689 36.5585 41.5207 36.6608C41.1021 37.5503 40.9615 38.522 40.9615 39.5057C40.9615 40.8981 40.5621 42.2202 40.5621 43.6021C40.5621 43.7067 40.5422 43.374 40.6065 43.2914C40.7115 43.1564 40.7655 42.975 40.8816 42.8521C41.0978 42.6232 41.1891 42.2972 41.4764 42.1331C41.6938 42.0088 41.9012 41.5808 42.0356 41.3697C42.3226 40.9187 42.4135 40.2484 42.5415 39.7364C42.7003 39.1013 42.8788 38.5157 42.8788 37.8591C42.8788 37.625 42.9587 37.4025 42.9587 37.1401C42.9587 36.8755 42.9735 37.1039 42.9188 37.2244C42.7331 37.633 42.8251 38.1578 42.7812 38.5914C42.701 39.3833 42.719 40.1745 42.719 40.9703C42.719 41.3653 42.7855 41.4361 43.0208 41.6715C43.5057 42.1564 44.0743 41.6638 44.2369 41.0945C44.3277 40.7768 44.4766 40.556 44.4766 40.2158C44.4766 39.9585 44.4766 40.856 44.4766 41.0191C44.4766 41.4274 44.4766 41.8357 44.4766 42.244C44.4766 42.3259 44.5431 42.0932 44.5609 42.0132C44.5958 41.856 44.7719 41.7224 44.876 41.6182C45.1983 41.2959 46.0397 40.5866 45.4796 40.056C44.998 39.5997 44.1383 39.6918 43.5579 39.8208C42.5774 40.0387 41.7602 41.0862 41.2323 41.8579C40.6893 42.6514 40.0711 43.4217 39.3638 44.0504C39.1831 44.211 39.1637 43.9899 39.3016 43.8906C39.5489 43.7126 39.82 43.5826 40.0916 43.4468C40.8075 43.0888 41.5532 42.9715 42.3196 42.7899C43.2024 42.5809 44.0799 42.5806 44.9071 42.213C45.3663 42.0089 44.8932 41.8085 44.6364 41.7514C43.6619 41.5348 42.6032 41.8412 41.6095 41.6094C41.1512 41.5024 40.5044 41.3564 40.4067 40.8194C40.3125 40.3009 40.3224 39.628 40.3224 39.0973C40.3224 38.7685 40.5357 36.3808 39.8431 37.4197" stroke="#F97C60" stroke-width="2" stroke-linecap="round"/>
<path d="M76.0732 39.0175C76.0732 38.3118 76.0732 37.6061 76.0732 36.9004C76.0732 36.2951 75.1863 35.7421 74.6352 35.7421C74.4565 35.7421 73.9935 35.6604 73.8985 35.822C73.7285 36.1109 73.4667 36.2005 73.2416 36.4256C72.7678 36.8994 72.4711 37.4549 72.2386 38.0943C71.6083 39.8277 71.2836 41.6575 70.6586 43.3935C70.5708 43.6375 70.417 43.8605 70.4012 44.1303C70.3854 44.3978 70.0955 44.608 70.5254 44.3344C71.0028 44.0307 71.8648 43.9265 72.4161 43.8285C73.0108 43.7227 73.6624 43.7117 74.2402 43.5311C75.2065 43.2292 76.2965 42.9853 77.1739 42.4526C77.8151 42.0633 78.6559 41.9273 79.2332 41.4141C79.6477 41.0456 80.1474 40.8702 80.1474 40.2557C80.1474 39.7041 79.5762 39.1772 78.9891 39.1772C78.4373 39.1772 77.9296 38.9376 77.3514 38.9376C77.0027 38.9376 76.8239 39.0237 76.5126 39.0929C76.4085 39.116 76.1228 39.2849 76.0421 39.2527C76.0213 39.2443 76.4089 39.0635 76.4726 39.0352C76.8342 38.8745 77.3035 38.9376 77.6887 38.9376C78.0212 38.9376 78.4258 38.8701 78.7494 38.942C79.4232 39.0917 79.4285 39.5651 79.4285 40.1714C79.4285 40.3989 79.0774 40.846 78.8337 40.846C78.7157 40.846 78.8376 39.9648 78.7716 39.8163C78.7367 39.7379 78.5758 39.0909 78.4521 39.4347C78.272 39.9348 78.2687 40.5034 78.1103 41.0102C78.0818 41.1015 77.9493 41.8046 77.8707 41.8046C77.7738 41.8046 77.7508 40.7363 77.7508 40.6152C77.7508 40.0909 77.4603 38.9078 76.9519 39.8962C76.7653 40.2592 76.6733 40.6577 76.4904 41.0235C76.3807 41.2428 76.2516 41.4648 76.233 41.7159C76.2094 42.0335 75.9933 42.5656 75.9933 41.9245C75.9933 41.4818 75.9077 40.8677 76.0909 40.4554C76.1302 40.3672 76.2492 39.6213 76.1087 39.5811C75.7242 39.4713 75.5375 40.7066 75.4785 40.9259C75.3426 41.4304 75.0946 42.0225 75.0346 42.5325C75.0095 42.7459 74.9548 42.5925 74.9548 42.4526C74.9548 42.1442 74.9196 41.8076 74.9947 41.5073C75.0928 41.1148 75.2743 40.7057 75.2743 40.2957C75.2743 39.9761 75.2743 39.6566 75.2743 39.337C75.2743 38.832 75.0009 39.9273 74.9548 40.1004C74.747 40.8796 74.526 41.6965 74.3201 42.4171C74.2629 42.6173 74.1348 42.7859 74.0804 42.9763C73.9352 43.4847 74.1165 41.9152 74.218 41.3963C74.4068 40.4315 74.5127 39.2808 74.8926 38.3784C75.1394 37.7924 75.1944 37.1432 75.1944 36.501C75.1944 36.138 75.1979 35.8385 75.0169 36.3634C74.7837 37.0396 74.6672 37.7199 74.5154 38.4183C74.3728 39.074 74.436 39.8708 74.1958 40.4954C74.0537 40.865 74.1381 41.2943 73.9784 41.6537C73.7817 42.0962 73.8246 42.7469 73.5345 43.1095C73.4427 43.2243 73.4181 43.8707 73.2949 43.3314C73.1749 42.8064 73.2771 42.1527 73.2771 41.6138C73.2771 40.5426 73.357 39.4517 73.357 38.3961C73.357 37.7512 73.5587 36.753 73.8763 36.1815C73.9336 36.0784 74.0888 35.3173 73.934 35.8397C73.7797 36.3603 73.5967 37.0402 73.5967 37.5839C73.5967 38.6732 73.2355 39.8023 72.9398 40.8371C72.7388 41.5406 72.6226 42.3674 72.3362 43.0118C72.2924 43.1105 72.0788 43.8321 72.0788 43.2515C72.0788 42.6923 72.0788 42.1331 72.0788 41.5739C72.0788 40.9555 72.0788 40.3371 72.0788 39.7187C72.0788 39.433 72.0585 39.0701 72.1986 38.8177C72.2867 38.6593 72.4782 38.2003 72.4782 38.0277C72.4782 37.3686 72.2262 39.3225 72.1409 39.9761C72.0484 40.6855 71.8915 41.3874 71.8347 42.0976C71.8087 42.4224 71.727 42.8811 71.5817 43.1716C71.4054 43.5243 71.2 43.5484 71.2 43.1095C71.2 42.0646 71.929 40.999 72.4782 40.1359C72.773 39.6727 73.0372 39.1978 73.2594 38.6979C73.3741 38.4398 73.3347 38.1149 73.4768 37.8591C73.7296 37.4041 74.1187 37.0073 74.3778 36.5409C74.4338 36.4401 74.5084 36.3223 74.5731 36.2391C74.5741 36.2378 74.3638 36.5585 74.3157 36.6608C73.897 37.5503 73.7564 38.522 73.7564 39.5057C73.7564 40.8981 73.357 42.2202 73.357 43.6021C73.357 43.7067 73.3372 43.374 73.4014 43.2914C73.5064 43.1564 73.5604 42.975 73.6766 42.8521C73.8927 42.6232 73.984 42.2972 74.2713 42.1331C74.4888 42.0088 74.6961 41.5808 74.8305 41.3697C75.1175 40.9187 75.2084 40.2484 75.3364 39.7364C75.4952 39.1013 75.6737 38.5157 75.6737 37.8591C75.6737 37.625 75.7536 37.4025 75.7536 37.1401C75.7536 36.8755 75.7685 37.1039 75.7137 37.2244C75.528 37.633 75.62 38.1578 75.5761 38.5914C75.4959 39.3833 75.514 40.1745 75.514 40.9703C75.514 41.3653 75.5804 41.4361 75.8158 41.6715C76.3006 42.1564 76.8692 41.6638 77.0318 41.0945C77.1226 40.7768 77.2715 40.556 77.2715 40.2158C77.2715 39.9585 77.2715 40.856 77.2715 41.0191C77.2715 41.4274 77.2715 41.8357 77.2715 42.244C77.2715 42.3259 77.3381 42.0932 77.3558 42.0132C77.3908 41.856 77.5668 41.7224 77.6709 41.6182C77.9933 41.2959 78.8346 40.5866 78.2745 40.056C77.7929 39.5997 76.9332 39.6918 76.3528 39.8208C75.3723 40.0387 74.5552 41.0862 74.0272 41.8579C73.4842 42.6514 72.866 43.4217 72.1587 44.0504C71.978 44.211 71.9586 43.9899 72.0966 43.8906C72.3438 43.7126 72.6149 43.5826 72.8866 43.4468C73.6025 43.0888 74.3481 42.9715 75.1145 42.7899C75.9973 42.5809 76.8748 42.5806 77.702 42.213C78.1612 42.0089 77.6882 41.8085 77.4313 41.7514C76.4568 41.5348 75.3982 41.8412 74.4044 41.6094C73.9461 41.5024 73.2993 41.3564 73.2017 40.8194C73.1074 40.3009 73.1173 39.628 73.1173 39.0973C73.1173 38.7685 73.3306 36.3808 72.638 37.4197" stroke="#F97C60" stroke-width="2" stroke-linecap="round"/>
<path d="M80.9189 20.7577C80.9189 20.052 80.9189 19.3463 80.9189 18.6407C80.9189 18.0353 80.032 17.4823 79.4809 17.4823C79.3022 17.4823 78.8392 17.4006 78.7442 17.5622C78.5742 17.8511 78.3124 17.9407 78.0873 18.1658C77.6135 18.6396 77.3168 19.1951 77.0843 19.8345C76.454 21.568 76.1293 23.3977 75.5043 25.1338C75.4165 25.3777 75.2627 25.6007 75.2469 25.8705C75.2311 26.138 74.9412 26.3483 75.3711 26.0747C75.8485 25.7709 76.7105 25.6667 77.2618 25.5687C77.8565 25.463 78.5081 25.4519 79.0859 25.2713C80.0522 24.9694 81.1422 24.7256 82.0196 24.1929C82.6608 23.8035 83.5016 23.6675 84.0789 23.1543C84.4934 22.7858 84.9932 22.6105 84.9932 21.996C84.9932 21.4443 84.4219 20.9175 83.8348 20.9175C83.283 20.9175 82.7753 20.6778 82.1971 20.6778C81.8484 20.6778 81.6696 20.764 81.3583 20.8331C81.2542 20.8563 80.9685 21.0252 80.8878 20.9929C80.867 20.9846 81.2546 20.8038 81.3183 20.7754C81.6799 20.6147 82.1492 20.6778 82.5344 20.6778C82.8669 20.6778 83.2716 20.6103 83.5951 20.6822C84.2689 20.832 84.2742 21.3053 84.2742 21.9116C84.2742 22.1391 83.9231 22.5862 83.6794 22.5862C83.5614 22.5862 83.6833 21.705 83.6173 21.5566C83.5824 21.4781 83.4215 20.8311 83.2978 21.1749C83.1177 21.6751 83.1144 22.2436 82.956 22.7504C82.9275 22.8418 82.795 23.5449 82.7164 23.5449C82.6195 23.5449 82.5965 22.4765 82.5965 22.3554C82.5965 21.8312 82.306 20.648 81.7977 21.6365C81.611 21.9994 81.519 22.398 81.3361 22.7638C81.2264 22.983 81.0973 23.205 81.0787 23.4561C81.0551 23.7738 80.839 24.3058 80.839 23.6647C80.839 23.222 80.7534 22.608 80.9366 22.1957C80.9759 22.1074 81.0949 21.3615 80.9544 21.3213C80.5699 21.2115 80.3832 22.4468 80.3242 22.6661C80.1883 23.1707 79.9403 23.7627 79.8803 24.2727C79.8552 24.4862 79.8005 24.3327 79.8005 24.1929C79.8005 23.8844 79.7653 23.5479 79.8404 23.2475C79.9385 22.855 80.12 22.4459 80.12 22.0359C80.12 21.7163 80.12 21.3968 80.12 21.0772C80.12 20.5722 79.8466 21.6676 79.8005 21.8406C79.5927 22.6198 79.3717 23.4368 79.1658 24.1574C79.1086 24.3575 78.9805 24.5262 78.9261 24.7166C78.7809 25.2249 78.9622 23.6554 79.0637 23.1366C79.2525 22.1717 79.3584 21.021 79.7383 20.1186C79.9851 19.5326 80.0401 18.8834 80.0401 18.2412C80.0401 17.8782 80.0436 17.5787 79.8626 18.1037C79.6294 18.7799 79.5129 19.4602 79.3611 20.1585C79.2185 20.8143 79.2817 21.6111 79.0415 22.2356C78.8994 22.6052 78.9838 23.0345 78.8241 23.394C78.6274 23.8365 78.6703 24.4871 78.3802 24.8497C78.2884 24.9646 78.2638 25.6109 78.1406 25.0716C78.0206 24.5467 78.1228 23.8929 78.1228 23.354C78.1228 22.2828 78.2027 21.192 78.2027 20.1363C78.2027 19.4914 78.4044 18.4933 78.722 17.9217C78.7793 17.8186 78.9345 17.0575 78.7797 17.5799C78.6254 18.1006 78.4424 18.7804 78.4424 19.3242C78.4424 20.4134 78.0812 21.5425 77.7855 22.5774C77.5845 23.2808 77.4683 24.1076 77.1819 24.7521C77.1381 24.8508 76.9245 25.5723 76.9245 24.9917C76.9245 24.4325 76.9245 23.8733 76.9245 23.3141C76.9245 22.6957 76.9245 22.0773 76.9245 21.4589C76.9245 21.1733 76.9042 20.8103 77.0443 20.558C77.1324 20.3995 77.3239 19.9406 77.3239 19.768C77.3239 19.1089 77.0719 21.0628 76.9866 21.7163C76.8941 22.4258 76.7372 23.1276 76.6804 23.8378C76.6544 24.1626 76.5727 24.6213 76.4274 24.9118C76.2511 25.2646 76.0457 25.2886 76.0457 24.8497C76.0457 23.8049 76.7747 22.7393 77.3239 21.8761C77.6187 21.413 77.8829 20.938 78.1051 20.4381C78.2198 20.18 78.1804 19.8552 78.3225 19.5993C78.5753 19.1443 78.9644 18.7475 79.2235 18.2812C79.2795 18.1804 79.3541 18.0625 79.4188 17.9794C79.4198 17.9781 79.2095 18.2987 79.1614 18.401C78.7427 19.2906 78.6021 20.2623 78.6021 21.2459C78.6021 22.6383 78.2027 23.9604 78.2027 25.3424C78.2027 25.447 78.1829 25.1143 78.2471 25.0317C78.3521 24.8966 78.4061 24.7153 78.5223 24.5923C78.7384 24.3634 78.8297 24.0375 79.117 23.8733C79.3345 23.749 79.5418 23.3211 79.6762 23.1099C79.9632 22.6589 80.0541 21.9887 80.1821 21.4767C80.3409 20.8416 80.5194 20.2559 80.5194 19.5993C80.5194 19.3652 80.5993 19.1428 80.5993 18.8803C80.5993 18.6158 80.6142 18.8442 80.5594 18.9647C80.3737 19.3732 80.4657 19.898 80.4218 20.3316C80.3416 21.1236 80.3597 21.9147 80.3597 22.7105C80.3597 23.1055 80.4261 23.1764 80.6615 23.4117C81.1463 23.8966 81.7149 23.404 81.8775 22.8348C81.9683 22.5171 82.1172 22.2962 82.1172 21.956C82.1172 21.6987 82.1172 22.5963 82.1172 22.7593C82.1172 23.1676 82.1172 23.576 82.1172 23.9843C82.1172 24.0662 82.1838 23.8334 82.2015 23.7535C82.2365 23.5963 82.4125 23.4626 82.5166 23.3585C82.839 23.0362 83.6803 22.3268 83.1202 21.7962C82.6386 21.34 81.7789 21.432 81.1985 21.561C80.218 21.7789 79.4009 22.8265 78.8729 23.5981C78.3299 24.3917 77.7117 25.1619 77.0044 25.7906C76.8237 25.9513 76.8043 25.7302 76.9423 25.6308C77.1895 25.4528 77.4606 25.3228 77.7323 25.187C78.4482 24.8291 79.1938 24.7117 79.9602 24.5302C80.843 24.3211 81.7205 24.3209 82.5477 23.9532C83.0069 23.7491 82.5339 23.5487 82.277 23.4916C81.3025 23.2751 80.2439 23.5815 79.2501 23.3496C78.7918 23.2427 78.145 23.0966 78.0474 22.5596C77.9531 22.0412 77.963 21.3682 77.963 20.8376C77.963 20.5088 78.1763 18.1211 77.4837 19.1599" stroke="#F97C60" stroke-width="2" stroke-linecap="round"/>
<path d="M80.5458 4.35926C80.5458 3.65358 80.5458 2.94791 80.5458 2.24224C80.5458 1.63685 79.659 1.08387 79.1079 1.08387C78.9291 1.08387 78.4662 1.00216 78.3711 1.16375C78.2011 1.45271 77.9394 1.54225 77.7143 1.76735C77.2404 2.24118 76.9438 2.79667 76.7112 3.43611C76.0809 5.16952 75.7562 6.99927 75.1312 8.73532C75.0434 8.97929 74.8897 9.20226 74.8738 9.47206C74.8581 9.73957 74.5681 9.94982 74.9981 9.67622C75.4754 9.37246 76.3375 9.26827 76.8888 9.17026C77.4835 9.06454 78.1351 9.05346 78.7129 8.8729C79.6791 8.57095 80.7691 8.32713 81.6465 7.79442C82.2878 7.40509 83.1285 7.26905 83.7058 6.75588C84.1204 6.3874 84.6201 6.21202 84.6201 5.59751C84.6201 5.0459 84.0489 4.51903 83.4617 4.51903C82.9099 4.51903 82.4023 4.27937 81.824 4.27937C81.4754 4.27937 81.2965 4.36553 80.9852 4.43471C80.8812 4.45783 80.5954 4.62674 80.5148 4.59448C80.4939 4.58615 80.8816 4.40533 80.9453 4.37701C81.3069 4.2163 81.7761 4.27937 82.1613 4.27937C82.4939 4.27937 82.8985 4.2119 83.2221 4.28381C83.8959 4.43354 83.9011 4.9069 83.9011 5.51319C83.9011 5.74071 83.5501 6.18779 83.3064 6.18779C83.1883 6.18779 83.3102 5.30658 83.2443 5.15813C83.2094 5.07966 83.0485 4.43266 82.9247 4.77645C82.7446 5.27663 82.7414 5.84519 82.583 6.35201C82.5544 6.44332 82.422 7.14645 82.3433 7.14645C82.2465 7.14645 82.2235 6.07808 82.2235 5.95701C82.2235 5.43273 81.9329 4.2496 81.4246 5.23802C81.238 5.60095 81.1459 5.99953 80.963 6.36532C80.8534 6.5846 80.7242 6.80656 80.7056 7.05768C80.6821 7.37534 80.466 7.90737 80.466 7.26628C80.466 6.82356 80.3803 6.20955 80.5636 5.79723C80.6028 5.70896 80.7219 4.96306 80.5813 4.92291C80.1969 4.81307 80.0102 6.04839 79.9511 6.26768C79.8153 6.77224 79.5673 7.36431 79.5073 7.87431C79.4822 8.08772 79.4274 7.93427 79.4274 7.79442C79.4274 7.48596 79.3923 7.14943 79.4674 6.84909C79.5655 6.45656 79.747 6.04748 79.747 5.63746C79.747 5.31791 79.747 4.99836 79.747 4.67881C79.747 4.1738 79.4736 5.26913 79.4274 5.44218C79.2196 6.22137 78.9986 7.03833 78.7928 7.75892C78.7356 7.95911 78.6075 8.12771 78.5531 8.31813C78.4079 8.82645 78.5892 7.25695 78.6907 6.73813C78.8795 5.77325 78.9853 4.62258 79.3653 3.72016C79.612 3.13417 79.6671 2.48501 79.6671 1.8428C79.6671 1.47976 79.6706 1.18026 79.4895 1.70521C79.2564 2.38143 79.1399 3.06172 78.988 3.7601C78.8455 4.41582 78.9087 5.21263 78.6685 5.83718C78.5263 6.20676 78.6108 6.6361 78.451 6.99555C78.2544 7.43802 78.2973 8.08869 78.0072 8.45128C77.9153 8.56613 77.8908 9.21249 77.7675 8.67319C77.6475 8.14822 77.7498 7.49445 77.7498 6.9556C77.7498 5.88438 77.8297 4.79351 77.8297 3.73791C77.8297 3.09301 78.0314 2.09483 78.3489 1.52325C78.4062 1.42015 78.5614 0.659072 78.4066 1.18151C78.2524 1.70211 78.0693 2.38197 78.0693 2.92572C78.0693 4.015 77.7081 5.14411 77.4125 6.17892C77.2115 6.88236 77.0953 7.7092 76.8089 8.35364C76.765 8.45233 76.5515 9.17388 76.5515 8.5933C76.5515 8.03409 76.5515 7.47487 76.5515 6.91566C76.5515 6.29727 76.5515 5.67888 76.5515 5.06049C76.5515 4.77483 76.5311 4.41185 76.6713 4.15954C76.7593 4.00111 76.9509 3.54215 76.9509 3.36954C76.9509 2.71042 76.6988 4.66433 76.6136 5.31791C76.5211 6.02733 76.3642 6.72921 76.3074 7.43937C76.2814 7.7642 76.1997 8.22287 76.0544 8.51341C75.878 8.86612 75.6727 8.89018 75.6727 8.45128C75.6727 7.40643 76.4016 6.34082 76.9509 5.47768C77.2456 5.01451 77.5099 4.53957 77.732 4.03971C77.8468 3.78157 77.8074 3.45673 77.9495 3.20089C78.2023 2.74591 78.5914 2.34911 78.8504 1.88274C78.9065 1.78192 78.9811 1.66409 79.0457 1.58094C79.0467 1.57964 78.8365 1.90028 78.7883 2.00257C78.3697 2.89212 78.2291 3.86383 78.2291 4.84746C78.2291 6.23989 77.8297 7.56196 77.8297 8.94392C77.8297 9.04853 77.8098 8.71581 77.874 8.63324C77.9791 8.49818 78.0331 8.31684 78.1492 8.19386C78.3654 7.96498 78.4566 7.63903 78.7439 7.47487C78.9614 7.3506 79.1688 6.92263 79.3031 6.7115C79.5902 6.26049 79.6811 5.59024 79.8091 5.07824C79.9679 4.44315 80.1464 3.8575 80.1464 3.20089C80.1464 2.96676 80.2263 2.74432 80.2263 2.4819C80.2263 2.21731 80.2411 2.44572 80.1863 2.56622C80.0006 2.97477 80.0927 3.49961 80.0488 3.93319C79.9686 4.72514 79.9866 5.51627 79.9866 6.31206C79.9866 6.70707 80.0531 6.77793 80.2884 7.0133C80.7733 7.49816 81.3419 7.00555 81.5045 6.43633C81.5953 6.11865 81.7442 5.89776 81.7442 5.55757C81.7442 5.3003 81.7442 6.19783 81.7442 6.36088C81.7442 6.7692 81.7442 7.17751 81.7442 7.58583C81.7442 7.66773 81.8107 7.43499 81.8285 7.35504C81.8634 7.19784 82.0395 7.06418 82.1436 6.96004C82.4659 6.63772 83.3073 5.92839 82.7472 5.3978C82.2656 4.94152 81.4058 5.03359 80.8254 5.16257C79.845 5.38045 79.0278 6.42803 78.4998 7.1997C77.9569 7.99322 77.3386 8.76347 76.6314 9.39217C76.4506 9.55281 76.4313 9.33172 76.5692 9.2324C76.8165 9.05437 77.0876 8.92439 77.3592 8.78858C78.0751 8.43063 78.8208 8.31325 79.5872 8.13173C80.4699 7.92265 81.3474 7.92242 82.1747 7.55476C82.6339 7.35067 82.1608 7.15027 81.9039 7.09319C80.9294 6.87664 79.8708 7.18304 78.8771 6.95116C78.4188 6.84423 77.772 6.6982 77.6743 6.16117C77.5801 5.64274 77.59 4.96979 77.59 4.43914C77.59 4.11034 77.8033 1.72262 77.1107 2.76151" stroke="#F97C60" stroke-width="2" stroke-linecap="round"/>
<path d="M18.6551 34.8349C18.6551 34.0336 18.8131 33.3168 19.1689 32.6052C19.517 31.9091 19.4841 31.0098 19.7103 30.2745C19.8257 29.8996 19.7458 29.3536 19.9351 29.0129C20.0668 28.7758 20.2085 28.2466 20.2242 27.9806C20.2541 27.4717 20.8876 26.2592 21.3436 25.9986C21.9088 25.6757 22.6678 25.6683 23.321 25.6683C23.6619 25.6683 23.9582 25.6494 24.2064 25.8977C24.3734 26.0647 24.4586 26.4298 24.6423 26.5767C24.9881 26.8533 24.2742 28.1954 24.1835 28.5128C24.0591 28.9481 24.2444 28.6315 24.5184 28.4944C24.8423 28.3325 25.2342 28.3935 25.592 28.3935C26.0743 28.3935 27.1809 28.1947 27.5556 28.4944C28.0818 28.9154 28.152 29.367 28.152 30.0451C28.152 30.6114 27.5981 31.4294 27.2253 31.8436C26.7866 32.331 26.1557 32.7492 25.5507 33.0181C23.9941 33.7099 22.5366 34.5937 20.8848 35.0184C20.4748 35.1238 19.9796 35.1414 19.5956 35.2891C19.3424 35.3865 18.8335 35.4956 18.5725 35.4956C18.4688 35.4956 18.2422 35.5949 18.2422 35.4956C18.2422 35.3336 18.4264 35.1843 18.4899 35.0414C18.7016 34.565 18.9625 34.0822 19.2332 33.6375C19.5491 33.1184 19.9521 32.6324 20.2425 32.1097C20.4288 31.7744 20.6054 31.2438 20.8435 30.9581C21.1082 30.6405 21.1213 30.1117 21.2335 29.7332C21.4065 29.1493 21.4187 28.4861 21.6693 27.9347C21.8165 27.611 21.7932 27.2702 21.7932 26.907C21.7932 26.2944 21.356 26.4966 21.2151 26.9896C21.0256 27.6529 20.7495 28.3003 20.5728 28.9716C20.287 30.0578 20.1161 31.1652 19.7654 32.2382C19.6046 32.7299 19.4302 33.2258 19.3203 33.72C19.3001 33.8112 19.078 34.8116 19.2332 34.734C19.3787 34.6612 19.4526 34.4503 19.5635 34.3394C19.6987 34.2042 19.9248 34.0871 20.1003 34.0091C20.6689 33.7564 21.2803 33.436 21.8758 33.2658C22.9572 32.9569 23.938 32.5933 24.8855 31.9904C25.5837 31.546 26.6222 30.9548 27.0601 30.2103C27.138 30.0778 27.7331 29.4663 27.4455 29.3019C27.1011 29.1051 26.7864 29.1367 26.3995 29.1367C25.8004 29.1367 23.7002 29.9859 23.3806 29.1551C23.0431 28.2776 23.4511 27.5949 23.7935 26.8244C24.1634 25.9922 22.5447 25.9594 22.2887 26.5354C22.1792 26.7819 22.2588 27.0344 22.1648 27.2786C22.0086 27.685 21.9539 28.1297 21.7932 28.5403C21.4581 29.3968 21.1793 30.418 20.7196 31.2059C20.3282 31.8769 20.1833 32.6557 19.8755 33.3484C19.8165 33.4811 19.5601 34.3109 19.6644 34.4036C19.7588 34.4875 21.252 32.764 21.3849 32.6465C22.0158 32.0884 22.6766 31.58 23.2613 30.9719C23.5017 30.7219 23.725 30.4382 23.9403 30.169C24.1224 29.9415 24.8337 29.9626 25.0965 29.9626C25.5094 29.9626 25.9223 29.9626 26.3352 29.9626C26.5521 29.9626 26.5945 29.8317 26.7298 29.6965C26.7363 29.69 26.7554 30.1859 26.7435 30.2929C26.7049 30.6411 26.558 30.9802 26.505 31.3252C26.4758 31.5147 26.557 31.7292 26.4362 31.8803C26.3024 32.0475 26.574 31.6339 26.583 31.5133C26.6089 31.1636 26.7457 30.8027 26.8307 30.4626C26.94 30.0253 27.1139 29.5462 27.3079 29.1367C27.3734 28.9985 27.5981 28.76 27.4088 28.9716C27.1717 29.2365 27.0496 29.5986 26.8307 29.88C26.3132 30.5454 25.9686 31.3431 25.5094 32.0455C25.355 32.2817 25.2301 32.51 25.0598 32.7291C24.8657 32.9786 24.9313 32.5818 24.9313 32.4217C24.9313 31.4885 25.1636 30.5558 25.2662 29.6322C25.2903 29.4156 25.3442 29.2349 25.3442 29.0129C25.3442 28.8748 25.1866 29.2676 25.0965 29.4028C24.5763 30.1831 24.2817 31.0989 23.8991 31.9491C23.723 32.3403 23.4455 32.6425 23.2843 33.0456C23.2623 33.1006 23.0728 33.4351 23.0503 33.4127C22.8598 33.2221 23.5458 31.7839 23.61 31.527C23.7544 30.9497 23.806 30.3893 24.0046 29.8157C24.0365 29.7236 24.1103 29.3693 24.1055 29.4854C24.0905 29.8461 23.6624 30.3526 23.4861 30.6645C23.1199 31.3125 22.886 32.0291 22.5181 32.6694C22.2376 33.1577 22.084 33.8049 21.7519 34.2476C21.7109 34.3024 21.068 35.4033 21.05 34.9358C21.0164 34.0636 21.249 33.2841 21.3803 32.4308C21.4907 31.713 21.5801 30.7907 21.8941 30.1277C22.065 29.767 22.0964 29.3734 22.2428 28.9991C22.4053 28.5839 22.6325 28.1867 22.7842 27.7695C22.9161 27.4068 23.0702 27.0361 23.1145 26.6593C23.2126 25.8258 23.1518 28.3459 23.3164 29.1689C23.4277 29.7256 23.1389 31.3847 23.3806 30.871C23.6653 30.2661 23.7752 29.2017 23.7752 28.5403C23.7752 28.1789 23.8578 27.8296 23.8578 27.4667C23.8578 27.3544 23.8631 27.1982 23.8578 27.4209C23.8508 27.7146 23.7449 27.8999 23.61 28.1503C22.9532 29.3701 22.6785 30.8487 22.2428 32.1556C22.2077 32.2611 22.041 32.8194 22.041 32.7703C22.041 32.3676 22.1304 31.995 22.2428 31.6096C22.5317 30.6191 22.6478 29.5801 22.9494 28.6C23.0029 28.426 23.1597 28.0283 23.1099 28.4761C23.0457 29.0546 22.4436 29.7454 22.1602 30.2195C21.5601 31.2236 21.0423 32.2723 20.4352 33.2658C20.3777 33.36 20.1557 33.9173 20.0177 33.9173C19.8895 33.9173 20.0206 33.1862 20.059 33.119C20.1567 32.9481 20.5758 31.694 20.5545 32.44C20.5366 33.0657 20.1423 33.6415 20.0544 34.2568C20.0343 34.3975 19.7523 35.3027 20.1599 34.9358C20.3223 34.7897 20.6278 34.7111 20.8206 34.5872C21.3597 34.2406 21.9995 34.0286 22.564 33.7246C23.5286 33.2052 24.4008 32.56 25.3901 32.0913C25.6361 31.9748 25.077 32.2424 25.0139 32.2749C24.5951 32.4903 24.2951 32.8418 23.9403 33.1374C23.8091 33.2468 23.685 33.356 23.5641 33.4769C23.4798 33.5612 23.1868 33.6575 23.2935 33.7109C23.4096 33.7689 24.0334 33.0625 24.1239 32.9814C24.6423 32.5165 25.0777 31.9568 25.5736 31.4674C25.9288 31.1169 26.3578 30.562 26.7802 30.3021C27.008 30.1619 27.201 29.9626 26.8124 29.9626C26.2462 29.9626 25.7271 30.0462 25.1699 30.1644C24.7968 30.2436 24.4316 30.3718 24.0642 30.4535C23.7506 30.5231 24.1525 29.9132 24.2064 29.8433C24.3746 29.6253 24.6025 29.48 24.8029 29.3019C24.9373 29.1824 25.2359 29.2309 25.3442 29.0954C25.5908 28.7873 25.3608 28.7238 25.8581 28.7238C26.5521 28.7238 26.6952 29.0025 27.0968 29.4487C27.3527 29.733 27.4088 29.952 27.4088 30.3342C27.4088 30.6261 27.0298 30.7398 26.7894 30.871C26.2275 31.1775 25.6636 31.4809 25.0965 31.7794C25.029 31.8149 24.4358 32.2097 24.4358 32.0271C24.4358 31.7526 24.9954 31.4663 25.1837 31.3252C25.4441 31.1299 25.7725 30.9265 26.0049 30.7058C26.1203 30.5962 26.5275 30.3755 26.2481 30.3755C25.8217 30.3755 25.287 30.8205 24.9313 31.0407C24.5469 31.2787 23.4196 32.0336 23.7935 31.7794C24.4587 31.3271 25.0272 30.3693 25.8764 30.2149C26.83 30.0415 24.021 30.8136 23.0595 30.9352C22.3327 31.0271 20.7196 31.7115 20.7196 30.5452C20.7196 29.9033 20.8192 29.3472 20.8848 28.7238C20.9033 28.5483 20.9787 28.4199 20.9674 28.2283C20.9601 28.1041 20.5964 28.1018 20.5545 28.1962C20.2331 28.9194 20.2111 29.7669 19.8938 30.4948C19.7548 30.8136 19.806 31.1994 19.6874 31.5316C19.6277 31.6987 19.5 31.9378 19.4809 32.1097C19.4434 32.4471 19.265 33.0095 19.1047 33.3071C18.9364 33.6196 18.8572 34.0455 18.6367 34.3211C18.3238 34.7122 20.0313 34.0807 20.1232 34.0458C21.2914 33.6027 22.3093 33.0751 23.4036 32.4859C23.7953 32.275 24.3323 32.0512 24.7662 32.0271C25.1844 32.0039 25.6215 31.7794 26.0462 31.7794C26.669 31.7794 25.8532 32.2603 25.592 32.2749C25.0589 32.3045 25.0068 32.0882 24.8487 31.6142" stroke="#F97C60" stroke-width="2" stroke-linecap="round"/>
<path d="M55.9227 34.8349C55.9227 34.0336 56.0807 33.3168 56.4365 32.6052C56.7846 31.9091 56.7517 31.0098 56.9779 30.2745C57.0933 29.8996 57.0134 29.3536 57.2027 29.0129C57.3344 28.7758 57.4761 28.2466 57.4917 27.9806C57.5217 27.4717 58.1552 26.2592 58.6112 25.9986C59.1764 25.6757 59.9354 25.6683 60.5886 25.6683C60.9295 25.6683 61.2258 25.6494 61.474 25.8977C61.641 26.0647 61.7262 26.4298 61.9099 26.5767C62.2556 26.8533 61.5418 28.1954 61.4511 28.5128C61.3267 28.9481 61.5119 28.6315 61.786 28.4944C62.1099 28.3325 62.5018 28.3935 62.8596 28.3935C63.3419 28.3935 64.4485 28.1947 64.8232 28.4944C65.3493 28.9154 65.4196 29.367 65.4196 30.0451C65.4196 30.6114 64.8656 31.4294 64.4929 31.8436C64.0542 32.331 63.4232 32.7492 62.8183 33.0181C61.2617 33.7099 59.8042 34.5937 58.1524 35.0184C57.7424 35.1238 57.2472 35.1414 56.8632 35.2891C56.61 35.3865 56.1011 35.4956 55.8401 35.4956C55.7364 35.4956 55.5098 35.5949 55.5098 35.4956C55.5098 35.3336 55.694 35.1843 55.7575 35.0414C55.9692 34.565 56.23 34.0822 56.5007 33.6375C56.8167 33.1184 57.2197 32.6324 57.5101 32.1097C57.6964 31.7744 57.873 31.2438 58.1111 30.9581C58.3758 30.6405 58.3889 30.1117 58.5011 29.7332C58.6741 29.1493 58.6863 28.4861 58.9369 27.9347C59.0841 27.611 59.0608 27.2702 59.0608 26.907C59.0608 26.2944 58.6236 26.4966 58.4827 26.9896C58.2932 27.6529 58.0171 28.3003 57.8404 28.9716C57.5546 30.0578 57.3837 31.1652 57.0329 32.2382C56.8722 32.7299 56.6978 33.2258 56.5879 33.72C56.5677 33.8112 56.3456 34.8116 56.5007 34.734C56.6463 34.6612 56.7202 34.4503 56.8311 34.3394C56.9662 34.2042 57.1924 34.0871 57.3679 34.0091C57.9365 33.7564 58.5479 33.436 59.1434 33.2658C60.2247 32.9569 61.2056 32.5933 62.153 31.9904C62.8513 31.546 63.8897 30.9548 64.3277 30.2103C64.4056 30.0778 65.0007 29.4663 64.7131 29.3019C64.3687 29.1051 64.0539 29.1367 63.667 29.1367C63.068 29.1367 60.9677 29.9859 60.6482 29.1551C60.3107 28.2776 60.7187 27.5949 61.0611 26.8244C61.431 25.9922 59.8123 25.9594 59.5563 26.5354C59.4468 26.7819 59.5264 27.0344 59.4324 27.2786C59.2761 27.685 59.2215 28.1297 59.0608 28.5403C58.7256 29.3968 58.4468 30.418 57.9872 31.2059C57.5958 31.8769 57.4509 32.6557 57.1431 33.3484C57.0841 33.4811 56.8277 34.3109 56.932 34.4036C57.0264 34.4875 58.5196 32.764 58.6525 32.6465C59.2834 32.0884 59.9442 31.58 60.5289 30.9719C60.7693 30.7219 60.9926 30.4382 61.2079 30.169C61.3899 29.9415 62.1013 29.9626 62.3641 29.9626C62.777 29.9626 63.1899 29.9626 63.6028 29.9626C63.8197 29.9626 63.8621 29.8317 63.9974 29.6965C64.0038 29.69 64.023 30.1859 64.0111 30.2929C63.9724 30.6411 63.8256 30.9802 63.7726 31.3252C63.7434 31.5147 63.8246 31.7292 63.7037 31.8803C63.57 32.0475 63.8416 31.6339 63.8505 31.5133C63.8764 31.1636 64.0133 30.8027 64.0983 30.4626C64.2076 30.0253 64.3815 29.5462 64.5754 29.1367C64.6409 28.9985 64.8657 28.76 64.6764 28.9716C64.4393 29.2365 64.3171 29.5986 64.0983 29.88C63.5808 30.5454 63.2362 31.3431 62.777 32.0455C62.6225 32.2817 62.4977 32.51 62.3274 32.7291C62.1333 32.9786 62.1989 32.5818 62.1989 32.4217C62.1989 31.4885 62.4312 30.5558 62.5338 29.6322C62.5579 29.4156 62.6118 29.2349 62.6118 29.0129C62.6118 28.8748 62.4542 29.2676 62.3641 29.4028C61.8439 30.1831 61.5492 31.0989 61.1666 31.9491C60.9906 32.3403 60.7131 32.6425 60.5519 33.0456C60.5299 33.1006 60.3404 33.4351 60.3179 33.4127C60.1274 33.2221 60.8134 31.7839 60.8776 31.527C61.0219 30.9497 61.0736 30.3893 61.2722 29.8157C61.3041 29.7236 61.3779 29.3693 61.3731 29.4854C61.3581 29.8461 60.93 30.3526 60.7537 30.6645C60.3875 31.3125 60.1535 32.0291 59.7857 32.6694C59.5052 33.1577 59.3516 33.8049 59.0195 34.2476C58.9785 34.3024 58.3355 35.4033 58.3176 34.9358C58.284 34.0636 58.5166 33.2841 58.6479 32.4308C58.7583 31.713 58.8477 30.7907 59.1617 30.1277C59.3326 29.767 59.3639 29.3734 59.5104 28.9991C59.6729 28.5839 59.9001 28.1867 60.0518 27.7695C60.1837 27.4068 60.3378 27.0361 60.3821 26.6593C60.4802 25.8258 60.4194 28.3459 60.584 29.1689C60.6953 29.7256 60.4064 31.3847 60.6482 30.871C60.9328 30.2661 61.0428 29.2017 61.0428 28.5403C61.0428 28.1789 61.1253 27.8296 61.1253 27.4667C61.1253 27.3544 61.1306 27.1982 61.1253 27.4209C61.1183 27.7146 61.0124 27.8999 60.8776 28.1503C60.2208 29.3701 59.946 30.8487 59.5104 32.1556C59.4752 32.2611 59.3085 32.8194 59.3085 32.7703C59.3085 32.3676 59.398 31.995 59.5104 31.6096C59.7993 30.6191 59.9154 29.5801 60.2169 28.6C60.2705 28.426 60.4273 28.0283 60.3775 28.4761C60.3132 29.0546 59.7112 29.7454 59.4278 30.2195C58.8277 31.2236 58.3099 32.2723 57.7028 33.2658C57.6452 33.36 57.4233 33.9173 57.2853 33.9173C57.1571 33.9173 57.2882 33.1862 57.3266 33.119C57.4242 32.9481 57.8434 31.694 57.8221 32.44C57.8042 33.0657 57.4099 33.6415 57.322 34.2568C57.3019 34.3975 57.0198 35.3027 57.4275 34.9358C57.5899 34.7897 57.8954 34.7111 58.0882 34.5872C58.6273 34.2406 59.2671 34.0286 59.8316 33.7246C60.7962 33.2052 61.6683 32.56 62.6577 32.0913C62.9037 31.9748 62.3446 32.2424 62.2815 32.2749C61.8627 32.4903 61.5626 32.8418 61.2079 33.1374C61.0767 33.2468 60.9526 33.356 60.8317 33.4769C60.7474 33.5612 60.4544 33.6575 60.561 33.7109C60.6772 33.7689 61.301 33.0625 61.3914 32.9814C61.9099 32.5165 62.3453 31.9568 62.8412 31.4674C63.1964 31.1169 63.6254 30.562 64.0478 30.3021C64.2755 30.1619 64.4686 29.9626 64.0799 29.9626C63.5138 29.9626 62.9947 30.0462 62.4375 30.1644C62.0644 30.2436 61.6992 30.3718 61.3318 30.4535C61.0182 30.5231 61.4201 29.9132 61.474 29.8433C61.6421 29.6253 61.8701 29.48 62.0704 29.3019C62.2048 29.1824 62.5035 29.2309 62.6118 29.0954C62.8584 28.7873 62.6283 28.7238 63.1257 28.7238C63.8197 28.7238 63.9628 29.0025 64.3644 29.4487C64.6203 29.733 64.6764 29.952 64.6764 30.3342C64.6764 30.6261 64.2974 30.7398 64.057 30.871C63.495 31.1775 62.9312 31.4809 62.3641 31.7794C62.2965 31.8149 61.7034 32.2097 61.7034 32.0271C61.7034 31.7526 62.263 31.4663 62.4512 31.3252C62.7116 31.1299 63.0401 30.9265 63.2725 30.7058C63.3879 30.5962 63.795 30.3755 63.5156 30.3755C63.0893 30.3755 62.5546 30.8205 62.1989 31.0407C61.8144 31.2787 60.6872 32.0336 61.0611 31.7794C61.7263 31.3271 62.2948 30.3693 63.144 30.2149C64.0976 30.0415 61.2886 30.8136 60.327 30.9352C59.6003 31.0271 57.9872 31.7115 57.9872 30.5452C57.9872 29.9033 58.0868 29.3472 58.1524 28.7238C58.1709 28.5483 58.2462 28.4199 58.235 28.2283C58.2277 28.1041 57.864 28.1018 57.8221 28.1962C57.5006 28.9194 57.4787 29.7669 57.1614 30.4948C57.0224 30.8136 57.0736 31.1994 56.955 31.5316C56.8953 31.6987 56.7676 31.9378 56.7485 32.1097C56.711 32.4471 56.5326 33.0095 56.3723 33.3071C56.204 33.6196 56.1248 34.0455 55.9043 34.3211C55.5914 34.7122 57.2989 34.0807 57.3908 34.0458C58.5589 33.6027 59.5769 33.0751 60.6711 32.4859C61.0629 32.275 61.5999 32.0512 62.0337 32.0271C62.452 32.0039 62.8891 31.7794 63.3138 31.7794C63.9366 31.7794 63.1208 32.2603 62.8596 32.2749C62.3264 32.3045 62.2743 32.0882 62.1163 31.6142" stroke="#F97C60" stroke-width="2" stroke-linecap="round"/>
<path d="M91.575 34.8349C91.575 34.0336 91.7331 33.3168 92.0889 32.6052C92.4369 31.9091 92.404 31.0098 92.6302 30.2745C92.7456 29.8996 92.6657 29.3536 92.855 29.0129C92.9867 28.7758 93.1284 28.2466 93.1441 27.9806C93.174 27.4717 93.8076 26.2592 94.2635 25.9986C94.8287 25.6757 95.5877 25.6683 96.2409 25.6683C96.5818 25.6683 96.8781 25.6494 97.1264 25.8977C97.2934 26.0647 97.3785 26.4298 97.5622 26.5767C97.908 26.8533 97.1941 28.1954 97.1034 28.5128C96.9791 28.9481 97.1643 28.6315 97.4383 28.4944C97.7622 28.3325 98.1542 28.3935 98.5119 28.3935C98.9942 28.3935 100.101 28.1947 100.476 28.4944C101.002 28.9154 101.072 29.367 101.072 30.0451C101.072 30.6114 100.518 31.4294 100.145 31.8436C99.7065 32.331 99.0756 32.7492 98.4706 33.0181C96.914 33.7099 95.4566 34.5937 93.8047 35.0184C93.3948 35.1238 92.8995 35.1414 92.5155 35.2891C92.2624 35.3865 91.7534 35.4956 91.4924 35.4956C91.3887 35.4956 91.1621 35.5949 91.1621 35.4956C91.1621 35.3336 91.3463 35.1843 91.4099 35.0414C91.6215 34.565 91.8824 34.0822 92.1531 33.6375C92.469 33.1184 92.872 32.6324 93.1624 32.1097C93.3487 31.7744 93.5253 31.2438 93.7634 30.9581C94.0282 30.6405 94.0412 30.1117 94.1534 29.7332C94.3264 29.1493 94.3386 28.4861 94.5893 27.9347C94.7364 27.611 94.7131 27.2702 94.7131 26.907C94.7131 26.2944 94.2759 26.4966 94.1351 26.9896C93.9455 27.6529 93.6694 28.3003 93.4928 28.9716C93.2069 30.0578 93.036 31.1652 92.6853 32.2382C92.5245 32.7299 92.3501 33.2258 92.2403 33.72C92.22 33.8112 91.9979 34.8116 92.1531 34.734C92.2986 34.6612 92.3725 34.4503 92.4834 34.3394C92.6186 34.2042 92.8447 34.0871 93.0202 34.0091C93.5888 33.7564 94.2002 33.436 94.7957 33.2658C95.8771 32.9569 96.8579 32.5933 97.8054 31.9904C98.5037 31.546 99.5421 30.9548 99.98 30.2103C100.058 30.0778 100.653 29.4663 100.365 29.3019C100.021 29.1051 99.7063 29.1367 99.3194 29.1367C98.7203 29.1367 96.6201 29.9859 96.3005 29.1551C95.9631 28.2776 96.371 27.5949 96.7135 26.8244C97.0833 25.9922 95.4646 25.9594 95.2086 26.5354C95.0991 26.7819 95.1787 27.0344 95.0848 27.2786C94.9285 27.685 94.8738 28.1297 94.7131 28.5403C94.378 29.3968 94.0992 30.418 93.6396 31.2059C93.2481 31.8769 93.1033 32.6557 92.7954 33.3484C92.7364 33.4811 92.48 34.3109 92.5844 34.4036C92.6787 34.4875 94.1719 32.764 94.3048 32.6465C94.9357 32.0884 95.5965 31.58 96.1813 30.9719C96.4216 30.7219 96.6449 30.4382 96.8603 30.169C97.0423 29.9415 97.7536 29.9626 98.0164 29.9626C98.4293 29.9626 98.8422 29.9626 99.2551 29.9626C99.472 29.9626 99.5144 29.8317 99.6497 29.6965C99.6562 29.69 99.6754 30.1859 99.6635 30.2929C99.6248 30.6411 99.478 30.9802 99.4249 31.3252C99.3957 31.5147 99.4769 31.7292 99.3561 31.8803C99.2223 32.0475 99.494 31.6339 99.5029 31.5133C99.5288 31.1636 99.6656 30.8027 99.7506 30.4626C99.86 30.0253 100.034 29.5462 100.228 29.1367C100.293 28.9985 100.518 28.76 100.329 28.9716C100.092 29.2365 99.9695 29.5986 99.7506 29.88C99.2331 30.5454 98.8885 31.3431 98.4293 32.0455C98.2749 32.2817 98.1501 32.51 97.9797 32.7291C97.7856 32.9786 97.8513 32.5818 97.8513 32.4217C97.8513 31.4885 98.0836 30.5558 98.1862 29.6322C98.2102 29.4156 98.2642 29.2349 98.2642 29.0129C98.2642 28.8748 98.1066 29.2676 98.0164 29.4028C97.4962 30.1831 97.2016 31.0989 96.819 31.9491C96.643 32.3403 96.3655 32.6425 96.2042 33.0456C96.1822 33.1006 95.9927 33.4351 95.9702 33.4127C95.7797 33.2221 96.4657 31.7839 96.5299 31.527C96.6743 30.9497 96.726 30.3893 96.9245 29.8157C96.9564 29.7236 97.0303 29.3693 97.0254 29.4854C97.0104 29.8461 96.5824 30.3526 96.4061 30.6645C96.0398 31.3125 95.8059 32.0291 95.438 32.6694C95.1575 33.1577 95.0039 33.8049 94.6718 34.2476C94.6308 34.3024 93.9879 35.4033 93.9699 34.9358C93.9363 34.0636 94.1689 33.2841 94.3002 32.4308C94.4107 31.713 94.5 30.7907 94.8141 30.1277C94.9849 29.767 95.0163 29.3734 95.1627 28.9991C95.3252 28.5839 95.5524 28.1867 95.7041 27.7695C95.836 27.4068 95.9901 27.0361 96.0344 26.6593C96.1325 25.8258 96.0717 28.3459 96.2363 29.1689C96.3477 29.7256 96.0588 31.3847 96.3005 30.871C96.5852 30.2661 96.6951 29.2017 96.6951 28.5403C96.6951 28.1789 96.7777 27.8296 96.7777 27.4667C96.7777 27.3544 96.783 27.1982 96.7777 27.4209C96.7707 27.7146 96.6648 27.8999 96.5299 28.1503C95.8731 29.3701 95.5984 30.8487 95.1627 32.1556C95.1276 32.2611 94.9609 32.8194 94.9609 32.7703C94.9609 32.3676 95.0503 31.995 95.1627 31.6096C95.4517 30.6191 95.5677 29.5801 95.8693 28.6C95.9228 28.426 96.0796 28.0283 96.0299 28.4761C95.9656 29.0546 95.3635 29.7454 95.0802 30.2195C94.48 31.2236 93.9623 32.2723 93.3551 33.2658C93.2976 33.36 93.0756 33.9173 92.9376 33.9173C92.8095 33.9173 92.9405 33.1862 92.9789 33.119C93.0766 32.9481 93.4957 31.694 93.4744 32.44C93.4565 33.0657 93.0622 33.6415 92.9743 34.2568C92.9542 34.3975 92.6722 35.3027 93.0798 34.9358C93.2422 34.7897 93.5477 34.7111 93.7405 34.5872C94.2796 34.2406 94.9195 34.0286 95.4839 33.7246C96.4485 33.2052 97.3207 32.56 98.31 32.0913C98.556 31.9748 97.997 32.2424 97.9338 32.2749C97.515 32.4903 97.215 32.8418 96.8603 33.1374C96.729 33.2468 96.6049 33.356 96.4841 33.4769C96.3997 33.5612 96.1067 33.6575 96.2134 33.7109C96.3295 33.7689 96.9533 33.0625 97.0438 32.9814C97.5623 32.5165 97.9977 31.9568 98.4936 31.4674C98.8487 31.1169 99.2778 30.562 99.7002 30.3021C99.9279 30.1619 100.121 29.9626 99.7323 29.9626C99.1661 29.9626 98.647 30.0462 98.0898 30.1644C97.7167 30.2436 97.3516 30.3718 96.9841 30.4535C96.6706 30.5231 97.0724 29.9132 97.1264 29.8433C97.2945 29.6253 97.5224 29.48 97.7228 29.3019C97.8572 29.1824 98.1558 29.2309 98.2642 29.0954C98.5107 28.7873 98.2807 28.7238 98.778 28.7238C99.472 28.7238 99.6151 29.0025 100.017 29.4487C100.273 29.733 100.329 29.952 100.329 30.3342C100.329 30.6261 99.9497 30.7398 99.7093 30.871C99.1474 31.1775 98.5836 31.4809 98.0164 31.7794C97.9489 31.8149 97.3558 32.2097 97.3558 32.0271C97.3558 31.7526 97.9153 31.4663 98.1036 31.3252C98.364 31.1299 98.6925 30.9265 98.9248 30.7058C99.0402 30.5962 99.4474 30.3755 99.168 30.3755C98.7417 30.3755 98.207 30.8205 97.8513 31.0407C97.4668 31.2787 96.3395 32.0336 96.7135 31.7794C97.3786 31.3271 97.9471 30.3693 98.7964 30.2149C99.7499 30.0415 96.9409 30.8136 95.9794 30.9352C95.2526 31.0271 93.6396 31.7115 93.6396 30.5452C93.6396 29.9033 93.7391 29.3472 93.8047 28.7238C93.8232 28.5483 93.8986 28.4199 93.8873 28.2283C93.88 28.1041 93.5164 28.1018 93.4744 28.1962C93.153 28.9194 93.131 29.7669 92.8137 30.4948C92.6748 30.8136 92.726 31.1994 92.6073 31.5316C92.5476 31.6987 92.4199 31.9378 92.4008 32.1097C92.3634 32.4471 92.1849 33.0095 92.0246 33.3071C91.8564 33.6196 91.7771 34.0455 91.5567 34.3211C91.2438 34.7122 92.9512 34.0807 93.0431 34.0458C94.2113 33.6027 95.2293 33.0751 96.3235 32.4859C96.7152 32.275 97.2522 32.0512 97.6861 32.0271C98.1043 32.0039 98.5415 31.7794 98.9661 31.7794C99.5889 31.7794 98.7731 32.2603 98.5119 32.2749C97.9788 32.3045 97.9267 32.0882 97.7687 31.6142" stroke="#F97C60" stroke-width="2" stroke-linecap="round"/>
<path d="M2.8152 26.8783C2.86237 26.8575 2.95775 26.1808 3.00657 26.0546C3.13831 25.7138 3.23491 25.2725 3.31322 24.9138C3.49531 24.0798 3.6687 23.2224 3.71712 22.3682C3.75708 21.6633 4.22105 20.844 4.52696 20.2337C4.69361 19.9013 4.96933 19.4661 5.0572 19.1064C5.11219 18.8813 5.45111 18.3709 5.63446 18.2248C6.10396 17.8508 6.36949 17.4212 6.97364 17.2395C7.26217 17.1528 7.53349 16.9905 7.83898 16.8986C8.11296 16.8162 8.29716 17.109 8.4902 17.1867C8.60829 17.2342 8.80477 17.8304 8.84585 17.967C8.9361 18.2671 9.06214 18.5681 9.02239 18.8817C8.97758 19.2353 8.84331 19.6114 8.69267 19.9308C8.63704 20.0488 8.61398 20.1784 8.55975 20.2934C8.48291 20.4564 8.56137 20.2403 8.63285 20.2087C8.8134 20.1288 8.89653 19.7811 9.07102 19.6692C9.35398 19.4876 9.46299 19.3138 9.82324 19.2055C10.364 19.0428 11.0964 18.6557 11.6204 19.0279C12.1276 19.3881 12.392 19.9887 12.5319 20.5685C12.6615 21.1063 12.0885 21.8672 11.7439 22.2394C11.3474 22.6676 11.1297 23.2876 10.5681 23.5743C9.94489 23.8924 9.29463 24.2026 8.6864 24.5435C8.10733 24.868 7.54203 25.3041 6.935 25.5587C6.58598 25.705 6.2203 25.8854 5.90375 26.0928C5.63554 26.2686 5.19951 26.286 4.9579 26.4938C4.78409 26.6433 4.35061 26.8198 4.14685 26.8811C3.84659 26.9714 3.64407 27.113 3.35548 27.1998C3.24724 27.2323 2.72207 27.5316 2.72891 27.5003C2.80228 27.1642 3.01022 26.8386 3.11128 26.507C3.29968 25.8889 3.54127 25.1388 3.90361 24.5974C4.14653 24.2343 4.2352 23.7443 4.43458 23.3533C4.63722 22.9559 4.89053 22.4429 5.02797 22.0188C5.16344 21.6008 5.41292 21.2195 5.5228 20.8035C5.61517 20.4538 5.74679 20.0604 5.91005 19.7371C6.11553 19.3302 6.27843 18.9087 6.50844 18.5086C6.71178 18.155 6.71622 18.0178 6.39577 18.417C6.02302 18.8814 5.84643 19.5067 5.49552 19.9828C4.89021 20.804 4.49555 21.8589 4.21803 22.827C4.01055 23.5507 3.90923 24.3175 3.78144 25.0553C3.73599 25.3178 3.58736 25.6394 3.65051 25.9012C3.67194 25.9901 3.69261 26.7399 3.60589 26.766C3.51043 26.7947 3.9135 25.4349 3.96206 25.3281C4.28387 24.6202 4.78467 24.0036 5.08803 23.2912C5.62688 22.0259 6.29305 20.7548 6.94195 19.5477C7.14734 19.1657 7.37487 18.8065 7.57782 18.429C7.70929 18.1844 7.96422 17.8464 8.01864 17.5705C8.03489 17.4881 8.14575 17.2303 8.04156 17.4381C7.90609 17.7084 7.79009 18.0386 7.67884 18.3179C7.36005 19.1184 7.03551 19.9268 6.63654 20.6926C6.03651 21.8444 5.68 23.0153 5.24279 24.208C5.10568 24.5821 5.02138 24.9597 4.79431 25.2794C4.6281 25.5134 4.44259 25.8776 4.46489 26.1806C4.49706 26.6175 4.67682 25.7328 4.75998 25.5676C5.02994 25.0311 5.28705 24.4902 5.56525 23.9542C5.94698 23.2188 6.24661 22.4365 6.61751 21.702C6.84816 21.2453 7.06299 20.7036 7.36538 20.2852C7.65193 19.8887 7.85237 19.469 8.08377 19.0386C8.15173 18.9121 8.43492 18.0995 8.58533 18.0543C8.77986 17.9958 8.48997 18.4492 8.44559 18.6474C8.38765 18.9063 8.21468 19.2194 8.08117 19.4471C7.89496 19.7647 7.84974 20.166 7.67131 20.4979C7.481 20.8519 7.31334 21.243 7.16038 21.6149C6.77671 22.5479 6.36868 23.4505 6.12948 24.4298C6.06068 24.7114 5.90856 24.9945 5.77411 25.2446C5.6549 25.4664 5.70028 25.7152 5.60276 25.8966C5.15499 26.7296 6.37924 24.1702 6.82701 23.3373C7.07226 22.8811 7.26154 22.4136 7.50586 21.9591C7.64545 21.6994 7.86737 21.3849 7.93312 21.1002C7.99894 20.8153 8.27016 20.5374 8.41096 20.2754C8.44496 20.2122 8.64721 19.7479 8.73203 19.7935C8.84688 19.8553 8.40709 20.5619 8.37339 20.6273C8.01426 21.3244 7.89285 22.2025 7.76919 22.9688C7.71082 23.3304 7.42637 23.8287 7.4889 24.1822C7.53666 24.4523 7.38944 24.7311 7.32917 24.992C7.20595 25.5255 7.52928 24.7362 7.55903 24.5644C7.65403 24.016 8.00599 23.5421 8.2275 23.0326C8.43322 22.5594 8.66556 21.8647 8.96415 21.4444C9.14128 21.195 9.4282 20.7778 9.50189 20.4761C9.54504 20.2995 9.75314 19.7105 9.96082 19.648C10.1276 19.5978 9.80892 19.9614 9.7351 20.1192C9.64308 20.3158 9.61508 20.6191 9.54818 20.8386C9.40641 21.3036 9.2356 21.7793 9.16939 22.2609C9.08505 22.8743 9.19536 23.4636 8.97209 24.0185C8.77302 24.5131 9.06662 23.6803 9.10862 23.5338C9.25474 23.0241 9.45024 22.4946 9.70312 22.0242C10.1247 21.24 10.309 20.3994 10.7787 19.6261C10.8834 19.4537 11.0334 18.9968 11.1254 19.3784C11.1872 19.6347 10.9156 20.2145 10.8006 20.4439C10.5835 20.8771 10.4941 21.4257 10.391 21.8979C10.3436 22.1155 10.3726 22.615 10.2548 22.7858C10.2019 22.8624 10.2901 23.1806 10.4054 23.0183C10.5092 22.8722 10.5045 22.6851 10.576 22.5279C10.725 22.2002 10.8675 21.6853 10.9455 21.3279C10.9944 21.104 11.7802 19.9797 11.8361 20.1325C12.031 20.6649 11.7582 21.1377 11.4738 21.5499C11.1569 22.0093 10.6689 22.444 10.2729 22.861C9.84458 23.3121 9.41394 23.5862 8.84128 23.8517C8.07314 24.2077 7.18977 24.5156 6.55244 25.0912C6.44221 25.1907 6.28825 25.2461 6.21067 25.3553C6.18745 25.388 6.24077 25.119 6.35347 25.0256C6.66044 24.771 6.98652 24.0565 7.07261 23.6622C7.30263 22.6086 8.15175 21.6406 8.76394 20.7787C8.82749 20.6892 8.97741 20.2816 9.0523 20.5306C9.11246 20.7307 9.17191 20.9387 9.11273 21.1487C8.97857 21.625 8.68617 22.0956 8.6234 22.5909C8.61055 22.6922 8.22884 23.384 8.15403 23.1756C7.85199 22.3345 7.61655 21.4471 7.37545 20.5869C7.08609 19.5546 7.52766 18.5836 7.70053 17.5855C7.71444 17.5052 7.73179 17.2006 7.56348 17.3086C7.43116 17.3935 7.36903 17.7984 7.33704 17.9413C7.2333 18.4047 6.97724 18.914 6.79426 19.3547C6.6048 19.8109 6.56426 20.4934 6.20962 20.8524C5.89026 21.1756 5.60131 21.8371 5.42681 22.2573C5.12311 22.9886 5.07071 23.6774 4.97211 24.4552C4.93084 24.7809 5.01661 25.102 4.97607 25.4219C4.96372 25.5193 5.01259 26.1881 4.79724 25.9596" stroke="#F97C60" stroke-width="2" stroke-linecap="round"/>
<path d="M40.0828 26.8783C40.1299 26.8575 40.2253 26.1808 40.2742 26.0546C40.4059 25.7138 40.5025 25.2725 40.5808 24.9138C40.7629 24.0798 40.9363 23.2224 40.9847 22.3682C41.0247 21.6633 41.4886 20.844 41.7945 20.2337C41.9612 19.9013 42.2369 19.4661 42.3248 19.1064C42.3798 18.8813 42.7187 18.3709 42.902 18.2248C43.3715 17.8508 43.6371 17.4212 44.2412 17.2395C44.5298 17.1528 44.8011 16.9905 45.1066 16.8986C45.3805 16.8162 45.5647 17.109 45.7578 17.1867C45.8759 17.2342 46.0723 17.8304 46.1134 17.967C46.2037 18.2671 46.3297 18.5681 46.29 18.8817C46.2452 19.2353 46.1109 19.6114 45.9602 19.9308C45.9046 20.0488 45.8816 20.1784 45.8273 20.2934C45.7505 20.4564 45.8289 20.2403 45.9004 20.2087C46.081 20.1288 46.1641 19.7811 46.3386 19.6692C46.6216 19.4876 46.7306 19.3138 47.0908 19.2055C47.6316 19.0428 48.3639 18.6557 48.888 19.0279C49.3952 19.3881 49.6596 19.9887 49.7994 20.5685C49.9291 21.1063 49.3561 21.8672 49.0115 22.2394C48.615 22.6676 48.3972 23.2876 47.8357 23.5743C47.2125 23.8924 46.5622 24.2026 45.954 24.5435C45.3749 24.868 44.8096 25.3041 44.2026 25.5587C43.8536 25.705 43.4879 25.8854 43.1713 26.0928C42.9031 26.2686 42.4671 26.286 42.2255 26.4938C42.0517 26.6433 41.6182 26.8198 41.4144 26.8811C41.1142 26.9714 40.9117 27.113 40.6231 27.1998C40.5148 27.2323 39.9897 27.5316 39.9965 27.5003C40.0699 27.1642 40.2778 26.8386 40.3789 26.507C40.5673 25.8889 40.8088 25.1388 41.1712 24.5974C41.4141 24.2343 41.5028 23.7443 41.7022 23.3533C41.9048 22.9559 42.1581 22.4429 42.2955 22.0188C42.431 21.6008 42.6805 21.2195 42.7904 20.8035C42.8828 20.4538 43.0144 20.0604 43.1776 19.7371C43.3831 19.3302 43.546 18.9087 43.776 18.5086C43.9794 18.155 43.9838 18.0178 43.6633 18.417C43.2906 18.8814 43.114 19.5067 42.7631 19.9828C42.1578 20.804 41.7631 21.8589 41.4856 22.827C41.2781 23.5507 41.1768 24.3175 41.049 25.0553C41.0036 25.3178 40.8549 25.6394 40.9181 25.9012C40.9395 25.9901 40.9602 26.7399 40.8735 26.766C40.778 26.7947 41.1811 25.4349 41.2296 25.3281C41.5514 24.6202 42.0522 24.0036 42.3556 23.2912C42.8945 22.0259 43.5606 20.7548 44.2095 19.5477C44.4149 19.1657 44.6425 18.8065 44.8454 18.429C44.9769 18.1844 45.2318 17.8464 45.2862 17.5705C45.3025 17.4881 45.4133 17.2303 45.3091 17.4381C45.1737 17.7084 45.0577 18.0386 44.9464 18.3179C44.6276 19.1184 44.3031 19.9268 43.9041 20.6926C43.3041 21.8444 42.9476 23.0153 42.5104 24.208C42.3733 24.5821 42.289 24.9597 42.0619 25.2794C41.8957 25.5134 41.7102 25.8776 41.7325 26.1806C41.7646 26.6175 41.9444 25.7328 42.0276 25.5676C42.2975 25.0311 42.5546 24.4902 42.8328 23.9542C43.2146 23.2188 43.5142 22.4365 43.8851 21.702C44.1157 21.2453 44.3306 20.7036 44.633 20.2852C44.9195 19.8887 45.1199 19.469 45.3513 19.0386C45.4193 18.9121 45.7025 18.0995 45.8529 18.0543C46.0474 17.9958 45.7575 18.4492 45.7132 18.6474C45.6552 18.9063 45.4823 19.2194 45.3488 19.4471C45.1625 19.7647 45.1173 20.166 44.9389 20.4979C44.7486 20.8519 44.5809 21.243 44.428 21.6149C44.0443 22.5479 43.6363 23.4505 43.3971 24.4298C43.3283 24.7114 43.1761 24.9945 43.0417 25.2446C42.9225 25.4664 42.9679 25.7152 42.8703 25.8966C42.4226 26.7296 43.6468 24.1702 44.0946 23.3373C44.3398 22.8811 44.5291 22.4136 44.7734 21.9591C44.913 21.6994 45.1349 21.3849 45.2007 21.1002C45.2665 20.8153 45.5377 20.5374 45.6785 20.2754C45.7125 20.2122 45.9148 19.7479 45.9996 19.7935C46.1145 19.8553 45.6747 20.5619 45.641 20.6273C45.2818 21.3244 45.1604 22.2025 45.0368 22.9688C44.9784 23.3304 44.6939 23.8287 44.7565 24.1822C44.8042 24.4523 44.657 24.7311 44.5967 24.992C44.4735 25.5255 44.7969 24.7362 44.8266 24.5644C44.9216 24.016 45.2736 23.5421 45.4951 23.0326C45.7008 22.5594 45.9331 21.8647 46.2317 21.4444C46.4089 21.195 46.6958 20.7778 46.7695 20.4761C46.8126 20.2995 47.0207 19.7105 47.2284 19.648C47.3952 19.5978 47.0765 19.9614 47.0027 20.1192C46.9107 20.3158 46.8827 20.6191 46.8158 20.8386C46.674 21.3036 46.5032 21.7793 46.437 22.2609C46.3526 22.8743 46.4629 23.4636 46.2397 24.0185C46.0406 24.5131 46.3342 23.6803 46.3762 23.5338C46.5223 23.0241 46.7178 22.4946 46.9707 22.0242C47.3922 21.24 47.5765 20.3994 48.0463 19.6261C48.1509 19.4537 48.301 18.9968 48.393 19.3784C48.4548 19.6347 48.1832 20.2145 48.0682 20.4439C47.8511 20.8771 47.7617 21.4257 47.6586 21.8979C47.6111 22.1155 47.6402 22.615 47.5224 22.7858C47.4695 22.8624 47.5577 23.1806 47.673 23.0183C47.7767 22.8722 47.7721 22.6851 47.8436 22.5279C47.9926 22.2002 48.1351 21.6853 48.2131 21.3279C48.262 21.104 49.0478 19.9797 49.1037 20.1325C49.2986 20.6649 49.0257 21.1377 48.7414 21.5499C48.4244 22.0093 47.9364 22.444 47.5405 22.861C47.1122 23.3121 46.6815 23.5862 46.1089 23.8517C45.3407 24.2077 44.4573 24.5156 43.82 25.0912C43.7098 25.1907 43.5558 25.2461 43.4782 25.3553C43.455 25.388 43.5084 25.119 43.6211 25.0256C43.928 24.771 44.2541 24.0565 44.3402 23.6622C44.5702 22.6086 45.4193 21.6406 46.0315 20.7787C46.0951 20.6892 46.245 20.2816 46.3199 20.5306C46.38 20.7307 46.4395 20.9387 46.3803 21.1487C46.2461 21.625 45.9538 22.0956 45.891 22.5909C45.8781 22.6922 45.4964 23.384 45.4216 23.1756C45.1196 22.3345 44.8841 21.4471 44.643 20.5869C44.3537 19.5546 44.7952 18.5836 44.9681 17.5855C44.982 17.5052 44.9994 17.2006 44.8311 17.3086C44.6987 17.3935 44.6366 17.7984 44.6046 17.9413C44.5009 18.4047 44.2448 18.914 44.0618 19.3547C43.8724 19.8109 43.8318 20.4934 43.4772 20.8524C43.1578 21.1756 42.8689 21.8371 42.6944 22.2573C42.3907 22.9886 42.3383 23.6774 42.2397 24.4552C42.1984 24.7809 42.2842 25.102 42.2436 25.4219C42.2313 25.5193 42.2802 26.1881 42.0648 25.9596" stroke="#F97C60" stroke-width="2" stroke-linecap="round"/>
</svg>
