<svg width="163" height="98" viewBox="0 0 163 98" fill="none" xmlns="http://www.w3.org/2000/svg">
<path d="M19.248 41.4992C16.7482 35.9993 -1.8307 38.0812 1.3693 47.6812C5.3693 59.6812 47.8693 51.1811 45.3693 71.1811C42.8693 91.1811 4.36929 88.4992 1.36929 82.9992" stroke="#F97C60" stroke-width="2" stroke-linecap="round"/>
<path d="M51.3694 59.6816C51.2027 65.515 52.3694 77.0816 58.3694 76.6816C64.3694 76.2816 65.536 62.1816 65.3694 55.1816C65.2027 62.515 66.9694 76.1816 75.3694 72.1816" stroke="#F97C60" stroke-width="2" stroke-linecap="round"/>
<path d="M77.8691 52.6816C79.8691 61.3483 82.6691 82.2816 77.8691 96.6816" stroke="#F97C60" stroke-width="2" stroke-linecap="round"/>
<path d="M99.3691 45.8867C101.369 54.5534 104.169 75.4867 99.3691 89.8867" stroke="#F97C60" stroke-width="2" stroke-linecap="round"/>
<path d="M74.3691 55.6813C75.8691 53.348 81.0691 48.9813 89.8691 50.1813C98.6691 51.3813 87.5358 64.348 80.8691 70.6814" stroke="#F97C60" stroke-width="2" stroke-linecap="round"/>
<path d="M95.8691 48.8864C97.3691 46.5531 102.569 42.1864 111.369 43.3864C120.169 44.5864 109.036 57.5531 102.369 63.8865" stroke="#F97C60" stroke-width="2" stroke-linecap="round"/>
<path d="M119.845 39.649C122.168 34.1173 127.23 34.9782 129.47 36.1001C135.804 40.3877 132.687 54.2634 127.183 55.7474C121.678 57.2314 116.94 46.5637 119.845 39.649Z" stroke="#F97C60" stroke-width="2" stroke-linecap="round"/>
<path d="M139.369 51.6816L137.369 30.1816" stroke="#F97C60" stroke-width="2" stroke-linecap="round"/>
<path d="M137.869 34.6818C140.369 32.0151 146.069 26.9818 148.869 28.1818C151.669 29.3818 151.036 32.0152 150.369 33.1819" stroke="#F97C60" stroke-width="2" stroke-linecap="round"/>
<path d="M154.748 1C155.081 12.1667 156.148 36.9 157.748 46.5" stroke="#F97C60" stroke-width="2" stroke-linecap="round"/>
<path d="M147.748 12C150.62 10.8148 157.44 8.35556 161.748 8" stroke="#F97C60" stroke-width="2" stroke-linecap="round"/>
</svg>
