<svg width="70" height="70" viewBox="0 0 70 70" fill="none" xmlns="http://www.w3.org/2000/svg">
<path d="M67.6207 22.9547C67.4019 21.5602 67.0874 20.0289 66.2124 18.8805C65.5835 18.0465 64.7085 17.8688 63.8472 18.1149C63.6968 16.5973 63.2183 14.984 61.7964 14.3414C60.7164 13.8629 59.9234 14.3551 59.3902 15.1344C59.3218 14.7926 59.2261 14.4508 59.1167 14.109C58.5835 12.5778 56.9156 10.9781 55.2886 12.1539C54.3453 12.8239 54.0035 13.9723 53.5523 14.984C53.525 15.066 53.4839 15.1344 53.4566 15.2164C53.2105 14.5602 52.814 13.8903 52.1167 13.7262C50.9957 13.4664 50.0523 14.4508 49.5601 15.3395C48.8355 16.652 48.7945 18.2242 48.6851 19.6871C48.5621 21.2457 48.1519 22.7633 47.9468 24.3082C47.7144 26.0856 47.564 27.8629 47.3179 29.6403C46.9898 32.1012 46.4566 34.5758 45.2125 36.7223C44.8707 36.5582 44.5152 36.4078 44.2007 36.1754C43.6949 35.8063 43.4488 35.3004 43.3667 34.6989C43.2027 33.4957 43.7085 32.1969 43.8589 31.0211C44.023 29.6676 43.7769 28.3688 43.025 27.234C42.5328 26.4957 41.7261 25.9352 40.8238 26.3043C40.0171 26.6324 39.5386 27.4938 39.1558 28.2321C38.6773 29.1481 38.3355 30.1461 38.0484 31.1442C37.2964 33.6598 36.9683 36.2711 37.5562 38.8688C37.9527 40.6188 38.7183 42.2867 39.4292 43.9274C39.8667 44.9528 40.2906 45.9508 40.4957 47.0582C40.7007 48.111 40.7007 49.1774 40.605 50.2438C40.4273 52.1031 39.8667 53.9215 39.3199 55.6989C38.8003 57.3258 38.2671 59.0758 38.5542 60.7985C38.6636 64.9137 49.232 69.1383 51.939 67.0602C52.2808 67.1559 52.65 67.0328 52.7867 66.609C53.3335 64.859 53.771 63.0817 54.3726 61.359C54.6871 60.4567 55.0562 59.568 55.521 58.7203C55.7398 58.3239 55.9722 57.9547 56.232 57.5856C56.355 57.4078 56.4781 57.2438 56.6011 57.066C56.8062 57.1207 57.0386 57.0934 57.2574 56.9293C59.9781 54.7692 61.7691 51.4742 63.0953 48.3297C64.6812 44.5426 66.0074 40.6188 66.9234 36.6129C67.9214 32.0739 68.3316 27.5485 67.6207 22.9547ZM62.5484 45.5406C61.2359 48.9723 59.6636 52.691 56.9019 55.2203C56.6968 55.0836 56.4507 55.0426 56.2183 55.1793C55.9039 55.3707 55.6714 55.6305 55.521 55.9586C55.316 56.4098 54.8785 56.8336 54.6187 57.2574C54.0718 58.1188 53.6343 59.0485 53.2652 59.9918C52.6089 61.6188 52.1714 63.3278 51.6792 65.0094C51.3648 65.0367 51.064 65.2555 51.0503 65.6656C51.0367 65.9117 51.0503 65.8024 51.0093 65.8571C51.0093 65.8707 50.9957 65.8707 50.9957 65.8707C50.982 65.8707 50.9683 65.8844 50.9273 65.9117C50.9 65.9391 50.9136 65.9254 50.7496 65.9938C50.5035 66.1031 49.9566 66.1168 49.5464 66.0895C48.1792 66.0074 46.8394 65.5699 45.5679 65.0914C44.1871 64.5582 42.8472 63.8746 41.6714 62.9723C41.2066 62.6168 40.7691 62.2203 40.4136 61.7418C40.1675 61.4137 40.0308 61.0035 40.0308 60.7574C40.0308 60.6891 40.0308 60.6207 40.0171 60.5524C39.73 58.8844 40.4136 57.1617 40.9058 55.5895C41.4664 53.8121 41.9449 51.9528 42.1089 50.0934C42.3003 48.0699 41.9449 46.0465 41.1656 44.1735C40.441 42.4508 39.607 40.7555 39.1148 38.9508C38.4039 36.3531 38.773 33.8375 39.5113 31.4039C39.7984 30.4469 40.1402 29.4762 40.6187 28.6012C40.7964 28.2867 41.0152 27.9723 41.2476 27.7672C41.398 27.6305 41.3296 27.6852 41.398 27.6715C41.4117 27.6715 41.4253 27.6578 41.4253 27.6578C41.4253 27.6578 41.439 27.6852 41.48 27.7125C42.1226 28.15 42.396 29.3531 42.4097 30.1051C42.4234 31.1989 42.0953 32.2653 41.9312 33.3317C41.7808 34.3434 41.8082 35.4098 42.3414 36.3121C42.6285 36.7906 43.025 37.1735 43.4761 37.5016C43.9546 37.8434 44.5699 37.9801 45.021 38.3492C45.3355 38.5953 45.855 38.486 46.0738 38.1715C48.0289 35.2321 48.6031 31.7047 48.9996 28.2594C49.2046 26.4957 49.3687 24.7184 49.6558 22.9547C49.7789 22.2438 49.9703 21.5602 50.0796 20.8492C50.189 20.0836 50.2164 19.2906 50.2847 18.525C50.3804 17.4176 50.5582 15.7906 51.6656 15.1891C51.6792 15.1754 51.6929 15.1754 51.7066 15.1617C51.7203 15.1754 51.7886 15.2301 51.8707 15.3258C52.0621 15.5856 52.1851 16.0778 52.2671 16.4332C52.4859 17.3629 52.5679 18.3336 52.5269 19.277C52.4859 20.6852 52.4449 22.1071 52.2398 23.5016C52.0621 24.7321 51.7476 25.9215 51.2417 27.0563C50.8453 27.9449 52.2535 28.4508 52.65 27.5758C53.7847 25.0328 54.0445 22.0934 54.0171 19.318C54.3042 19.1949 54.5093 18.9215 54.4273 18.525C54.1949 17.4586 54.5367 16.4469 54.9468 15.4625C55.2339 14.7653 55.4937 13.7125 56.191 13.2887C57.3257 12.6051 57.941 15.3942 58.0093 15.9821C58.2691 18.1422 57.8589 20.4391 57.4214 22.5582C56.9976 24.5817 56.396 26.5778 55.8082 28.5602C55.6167 28.7106 55.48 28.943 55.521 29.2574L55.5621 29.6676C55.6441 30.4059 56.7925 30.4879 57.0113 29.7906C57.8042 27.1246 58.5972 24.4723 59.1167 21.7379C59.3765 20.3844 59.5953 18.9352 59.6089 17.4996C59.896 17.4313 60.1421 17.2262 60.2242 16.8844C60.3062 16.5153 60.4703 15.7496 60.9214 15.6403C61.2632 15.5582 61.5914 16.0094 61.7691 16.2281C62.2749 16.8844 62.3296 17.8824 62.398 18.6754C62.48 19.6871 62.3843 20.7125 62.3707 21.7242C62.357 22.5992 62.1792 23.5153 62.0699 24.3903C61.9605 25.3746 61.8238 26.3453 61.6734 27.3297C61.4273 28.8746 61.1128 30.4059 60.6617 31.9098C60.4019 32.0465 60.2105 32.3199 60.2515 32.6754L60.3199 33.2907C60.4019 34.0426 61.5367 34.0973 61.7691 33.4137C62.5347 31.1578 62.9859 28.8199 63.3277 26.4821C63.6558 24.2125 63.9292 21.943 63.9292 19.6598C63.9292 19.6598 63.9292 19.6598 63.9429 19.6598C64.066 19.5778 64.2027 19.5231 64.3394 19.4821C64.3257 19.4821 64.5445 19.4547 64.5171 19.4547C64.6675 19.4547 64.8042 19.5231 64.941 19.6598C65.4058 20.1246 65.6519 20.8903 65.8296 21.5875C66.3492 23.5153 66.4722 25.566 66.5132 27.5485C66.5953 33.7145 64.7222 39.8531 62.5484 45.5406ZM36.9957 59.6774C35.5328 56.2594 33.4546 53.0465 32.8121 49.3278C32.4976 47.5231 32.8394 45.7184 33.0855 43.9137C33.3316 42.0953 33.441 40.2906 33.2769 38.4586C33.1949 37.5016 33.0582 36.5582 33.0308 35.6012C33.0035 34.5621 32.9898 33.5231 32.8941 32.484C32.7437 30.8434 32.3062 29.0797 31.2125 27.8082C29.9 26.2906 26.9332 25.4977 25.8531 27.6852C25.2515 28.902 25.6617 30.3922 26.2359 31.5406C26.605 32.2789 27.0699 32.9762 27.2339 33.7965C27.3707 34.4801 27.0562 35.5192 26.2222 35.4508C25.0464 35.3551 24.4312 33.5504 24.1031 32.6617C23.6109 31.3082 23.3238 29.859 23.064 28.4371C22.7632 26.8512 22.3531 25.2789 22.1753 23.6793C21.9703 21.8336 22.271 20.111 22.8179 18.361C23.1871 17.1852 23.6109 15.8453 23.1187 14.6422C22.7359 13.6852 21.7925 13.4664 20.9175 13.6715C20.9722 12.8785 20.7945 12.0446 20.316 11.566C19.4546 10.7184 18.1968 11.2926 17.3218 11.7985C17.021 11.9762 16.7476 12.1676 16.4878 12.3727C16.4195 12.3453 16.3375 12.3317 16.2417 12.3453C12.4 12.4 10.1988 16.9528 9.1187 20.0563C8.81792 20.9313 8.5855 21.8063 8.43511 22.6949C6.398 23.2282 5.85112 26.4821 5.53667 28.2047C5.00347 31.1305 5.00347 34.2203 5.30425 37.1598C5.48198 38.9235 5.83745 40.6598 6.46636 42.3141C7.1773 44.2145 8.32573 46.0328 9.33745 47.7965C10.3902 49.6285 11.4976 51.4196 12.646 53.1832C13.6167 54.6735 14.7378 56.0953 15.5582 57.6813C17.6636 61.6871 19.2906 68.4547 25.0601 68.1266C27.5484 67.9899 29.9683 66.7594 32.0191 65.4196C33.6597 64.3395 35.5601 62.7262 36.107 60.7301C36.6128 60.8531 37.2691 60.3336 36.9957 59.6774ZM34.7261 59.8141C34.6441 60.8395 33.9742 61.7281 33.2906 62.4391C32.3472 63.4098 31.2125 64.2028 30.0503 64.8727C28.0816 65.9801 25.5113 67.1422 23.2417 66.3766C20.7125 65.5153 19.482 62.6989 18.4703 60.4567C17.9234 59.2262 17.4039 57.9684 16.7613 56.7789C15.9136 55.193 14.7652 53.7438 13.7808 52.2399C11.9488 49.4235 10.2535 46.525 8.69487 43.5582C7.34136 40.9742 6.80816 38.2535 6.64409 35.3551C6.52105 33.1266 6.61675 30.8297 6.97222 28.6285C7.12261 27.6442 7.3687 26.6598 7.7105 25.7301C7.79253 25.525 7.95659 25.1012 8.148 24.7594C7.87456 28.0953 8.32573 31.4723 8.69487 34.8219C8.80425 35.7789 10.2808 35.5055 10.1714 34.5485C9.67925 30.1051 9.00933 25.5934 10.3082 21.2321C10.8003 19.5778 11.525 17.9781 12.4957 16.5426C13.0562 15.6949 13.8492 14.7242 14.8062 14.2184C14.1089 15.2438 13.6167 16.4059 13.2203 17.5817C12.4 20.0426 12.0445 22.6676 11.8531 25.2379C11.7574 26.4 11.7027 27.5758 11.6753 28.7516C11.6343 30.0914 11.6617 31.5953 12.5093 32.7028C13.0972 33.4684 14.2457 32.4977 13.6578 31.7321C13.0835 30.9801 13.1519 29.7633 13.1656 28.8746C13.1792 27.9039 13.2476 26.9469 13.3023 25.9762C13.4253 23.9117 13.6714 21.8473 14.1363 19.8375C14.6011 17.8824 15.271 15.8864 16.5699 14.3141C17.1578 13.6031 17.9781 13.0836 18.8257 12.7418C18.9351 12.7008 19.0718 12.6598 19.1812 12.6598C19.2906 12.6598 19.2085 12.5641 19.2632 12.7418C19.4 13.1656 19.4683 13.9586 19.2222 14.3551C19.1128 14.5328 19.0718 14.7242 19.1128 14.8883C18.1832 15.9957 17.6089 17.6227 17.2671 18.8942C16.898 20.2614 16.939 21.7106 16.8433 23.1188C16.7613 24.5407 16.146 25.9762 16.775 27.3434C17.1714 28.2321 18.5386 27.5758 18.1285 26.7008C17.7457 25.8532 18.1695 24.8551 18.2789 23.9801C18.4019 22.941 18.3882 21.8883 18.4703 20.8492C18.566 19.4547 19.0035 18.0875 19.6734 16.8707C19.8648 16.5289 21.2183 14.3278 21.7378 15.3395C21.9566 15.7633 21.7652 16.4606 21.6695 16.8981C21.5191 17.4996 21.3277 18.0875 21.1363 18.6754C20.0015 22.1617 20.9585 25.6071 21.6285 29.0797C21.9019 30.5289 22.2437 31.9645 22.7359 33.3453C23.1324 34.4801 23.7066 35.6832 24.7046 36.4215C26.0035 37.3785 27.7671 37.0778 28.4371 35.5602C29.2164 33.8102 28.273 32.2926 27.4937 30.7477C27.1382 30.0504 26.6324 28.4782 27.5757 27.9723C28.314 27.5895 29.3257 28.0953 29.8589 28.6012C31.0757 29.7496 31.3218 31.691 31.4449 33.2633C31.5132 34.2477 31.5132 35.2321 31.5543 36.2028C31.5953 37.2281 31.7593 38.2262 31.8414 39.2379C32.1148 42.8746 30.7066 46.4293 31.4039 50.0524C32.0328 53.3199 33.7417 56.2321 35.1363 59.2262C34.9312 59.3082 34.7535 59.5133 34.7261 59.8141ZM41.9585 11.484C41.521 7.10901 38.3082 4.22424 34.9996 1.73596C34.6851 1.50354 34.2066 1.46252 33.9332 1.80432C31.3628 5.18127 28.9703 9.13245 30.0093 13.5211C30.3921 15.1344 31.1031 16.816 31.8277 18.3063C32.4429 19.5641 33.2632 20.9313 34.521 21.6285C34.2886 22.777 34.0562 23.9254 34.1519 25.1285C34.2203 26.0992 35.6558 25.9762 35.6558 25.0192V24.4039C35.6558 24.3492 35.6558 24.2946 35.6421 24.2399C35.6558 23.5016 35.7789 22.7633 35.9156 22.025C35.9293 22.0114 35.9429 22.0114 35.9429 22.0114C36.066 21.9293 36.148 21.8336 36.2027 21.7379C36.2984 21.6696 36.3804 21.5875 36.4351 21.5328C36.8453 21.15 37.3511 20.8356 37.775 20.4664C38.7046 19.6871 39.6617 18.8531 40.4273 17.8961C41.9175 16.0504 42.191 13.7672 41.9585 11.484ZM39.0464 17.1989C38.3218 18.0465 37.4332 18.8121 36.5718 19.5094C36.5035 19.5641 36.4214 19.6324 36.3531 19.6871C36.4214 19.277 36.4625 18.8531 36.4761 18.443C36.5855 16.0504 36.6812 13.6715 36.6812 11.2653C36.6812 10.2946 35.1773 10.4176 35.1773 11.3746C35.1773 12.5094 35.1773 13.6442 35.15 14.7789C35.1226 16.0367 34.9859 17.2946 34.9722 18.5524C34.9585 19.0446 34.9175 19.5231 34.8355 20.0016C34.0835 19.4 33.5777 18.484 33.1675 17.6364C32.525 16.3102 32.0191 14.8883 31.5543 13.4801C30.3511 9.85706 32.5113 6.22034 34.6441 3.34924C37.3648 5.44104 39.9488 7.81995 40.4273 11.402C40.7281 13.5211 40.4546 15.5446 39.0464 17.1989Z" fill="#8CE5B5"/>
</svg>
