<svg width="266" height="137" viewBox="0 0 266 137" fill="none" xmlns="http://www.w3.org/2000/svg">
<path d="M136.848 34.19C136.848 31.9136 136.848 29.6372 136.848 27.3608C136.848 25.4079 133.987 23.6241 132.209 23.6241C131.632 23.6241 130.139 23.3605 129.832 23.8818C129.284 24.8139 128.44 25.1027 127.714 25.8289C126.185 27.3574 125.228 29.1493 124.478 31.2121C122.445 36.8038 121.397 42.7063 119.381 48.3065C119.098 49.0936 118.602 49.8128 118.551 50.6832C118.5 51.5461 117.565 52.2244 118.952 51.3417C120.491 50.3619 123.272 50.0258 125.051 49.7096C126.969 49.3686 129.071 49.3328 130.935 48.7504C134.052 47.7763 137.568 46.9898 140.398 45.2713C142.467 44.0154 145.179 43.5766 147.041 41.9212C148.379 40.7325 149.991 40.1667 149.991 38.1844C149.991 36.405 148.148 34.7054 146.254 34.7054C144.474 34.7054 142.836 33.9323 140.971 33.9323C139.846 33.9323 139.269 34.2102 138.265 34.4334C137.929 34.508 137.008 35.0529 136.748 34.9488C136.68 34.9219 137.931 34.3386 138.136 34.2473C139.303 33.7288 140.817 33.9323 142.059 33.9323C143.132 33.9323 144.437 33.7147 145.481 33.9466C147.654 34.4296 147.671 35.9566 147.671 37.9124C147.671 38.6464 146.539 40.0886 145.753 40.0886C145.372 40.0886 145.765 37.2459 145.552 36.7671C145.44 36.5139 144.921 34.4268 144.522 35.5358C143.941 37.1493 143.93 38.9834 143.419 40.6183C143.327 40.9129 142.9 43.1811 142.646 43.1811C142.334 43.1811 142.26 39.7347 142.26 39.3441C142.26 37.6529 141.322 33.8363 139.683 37.0248C139.08 38.1955 138.784 39.4813 138.194 40.6613C137.84 41.3686 137.423 42.0846 137.363 42.8947C137.287 43.9194 136.59 45.6357 136.59 43.5676C136.59 42.1395 136.314 40.1588 136.905 38.8287C137.032 38.544 137.416 36.1378 136.962 36.0083C135.722 35.6539 135.12 39.6389 134.929 40.3463C134.491 41.9739 133.691 43.8839 133.498 45.5291C133.417 46.2175 133.24 45.7225 133.24 45.2713C133.24 44.2763 133.127 43.1907 133.369 42.2218C133.685 40.9556 134.271 39.6359 134.271 38.3133C134.271 37.2825 134.271 36.2516 134.271 35.2208C134.271 33.5917 133.389 37.1251 133.24 37.6833C132.57 40.1969 131.857 42.8323 131.193 45.1568C131.008 45.8026 130.595 46.3465 130.419 46.9607C129.951 48.6005 130.536 43.5375 130.863 41.8639C131.472 38.7513 131.814 35.0394 133.039 32.1283C133.835 30.2381 134.013 28.1439 134.013 26.0723C134.013 24.9011 134.024 23.935 133.44 25.6284C132.688 27.8098 132.312 30.0043 131.822 32.2572C131.363 34.3724 131.567 36.9428 130.792 38.9576C130.333 40.1498 130.605 41.5348 130.09 42.6943C129.456 44.1216 129.594 46.2206 128.658 47.3903C128.362 47.7608 128.283 49.8458 127.885 48.1061C127.498 46.4127 127.828 44.3037 127.828 42.5654C127.828 39.1098 128.086 35.5908 128.086 32.1856C128.086 30.1052 128.736 26.8853 129.761 25.0414C129.946 24.7089 130.446 22.2537 129.947 23.939C129.449 25.6184 128.859 27.8116 128.859 29.5656C128.859 33.0795 127.694 36.7218 126.74 40.06C126.092 42.3292 125.717 44.9964 124.793 47.0753C124.651 47.3937 123.962 49.7213 123.962 47.8484C123.962 46.0445 123.962 44.2405 123.962 42.4366C123.962 40.4417 123.962 38.4469 123.962 36.4521C123.962 35.5306 123.897 34.3597 124.349 33.5457C124.633 33.0347 125.251 31.5541 125.251 30.9973C125.251 28.8711 124.438 35.1741 124.163 37.2825C123.864 39.571 123.358 41.8351 123.175 44.126C123.091 45.1739 122.828 46.6535 122.359 47.5907C121.79 48.7285 121.128 48.8061 121.128 47.3903C121.128 44.0197 123.479 40.5822 125.251 37.7979C126.202 36.3038 127.054 34.7717 127.771 33.1592C128.141 32.3265 128.014 31.2786 128.472 30.4533C129.288 28.9856 130.543 27.7056 131.379 26.2011C131.559 25.8759 131.8 25.4958 132.009 25.2276C132.012 25.2234 131.334 26.2577 131.178 26.5877C129.828 29.4572 129.374 32.5918 129.374 35.7649C129.374 40.2567 128.086 44.5215 128.086 48.9794C128.086 49.3169 128.022 48.2436 128.229 47.9773C128.568 47.5416 128.742 46.9566 129.117 46.5599C129.814 45.8215 130.108 44.7701 131.035 44.2405C131.737 43.8396 132.406 42.4591 132.839 41.778C133.765 40.3231 134.058 38.161 134.471 36.5093C134.983 34.4606 135.559 32.5714 135.559 30.4533C135.559 29.698 135.817 28.9804 135.817 28.1339C135.817 27.2804 135.865 28.0172 135.688 28.4059C135.089 29.7238 135.386 31.4169 135.244 32.8156C134.986 35.3703 135.044 37.9223 135.044 40.4895C135.044 41.7637 135.258 41.9923 136.017 42.7516C137.581 44.3156 139.416 42.7266 139.94 40.8903C140.233 39.8655 140.713 39.153 140.713 38.0556C140.713 37.2257 140.713 40.121 140.713 40.647C140.713 41.9641 140.713 43.2813 140.713 44.5984C140.713 44.8627 140.928 44.1119 140.985 43.854C141.098 43.3468 141.666 42.9157 142.002 42.5798C143.042 41.54 145.756 39.2518 143.949 37.5402C142.395 36.0683 139.622 36.3653 137.75 36.7814C134.587 37.4842 131.951 40.8636 130.248 43.3529C128.496 45.9126 126.502 48.3974 124.22 50.4255C123.637 50.9437 123.575 50.2304 124.02 49.91C124.817 49.3358 125.692 48.9165 126.568 48.4784C128.878 47.3237 131.283 46.945 133.755 46.3594C136.603 45.685 139.434 45.6842 142.102 44.4982C143.583 43.8399 142.057 43.1934 141.229 43.0093C138.085 42.3107 134.67 43.2991 131.465 42.5511C129.986 42.2062 127.9 41.7351 127.585 40.0027C127.281 38.3303 127.313 36.1595 127.313 34.4477C127.313 33.387 128.001 25.6846 125.766 29.0359" stroke="#F97C60" stroke-width="2" stroke-linecap="round"/>
<path d="M251.858 34.19C251.858 31.9136 251.858 29.6372 251.858 27.3608C251.858 25.4079 248.997 23.6241 247.219 23.6241C246.642 23.6241 245.149 23.3605 244.842 23.8818C244.294 24.8139 243.449 25.1027 242.723 25.8289C241.195 27.3574 240.238 29.1493 239.488 31.2121C237.454 36.8038 236.407 42.7063 234.391 48.3065C234.107 49.0936 233.612 49.8128 233.56 50.6832C233.51 51.5461 232.574 52.2244 233.961 51.3417C235.501 50.3619 238.282 50.0258 240.06 49.7096C241.979 49.3686 244.081 49.3328 245.945 48.7504C249.062 47.7763 252.578 46.9898 255.408 45.2713C257.477 44.0154 260.189 43.5766 262.051 41.9212C263.388 40.7325 265.001 40.1667 265.001 38.1844C265.001 36.405 263.158 34.7054 261.264 34.7054C259.484 34.7054 257.846 33.9323 255.981 33.9323C254.856 33.9323 254.279 34.2102 253.275 34.4334C252.939 34.508 252.017 35.0529 251.757 34.9488C251.69 34.9219 252.94 34.3386 253.146 34.2473C254.313 33.7288 255.826 33.9323 257.069 33.9323C258.142 33.9323 259.447 33.7147 260.491 33.9466C262.664 34.4296 262.681 35.9566 262.681 37.9124C262.681 38.6464 261.549 40.0886 260.763 40.0886C260.382 40.0886 260.775 37.2459 260.562 36.7671C260.45 36.5139 259.931 34.4268 259.531 35.5358C258.951 37.1493 258.94 38.9834 258.429 40.6183C258.337 40.9129 257.91 43.1811 257.656 43.1811C257.344 43.1811 257.269 39.7347 257.269 39.3441C257.269 37.6529 256.332 33.8363 254.692 37.0248C254.09 38.1955 253.793 39.4813 253.203 40.6613C252.85 41.3686 252.433 42.0846 252.373 42.8947C252.297 43.9194 251.6 45.6357 251.6 43.5676C251.6 42.1395 251.324 40.1588 251.915 38.8287C252.041 38.544 252.425 36.1378 251.972 36.0083C250.732 35.6539 250.129 39.6389 249.939 40.3463C249.501 41.9739 248.701 43.8839 248.507 45.5291C248.426 46.2175 248.25 45.7225 248.25 45.2713C248.25 44.2763 248.136 43.1907 248.378 42.2218C248.695 40.9556 249.28 39.6359 249.28 38.3133C249.28 37.2825 249.28 36.2516 249.28 35.2208C249.28 33.5917 248.399 37.1251 248.25 37.6833C247.579 40.1969 246.866 42.8323 246.202 45.1568C246.018 45.8026 245.605 46.3465 245.429 46.9607C244.961 48.6005 245.546 43.5375 245.873 41.8639C246.482 38.7513 246.823 35.0394 248.049 32.1283C248.845 30.2381 249.023 28.1439 249.023 26.0723C249.023 24.9011 249.034 23.935 248.45 25.6284C247.698 27.8098 247.322 30.0043 246.832 32.2572C246.372 34.3724 246.576 36.9428 245.801 38.9576C245.343 40.1498 245.615 41.5348 245.1 42.6943C244.466 44.1216 244.604 46.2206 243.668 47.3903C243.372 47.7608 243.293 49.8458 242.895 48.1061C242.508 46.4127 242.838 44.3037 242.838 42.5654C242.838 39.1098 243.096 35.5908 243.096 32.1856C243.096 30.1052 243.746 26.8853 244.771 25.0414C244.955 24.7089 245.456 22.2537 244.957 23.939C244.459 25.6184 243.869 27.8116 243.869 29.5656C243.869 33.0795 242.703 36.7218 241.75 40.06C241.101 42.3292 240.727 44.9964 239.803 47.0753C239.661 47.3937 238.972 49.7213 238.972 47.8484C238.972 46.0445 238.972 44.2405 238.972 42.4366C238.972 40.4417 238.972 38.4469 238.972 36.4521C238.972 35.5306 238.907 34.3597 239.359 33.5457C239.643 33.0347 240.261 31.5541 240.261 30.9973C240.261 28.8711 239.448 35.1741 239.173 37.2825C238.874 39.571 238.368 41.8351 238.185 44.126C238.101 45.1739 237.837 46.6535 237.369 47.5907C236.8 48.7285 236.137 48.8061 236.137 47.3903C236.137 44.0197 238.489 40.5822 240.261 37.7979C241.212 36.3038 242.064 34.7717 242.781 33.1592C243.151 32.3265 243.024 31.2786 243.482 30.4533C244.297 28.9856 245.553 27.7056 246.388 26.2011C246.569 25.8759 246.81 25.4958 247.018 25.2276C247.022 25.2234 246.343 26.2577 246.188 26.5877C244.838 29.4572 244.384 32.5918 244.384 35.7649C244.384 40.2567 243.096 44.5215 243.096 48.9794C243.096 49.3169 243.032 48.2436 243.239 47.9773C243.578 47.5416 243.752 46.9566 244.126 46.5599C244.824 45.8215 245.118 44.7701 246.045 44.2405C246.746 43.8396 247.415 42.4591 247.849 41.778C248.775 40.3231 249.068 38.161 249.481 36.5093C249.993 34.4606 250.569 32.5714 250.569 30.4533C250.569 29.698 250.827 28.9804 250.827 28.1339C250.827 27.2804 250.875 28.0172 250.698 28.4059C250.099 29.7238 250.396 31.4169 250.254 32.8156C249.995 35.3703 250.054 37.9223 250.054 40.4895C250.054 41.7637 250.268 41.9923 251.027 42.7516C252.591 44.3156 254.425 42.7266 254.95 40.8903C255.243 39.8655 255.723 39.153 255.723 38.0556C255.723 37.2257 255.723 40.121 255.723 40.647C255.723 41.9641 255.723 43.2813 255.723 44.5984C255.723 44.8627 255.938 44.1119 255.995 43.854C256.108 43.3468 256.676 42.9157 257.012 42.5798C258.051 41.54 260.765 39.2518 258.959 37.5402C257.405 36.0683 254.632 36.3653 252.759 36.7814C249.597 37.4842 246.961 40.8636 245.257 43.3529C243.506 45.9126 241.512 48.3974 239.23 50.4255C238.647 50.9437 238.585 50.2304 239.03 49.91C239.827 49.3358 240.702 48.9165 241.578 48.4784C243.887 47.3237 246.293 46.945 248.765 46.3594C251.613 45.685 254.443 45.6842 257.112 44.4982C258.593 43.8399 257.067 43.1934 256.239 43.0093C253.095 42.3107 249.68 43.2991 246.474 42.5511C244.996 42.2062 242.909 41.7351 242.594 40.0027C242.29 38.3303 242.322 36.1595 242.322 34.4477C242.322 33.387 243.01 25.6846 240.776 29.0359" stroke="#F97C60" stroke-width="2" stroke-linecap="round"/>
<path d="M70.8731 5.83648C70.8731 3.56008 70.8731 1.28368 70.8731 -0.992724C70.8731 -2.94561 68.0123 -4.72946 66.2344 -4.72946C65.6579 -4.72946 64.1645 -4.99305 63.8578 -4.47175C63.3095 -3.53962 62.465 -3.25077 61.7389 -2.52464C60.2104 -0.99613 59.2534 0.795789 58.5033 2.85855C56.4699 8.45026 55.4225 14.3528 53.4064 19.953C53.1231 20.74 52.6272 21.4593 52.576 22.3297C52.5253 23.1926 51.59 23.8708 52.9769 22.9882C54.5167 22.0084 57.2976 21.6722 59.076 21.3561C60.9944 21.015 63.0964 20.9793 64.9602 20.3969C68.0772 19.4228 71.5934 18.6363 74.4238 16.9178C76.4924 15.6619 79.2045 15.2231 81.0668 13.5677C82.4041 12.379 84.0161 11.8132 84.0161 9.83092C84.0161 8.0515 82.1735 6.35189 80.2794 6.35189C78.4994 6.35189 76.8617 5.57877 74.9964 5.57877C73.8717 5.57877 73.2947 5.85671 72.2905 6.07987C71.9548 6.15447 71.0331 6.69935 70.7729 6.59528C70.7057 6.56839 71.9561 5.98511 72.1617 5.89375C73.3281 5.37532 74.8419 5.57877 76.0845 5.57877C77.1572 5.57877 78.4625 5.36114 79.5063 5.59309C81.6799 6.07611 81.6968 7.60311 81.6968 9.5589C81.6968 10.2928 80.5644 11.7351 79.7783 11.7351C79.3975 11.7351 79.7907 8.8924 79.5779 8.41354C79.4654 8.1604 78.9463 6.07328 78.5471 7.18228C77.9662 8.79579 77.9556 10.6299 77.4446 12.2648C77.3526 12.5594 76.9253 14.8275 76.6715 14.8275C76.3592 14.8275 76.285 11.3812 76.285 10.9906C76.285 9.29934 75.3477 5.48274 73.7079 8.67124C73.1058 9.84199 72.8089 11.1278 72.2189 12.3078C71.8653 13.0151 71.4486 13.7311 71.3886 14.5412C71.3127 15.5659 70.6154 17.2822 70.6154 15.2141C70.6154 13.786 70.3393 11.8052 70.9304 10.4752C71.057 10.1904 71.441 7.78425 70.9877 7.65474C69.7475 7.30041 69.1451 11.2854 68.9547 11.9928C68.5165 13.6204 67.7165 15.5303 67.523 17.1755C67.442 17.864 67.2653 17.369 67.2653 16.9178C67.2653 15.9228 67.1519 14.8372 67.3941 13.8683C67.7107 12.6021 68.2961 11.2824 68.2961 9.95977C68.2961 8.92895 68.2961 7.89813 68.2961 6.8673C68.2961 5.23822 67.4141 8.7716 67.2653 9.32983C66.595 11.8434 65.8821 14.4788 65.2179 16.8033C65.0334 17.4491 64.6203 17.993 64.4448 18.6072C63.9763 20.247 64.5612 15.184 64.8886 13.5104C65.4976 10.3978 65.8391 6.68592 67.0648 3.77483C67.8607 1.88454 68.0384 -0.209573 68.0384 -2.28125C68.0384 -3.45237 68.0496 -4.4185 67.4657 -2.72508C66.7135 -0.543717 66.3376 1.65082 65.8479 3.90369C65.3881 6.01893 65.5919 8.58933 64.8171 10.604C64.3585 11.7963 64.6309 13.1813 64.1155 14.3408C63.4812 15.7681 63.6196 17.8671 62.6838 19.0367C62.3874 19.4073 62.3084 21.4923 61.9107 19.7526C61.5236 18.0591 61.8534 15.9502 61.8534 14.2119C61.8534 10.7563 62.1112 7.23733 62.1112 3.8321C62.1112 1.75173 62.7619 -1.46823 63.7862 -3.31208C63.971 -3.64465 64.4717 -6.09979 63.9724 -4.41448C63.4748 -2.73508 62.8843 -0.541958 62.8843 1.21209C62.8843 4.72595 61.7191 8.36829 60.7654 11.7064C60.117 13.9757 59.7422 16.6429 58.8182 18.7218C58.6767 19.0401 57.9879 21.3677 57.9879 19.4949C57.9879 17.6909 57.9879 15.887 57.9879 14.0831C57.9879 12.0882 57.9879 10.0934 57.9879 8.09856C57.9879 7.17705 57.9222 6.00615 58.3744 5.19222C58.6583 4.68114 59.2764 3.2006 59.2764 2.64379C59.2764 0.517575 58.4633 6.82059 58.1883 8.92895C57.8898 11.2175 57.3837 13.4816 57.2004 15.7725C57.1166 16.8203 56.853 18.2999 56.3844 19.2372C55.8155 20.375 55.1531 20.4526 55.1531 19.0367C55.1531 15.6662 57.5045 12.2287 59.2764 9.44436C60.2272 7.95025 61.0795 6.41814 61.7962 4.80566C62.1663 3.97293 62.0392 2.92507 62.4977 2.09975C63.3131 0.632046 64.5683 -0.647959 65.4041 -2.1524C65.5847 -2.47764 65.8254 -2.85775 66.034 -3.12596C66.0373 -3.13016 65.3589 -2.09582 65.2036 -1.76584C63.8532 1.10372 63.3997 4.23831 63.3997 7.41135C63.3997 11.9031 62.1112 16.1679 62.1112 20.6259C62.1112 20.9634 62.0471 19.8901 62.2543 19.6237C62.5932 19.188 62.7673 18.6031 63.142 18.2064C63.8393 17.468 64.1337 16.4166 65.0605 15.887C65.762 15.4861 66.431 14.1055 66.8644 13.4245C67.7902 11.9696 68.0836 9.80745 68.4965 8.15583C69.0087 6.10709 69.5846 4.21787 69.5846 2.09975C69.5846 1.34448 69.8423 0.626931 69.8423 -0.219607C69.8423 -1.07312 69.8902 -0.336303 69.7135 0.0524163C69.1144 1.37031 69.4113 3.06337 69.2696 4.46205C69.0109 7.01677 69.0692 9.56882 69.0692 12.136C69.0692 13.4102 69.2835 13.6388 70.0428 14.398C71.6068 15.9621 73.441 14.373 73.9656 12.5368C74.2584 11.512 74.7387 10.7995 74.7387 9.70207C74.7387 8.87214 74.7387 11.7674 74.7387 12.2934C74.7387 13.6106 74.7387 14.9278 74.7387 16.2449C74.7387 16.5091 74.9534 15.7584 75.0108 15.5004C75.1235 14.9933 75.6913 14.5622 76.0273 14.2262C77.067 13.1865 79.7811 10.8983 77.9744 9.18665C76.4207 7.71478 73.6474 8.01179 71.7751 8.42785C68.6123 9.1307 65.9762 12.5101 64.273 14.9994C62.5216 17.5591 60.5272 20.0439 58.2456 22.0719C57.6626 22.5902 57.6001 21.8769 58.0451 21.5565C58.8427 20.9822 59.7173 20.563 60.5936 20.1248C62.9029 18.9701 65.3083 18.5915 67.7807 18.0059C70.6283 17.3315 73.459 17.3307 76.1275 16.1447C77.6088 15.4863 76.0828 14.8399 75.2541 14.6557C72.1106 13.9572 68.6956 14.9456 65.49 14.1976C64.0116 13.8527 61.925 13.3816 61.6101 11.6492C61.306 9.9768 61.338 7.80597 61.338 6.09419C61.338 5.0335 62.026 -2.66894 59.7918 0.682363" stroke="#F97C60" stroke-width="2" stroke-linecap="round"/>
<path d="M70.8731 117.641C70.8731 115.365 70.8731 113.088 70.8731 110.812C70.8731 108.859 68.0123 107.075 66.2344 107.075C65.6579 107.075 64.1645 106.812 63.8578 107.333C63.3095 108.265 62.465 108.554 61.7389 109.28C60.2104 110.809 59.2534 112.6 58.5033 114.663C56.4699 120.255 55.4225 126.157 53.4064 131.758C53.1231 132.545 52.6272 133.264 52.576 134.134C52.5253 134.997 51.59 135.676 52.9769 134.793C54.5167 133.813 57.2976 133.477 59.076 133.161C60.9944 132.82 63.0964 132.784 64.9602 132.202C68.0772 131.227 71.5934 130.441 74.4238 128.723C76.4924 127.467 79.2045 127.028 81.0668 125.372C82.4041 124.184 84.0161 123.618 84.0161 121.636C84.0161 119.856 82.1735 118.157 80.2794 118.157C78.4994 118.157 76.8617 117.383 74.9964 117.383C73.8717 117.383 73.2947 117.661 72.2905 117.885C71.9548 117.959 71.0331 118.504 70.7729 118.4C70.7057 118.373 71.9561 117.79 72.1617 117.698C73.3281 117.18 74.8419 117.383 76.0845 117.383C77.1572 117.383 78.4625 117.166 79.5063 117.398C81.6799 117.881 81.6968 119.408 81.6968 121.364C81.6968 122.098 80.5644 123.54 79.7783 123.54C79.3975 123.54 79.7907 120.697 79.5779 120.218C79.4654 119.965 78.9463 117.878 78.5471 118.987C77.9662 120.6 77.9556 122.435 77.4446 124.069C77.3526 124.364 76.9253 126.632 76.6715 126.632C76.3592 126.632 76.285 123.186 76.285 122.795C76.285 121.104 75.3477 117.287 73.7079 120.476C73.1058 121.647 72.8089 122.932 72.2189 124.112C71.8653 124.82 71.4486 125.536 71.3886 126.346C71.3127 127.371 70.6154 129.087 70.6154 127.019C70.6154 125.591 70.3393 123.61 70.9304 122.28C71.057 121.995 71.441 119.589 70.9877 119.459C69.7475 119.105 69.1451 123.09 68.9547 123.797C68.5165 125.425 67.7165 127.335 67.523 128.98C67.442 129.669 67.2653 129.174 67.2653 128.723C67.2653 127.727 67.1519 126.642 67.3941 125.673C67.7107 124.407 68.2961 123.087 68.2961 121.764C68.2961 120.734 68.2961 119.703 68.2961 118.672C68.2961 117.043 67.4141 120.576 67.2653 121.135C66.595 123.648 65.8821 126.283 65.2179 128.608C65.0334 129.254 64.6203 129.798 64.4448 130.412C63.9763 132.052 64.5612 126.989 64.8886 125.315C65.4976 122.203 65.8391 118.491 67.0648 115.58C67.8607 113.689 68.0384 111.595 68.0384 109.523C68.0384 108.352 68.0496 107.386 67.4657 109.08C66.7135 111.261 66.3376 113.456 65.8479 115.708C65.3881 117.824 65.5919 120.394 64.8171 122.409C64.3585 123.601 64.6309 124.986 64.1155 126.145C63.4812 127.573 63.6196 129.672 62.6838 130.841C62.3874 131.212 62.3084 133.297 61.9107 131.557C61.5236 129.864 61.8534 127.755 61.8534 126.017C61.8534 122.561 62.1112 119.042 62.1112 115.637C62.1112 113.556 62.7619 110.336 63.7862 108.493C63.971 108.16 64.4717 105.705 63.9724 107.39C63.4748 109.07 62.8843 111.263 62.8843 113.017C62.8843 116.531 61.7191 120.173 60.7654 123.511C60.117 125.78 59.7422 128.448 58.8182 130.526C58.6767 130.845 57.9879 133.172 57.9879 131.3C57.9879 129.496 57.9879 127.692 57.9879 125.888C57.9879 123.893 57.9879 121.898 57.9879 119.903C57.9879 118.982 57.9222 117.811 58.3744 116.997C58.6583 116.486 59.2764 115.005 59.2764 114.448C59.2764 112.322 58.4633 118.625 58.1883 120.734C57.8898 123.022 57.3837 125.286 57.2004 127.577C57.1166 128.625 56.853 130.105 56.3844 131.042C55.8155 132.18 55.1531 132.257 55.1531 130.841C55.1531 127.471 57.5045 124.033 59.2764 121.249C60.2272 119.755 61.0795 118.223 61.7962 116.61C62.1663 115.778 62.0392 114.73 62.4977 113.904C63.3131 112.437 64.5683 111.157 65.4041 109.652C65.5847 109.327 65.8254 108.947 66.034 108.679C66.0373 108.675 65.3589 109.709 65.2036 110.039C63.8532 112.908 63.3997 116.043 63.3997 119.216C63.3997 123.708 62.1112 127.973 62.1112 132.431C62.1112 132.768 62.0471 131.695 62.2543 131.428C62.5932 130.993 62.7673 130.408 63.142 130.011C63.8393 129.273 64.1337 128.221 65.0605 127.692C65.762 127.291 66.431 125.91 66.8644 125.229C67.7902 123.774 68.0836 121.612 68.4965 119.961C69.0087 117.912 69.5846 116.023 69.5846 113.904C69.5846 113.149 69.8423 112.432 69.8423 111.585C69.8423 110.732 69.8902 111.468 69.7135 111.857C69.1144 113.175 69.4113 114.868 69.2696 116.267C69.0109 118.821 69.0692 121.374 69.0692 123.941C69.0692 125.215 69.2835 125.443 70.0428 126.203C71.6068 127.767 73.441 126.178 73.9656 124.342C74.2584 123.317 74.7387 122.604 74.7387 121.507C74.7387 120.677 74.7387 123.572 74.7387 124.098C74.7387 125.415 74.7387 126.732 74.7387 128.05C74.7387 128.314 74.9534 127.563 75.0108 127.305C75.1235 126.798 75.6913 126.367 76.0273 126.031C77.067 124.991 79.7811 122.703 77.9744 120.991C76.4207 119.519 73.6474 119.816 71.7751 120.233C68.6123 120.935 65.9762 124.315 64.273 126.804C62.5216 129.364 60.5272 131.849 58.2456 133.877C57.6626 134.395 57.6001 133.682 58.0451 133.361C58.8427 132.787 59.7173 132.368 60.5936 131.93C62.9029 130.775 65.3083 130.396 67.7807 129.811C70.6283 129.136 73.459 129.135 76.1275 127.949C77.6088 127.291 76.0828 126.645 75.2541 126.46C72.1106 125.762 68.6956 126.75 65.49 126.002C64.0116 125.657 61.925 125.186 61.6101 123.454C61.306 121.781 61.338 119.611 61.338 117.899C61.338 116.838 62.026 109.136 59.7918 112.487" stroke="#F97C60" stroke-width="2" stroke-linecap="round"/>
<path d="M176.666 117.641C176.666 115.365 176.666 113.088 176.666 110.812C176.666 108.859 173.805 107.075 172.027 107.075C171.451 107.075 169.957 106.812 169.651 107.333C169.102 108.265 168.258 108.554 167.532 109.28C166.003 110.809 165.046 112.6 164.296 114.663C162.263 120.255 161.215 126.157 159.199 131.758C158.916 132.545 158.42 133.264 158.369 134.134C158.318 134.997 157.383 135.676 158.77 134.793C160.31 133.813 163.091 133.477 164.869 133.161C166.787 132.82 168.889 132.784 170.753 132.202C173.87 131.227 177.386 130.441 180.217 128.723C182.285 127.467 184.997 127.028 186.86 125.372C188.197 124.184 189.809 123.618 189.809 121.636C189.809 119.856 187.966 118.157 186.072 118.157C184.292 118.157 182.655 117.383 180.789 117.383C179.665 117.383 179.088 117.661 178.084 117.885C177.748 117.959 176.826 118.504 176.566 118.4C176.499 118.373 177.749 117.79 177.955 117.698C179.121 117.18 180.635 117.383 181.878 117.383C182.95 117.383 184.255 117.166 185.299 117.398C187.473 117.881 187.49 119.408 187.49 121.364C187.49 122.098 186.357 123.54 185.571 123.54C185.19 123.54 185.584 120.697 185.371 120.218C185.258 119.965 184.739 117.878 184.34 118.987C183.759 120.6 183.749 122.435 183.238 124.069C183.146 124.364 182.718 126.632 182.464 126.632C182.152 126.632 182.078 123.186 182.078 122.795C182.078 121.104 181.141 117.287 179.501 120.476C178.899 121.647 178.602 122.932 178.012 124.112C177.658 124.82 177.242 125.536 177.182 126.346C177.106 127.371 176.408 129.087 176.408 127.019C176.408 125.591 176.132 123.61 176.723 122.28C176.85 121.995 177.234 119.589 176.781 119.459C175.54 119.105 174.938 123.09 174.748 123.797C174.309 125.425 173.509 127.335 173.316 128.98C173.235 129.669 173.058 129.174 173.058 128.723C173.058 127.727 172.945 126.642 173.187 125.673C173.504 124.407 174.089 123.087 174.089 121.764C174.089 120.734 174.089 119.703 174.089 118.672C174.089 117.043 173.207 120.576 173.058 121.135C172.388 123.648 171.675 126.283 171.011 128.608C170.826 129.254 170.413 129.798 170.238 130.412C169.769 132.052 170.354 126.989 170.682 125.315C171.291 122.203 171.632 118.491 172.858 115.58C173.654 113.689 173.831 111.595 173.831 109.523C173.831 108.352 173.843 107.386 173.259 109.08C172.506 111.261 172.131 113.456 171.641 115.708C171.181 117.824 171.385 120.394 170.61 122.409C170.151 123.601 170.424 124.986 169.908 126.145C169.274 127.573 169.413 129.672 168.477 130.841C168.18 131.212 168.101 133.297 167.704 131.557C167.317 129.864 167.646 127.755 167.646 126.017C167.646 122.561 167.904 119.042 167.904 115.637C167.904 113.556 168.555 110.336 169.579 108.493C169.764 108.16 170.265 105.705 169.765 107.39C169.268 109.07 168.677 111.263 168.677 113.017C168.677 116.531 167.512 120.173 166.558 123.511C165.91 125.78 165.535 128.448 164.611 130.526C164.47 130.845 163.781 133.172 163.781 131.3C163.781 129.496 163.781 127.692 163.781 125.888C163.781 123.893 163.781 121.898 163.781 119.903C163.781 118.982 163.715 117.811 164.167 116.997C164.451 116.486 165.069 115.005 165.069 114.448C165.069 112.322 164.256 118.625 163.981 120.734C163.683 123.022 163.177 125.286 162.993 127.577C162.91 128.625 162.646 130.105 162.177 131.042C161.608 132.18 160.946 132.257 160.946 130.841C160.946 127.471 163.298 124.033 165.069 121.249C166.02 119.755 166.872 118.223 167.589 116.61C167.959 115.778 167.832 114.73 168.291 113.904C169.106 112.437 170.361 111.157 171.197 109.652C171.378 109.327 171.618 108.947 171.827 108.679C171.83 108.675 171.152 109.709 170.997 110.039C169.646 112.908 169.193 116.043 169.193 119.216C169.193 123.708 167.904 127.973 167.904 132.431C167.904 132.768 167.84 131.695 168.047 131.428C168.386 130.993 168.56 130.408 168.935 130.011C169.632 129.273 169.927 128.221 170.853 127.692C171.555 127.291 172.224 125.91 172.657 125.229C173.583 123.774 173.877 121.612 174.289 119.961C174.802 117.912 175.378 116.023 175.378 113.904C175.378 113.149 175.635 112.432 175.635 111.585C175.635 110.732 175.683 111.468 175.506 111.857C174.907 113.175 175.204 114.868 175.063 116.267C174.804 118.821 174.862 121.374 174.862 123.941C174.862 125.215 175.076 125.443 175.836 126.203C177.4 127.767 179.234 126.178 179.759 124.342C180.051 123.317 180.532 122.604 180.532 121.507C180.532 120.677 180.532 123.572 180.532 124.098C180.532 125.415 180.532 126.732 180.532 128.05C180.532 128.314 180.746 127.563 180.804 127.305C180.916 126.798 181.484 126.367 181.82 126.031C182.86 124.991 185.574 122.703 183.767 120.991C182.214 119.519 179.44 119.816 177.568 120.233C174.405 120.935 171.769 124.315 170.066 126.804C168.315 129.364 166.32 131.849 164.039 133.877C163.456 134.395 163.393 133.682 163.838 133.361C164.636 132.787 165.51 132.368 166.387 131.93C168.696 130.775 171.101 130.396 173.574 129.811C176.421 129.136 179.252 129.135 181.92 127.949C183.402 127.291 181.876 126.645 181.047 126.46C177.904 125.762 174.489 126.75 171.283 126.002C169.805 125.657 167.718 125.186 167.403 123.454C167.099 121.781 167.131 119.611 167.131 117.899C167.131 116.838 167.819 109.136 165.585 112.487" stroke="#F97C60" stroke-width="2" stroke-linecap="round"/>
<path d="M192.295 58.733C192.295 56.4566 192.295 54.1802 192.295 51.9038C192.295 49.9509 189.434 48.167 187.656 48.167C187.08 48.167 185.586 47.9034 185.28 48.4247C184.731 49.3569 183.887 49.6457 183.161 50.3718C181.632 51.9004 180.675 53.6923 179.925 55.755C177.892 61.3467 176.844 67.2493 174.828 72.8495C174.545 73.6365 174.049 74.3558 173.998 75.2261C173.947 76.0891 173.012 76.7673 174.399 75.8847C175.939 74.9048 178.719 74.5687 180.498 74.2526C182.416 73.9115 184.518 73.8758 186.382 73.2933C189.499 72.3193 193.015 71.5328 195.846 69.8143C197.914 68.5584 200.626 68.1195 202.489 66.4641C203.826 65.2755 205.438 64.7097 205.438 62.7274C205.438 60.948 203.595 59.2484 201.701 59.2484C199.921 59.2484 198.284 58.4753 196.418 58.4753C195.294 58.4753 194.717 58.7532 193.712 58.9764C193.377 59.051 192.455 59.5958 192.195 59.4918C192.128 59.4649 193.378 58.8816 193.584 58.7902C194.75 58.2718 196.264 58.4753 197.506 58.4753C198.579 58.4753 199.884 58.2576 200.928 58.4896C203.102 58.9726 203.119 60.4996 203.119 62.4554C203.119 63.1893 201.986 64.6316 201.2 64.6316C200.819 64.6316 201.213 61.7889 201 61.31C200.887 61.0569 200.368 58.9698 199.969 60.0788C199.388 61.6923 199.377 63.5264 198.867 65.1613C198.774 65.4559 198.347 67.724 198.093 67.724C197.781 67.724 197.707 64.2777 197.707 63.8871C197.707 62.1958 196.77 58.3792 195.13 61.5677C194.528 62.7385 194.231 64.0242 193.641 65.2042C193.287 65.9116 192.87 66.6276 192.81 67.4377C192.735 68.4624 192.037 70.1787 192.037 68.1106C192.037 66.6825 191.761 64.7017 192.352 63.3717C192.479 63.0869 192.863 60.6807 192.41 60.5512C191.169 60.1969 190.567 64.1819 190.377 64.8893C189.938 66.5169 189.138 68.4268 188.945 70.072C188.864 70.7605 188.687 70.2654 188.687 69.8143C188.687 68.8193 188.574 67.7337 188.816 66.7648C189.133 65.4986 189.718 64.1789 189.718 62.8563C189.718 61.8254 189.718 60.7946 189.718 59.7638C189.718 58.1347 188.836 61.6681 188.687 62.2263C188.017 64.7399 187.304 67.3753 186.64 69.6998C186.455 70.3456 186.042 70.8895 185.867 71.5037C185.398 73.1435 185.983 68.0805 186.311 66.4069C186.92 63.2943 187.261 59.5824 188.487 56.6713C189.283 54.781 189.46 52.6869 189.46 50.6152C189.46 49.4441 189.472 48.478 188.888 50.1714C188.135 52.3528 187.76 54.5473 187.27 56.8002C186.81 58.9154 187.014 61.4858 186.239 63.5005C185.78 64.6927 186.053 66.0777 185.537 67.2373C184.903 68.6646 185.041 70.7636 184.106 71.9332C183.809 72.3037 183.73 74.3888 183.333 72.6491C182.946 70.9556 183.275 68.8466 183.275 67.1084C183.275 63.6528 183.533 60.1338 183.533 56.7286C183.533 54.6482 184.184 51.4283 185.208 49.5844C185.393 49.2518 185.894 46.7967 185.394 48.482C184.897 50.1614 184.306 52.3545 184.306 54.1086C184.306 57.6224 183.141 61.2648 182.187 64.6029C181.539 66.8721 181.164 69.5394 180.24 71.6183C180.099 71.9366 179.41 74.2642 179.41 72.3914C179.41 70.5874 179.41 68.7835 179.41 66.9796C179.41 64.9847 179.41 62.9899 179.41 60.995C179.41 60.0735 179.344 58.9026 179.796 58.0887C180.08 57.5776 180.698 56.0971 180.698 55.5403C180.698 53.4141 179.885 59.7171 179.61 61.8254C179.312 64.1139 178.806 66.3781 178.622 68.669C178.538 69.7168 178.275 71.1964 177.806 72.1337C177.237 73.2715 176.575 73.3491 176.575 71.9332C176.575 68.5627 178.926 65.1252 180.698 62.3408C181.649 60.8467 182.501 59.3146 183.218 57.7021C183.588 56.8694 183.461 55.8216 183.92 54.9962C184.735 53.5285 185.99 52.2485 186.826 50.7441C187.007 50.4188 187.247 50.0387 187.456 49.7705C187.459 49.7663 186.781 50.8007 186.625 51.1306C185.275 54.0002 184.822 57.1348 184.822 60.3078C184.822 64.7996 183.533 69.0644 183.533 73.5224C183.533 73.8599 183.469 72.7866 183.676 72.5202C184.015 72.0845 184.189 71.4996 184.564 71.1028C185.261 70.3645 185.556 69.3131 186.482 68.7835C187.184 68.3826 187.853 67.002 188.286 66.321C189.212 64.8661 189.506 62.7039 189.918 61.0523C190.431 59.0036 191.006 57.1144 191.006 54.9962C191.006 54.241 191.264 53.5234 191.264 52.6769C191.264 51.8234 191.312 52.5602 191.135 52.9489C190.536 54.2668 190.833 55.9599 190.692 57.3585C190.433 59.9133 190.491 62.4653 190.491 65.0324C190.491 66.3067 190.705 66.5352 191.465 67.2945C193.029 68.8586 194.863 67.2695 195.387 65.4333C195.68 64.4085 196.161 63.696 196.161 62.5986C196.161 61.7686 196.161 64.6639 196.161 65.1899C196.161 66.5071 196.161 67.8243 196.161 69.1414C196.161 69.4056 196.375 68.6548 196.433 68.3969C196.545 67.8898 197.113 67.4587 197.449 67.1227C198.489 66.083 201.203 63.7948 199.396 62.0831C197.843 60.6113 195.069 60.9083 193.197 61.3243C190.034 62.0272 187.398 65.4065 185.695 67.8958C183.943 70.4556 181.949 72.9403 179.667 74.9684C179.084 75.4866 179.022 74.7734 179.467 74.453C180.265 73.8787 181.139 73.4594 182.015 73.0213C184.325 71.8666 186.73 71.488 189.203 70.9024C192.05 70.228 194.881 70.2272 197.549 69.0412C199.031 68.3828 197.505 67.7364 196.676 67.5522C193.532 66.8537 190.117 67.8421 186.912 67.0941C185.433 66.7491 183.347 66.2781 183.032 64.5457C182.728 62.8733 182.76 60.7025 182.76 58.9907C182.76 57.93 183.448 50.2275 181.214 53.5788" stroke="#F97C60" stroke-width="2" stroke-linecap="round"/>
<path d="M191.093 5.83648C191.093 3.56008 191.093 1.28368 191.093 -0.992724C191.093 -2.94561 188.232 -4.72946 186.454 -4.72946C185.878 -4.72946 184.384 -4.99305 184.078 -4.47175C183.529 -3.53962 182.685 -3.25077 181.959 -2.52464C180.43 -0.99613 179.473 0.795789 178.723 2.85855C176.69 8.45026 175.642 14.3528 173.626 19.953C173.343 20.74 172.847 21.4593 172.796 22.3297C172.745 23.1926 171.81 23.8708 173.197 22.9882C174.736 22.0084 177.517 21.6722 179.296 21.3561C181.214 21.015 183.316 20.9793 185.18 20.3969C188.297 19.4228 191.813 18.6363 194.643 16.9178C196.712 15.6619 199.424 15.2231 201.287 13.5677C202.624 12.379 204.236 11.8132 204.236 9.83092C204.236 8.0515 202.393 6.35189 200.499 6.35189C198.719 6.35189 197.081 5.57877 195.216 5.57877C194.091 5.57877 193.514 5.85671 192.51 6.07987C192.175 6.15447 191.253 6.69935 190.993 6.59528C190.925 6.56839 192.176 5.98511 192.381 5.89375C193.548 5.37532 195.062 5.57877 196.304 5.57877C197.377 5.57877 198.682 5.36114 199.726 5.59309C201.9 6.07611 201.917 7.60311 201.917 9.5589C201.917 10.2928 200.784 11.7351 199.998 11.7351C199.617 11.7351 200.01 8.8924 199.798 8.41354C199.685 8.1604 199.166 6.07328 198.767 7.18228C198.186 8.79579 198.175 10.6299 197.664 12.2648C197.572 12.5594 197.145 14.8275 196.891 14.8275C196.579 14.8275 196.505 11.3812 196.505 10.9906C196.505 9.29934 195.567 5.48274 193.928 8.67124C193.326 9.84199 193.029 11.1278 192.439 12.3078C192.085 13.0151 191.668 13.7311 191.608 14.5412C191.532 15.5659 190.835 17.2822 190.835 15.2141C190.835 13.786 190.559 11.8052 191.15 10.4752C191.277 10.1904 191.661 7.78425 191.207 7.65474C189.967 7.30041 189.365 11.2854 189.174 11.9928C188.736 13.6204 187.936 15.5303 187.743 17.1755C187.662 17.864 187.485 17.369 187.485 16.9178C187.485 15.9228 187.372 14.8372 187.614 13.8683C187.93 12.6021 188.516 11.2824 188.516 9.95977C188.516 8.92895 188.516 7.89813 188.516 6.8673C188.516 5.23822 187.634 8.7716 187.485 9.32983C186.815 11.8434 186.102 14.4788 185.438 16.8033C185.253 17.4491 184.84 17.993 184.665 18.6072C184.196 20.247 184.781 15.184 185.108 13.5104C185.717 10.3978 186.059 6.68592 187.285 3.77483C188.08 1.88454 188.258 -0.209573 188.258 -2.28125C188.258 -3.45237 188.269 -4.4185 187.685 -2.72508C186.933 -0.543717 186.557 1.65082 186.068 3.90369C185.608 6.01893 185.812 8.58933 185.037 10.604C184.578 11.7963 184.851 13.1813 184.335 14.3408C183.701 15.7681 183.839 17.8671 182.904 19.0367C182.607 19.4073 182.528 21.4923 182.13 19.7526C181.743 18.0591 182.073 15.9502 182.073 14.2119C182.073 10.7563 182.331 7.23733 182.331 3.8321C182.331 1.75173 182.982 -1.46823 184.006 -3.31208C184.191 -3.64465 184.691 -6.09979 184.192 -4.41448C183.694 -2.73508 183.104 -0.541958 183.104 1.21209C183.104 4.72595 181.939 8.36829 180.985 11.7064C180.337 13.9757 179.962 16.6429 179.038 18.7218C178.896 19.0401 178.208 21.3677 178.208 19.4949C178.208 17.6909 178.208 15.887 178.208 14.0831C178.208 12.0882 178.208 10.0934 178.208 8.09856C178.208 7.17705 178.142 6.00615 178.594 5.19222C178.878 4.68114 179.496 3.2006 179.496 2.64379C179.496 0.517575 178.683 6.82059 178.408 8.92895C178.11 11.2175 177.603 13.4816 177.42 15.7725C177.336 16.8203 177.073 18.2999 176.604 19.2372C176.035 20.375 175.373 20.4526 175.373 19.0367C175.373 15.6662 177.724 12.2287 179.496 9.44436C180.447 7.95025 181.299 6.41814 182.016 4.80566C182.386 3.97293 182.259 2.92507 182.717 2.09975C183.533 0.632046 184.788 -0.647959 185.624 -2.1524C185.804 -2.47764 186.045 -2.85775 186.254 -3.12596C186.257 -3.13016 185.579 -2.09582 185.423 -1.76584C184.073 1.10372 183.619 4.23831 183.619 7.41135C183.619 11.9031 182.331 16.1679 182.331 20.6259C182.331 20.9634 182.267 19.8901 182.474 19.6237C182.813 19.188 182.987 18.6031 183.362 18.2064C184.059 17.468 184.353 16.4166 185.28 15.887C185.982 15.4861 186.651 14.1055 187.084 13.4245C188.01 11.9696 188.303 9.80745 188.716 8.15583C189.228 6.10709 189.804 4.21787 189.804 2.09975C189.804 1.34448 190.062 0.626931 190.062 -0.219607C190.062 -1.07312 190.11 -0.336303 189.933 0.0524163C189.334 1.37031 189.631 3.06337 189.489 4.46205C189.231 7.01677 189.289 9.56882 189.289 12.136C189.289 13.4102 189.503 13.6388 190.262 14.398C191.827 15.9621 193.661 14.373 194.185 12.5368C194.478 11.512 194.958 10.7995 194.958 9.70207C194.958 8.87214 194.958 11.7674 194.958 12.2934C194.958 13.6106 194.958 14.9278 194.958 16.2449C194.958 16.5091 195.173 15.7584 195.23 15.5004C195.343 14.9933 195.911 14.5622 196.247 14.2262C197.287 13.1865 200.001 10.8983 198.194 9.18665C196.64 7.71478 193.867 8.01179 191.995 8.42785C188.832 9.1307 186.196 12.5101 184.493 14.9994C182.741 17.5591 180.747 20.0439 178.465 22.0719C177.882 22.5902 177.82 21.8769 178.265 21.5565C179.062 20.9822 179.937 20.563 180.813 20.1248C183.123 18.9701 185.528 18.5915 188 18.0059C190.848 17.3315 193.679 17.3307 196.347 16.1447C197.829 15.4863 196.303 14.8399 195.474 14.6557C192.33 13.9572 188.915 14.9456 185.71 14.1976C184.231 13.8527 182.145 13.3816 181.83 11.6492C181.526 9.9768 181.558 7.80597 181.558 6.09419C181.558 5.0335 182.246 -2.66894 180.012 0.682363" stroke="#F97C60" stroke-width="2" stroke-linecap="round"/>
<path d="M111.66 104.147C111.66 101.562 112.17 99.2501 113.318 96.9546C114.44 94.7091 114.334 91.8081 115.064 89.4363C115.436 88.2267 115.179 86.4655 115.789 85.3663C116.214 84.6017 116.671 82.8945 116.722 82.0364C116.818 80.3947 118.862 76.4833 120.333 75.6428C122.156 74.601 124.604 74.5772 126.712 74.5772C127.811 74.5772 128.767 74.5164 129.568 75.3172C130.107 75.8559 130.381 77.0336 130.974 77.5076C132.089 78.3999 129.787 82.7292 129.494 83.7531C129.093 85.1573 129.69 84.136 130.574 83.6939C131.619 83.1716 132.883 83.3684 134.038 83.3684C135.593 83.3684 139.163 82.7269 140.372 83.6939C142.069 85.0518 142.296 86.5088 142.296 88.6963C142.296 90.5228 140.509 93.1616 139.306 94.4979C137.891 96.0702 135.856 97.4193 133.904 98.2866C128.883 100.518 124.181 103.369 118.853 104.739C117.53 105.079 115.933 105.136 114.694 105.613C113.877 105.927 112.236 106.279 111.394 106.279C111.059 106.279 110.328 106.599 110.328 106.279C110.328 105.756 110.922 105.274 111.127 104.813C111.81 103.277 112.652 101.719 113.525 100.285C114.544 98.6103 115.844 97.0424 116.781 95.3562C117.382 94.2747 117.952 92.5632 118.72 91.6415C119.574 90.6167 119.616 88.9112 119.978 87.6899C120.536 85.8063 120.575 83.667 121.384 81.8884C121.858 80.844 121.783 79.7446 121.783 78.5732C121.783 76.5969 120.373 77.2492 119.918 78.8396C119.307 80.9793 118.416 83.0677 117.846 85.2331C116.924 88.7371 116.373 92.3096 115.242 95.7706C114.723 97.3571 114.16 98.9566 113.806 100.551C113.741 100.845 113.024 104.072 113.525 103.822C113.994 103.587 114.233 102.907 114.59 102.549C115.026 102.113 115.756 101.735 116.322 101.483C118.156 100.668 120.129 99.6347 122.05 99.0858C125.538 98.0891 128.702 96.9163 131.758 94.9715C134.011 93.538 137.361 91.6308 138.773 89.2291C139.025 88.8017 140.945 86.829 140.017 86.2987C138.906 85.6639 137.89 85.7659 136.642 85.7659C134.71 85.7659 127.935 88.5051 126.904 85.8251C125.815 82.9946 127.131 80.7921 128.236 78.3068C129.429 75.6222 124.207 75.5162 123.382 77.3744C123.028 78.1694 123.285 78.9839 122.982 79.772C122.478 81.0827 122.302 82.5173 121.783 83.8419C120.702 86.6049 119.803 89.899 118.32 92.4407C117.057 94.6054 116.59 97.1177 115.597 99.3522C115.407 99.7801 114.579 102.457 114.916 102.756C115.22 103.027 120.037 97.4671 120.466 97.0878C122.501 95.2874 124.633 93.6476 126.519 91.6859C127.295 90.8795 128.015 89.9643 128.71 89.0959C129.297 88.362 131.591 88.4299 132.439 88.4299C133.771 88.4299 135.103 88.4299 136.435 88.4299C137.135 88.4299 137.271 88.0079 137.708 87.5715C137.729 87.5506 137.791 89.1503 137.752 89.4955C137.627 90.6187 137.154 91.7127 136.983 92.8255C136.889 93.437 137.151 94.129 136.761 94.6163C136.329 95.1557 137.205 93.8214 137.234 93.4323C137.318 92.3043 137.759 91.1401 138.033 90.0431C138.386 88.6323 138.947 87.0868 139.573 85.7659C139.784 85.3199 140.509 84.5506 139.898 85.2331C139.134 86.0878 138.739 87.2558 138.033 88.1635C136.364 90.31 135.252 92.8834 133.771 95.149C133.273 95.911 132.87 96.6477 132.321 97.3542C131.695 98.1592 131.906 96.8791 131.906 96.3626C131.906 93.3522 132.656 90.3435 132.987 87.3643C133.064 86.6654 133.238 86.0827 133.238 85.3663C133.238 84.9208 132.73 86.1882 132.439 86.6243C130.761 89.1414 129.811 92.0955 128.576 94.8383C128.009 96.1 127.113 97.0749 126.593 98.3754C126.522 98.5528 125.911 99.632 125.838 99.5594C125.224 98.9449 127.437 94.3054 127.644 93.4767C128.11 91.6142 128.276 89.8066 128.917 87.9563C129.02 87.659 129.258 86.5162 129.242 86.8907C129.194 88.0544 127.813 89.6882 127.244 90.6943C126.063 92.7845 125.308 95.0962 124.122 97.1618C123.217 98.7368 122.721 100.825 121.65 102.253C121.518 102.43 119.444 105.981 119.386 104.473C119.277 101.659 120.028 99.1449 120.451 96.3922C120.807 94.0767 121.096 91.1012 122.109 88.9627C122.66 87.7991 122.761 86.5294 123.234 85.3219C123.758 83.9826 124.491 82.7014 124.98 81.3556C125.405 80.1855 125.903 78.9896 126.046 77.774C126.362 75.0853 126.166 83.2149 126.697 85.8695C127.056 87.6655 126.124 93.0175 126.904 91.3603C127.822 89.4091 128.177 85.9755 128.177 83.8419C128.177 82.6761 128.443 81.5492 128.443 80.3788C128.443 80.0165 128.46 79.5125 128.443 80.2308C128.421 81.1782 128.079 81.7762 127.644 82.584C125.525 86.5188 124.639 91.2884 123.234 95.5042C123.12 95.8445 122.582 97.6455 122.582 97.4874C122.582 96.1883 122.871 94.9863 123.234 93.7431C124.166 90.5477 124.54 87.1962 125.513 84.0343C125.685 83.4732 126.191 82.1903 126.031 83.6348C125.823 85.5008 123.881 87.7295 122.967 89.2587C121.031 92.4978 119.361 95.8809 117.402 99.0858C117.217 99.3896 116.501 101.187 116.056 101.187C115.642 101.187 116.065 98.8289 116.189 98.6122C116.504 98.0609 117.856 94.0154 117.787 96.4218C117.73 98.4401 116.458 100.298 116.174 102.283C116.109 102.736 115.199 105.657 116.514 104.473C117.038 104.002 118.024 103.748 118.646 103.348C120.385 102.23 122.449 101.546 124.27 100.566C127.381 98.8903 130.195 96.8088 133.386 95.297C134.18 94.9212 132.376 95.7843 132.173 95.889C130.822 96.5839 129.854 97.7179 128.71 98.6714C128.286 99.0243 127.886 99.3766 127.496 99.7666C127.224 100.039 126.279 100.349 126.623 100.521C126.997 100.709 129.01 98.4299 129.302 98.1682C130.974 96.6687 132.379 94.8629 133.978 93.2843C135.124 92.1537 136.508 90.3637 137.871 89.5251C138.605 89.073 139.228 88.4299 137.974 88.4299C136.148 88.4299 134.473 88.6998 132.676 89.0811C131.472 89.3364 130.294 89.7501 129.109 90.0135C128.098 90.2383 129.394 88.2708 129.568 88.0451C130.11 87.3421 130.846 86.8733 131.492 86.2987C131.925 85.9134 132.889 86.0696 133.238 85.6327C134.034 84.6386 133.292 84.4339 134.896 84.4339C137.135 84.4339 137.596 85.3329 138.892 86.7723C139.717 87.6895 139.898 88.396 139.898 89.6287C139.898 90.5703 138.676 90.9373 137.9 91.3603C136.087 92.3491 134.269 93.3278 132.439 94.2907C132.221 94.4053 130.308 95.6789 130.308 95.0899C130.308 94.2044 132.113 93.2809 132.72 92.8255C133.56 92.1955 134.62 91.5396 135.37 90.8275C135.742 90.4738 137.055 89.7619 136.154 89.7619C134.779 89.7619 133.054 91.1975 131.906 91.9079C130.666 92.6757 127.03 95.1109 128.236 94.2907C130.382 92.8316 132.216 89.742 134.955 89.2439C138.031 88.6846 128.97 91.1753 125.868 91.5675C123.524 91.8639 118.32 94.0718 118.32 90.3095C118.32 88.2389 118.641 86.4449 118.853 84.4339C118.912 83.8677 119.156 83.4535 119.119 82.8356C119.096 82.4349 117.923 82.4275 117.787 82.732C116.75 85.0649 116.679 87.7989 115.656 90.1467C115.208 91.1752 115.373 92.4196 114.99 93.4915C114.798 94.0304 114.386 94.8018 114.324 95.3562C114.203 96.4446 113.627 98.2589 113.111 99.219C112.568 100.227 112.312 101.601 111.601 102.49C110.592 103.752 116.1 101.714 116.396 101.602C120.164 100.172 123.448 98.4705 126.978 96.5698C128.242 95.8894 129.974 95.1676 131.374 95.0899C132.723 95.0149 134.133 94.2907 135.503 94.2907C137.512 94.2907 134.88 95.8422 134.038 95.889C132.318 95.9846 132.15 95.287 131.64 93.7579" stroke="#F97C60" stroke-width="2" stroke-linecap="round"/>
<path d="M226.669 104.147C226.669 101.562 227.179 99.2501 228.326 96.9546C229.449 94.7091 229.343 91.8081 230.073 89.4363C230.445 88.2267 230.187 86.4655 230.798 85.3663C231.223 84.6017 231.68 82.8945 231.73 82.0364C231.827 80.3947 233.871 76.4833 235.342 75.6428C237.165 74.601 239.613 74.5772 241.72 74.5772C242.82 74.5772 243.776 74.5164 244.577 75.3172C245.115 75.8559 245.39 77.0336 245.983 77.5076C247.098 78.3999 244.795 82.7292 244.503 83.7531C244.102 85.1573 244.699 84.136 245.583 83.6939C246.628 83.1716 247.892 83.3684 249.046 83.3684C250.602 83.3684 254.172 82.7269 255.381 83.6939C257.078 85.0518 257.305 86.5088 257.305 88.6963C257.305 90.5228 255.518 93.1616 254.315 94.4979C252.9 96.0702 250.865 97.4193 248.913 98.2866C243.892 100.518 239.19 103.369 233.862 104.739C232.539 105.079 230.942 105.136 229.703 105.613C228.886 105.927 227.244 106.279 226.403 106.279C226.068 106.279 225.337 106.599 225.337 106.279C225.337 105.756 225.931 105.274 226.136 104.813C226.819 103.277 227.66 101.719 228.534 100.285C229.553 98.6103 230.853 97.0424 231.79 95.3562C232.391 94.2747 232.96 92.5632 233.728 91.6415C234.582 90.6167 234.625 88.9112 234.986 87.6899C235.545 85.8063 235.584 83.667 236.392 81.8884C236.867 80.844 236.792 79.7446 236.792 78.5732C236.792 76.5969 235.382 77.2492 234.927 78.8396C234.316 80.9793 233.425 83.0677 232.855 85.2331C231.933 88.7371 231.382 92.3096 230.25 95.7706C229.732 97.3571 229.169 98.9566 228.815 100.551C228.75 100.845 228.033 104.072 228.534 103.822C229.003 103.587 229.241 102.907 229.599 102.549C230.035 102.113 230.765 101.735 231.331 101.483C233.165 100.668 235.137 99.6347 237.058 99.0858C240.547 98.0891 243.711 96.9163 246.767 94.9715C249.02 93.538 252.369 91.6308 253.782 89.2291C254.034 88.8017 255.953 86.829 255.025 86.2987C253.914 85.6639 252.899 85.7659 251.651 85.7659C249.719 85.7659 242.944 88.5051 241.913 85.8251C240.824 82.9946 242.14 80.7921 243.245 78.3068C244.438 75.6222 239.216 75.5162 238.39 77.3744C238.037 78.1694 238.294 78.9839 237.991 79.772C237.487 81.0827 237.31 82.5173 236.792 83.8419C235.711 86.6049 234.811 89.899 233.329 92.4407C232.066 94.6054 231.599 97.1177 230.606 99.3522C230.415 99.7801 229.588 102.457 229.925 102.756C230.229 103.027 235.046 97.4671 235.475 97.0878C237.51 95.2874 239.642 93.6476 241.528 91.6859C242.303 90.8795 243.024 89.9643 243.718 89.0959C244.306 88.362 246.6 88.4299 247.448 88.4299C248.78 88.4299 250.112 88.4299 251.444 88.4299C252.143 88.4299 252.28 88.0079 252.717 87.5715C252.738 87.5506 252.799 89.1503 252.761 89.4955C252.636 90.6187 252.163 91.7127 251.991 92.8255C251.897 93.437 252.159 94.129 251.769 94.6163C251.338 95.1557 252.214 93.8214 252.243 93.4323C252.327 92.3043 252.768 91.1401 253.042 90.0431C253.395 88.6323 253.956 87.0868 254.581 85.7659C254.793 85.3199 255.518 84.5506 254.907 85.2331C254.142 86.0878 253.748 87.2558 253.042 88.1635C251.373 90.31 250.261 92.8834 248.78 95.149C248.282 95.911 247.879 96.6477 247.33 97.3542C246.703 98.1592 246.915 96.8791 246.915 96.3626C246.915 93.3522 247.664 90.3435 247.996 87.3643C248.073 86.6654 248.247 86.0827 248.247 85.3663C248.247 84.9208 247.739 86.1882 247.448 86.6243C245.77 89.1414 244.819 92.0955 243.585 94.8383C243.017 96.1 242.122 97.0749 241.602 98.3754C241.531 98.5528 240.92 99.632 240.847 99.5594C240.233 98.9449 242.446 94.3054 242.653 93.4767C243.118 91.6142 243.285 89.8066 243.926 87.9563C244.028 87.659 244.267 86.5162 244.251 86.8907C244.203 88.0544 242.822 89.6882 242.253 90.6943C241.072 92.7845 240.317 95.0962 239.13 97.1618C238.226 98.7368 237.73 100.825 236.659 102.253C236.526 102.43 234.452 105.981 234.394 104.473C234.286 101.659 235.037 99.1449 235.46 96.3922C235.816 94.0767 236.105 91.1012 237.118 88.9627C237.669 87.7991 237.77 86.5294 238.242 85.3219C238.766 83.9826 239.499 82.7014 239.989 81.3556C240.414 80.1855 240.911 78.9896 241.054 77.774C241.371 75.0853 241.175 83.2149 241.706 85.8695C242.065 87.6655 241.133 93.0175 241.913 91.3603C242.831 89.4091 243.186 85.9755 243.186 83.8419C243.186 82.6761 243.452 81.5492 243.452 80.3788C243.452 80.0165 243.469 79.5125 243.452 80.2308C243.429 81.1782 243.088 81.7762 242.653 82.584C240.534 86.5188 239.648 91.2884 238.242 95.5042C238.129 95.8445 237.591 97.6455 237.591 97.4874C237.591 96.1883 237.88 94.9863 238.242 93.7431C239.174 90.5477 239.549 87.1962 240.522 84.0343C240.694 83.4732 241.2 82.1903 241.04 83.6348C240.832 85.5008 238.89 87.7295 237.976 89.2587C236.04 92.4978 234.37 95.8809 232.411 99.0858C232.226 99.3896 231.51 101.187 231.064 101.187C230.651 101.187 231.074 98.8289 231.198 98.6122C231.513 98.0609 232.865 94.0154 232.796 96.4218C232.738 98.4401 231.466 100.298 231.183 102.283C231.118 102.736 230.208 105.657 231.523 104.473C232.047 104.002 233.033 103.748 233.654 103.348C235.394 102.23 237.458 101.546 239.278 100.566C242.39 98.8903 245.204 96.8088 248.395 95.297C249.189 94.9212 247.385 95.7843 247.182 95.889C245.83 96.5839 244.863 97.7179 243.718 98.6714C243.295 99.0243 242.895 99.3766 242.505 99.7666C242.233 100.039 241.287 100.349 241.632 100.521C242.006 100.709 244.019 98.4299 244.31 98.1682C245.983 96.6687 247.387 94.8629 248.987 93.2843C250.133 92.1537 251.517 90.3637 252.879 89.5251C253.614 89.073 254.237 88.4299 252.983 88.4299C251.157 88.4299 249.482 88.6998 247.685 89.0811C246.481 89.3364 245.303 89.7501 244.118 90.0135C243.106 90.2383 244.403 88.2708 244.577 88.0451C245.119 87.3421 245.854 86.8733 246.501 86.2987C246.934 85.9134 247.898 86.0696 248.247 85.6327C249.042 84.6386 248.3 84.4339 249.905 84.4339C252.144 84.4339 252.605 85.3329 253.901 86.7723C254.726 87.6895 254.907 88.396 254.907 89.6287C254.907 90.5703 253.685 90.9373 252.909 91.3603C251.096 92.3491 249.277 93.3278 247.448 94.2907C247.23 94.4053 245.317 95.6789 245.317 95.0899C245.317 94.2044 247.122 93.2809 247.729 92.8255C248.569 92.1955 249.629 91.5396 250.378 90.8275C250.751 90.4738 252.064 89.7619 251.163 89.7619C249.787 89.7619 248.063 91.1975 246.915 91.9079C245.675 92.6757 242.039 95.1109 243.245 94.2907C245.39 92.8316 247.224 89.742 249.964 89.2439C253.04 88.6846 243.979 91.1753 240.877 91.5675C238.532 91.8639 233.329 94.0718 233.329 90.3095C233.329 88.2389 233.65 86.4449 233.862 84.4339C233.921 83.8677 234.164 83.4535 234.128 82.8356C234.104 82.4349 232.931 82.4275 232.796 82.732C231.759 85.0649 231.688 87.7989 230.665 90.1467C230.217 91.1752 230.382 92.4196 229.999 93.4915C229.806 94.0304 229.394 94.8018 229.333 95.3562C229.212 96.4446 228.636 98.2589 228.119 99.219C227.576 100.227 227.321 101.601 226.61 102.49C225.6 103.752 231.108 101.714 231.405 101.602C235.173 100.172 238.457 98.4705 241.987 96.5698C243.25 95.8894 244.983 95.1676 246.382 95.0899C247.732 95.0149 249.142 94.2907 250.511 94.2907C252.521 94.2907 249.889 95.8422 249.046 95.889C247.327 95.9846 247.158 95.287 246.649 93.7579" stroke="#F97C60" stroke-width="2" stroke-linecap="round"/>
<path d="M8.34428 103.394C8.49643 103.326 8.80413 101.144 8.96161 100.736C9.38657 99.6369 9.6982 98.2133 9.9508 97.0563C10.5382 94.3657 11.0975 91.5999 11.2537 88.8445C11.3826 86.5705 12.8793 83.9275 13.8662 81.959C14.4038 80.8866 15.2932 79.4828 15.5766 78.3224C15.754 77.5961 16.8473 75.9496 17.4388 75.4785C18.9533 74.272 19.8099 72.8863 21.7588 72.3002C22.6896 72.0202 23.5648 71.4968 24.5503 71.2004C25.4341 70.9346 26.0283 71.8791 26.651 72.1297C27.032 72.283 27.6658 74.206 27.7983 74.6467C28.0894 75.6147 28.496 76.5858 28.3678 77.5976C28.2232 78.7381 27.7901 79.9514 27.3041 80.9819C27.1247 81.3623 27.0503 81.7806 26.8754 82.1515C26.6275 82.6772 26.8806 81.9803 27.1112 81.8782C27.6936 81.6206 27.9618 80.4989 28.5246 80.1378C29.4374 79.5521 29.7891 78.9914 30.9512 78.6419C32.6958 78.1172 35.0581 76.8683 36.7487 78.0691C38.3848 79.2312 39.2377 81.1684 39.6888 83.039C40.1072 84.7736 38.2585 87.2283 37.147 88.4289C35.868 89.8102 35.1655 91.8105 33.3541 92.7352C31.3436 93.7615 29.246 94.7621 27.2839 95.8617C25.4159 96.9086 23.5924 98.3154 21.6341 99.1364C20.5083 99.6085 19.3286 100.19 18.3075 100.86C17.4423 101.427 16.0357 101.483 15.2563 102.153C14.6956 102.635 13.2973 103.205 12.64 103.403C11.6714 103.694 11.0181 104.15 10.0871 104.43C9.73799 104.535 8.04386 105.501 8.06592 105.4C8.3026 104.316 8.97339 103.265 9.29938 102.196C9.90715 100.202 10.6865 97.7821 11.8553 96.0354C12.6389 94.8643 12.925 93.2837 13.5682 92.0223C14.2219 90.7402 15.039 89.0854 15.4824 87.7173C15.9194 86.3689 16.7241 85.139 17.0786 83.797C17.3766 82.6689 17.8012 81.3999 18.3278 80.357C18.9907 79.0443 19.5162 77.6845 20.2581 76.394C20.9141 75.2532 20.9284 74.8107 19.8947 76.0986C18.6922 77.5967 18.1226 79.6135 16.9906 81.1494C15.038 83.7987 13.7648 87.2016 12.8696 90.3243C12.2003 92.6591 11.8735 95.1326 11.4612 97.5127C11.3146 98.3593 10.8351 99.3968 11.0389 100.242C11.108 100.528 11.1747 102.947 10.8949 103.031C10.587 103.124 11.8872 98.7372 12.0439 98.3926C13.082 96.1091 14.6975 94.1199 15.6761 91.8219C17.4144 87.7401 19.5633 83.64 21.6566 79.7461C22.3191 78.5136 23.0531 77.3549 23.7078 76.1371C24.1319 75.3482 24.9543 74.2578 25.1298 73.3678C25.1822 73.102 25.5399 72.2704 25.2038 72.9408C24.7667 73.8126 24.3925 74.8778 24.0337 75.7789C23.0053 78.3612 21.9584 80.9687 20.6714 83.4392C18.7357 87.1548 17.5857 90.932 16.1753 94.7795C15.733 95.9861 15.4611 97.2044 14.7286 98.2356C14.1924 98.9905 13.594 100.165 13.6659 101.143C13.7697 102.552 14.3496 99.6982 14.6179 99.1651C15.4887 97.4346 16.3181 95.6898 17.2155 93.9608C18.447 91.5883 19.4135 89.0649 20.61 86.6955C21.354 85.222 22.047 83.4747 23.0225 82.125C23.9469 80.8459 24.5934 79.4921 25.3399 78.1035C25.5591 77.6957 26.4727 75.0743 26.9579 74.9283C27.5854 74.7396 26.6503 76.2024 26.5071 76.8418C26.3202 77.6768 25.7622 78.6868 25.3315 79.4214C24.7308 80.446 24.585 81.7404 24.0094 82.8111C23.3955 83.9531 22.8546 85.2147 22.3612 86.4145C21.1235 89.4241 19.8073 92.3359 19.0357 95.4948C18.8137 96.4033 18.323 97.3166 17.8893 98.1234C17.5047 98.8388 17.6511 99.6414 17.3365 100.227C15.8921 102.914 19.8413 94.6575 21.2858 91.9705C22.0769 90.4988 22.6875 88.9909 23.4757 87.5248C23.926 86.6872 24.6418 85.6725 24.8539 84.7542C25.0663 83.835 25.9412 82.9384 26.3954 82.0935C26.5051 81.8895 27.1575 80.3919 27.4311 80.5389C27.8016 80.7381 26.3829 83.0175 26.2742 83.2285C25.1157 85.4773 24.724 88.3101 24.3251 90.7818C24.1368 91.9484 23.2192 93.5557 23.421 94.6963C23.575 95.5675 23.1001 96.4668 22.9057 97.3085C22.5082 99.0294 23.5512 96.4833 23.6472 95.9292C23.9536 94.1599 25.089 92.6312 25.8036 90.9876C26.4672 89.4612 27.2167 87.2203 28.1799 85.8643C28.7513 85.0598 29.6769 83.7139 29.9146 82.7408C30.0538 82.171 30.7251 80.271 31.395 80.0695C31.933 79.9077 30.905 81.0806 30.6669 81.5894C30.37 82.2236 30.2797 83.202 30.0639 83.91C29.6066 85.4104 29.0556 86.9448 28.842 88.4983C28.5699 90.4772 28.9258 92.3782 28.2055 94.168C27.5634 95.7637 28.5105 93.0771 28.6459 92.6045C29.1173 90.9603 29.748 89.2522 30.5637 87.7347C31.9236 85.2051 32.5181 82.4935 34.0334 79.9987C34.371 79.4428 34.855 77.9689 35.1518 79.1998C35.3512 80.0265 34.4752 81.897 34.1041 82.6371C33.4036 84.0345 33.1154 85.8042 32.7829 87.3275C32.6297 88.0292 32.7234 89.6407 32.3434 90.1916C32.1728 90.4388 32.4574 91.465 32.8291 90.9417C33.1639 90.4704 33.149 89.8668 33.3796 89.3596C33.8602 88.3024 34.3198 86.6414 34.5715 85.4886C34.7292 84.7663 37.2641 81.1394 37.4446 81.6325C38.0733 83.35 37.193 84.8751 36.2757 86.2047C35.2533 87.6867 33.679 89.0891 32.4019 90.4342C31.02 91.8895 29.6309 92.7737 27.7835 93.63C25.3056 94.7785 22.456 95.7718 20.4001 97.6285C20.0445 97.9496 19.5478 98.1281 19.2976 98.4804C19.2227 98.5859 19.3947 97.7183 19.7582 97.4168C20.7485 96.5955 21.8003 94.2907 22.0781 93.0187C22.8201 89.62 25.5592 86.4972 27.5341 83.7169C27.739 83.4283 28.2227 82.1135 28.4642 82.9168C28.6583 83.5621 28.8501 84.233 28.6592 84.9107C28.2264 86.447 27.2832 87.9651 27.0807 89.5628C27.0393 89.8897 25.8079 92.1213 25.5666 91.4492C24.5922 88.7357 23.8327 85.873 23.055 83.0982C22.1216 79.768 23.546 76.6359 24.1037 73.4162C24.1485 73.1572 24.2045 72.1746 23.6615 72.5229C23.2347 72.7968 23.0343 74.103 22.9311 74.5639C22.5964 76.0587 21.7704 77.7018 21.1802 79.1233C20.569 80.5951 20.4382 82.7965 19.2942 83.9546C18.264 84.9974 17.3319 87.1311 16.7689 88.4867C15.7893 90.8459 15.6202 93.0676 15.3022 95.5769C15.169 96.6275 15.4457 97.6634 15.3149 98.6953C15.2751 99.0095 15.4327 101.167 14.7381 100.43" stroke="#F97C60" stroke-width="2" stroke-linecap="round"/>
</svg>
