<svg width="131" height="86" viewBox="0 0 131 86" fill="none" xmlns="http://www.w3.org/2000/svg">
<path d="M89.1368 24.536C89.1368 23.1688 89.1368 21.8015 89.1368 20.4342C89.1368 19.2613 87.4185 18.1898 86.3506 18.1898C86.0043 18.1898 85.1074 18.0315 84.9232 18.3446C84.5938 18.9045 84.0866 19.078 83.6505 19.5141C82.7324 20.4322 82.1576 21.5085 81.7071 22.7474C80.4858 26.1059 79.8567 29.6512 78.6458 33.0148C78.4756 33.4875 78.1778 33.9195 78.147 34.4423C78.1165 34.9606 77.5547 35.368 78.3878 34.8379C79.3126 34.2493 80.9829 34.0474 82.051 33.8576C83.2033 33.6527 84.4659 33.6312 85.5853 33.2814C87.4575 32.6964 89.5694 32.224 91.2694 31.1918C92.5118 30.4375 94.1408 30.1739 95.2594 29.1796C96.0626 28.4656 97.0308 28.1258 97.0308 26.9352C97.0308 25.8664 95.9241 24.8456 94.7864 24.8456C93.7173 24.8456 92.7337 24.3813 91.6133 24.3813C90.9378 24.3813 90.5912 24.5482 89.9881 24.6822C89.7865 24.727 89.2328 25.0543 89.0766 24.9918C89.0362 24.9756 89.7872 24.6253 89.9107 24.5704C90.6113 24.2591 91.5205 24.3813 92.2669 24.3813C92.9111 24.3813 93.6952 24.2505 94.3221 24.3898C95.6276 24.68 95.6378 25.5971 95.6378 26.7718C95.6378 27.2126 94.9576 28.0789 94.4855 28.0789C94.2567 28.0789 94.4929 26.3715 94.3651 26.0839C94.2975 25.9319 93.9857 24.6783 93.7459 25.3444C93.3971 26.3135 93.3907 27.4151 93.0838 28.3971C93.0285 28.574 92.7719 29.9363 92.6194 29.9363C92.4318 29.9363 92.3873 27.8663 92.3873 27.6317C92.3873 26.6159 91.8243 24.3236 90.8394 26.2387C90.4778 26.9419 90.2995 27.7141 89.9451 28.4229C89.7327 28.8477 89.4824 29.2778 89.4463 29.7643C89.4008 30.3798 88.982 31.4106 88.982 30.1685C88.982 29.3107 88.8161 28.121 89.1712 27.3222C89.2472 27.1511 89.4778 25.7059 89.2056 25.6281C88.4607 25.4153 88.0989 27.8088 87.9845 28.2337C87.7213 29.2113 87.2408 30.3584 87.1246 31.3466C87.0759 31.7601 86.9698 31.4628 86.9698 31.1918C86.9698 30.5941 86.9017 29.9421 87.0472 29.3602C87.2373 28.5996 87.5889 27.807 87.5889 27.0126C87.5889 26.3935 87.5889 25.7743 87.5889 25.1552C87.5889 24.1767 87.0592 26.2989 86.9698 26.6342C86.5672 28.1439 86.139 29.7268 85.7401 31.123C85.6293 31.5109 85.3812 31.8376 85.2757 32.2065C84.9943 33.1914 85.3456 30.1504 85.5423 29.1452C85.9081 27.2757 86.1132 25.0462 86.8494 23.2978C87.3274 22.1624 87.4341 20.9046 87.4341 19.6603C87.4341 18.9569 87.4409 18.3766 87.0902 19.3937C86.6384 20.7039 86.4126 22.022 86.1185 23.3751C85.8423 24.6456 85.9647 26.1895 85.4993 27.3996C85.2239 28.1156 85.3875 28.9475 85.078 29.644C84.6969 30.5013 84.7801 31.762 84.218 32.4645C84.04 32.687 83.9925 33.9394 83.7537 32.8944C83.5212 31.8773 83.7193 30.6106 83.7193 29.5666C83.7193 27.491 83.8741 25.3774 83.8741 23.3322C83.8741 22.0826 84.2649 20.1486 84.8802 19.0412C84.9912 18.8414 85.2919 17.3668 84.992 18.379C84.6931 19.3877 84.3384 20.705 84.3384 21.7585C84.3384 23.869 83.6386 26.0567 83.0658 28.0617C82.6763 29.4247 82.4512 31.0267 81.8963 32.2753C81.8113 32.4665 81.3975 33.8645 81.3975 32.7397C81.3975 31.6562 81.3975 30.5727 81.3975 29.4892C81.3975 28.291 81.3975 27.0929 81.3975 25.8947C81.3975 25.3412 81.3581 24.6379 81.6297 24.1491C81.8002 23.8421 82.1714 22.9529 82.1714 22.6184C82.1714 21.3414 81.6831 25.1271 81.5179 26.3935C81.3386 27.768 81.0346 29.1279 80.9246 30.5039C80.8742 31.1333 80.7159 32.0219 80.4344 32.5849C80.0927 33.2683 79.6949 33.3149 79.6949 32.4645C79.6949 30.44 81.1072 28.3754 82.1714 26.703C82.7425 25.8056 83.2544 24.8854 83.6849 23.9169C83.9072 23.4167 83.8309 22.7874 84.1063 22.2916C84.596 21.4101 85.3499 20.6413 85.8519 19.7377C85.9604 19.5423 86.105 19.314 86.2302 19.1529C86.2322 19.1504 85.8248 19.7717 85.7315 19.9699C84.9204 21.6934 84.648 23.5761 84.648 25.4819C84.648 28.1798 83.8741 30.7414 83.8741 33.419C83.8741 33.6217 83.8356 32.977 83.9601 32.817C84.1636 32.5554 84.2682 32.204 84.4932 31.9657C84.912 31.5223 85.0889 30.8907 85.6455 30.5727C86.0669 30.3319 86.4687 29.5027 86.729 29.0936C87.2851 28.2197 87.4613 26.9211 87.7093 25.9291C88.0169 24.6986 88.3628 23.5639 88.3628 22.2916C88.3628 21.838 88.5176 21.407 88.5176 20.8986C88.5176 20.3859 88.5464 20.8285 88.4402 21.062C88.0804 21.8535 88.2587 22.8704 88.1737 23.7105C88.0183 25.245 88.0533 26.7778 88.0533 28.3197C88.0533 29.085 88.182 29.2223 88.638 29.6783C89.5775 30.6178 90.6791 29.6633 90.9942 28.5605C91.1701 27.9449 91.4586 27.5169 91.4586 26.8578C91.4586 26.3593 91.4586 28.0983 91.4586 28.4143C91.4586 29.2054 91.4586 29.9965 91.4586 30.7876C91.4586 30.9463 91.5875 30.4954 91.6219 30.3405C91.6896 30.0359 92.0307 29.7769 92.2325 29.5752C92.857 28.9506 94.4871 27.5763 93.402 26.5482C92.4688 25.6642 90.8031 25.8426 89.6785 26.0925C87.7788 26.5146 86.1955 28.5444 85.1726 30.0395C84.1206 31.577 82.9227 33.0694 81.5523 34.2875C81.2021 34.5988 81.1646 34.1704 81.4319 33.9779C81.911 33.633 82.4363 33.3812 82.9626 33.118C84.3496 32.4245 85.7944 32.197 87.2793 31.8453C88.9897 31.4403 90.6899 31.4398 92.2927 30.7274C93.1824 30.332 92.2659 29.9437 91.7681 29.8331C89.88 29.4136 87.8289 30.0072 85.9035 29.558C85.0155 29.3508 83.7623 29.0678 83.5731 28.0273C83.3905 27.0228 83.4097 25.719 83.4097 24.6908C83.4097 24.0537 83.8229 19.4274 82.481 21.4403" stroke="#1A3764" stroke-width="1.20126" stroke-linecap="round"/>
<path d="M49.5098 7.50869C49.5098 6.14142 49.5098 4.77415 49.5098 3.40688C49.5098 2.23392 47.7915 1.16249 46.7237 1.16249C46.3774 1.16249 45.4804 1.00418 45.2962 1.31728C44.9669 1.87715 44.4597 2.05063 44.0235 2.48677C43.1055 3.40484 42.5307 4.48111 42.0801 5.72006C40.8588 9.0786 40.2297 12.6238 39.0188 15.9875C38.8486 16.4602 38.5508 16.8922 38.5201 17.415C38.4896 17.9333 37.9278 18.3406 38.7608 17.8105C39.6857 17.222 41.356 17.0201 42.4241 16.8302C43.5763 16.6254 44.8389 16.6039 45.9584 16.2541C47.8305 15.669 49.9424 15.1966 51.6424 14.1645C52.8849 13.4101 54.5139 13.1465 55.6324 12.1523C56.4356 11.4383 57.4039 11.0985 57.4039 9.90786C57.4039 8.83909 56.2971 7.81826 55.1595 7.81826C54.0903 7.81826 53.1067 7.35391 51.9864 7.35391C51.3108 7.35391 50.9643 7.52085 50.3611 7.65488C50.1595 7.69969 49.6059 8.02695 49.4496 7.96445C49.4093 7.9483 50.1603 7.59796 50.2837 7.54309C50.9844 7.23171 51.8936 7.35391 52.6399 7.35391C53.2842 7.35391 54.0682 7.22319 54.6951 7.36251C56.0006 7.65262 56.0108 8.56978 56.0108 9.74448C56.0108 10.1853 55.3307 11.0516 54.8585 11.0516C54.6298 11.0516 54.866 9.34416 54.7381 9.05655C54.6706 8.90451 54.3588 7.65092 54.119 8.31702C53.7701 9.28613 53.7637 10.3878 53.4568 11.3697C53.4016 11.5467 53.1449 12.909 52.9925 12.909C52.8049 12.909 52.7603 10.839 52.7603 10.6044C52.7603 9.58859 52.1974 7.29623 51.2125 9.21133C50.8508 9.91452 50.6725 10.6868 50.3181 11.3955C50.1057 11.8204 49.8554 12.2504 49.8194 12.737C49.7738 13.3525 49.355 14.3833 49.355 13.1412C49.355 12.2834 49.1892 11.0937 49.5442 10.2948C49.6202 10.1238 49.8509 8.67858 49.5786 8.60079C48.8337 8.38797 48.4719 10.7815 48.3575 11.2063C48.0943 12.1839 47.6139 13.3311 47.4976 14.3192C47.449 14.7327 47.3428 14.4354 47.3428 14.1645C47.3428 13.5668 47.2747 12.9148 47.4202 12.3328C47.6104 11.5723 47.962 10.7797 47.962 9.98526C47.962 9.36612 47.962 8.74697 47.962 8.12783C47.962 7.14936 47.4322 9.2716 47.3428 9.60689C46.9402 11.1166 46.512 12.6995 46.1131 14.0957C46.0023 14.4836 45.7542 14.8102 45.6488 15.1792C45.3674 16.1641 45.7187 13.1231 45.9154 12.1179C46.2811 10.2484 46.4862 8.01889 47.2224 6.27041C47.7005 5.13504 47.8072 3.87726 47.8072 2.63296C47.8072 1.92955 47.8139 1.34926 47.4632 2.36638C47.0114 3.67657 46.7857 4.99467 46.4915 6.3478C46.2153 7.61828 46.3378 9.16213 45.8724 10.3722C45.597 11.0883 45.7605 11.9202 45.451 12.6166C45.07 13.4739 45.1531 14.7346 44.5911 15.4371C44.4131 15.6597 44.3656 16.912 44.1267 15.8671C43.8942 14.85 44.0923 13.5833 44.0923 12.5392C44.0923 10.4637 44.2471 8.35008 44.2471 6.30481C44.2471 5.05528 44.638 3.12128 45.2532 2.01381C45.3642 1.81406 45.6649 0.339438 45.365 1.35168C45.0661 2.36037 44.7115 3.67762 44.7115 4.73116C44.7115 6.84168 44.0117 9.02937 43.4388 11.0344C43.0494 12.3973 42.8242 13.9993 42.2693 15.248C42.1843 15.4392 41.7706 16.8372 41.7706 15.7123C41.7706 14.6288 41.7706 13.5453 41.7706 12.4618C41.7706 11.2637 41.7706 10.0655 41.7706 8.86736C41.7706 8.31388 41.7311 7.6106 42.0027 7.12173C42.1733 6.81476 42.5445 5.92551 42.5445 5.59107C42.5445 4.31401 42.0561 8.09978 41.8909 9.36612C41.7117 10.7407 41.4077 12.1006 41.2976 13.4765C41.2472 14.1059 41.0889 14.9946 40.8074 15.5575C40.4658 16.2409 40.0679 16.2875 40.0679 15.4371C40.0679 13.4127 41.4803 11.348 42.5445 9.67569C43.1156 8.77828 43.6275 7.85805 44.0579 6.88955C44.2802 6.3894 44.2039 5.76002 44.4793 5.26431C44.969 4.38276 45.7229 3.61396 46.2249 2.71035C46.3335 2.515 46.478 2.2867 46.6033 2.1256C46.6053 2.12308 46.1978 2.74433 46.1045 2.94253C45.2935 4.66606 45.021 6.54878 45.021 8.4546C45.021 11.1525 44.2471 13.7141 44.2471 16.3916C44.2471 16.5943 44.2087 15.9497 44.3331 15.7897C44.5367 15.528 44.6412 15.1767 44.8663 14.9384C45.2851 14.4949 45.4619 13.8634 46.0186 13.5453C46.4399 13.3045 46.8417 12.4753 47.102 12.0663C47.6581 11.1924 47.8344 9.89377 48.0824 8.90176C48.39 7.67123 48.7359 6.53651 48.7359 5.26431C48.7359 4.81067 48.8907 4.37969 48.8907 3.87124C48.8907 3.35859 48.9194 3.80115 48.8133 4.03462C48.4535 4.82619 48.6318 5.84309 48.5467 6.68317C48.3913 8.21761 48.4263 9.75044 48.4263 11.2923C48.4263 12.0577 48.555 12.195 49.0111 12.651C49.9505 13.5904 51.0521 12.636 51.3672 11.5331C51.5431 10.9176 51.8316 10.4896 51.8316 9.83047C51.8316 9.33199 51.8316 11.071 51.8316 11.3869C51.8316 12.178 51.8316 12.9692 51.8316 13.7603C51.8316 13.919 51.9606 13.4681 51.995 13.3131C52.0627 13.0086 52.4038 12.7496 52.6055 12.5478C53.23 11.9233 54.8602 10.549 53.775 9.5209C52.8419 8.63685 51.1761 8.81525 50.0516 9.06514C48.1519 9.48729 46.5686 11.517 45.5456 13.0122C44.4936 14.5496 43.2957 16.042 41.9253 17.2602C41.5752 17.5714 41.5377 17.143 41.805 16.9506C42.284 16.6057 42.8093 16.3538 43.3356 16.0907C44.7227 15.3971 46.1674 15.1697 47.6524 14.818C49.3627 14.4129 51.0629 14.4125 52.6657 13.7001C53.5555 13.3047 52.6389 12.9164 52.1412 12.8058C50.2531 12.3862 48.2019 12.9799 46.2765 12.5306C45.3886 12.3234 44.1353 12.0405 43.9461 11C43.7635 9.99548 43.7828 8.69162 43.7828 7.66348C43.7828 7.0264 44.196 2.4001 42.8541 4.41299" stroke="#1A3764" stroke-width="1.20126" stroke-linecap="round"/>
<path d="M49.5098 74.661C49.5098 73.2938 49.5098 71.9265 49.5098 70.5592C49.5098 69.3863 47.7915 68.3148 46.7237 68.3148C46.3774 68.3148 45.4804 68.1565 45.2962 68.4696C44.9669 69.0295 44.4597 69.203 44.0235 69.6391C43.1055 70.5572 42.5307 71.6335 42.0801 72.8724C40.8588 76.2309 40.2297 79.7762 39.0188 83.1398C38.8486 83.6125 38.5508 84.0445 38.5201 84.5673C38.4896 85.0856 37.9278 85.493 38.7608 84.9629C39.6857 84.3743 41.356 84.1724 42.4241 83.9826C43.5763 83.7777 44.8389 83.7562 45.9584 83.4064C47.8305 82.8214 49.9424 82.349 51.6424 81.3168C52.8849 80.5625 54.5139 80.2989 55.6324 79.3046C56.4356 78.5906 57.4039 78.2508 57.4039 77.0602C57.4039 75.9914 56.2971 74.9706 55.1595 74.9706C54.0903 74.9706 53.1067 74.5063 51.9864 74.5063C51.3108 74.5063 50.9643 74.6732 50.3611 74.8072C50.1595 74.852 49.6059 75.1793 49.4496 75.1168C49.4093 75.1006 50.1603 74.7503 50.2837 74.6954C50.9844 74.3841 51.8936 74.5063 52.6399 74.5063C53.2842 74.5063 54.0682 74.3755 54.6951 74.5148C56.0006 74.805 56.0108 75.7221 56.0108 76.8968C56.0108 77.3376 55.3307 78.2039 54.8585 78.2039C54.6298 78.2039 54.866 76.4965 54.7381 76.2089C54.6706 76.0569 54.3588 74.8033 54.119 75.4694C53.7701 76.4385 53.7637 77.5401 53.4568 78.5221C53.4016 78.699 53.1449 80.0613 52.9925 80.0613C52.8049 80.0613 52.7603 77.9913 52.7603 77.7567C52.7603 76.7409 52.1974 74.4486 51.2125 76.3637C50.8508 77.0669 50.6725 77.8391 50.3181 78.5479C50.1057 78.9727 49.8554 79.4028 49.8194 79.8893C49.7738 80.5048 49.355 81.5356 49.355 80.2935C49.355 79.4357 49.1892 78.246 49.5442 77.4472C49.6202 77.2761 49.8509 75.8309 49.5786 75.7531C48.8337 75.5403 48.4719 77.9338 48.3575 78.3587C48.0943 79.3363 47.6139 80.4834 47.4976 81.4716C47.449 81.8851 47.3428 81.5878 47.3428 81.3168C47.3428 80.7191 47.2747 80.0671 47.4202 79.4852C47.6104 78.7246 47.962 77.932 47.962 77.1376C47.962 76.5185 47.962 75.8993 47.962 75.2802C47.962 74.3017 47.4322 76.4239 47.3428 76.7592C46.9402 78.2689 46.512 79.8518 46.1131 81.248C46.0023 81.6359 45.7542 81.9626 45.6488 82.3315C45.3674 83.3164 45.7187 80.2754 45.9154 79.2702C46.2811 77.4007 46.4862 75.1712 47.2224 73.4228C47.7005 72.2874 47.8072 71.0296 47.8072 69.7853C47.8072 69.0819 47.8139 68.5016 47.4632 69.5187C47.0114 70.8289 46.7857 72.147 46.4915 73.5001C46.2153 74.7706 46.3378 76.3145 45.8724 77.5246C45.597 78.2406 45.7605 79.0725 45.451 79.769C45.07 80.6263 45.1531 81.887 44.5911 82.5895C44.4131 82.812 44.3656 84.0644 44.1267 83.0194C43.8942 82.0023 44.0923 80.7356 44.0923 79.6916C44.0923 77.616 44.2471 75.5024 44.2471 73.4572C44.2471 72.2076 44.638 70.2736 45.2532 69.1662C45.3642 68.9664 45.6649 67.4918 45.365 68.504C45.0661 69.5127 44.7115 70.83 44.7115 71.8835C44.7115 73.994 44.0117 76.1817 43.4388 78.1867C43.0494 79.5497 42.8242 81.1517 42.2693 82.4003C42.1843 82.5915 41.7706 83.9895 41.7706 82.8647C41.7706 81.7812 41.7706 80.6977 41.7706 79.6142C41.7706 78.416 41.7706 77.2179 41.7706 76.0197C41.7706 75.4662 41.7311 74.7629 42.0027 74.2741C42.1733 73.9671 42.5445 73.0779 42.5445 72.7434C42.5445 71.4664 42.0561 75.2521 41.8909 76.5185C41.7117 77.893 41.4077 79.2529 41.2976 80.6289C41.2472 81.2583 41.0889 82.1469 40.8074 82.7099C40.4658 83.3933 40.0679 83.4399 40.0679 82.5895C40.0679 80.565 41.4803 78.5004 42.5445 76.828C43.1156 75.9306 43.6275 75.0104 44.0579 74.0419C44.2802 73.5417 44.2039 72.9124 44.4793 72.4166C44.969 71.5351 45.7229 70.7663 46.2249 69.8627C46.3335 69.6673 46.478 69.439 46.6033 69.2779C46.6053 69.2754 46.1978 69.8967 46.1045 70.0949C45.2935 71.8184 45.021 73.7011 45.021 75.6069C45.021 78.3048 44.2471 80.8664 44.2471 83.544C44.2471 83.7467 44.2087 83.102 44.3331 82.942C44.5367 82.6804 44.6412 82.329 44.8663 82.0907C45.2851 81.6473 45.4619 81.0157 46.0186 80.6977C46.4399 80.4569 46.8417 79.6277 47.102 79.2186C47.6581 78.3447 47.8344 77.0461 48.0824 76.0541C48.39 74.8236 48.7359 73.6889 48.7359 72.4166C48.7359 71.963 48.8907 71.532 48.8907 71.0236C48.8907 70.5109 48.9194 70.9535 48.8133 71.187C48.4535 71.9785 48.6318 72.9954 48.5467 73.8355C48.3913 75.37 48.4263 76.9028 48.4263 78.4447C48.4263 79.21 48.555 79.3473 49.0111 79.8033C49.9505 80.7428 51.0521 79.7883 51.3672 78.6855C51.5431 78.0699 51.8316 77.6419 51.8316 76.9828C51.8316 76.4843 51.8316 78.2233 51.8316 78.5393C51.8316 79.3304 51.8316 80.1215 51.8316 80.9126C51.8316 81.0713 51.9606 80.6204 51.995 80.4655C52.0627 80.1609 52.4038 79.9019 52.6055 79.7002C53.23 79.0756 54.8602 77.7013 53.775 76.6732C52.8419 75.7892 51.1761 75.9676 50.0516 76.2175C48.1519 76.6396 46.5686 78.6694 45.5456 80.1645C44.4936 81.702 43.2957 83.1944 41.9253 84.4125C41.5752 84.7238 41.5377 84.2954 41.805 84.1029C42.284 83.758 42.8093 83.5062 43.3356 83.243C44.7227 82.5495 46.1674 82.322 47.6524 81.9703C49.3627 81.5653 51.0629 81.5648 52.6657 80.8524C53.5555 80.457 52.6389 80.0687 52.1412 79.9581C50.2531 79.5386 48.2019 80.1322 46.2765 79.683C45.3886 79.4758 44.1353 79.1928 43.9461 78.1523C43.7635 77.1478 43.7828 75.844 43.7828 74.8158C43.7828 74.1787 44.196 69.5524 42.8541 71.5653" stroke="#1A3764" stroke-width="1.20126" stroke-linecap="round"/>
<path d="M113.052 74.661C113.052 73.2938 113.052 71.9265 113.052 70.5592C113.052 69.3863 111.334 68.3148 110.266 68.3148C109.919 68.3148 109.022 68.1565 108.838 68.4696C108.509 69.0295 108.002 69.203 107.566 69.6391C106.647 70.5572 106.073 71.6335 105.622 72.8724C104.401 76.2309 103.772 79.7762 102.561 83.1398C102.391 83.6125 102.093 84.0445 102.062 84.5673C102.032 85.0856 101.47 85.493 102.303 84.9629C103.228 84.3743 104.898 84.1724 105.966 83.9826C107.118 83.7777 108.381 83.7562 109.5 83.4064C111.372 82.8214 113.484 82.349 115.184 81.3168C116.427 80.5625 118.056 80.2989 119.174 79.3046C119.978 78.5906 120.946 78.2508 120.946 77.0602C120.946 75.9914 119.839 74.9706 118.701 74.9706C117.632 74.9706 116.649 74.5063 115.528 74.5063C114.853 74.5063 114.506 74.6732 113.903 74.8072C113.701 74.852 113.148 75.1793 112.992 75.1168C112.951 75.1006 113.702 74.7503 113.826 74.6954C114.526 74.3841 115.436 74.5063 116.182 74.5063C116.826 74.5063 117.61 74.3755 118.237 74.5148C119.543 74.805 119.553 75.7221 119.553 76.8968C119.553 77.3376 118.873 78.2039 118.401 78.2039C118.172 78.2039 118.408 76.4965 118.28 76.2089C118.213 76.0569 117.901 74.8033 117.661 75.4694C117.312 76.4385 117.306 77.5401 116.999 78.5221C116.944 78.699 116.687 80.0613 116.534 80.0613C116.347 80.0613 116.302 77.9913 116.302 77.7567C116.302 76.7409 115.739 74.4486 114.754 76.3637C114.393 77.0669 114.215 77.8391 113.86 78.5479C113.648 78.9727 113.397 79.4028 113.361 79.8893C113.316 80.5048 112.897 81.5356 112.897 80.2935C112.897 79.4357 112.731 78.246 113.086 77.4472C113.162 77.2761 113.393 75.8309 113.121 75.7531C112.376 75.5403 112.014 77.9338 111.9 78.3587C111.636 79.3363 111.156 80.4834 111.04 81.4716C110.991 81.8851 110.885 81.5878 110.885 81.3168C110.885 80.7191 110.817 80.0671 110.962 79.4852C111.152 78.7246 111.504 77.932 111.504 77.1376C111.504 76.5185 111.504 75.8993 111.504 75.2802C111.504 74.3017 110.974 76.4239 110.885 76.7592C110.482 78.2689 110.054 79.8518 109.655 81.248C109.544 81.6359 109.296 81.9626 109.191 82.3315C108.909 83.3164 109.261 80.2754 109.457 79.2702C109.823 77.4007 110.028 75.1712 110.764 73.4228C111.242 72.2874 111.349 71.0296 111.349 69.7853C111.349 69.0819 111.356 68.5016 111.005 69.5187C110.553 70.8289 110.328 72.147 110.033 73.5001C109.757 74.7706 109.88 76.3145 109.414 77.5246C109.139 78.2406 109.303 79.0725 108.993 79.769C108.612 80.6263 108.695 81.887 108.133 82.5895C107.955 82.812 107.908 84.0644 107.669 83.0194C107.436 82.0023 107.634 80.7356 107.634 79.6916C107.634 77.616 107.789 75.5024 107.789 73.4572C107.789 72.2076 108.18 70.2736 108.795 69.1662C108.906 68.9664 109.207 67.4918 108.907 68.504C108.608 69.5127 108.253 70.83 108.253 71.8835C108.253 73.994 107.554 76.1817 106.981 78.1867C106.591 79.5497 106.366 81.1517 105.811 82.4003C105.726 82.5915 105.313 83.9895 105.313 82.8647C105.313 81.7812 105.313 80.6977 105.313 79.6142C105.313 78.416 105.313 77.2179 105.313 76.0197C105.313 75.4662 105.273 74.7629 105.545 74.2741C105.715 73.9671 106.086 73.0779 106.086 72.7434C106.086 71.4664 105.598 75.2521 105.433 76.5185C105.254 77.893 104.95 79.2529 104.84 80.6289C104.789 81.2583 104.631 82.1469 104.349 82.7099C104.008 83.3933 103.61 83.4399 103.61 82.5895C103.61 80.565 105.022 78.5004 106.086 76.828C106.658 75.9306 107.169 75.0104 107.6 74.0419C107.822 73.5417 107.746 72.9124 108.021 72.4166C108.511 71.5351 109.265 70.7663 109.767 69.8627C109.875 69.6673 110.02 69.439 110.145 69.2779C110.147 69.2754 109.74 69.8967 109.647 70.0949C108.835 71.8184 108.563 73.7011 108.563 75.6069C108.563 78.3048 107.789 80.8664 107.789 83.544C107.789 83.7467 107.751 83.102 107.875 82.942C108.079 82.6804 108.183 82.329 108.408 82.0907C108.827 81.6473 109.004 81.0157 109.561 80.6977C109.982 80.4569 110.384 79.6277 110.644 79.2186C111.2 78.3447 111.376 77.0461 111.624 76.0541C111.932 74.8236 112.278 73.6889 112.278 72.4166C112.278 71.963 112.433 71.532 112.433 71.0236C112.433 70.5109 112.461 70.9535 112.355 71.187C111.995 71.9785 112.174 72.9954 112.089 73.8355C111.933 75.37 111.968 76.9028 111.968 78.4447C111.968 79.21 112.097 79.3473 112.553 79.8033C113.492 80.7428 114.594 79.7883 114.909 78.6855C115.085 78.0699 115.374 77.6419 115.374 76.9828C115.374 76.4843 115.374 78.2233 115.374 78.5393C115.374 79.3304 115.374 80.1215 115.374 80.9126C115.374 81.0713 115.503 80.6204 115.537 80.4655C115.605 80.1609 115.946 79.9019 116.148 79.7002C116.772 79.0756 118.402 77.7013 117.317 76.6732C116.384 75.7892 114.718 75.9676 113.594 76.2175C111.694 76.6396 110.111 78.6694 109.088 80.1645C108.036 81.702 106.838 83.1944 105.467 84.4125C105.117 84.7238 105.08 84.2954 105.347 84.1029C105.826 83.758 106.351 83.5062 106.878 83.243C108.265 82.5495 109.709 82.322 111.194 81.9703C112.905 81.5653 114.605 81.5648 116.208 80.8524C117.097 80.457 116.181 80.0687 115.683 79.9581C113.795 79.5386 111.744 80.1322 109.819 79.683C108.931 79.4758 107.677 79.1928 107.488 78.1523C107.306 77.1478 107.325 75.844 107.325 74.8158C107.325 74.1787 107.738 69.5524 106.396 71.5653" stroke="#1A3764" stroke-width="1.20126" stroke-linecap="round"/>
<path d="M122.44 39.2782C122.44 37.911 122.44 36.5437 122.44 35.1764C122.44 34.0035 120.721 32.932 119.653 32.932C119.307 32.932 118.41 32.7737 118.226 33.0868C117.897 33.6467 117.389 33.8202 116.953 34.2563C116.035 35.1744 115.46 36.2506 115.01 37.4896C113.789 40.8481 113.159 44.3934 111.949 47.757C111.778 48.2297 111.481 48.6617 111.45 49.1845C111.419 49.7028 110.857 50.1102 111.691 49.58C112.615 48.9915 114.286 48.7896 115.354 48.5997C116.506 48.3949 117.769 48.3734 118.888 48.0236C120.76 47.4385 122.872 46.9661 124.572 45.934C125.815 45.1796 127.444 44.9161 128.562 43.9218C129.365 43.2078 130.334 42.868 130.334 41.6774C130.334 40.6086 129.227 39.5878 128.089 39.5878C127.02 39.5878 126.036 39.1234 124.916 39.1234C124.241 39.1234 123.894 39.2904 123.291 39.4244C123.089 39.4692 122.536 39.7965 122.379 39.734C122.339 39.7178 123.09 39.3675 123.213 39.3126C123.914 39.0012 124.823 39.1234 125.57 39.1234C126.214 39.1234 126.998 38.9927 127.625 39.132C128.93 39.4222 128.94 40.3393 128.94 41.514C128.94 41.9548 128.26 42.8211 127.788 42.8211C127.559 42.8211 127.796 41.1137 127.668 40.8261C127.6 40.674 127.288 39.4205 127.049 40.0865C126.7 41.0557 126.693 42.1573 126.387 43.1393C126.331 43.3162 126.075 44.6785 125.922 44.6785C125.735 44.6785 125.69 42.6085 125.69 42.3739C125.69 41.3581 125.127 39.0658 124.142 40.9809C123.781 41.684 123.602 42.4563 123.248 43.1651C123.035 43.5899 122.785 44.02 122.749 44.5065C122.703 45.122 122.285 46.1528 122.285 44.9107C122.285 44.0529 122.119 42.8632 122.474 42.0644C122.55 41.8933 122.781 40.4481 122.508 40.3703C121.763 40.1575 121.402 42.551 121.287 42.9759C121.024 43.9535 120.544 45.1006 120.427 46.0888C120.379 46.5023 120.273 46.2049 120.273 45.934C120.273 45.3363 120.204 44.6843 120.35 44.1024C120.54 43.3418 120.892 42.5492 120.892 41.7548C120.892 41.1356 120.892 40.5165 120.892 39.8974C120.892 38.9189 120.362 41.0411 120.273 41.3764C119.87 42.8861 119.442 44.469 119.043 45.8652C118.932 46.2531 118.684 46.5798 118.578 46.9487C118.297 47.9336 118.648 44.8926 118.845 43.8874C119.211 42.0179 119.416 39.7884 120.152 38.0399C120.63 36.9046 120.737 35.6468 120.737 34.4025C120.737 33.6991 120.744 33.1188 120.393 34.1359C119.941 35.4461 119.715 36.7642 119.421 38.1173C119.145 39.3878 119.267 40.9317 118.802 42.1418C118.527 42.8578 118.69 43.6897 118.381 44.3861C118 45.2434 118.083 46.5041 117.521 47.2067C117.343 47.4292 117.295 48.6815 117.056 47.6366C116.824 46.6195 117.022 45.3528 117.022 44.3087C117.022 42.2332 117.177 40.1196 117.177 38.0743C117.177 36.8248 117.568 34.8908 118.183 33.7833C118.294 33.5836 118.595 32.109 118.295 33.1212C117.996 34.1299 117.641 35.4472 117.641 36.5007C117.641 38.6112 116.941 40.7989 116.368 42.8039C115.979 44.1668 115.754 45.7689 115.199 47.0175C115.114 47.2087 114.7 48.6067 114.7 47.4818C114.7 46.3983 114.7 45.3149 114.7 44.2314C114.7 43.0332 114.7 41.835 114.7 40.6369C114.7 40.0834 114.661 39.3801 114.932 38.8913C115.103 38.5843 115.474 37.695 115.474 37.3606C115.474 36.0835 114.986 39.8693 114.821 41.1356C114.641 42.5102 114.337 43.8701 114.227 45.2461C114.177 45.8754 114.019 46.7641 113.737 47.3271C113.395 48.0104 112.998 48.0571 112.998 47.2067C112.998 45.1822 114.41 43.1176 115.474 41.4452C116.045 40.5478 116.557 39.6276 116.988 38.6591C117.21 38.1589 117.134 37.5295 117.409 37.0338C117.899 36.1523 118.653 35.3835 119.155 34.4799C119.263 34.2845 119.408 34.0562 119.533 33.8951C119.535 33.8926 119.127 34.5139 119.034 34.7121C118.223 36.4356 117.951 38.3183 117.951 40.2241C117.951 42.922 117.177 45.4836 117.177 48.1612C117.177 48.3639 117.138 47.7192 117.263 47.5592C117.466 47.2975 117.571 46.9462 117.796 46.7079C118.215 46.2644 118.392 45.6329 118.948 45.3149C119.37 45.0741 119.771 44.2449 120.032 43.8358C120.588 42.9619 120.764 41.6633 121.012 40.6713C121.32 39.4408 121.666 38.306 121.666 37.0338C121.666 36.5802 121.82 36.1492 121.82 35.6408C121.82 35.1281 121.849 35.5707 121.743 35.8042C121.383 36.5957 121.561 37.6126 121.476 38.4527C121.321 39.9871 121.356 41.52 121.356 43.0619C121.356 43.8272 121.485 43.9645 121.941 44.4205C122.88 45.36 123.982 44.4055 124.297 43.3026C124.473 42.6871 124.761 42.2591 124.761 41.6C124.761 41.1015 124.761 42.8405 124.761 43.1565C124.761 43.9476 124.761 44.7387 124.761 45.5298C124.761 45.6885 124.89 45.2376 124.925 45.0827C124.992 44.7781 125.333 44.5191 125.535 44.3173C126.16 43.6928 127.79 42.3185 126.705 41.2904C125.772 40.4064 124.106 40.5848 122.981 40.8347C121.082 41.2568 119.498 43.2866 118.475 44.7817C117.423 46.3192 116.225 47.8116 114.855 49.0297C114.505 49.3409 114.467 48.9126 114.735 48.7201C115.214 48.3752 115.739 48.1234 116.265 47.8602C117.652 47.1667 119.097 46.9392 120.582 46.5875C122.292 46.1824 123.993 46.182 125.595 45.4696C126.485 45.0742 125.569 44.6859 125.071 44.5753C123.183 44.1557 121.132 44.7494 119.206 44.3001C118.318 44.093 117.065 43.81 116.876 42.7695C116.693 41.765 116.712 40.4612 116.712 39.433C116.712 38.7959 117.126 34.1696 115.784 36.1825" stroke="#1A3764" stroke-width="1.20126" stroke-linecap="round"/>
<path d="M121.718 7.50869C121.718 6.14142 121.718 4.77415 121.718 3.40688C121.718 2.23392 120 1.16249 118.932 1.16249C118.585 1.16249 117.688 1.00418 117.504 1.31728C117.175 1.87715 116.668 2.05063 116.232 2.48677C115.313 3.40484 114.739 4.48111 114.288 5.72006C113.067 9.0786 112.438 12.6238 111.227 15.9875C111.057 16.4602 110.759 16.8922 110.728 17.415C110.698 17.9333 110.136 18.3406 110.969 17.8105C111.894 17.222 113.564 17.0201 114.632 16.8302C115.784 16.6254 117.047 16.6039 118.166 16.2541C120.039 15.669 122.15 15.1966 123.85 14.1645C125.093 13.4101 126.722 13.1465 127.84 12.1523C128.644 11.4383 129.612 11.0985 129.612 9.90786C129.612 8.83909 128.505 7.81826 127.367 7.81826C126.298 7.81826 125.315 7.35391 124.194 7.35391C123.519 7.35391 123.172 7.52085 122.569 7.65488C122.368 7.69969 121.814 8.02695 121.658 7.96445C121.617 7.9483 122.368 7.59796 122.492 7.54309C123.192 7.23171 124.102 7.35391 124.848 7.35391C125.492 7.35391 126.276 7.22319 126.903 7.36251C128.209 7.65262 128.219 8.56978 128.219 9.74448C128.219 10.1853 127.539 11.0516 127.067 11.0516C126.838 11.0516 127.074 9.34416 126.946 9.05655C126.879 8.90451 126.567 7.65092 126.327 8.31702C125.978 9.28613 125.972 10.3878 125.665 11.3697C125.61 11.5467 125.353 12.909 125.2 12.909C125.013 12.909 124.968 10.839 124.968 10.6044C124.968 9.58859 124.405 7.29623 123.42 9.21133C123.059 9.91452 122.881 10.6868 122.526 11.3955C122.314 11.8204 122.063 12.2504 122.027 12.737C121.982 13.3525 121.563 14.3833 121.563 13.1412C121.563 12.2834 121.397 11.0937 121.752 10.2948C121.828 10.1238 122.059 8.67858 121.787 8.60079C121.042 8.38797 120.68 10.7815 120.566 11.2063C120.302 12.1839 119.822 13.3311 119.706 14.3192C119.657 14.7327 119.551 14.4354 119.551 14.1645C119.551 13.5668 119.483 12.9148 119.628 12.3328C119.818 11.5723 120.17 10.7797 120.17 9.98526C120.17 9.36612 120.17 8.74697 120.17 8.12783C120.17 7.14936 119.64 9.2716 119.551 9.60689C119.148 11.1166 118.72 12.6995 118.321 14.0957C118.21 14.4836 117.962 14.8102 117.857 15.1792C117.575 16.1641 117.927 13.1231 118.123 12.1179C118.489 10.2484 118.694 8.01889 119.43 6.27041C119.908 5.13504 120.015 3.87726 120.015 2.63296C120.015 1.92955 120.022 1.34926 119.671 2.36638C119.219 3.67657 118.994 4.99467 118.7 6.3478C118.423 7.61828 118.546 9.16213 118.08 10.3722C117.805 11.0883 117.969 11.9202 117.659 12.6166C117.278 13.4739 117.361 14.7346 116.799 15.4371C116.621 15.6597 116.574 16.912 116.335 15.8671C116.102 14.85 116.3 13.5833 116.3 12.5392C116.3 10.4637 116.455 8.35008 116.455 6.30481C116.455 5.05528 116.846 3.12128 117.461 2.01381C117.572 1.81406 117.873 0.339438 117.573 1.35168C117.274 2.36037 116.919 3.67762 116.919 4.73116C116.919 6.84168 116.22 9.02937 115.647 11.0344C115.257 12.3973 115.032 13.9993 114.477 15.248C114.392 15.4392 113.979 16.8372 113.979 15.7123C113.979 14.6288 113.979 13.5453 113.979 12.4618C113.979 11.2637 113.979 10.0655 113.979 8.86736C113.979 8.31388 113.939 7.6106 114.211 7.12173C114.381 6.81476 114.752 5.92551 114.752 5.59107C114.752 4.31401 114.264 8.09978 114.099 9.36612C113.92 10.7407 113.616 12.1006 113.506 13.4765C113.455 14.1059 113.297 14.9946 113.015 15.5575C112.674 16.2409 112.276 16.2875 112.276 15.4371C112.276 13.4127 113.688 11.348 114.752 9.67569C115.324 8.77828 115.836 7.85805 116.266 6.88955C116.488 6.3894 116.412 5.76002 116.687 5.26431C117.177 4.38276 117.931 3.61396 118.433 2.71035C118.541 2.515 118.686 2.2867 118.811 2.1256C118.813 2.12308 118.406 2.74433 118.313 2.94253C117.501 4.66606 117.229 6.54878 117.229 8.4546C117.229 11.1525 116.455 13.7141 116.455 16.3916C116.455 16.5943 116.417 15.9497 116.541 15.7897C116.745 15.528 116.849 15.1767 117.074 14.9384C117.493 14.4949 117.67 13.8634 118.227 13.5453C118.648 13.3045 119.05 12.4753 119.31 12.0663C119.866 11.1924 120.042 9.89377 120.29 8.90176C120.598 7.67123 120.944 6.53651 120.944 5.26431C120.944 4.81067 121.099 4.37969 121.099 3.87124C121.099 3.35859 121.127 3.80115 121.021 4.03462C120.661 4.82619 120.84 5.84309 120.755 6.68317C120.599 8.21761 120.634 9.75044 120.634 11.2923C120.634 12.0577 120.763 12.195 121.219 12.651C122.159 13.5904 123.26 12.636 123.575 11.5331C123.751 10.9176 124.04 10.4896 124.04 9.83047C124.04 9.33199 124.04 11.071 124.04 11.3869C124.04 12.178 124.04 12.9692 124.04 13.7603C124.04 13.919 124.169 13.4681 124.203 13.3131C124.271 13.0086 124.612 12.7496 124.814 12.5478C125.438 11.9233 127.068 10.549 125.983 9.5209C125.05 8.63685 123.384 8.81525 122.26 9.06514C120.36 9.48729 118.777 11.517 117.754 13.0122C116.702 14.5496 115.504 16.042 114.133 17.2602C113.783 17.5714 113.746 17.143 114.013 16.9506C114.492 16.6057 115.017 16.3538 115.544 16.0907C116.931 15.3971 118.375 15.1697 119.86 14.818C121.571 14.4129 123.271 14.4125 124.874 13.7001C125.763 13.3047 124.847 12.9164 124.349 12.8058C122.461 12.3862 120.41 12.9799 118.485 12.5306C117.597 12.3234 116.343 12.0405 116.154 11C115.972 9.99548 115.991 8.69162 115.991 7.66348C115.991 7.0264 116.404 2.4001 115.062 4.41299" stroke="#1A3764" stroke-width="1.20126" stroke-linecap="round"/>
<path d="M1.80003 66.5543C1.80003 65.0016 2.10625 63.6128 2.79562 62.2341C3.46998 60.8854 3.40622 59.143 3.84455 57.7184C4.06809 56.9919 3.91336 55.934 4.28012 55.2738C4.53526 54.8146 4.80982 53.7892 4.84014 53.2738C4.89814 52.2877 6.12569 49.9384 7.00911 49.4336C8.1042 48.8079 9.57475 48.7936 10.8404 48.7936C11.5009 48.7936 12.075 48.7571 12.556 49.2381C12.8796 49.5616 13.0446 50.269 13.4005 50.5537C14.0704 51.0896 12.6873 53.6899 12.5115 54.3049C12.2706 55.1483 12.6294 54.5349 13.1604 54.2694C13.7879 53.9556 14.5474 54.0738 15.2405 54.0738C16.1751 54.0738 18.3191 53.6885 19.0451 54.2694C20.0646 55.0849 20.2007 55.9601 20.2007 57.2739C20.2007 58.371 19.1274 59.9559 18.4051 60.7585C17.5552 61.7029 16.3327 62.5132 15.1605 63.0341C12.1445 64.3746 9.32069 66.0868 6.12019 66.9098C5.32587 67.1141 4.36632 67.1481 3.62232 67.4343C3.13177 67.623 2.1457 67.8343 1.64002 67.8343C1.43902 67.8343 1 68.0269 1 67.8343C1 67.5204 1.35692 67.2312 1.48002 66.9543C1.89018 66.0314 2.39556 65.0959 2.92007 64.2342C3.53219 63.2285 4.31305 62.2868 4.8757 61.2741C5.2366 60.6244 5.57887 59.5965 6.04019 59.0429C6.55309 58.4274 6.57843 57.403 6.79577 56.6694C7.13098 55.5381 7.15466 54.2532 7.64024 53.1849C7.92537 52.5576 7.88025 51.8973 7.88025 51.1937C7.88025 50.0067 7.03313 50.3985 6.76021 51.3537C6.39302 52.6389 5.85799 53.8932 5.51572 55.1938C4.96188 57.2984 4.63083 59.4442 3.95122 61.523C3.6397 62.4758 3.30178 63.4365 3.08897 64.3942C3.0497 64.5709 2.61937 66.509 2.92007 66.3587C3.20206 66.2177 3.34517 65.8091 3.56009 65.5942C3.82197 65.3323 4.2601 65.1053 4.60013 64.9542C5.70186 64.4645 6.88642 63.8438 8.04026 63.5141C10.1355 62.9155 12.0359 62.2111 13.8716 61.0429C15.2246 60.182 17.2365 59.0365 18.0851 57.5939C18.2361 57.3372 19.3891 56.1523 18.8318 55.8339C18.1645 55.4526 17.5547 55.5139 16.805 55.5139C15.6444 55.5139 11.575 57.1591 10.9559 55.5494C10.302 53.8493 11.0925 52.5264 11.756 51.0337C12.4726 49.4212 9.33632 49.3576 8.84029 50.4737C8.62807 50.9512 8.78233 51.4404 8.60028 51.9137C8.29749 52.701 8.19158 53.5626 7.88025 54.3583C7.23088 56.0178 6.69069 57.9963 5.80018 59.5229C5.04172 60.8231 4.76105 62.332 4.16456 63.6741C4.05034 63.9311 3.55348 65.539 3.75566 65.7187C3.93845 65.8812 6.83161 62.5419 7.08911 62.3141C8.31155 61.2327 9.59183 60.2478 10.7248 59.0695C11.1905 58.5852 11.6231 58.0355 12.0404 57.5139C12.3931 57.0731 13.7713 57.1139 14.2805 57.1139C15.0805 57.1139 15.8805 57.1139 16.6806 57.1139C17.1008 57.1139 17.1829 56.8604 17.4451 56.5983C17.4576 56.5858 17.4948 57.5466 17.4717 57.7539C17.3968 58.4286 17.1123 59.0856 17.0095 59.754C16.953 60.1213 17.1103 60.5369 16.8761 60.8296C16.6169 61.1536 17.1433 60.3522 17.1606 60.1185C17.2108 59.441 17.4759 58.7418 17.6406 58.0828C17.8524 57.2355 18.1893 56.3072 18.5651 55.5139C18.692 55.2459 19.1275 54.7839 18.7607 55.1938C18.3013 55.7072 18.0646 56.4087 17.6406 56.9539C16.6379 58.2431 15.9703 59.7888 15.0805 61.1496C14.7813 61.6073 14.5394 62.0498 14.2094 62.4741C13.8333 62.9576 13.9605 62.1887 13.9605 61.8785C13.9605 60.0704 14.4106 58.2633 14.6094 56.4739C14.656 56.0541 14.7605 55.7041 14.7605 55.2738C14.7605 55.0063 14.4551 55.7675 14.2805 56.0294C13.2726 57.5412 12.7017 59.3155 11.9604 60.9629C11.6194 61.7208 11.0817 62.3063 10.7692 63.0875C10.7266 63.194 10.3595 63.8422 10.3159 63.7986C9.94678 63.4295 11.2759 60.6429 11.4004 60.1451C11.68 59.0265 11.7802 57.9408 12.1649 56.8295C12.2267 56.6509 12.3698 55.9645 12.3604 56.1894C12.3313 56.8883 11.5019 57.8697 11.1604 58.474C10.4508 59.7294 9.99749 61.1178 9.28475 62.3585C8.74131 63.3045 8.44366 64.5586 7.80025 65.4164C7.72072 65.5225 6.47503 67.6555 6.4402 66.7498C6.3752 65.0598 6.82587 63.5496 7.08022 61.8963C7.29419 60.5055 7.46739 58.7184 8.07582 57.4339C8.40686 56.7351 8.4676 55.9724 8.7514 55.2472C9.06618 54.4427 9.50639 53.6732 9.80032 52.8649C10.0559 52.1621 10.3545 51.4438 10.4403 50.7137C10.6303 49.0988 10.5126 53.9816 10.8315 55.5761C11.0472 56.6548 10.4875 59.8693 10.9559 58.874C11.5074 57.7021 11.7204 55.6397 11.7204 54.3583C11.7204 53.658 11.8804 52.9812 11.8804 52.2782C11.8804 52.0606 11.8907 51.7579 11.8804 52.1893C11.8669 52.7584 11.6616 53.1175 11.4004 53.6027C10.1278 55.966 9.59544 58.8308 8.7514 61.363C8.68327 61.5673 8.36027 62.6491 8.36027 62.5541C8.36027 61.7738 8.53361 61.0518 8.7514 60.3051C9.31116 58.3859 9.53599 56.3729 10.1203 54.4738C10.224 54.1368 10.5279 53.3662 10.4315 54.2338C10.3069 55.3546 9.14038 56.6932 8.59139 57.6117C7.42856 59.5572 6.42541 61.5892 5.24905 63.5141C5.13755 63.6966 4.70754 64.7764 4.44013 64.7764C4.19182 64.7764 4.44577 63.3598 4.52013 63.2297C4.70936 62.8985 5.52146 60.4687 5.48016 61.9141C5.44553 63.1263 4.68155 64.242 4.51124 65.4342C4.47231 65.7067 3.92584 67.4607 4.71569 66.7498C5.03028 66.4667 5.62225 66.3143 5.99574 66.0742C7.04032 65.4027 8.28 64.992 9.37364 64.4031C11.2426 63.3967 12.9325 62.1465 14.8494 61.2385C15.326 61.0127 14.2428 61.5312 14.1205 61.5941C13.309 62.0114 12.7277 62.6925 12.0404 63.2652C11.7861 63.4772 11.5457 63.6888 11.3115 63.923C11.1481 64.0864 10.5803 64.2731 10.787 64.3764C11.012 64.4889 12.2207 63.1202 12.396 62.963C13.4006 62.0623 14.2441 60.9777 15.205 60.0296C15.8931 59.3505 16.7244 58.2754 17.5428 57.7717C17.984 57.5002 18.358 57.1139 17.6051 57.1139C16.508 57.1139 15.5024 57.276 14.4227 57.505C13.6998 57.6584 12.9923 57.9069 12.2804 58.0651C11.6729 58.2001 12.4514 57.0183 12.556 56.8828C12.8817 56.4605 13.3234 56.1789 13.7116 55.8339C13.972 55.6024 14.5506 55.6962 14.7605 55.4338C15.2382 54.8367 14.7925 54.7138 15.7561 54.7138C17.1008 54.7138 17.3781 55.2538 18.1562 56.1183C18.652 56.6692 18.7607 57.0935 18.7607 57.8339C18.7607 58.3995 18.0264 58.6199 17.5606 58.874C16.4718 59.4679 15.3793 60.0557 14.2805 60.634C14.1496 60.7029 13.0004 61.4678 13.0004 61.1141C13.0004 60.5822 14.0847 60.0275 14.4494 59.754C14.9539 59.3756 15.5903 58.9817 16.0406 58.554C16.2642 58.3415 17.053 57.9139 16.5117 57.9139C15.6857 57.9139 14.6497 58.7762 13.9605 59.2029C13.2155 59.664 11.0315 61.1267 11.756 60.634C13.0447 59.7577 14.1462 57.902 15.7917 57.6028C17.6392 57.2669 12.1967 58.7629 10.3337 58.9984C8.92556 59.1765 5.80018 60.5026 5.80018 58.2428C5.80018 56.9992 5.99305 55.9217 6.12019 54.7138C6.15599 54.3737 6.30203 54.1249 6.28019 53.7538C6.26604 53.5132 5.56144 53.5087 5.48016 53.6916C4.8574 55.0928 4.81481 56.7349 4.20012 58.1451C3.93084 58.7628 4.03002 59.5103 3.8001 60.154C3.6845 60.4777 3.43709 60.941 3.40009 61.2741C3.32746 61.9278 2.98169 63.0175 2.67117 63.5941C2.34513 64.1997 2.19159 65.0248 1.76447 65.5587C1.15821 66.3165 4.46646 65.0929 4.64458 65.0253C6.90789 64.1668 8.88028 63.1446 11.0004 62.003C11.7594 61.5943 12.7998 61.1608 13.6405 61.1141C14.4508 61.069 15.2978 60.634 16.1206 60.634C17.3273 60.634 15.7467 61.566 15.2405 61.5941C14.2076 61.6515 14.1066 61.2325 13.8005 60.314" stroke="#1A3764" stroke-width="1.20126" stroke-linecap="round"/>
<path d="M74.0071 66.5543C74.0071 65.0016 74.3133 63.6128 75.0027 62.2341C75.677 60.8854 75.6132 59.143 76.0516 57.7184C76.2751 56.9919 76.1204 55.934 76.4872 55.2738C76.7423 54.8146 77.0169 53.7892 77.0472 53.2738C77.1052 52.2877 78.3327 49.9384 79.2161 49.4336C80.3112 48.8079 81.7818 48.7936 83.0474 48.7936C83.7079 48.7936 84.282 48.7571 84.763 49.2381C85.0866 49.5616 85.2516 50.269 85.6075 50.5537C86.2774 51.0896 84.8943 53.6899 84.7186 54.3049C84.4776 55.1483 84.8365 54.5349 85.3675 54.2694C85.995 53.9556 86.7544 54.0738 87.4476 54.0738C88.3821 54.0738 90.5261 53.6885 91.2521 54.2694C92.2716 55.0849 92.4077 55.9601 92.4077 57.2739C92.4077 58.371 91.3344 59.9559 90.6121 60.7585C89.7622 61.7029 88.5397 62.5132 87.3676 63.0341C84.3515 64.3746 81.5277 66.0868 78.3272 66.9098C77.5329 67.1141 76.5733 67.1481 75.8293 67.4343C75.3388 67.623 74.3527 67.8343 73.8471 67.8343C73.646 67.8343 73.207 68.0269 73.207 67.8343C73.207 67.5204 73.564 67.2312 73.687 66.9543C74.0972 66.0314 74.6026 65.0959 75.1271 64.2342C75.7392 63.2285 76.5201 62.2868 77.0827 61.2741C77.4436 60.6244 77.7859 59.5965 78.2472 59.0429C78.7601 58.4274 78.7855 57.403 79.0028 56.6694C79.338 55.5381 79.3617 54.2532 79.8473 53.1849C80.1324 52.5576 80.0873 51.8973 80.0873 51.1937C80.0873 50.0067 79.2402 50.3985 78.9672 51.3537C78.6 52.6389 78.065 53.8932 77.7228 55.1938C77.1689 57.2984 76.8379 59.4442 76.1583 61.523C75.8467 62.4758 75.5088 63.4365 75.296 64.3942C75.2567 64.5709 74.8264 66.509 75.1271 66.3587C75.4091 66.2177 75.5522 65.8091 75.7671 65.5942C76.029 65.3323 76.4671 65.1053 76.8072 64.9542C77.9089 64.4645 79.0935 63.8438 80.2473 63.5141C82.3425 62.9155 84.2429 62.2111 86.0786 61.0429C87.4316 60.182 89.4436 59.0365 90.2921 57.5939C90.4431 57.3372 91.5961 56.1523 91.0388 55.8339C90.3715 55.4526 89.7617 55.5139 89.0121 55.5139C87.8514 55.5139 83.7821 57.1591 83.163 55.5494C82.5091 53.8493 83.2995 52.5264 83.963 51.0337C84.6796 49.4212 81.5434 49.3576 81.0473 50.4737C80.8351 50.9512 80.9894 51.4404 80.8073 51.9137C80.5045 52.701 80.3986 53.5626 80.0873 54.3583C79.4379 56.0178 78.8977 57.9963 78.0072 59.5229C77.2487 60.8231 76.9681 62.332 76.3716 63.6741C76.2574 63.9311 75.7605 65.539 75.9627 65.7187C76.1455 65.8812 79.0386 62.5419 79.2961 62.3141C80.5186 61.2327 81.7989 60.2478 82.9318 59.0695C83.3976 58.5852 83.8302 58.0355 84.2474 57.5139C84.6001 57.0731 85.9784 57.1139 86.4875 57.1139C87.2876 57.1139 88.0876 57.1139 88.8876 57.1139C89.3078 57.1139 89.39 56.8604 89.6521 56.5983C89.6646 56.5858 89.7018 57.5466 89.6787 57.7539C89.6038 58.4286 89.3193 59.0856 89.2165 59.754C89.16 60.1213 89.3173 60.5369 89.0832 60.8296C88.824 61.1536 89.3503 60.3522 89.3676 60.1185C89.4178 59.441 89.6829 58.7418 89.8476 58.0828C90.0595 57.2355 90.3963 56.3072 90.7721 55.5139C90.899 55.2459 91.3345 54.7839 90.9677 55.1938C90.5084 55.7072 90.2717 56.4087 89.8476 56.9539C88.8449 58.2431 88.1773 59.7888 87.2875 61.1496C86.9883 61.6073 86.7464 62.0498 86.4164 62.4741C86.0404 62.9576 86.1675 62.1887 86.1675 61.8785C86.1675 60.0704 86.6176 58.2633 86.8164 56.4739C86.8631 56.0541 86.9675 55.7041 86.9675 55.2738C86.9675 55.0063 86.6622 55.7675 86.4875 56.0294C85.4796 57.5412 84.9088 59.3155 84.1674 60.9629C83.8264 61.7208 83.2887 62.3063 82.9763 63.0875C82.9337 63.194 82.5665 63.8422 82.5229 63.7986C82.1538 63.4295 83.483 60.6429 83.6074 60.1451C83.8871 59.0265 83.9872 57.9408 84.3719 56.8295C84.4337 56.6509 84.5768 55.9645 84.5674 56.1894C84.5383 56.8883 83.709 57.8697 83.3674 58.474C82.6578 59.7294 82.2045 61.1178 81.4918 62.3585C80.9483 63.3045 80.6507 64.5586 80.0073 65.4164C79.9277 65.5225 78.6821 67.6555 78.6472 66.7498C78.5822 65.0598 79.0329 63.5496 79.2873 61.8963C79.5012 60.5055 79.6744 58.7184 80.2828 57.4339C80.6139 56.7351 80.6746 55.9724 80.9584 55.2472C81.2732 54.4427 81.7134 53.6732 82.0074 52.8649C82.2629 52.1621 82.5615 51.4438 82.6474 50.7137C82.8374 49.0988 82.7196 53.9816 83.0385 55.5761C83.2542 56.6548 82.6945 59.8693 83.163 58.874C83.7144 57.7021 83.9274 55.6397 83.9274 54.3583C83.9274 53.658 84.0874 52.9812 84.0874 52.2782C84.0874 52.0606 84.0977 51.7579 84.0874 52.1893C84.0739 52.7584 83.8687 53.1175 83.6074 53.6027C82.3348 55.966 81.8025 58.8308 80.9584 61.363C80.8903 61.5673 80.5673 62.6491 80.5673 62.5541C80.5673 61.7738 80.7406 61.0518 80.9584 60.3051C81.5182 58.3859 81.743 56.3729 82.3274 54.4738C82.4311 54.1368 82.7349 53.3662 82.6385 54.2338C82.514 55.3546 81.3474 56.6932 80.7984 57.6117C79.6356 59.5572 78.6324 61.5892 77.4561 63.5141C77.3446 63.6966 76.9146 64.7764 76.6472 64.7764C76.3989 64.7764 76.6528 63.3598 76.7272 63.2297C76.9164 62.8985 77.7285 60.4687 77.6872 61.9141C77.6526 63.1263 76.8886 64.242 76.7183 65.4342C76.6793 65.7067 76.1329 67.4607 76.9227 66.7498C77.2373 66.4667 77.8293 66.3143 78.2028 66.0742C79.2473 65.4027 80.487 64.992 81.5807 64.4031C83.4497 63.3967 85.1395 62.1465 87.0564 61.2385C87.533 61.0127 86.4498 61.5312 86.3275 61.5941C85.516 62.0114 84.9347 62.6925 84.2474 63.2652C83.9931 63.4772 83.7527 63.6888 83.5185 63.923C83.3551 64.0864 82.7874 64.2731 82.9941 64.3764C83.2191 64.4889 84.4277 63.1202 84.603 62.963C85.6076 62.0623 86.4512 60.9777 87.412 60.0296C88.1001 59.3505 88.9314 58.2754 89.7499 57.7717C90.1911 57.5002 90.5651 57.1139 89.8121 57.1139C88.7151 57.1139 87.7094 57.276 86.6297 57.505C85.9068 57.6584 85.1993 57.9069 84.4874 58.0651C83.8799 58.2001 84.6584 57.0183 84.763 56.8828C85.0888 56.4605 85.5304 56.1789 85.9186 55.8339C86.179 55.6024 86.7576 55.6962 86.9675 55.4338C87.4452 54.8367 86.9995 54.7138 87.9631 54.7138C89.3079 54.7138 89.5851 55.2538 90.3632 56.1183C90.859 56.6692 90.9677 57.0935 90.9677 57.8339C90.9677 58.3995 90.2334 58.6199 89.7676 58.874C88.6788 59.4679 87.5864 60.0557 86.4875 60.634C86.3567 60.7029 85.2075 61.4678 85.2075 61.1141C85.2075 60.5822 86.2917 60.0275 86.6564 59.754C87.1609 59.3756 87.7974 58.9817 88.2476 58.554C88.4712 58.3415 89.2601 57.9139 88.7187 57.9139C87.8927 57.9139 86.8567 58.7762 86.1675 59.2029C85.4226 59.664 83.2385 61.1267 83.963 60.634C85.2517 59.7577 86.3533 57.902 87.9987 57.6028C89.8463 57.2669 84.4037 58.7629 82.5407 58.9984C81.1326 59.1765 78.0072 60.5026 78.0072 58.2428C78.0072 56.9992 78.2001 55.9217 78.3272 54.7138C78.363 54.3737 78.5091 54.1249 78.4872 53.7538C78.4731 53.5132 77.7685 53.5087 77.6872 53.6916C77.0644 55.0928 77.0218 56.7349 76.4071 58.1451C76.1379 58.7628 76.237 59.5103 76.0071 60.154C75.8915 60.4777 75.6441 60.941 75.6071 61.2741C75.5345 61.9278 75.1887 63.0175 74.8782 63.5941C74.5522 64.1997 74.3986 65.0248 73.9715 65.5587C73.3652 66.3165 76.6735 65.0929 76.8516 65.0253C79.1149 64.1668 81.0873 63.1446 83.2074 62.003C83.9664 61.5943 85.0069 61.1608 85.8475 61.1141C86.6579 61.069 87.5048 60.634 88.3276 60.634C89.5344 60.634 87.9537 61.566 87.4476 61.5941C86.4146 61.6515 86.3136 61.2325 86.0075 60.314" stroke="#1A3764" stroke-width="1.20126" stroke-linecap="round"/>
<path d="M43.3185 51.1396C43.4098 51.0992 43.5946 49.7882 43.6892 49.5435C43.9445 48.8833 44.1317 48.0282 44.2834 47.3333C44.6362 45.7172 44.9721 44.056 45.0659 42.401C45.1434 41.0352 46.0423 39.4478 46.635 38.2654C46.9579 37.6213 47.4922 36.7781 47.6624 36.0811C47.769 35.6449 48.4256 34.656 48.7809 34.373C49.6906 33.6484 50.205 32.8161 51.3756 32.464C51.9346 32.2959 52.4603 31.9815 53.0522 31.8035C53.5831 31.6439 53.94 32.2112 54.314 32.3617C54.5428 32.4537 54.9235 33.6088 55.0031 33.8734C55.1779 34.4549 55.4221 35.0381 55.3451 35.6458C55.2583 36.3308 54.9981 37.0596 54.7063 37.6785C54.5985 37.907 54.5538 38.1583 54.4487 38.3811C54.2999 38.6968 54.4519 38.2782 54.5904 38.2169C54.9402 38.0622 55.1013 37.3884 55.4393 37.1715C55.9876 36.8198 56.1988 36.483 56.8968 36.2731C57.9446 35.9579 59.3635 35.2078 60.3789 35.929C61.3616 36.627 61.8739 37.7905 62.1449 38.9141C62.3961 39.9559 61.2858 41.4303 60.6181 42.1514C59.85 42.9811 59.428 44.1825 58.34 44.7379C57.1325 45.3543 55.8726 45.9553 54.6941 46.6157C53.5722 47.2445 52.4769 48.0895 51.3007 48.5826C50.6245 48.8662 49.916 49.2156 49.3026 49.6177C48.783 49.9583 47.9381 49.9919 47.47 50.3946C47.1332 50.6842 46.2934 51.0263 45.8986 51.145C45.3168 51.32 44.9244 51.5942 44.3653 51.7624C44.1555 51.8255 43.138 52.4053 43.1513 52.3446C43.2934 51.6934 43.6963 51.0625 43.8921 50.4201C44.2571 49.2225 44.7252 47.7692 45.4273 46.7201C45.8979 46.0167 46.0698 45.0673 46.4561 44.3097C46.8487 43.5396 47.3395 42.5457 47.6058 41.724C47.8682 40.9141 48.3516 40.1754 48.5645 39.3694C48.7435 38.6918 48.9985 37.9296 49.3148 37.3032C49.713 36.5148 50.0286 35.698 50.4742 34.9229C50.8682 34.2377 50.8768 33.972 50.2559 34.7455C49.5337 35.6453 49.1916 36.8567 48.5117 37.7791C47.3389 39.3704 46.5742 41.4143 46.0365 43.2899C45.6345 44.6922 45.4382 46.1779 45.1906 47.6074C45.1025 48.1159 44.8145 48.739 44.9369 49.2464C44.9784 49.4186 45.0185 50.8714 44.8504 50.9219C44.6655 50.9776 45.4464 48.3429 45.5405 48.1359C46.164 46.7644 47.1344 45.5696 47.7221 44.1894C48.7662 41.7377 50.0569 39.275 51.3142 36.9363C51.7121 36.196 52.153 35.5001 52.5462 34.7686C52.8009 34.2948 53.2949 33.6398 53.4003 33.1053C53.4318 32.9457 53.6466 32.4461 53.4447 32.8488C53.1822 33.3724 52.9575 34.0123 52.7419 34.5535C52.1243 36.1045 51.4955 37.6706 50.7224 39.1545C49.5599 41.3862 48.8691 43.6549 48.022 45.9658C47.7563 46.6905 47.593 47.4222 47.153 48.0416C46.831 48.495 46.4716 49.2006 46.5148 49.7876C46.5771 50.6342 46.9254 48.9201 47.0865 48.5999C47.6096 47.5605 48.1077 46.5125 48.6468 45.474C49.3864 44.049 49.9669 42.5334 50.6856 41.1103C51.1325 40.2253 51.5487 39.1758 52.1346 38.3651C52.6898 37.5969 53.0782 36.7837 53.5265 35.9497C53.6582 35.7047 54.2069 34.1303 54.4983 34.0426C54.8752 33.9292 54.3135 34.8078 54.2275 35.1919C54.1153 35.6934 53.7802 36.3 53.5215 36.7412C53.1607 37.3567 53.0731 38.1341 52.7273 38.7772C52.3586 39.4631 52.0338 40.2209 51.7374 40.9415C50.994 42.7491 50.2035 44.498 49.74 46.3954C49.6067 46.9411 49.312 47.4896 49.0515 47.9742C48.8205 48.4039 48.9084 48.8859 48.7195 49.2374C47.8519 50.8513 50.2239 45.8925 51.0915 44.2786C51.5667 43.3947 51.9334 42.489 52.4068 41.6084C52.6772 41.1053 53.1072 40.4958 53.2346 39.9443C53.3621 39.3922 53.8876 38.8537 54.1604 38.3462C54.2263 38.2237 54.6182 37.3241 54.7825 37.4125C55.0051 37.5321 54.153 38.9011 54.0877 39.0279C53.3918 40.3786 53.1566 42.08 52.917 43.5646C52.8039 44.2653 52.2528 45.2307 52.3739 45.9158C52.4665 46.4391 52.1812 46.9792 52.0644 47.4848C51.8257 48.5184 52.4522 46.9891 52.5098 46.6563C52.6939 45.5936 53.3758 44.6754 53.805 43.6883C54.2036 42.7714 54.6538 41.4255 55.2323 40.611C55.5755 40.1279 56.1314 39.3195 56.2742 38.735C56.3578 38.3927 56.761 37.2516 57.1634 37.1305C57.4865 37.0333 56.869 37.7378 56.726 38.0434C56.5477 38.4243 56.4935 39.012 56.3639 39.4373C56.0892 40.3384 55.7582 41.26 55.6299 42.1931C55.4665 43.3817 55.6803 44.5235 55.2477 45.5985C54.862 46.5569 55.4308 44.9432 55.5122 44.6594C55.7953 43.6718 56.1741 42.6459 56.6641 41.7345C57.4808 40.2151 57.8379 38.5864 58.748 37.088C58.9508 36.7541 59.2415 35.8688 59.4198 36.6082C59.5396 37.1047 59.0134 38.2282 58.7905 38.6727C58.3698 39.512 58.1967 40.575 57.997 41.4899C57.9049 41.9113 57.9612 42.8792 57.733 43.2101C57.6305 43.3586 57.8014 43.975 58.0247 43.6607C58.2258 43.3776 58.2168 43.0151 58.3553 42.7104C58.644 42.0754 58.9201 41.0778 59.0712 40.3854C59.166 39.9515 60.6885 37.7731 60.7969 38.0693C61.1745 39.1009 60.6458 40.0169 60.0948 40.8155C59.4807 41.7056 58.5352 42.5479 57.7681 43.3558C56.9381 44.2299 56.1038 44.761 54.9942 45.2753C53.5059 45.9652 51.7943 46.5617 50.5595 47.6769C50.3459 47.8698 50.0476 47.977 49.8973 48.1886C49.8523 48.252 49.9556 47.7309 50.174 47.5498C50.7687 47.0565 51.4005 45.6722 51.5673 44.9082C52.013 42.8668 53.6582 40.9912 54.8444 39.3212C54.9675 39.1479 55.258 38.3582 55.4031 38.8407C55.5196 39.2283 55.6348 39.6312 55.5202 40.0383C55.2602 40.961 54.6937 41.8729 54.5721 42.8325C54.5472 43.0288 53.8076 44.3692 53.6626 43.9655C53.0774 42.3357 52.6213 40.6163 52.1541 38.9496C51.5935 36.9495 52.449 35.0682 52.784 33.1344C52.8109 32.9788 52.8445 32.3886 52.5184 32.5978C52.262 32.7623 52.1417 33.5469 52.0797 33.8237C51.8787 34.7215 51.3826 35.7084 51.028 36.5622C50.6609 37.4462 50.5824 38.7685 49.8953 39.464C49.2765 40.0904 48.7166 41.3719 48.3785 42.1861C47.7901 43.6032 47.6886 44.9376 47.4975 46.4447C47.4176 47.0757 47.5838 47.6979 47.5052 48.3177C47.4813 48.5064 47.576 49.8022 47.1587 49.3595" stroke="#1A3764" stroke-width="1.20126" stroke-linecap="round"/>
</svg>
