<svg width="72" height="92" viewBox="0 0 72 92" fill="none" xmlns="http://www.w3.org/2000/svg">
<path d="M3.89847 71.3878C3.37137 72.2264 2.49889 72.2592 1.84991 72.6666C1.47192 72.904 0.897106 73.4318 1.12811 73.6061C2.76396 74.8395 2.12983 77.6806 4.51463 78.3231C14.195 80.9324 22.7323 86.3187 32.1088 89.6655C32.7676 89.9007 33.4111 90.1787 34.0673 90.4214C37.8597 91.8238 37.8603 91.8222 38.343 87.9801C38.8388 84.0273 38.7213 83.7098 35.0301 81.6836C27.3616 77.4742 19.6687 73.3069 11.7706 69.5387C9.30776 68.3635 6.7373 67.4357 3.92387 68.1151C3.16066 68.287 2.4258 68.5667 1.74138 68.9456C1.15715 69.2837 0.459335 69.8164 0.714188 70.5993C0.978495 71.4119 1.73915 70.9459 2.30653 70.9024C2.8254 70.8601 3.35093 70.7798 3.89847 71.3878Z" fill="white"/>
<path d="M22.8348 34.8322C24.3485 37.9088 26.9197 39.9985 29.6084 41.9765C35.448 46.2721 41.9346 49.6029 47.6532 54.0816C48.759 54.9475 49.3402 54.6937 49.8781 53.2559C51.441 49.0793 48.9541 46.6831 46.1754 44.5171C40.5991 40.1699 34.9 35.9799 29.2743 31.6956C27.8164 30.5853 26.4293 29.3808 25.0337 28.1915C24.227 27.5032 23.4175 27.6839 22.6022 28.0991C21.7577 28.5277 21.7646 29.1697 21.8963 30.0725C22.1304 31.6787 22.1397 33.315 22.8348 34.8322Z" fill="white"/>
<path d="M67.1588 12.4974C65.7844 9.18583 64.4263 5.87015 63.0283 2.57022C62.5834 1.51966 62.114 0.410517 60.6136 0.647898C59.2444 0.864192 59.6114 2.03172 59.3415 2.89044C58.8215 4.5452 58.9429 6.17864 59.3413 7.80578C61.0741 14.8842 63.3964 21.7244 67.4796 27.8539C67.9216 28.5171 68.2225 29.2898 69.1659 29.2768C70.2329 29.2618 70.1102 28.2651 70.5134 27.6522C72.3963 24.7904 71.3142 22.1818 70.1031 19.501C69.0607 17.1941 68.1465 14.8293 67.1757 12.4904L67.1588 12.4974Z" fill="white"/>
</svg>
