<svg width="1440" height="60" viewBox="0 0 1440 60" fill="none" xmlns="http://www.w3.org/2000/svg">
<mask id="mask0_1354_7839" style="mask-type:alpha" maskUnits="userSpaceOnUse" x="0" y="0" width="1440" height="60">
<rect width="1440" height="60" fill="#D9D9D9"/>
</mask>
<g mask="url(#mask0_1354_7839)">
<path d="M0 -634.5H1440V25.7839C1438.2 26.9971 1436.28 28.4124 1434.3 29.8718C1425.88 36.0782 1416.38 43.0842 1410.26 38.7563C1400.31 31.7231 1388.92 26.4451 1384.93 27.0292C1380.95 27.61 1330.98 33.9464 1318.01 30.1943C1310.24 27.9432 1306.16 26.5793 1301.84 25.8861C1294.6 24.7256 1286.65 25.445 1259.46 27.0292C1192.52 13.5009 1174.3 23.175 1163.54 28.8894C1162.17 29.6157 1160.92 30.2781 1159.71 30.8207C1146.31 36.8173 1111.86 36.4155 1105.88 30.1943C1102 26.1474 1093.28 25.8647 1060.85 28.7383C1038.74 30.7014 1013.33 31.1567 1004.39 29.7543C995.441 28.3519 980.495 28.443 971.173 29.9592C960.929 31.6274 942.667 30.8495 925.008 27.9902C901.304 24.1577 893.081 24.2721 881.385 28.6082C866.658 34.0624 863.707 31.8505 855.746 25.8836C854.694 25.0952 853.555 24.2414 852.289 23.3309C846.004 25.1313 843.119 27.233 840.509 29.1344C836.365 32.1537 832.914 34.6677 817.644 34.6677C802.597 26.2231 793.349 23.9074 760.72 20.4178C724.679 16.5632 721.004 15.4992 711.643 6.18018C704.242 -1.1828 693.962 2.10187 681.772 5.99683C673.284 8.70911 663.869 11.7173 653.855 11.6323C650.563 11.6045 645.269 12.8315 638.984 14.2882C624.055 17.7483 603.534 22.5045 590.964 14.8209C590.178 13.3872 589.72 11.8818 589.281 10.439C587.234 3.71063 585.602 -1.65302 553.012 7.99017L558.434 14.8209L541.007 11.6322C551.893 20.8337 552.663 23.1376 546.732 28.739C544.707 30.6531 542.504 25.4285 540.682 21.1077C539.112 17.3845 537.825 14.3325 537.179 17.0986L526.297 11.6322L508.026 7.99011C481.104 2.41577 464.291 2.61261 445.552 11.6323C440.586 14.0227 437.106 15.0237 433.303 16.1177C428.98 17.3613 424.24 18.725 416.424 22.3861C408.37 26.1585 399.935 26.0398 393.127 25.944C386.897 25.8564 382.028 25.7878 380.06 28.739C376.018 34.8049 366.06 33.4263 357.68 32.2663C355.054 31.9027 352.583 31.5607 350.498 31.476C347.402 31.3489 345.154 33.2874 342.547 35.5348C339.719 37.9728 336.47 40.7745 331.26 41.6976C328.341 42.214 325.838 42.7244 323.629 43.1747C312.803 45.3824 309.061 46.1452 298.193 39.0795C294.069 36.3984 288.914 37.3857 283.413 38.4391C278.767 39.3289 273.875 40.2658 269.149 39.0795C251.927 34.759 248.618 35.1914 229.044 44.3147C220.691 48.2059 213.874 42.3428 209.384 38.4807C207.565 36.9164 206.129 35.6806 205.126 35.5538C201.642 35.1135 195.704 36.702 191.928 39.0795C187.651 41.7738 181.186 42.1489 174.801 40.0731C167.711 37.7687 159.058 38.8502 146.749 43.5828C131.515 49.441 125.077 49.8021 101.951 46.0914C79.8148 42.5441 72.2876 42.8232 60.1851 47.6447C52.0671 50.8818 37.6589 53.4633 28.1736 53.3834C14.634 53.2696 6.04285 53.2538 0 54V-634.5Z" fill="#1A3764"/>
</g>
</svg>
